M48
; DRILL file {KiCad 8.0.3} date 2024-07-15T22:48:33-0400
; FORMAT={-:-/ absolute / inch / decimal}
; #@! TF.CreationDate,2024-07-15T22:48:33-04:00
; #@! TF.GenerationSoftware,Kicad,Pcbnew,8.0.3
; #@! TF.FileFunction,Plated,1,2,PTH
FMAT,2
INCH
; #@! TA.AperFunction,Plated,PTH,ViaDrill
T1C0.0118
; #@! TA.AperFunction,Plated,PTH,ViaDrill
T2C0.0157
; #@! TA.AperFunction,Plated,PTH,ComponentDrill
T3C0.0394
; #@! TA.AperFunction,Plated,PTH,ComponentDrill
T4C0.0748
%
G90
G05
T1
X4.03Y-2.225
X4.064Y-2.228
X4.064Y-2.26
X4.064Y-2.288
X4.095Y-2.23
X4.095Y-2.26
X4.096Y-2.288
X4.1234Y-2.226
X4.6309Y-2.1787
X4.7982Y-2.4439
X4.9095Y-2.5507
X4.9679Y-2.2957
X4.9689Y-2.2477
T2
X3.5921Y-1.4005
X3.5921Y-1.5005
X3.5921Y-1.6005
X3.5921Y-1.7005
X3.5921Y-1.8005
X3.5921Y-1.9005
X3.5921Y-2.0005
X3.5921Y-2.1005
X3.5921Y-2.4005
X3.5921Y-2.5005
X3.5921Y-2.6005
X3.5921Y-2.7005
X3.5921Y-2.8005
X3.6921Y-1.5005
X3.6921Y-1.6005
X3.6921Y-1.7005
X3.6921Y-1.8005
X3.6921Y-1.9005
X3.6921Y-2.0005
X3.6921Y-2.1005
X3.6921Y-2.2005
X3.6921Y-2.4005
X3.6921Y-2.5005
X3.6921Y-2.6005
X3.6921Y-2.7005
X3.6921Y-2.8005
X3.7583Y-4.7638
X3.7921Y-1.4005
X3.7921Y-2.1005
X3.7921Y-2.2005
X3.7921Y-2.6005
X3.7921Y-2.7005
X3.7921Y-2.8005
X3.8583Y-4.7638
X3.8701Y-2.2835
X3.8701Y-2.3228
X3.8921Y-1.4005
X3.8921Y-2.7005
X3.8921Y-2.8005
X3.9094Y-2.2835
X3.9094Y-2.3228
X3.9488Y-2.2835
X3.9583Y-4.7638
X3.9921Y-1.4005
X3.9921Y-2.6005
X3.9921Y-2.7005
X3.9921Y-2.8005
X4.0504Y-2.3793
X4.0583Y-4.7638
X4.0583Y-4.8638
X4.0583Y-4.9638
X4.0583Y-5.0638
X4.0921Y-1.4005
X4.0921Y-2.6005
X4.0921Y-2.7005
X4.0921Y-2.8005
X4.1285Y-1.966
X4.1583Y-4.7638
X4.1583Y-4.8638
X4.1583Y-4.9638
X4.1583Y-5.0638
X4.1776Y-2.1543
X4.18Y-2.265
X4.1921Y-1.5005
X4.1921Y-1.6005
X4.1921Y-2.6005
X4.1921Y-2.7005
X4.1921Y-2.8005
X4.2087Y-2.3386
X4.2583Y-4.7638
X4.2583Y-4.8638
X4.2583Y-4.9638
X4.2583Y-5.0638
X4.2677Y-1.9518
X4.2921Y-1.4005
X4.2921Y-1.5005
X4.2921Y-1.6005
X4.2921Y-1.7005
X4.2921Y-2.7005
X4.2921Y-2.8005
X4.2943Y-1.7953
X4.2992Y-1.8878
X4.3159Y-2.003
X4.3425Y-1.9557
X4.3514Y-1.8789
X4.3583Y-4.7638
X4.3583Y-4.8638
X4.3583Y-4.9638
X4.3583Y-5.0638
X4.3858Y-2.1535
X4.3858Y-2.1929
X4.3858Y-2.2323
X4.3858Y-2.2717
X4.3921Y-1.4005
X4.3921Y-1.5005
X4.3921Y-1.6005
X4.3921Y-2.5005
X4.3921Y-2.6005
X4.3921Y-2.7005
X4.3921Y-2.8005
X4.4213Y-1.8421
X4.4213Y-1.8814
X4.4213Y-1.9208
X4.4213Y-1.9602
X4.4213Y-1.9995
X4.4252Y-2.1535
X4.4252Y-2.1929
X4.4252Y-2.2323
X4.4252Y-2.2717
X4.4252Y-2.311
X4.4583Y-4.7638
X4.4583Y-4.8638
X4.4583Y-4.9638
X4.4583Y-5.0638
X4.4607Y-1.8421
X4.4607Y-1.8814
X4.4607Y-1.9208
X4.4607Y-1.9602
X4.4607Y-1.9995
X4.4646Y-2.1535
X4.4646Y-2.1929
X4.4646Y-2.2323
X4.4646Y-2.2717
X4.4646Y-2.311
X4.4921Y-1.4005
X4.4921Y-1.5005
X4.4921Y-1.6005
X4.4921Y-2.6005
X4.4921Y-2.7005
X4.4921Y-2.8005
X4.5Y-1.8421
X4.5Y-1.8814
X4.5Y-1.9208
X4.5Y-1.9602
X4.5Y-1.9995
X4.5039Y-2.1535
X4.5039Y-2.1929
X4.5039Y-2.2323
X4.5039Y-2.2717
X4.5039Y-2.311
X4.5433Y-2.1535
X4.5433Y-2.1929
X4.5433Y-2.2323
X4.5433Y-2.2717
X4.5433Y-2.311
X4.5583Y-4.7638
X4.5827Y-2.1535
X4.5827Y-2.1929
X4.5827Y-2.2323
X4.5827Y-2.2717
X4.5827Y-2.311
X4.5921Y-1.6005
X4.5921Y-2.6005
X4.5921Y-2.7005
X4.5921Y-2.8005
X4.6535Y-2.2402
X4.6921Y-1.6005
X4.6921Y-2.6005
X4.6921Y-2.7005
X4.6929Y-2.2402
X4.7583Y-4.7638
X4.7795Y-2.22
X4.7921Y-1.4005
X4.7921Y-2.8005
X4.8583Y-4.7638
X4.8583Y-4.8638
X4.8583Y-4.9638
X4.8583Y-5.0638
X4.8921Y-1.4005
X4.8921Y-2.8005
X4.95Y-1.62
X4.9728Y-2.4408
X4.9921Y-1.8005
X4.9921Y-1.9005
X4.9921Y-2.0005
X4.9921Y-2.8005
X5.0043Y-2.6376
X5.0921Y-1.6005
X5.0921Y-1.7005
X5.0921Y-1.8005
X5.0921Y-1.9005
X5.0921Y-2.0005
X5.0921Y-2.8005
T3
X3.7284Y-1.3775
X4.1614Y-1.3775
X5.1409Y-2.2567
X5.1409Y-2.3567
X5.1409Y-2.4567
X5.1409Y-2.5567
X5.1409Y-2.6567
T4
X3.8465Y-1.5743
X4.0433Y-1.5743
M30
