%TF.GenerationSoftware,KiCad,Pcbnew,8.0.3*%
%TF.CreationDate,2024-07-15T22:48:31-04:00*%
%TF.ProjectId,get-a-grip-on-reality,6765742d-612d-4677-9269-702d6f6e2d72,rev?*%
%TF.SameCoordinates,Original*%
%TF.FileFunction,Copper,L2,Bot*%
%TF.FilePolarity,Positive*%
%FSLAX46Y46*%
G04 Gerber Fmt 4.6, Leading zero omitted, Abs format (unit mm)*
G04 Created by KiCad (PCBNEW 8.0.3) date 2024-07-15 22:48:31*
%MOMM*%
%LPD*%
G01*
G04 APERTURE LIST*
G04 Aperture macros list*
%AMRoundRect*
0 Rectangle with rounded corners*
0 $1 Rounding radius*
0 $2 $3 $4 $5 $6 $7 $8 $9 X,Y pos of 4 corners*
0 Add a 4 corners polygon primitive as box body*
4,1,4,$2,$3,$4,$5,$6,$7,$8,$9,$2,$3,0*
0 Add four circle primitives for the rounded corners*
1,1,$1+$1,$2,$3*
1,1,$1+$1,$4,$5*
1,1,$1+$1,$6,$7*
1,1,$1+$1,$8,$9*
0 Add four rect primitives between the rounded corners*
20,1,$1+$1,$2,$3,$4,$5,0*
20,1,$1+$1,$4,$5,$6,$7,0*
20,1,$1+$1,$6,$7,$8,$9,0*
20,1,$1+$1,$8,$9,$2,$3,0*%
G04 Aperture macros list end*
%TA.AperFunction,SMDPad,CuDef*%
%ADD10RoundRect,0.250000X-0.475000X0.250000X-0.475000X-0.250000X0.475000X-0.250000X0.475000X0.250000X0*%
%TD*%
%TA.AperFunction,SMDPad,CuDef*%
%ADD11RoundRect,0.250000X-0.450000X0.262500X-0.450000X-0.262500X0.450000X-0.262500X0.450000X0.262500X0*%
%TD*%
%TA.AperFunction,SMDPad,CuDef*%
%ADD12RoundRect,0.250000X0.475000X-0.250000X0.475000X0.250000X-0.475000X0.250000X-0.475000X-0.250000X0*%
%TD*%
%TA.AperFunction,SMDPad,CuDef*%
%ADD13RoundRect,0.062500X-0.117500X-0.062500X0.117500X-0.062500X0.117500X0.062500X-0.117500X0.062500X0*%
%TD*%
%TA.AperFunction,SMDPad,CuDef*%
%ADD14RoundRect,0.250000X-0.250000X-0.475000X0.250000X-0.475000X0.250000X0.475000X-0.250000X0.475000X0*%
%TD*%
%TA.AperFunction,SMDPad,CuDef*%
%ADD15R,0.650000X2.000000*%
%TD*%
%TA.AperFunction,SMDPad,CuDef*%
%ADD16RoundRect,0.250000X0.250000X0.475000X-0.250000X0.475000X-0.250000X-0.475000X0.250000X-0.475000X0*%
%TD*%
%TA.AperFunction,SMDPad,CuDef*%
%ADD17RoundRect,0.243750X-0.456250X0.243750X-0.456250X-0.243750X0.456250X-0.243750X0.456250X0.243750X0*%
%TD*%
%TA.AperFunction,SMDPad,CuDef*%
%ADD18RoundRect,0.250000X-0.262500X-0.450000X0.262500X-0.450000X0.262500X0.450000X-0.262500X0.450000X0*%
%TD*%
%TA.AperFunction,SMDPad,CuDef*%
%ADD19C,1.374676*%
%TD*%
%TA.AperFunction,SMDPad,CuDef*%
%ADD20R,0.249999X0.650001*%
%TD*%
%TA.AperFunction,SMDPad,CuDef*%
%ADD21R,0.675000X0.675000*%
%TD*%
%TA.AperFunction,SMDPad,CuDef*%
%ADD22R,0.650001X0.249999*%
%TD*%
%TA.AperFunction,SMDPad,CuDef*%
%ADD23R,0.800001X0.850001*%
%TD*%
%TA.AperFunction,SMDPad,CuDef*%
%ADD24R,1.849999X0.700001*%
%TD*%
%TA.AperFunction,HeatsinkPad*%
%ADD25R,2.500000X2.500000*%
%TD*%
%TA.AperFunction,SMDPad,CuDef*%
%ADD26RoundRect,0.062500X0.062500X0.375000X-0.062500X0.375000X-0.062500X-0.375000X0.062500X-0.375000X0*%
%TD*%
%TA.AperFunction,SMDPad,CuDef*%
%ADD27RoundRect,0.062500X0.375000X0.062500X-0.375000X0.062500X-0.375000X-0.062500X0.375000X-0.062500X0*%
%TD*%
%TA.AperFunction,SMDPad,CuDef*%
%ADD28RoundRect,0.275000X0.275000X0.725000X-0.275000X0.725000X-0.275000X-0.725000X0.275000X-0.725000X0*%
%TD*%
%TA.AperFunction,SMDPad,CuDef*%
%ADD29RoundRect,0.275000X-0.275000X-0.725000X0.275000X-0.725000X0.275000X0.725000X-0.275000X0.725000X0*%
%TD*%
%TA.AperFunction,SMDPad,CuDef*%
%ADD30RoundRect,0.275000X0.725000X-0.275000X0.725000X0.275000X-0.725000X0.275000X-0.725000X-0.275000X0*%
%TD*%
%TA.AperFunction,ComponentPad*%
%ADD31O,1.700000X1.700000*%
%TD*%
%TA.AperFunction,ComponentPad*%
%ADD32R,1.700000X1.700000*%
%TD*%
%TA.AperFunction,ComponentPad*%
%ADD33C,1.400000*%
%TD*%
%TA.AperFunction,ComponentPad*%
%ADD34R,3.500000X3.500000*%
%TD*%
%TA.AperFunction,ComponentPad*%
%ADD35C,3.500000*%
%TD*%
%TA.AperFunction,ViaPad*%
%ADD36C,0.800000*%
%TD*%
%TA.AperFunction,ViaPad*%
%ADD37C,0.600000*%
%TD*%
%TA.AperFunction,ViaPad*%
%ADD38C,0.500000*%
%TD*%
%TA.AperFunction,Conductor*%
%ADD39C,0.250000*%
%TD*%
%TA.AperFunction,Conductor*%
%ADD40C,0.150000*%
%TD*%
%TA.AperFunction,Conductor*%
%ADD41C,1.000000*%
%TD*%
%TA.AperFunction,Conductor*%
%ADD42C,0.500000*%
%TD*%
%TA.AperFunction,Conductor*%
%ADD43C,0.300000*%
%TD*%
%TA.AperFunction,Conductor*%
%ADD44C,0.600000*%
%TD*%
G04 APERTURE END LIST*
D10*
%TO.P,C23,2*%
%TO.N,GND*%
X100500000Y-63275000D03*
%TO.P,C23,1*%
%TO.N,Net-(U7-SS)*%
X100500000Y-61375000D03*
%TD*%
D11*
%TO.P,R13,2*%
%TO.N,GND*%
X123681474Y-69035300D03*
%TO.P,R13,1*%
%TO.N,Net-(U6-TS)*%
X123681474Y-67210300D03*
%TD*%
D12*
%TO.P,C14,2*%
%TO.N,GND*%
X125400000Y-53650000D03*
%TO.P,C14,1*%
%TO.N,+5VUSB*%
X125400000Y-55550000D03*
%TD*%
D11*
%TO.P,R12,2*%
%TO.N,Net-(U6-TS)*%
X121285000Y-69238500D03*
%TO.P,R12,1*%
%TO.N,Net-(U6-REGN)*%
X121285000Y-67413500D03*
%TD*%
D13*
%TO.P,D8,2,A2*%
%TO.N,+5VUSB*%
X125818000Y-42291000D03*
%TO.P,D8,1,A1*%
%TO.N,GND*%
X126658000Y-42291000D03*
%TD*%
D12*
%TO.P,C27,2*%
%TO.N,/Power/SW_5*%
X99300000Y-52450000D03*
%TO.P,C27,1*%
%TO.N,/Power/BOOT*%
X99300000Y-54350000D03*
%TD*%
D11*
%TO.P,R11,2*%
%TO.N,GND*%
X98100000Y-65812500D03*
%TO.P,R11,1*%
%TO.N,Net-(U7-EN)*%
X98100000Y-63987500D03*
%TD*%
%TO.P,R17,2*%
%TO.N,/Power/CELL_1*%
X125654841Y-65572300D03*
%TO.P,R17,1*%
%TO.N,Net-(U6-MID)*%
X125654841Y-63747300D03*
%TD*%
D14*
%TO.P,C21,2*%
%TO.N,/Power/PMID*%
X123124000Y-55238300D03*
%TO.P,C21,1*%
%TO.N,GND*%
X121224000Y-55238300D03*
%TD*%
D11*
%TO.P,R20,2*%
%TO.N,GND*%
X104400000Y-63200000D03*
%TO.P,R20,1*%
%TO.N,Net-(U7-FB)*%
X104400000Y-61375000D03*
%TD*%
D10*
%TO.P,C17,2*%
%TO.N,GND*%
X96093400Y-62387500D03*
%TO.P,C17,1*%
%TO.N,+BATT*%
X96093400Y-60487500D03*
%TD*%
%TO.P,C15,2*%
%TO.N,GND*%
X119657174Y-62250000D03*
%TO.P,C15,1*%
%TO.N,+BATT*%
X119657174Y-60350000D03*
%TD*%
D14*
%TO.P,C28,2*%
%TO.N,GND*%
X107408600Y-46923796D03*
%TO.P,C28,1*%
%TO.N,+5VBuck*%
X105508600Y-46923796D03*
%TD*%
D11*
%TO.P,R18,2*%
%TO.N,/Power/CELL_1*%
X123676908Y-65572300D03*
%TO.P,R18,1*%
%TO.N,Net-(U6-CBSET)*%
X123676908Y-63747300D03*
%TD*%
D15*
%TO.P,L1,2,2*%
%TO.N,/Power/SW_BAT*%
X121989574Y-52876100D03*
%TO.P,L1,1,1*%
%TO.N,/Power/PMID*%
X123339574Y-52876100D03*
%TD*%
D16*
%TO.P,C29,2*%
%TO.N,GND*%
X99279548Y-47025150D03*
%TO.P,C29,1*%
%TO.N,+5VBuck*%
X101179548Y-47025150D03*
%TD*%
D10*
%TO.P,C24,2*%
%TO.N,GND*%
X121285000Y-65847000D03*
%TO.P,C24,1*%
%TO.N,Net-(U6-REGN)*%
X121285000Y-63947000D03*
%TD*%
D17*
%TO.P,D7,2,A*%
%TO.N,+5VUSB*%
X127508000Y-55547500D03*
%TO.P,D7,1,K*%
%TO.N,Net-(D7-K)*%
X127508000Y-53672500D03*
%TD*%
D18*
%TO.P,R14,2*%
%TO.N,Net-(U7-PG)*%
X109912500Y-61100000D03*
%TO.P,R14,1*%
%TO.N,Net-(U7-VCC)*%
X108087500Y-61100000D03*
%TD*%
D11*
%TO.P,R16,2*%
%TO.N,GND*%
X108300000Y-64725000D03*
%TO.P,R16,1*%
%TO.N,Net-(U7-MSEL)*%
X108300000Y-62900000D03*
%TD*%
%TO.P,R10,2*%
%TO.N,Net-(U7-EN)*%
X98100000Y-62325000D03*
%TO.P,R10,1*%
%TO.N,+BATT*%
X98100000Y-60500000D03*
%TD*%
D12*
%TO.P,C26,2*%
%TO.N,GND*%
X118844374Y-56879100D03*
%TO.P,C26,1*%
%TO.N,/Power/SNS*%
X118844374Y-58779100D03*
%TD*%
D11*
%TO.P,TH1,2*%
%TO.N,GND*%
X125668974Y-69035300D03*
%TO.P,TH1,1*%
%TO.N,Net-(U6-TS)*%
X125668974Y-67210300D03*
%TD*%
D12*
%TO.P,C22,2*%
%TO.N,GND*%
X107800000Y-51175000D03*
%TO.P,C22,1*%
%TO.N,Net-(U7-VCC)*%
X107800000Y-53075000D03*
%TD*%
D19*
%TO.P,U7,16,PGND*%
%TO.N,GND*%
X103600001Y-57016572D03*
D20*
%TO.P,U7,15,SS*%
%TO.N,Net-(U7-SS)*%
X102850000Y-58910000D03*
%TO.P,U7,14,FB*%
%TO.N,Net-(U7-FB)*%
X103350001Y-58910000D03*
%TO.P,U7,13,GOSNS*%
%TO.N,GND*%
X103850001Y-58910000D03*
%TO.P,U7,12,ILIM*%
%TO.N,Net-(U7-ILIM)*%
X104350002Y-58910000D03*
D21*
%TO.P,U7,11,MSEL*%
%TO.N,Net-(U7-MSEL)*%
X105012500Y-58947500D03*
D22*
%TO.P,U7,10,PG*%
%TO.N,Net-(U7-PG)*%
X104975002Y-58285000D03*
D23*
%TO.P,U7,9,VIN*%
%TO.N,+BATT*%
X104950001Y-57534999D03*
D22*
%TO.P,U7,8,PGND*%
%TO.N,GND*%
X104975002Y-56534998D03*
D21*
%TO.P,U7,7,VCC*%
%TO.N,Net-(U7-VCC)*%
X105012500Y-55622498D03*
D24*
%TO.P,U7,6,SW*%
%TO.N,/Power/SW_5*%
X103600001Y-55635000D03*
D21*
%TO.P,U7,5,BOOT*%
%TO.N,/Power/BOOT*%
X102187502Y-55622498D03*
D22*
%TO.P,U7,4,PGND*%
%TO.N,GND*%
X102225000Y-56534998D03*
D23*
%TO.P,U7,3,VIN*%
%TO.N,+BATT*%
X102250001Y-57534999D03*
D22*
%TO.P,U7,2,AGND*%
%TO.N,GND*%
X102225000Y-58285000D03*
D21*
%TO.P,U7,1,EN*%
%TO.N,Net-(U7-EN)*%
X102187502Y-58947500D03*
%TD*%
D11*
%TO.P,R9,2*%
%TO.N,GND*%
X127632774Y-65572300D03*
%TO.P,R9,1*%
%TO.N,Net-(U6-ILIM)*%
X127632774Y-63747300D03*
%TD*%
%TO.P,R15,2*%
%TO.N,GND*%
X106300000Y-63200000D03*
%TO.P,R15,1*%
%TO.N,Net-(U7-ILIM)*%
X106300000Y-61375000D03*
%TD*%
D10*
%TO.P,C19,2*%
%TO.N,GND*%
X115454774Y-62250000D03*
%TO.P,C19,1*%
%TO.N,+BATT*%
X115454774Y-60350000D03*
%TD*%
D25*
%TO.P,U6,25*%
%TO.N,N/C*%
X123345574Y-59015800D03*
D26*
%TO.P,U6,24,PSEL*%
%TO.N,unconnected-(U6-PSEL-Pad24)*%
X124595574Y-57078300D03*
%TO.P,U6,23,VBUS*%
%TO.N,+5VUSB*%
X124095574Y-57078300D03*
%TO.P,U6,22,PMID*%
%TO.N,/Power/PMID*%
X123595574Y-57078300D03*
%TO.P,U6,21,PMID*%
X123095574Y-57078300D03*
%TO.P,U6,20,GND*%
%TO.N,GND*%
X122595574Y-57078300D03*
%TO.P,U6,19,GND*%
X122095574Y-57078300D03*
D27*
%TO.P,U6,18,SW*%
%TO.N,/Power/SW_BAT*%
X121408074Y-57765800D03*
%TO.P,U6,17,SW*%
X121408074Y-58265800D03*
%TO.P,U6,16,SNS*%
%TO.N,/Power/SNS*%
X121408074Y-58765800D03*
%TO.P,U6,15,SNS*%
X121408074Y-59265800D03*
%TO.P,U6,14,BAT*%
%TO.N,+BATT*%
X121408074Y-59765800D03*
%TO.P,U6,13,BAT*%
X121408074Y-60265800D03*
D26*
%TO.P,U6,12,BTST*%
%TO.N,Net-(U6-BTST)*%
X122095574Y-60953300D03*
%TO.P,U6,11,REGN*%
%TO.N,Net-(U6-REGN)*%
X122595574Y-60953300D03*
%TO.P,U6,10,CBSET*%
%TO.N,Net-(U6-CBSET)*%
X123095574Y-60953300D03*
%TO.P,U6,9,MID*%
%TO.N,Net-(U6-MID)*%
X123595574Y-60953300D03*
%TO.P,U6,8,ILIM*%
%TO.N,Net-(U6-ILIM)*%
X124095574Y-60953300D03*
%TO.P,U6,7,TS*%
%TO.N,Net-(U6-TS)*%
X124595574Y-60953300D03*
D27*
%TO.P,U6,6,~{INT}*%
%TO.N,Net-(J14-Pin_4)*%
X125283074Y-60265800D03*
%TO.P,U6,5,SCL*%
%TO.N,Net-(J14-Pin_3)*%
X125283074Y-59765800D03*
%TO.P,U6,4,SDA*%
%TO.N,Net-(J14-Pin_2)*%
X125283074Y-59265800D03*
%TO.P,U6,3,CD*%
%TO.N,unconnected-(U6-CD-Pad3)*%
X125283074Y-58765800D03*
%TO.P,U6,2,STAT*%
%TO.N,Net-(U6-STAT)*%
X125283074Y-58265800D03*
%TO.P,U6,1,~{PG}*%
%TO.N,Net-(J14-Pin_1)*%
X125283074Y-57765800D03*
%TD*%
D16*
%TO.P,C30,2*%
%TO.N,GND*%
X99294748Y-44967750D03*
%TO.P,C30,1*%
%TO.N,+5VBuck*%
X101194748Y-44967750D03*
%TD*%
D12*
%TO.P,C25,2*%
%TO.N,/Power/SW_BAT*%
X118844374Y-53414500D03*
%TO.P,C25,1*%
%TO.N,Net-(U6-BTST)*%
X118844374Y-55314500D03*
%TD*%
D28*
%TO.P,L2,MP*%
%TO.N,N/C*%
X105963000Y-51165596D03*
D29*
X101163000Y-51165596D03*
D30*
%TO.P,L2,2,2*%
%TO.N,+5VBuck*%
X103563000Y-48765596D03*
%TO.P,L2,1,1*%
%TO.N,/Power/SW_5*%
X103563000Y-53565596D03*
%TD*%
D16*
%TO.P,C20,2*%
%TO.N,GND*%
X111150000Y-52800000D03*
%TO.P,C20,1*%
%TO.N,+BATT*%
X113050000Y-52800000D03*
%TD*%
%TO.P,C18,2*%
%TO.N,GND*%
X94550000Y-58712500D03*
%TO.P,C18,1*%
%TO.N,+BATT*%
X96450000Y-58712500D03*
%TD*%
D31*
%TO.P,J14,5,Pin_5*%
%TO.N,GND*%
X130579174Y-67481100D03*
%TO.P,J14,4,Pin_4*%
%TO.N,Net-(J14-Pin_4)*%
X130579174Y-64941100D03*
%TO.P,J14,3,Pin_3*%
%TO.N,Net-(J14-Pin_3)*%
X130579174Y-62401100D03*
%TO.P,J14,2,Pin_2*%
%TO.N,Net-(J14-Pin_2)*%
X130579174Y-59861100D03*
D32*
%TO.P,J14,1,Pin_1*%
%TO.N,Net-(J14-Pin_1)*%
X130579174Y-57321100D03*
%TD*%
D11*
%TO.P,R8,2*%
%TO.N,Net-(U6-STAT)*%
X129540000Y-54633500D03*
%TO.P,R8,1*%
%TO.N,Net-(D7-K)*%
X129540000Y-52808500D03*
%TD*%
D33*
%TO.P,J15,*%
%TO.N,*%
X94700600Y-34988200D03*
X105700600Y-34988200D03*
D34*
%TO.P,J15,1,Pin_1*%
%TO.N,GND*%
X97700600Y-39988200D03*
D35*
%TO.P,J15,2,Pin_2*%
%TO.N,+5VBuck*%
X102700600Y-39988200D03*
%TD*%
D11*
%TO.P,R19,2*%
%TO.N,Net-(U7-FB)*%
X102500000Y-63200000D03*
%TO.P,R19,1*%
%TO.N,+5VBuck*%
X102500000Y-61375000D03*
%TD*%
D10*
%TO.P,C16,2*%
%TO.N,GND*%
X117555974Y-62250000D03*
%TO.P,C16,1*%
%TO.N,+BATT*%
X117555974Y-60350000D03*
%TD*%
D36*
%TO.N,GND*%
X129340600Y-71133200D03*
X129340600Y-50813200D03*
X129340600Y-48273200D03*
X129340600Y-45733200D03*
X129340600Y-43193200D03*
X129340600Y-40653200D03*
X126800600Y-71133200D03*
X126800600Y-50813200D03*
X126800600Y-48273200D03*
X126800600Y-45733200D03*
X124260600Y-71133200D03*
X124260600Y-35573200D03*
X121720600Y-71133200D03*
X121720600Y-35573200D03*
X119180600Y-68593200D03*
X119180600Y-66053200D03*
X119180600Y-40653200D03*
X116640600Y-71133200D03*
X116640600Y-68593200D03*
X116640600Y-66053200D03*
X116640600Y-40653200D03*
X114100600Y-71133200D03*
X114100600Y-68593200D03*
X114100600Y-66053200D03*
X114100600Y-40653200D03*
X114100600Y-38113200D03*
X114100600Y-35573200D03*
X111560600Y-71133200D03*
X111560600Y-68593200D03*
X111560600Y-66053200D03*
X111560600Y-63513200D03*
X111560600Y-40653200D03*
X111560600Y-38113200D03*
X111560600Y-35573200D03*
X109020600Y-71133200D03*
X109020600Y-68593200D03*
X109020600Y-43193200D03*
X109020600Y-40653200D03*
X109020600Y-38113200D03*
X109020600Y-35573200D03*
X106480600Y-71133200D03*
X106480600Y-68593200D03*
X106480600Y-66053200D03*
X106480600Y-40653200D03*
X106480600Y-38113200D03*
X103940600Y-71133200D03*
X103940600Y-68593200D03*
X103940600Y-66053200D03*
X103940600Y-35573200D03*
X101400600Y-71133200D03*
X101400600Y-68593200D03*
X101400600Y-66053200D03*
X101400600Y-35573200D03*
X98860600Y-71133200D03*
X98860600Y-68593200D03*
X98860600Y-35573200D03*
X96320600Y-71133200D03*
X96320600Y-68593200D03*
X96320600Y-66053200D03*
X96320600Y-55893200D03*
X96320600Y-53353200D03*
X96320600Y-35573200D03*
X93780600Y-71133200D03*
X93780600Y-68593200D03*
X93780600Y-66053200D03*
X93780600Y-63513200D03*
X93780600Y-60973200D03*
X93780600Y-55893200D03*
X93780600Y-53353200D03*
X93780600Y-50813200D03*
X93780600Y-48273200D03*
X93780600Y-45733200D03*
X93780600Y-43193200D03*
X93780600Y-40653200D03*
X93780600Y-38113200D03*
X91240600Y-71133200D03*
X91240600Y-68593200D03*
X91240600Y-66053200D03*
X91240600Y-63513200D03*
X91240600Y-60973200D03*
X91240600Y-53353200D03*
X91240600Y-50813200D03*
X91240600Y-48273200D03*
X91240600Y-45733200D03*
X91240600Y-43193200D03*
X91240600Y-40653200D03*
X91240600Y-38113200D03*
X91240600Y-35573200D03*
%TO.N,+BATT*%
X114400000Y-55700000D03*
X112300600Y-47788200D03*
X113400000Y-56700000D03*
X114400000Y-57700000D03*
X113300600Y-48788200D03*
X112300600Y-46788200D03*
X114300600Y-46788200D03*
X113300600Y-46788200D03*
X113300600Y-47788200D03*
X112300600Y-50788200D03*
X98300000Y-59000000D03*
X114300600Y-48788200D03*
X116400000Y-55700000D03*
X114300600Y-47788200D03*
D37*
%TO.N,GND*%
X104013000Y-57404000D03*
D36*
%TO.N,+BATT*%
X114400000Y-56700000D03*
X99300000Y-58000000D03*
X112400000Y-58700000D03*
X111400000Y-57700000D03*
X106172000Y-57531000D03*
X114400000Y-58700000D03*
X114300600Y-49788200D03*
X115400000Y-54700000D03*
X114300600Y-50788200D03*
X113400000Y-55700000D03*
X113400000Y-54700000D03*
X116400000Y-54700000D03*
X116400000Y-57700000D03*
X116400000Y-58700000D03*
X98300000Y-58000000D03*
X112400000Y-54700000D03*
X112300600Y-48788200D03*
%TO.N,+5VBuck*%
X102880057Y-60434652D03*
%TO.N,+5VUSB*%
X125730000Y-41148000D03*
%TO.N,+5VBuck*%
X104863379Y-49937012D03*
%TO.N,+BATT*%
X113300600Y-49788200D03*
%TO.N,Net-(U6-TS)*%
X126310102Y-61995800D03*
%TO.N,+BATT*%
X116400000Y-56700000D03*
D38*
%TO.N,Net-(U6-STAT)*%
X126210374Y-57092500D03*
D36*
%TO.N,Net-(U7-VCC)*%
X106109849Y-54719849D03*
%TO.N,+BATT*%
X111400000Y-55700000D03*
X112300600Y-49788200D03*
D37*
%TO.N,GND*%
X103225600Y-57404000D03*
D36*
%TO.N,+BATT*%
X99300000Y-59000000D03*
X112400000Y-55700000D03*
X112400000Y-56700000D03*
X115400000Y-55700000D03*
%TO.N,GND*%
X110525000Y-47725000D03*
D37*
X104038400Y-58115200D03*
D36*
X118200000Y-56900000D03*
D37*
X102362000Y-56515000D03*
X104733400Y-56540400D03*
D36*
X110300000Y-49675000D03*
%TO.N,+BATT*%
X115400000Y-56700000D03*
D37*
%TO.N,GND*%
X104013000Y-56642000D03*
D36*
X109625000Y-50875000D03*
X109075000Y-45600000D03*
X121400000Y-56388000D03*
D37*
X103225600Y-56591200D03*
D36*
X109200000Y-47950000D03*
%TO.N,/Power/CELL_1*%
X100540000Y-121000000D03*
X108160000Y-128620000D03*
X123400000Y-123540000D03*
X110700000Y-123540000D03*
X110700000Y-126080000D03*
X103080000Y-128620000D03*
X95460000Y-121000000D03*
X115780000Y-121000000D03*
X105620000Y-121000000D03*
X110700000Y-128620000D03*
X108160000Y-126080000D03*
X103080000Y-123540000D03*
X123400000Y-128620000D03*
X105620000Y-126080000D03*
X103080000Y-121000000D03*
X103080000Y-126080000D03*
X108160000Y-123540000D03*
X113240000Y-123540000D03*
X113240000Y-126080000D03*
X98000000Y-121000000D03*
X120860000Y-121000000D03*
X113240000Y-128620000D03*
X123400000Y-126080000D03*
X105620000Y-123540000D03*
X110700000Y-121000000D03*
X105620000Y-128620000D03*
X108160000Y-121000000D03*
X123400000Y-121000000D03*
X113240000Y-121000000D03*
%TO.N,Net-(U7-VCC)*%
X106899739Y-59400261D03*
%TO.N,+BATT*%
X111400000Y-56700000D03*
X100300000Y-58000000D03*
X115400000Y-57700000D03*
X114400000Y-54700000D03*
D38*
%TO.N,Net-(U6-STAT)*%
X126184974Y-58311700D03*
D36*
%TO.N,GND*%
X108400000Y-49575000D03*
%TO.N,+BATT*%
X115400000Y-58700000D03*
X113400000Y-58700000D03*
D38*
%TO.N,/Power/CELL_1*%
X124700600Y-64788200D03*
D36*
%TO.N,+BATT*%
X113400000Y-57700000D03*
X113300600Y-50788200D03*
D37*
%TO.N,GND*%
X103225600Y-58115200D03*
D36*
%TO.N,Net-(U6-TS)*%
X127110102Y-66995800D03*
%TO.N,+BATT*%
X112400000Y-57700000D03*
%TO.N,GND*%
X119200000Y-56900000D03*
D38*
%TO.N,Net-(U6-BTST)*%
X121875000Y-62075000D03*
D36*
%TO.N,+BATT*%
X111400000Y-54700000D03*
D38*
%TO.N,Net-(U6-BTST)*%
X117625174Y-55339900D03*
%TD*%
D39*
%TO.N,GND*%
X122428000Y-56388000D02*
X122595574Y-56555574D01*
X101549924Y-58285000D02*
X99100000Y-60734924D01*
X122090300Y-57078300D02*
X121400000Y-56388000D01*
X99100000Y-60734924D02*
X99100000Y-61174000D01*
X99100000Y-61174000D02*
X98736500Y-61537500D01*
X103850001Y-58303599D02*
X104038400Y-58115200D01*
D40*
X106400812Y-56534998D02*
X106401808Y-56535994D01*
D39*
X122595574Y-56555574D02*
X122595574Y-57078300D01*
X122038000Y-56388000D02*
X122038000Y-56524000D01*
X102225000Y-58285000D02*
X103303615Y-58285000D01*
D40*
X103225600Y-56591200D02*
X103225600Y-58115200D01*
D39*
X98736500Y-61537500D02*
X96943400Y-61537500D01*
D40*
X102225000Y-56534998D02*
X100984998Y-56534998D01*
D39*
X122301000Y-57078300D02*
X122301000Y-56515000D01*
%TO.N,Net-(U7-FB)*%
X104400000Y-61375000D02*
X102575000Y-63200000D01*
D41*
%TO.N,+5VUSB*%
X125400000Y-55550000D02*
X127505500Y-55550000D01*
D42*
X124095574Y-45322426D02*
X124095574Y-54737000D01*
D39*
%TO.N,+5VBuck*%
X102880057Y-60994943D02*
X102500000Y-61375000D01*
D43*
%TO.N,+5VUSB*%
X124730574Y-55753000D02*
X125095000Y-55753000D01*
D40*
%TO.N,GND*%
X103174629Y-56591200D02*
X103118427Y-56534998D01*
D42*
%TO.N,+5VUSB*%
X125730000Y-43688000D02*
X124095574Y-45322426D01*
X125730000Y-41148000D02*
X125730000Y-43688000D01*
D39*
%TO.N,Net-(U6-CBSET)*%
X123670374Y-63747300D02*
X123095574Y-63172500D01*
X123095574Y-63172500D02*
X123095574Y-60953300D01*
%TO.N,Net-(U6-MID)*%
X125651574Y-63747300D02*
X123595574Y-61691300D01*
%TO.N,GND*%
X96943400Y-61537500D02*
X96093400Y-62387500D01*
D41*
%TO.N,+5VUSB*%
X125400000Y-55550000D02*
X124663000Y-55550000D01*
D43*
X124095574Y-56388000D02*
X124095574Y-56129426D01*
D39*
%TO.N,Net-(U7-FB)*%
X102575000Y-63200000D02*
X102500000Y-63200000D01*
%TO.N,Net-(U7-MSEL)*%
X107300000Y-60913110D02*
X107300000Y-61900000D01*
X105334390Y-58947500D02*
X107300000Y-60913110D01*
%TO.N,+5VBuck*%
X103563000Y-48765596D02*
X103691963Y-48765596D01*
D43*
%TO.N,+5VUSB*%
X124095574Y-56388000D02*
X124730574Y-55753000D01*
X124095574Y-54753574D02*
X124587000Y-55245000D01*
D40*
%TO.N,GND*%
X103600001Y-57016572D02*
X103638428Y-57016572D01*
D39*
%TO.N,Net-(U7-MSEL)*%
X107300000Y-61900000D02*
X108300000Y-62900000D01*
%TO.N,Net-(U7-FB)*%
X104400000Y-60458000D02*
X104400000Y-61000000D01*
X103350001Y-59408001D02*
X104400000Y-60458000D01*
%TO.N,Net-(D7-K)*%
X127508000Y-53672500D02*
X127508000Y-53086000D01*
D40*
%TO.N,Net-(U6-REGN)*%
X122070500Y-67413500D02*
X122428000Y-67056000D01*
D39*
%TO.N,Net-(U7-SS)*%
X101683000Y-59817000D02*
X102452501Y-59817000D01*
%TO.N,Net-(U6-REGN)*%
X122595574Y-60953300D02*
X122595574Y-62788200D01*
%TO.N,Net-(U7-ILIM)*%
X104350002Y-58910000D02*
X104350002Y-59510002D01*
%TO.N,Net-(U6-TS)*%
X123518974Y-67210300D02*
X123681474Y-67210300D01*
X125668974Y-67210300D02*
X126895602Y-67210300D01*
%TO.N,Net-(U6-BTST)*%
X122095574Y-61854426D02*
X122095574Y-60953300D01*
%TO.N,Net-(U6-STAT)*%
X126139074Y-58265800D02*
X126184974Y-58311700D01*
%TO.N,Net-(D7-K)*%
X127508000Y-53086000D02*
X127785500Y-52808500D01*
%TO.N,Net-(U6-STAT)*%
X129540000Y-54633500D02*
X129540000Y-55499000D01*
%TO.N,Net-(U7-ILIM)*%
X104350002Y-59510002D02*
X106215000Y-61375000D01*
D43*
%TO.N,+5VUSB*%
X124095574Y-54737000D02*
X124095574Y-54753574D01*
D39*
%TO.N,Net-(U6-TS)*%
X125638074Y-61995800D02*
X126310102Y-61995800D01*
%TO.N,Net-(U7-EN)*%
X99500000Y-61625000D02*
X99500000Y-60900610D01*
%TO.N,Net-(U7-PG)*%
X106739073Y-58285000D02*
X109554073Y-61100000D01*
%TO.N,Net-(U6-TS)*%
X121693974Y-69035300D02*
X123518974Y-67210300D01*
D40*
%TO.N,Net-(D7-K)*%
X129182500Y-52603000D02*
X129207500Y-52578000D01*
D39*
%TO.N,Net-(U6-BTST)*%
X117625174Y-55339900D02*
X117650574Y-55314500D01*
%TO.N,Net-(U7-SS)*%
X100500000Y-61375000D02*
X100500000Y-61000000D01*
%TO.N,Net-(U7-EN)*%
X98100000Y-62300610D02*
X98100000Y-62337500D01*
D40*
%TO.N,Net-(U6-REGN)*%
X121285000Y-67413500D02*
X122070500Y-67413500D01*
D39*
%TO.N,Net-(U6-STAT)*%
X125283074Y-58265800D02*
X126139074Y-58265800D01*
%TO.N,Net-(U6-TS)*%
X125668974Y-67210300D02*
X123681474Y-67210300D01*
%TO.N,Net-(U6-REGN)*%
X122595574Y-62788200D02*
X121663774Y-63720000D01*
D43*
%TO.N,+5VUSB*%
X124095574Y-54982574D02*
X124663000Y-55550000D01*
D39*
%TO.N,Net-(U6-TS)*%
X126895602Y-67210300D02*
X127110102Y-66995800D01*
D43*
%TO.N,+5VUSB*%
X124095574Y-54753574D02*
X124095574Y-54982574D01*
D39*
%TO.N,Net-(U6-TS)*%
X124595574Y-60953300D02*
X125638074Y-61995800D01*
D40*
%TO.N,Net-(U6-REGN)*%
X122428000Y-67056000D02*
X122428000Y-65090000D01*
D39*
%TO.N,Net-(U7-EN)*%
X98800000Y-62325000D02*
X99500000Y-61625000D01*
%TO.N,Net-(U6-STAT)*%
X129540000Y-55499000D02*
X127946500Y-57092500D01*
%TO.N,Net-(U7-EN)*%
X98100000Y-62337500D02*
X98100000Y-63987500D01*
X101453110Y-58947500D02*
X102187502Y-58947500D01*
X98100000Y-62325000D02*
X98800000Y-62325000D01*
%TO.N,Net-(U7-SS)*%
X100500000Y-61275000D02*
X100500000Y-61375000D01*
X100500000Y-61000000D02*
X101683000Y-59817000D01*
%TO.N,Net-(U7-FB)*%
X103350001Y-58910000D02*
X103350001Y-59408001D01*
D40*
%TO.N,Net-(U6-REGN)*%
X122428000Y-65090000D02*
X121285000Y-63947000D01*
D39*
%TO.N,GND*%
X122095574Y-56578300D02*
X122095574Y-56445574D01*
%TO.N,Net-(U6-STAT)*%
X127946500Y-57092500D02*
X126210374Y-57092500D01*
D43*
%TO.N,+5VUSB*%
X127505500Y-55550000D02*
X127508000Y-55547500D01*
D39*
%TO.N,GND*%
X122095574Y-57078300D02*
X122090300Y-57078300D01*
D42*
%TO.N,/Power/BOOT*%
X101727407Y-55175000D02*
X100902407Y-54350000D01*
D39*
%TO.N,Net-(J14-Pin_2)*%
X129983874Y-59265800D02*
X130579174Y-59861100D01*
D43*
%TO.N,+5VUSB*%
X124095574Y-56388000D02*
X124150787Y-56332787D01*
D42*
%TO.N,/Power/SW_5*%
X101000000Y-53275000D02*
X103272404Y-53275000D01*
D39*
%TO.N,Net-(J14-Pin_4)*%
X126896174Y-60265800D02*
X128905000Y-62274626D01*
%TO.N,Net-(U7-ILIM)*%
X106215000Y-61375000D02*
X106300000Y-61375000D01*
%TO.N,Net-(U7-VCC)*%
X108087500Y-60588022D02*
X106899739Y-59400261D01*
%TO.N,Net-(J14-Pin_4)*%
X125283074Y-60265800D02*
X126896174Y-60265800D01*
D42*
%TO.N,/Power/SW_5*%
X100125000Y-53275000D02*
X99300000Y-52450000D01*
D39*
%TO.N,Net-(U7-SS)*%
X102452501Y-59817000D02*
X102850000Y-59419501D01*
D40*
%TO.N,/Power/SW_5*%
X103272404Y-53275000D02*
X103563000Y-53565596D01*
D42*
X101000000Y-53275000D02*
X100125000Y-53275000D01*
D39*
%TO.N,Net-(U6-BTST)*%
X121875000Y-62075000D02*
X122095574Y-61854426D01*
%TO.N,Net-(U7-VCC)*%
X105206204Y-55623494D02*
X106109849Y-54719849D01*
D42*
%TO.N,/Power/BOOT*%
X101727407Y-55175000D02*
X102175901Y-55623494D01*
D39*
%TO.N,Net-(U6-ILIM)*%
X125564834Y-62909800D02*
X126795274Y-62909800D01*
D43*
%TO.N,+5VUSB*%
X124150787Y-56332787D02*
X124150787Y-56062213D01*
D39*
%TO.N,Net-(J14-Pin_1)*%
X130134474Y-57765800D02*
X130579174Y-57321100D01*
%TO.N,/Power/CELL_1*%
X125484700Y-65572300D02*
X124700600Y-64788200D01*
%TO.N,Net-(U6-ILIM)*%
X126795274Y-62909800D02*
X127632774Y-63747300D01*
%TO.N,Net-(U7-VCC)*%
X106109849Y-54719849D02*
X108154548Y-52675150D01*
%TO.N,Net-(U6-ILIM)*%
X124095574Y-60953300D02*
X124095574Y-61440540D01*
%TO.N,/Power/CELL_1*%
X123676908Y-65572300D02*
X123916500Y-65572300D01*
D42*
%TO.N,GND*%
X121400000Y-56388000D02*
X121400000Y-55414300D01*
D39*
X122095574Y-57078300D02*
X122095574Y-56445574D01*
X122095574Y-56445574D02*
X122038000Y-56388000D01*
X121793000Y-56642000D02*
X121920000Y-56769000D01*
X122428000Y-56515000D02*
X122428000Y-57078300D01*
%TO.N,+5VBuck*%
X103691963Y-48765596D02*
X104863379Y-49937012D01*
%TO.N,GND*%
X103600001Y-57988614D02*
X103600001Y-57016572D01*
%TO.N,Net-(U7-MSEL)*%
X105012500Y-58947500D02*
X105334390Y-58947500D01*
%TO.N,Net-(U6-ILIM)*%
X124095574Y-61440540D02*
X125564834Y-62909800D01*
%TO.N,Net-(U7-PG)*%
X104975002Y-58285000D02*
X106739073Y-58285000D01*
%TO.N,GND*%
X104038400Y-58115200D02*
X104038400Y-56667400D01*
%TO.N,Net-(J14-Pin_3)*%
X125283074Y-59765800D02*
X127943874Y-59765800D01*
%TO.N,GND*%
X122301000Y-56388000D02*
X122428000Y-56515000D01*
%TO.N,Net-(U7-VCC)*%
X105000899Y-55623494D02*
X105206204Y-55623494D01*
%TO.N,GND*%
X121793000Y-56388000D02*
X121400000Y-56388000D01*
X121793000Y-56388000D02*
X121793000Y-56642000D01*
D40*
X103638428Y-57016572D02*
X104120002Y-56534998D01*
D42*
%TO.N,/Power/BOOT*%
X100902407Y-54350000D02*
X99300000Y-54350000D01*
D39*
%TO.N,GND*%
X121400000Y-55414300D02*
X121224000Y-55238300D01*
D44*
X106401808Y-56535994D02*
X109150000Y-53787802D01*
D40*
X103225600Y-56591200D02*
X103174629Y-56591200D01*
D39*
%TO.N,+5VBuck*%
X102880057Y-60434652D02*
X102880057Y-60994943D01*
D40*
%TO.N,GND*%
X104120002Y-56534998D02*
X104975002Y-56534998D01*
D39*
X122038000Y-56524000D02*
X121920000Y-56642000D01*
%TO.N,Net-(J14-Pin_2)*%
X125283074Y-59265800D02*
X129983874Y-59265800D01*
%TO.N,GND*%
X122595574Y-57078300D02*
X122428000Y-57078300D01*
%TO.N,/Power/CELL_1*%
X125654841Y-65572300D02*
X125484700Y-65572300D01*
%TO.N,GND*%
X102225000Y-58285000D02*
X101549924Y-58285000D01*
%TO.N,Net-(U7-VCC)*%
X108087500Y-61100000D02*
X108087500Y-60588022D01*
%TO.N,Net-(U6-BTST)*%
X118844374Y-55314500D02*
X117625174Y-55339900D01*
%TO.N,GND*%
X121400000Y-56388000D02*
X122301000Y-56388000D01*
%TO.N,Net-(J14-Pin_3)*%
X127943874Y-59765800D02*
X130579174Y-62401100D01*
D43*
%TO.N,+5VUSB*%
X124150787Y-56062213D02*
X124663000Y-55550000D01*
D39*
%TO.N,GND*%
X103303615Y-58285000D02*
X103600001Y-57988614D01*
%TO.N,Net-(U7-SS)*%
X102850000Y-59419501D02*
X102850000Y-58910000D01*
%TO.N,GND*%
X122038000Y-56388000D02*
X121793000Y-56388000D01*
%TO.N,Net-(U7-EN)*%
X99500000Y-60900610D02*
X101453110Y-58947500D01*
D40*
%TO.N,GND*%
X103225600Y-56642171D02*
X103600001Y-57016572D01*
D39*
%TO.N,Net-(U7-PG)*%
X109554073Y-61100000D02*
X109912500Y-61100000D01*
%TO.N,Net-(U6-MID)*%
X123595574Y-61691300D02*
X123595574Y-60953300D01*
D44*
%TO.N,GND*%
X109150000Y-52525000D02*
X107800000Y-51175000D01*
D40*
X103225600Y-58115200D02*
X104038400Y-58115200D01*
D43*
%TO.N,+5VUSB*%
X124095574Y-54737000D02*
X124095574Y-57078300D01*
D39*
%TO.N,Net-(J14-Pin_4)*%
X128905000Y-62274626D02*
X128905000Y-63266926D01*
%TO.N,GND*%
X122428000Y-57078300D02*
X122301000Y-57078300D01*
X122301000Y-57078300D02*
X122095574Y-57078300D01*
X121400000Y-56388000D02*
X122428000Y-56388000D01*
D40*
X103225600Y-56591200D02*
X103225600Y-56642171D01*
D39*
%TO.N,Net-(J14-Pin_1)*%
X125283074Y-57765800D02*
X130134474Y-57765800D01*
D40*
%TO.N,GND*%
X104975002Y-56534998D02*
X106400812Y-56534998D01*
X100984998Y-56534998D02*
X100965000Y-56515000D01*
D39*
%TO.N,Net-(D7-K)*%
X127785500Y-52808500D02*
X129540000Y-52808500D01*
D40*
%TO.N,GND*%
X103118427Y-56534998D02*
X102225000Y-56534998D01*
D39*
%TO.N,/Power/CELL_1*%
X123916500Y-65572300D02*
X124700600Y-64788200D01*
%TO.N,GND*%
X103850001Y-58910000D02*
X103850001Y-58303599D01*
X104038400Y-56667400D02*
X104013000Y-56642000D01*
D44*
X109150000Y-53787802D02*
X109150000Y-52525000D01*
D39*
%TO.N,Net-(J14-Pin_4)*%
X128905000Y-63266926D02*
X130579174Y-64941100D01*
%TD*%
%TA.AperFunction,Conductor*%
%TO.N,/Power/SW_5*%
G36*
X101928651Y-51171395D02*
G01*
X101935293Y-51172364D01*
X101979601Y-51185375D01*
X102037499Y-51193700D01*
X102037500Y-51193700D01*
X105088503Y-51193700D01*
X105132170Y-51189005D01*
X105132177Y-51189003D01*
X105132184Y-51189003D01*
X105147540Y-51185662D01*
X105152729Y-51185114D01*
X105238605Y-51185480D01*
X105255543Y-51192581D01*
X105262500Y-51209479D01*
X105262500Y-51924081D01*
X105278281Y-52023724D01*
X105339469Y-52143812D01*
X105339470Y-52143813D01*
X105339472Y-52143816D01*
X105434780Y-52239124D01*
X105434782Y-52239125D01*
X105434783Y-52239126D01*
X105554871Y-52300314D01*
X105554872Y-52300314D01*
X105554874Y-52300315D01*
X105654512Y-52316096D01*
X105654515Y-52316096D01*
X105891652Y-52316096D01*
X105908623Y-52323125D01*
X105915652Y-52340096D01*
X105912805Y-52351434D01*
X104833000Y-54365996D01*
X104836028Y-55110400D01*
X104829067Y-55127399D01*
X104812126Y-55134498D01*
X104660175Y-55134498D01*
X104616277Y-55143230D01*
X104566498Y-55176492D01*
X104566494Y-55176496D01*
X104533232Y-55226275D01*
X104524500Y-55270173D01*
X104524500Y-55974822D01*
X104533232Y-56018720D01*
X104566344Y-56068275D01*
X104566496Y-56068502D01*
X104566499Y-56068504D01*
X104567863Y-56069868D01*
X104574892Y-56086839D01*
X104567863Y-56103810D01*
X104551292Y-56110836D01*
X102623851Y-56142980D01*
X102610476Y-56139173D01*
X102599110Y-56131869D01*
X102588634Y-56116781D01*
X102591895Y-56098704D01*
X102598752Y-56091724D01*
X102615228Y-56080714D01*
X102633506Y-56068502D01*
X102666769Y-56018720D01*
X102675502Y-55974818D01*
X102675502Y-55270178D01*
X102666769Y-55226276D01*
X102666769Y-55226275D01*
X102633507Y-55176496D01*
X102633506Y-55176494D01*
X102633279Y-55176342D01*
X102583724Y-55143230D01*
X102558006Y-55138115D01*
X102542733Y-55127910D01*
X102538696Y-55115146D01*
X102521600Y-54391396D01*
X101285441Y-52352537D01*
X101282655Y-52334383D01*
X101293522Y-52319573D01*
X101305965Y-52316096D01*
X101471485Y-52316096D01*
X101471488Y-52316096D01*
X101571126Y-52300315D01*
X101691220Y-52239124D01*
X101786528Y-52143816D01*
X101847719Y-52023722D01*
X101863500Y-51924084D01*
X101863500Y-51195220D01*
X101870529Y-51178249D01*
X101887499Y-51171220D01*
X101928651Y-51171395D01*
G37*
%TD.AperFunction*%
%TD*%
%TA.AperFunction,Conductor*%
%TO.N,GND*%
G36*
X117827963Y-56031654D02*
G01*
X117875516Y-56061299D01*
X117934189Y-56119972D01*
X118079768Y-56207978D01*
X118242178Y-56258586D01*
X118312758Y-56265000D01*
X119221160Y-56265000D01*
X119288199Y-56284685D01*
X119333954Y-56337489D01*
X119345150Y-56387539D01*
X119349628Y-56768109D01*
X119351545Y-56931046D01*
X119351545Y-56931083D01*
X119354003Y-57140012D01*
X119354350Y-57149982D01*
X119354732Y-57160978D01*
X119359677Y-57184481D01*
X119373352Y-57249467D01*
X119367893Y-57319123D01*
X119325643Y-57374770D01*
X119260014Y-57398741D01*
X119252009Y-57399000D01*
X117919634Y-57399000D01*
X117852595Y-57379315D01*
X117806840Y-57326511D01*
X117799336Y-57305074D01*
X117796971Y-57295615D01*
X117521686Y-56194473D01*
X117524524Y-56124662D01*
X117564654Y-56067467D01*
X117629336Y-56041047D01*
X117641984Y-56040400D01*
X117710231Y-56040400D01*
X117710231Y-56040399D01*
X117758161Y-56028586D01*
X117827963Y-56031654D01*
G37*
%TD.AperFunction*%
%TA.AperFunction,Conductor*%
G36*
X121710113Y-54570485D02*
G01*
X121755868Y-54623289D01*
X121767074Y-54674800D01*
X121767074Y-55849748D01*
X121767434Y-55862756D01*
X121767772Y-55874968D01*
X121768073Y-55880386D01*
X121776831Y-55947495D01*
X121776835Y-55947509D01*
X121814697Y-56050041D01*
X121823867Y-56074873D01*
X121841957Y-56107725D01*
X121864217Y-56144022D01*
X121956415Y-56243697D01*
X122013349Y-56289244D01*
X122273222Y-56497144D01*
X122296272Y-56513056D01*
X122311052Y-56525032D01*
X122317041Y-56530700D01*
X122318535Y-56532113D01*
X122322573Y-56535728D01*
X122341845Y-56552042D01*
X122341861Y-56552055D01*
X122341866Y-56552059D01*
X122369035Y-56573794D01*
X122409088Y-56631044D01*
X122415574Y-56670622D01*
X122415574Y-57191300D01*
X122395889Y-57258339D01*
X122343085Y-57304094D01*
X122291574Y-57315300D01*
X122255109Y-57315300D01*
X122188070Y-57295615D01*
X122159802Y-57270625D01*
X121815705Y-56857200D01*
X121815704Y-56857200D01*
X121804115Y-56843276D01*
X121804115Y-56843275D01*
X121637841Y-56643501D01*
X121636627Y-56642147D01*
X121615458Y-56618537D01*
X121615456Y-56618535D01*
X121615453Y-56618532D01*
X121515962Y-56542360D01*
X121507643Y-56535991D01*
X121492341Y-56527556D01*
X121492334Y-56527552D01*
X121474334Y-56518478D01*
X121462340Y-56512431D01*
X121435587Y-56504724D01*
X121422466Y-56500132D01*
X121387140Y-56485500D01*
X121379113Y-56482175D01*
X121324709Y-56438333D01*
X121303627Y-56383798D01*
X121301273Y-56365921D01*
X121299550Y-56352829D01*
X121265235Y-56229663D01*
X121259887Y-56217443D01*
X121192700Y-56108673D01*
X121192697Y-56108668D01*
X121192696Y-56108667D01*
X121172593Y-56084514D01*
X121144836Y-56020395D01*
X121143900Y-56005189D01*
X121143900Y-56004047D01*
X121143900Y-56004033D01*
X121141911Y-55961511D01*
X121109229Y-55829725D01*
X121102200Y-55812755D01*
X121102197Y-55812748D01*
X121102193Y-55812739D01*
X121093694Y-55794662D01*
X121084086Y-55774222D01*
X121084082Y-55774216D01*
X121053230Y-55732412D01*
X121029259Y-55666783D01*
X121029000Y-55658779D01*
X121029000Y-54819798D01*
X121046791Y-54755801D01*
X121102200Y-54663844D01*
X121109229Y-54646874D01*
X121112228Y-54638553D01*
X121114320Y-54632751D01*
X121155572Y-54576359D01*
X121220762Y-54551221D01*
X121230973Y-54550800D01*
X121643074Y-54550800D01*
X121710113Y-54570485D01*
G37*
%TD.AperFunction*%
%TA.AperFunction,Conductor*%
G36*
X132722256Y-32519685D02*
G01*
X132768011Y-32572489D01*
X132779213Y-32623160D01*
X132793768Y-34775889D01*
X132799997Y-35697233D01*
X132800000Y-35698071D01*
X132800000Y-72639410D01*
X132780315Y-72706449D01*
X132727511Y-72752204D01*
X132676070Y-72763410D01*
X88924070Y-72788073D01*
X88857019Y-72768426D01*
X88811235Y-72715648D01*
X88800000Y-72664073D01*
X88800000Y-58236556D01*
X90039500Y-58236556D01*
X90039500Y-58475843D01*
X90039501Y-58475859D01*
X90070734Y-58713100D01*
X90132669Y-58944245D01*
X90224243Y-59165323D01*
X90224251Y-59165340D01*
X90343891Y-59372565D01*
X90343892Y-59372567D01*
X90489569Y-59562416D01*
X90489575Y-59562423D01*
X90658776Y-59731624D01*
X90658783Y-59731630D01*
X90848632Y-59877307D01*
X90848634Y-59877308D01*
X91055859Y-59996948D01*
X91055862Y-59996949D01*
X91055870Y-59996954D01*
X91276953Y-60088530D01*
X91508098Y-60150465D01*
X91745350Y-60181700D01*
X91745357Y-60181700D01*
X91984643Y-60181700D01*
X91984650Y-60181700D01*
X92221902Y-60150465D01*
X92453047Y-60088530D01*
X92674130Y-59996954D01*
X92881370Y-59877305D01*
X93071218Y-59731629D01*
X93240429Y-59562418D01*
X93386105Y-59372570D01*
X93505754Y-59165330D01*
X93597330Y-58944247D01*
X93659265Y-58713102D01*
X93690500Y-58475850D01*
X93690500Y-58236550D01*
X93659265Y-57999298D01*
X93597330Y-57768153D01*
X93505754Y-57547070D01*
X93426449Y-57409708D01*
X93386108Y-57339834D01*
X93386107Y-57339832D01*
X93384089Y-57337202D01*
X94745100Y-57337202D01*
X94745100Y-57997285D01*
X94751536Y-58073582D01*
X94758495Y-58114537D01*
X94777619Y-58188677D01*
X94788042Y-58218465D01*
X94795000Y-58259418D01*
X94795000Y-59165585D01*
X94788041Y-59206540D01*
X94777622Y-59236313D01*
X94777616Y-59236334D01*
X94758500Y-59310440D01*
X94758494Y-59310467D01*
X94751536Y-59351416D01*
X94745100Y-59427713D01*
X94745100Y-61064216D01*
X94755509Y-61161022D01*
X94755511Y-61161033D01*
X94766714Y-61212533D01*
X94766715Y-61212535D01*
X94766716Y-61212538D01*
X94794934Y-61299281D01*
X94867562Y-61414000D01*
X94867563Y-61414001D01*
X94867562Y-61414001D01*
X94896106Y-61446942D01*
X94913317Y-61466804D01*
X95006108Y-61548320D01*
X95129228Y-61605563D01*
X95129236Y-61605565D01*
X95129238Y-61605566D01*
X95196259Y-61625246D01*
X95196261Y-61625246D01*
X95196267Y-61625248D01*
X95324600Y-61643700D01*
X96878260Y-61643700D01*
X96945299Y-61663385D01*
X96991054Y-61716189D01*
X97000998Y-61785347D01*
X96996647Y-61804582D01*
X96965005Y-61906130D01*
X96955913Y-61935307D01*
X96951381Y-61985185D01*
X96949500Y-62005884D01*
X96949500Y-62644116D01*
X96950556Y-62655734D01*
X96955913Y-62714692D01*
X96955913Y-62714694D01*
X96955914Y-62714696D01*
X97006522Y-62877106D01*
X97082575Y-63002913D01*
X97094530Y-63022688D01*
X97140411Y-63068569D01*
X97173896Y-63129892D01*
X97168912Y-63199584D01*
X97140411Y-63243931D01*
X97094531Y-63289810D01*
X97094530Y-63289811D01*
X97006522Y-63435393D01*
X96955913Y-63597807D01*
X96949500Y-63668386D01*
X96949500Y-64306613D01*
X96955913Y-64377192D01*
X96955913Y-64377194D01*
X96955914Y-64377196D01*
X97006522Y-64539606D01*
X97075239Y-64653278D01*
X97094530Y-64685188D01*
X97214811Y-64805469D01*
X97214813Y-64805470D01*
X97214815Y-64805472D01*
X97360394Y-64893478D01*
X97522804Y-64944086D01*
X97593384Y-64950500D01*
X97593387Y-64950500D01*
X98606613Y-64950500D01*
X98606616Y-64950500D01*
X98677196Y-64944086D01*
X98839606Y-64893478D01*
X98985185Y-64805472D01*
X99105472Y-64685185D01*
X99193478Y-64539606D01*
X99244086Y-64377196D01*
X99250500Y-64306616D01*
X99250500Y-63668384D01*
X99244086Y-63597804D01*
X99193478Y-63435394D01*
X99105472Y-63289815D01*
X99105470Y-63289813D01*
X99105469Y-63289811D01*
X99105468Y-63289810D01*
X99059589Y-63243932D01*
X99026103Y-63182609D01*
X99031087Y-63112918D01*
X99059589Y-63068568D01*
X99105469Y-63022688D01*
X99105472Y-63022685D01*
X99193478Y-62877106D01*
X99244003Y-62714960D01*
X99274705Y-62664173D01*
X99632838Y-62306040D01*
X99694159Y-62272557D01*
X99757405Y-62275336D01*
X99897804Y-62319086D01*
X99968384Y-62325500D01*
X99968387Y-62325500D01*
X101031613Y-62325500D01*
X101031616Y-62325500D01*
X101102196Y-62319086D01*
X101264606Y-62268478D01*
X101410185Y-62180472D01*
X101418566Y-62172091D01*
X101479887Y-62138604D01*
X101549579Y-62143586D01*
X101593930Y-62172087D01*
X101614412Y-62192569D01*
X101620120Y-62198277D01*
X101618229Y-62200167D01*
X101651517Y-62246743D01*
X101654960Y-62316528D01*
X101620129Y-62377097D01*
X101617254Y-62379587D01*
X101494530Y-62502311D01*
X101406522Y-62647893D01*
X101355913Y-62810307D01*
X101352718Y-62845472D01*
X101349844Y-62877105D01*
X101349500Y-62880886D01*
X101349500Y-63519113D01*
X101355913Y-63589692D01*
X101355913Y-63589694D01*
X101355914Y-63589696D01*
X101360133Y-63603235D01*
X101406522Y-63752106D01*
X101494530Y-63897688D01*
X101614811Y-64017969D01*
X101614813Y-64017970D01*
X101614815Y-64017972D01*
X101760394Y-64105978D01*
X101922804Y-64156586D01*
X101993384Y-64163000D01*
X101993387Y-64163000D01*
X103006613Y-64163000D01*
X103006616Y-64163000D01*
X103077196Y-64156586D01*
X103239606Y-64105978D01*
X103385185Y-64017972D01*
X103505472Y-63897685D01*
X103593478Y-63752106D01*
X103644086Y-63589696D01*
X103650500Y-63519116D01*
X103650500Y-62989742D01*
X103670185Y-62922703D01*
X103686819Y-62902061D01*
X104214561Y-62374319D01*
X104275884Y-62340834D01*
X104302242Y-62338000D01*
X104906613Y-62338000D01*
X104906616Y-62338000D01*
X104977196Y-62331586D01*
X105139606Y-62280978D01*
X105285185Y-62192972D01*
X105285187Y-62192969D01*
X105285850Y-62192569D01*
X105353404Y-62174733D01*
X105414150Y-62192569D01*
X105414812Y-62192969D01*
X105414815Y-62192972D01*
X105560394Y-62280978D01*
X105722804Y-62331586D01*
X105793384Y-62338000D01*
X105793387Y-62338000D01*
X106806613Y-62338000D01*
X106806616Y-62338000D01*
X106856495Y-62333467D01*
X106925039Y-62347003D01*
X106955397Y-62369277D01*
X107113181Y-62527061D01*
X107146666Y-62588384D01*
X107149500Y-62614742D01*
X107149500Y-63219113D01*
X107155913Y-63289692D01*
X107155913Y-63289694D01*
X107155914Y-63289696D01*
X107206522Y-63452106D01*
X107289698Y-63589696D01*
X107294530Y-63597688D01*
X107414811Y-63717969D01*
X107414813Y-63717970D01*
X107414815Y-63717972D01*
X107560394Y-63805978D01*
X107722804Y-63856586D01*
X107793384Y-63863000D01*
X107793387Y-63863000D01*
X108806613Y-63863000D01*
X108806616Y-63863000D01*
X108877196Y-63856586D01*
X109039606Y-63805978D01*
X109185185Y-63717972D01*
X109305472Y-63597685D01*
X109393478Y-63452106D01*
X109444086Y-63289696D01*
X109450500Y-63219116D01*
X109450500Y-62580884D01*
X109444086Y-62510304D01*
X109411626Y-62406137D01*
X109410477Y-62336281D01*
X109447278Y-62276888D01*
X109510347Y-62246820D01*
X109541228Y-62245760D01*
X109593384Y-62250500D01*
X109593389Y-62250500D01*
X110231613Y-62250500D01*
X110231616Y-62250500D01*
X110302196Y-62244086D01*
X110464606Y-62193478D01*
X110610185Y-62105472D01*
X110640657Y-62075000D01*
X110660482Y-62055175D01*
X110721805Y-62021689D01*
X110762424Y-62019678D01*
X110764278Y-62019892D01*
X110765464Y-62020029D01*
X110765466Y-62020030D01*
X110765468Y-62020029D01*
X110765469Y-62020030D01*
X113110684Y-61955378D01*
X113117531Y-61955138D01*
X113121261Y-61954979D01*
X113128116Y-61954635D01*
X118510161Y-61643906D01*
X118517308Y-61643700D01*
X121109741Y-61643700D01*
X121176780Y-61663385D01*
X121222535Y-61716189D01*
X121232479Y-61785347D01*
X121225684Y-61811665D01*
X121215088Y-61839606D01*
X121189860Y-61906125D01*
X121189859Y-61906130D01*
X121169355Y-62075000D01*
X121189859Y-62243869D01*
X121189860Y-62243874D01*
X121250182Y-62402931D01*
X121301093Y-62476687D01*
X121346817Y-62542929D01*
X121442601Y-62627786D01*
X121474150Y-62655736D01*
X121613493Y-62728869D01*
X121663706Y-62777453D01*
X121679680Y-62845472D01*
X121656345Y-62911330D01*
X121643548Y-62926346D01*
X121609713Y-62960181D01*
X121548390Y-62993666D01*
X121522032Y-62996500D01*
X120753384Y-62996500D01*
X120734145Y-62998248D01*
X120682807Y-63002913D01*
X120520393Y-63053522D01*
X120374811Y-63141530D01*
X120254530Y-63261811D01*
X120166522Y-63407393D01*
X120115913Y-63569807D01*
X120109500Y-63640386D01*
X120109500Y-64253613D01*
X120115913Y-64324192D01*
X120115913Y-64324194D01*
X120115914Y-64324196D01*
X120166522Y-64486606D01*
X120214077Y-64565272D01*
X120254530Y-64632188D01*
X120374811Y-64752469D01*
X120374813Y-64752470D01*
X120374815Y-64752472D01*
X120520394Y-64840478D01*
X120682804Y-64891086D01*
X120753384Y-64897500D01*
X121440969Y-64897500D01*
X121508008Y-64917185D01*
X121528650Y-64933819D01*
X121866181Y-65271350D01*
X121899666Y-65332673D01*
X121902500Y-65359031D01*
X121902500Y-66326500D01*
X121882815Y-66393539D01*
X121830011Y-66439294D01*
X121778500Y-66450500D01*
X120778384Y-66450500D01*
X120759145Y-66452248D01*
X120707807Y-66456913D01*
X120545393Y-66507522D01*
X120399811Y-66595530D01*
X120279530Y-66715811D01*
X120191522Y-66861393D01*
X120140913Y-67023807D01*
X120134500Y-67094386D01*
X120134500Y-67732613D01*
X120140913Y-67803192D01*
X120140913Y-67803194D01*
X120140914Y-67803196D01*
X120159546Y-67862990D01*
X120191522Y-67965606D01*
X120279530Y-68111188D01*
X120405118Y-68236776D01*
X120403228Y-68238665D01*
X120436517Y-68285243D01*
X120439960Y-68355028D01*
X120405129Y-68415597D01*
X120402254Y-68418087D01*
X120279530Y-68540811D01*
X120191522Y-68686393D01*
X120140913Y-68848807D01*
X120134500Y-68919386D01*
X120134500Y-69557613D01*
X120140913Y-69628192D01*
X120191522Y-69790606D01*
X120279530Y-69936188D01*
X120399811Y-70056469D01*
X120399813Y-70056470D01*
X120399815Y-70056472D01*
X120545394Y-70144478D01*
X120707804Y-70195086D01*
X120778384Y-70201500D01*
X120778387Y-70201500D01*
X121791613Y-70201500D01*
X121791616Y-70201500D01*
X121862196Y-70195086D01*
X122024606Y-70144478D01*
X122170185Y-70056472D01*
X122290472Y-69936185D01*
X122378478Y-69790606D01*
X122429086Y-69628196D01*
X122435500Y-69557616D01*
X122435500Y-69159016D01*
X122455185Y-69091977D01*
X122471819Y-69071335D01*
X123333535Y-68209619D01*
X123394858Y-68176134D01*
X123421216Y-68173300D01*
X124188087Y-68173300D01*
X124188090Y-68173300D01*
X124258670Y-68166886D01*
X124421080Y-68116278D01*
X124566659Y-68028272D01*
X124587543Y-68007387D01*
X124648864Y-67973903D01*
X124718555Y-67978886D01*
X124762904Y-68007387D01*
X124783789Y-68028272D01*
X124929368Y-68116278D01*
X125091778Y-68166886D01*
X125162358Y-68173300D01*
X125162361Y-68173300D01*
X126175587Y-68173300D01*
X126175590Y-68173300D01*
X126246170Y-68166886D01*
X126408580Y-68116278D01*
X126554159Y-68028272D01*
X126674446Y-67907985D01*
X126701647Y-67862988D01*
X126753174Y-67815802D01*
X126822034Y-67803964D01*
X126841103Y-67808123D01*
X126845834Y-67809128D01*
X126845835Y-67809129D01*
X127020711Y-67846300D01*
X127020712Y-67846300D01*
X127199491Y-67846300D01*
X127199493Y-67846300D01*
X127374369Y-67809129D01*
X127537695Y-67736412D01*
X127682332Y-67631326D01*
X127801961Y-67498465D01*
X127891352Y-67343635D01*
X127946599Y-67173603D01*
X127965287Y-66995800D01*
X127946599Y-66817997D01*
X127891352Y-66647965D01*
X127801961Y-66493135D01*
X127753482Y-66439294D01*
X127682337Y-66360278D01*
X127682334Y-66360276D01*
X127682333Y-66360275D01*
X127682332Y-66360274D01*
X127537695Y-66255188D01*
X127374369Y-66182471D01*
X127374367Y-66182470D01*
X127246696Y-66155333D01*
X127199493Y-66145300D01*
X127020711Y-66145300D01*
X126929201Y-66164750D01*
X126859535Y-66159434D01*
X126803802Y-66117296D01*
X126779697Y-66051716D01*
X126785036Y-66006572D01*
X126798927Y-65961996D01*
X126805341Y-65891416D01*
X126805341Y-65253184D01*
X126798927Y-65182604D01*
X126748319Y-65020194D01*
X126660313Y-64874615D01*
X126660311Y-64874613D01*
X126660310Y-64874611D01*
X126534723Y-64749024D01*
X126536615Y-64747131D01*
X126503333Y-64700585D01*
X126499872Y-64630802D01*
X126534689Y-64570224D01*
X126537578Y-64567720D01*
X126556124Y-64549174D01*
X126617446Y-64515687D01*
X126687138Y-64520670D01*
X126731488Y-64549172D01*
X126747585Y-64565269D01*
X126747587Y-64565270D01*
X126747589Y-64565272D01*
X126893168Y-64653278D01*
X127055578Y-64703886D01*
X127126158Y-64710300D01*
X127126161Y-64710300D01*
X128139387Y-64710300D01*
X128139390Y-64710300D01*
X128209970Y-64703886D01*
X128372380Y-64653278D01*
X128517959Y-64565272D01*
X128638246Y-64444985D01*
X128726252Y-64299406D01*
X128759630Y-64192289D01*
X128798365Y-64134145D01*
X128862390Y-64106170D01*
X128931376Y-64117251D01*
X128965695Y-64141501D01*
X129294703Y-64470509D01*
X129328188Y-64531832D01*
X129326797Y-64590282D01*
X129293541Y-64714399D01*
X129293538Y-64714413D01*
X129273706Y-64941098D01*
X129273706Y-64941101D01*
X129293538Y-65167786D01*
X129293540Y-65167797D01*
X129352432Y-65387588D01*
X129352435Y-65387597D01*
X129448605Y-65593832D01*
X129448606Y-65593834D01*
X129579128Y-65780241D01*
X129740032Y-65941145D01*
X129740035Y-65941147D01*
X129926440Y-66071668D01*
X130132678Y-66167839D01*
X130352482Y-66226735D01*
X130514404Y-66240901D01*
X130579172Y-66246568D01*
X130579174Y-66246568D01*
X130579176Y-66246568D01*
X130635847Y-66241609D01*
X130805866Y-66226735D01*
X131025670Y-66167839D01*
X131231908Y-66071668D01*
X131418313Y-65941147D01*
X131579221Y-65780239D01*
X131709742Y-65593834D01*
X131805913Y-65387596D01*
X131864809Y-65167792D01*
X131884642Y-64941100D01*
X131880827Y-64897500D01*
X131872776Y-64805469D01*
X131864809Y-64714408D01*
X131805913Y-64494604D01*
X131709742Y-64288366D01*
X131579221Y-64101961D01*
X131579219Y-64101958D01*
X131418315Y-63941054D01*
X131231908Y-63810532D01*
X131231902Y-63810529D01*
X131173899Y-63783482D01*
X131121459Y-63737310D01*
X131102307Y-63670117D01*
X131122522Y-63603235D01*
X131173899Y-63558718D01*
X131231908Y-63531668D01*
X131418313Y-63401147D01*
X131579221Y-63240239D01*
X131709742Y-63053834D01*
X131805913Y-62847596D01*
X131864809Y-62627792D01*
X131884642Y-62401100D01*
X131882973Y-62382028D01*
X131874133Y-62280978D01*
X131864809Y-62174408D01*
X131806675Y-61957449D01*
X131805915Y-61954611D01*
X131805912Y-61954602D01*
X131709742Y-61748366D01*
X131579221Y-61561961D01*
X131579219Y-61561958D01*
X131418315Y-61401054D01*
X131231908Y-61270532D01*
X131231902Y-61270529D01*
X131173899Y-61243482D01*
X131121459Y-61197310D01*
X131102307Y-61130117D01*
X131122522Y-61063235D01*
X131173899Y-61018718D01*
X131231908Y-60991668D01*
X131418313Y-60861147D01*
X131579221Y-60700239D01*
X131709742Y-60513834D01*
X131805913Y-60307596D01*
X131864809Y-60087792D01*
X131884642Y-59861100D01*
X131864809Y-59634408D01*
X131805913Y-59414604D01*
X131709742Y-59208366D01*
X131579221Y-59021961D01*
X131579219Y-59021958D01*
X131418316Y-58861055D01*
X131398494Y-58847176D01*
X131354868Y-58792600D01*
X131347674Y-58723101D01*
X131379196Y-58660746D01*
X131439425Y-58625332D01*
X131469616Y-58621600D01*
X131483444Y-58621600D01*
X131513873Y-58618746D01*
X131513875Y-58618746D01*
X131577964Y-58596319D01*
X131642056Y-58573893D01*
X131751324Y-58493250D01*
X131831967Y-58383982D01*
X131871333Y-58271481D01*
X131876820Y-58255801D01*
X131876820Y-58255799D01*
X131879674Y-58225369D01*
X131879674Y-56416830D01*
X131876820Y-56386400D01*
X131876820Y-56386398D01*
X131834340Y-56265000D01*
X131831967Y-56258218D01*
X131751324Y-56148950D01*
X131642056Y-56068307D01*
X131642054Y-56068306D01*
X131513874Y-56023453D01*
X131483444Y-56020600D01*
X131483440Y-56020600D01*
X130118159Y-56020600D01*
X130051120Y-56000915D01*
X130005365Y-55948111D01*
X129995421Y-55878953D01*
X130010772Y-55834600D01*
X130013587Y-55829725D01*
X130076281Y-55721135D01*
X130082142Y-55699260D01*
X130093189Y-55658030D01*
X130129550Y-55598372D01*
X130176069Y-55571740D01*
X130279606Y-55539478D01*
X130425185Y-55451472D01*
X130545472Y-55331185D01*
X130633478Y-55185606D01*
X130684086Y-55023196D01*
X130690500Y-54952616D01*
X130690500Y-54314384D01*
X130684086Y-54243804D01*
X130633478Y-54081394D01*
X130545472Y-53935815D01*
X130545470Y-53935813D01*
X130545469Y-53935811D01*
X130419882Y-53810224D01*
X130421774Y-53808331D01*
X130388492Y-53761785D01*
X130385031Y-53692002D01*
X130419848Y-53631424D01*
X130422738Y-53628919D01*
X130545469Y-53506188D01*
X130545472Y-53506185D01*
X130633478Y-53360606D01*
X130684086Y-53198196D01*
X130690500Y-53127616D01*
X130690500Y-52489384D01*
X130684086Y-52418804D01*
X130633478Y-52256394D01*
X130545472Y-52110815D01*
X130545470Y-52110813D01*
X130545469Y-52110811D01*
X130425188Y-51990530D01*
X130279606Y-51902522D01*
X130164990Y-51866807D01*
X130117196Y-51851914D01*
X130117194Y-51851913D01*
X130117192Y-51851913D01*
X130067778Y-51847423D01*
X130046616Y-51845500D01*
X129033384Y-51845500D01*
X129014145Y-51847248D01*
X128962807Y-51851913D01*
X128800393Y-51902522D01*
X128654811Y-51990530D01*
X128534531Y-52110810D01*
X128534528Y-52110814D01*
X128496844Y-52173151D01*
X128445316Y-52220338D01*
X128390728Y-52233000D01*
X127709733Y-52233000D01*
X127573408Y-52269528D01*
X127573407Y-52269527D01*
X127563365Y-52272218D01*
X127432135Y-52347985D01*
X127432132Y-52347987D01*
X127361316Y-52418804D01*
X127324985Y-52455135D01*
X127324984Y-52455136D01*
X127174174Y-52605945D01*
X127137194Y-52642925D01*
X127137193Y-52642926D01*
X127081940Y-52698180D01*
X127020617Y-52731666D01*
X126998439Y-52734050D01*
X126998454Y-52734372D01*
X126995640Y-52734499D01*
X126925687Y-52740856D01*
X126764734Y-52791011D01*
X126764726Y-52791014D01*
X126620453Y-52878229D01*
X126620448Y-52878233D01*
X126501233Y-52997448D01*
X126501229Y-52997453D01*
X126414014Y-53141726D01*
X126414011Y-53141734D01*
X126363856Y-53302687D01*
X126363856Y-53302689D01*
X126357500Y-53372636D01*
X126357500Y-53972364D01*
X126357785Y-53975500D01*
X126363856Y-54042312D01*
X126414011Y-54203265D01*
X126414014Y-54203273D01*
X126501229Y-54347546D01*
X126501233Y-54347551D01*
X126541501Y-54387819D01*
X126574986Y-54449142D01*
X126570002Y-54518834D01*
X126528130Y-54574767D01*
X126462666Y-54599184D01*
X126453820Y-54599500D01*
X124920074Y-54599500D01*
X124853035Y-54579815D01*
X124807280Y-54527011D01*
X124796074Y-54475500D01*
X124796074Y-45663944D01*
X124815759Y-45596905D01*
X124832393Y-45576263D01*
X126274107Y-44134549D01*
X126274113Y-44134543D01*
X126325549Y-44057565D01*
X126350775Y-44019811D01*
X126403580Y-43892328D01*
X126430500Y-43756993D01*
X126430500Y-42516685D01*
X126438319Y-42473350D01*
X126441931Y-42463667D01*
X126444639Y-42438470D01*
X126448499Y-42402580D01*
X126448499Y-42402574D01*
X126448500Y-42402565D01*
X126448499Y-42179436D01*
X126441931Y-42118333D01*
X126441037Y-42115938D01*
X126438318Y-42108644D01*
X126430500Y-42065312D01*
X126430500Y-41668923D01*
X126447113Y-41606923D01*
X126511250Y-41495835D01*
X126566497Y-41325803D01*
X126585185Y-41148000D01*
X126566497Y-40970197D01*
X126511250Y-40800165D01*
X126421859Y-40645335D01*
X126375003Y-40593296D01*
X126302235Y-40512478D01*
X126302232Y-40512476D01*
X126302231Y-40512475D01*
X126302230Y-40512474D01*
X126157593Y-40407388D01*
X125994267Y-40334671D01*
X125994265Y-40334670D01*
X125866594Y-40307533D01*
X125819391Y-40297500D01*
X125640609Y-40297500D01*
X125609954Y-40304015D01*
X125465733Y-40334670D01*
X125465728Y-40334672D01*
X125302408Y-40407387D01*
X125157768Y-40512475D01*
X125038140Y-40645336D01*
X124948750Y-40800164D01*
X124948747Y-40800170D01*
X124893504Y-40970192D01*
X124893503Y-40970194D01*
X124874815Y-41148000D01*
X124893503Y-41325805D01*
X124893504Y-41325807D01*
X124948747Y-41495829D01*
X124948750Y-41495835D01*
X125012887Y-41606923D01*
X125029500Y-41668923D01*
X125029500Y-43346480D01*
X125009815Y-43413519D01*
X124993181Y-43434161D01*
X123551462Y-44875879D01*
X123551461Y-44875880D01*
X123474796Y-44990618D01*
X123421995Y-45118093D01*
X123421992Y-45118103D01*
X123395074Y-45253430D01*
X123395074Y-51090101D01*
X123375389Y-51157140D01*
X123322585Y-51202895D01*
X123273413Y-51214079D01*
X122743398Y-51224079D01*
X122709634Y-51226174D01*
X122704203Y-51226512D01*
X122704199Y-51226512D01*
X122704189Y-51226513D01*
X122695824Y-51227395D01*
X122695813Y-51227396D01*
X122615687Y-51243214D01*
X122615681Y-51243216D01*
X122610607Y-51245569D01*
X122541508Y-51255913D01*
X122537417Y-51255279D01*
X122514286Y-51251299D01*
X122514289Y-51251299D01*
X121393084Y-51227940D01*
X121388087Y-51227862D01*
X121387092Y-51227852D01*
X121340045Y-51229820D01*
X121208263Y-51262503D01*
X121208259Y-51262504D01*
X121208258Y-51262505D01*
X121173610Y-51276857D01*
X121173606Y-51276859D01*
X121173599Y-51276862D01*
X121173593Y-51276864D01*
X121098419Y-51316597D01*
X121098416Y-51316599D01*
X120997177Y-51407070D01*
X120997174Y-51407073D01*
X120927101Y-51523363D01*
X120927099Y-51523367D01*
X120912760Y-51557984D01*
X120912743Y-51558026D01*
X120898311Y-51598070D01*
X120878074Y-51732325D01*
X120878074Y-51950262D01*
X120858389Y-52017301D01*
X120841755Y-52037944D01*
X120747404Y-52132294D01*
X120686080Y-52165778D01*
X120660765Y-52168608D01*
X117923933Y-52191607D01*
X117883316Y-52193764D01*
X117751674Y-52227003D01*
X117751672Y-52227003D01*
X117751671Y-52227004D01*
X117741157Y-52231411D01*
X117717438Y-52241353D01*
X117717431Y-52241356D01*
X117644021Y-52280353D01*
X117644016Y-52280356D01*
X117542777Y-52370828D01*
X117542774Y-52370831D01*
X117472701Y-52487121D01*
X117472699Y-52487125D01*
X117458360Y-52521742D01*
X117458343Y-52521784D01*
X117443911Y-52561828D01*
X117423674Y-52696083D01*
X117423674Y-52696089D01*
X117423674Y-54046300D01*
X117425664Y-54088831D01*
X117431779Y-54113488D01*
X117458346Y-54220610D01*
X117458347Y-54220612D01*
X117458348Y-54220616D01*
X117472700Y-54255264D01*
X117472703Y-54255271D01*
X117472705Y-54255274D01*
X117472707Y-54255280D01*
X117501860Y-54310436D01*
X117512440Y-54330455D01*
X117549526Y-54371955D01*
X117606339Y-54435530D01*
X117636333Y-54498634D01*
X117627448Y-54567937D01*
X117582506Y-54621434D01*
X117543554Y-54638553D01*
X117394296Y-54675341D01*
X117324493Y-54672272D01*
X117267431Y-54631952D01*
X117241301Y-54567907D01*
X117236497Y-54522197D01*
X117181250Y-54352165D01*
X117091859Y-54197335D01*
X117052955Y-54154129D01*
X117016363Y-54113488D01*
X116988215Y-54060590D01*
X116983645Y-54042311D01*
X116359802Y-51546933D01*
X116356100Y-51516859D01*
X116356100Y-50967700D01*
X116375785Y-50900661D01*
X116428589Y-50854906D01*
X116480100Y-50843700D01*
X122176600Y-50843700D01*
X122176616Y-50843699D01*
X122232047Y-50837738D01*
X122273427Y-50833290D01*
X122324938Y-50822084D01*
X122411681Y-50793866D01*
X122526400Y-50721238D01*
X122579204Y-50675483D01*
X122660720Y-50582692D01*
X122717963Y-50459572D01*
X122737648Y-50392533D01*
X122756100Y-50264200D01*
X122756100Y-42712200D01*
X122756099Y-42712183D01*
X122745690Y-42615377D01*
X122745690Y-42615373D01*
X122734484Y-42563862D01*
X122706266Y-42477119D01*
X122633638Y-42362400D01*
X122633636Y-42362398D01*
X122633637Y-42362398D01*
X122587882Y-42309595D01*
X122587879Y-42309592D01*
X122495094Y-42228082D01*
X122495091Y-42228079D01*
X122371975Y-42170838D01*
X122371961Y-42170833D01*
X122304940Y-42151153D01*
X122302113Y-42150746D01*
X122176600Y-42132700D01*
X111699600Y-42132700D01*
X111699583Y-42132700D01*
X111602777Y-42143109D01*
X111602766Y-42143111D01*
X111551266Y-42154314D01*
X111551264Y-42154315D01*
X111464518Y-42182534D01*
X111349798Y-42255163D01*
X111296995Y-42300917D01*
X111296992Y-42300920D01*
X111215482Y-42393705D01*
X111215479Y-42393708D01*
X111158238Y-42516824D01*
X111158233Y-42516838D01*
X111138553Y-42583859D01*
X111138552Y-42583867D01*
X111120103Y-42712183D01*
X111120100Y-42712202D01*
X111120100Y-51464216D01*
X111130509Y-51561022D01*
X111130511Y-51561033D01*
X111141714Y-51612533D01*
X111141715Y-51612535D01*
X111141716Y-51612538D01*
X111169934Y-51699281D01*
X111242562Y-51814000D01*
X111242563Y-51814001D01*
X111242562Y-51814001D01*
X111288317Y-51866804D01*
X111381108Y-51948320D01*
X111504228Y-52005563D01*
X111504236Y-52005565D01*
X111504238Y-52005566D01*
X111571259Y-52025246D01*
X111571261Y-52025246D01*
X111571267Y-52025248D01*
X111699600Y-52043700D01*
X111721100Y-52043700D01*
X111788139Y-52063385D01*
X111833894Y-52116189D01*
X111845100Y-52167700D01*
X111845100Y-53295129D01*
X111825415Y-53362168D01*
X111772611Y-53407923D01*
X111740955Y-53417529D01*
X109350941Y-53805229D01*
X109342271Y-53806755D01*
X109338856Y-53807357D01*
X109338226Y-53807476D01*
X109332321Y-53808597D01*
X109326608Y-53809720D01*
X109326607Y-53809721D01*
X109199070Y-53856303D01*
X109137745Y-53889788D01*
X109033964Y-53967477D01*
X109033946Y-53967493D01*
X106553000Y-56448439D01*
X106553000Y-56134000D01*
X105766397Y-56134000D01*
X105775989Y-56106587D01*
X105797646Y-56044699D01*
X105797646Y-56044697D01*
X105800500Y-56014267D01*
X105800500Y-55894440D01*
X105820185Y-55827401D01*
X105836819Y-55806759D01*
X106036910Y-55606668D01*
X106098233Y-55573183D01*
X106124591Y-55570349D01*
X106199238Y-55570349D01*
X106199240Y-55570349D01*
X106374116Y-55533178D01*
X106537442Y-55460461D01*
X106682079Y-55355375D01*
X106801708Y-55222514D01*
X106891099Y-55067684D01*
X106946346Y-54897652D01*
X106965034Y-54719849D01*
X106965033Y-54719846D01*
X106965295Y-54717360D01*
X106991880Y-54652746D01*
X107000925Y-54642651D01*
X107581759Y-54061819D01*
X107643082Y-54028334D01*
X107669440Y-54025500D01*
X108331613Y-54025500D01*
X108331616Y-54025500D01*
X108402196Y-54019086D01*
X108564606Y-53968478D01*
X108710185Y-53880472D01*
X108830472Y-53760185D01*
X108918478Y-53614606D01*
X108969086Y-53452196D01*
X108975500Y-53381616D01*
X108975500Y-52768384D01*
X108969086Y-52697804D01*
X108918478Y-52535394D01*
X108830472Y-52389815D01*
X108830470Y-52389813D01*
X108830469Y-52389811D01*
X108710188Y-52269530D01*
X108649760Y-52233000D01*
X108564606Y-52181522D01*
X108402196Y-52130914D01*
X108331616Y-52124500D01*
X108331615Y-52124500D01*
X108329260Y-52124286D01*
X108308390Y-52120570D01*
X108271964Y-52110810D01*
X108230314Y-52099650D01*
X108078781Y-52099650D01*
X108001807Y-52120275D01*
X107969714Y-52124500D01*
X107268384Y-52124500D01*
X107197804Y-52130914D01*
X107114876Y-52156755D01*
X107045016Y-52157905D01*
X106985624Y-52121104D01*
X106955556Y-52058035D01*
X106954629Y-52025772D01*
X106963500Y-51938941D01*
X106963499Y-50392252D01*
X106953349Y-50292888D01*
X106900003Y-50131899D01*
X106899999Y-50131893D01*
X106899998Y-50131890D01*
X106810970Y-49987555D01*
X106810967Y-49987551D01*
X106691044Y-49867628D01*
X106691040Y-49867625D01*
X106546705Y-49778597D01*
X106546699Y-49778594D01*
X106546697Y-49778593D01*
X106546694Y-49778592D01*
X106385709Y-49725247D01*
X106286352Y-49715096D01*
X106286345Y-49715096D01*
X105880100Y-49715096D01*
X105813061Y-49695411D01*
X105767306Y-49642607D01*
X105756100Y-49591096D01*
X105756100Y-49581366D01*
X105775785Y-49514327D01*
X105780900Y-49506966D01*
X106840200Y-48094566D01*
X106849858Y-48081191D01*
X106854973Y-48073830D01*
X106860720Y-48065358D01*
X106917963Y-47942238D01*
X106937648Y-47875199D01*
X106956100Y-47746866D01*
X106956100Y-43427938D01*
X106955963Y-43416779D01*
X106955814Y-43410699D01*
X106955665Y-43405714D01*
X106930682Y-43272254D01*
X106907734Y-43206260D01*
X106848159Y-43091110D01*
X106485837Y-42583859D01*
X105979197Y-41874561D01*
X105956249Y-41808568D01*
X105956100Y-41802488D01*
X105956100Y-37712200D01*
X105956099Y-37712183D01*
X105945690Y-37615377D01*
X105945690Y-37615373D01*
X105934484Y-37563862D01*
X105906266Y-37477119D01*
X105863762Y-37409982D01*
X120032500Y-37409982D01*
X120032500Y-37522018D01*
X120061497Y-37630237D01*
X120117515Y-37727263D01*
X120196737Y-37806485D01*
X120293763Y-37862503D01*
X120401982Y-37891500D01*
X120401984Y-37891500D01*
X120514016Y-37891500D01*
X120514018Y-37891500D01*
X120622237Y-37862503D01*
X120719263Y-37806485D01*
X120798485Y-37727263D01*
X120854503Y-37630237D01*
X120883500Y-37522018D01*
X120883500Y-37409982D01*
X125812500Y-37409982D01*
X125812500Y-37522018D01*
X125841497Y-37630237D01*
X125897515Y-37727263D01*
X125976737Y-37806485D01*
X126073763Y-37862503D01*
X126181982Y-37891500D01*
X126181984Y-37891500D01*
X126294016Y-37891500D01*
X126294018Y-37891500D01*
X126402237Y-37862503D01*
X126499263Y-37806485D01*
X126578485Y-37727263D01*
X126634503Y-37630237D01*
X126663500Y-37522018D01*
X126663500Y-37409982D01*
X126634503Y-37301763D01*
X126578485Y-37204737D01*
X126499263Y-37125515D01*
X126402237Y-37069497D01*
X126294018Y-37040500D01*
X126181982Y-37040500D01*
X126073763Y-37069497D01*
X126073760Y-37069498D01*
X125976740Y-37125513D01*
X125976734Y-37125517D01*
X125897517Y-37204734D01*
X125897513Y-37204740D01*
X125841498Y-37301760D01*
X125841497Y-37301763D01*
X125812500Y-37409982D01*
X120883500Y-37409982D01*
X120854503Y-37301763D01*
X120798485Y-37204737D01*
X120719263Y-37125515D01*
X120622237Y-37069497D01*
X120514018Y-37040500D01*
X120401982Y-37040500D01*
X120293763Y-37069497D01*
X120293760Y-37069498D01*
X120196740Y-37125513D01*
X120196734Y-37125517D01*
X120117517Y-37204734D01*
X120117513Y-37204740D01*
X120061498Y-37301760D01*
X120061497Y-37301763D01*
X120032500Y-37409982D01*
X105863762Y-37409982D01*
X105833638Y-37362400D01*
X105833636Y-37362398D01*
X105833637Y-37362398D01*
X105787882Y-37309595D01*
X105787879Y-37309592D01*
X105695094Y-37228082D01*
X105695091Y-37228079D01*
X105571975Y-37170838D01*
X105571961Y-37170833D01*
X105504940Y-37151153D01*
X105502113Y-37150746D01*
X105376600Y-37132700D01*
X100224600Y-37132700D01*
X100224583Y-37132700D01*
X100127777Y-37143109D01*
X100127766Y-37143111D01*
X100076266Y-37154314D01*
X100076264Y-37154315D01*
X99989518Y-37182534D01*
X99874798Y-37255163D01*
X99821995Y-37300917D01*
X99821992Y-37300920D01*
X99740482Y-37393705D01*
X99740479Y-37393708D01*
X99683238Y-37516824D01*
X99683233Y-37516838D01*
X99663553Y-37583859D01*
X99663552Y-37583867D01*
X99645103Y-37712183D01*
X99645100Y-37712202D01*
X99645100Y-50864216D01*
X99655509Y-50961022D01*
X99655511Y-50961033D01*
X99666714Y-51012533D01*
X99666715Y-51012535D01*
X99666716Y-51012538D01*
X99694934Y-51099281D01*
X99767562Y-51214000D01*
X99767563Y-51214001D01*
X99767562Y-51214001D01*
X99813315Y-51266802D01*
X99831004Y-51282342D01*
X99868377Y-51341376D01*
X99867902Y-51411244D01*
X99829728Y-51469764D01*
X99765976Y-51498355D01*
X99749165Y-51499500D01*
X98768384Y-51499500D01*
X98749145Y-51501248D01*
X98697807Y-51505913D01*
X98535393Y-51556522D01*
X98389811Y-51644530D01*
X98269530Y-51764811D01*
X98181522Y-51910393D01*
X98130913Y-52072807D01*
X98126216Y-52124500D01*
X98124500Y-52143384D01*
X98124500Y-52756616D01*
X98125570Y-52768386D01*
X98130913Y-52827192D01*
X98130913Y-52827194D01*
X98130914Y-52827196D01*
X98181522Y-52989606D01*
X98264952Y-53127616D01*
X98269530Y-53135188D01*
X98389811Y-53255469D01*
X98389813Y-53255470D01*
X98389815Y-53255472D01*
X98453355Y-53293884D01*
X98500543Y-53345411D01*
X98512381Y-53414271D01*
X98485112Y-53478599D01*
X98453356Y-53506115D01*
X98420232Y-53526140D01*
X98389811Y-53544530D01*
X98269530Y-53664811D01*
X98181522Y-53810393D01*
X98130913Y-53972807D01*
X98130329Y-53979237D01*
X98124500Y-54043384D01*
X98124500Y-54656616D01*
X98126202Y-54675341D01*
X98130913Y-54727192D01*
X98130913Y-54727194D01*
X98130914Y-54727196D01*
X98181522Y-54889606D01*
X98262280Y-55023196D01*
X98269530Y-55035188D01*
X98389811Y-55155469D01*
X98389813Y-55155470D01*
X98389815Y-55155472D01*
X98535394Y-55243478D01*
X98697804Y-55294086D01*
X98768384Y-55300500D01*
X98768387Y-55300500D01*
X99831613Y-55300500D01*
X99831616Y-55300500D01*
X99902196Y-55294086D01*
X100064606Y-55243478D01*
X100210185Y-55155472D01*
X100278839Y-55086817D01*
X100340160Y-55053334D01*
X100366519Y-55050500D01*
X100560888Y-55050500D01*
X100627927Y-55070185D01*
X100648569Y-55086819D01*
X101363183Y-55801433D01*
X101396668Y-55862756D01*
X101399502Y-55889114D01*
X101399502Y-56014267D01*
X101402355Y-56044697D01*
X101402355Y-56044699D01*
X101433604Y-56134000D01*
X101219000Y-56134000D01*
X98474720Y-56757700D01*
X95324583Y-56757700D01*
X95227777Y-56768109D01*
X95227766Y-56768111D01*
X95176266Y-56779314D01*
X95176264Y-56779315D01*
X95089518Y-56807534D01*
X94974798Y-56880163D01*
X94921995Y-56925917D01*
X94921992Y-56925920D01*
X94840482Y-57018705D01*
X94840479Y-57018708D01*
X94783238Y-57141824D01*
X94783233Y-57141838D01*
X94763553Y-57208859D01*
X94745100Y-57337202D01*
X93384089Y-57337202D01*
X93240430Y-57149983D01*
X93240424Y-57149976D01*
X93071223Y-56980775D01*
X93071216Y-56980769D01*
X92881367Y-56835092D01*
X92881365Y-56835091D01*
X92674140Y-56715451D01*
X92674132Y-56715447D01*
X92674130Y-56715446D01*
X92654235Y-56707205D01*
X92453045Y-56623869D01*
X92221900Y-56561934D01*
X91984659Y-56530701D01*
X91984656Y-56530700D01*
X91984650Y-56530700D01*
X91745350Y-56530700D01*
X91745344Y-56530700D01*
X91745340Y-56530701D01*
X91508099Y-56561934D01*
X91276954Y-56623869D01*
X91055876Y-56715443D01*
X91055859Y-56715451D01*
X90848634Y-56835091D01*
X90848632Y-56835092D01*
X90658783Y-56980769D01*
X90658776Y-56980775D01*
X90489575Y-57149976D01*
X90489569Y-57149983D01*
X90343892Y-57339832D01*
X90343891Y-57339834D01*
X90224251Y-57547059D01*
X90224243Y-57547076D01*
X90132669Y-57768154D01*
X90070734Y-57999299D01*
X90039501Y-58236540D01*
X90039500Y-58236556D01*
X88800000Y-58236556D01*
X88800000Y-34988199D01*
X93545171Y-34988199D01*
X93545171Y-34988200D01*
X93564844Y-35200510D01*
X93623196Y-35405592D01*
X93623196Y-35405594D01*
X93718232Y-35596453D01*
X93846727Y-35766606D01*
X93846728Y-35766607D01*
X94004298Y-35910252D01*
X94185581Y-36022498D01*
X94384402Y-36099521D01*
X94593990Y-36138700D01*
X94593992Y-36138700D01*
X94807208Y-36138700D01*
X94807210Y-36138700D01*
X95016798Y-36099521D01*
X95215619Y-36022498D01*
X95396902Y-35910252D01*
X95554472Y-35766607D01*
X95682966Y-35596455D01*
X95778005Y-35405589D01*
X95836356Y-35200510D01*
X95856029Y-34988200D01*
X95856029Y-34988199D01*
X104545171Y-34988199D01*
X104545171Y-34988200D01*
X104564844Y-35200510D01*
X104623196Y-35405592D01*
X104623196Y-35405594D01*
X104718232Y-35596453D01*
X104846727Y-35766606D01*
X104846728Y-35766607D01*
X105004298Y-35910252D01*
X105185581Y-36022498D01*
X105384402Y-36099521D01*
X105593990Y-36138700D01*
X105593992Y-36138700D01*
X105807208Y-36138700D01*
X105807210Y-36138700D01*
X106016798Y-36099521D01*
X106215619Y-36022498D01*
X106396902Y-35910252D01*
X106554472Y-35766607D01*
X106682966Y-35596455D01*
X106778005Y-35405589D01*
X106836356Y-35200510D01*
X106856029Y-34988200D01*
X106836356Y-34775890D01*
X106778005Y-34570811D01*
X106778003Y-34570806D01*
X106778003Y-34570805D01*
X106682967Y-34379946D01*
X106554472Y-34209793D01*
X106396902Y-34066148D01*
X106215619Y-33953902D01*
X106215617Y-33953901D01*
X106116208Y-33915390D01*
X106016798Y-33876879D01*
X105807210Y-33837700D01*
X105593990Y-33837700D01*
X105384402Y-33876879D01*
X105384399Y-33876879D01*
X105384399Y-33876880D01*
X105185582Y-33953901D01*
X105185580Y-33953902D01*
X105004299Y-34066147D01*
X104846727Y-34209793D01*
X104718232Y-34379946D01*
X104623196Y-34570805D01*
X104623196Y-34570807D01*
X104564844Y-34775889D01*
X104545171Y-34988199D01*
X95856029Y-34988199D01*
X95836356Y-34775890D01*
X95778005Y-34570811D01*
X95778003Y-34570806D01*
X95778003Y-34570805D01*
X95682967Y-34379946D01*
X95554472Y-34209793D01*
X95396902Y-34066148D01*
X95215619Y-33953902D01*
X95215617Y-33953901D01*
X95116208Y-33915390D01*
X95016798Y-33876879D01*
X94807210Y-33837700D01*
X94593990Y-33837700D01*
X94384402Y-33876879D01*
X94384399Y-33876879D01*
X94384399Y-33876880D01*
X94185582Y-33953901D01*
X94185580Y-33953902D01*
X94004299Y-34066147D01*
X93846727Y-34209793D01*
X93718232Y-34379946D01*
X93623196Y-34570805D01*
X93623196Y-34570807D01*
X93564844Y-34775889D01*
X93545171Y-34988199D01*
X88800000Y-34988199D01*
X88800000Y-32624000D01*
X88819685Y-32556961D01*
X88872489Y-32511206D01*
X88924000Y-32500000D01*
X132655217Y-32500000D01*
X132722256Y-32519685D01*
G37*
%TD.AperFunction*%
%TD*%
%TA.AperFunction,Conductor*%
%TO.N,GND*%
G36*
X102452365Y-56182987D02*
G01*
X102456259Y-56192548D01*
X102460902Y-56205465D01*
X102471380Y-56220555D01*
X102515044Y-56262686D01*
X102526410Y-56269990D01*
X102567906Y-56288733D01*
X102581281Y-56292540D01*
X102626444Y-56298458D01*
X104553885Y-56266314D01*
X104611992Y-56253999D01*
X104628563Y-56246973D01*
X104662529Y-56227174D01*
X104711528Y-56163313D01*
X104711528Y-56163311D01*
X104714826Y-56159014D01*
X104749082Y-56134000D01*
X106553000Y-56134000D01*
X106553000Y-56789338D01*
X106529811Y-56802727D01*
X106499907Y-56815114D01*
X106481695Y-56819994D01*
X106456415Y-56826768D01*
X106424321Y-56830994D01*
X106379297Y-56830994D01*
X106347201Y-56826768D01*
X106303704Y-56815112D01*
X106273801Y-56802726D01*
X106234807Y-56780213D01*
X106209131Y-56760511D01*
X106150127Y-56701507D01*
X106150126Y-56701506D01*
X106150122Y-56701502D01*
X106133781Y-56686823D01*
X106133767Y-56686811D01*
X106113118Y-56670170D01*
X106042073Y-56633007D01*
X105975041Y-56613324D01*
X105974392Y-56613230D01*
X105917136Y-56604998D01*
X105879664Y-56604998D01*
X105879663Y-56604998D01*
X105857683Y-56606176D01*
X105831336Y-56609009D01*
X105831334Y-56609010D01*
X105754823Y-56632968D01*
X105754820Y-56632969D01*
X105754818Y-56632969D01*
X105754813Y-56632972D01*
X105693502Y-56666450D01*
X105693494Y-56666455D01*
X105646680Y-56701499D01*
X105646662Y-56701515D01*
X105452178Y-56896000D01*
X104521000Y-56896000D01*
X104521000Y-56962318D01*
X104491282Y-56968229D01*
X104491275Y-56968232D01*
X104441496Y-57001493D01*
X104441495Y-57001494D01*
X104408234Y-57051273D01*
X104408231Y-57051280D01*
X104399500Y-57095175D01*
X104399500Y-57095178D01*
X104399500Y-57974820D01*
X104399500Y-57974822D01*
X104399499Y-57974822D01*
X104408231Y-58018717D01*
X104408234Y-58018724D01*
X104441493Y-58068501D01*
X104441494Y-58068502D01*
X104441496Y-58068504D01*
X104444390Y-58070438D01*
X104449278Y-58076286D01*
X104450132Y-58077140D01*
X104450055Y-58077216D01*
X104489195Y-58124046D01*
X104499501Y-58173540D01*
X104499501Y-58310499D01*
X104479816Y-58377538D01*
X104427012Y-58423293D01*
X104375501Y-58434499D01*
X104210180Y-58434499D01*
X104166284Y-58443230D01*
X104166277Y-58443233D01*
X104116498Y-58476494D01*
X104116497Y-58476495D01*
X104083236Y-58526274D01*
X104083233Y-58526281D01*
X104079112Y-58547000D01*
X103620891Y-58547000D01*
X103616769Y-58526281D01*
X103616768Y-58526280D01*
X103616768Y-58526277D01*
X103583505Y-58476495D01*
X103571140Y-58468233D01*
X103533725Y-58443233D01*
X103533718Y-58443230D01*
X103489823Y-58434499D01*
X103489821Y-58434499D01*
X103210181Y-58434499D01*
X103210179Y-58434499D01*
X103166283Y-58443230D01*
X103154999Y-58447905D01*
X103154241Y-58446075D01*
X103102201Y-58462364D01*
X103045462Y-58446792D01*
X103045002Y-58447905D01*
X103036143Y-58444235D01*
X103034823Y-58443873D01*
X103034014Y-58443353D01*
X103033717Y-58443230D01*
X102989822Y-58434499D01*
X102989820Y-58434499D01*
X102710180Y-58434499D01*
X102710178Y-58434499D01*
X102666282Y-58443230D01*
X102666274Y-58443233D01*
X102661209Y-58446618D01*
X102616000Y-58460771D01*
X102616000Y-58160763D01*
X102620284Y-58160303D01*
X102649475Y-58153952D01*
X102671774Y-58149102D01*
X102671790Y-58149098D01*
X102671795Y-58149097D01*
X102681973Y-58146610D01*
X102762685Y-58103600D01*
X102815489Y-58057845D01*
X102833443Y-58040254D01*
X102878090Y-57960437D01*
X102897775Y-57893398D01*
X102906100Y-57835500D01*
X102906100Y-57112200D01*
X102901403Y-57068516D01*
X102897497Y-57050564D01*
X102890202Y-57017025D01*
X102889071Y-57012397D01*
X102887710Y-57006827D01*
X102844700Y-56926115D01*
X102798945Y-56873311D01*
X102798939Y-56873304D01*
X102781357Y-56855360D01*
X102781356Y-56855359D01*
X102781354Y-56855357D01*
X102781352Y-56855356D01*
X102781350Y-56855354D01*
X102701540Y-56810711D01*
X102701535Y-56810709D01*
X102634503Y-56791026D01*
X102634499Y-56791025D01*
X102634498Y-56791025D01*
X102576600Y-56782700D01*
X102544765Y-56782700D01*
X102544763Y-56782700D01*
X102530144Y-56783745D01*
X102515524Y-56784791D01*
X102515521Y-56784791D01*
X102515513Y-56784792D01*
X102480597Y-56789811D01*
X102451931Y-56796047D01*
X102434965Y-56801029D01*
X102421519Y-56804977D01*
X102386584Y-56810000D01*
X102337414Y-56810000D01*
X102302478Y-56804977D01*
X102272070Y-56796048D01*
X102272067Y-56796047D01*
X102272066Y-56796047D01*
X102264270Y-56794351D01*
X102243413Y-56789814D01*
X102208482Y-56784792D01*
X102179235Y-56782700D01*
X101924983Y-56782700D01*
X101924982Y-56782700D01*
X101885330Y-56786561D01*
X101838374Y-56795795D01*
X101800223Y-56807231D01*
X101471436Y-56941736D01*
X101332757Y-56998468D01*
X101285808Y-57007700D01*
X101050700Y-57007700D01*
X98425000Y-56769000D01*
X101219000Y-56134000D01*
X102409917Y-56134000D01*
X102452365Y-56182987D01*
G37*
%TD.AperFunction*%
%TD*%
%TA.AperFunction,Conductor*%
%TO.N,+5VBuck*%
G36*
X105443639Y-37607885D02*
G01*
X105489394Y-37660689D01*
X105500600Y-37712200D01*
X105500600Y-41988200D01*
X106477503Y-43355864D01*
X106500451Y-43421858D01*
X106500600Y-43427938D01*
X106500600Y-47746866D01*
X106480915Y-47813905D01*
X106475800Y-47821266D01*
X105300600Y-49388200D01*
X105300600Y-50123375D01*
X105280915Y-50190414D01*
X105275869Y-50197683D01*
X105266372Y-50210370D01*
X105218588Y-50338481D01*
X105218587Y-50338485D01*
X105212500Y-50395094D01*
X105212500Y-50864200D01*
X105192815Y-50931239D01*
X105140011Y-50976994D01*
X105088500Y-50988200D01*
X102037499Y-50988200D01*
X101970460Y-50968515D01*
X101924705Y-50915711D01*
X101913499Y-50864200D01*
X101913499Y-50395114D01*
X101913498Y-50395105D01*
X101907412Y-50338481D01*
X101889588Y-50290697D01*
X101859628Y-50210370D01*
X101777687Y-50100909D01*
X101711911Y-50051670D01*
X101668228Y-50018969D01*
X101668226Y-50018968D01*
X101540114Y-49971184D01*
X101540112Y-49971183D01*
X101540110Y-49971183D01*
X101483493Y-49965096D01*
X100842518Y-49965096D01*
X100842509Y-49965097D01*
X100785885Y-49971183D01*
X100657773Y-50018968D01*
X100548313Y-50100909D01*
X100466373Y-50210367D01*
X100418587Y-50338485D01*
X100412500Y-50395094D01*
X100412500Y-50864200D01*
X100392815Y-50931239D01*
X100340011Y-50976994D01*
X100288500Y-50988200D01*
X100224600Y-50988200D01*
X100157561Y-50968515D01*
X100111806Y-50915711D01*
X100100600Y-50864200D01*
X100100600Y-37712200D01*
X100120285Y-37645161D01*
X100173089Y-37599406D01*
X100224600Y-37588200D01*
X105376600Y-37588200D01*
X105443639Y-37607885D01*
G37*
%TD.AperFunction*%
%TD*%
%TA.AperFunction,Conductor*%
%TO.N,+BATT*%
G36*
X122243639Y-42607885D02*
G01*
X122289394Y-42660689D01*
X122300600Y-42712200D01*
X122300600Y-50264200D01*
X122280915Y-50331239D01*
X122228111Y-50376994D01*
X122176600Y-50388200D01*
X115900600Y-50388200D01*
X115900600Y-51588200D01*
X117900599Y-59588199D01*
X117900600Y-59588200D01*
X120979376Y-59588200D01*
X121003566Y-59590582D01*
X121007173Y-59591300D01*
X121771074Y-59591299D01*
X121838113Y-59610983D01*
X121883868Y-59663787D01*
X121895074Y-59715299D01*
X121895074Y-60287922D01*
X121875389Y-60354961D01*
X121851413Y-60379370D01*
X121852096Y-60380053D01*
X121843463Y-60388685D01*
X121785333Y-60475684D01*
X121785332Y-60475687D01*
X121770074Y-60552394D01*
X121770074Y-61064200D01*
X121750389Y-61131239D01*
X121697585Y-61176994D01*
X121646074Y-61188200D01*
X118500587Y-61188200D01*
X113101862Y-61499892D01*
X113098132Y-61500051D01*
X110752917Y-61564703D01*
X110685361Y-61546873D01*
X110638168Y-61495350D01*
X110625500Y-61440750D01*
X110625500Y-60595730D01*
X110622646Y-60565300D01*
X110622646Y-60565298D01*
X110588004Y-60466300D01*
X110577793Y-60437118D01*
X110497150Y-60327850D01*
X110387882Y-60247207D01*
X110387880Y-60247206D01*
X110259700Y-60202353D01*
X110229270Y-60199500D01*
X110229266Y-60199500D01*
X109944858Y-60199500D01*
X109877819Y-60179815D01*
X109832064Y-60127011D01*
X109822120Y-60057853D01*
X109851145Y-59994297D01*
X109909120Y-59957038D01*
X109909101Y-59956982D01*
X109909329Y-59956904D01*
X109909923Y-59956523D01*
X109912763Y-59955726D01*
X109912857Y-59955700D01*
X109912949Y-59955676D01*
X110117077Y-59871123D01*
X110308423Y-59760649D01*
X110483712Y-59626145D01*
X110639945Y-59469912D01*
X110774449Y-59294623D01*
X110884923Y-59103277D01*
X110969476Y-58899149D01*
X111026661Y-58685730D01*
X111055500Y-58466674D01*
X111055500Y-58245726D01*
X111026661Y-58026670D01*
X110969476Y-57813251D01*
X110911740Y-57673866D01*
X110884927Y-57609132D01*
X110884919Y-57609115D01*
X110774453Y-57417784D01*
X110774449Y-57417777D01*
X110705777Y-57328282D01*
X110639946Y-57242489D01*
X110639940Y-57242482D01*
X110483717Y-57086259D01*
X110483710Y-57086253D01*
X110308431Y-56951757D01*
X110308429Y-56951755D01*
X110308423Y-56951751D01*
X110308418Y-56951748D01*
X110308415Y-56951746D01*
X110117084Y-56841280D01*
X110117067Y-56841272D01*
X109912949Y-56756724D01*
X109862618Y-56743238D01*
X109699530Y-56699539D01*
X109699524Y-56699538D01*
X109699519Y-56699537D01*
X109480484Y-56670701D01*
X109480479Y-56670700D01*
X109480474Y-56670700D01*
X109259526Y-56670700D01*
X109259520Y-56670700D01*
X109259515Y-56670701D01*
X109040480Y-56699537D01*
X109040473Y-56699538D01*
X109040470Y-56699539D01*
X109014066Y-56706614D01*
X108827050Y-56756724D01*
X108622932Y-56841272D01*
X108622915Y-56841280D01*
X108431584Y-56951746D01*
X108431568Y-56951757D01*
X108256289Y-57086253D01*
X108256282Y-57086259D01*
X108100059Y-57242482D01*
X108100053Y-57242489D01*
X107965557Y-57417768D01*
X107965546Y-57417784D01*
X107855080Y-57609115D01*
X107855072Y-57609132D01*
X107770524Y-57813250D01*
X107750760Y-57887011D01*
X107725394Y-57981682D01*
X107713340Y-58026667D01*
X107713337Y-58026680D01*
X107684501Y-58245715D01*
X107684500Y-58245732D01*
X107684500Y-58323936D01*
X107664815Y-58390975D01*
X107612011Y-58436730D01*
X107542853Y-58446674D01*
X107479297Y-58417649D01*
X107462000Y-58399260D01*
X107300601Y-58188200D01*
X107300600Y-58188200D01*
X107153962Y-58188200D01*
X107086923Y-58168515D01*
X107066281Y-58151881D01*
X106938937Y-58024537D01*
X106938935Y-58024535D01*
X106897583Y-58000660D01*
X106864713Y-57981682D01*
X106823319Y-57970591D01*
X106781926Y-57959500D01*
X105319751Y-57959500D01*
X105000345Y-57959500D01*
X104933306Y-57939815D01*
X104887551Y-57887011D01*
X104877607Y-57817853D01*
X104906632Y-57754297D01*
X104909791Y-57750789D01*
X104929441Y-57729783D01*
X105224222Y-57414672D01*
X105227036Y-57411763D01*
X105791983Y-56846817D01*
X105853306Y-56813332D01*
X105879664Y-56810498D01*
X105917136Y-56810498D01*
X105984175Y-56830183D01*
X106004817Y-56846817D01*
X106094494Y-56936494D01*
X106208622Y-57002386D01*
X106335916Y-57036494D01*
X106335918Y-57036494D01*
X106467698Y-57036494D01*
X106467700Y-57036494D01*
X106594994Y-57002386D01*
X106709122Y-56936494D01*
X109356044Y-54289571D01*
X109417363Y-54256089D01*
X109423835Y-54254860D01*
X112300600Y-53788200D01*
X112300600Y-51588200D01*
X111699600Y-51588200D01*
X111632561Y-51568515D01*
X111586806Y-51515711D01*
X111575600Y-51464200D01*
X111575600Y-42712200D01*
X111595285Y-42645161D01*
X111648089Y-42599406D01*
X111699600Y-42588200D01*
X122176600Y-42588200D01*
X122243639Y-42607885D01*
G37*
%TD.AperFunction*%
%TD*%
%TA.AperFunction,Conductor*%
%TO.N,/Power/CELL_1*%
G36*
X124243639Y-119207885D02*
G01*
X124289394Y-119260689D01*
X124300600Y-119312200D01*
X124300600Y-129264200D01*
X124280915Y-129331239D01*
X124228111Y-129376994D01*
X124176600Y-129388200D01*
X95024600Y-129388200D01*
X94957561Y-129368515D01*
X94911806Y-129315711D01*
X94900600Y-129264200D01*
X94900600Y-119312200D01*
X94920285Y-119245161D01*
X94973089Y-119199406D01*
X95024600Y-119188200D01*
X124176600Y-119188200D01*
X124243639Y-119207885D01*
G37*
%TD.AperFunction*%
%TD*%
%TA.AperFunction,Conductor*%
%TO.N,/Power/SW_BAT*%
G36*
X120688400Y-53707000D02*
G01*
X120688400Y-54095300D01*
X120688400Y-54095301D01*
X120688400Y-54472566D01*
X120681371Y-54489536D01*
X120645948Y-54524959D01*
X120588354Y-54637993D01*
X120573500Y-54731783D01*
X120573500Y-55744815D01*
X120588354Y-55838606D01*
X120645947Y-55951638D01*
X120645948Y-55951639D01*
X120645950Y-55951642D01*
X120681371Y-55987063D01*
X120688400Y-56004033D01*
X120688400Y-56214800D01*
X120842599Y-56400066D01*
X120847947Y-56412286D01*
X120863670Y-56531710D01*
X120863671Y-56531714D01*
X120919136Y-56665619D01*
X120919142Y-56665630D01*
X121007373Y-56780614D01*
X121007375Y-56780616D01*
X121007379Y-56780621D01*
X121007383Y-56780624D01*
X121007385Y-56780626D01*
X121122369Y-56868857D01*
X121122371Y-56868858D01*
X121122375Y-56868861D01*
X121122380Y-56868863D01*
X121256285Y-56924328D01*
X121256287Y-56924328D01*
X121256291Y-56924330D01*
X121272430Y-56926454D01*
X121287740Y-56934894D01*
X121454014Y-57134668D01*
X121941972Y-57720939D01*
X121947425Y-57738479D01*
X121947064Y-57740973D01*
X121945074Y-57750979D01*
X121945074Y-58440100D01*
X121938045Y-58457071D01*
X121921074Y-58464100D01*
X120938305Y-58464100D01*
X120921334Y-58457071D01*
X120919984Y-58455603D01*
X119815149Y-57149889D01*
X119809472Y-57134668D01*
X119807022Y-56926453D01*
X119784174Y-54984300D01*
X119784174Y-54984299D01*
X119702560Y-54928005D01*
X119694803Y-54919145D01*
X119647426Y-54826161D01*
X119647425Y-54826160D01*
X119647424Y-54826158D01*
X119557716Y-54736450D01*
X119557713Y-54736448D01*
X119557712Y-54736447D01*
X119444680Y-54678854D01*
X119407164Y-54672912D01*
X119350893Y-54664000D01*
X119350890Y-54664000D01*
X119327286Y-54664000D01*
X119313659Y-54659756D01*
X119042276Y-54472566D01*
X118495327Y-54095300D01*
X117879174Y-53670300D01*
X120688400Y-53707000D01*
G37*
%TD.AperFunction*%
%TD*%
%TA.AperFunction,Conductor*%
%TO.N,/Power/SW_BAT*%
G36*
X121383584Y-51683341D02*
G01*
X122504796Y-51706700D01*
X122539136Y-51721770D01*
X122552774Y-51755689D01*
X122552774Y-53925159D01*
X122541417Y-53956528D01*
X122440466Y-54077669D01*
X122407259Y-54095099D01*
X122402823Y-54095300D01*
X120688400Y-54095300D01*
X120688400Y-53881029D01*
X121614574Y-53881029D01*
X121617474Y-53895606D01*
X121628526Y-53912147D01*
X121645067Y-53923199D01*
X121659644Y-53926099D01*
X121659648Y-53926100D01*
X121664574Y-53926100D01*
X122314574Y-53926100D01*
X122319500Y-53926100D01*
X122319503Y-53926099D01*
X122334080Y-53923199D01*
X122350621Y-53912147D01*
X122361673Y-53895606D01*
X122364573Y-53881029D01*
X122364574Y-53881026D01*
X122364574Y-53201100D01*
X122314574Y-53201100D01*
X122314574Y-53926100D01*
X121664574Y-53926100D01*
X121664574Y-53201100D01*
X121614574Y-53201100D01*
X121614574Y-53881029D01*
X120688400Y-53881029D01*
X120688400Y-53707000D01*
X117879174Y-53670300D01*
X118116171Y-53833771D01*
X118117587Y-53836979D01*
X118196894Y-53916286D01*
X118299500Y-53961590D01*
X118301878Y-53961865D01*
X118495327Y-54095300D01*
X117928174Y-54095300D01*
X117893526Y-54080948D01*
X117879174Y-54046300D01*
X117879174Y-53014499D01*
X118107662Y-53014499D01*
X118107662Y-53014500D01*
X118444374Y-53014500D01*
X119244374Y-53014500D01*
X119581086Y-53014500D01*
X119581085Y-53014499D01*
X119571160Y-52992020D01*
X119491853Y-52912713D01*
X119491854Y-52912713D01*
X119389247Y-52867409D01*
X119364184Y-52864501D01*
X119364164Y-52864500D01*
X119244374Y-52864500D01*
X119244374Y-53014500D01*
X118444374Y-53014500D01*
X118444374Y-52864500D01*
X118324586Y-52864500D01*
X118324579Y-52864501D01*
X118299497Y-52867410D01*
X118196894Y-52912713D01*
X118117587Y-52992020D01*
X118107662Y-53014499D01*
X117879174Y-53014499D01*
X117879174Y-52696089D01*
X117893526Y-52661441D01*
X117927760Y-52647091D01*
X120901774Y-52622100D01*
X121333574Y-52190300D01*
X121333574Y-51871170D01*
X121614574Y-51871170D01*
X121614574Y-52551100D01*
X121664574Y-52551100D01*
X122314574Y-52551100D01*
X122364574Y-52551100D01*
X122364574Y-51871174D01*
X122364573Y-51871170D01*
X122361673Y-51856593D01*
X122350621Y-51840052D01*
X122334080Y-51829000D01*
X122319503Y-51826100D01*
X122314574Y-51826100D01*
X122314574Y-52551100D01*
X121664574Y-52551100D01*
X121664574Y-51826100D01*
X121659644Y-51826100D01*
X121645067Y-51829000D01*
X121628526Y-51840052D01*
X121617474Y-51856593D01*
X121614574Y-51871170D01*
X121333574Y-51871170D01*
X121333574Y-51732331D01*
X121347926Y-51697683D01*
X121382574Y-51683331D01*
X121383584Y-51683341D01*
G37*
%TD.AperFunction*%
%TD*%
%TA.AperFunction,Conductor*%
%TO.N,/Power/SNS*%
G36*
X120213500Y-57861529D02*
G01*
X120214850Y-57862997D01*
X120801278Y-58556049D01*
X120803324Y-58558368D01*
X120805525Y-58560862D01*
X120806575Y-58562003D01*
X120806873Y-58562328D01*
X120806882Y-58562336D01*
X120849382Y-58592036D01*
X120861831Y-58600736D01*
X120869396Y-58603869D01*
X120878793Y-58607762D01*
X120878797Y-58607763D01*
X120878802Y-58607765D01*
X120938305Y-58619600D01*
X120938309Y-58619600D01*
X121921074Y-58619600D01*
X121938045Y-58626629D01*
X121945074Y-58643600D01*
X121945074Y-59400327D01*
X121938045Y-59417298D01*
X121921074Y-59424327D01*
X121909359Y-59421274D01*
X121901708Y-59416995D01*
X121896008Y-59413807D01*
X121828969Y-59394123D01*
X121828965Y-59394122D01*
X121771074Y-59385799D01*
X121022133Y-59385799D01*
X121019783Y-59385684D01*
X121017941Y-59385502D01*
X120999514Y-59383689D01*
X120999506Y-59383688D01*
X120999490Y-59383687D01*
X120979387Y-59382700D01*
X120979376Y-59382700D01*
X118079787Y-59382700D01*
X118062816Y-59375671D01*
X118056504Y-59364521D01*
X117879891Y-58658067D01*
X117879174Y-58652246D01*
X117879174Y-57878500D01*
X117886203Y-57861529D01*
X117903174Y-57854500D01*
X120196529Y-57854500D01*
X120213500Y-57861529D01*
G37*
%TD.AperFunction*%
%TD*%
%TA.AperFunction,Conductor*%
%TO.N,+BATT*%
G36*
X102214170Y-56993223D02*
G01*
X102290038Y-57015500D01*
X102290039Y-57015500D01*
X102433961Y-57015500D01*
X102509830Y-56993222D01*
X102544765Y-56988200D01*
X102576600Y-56988200D01*
X102643639Y-57007885D01*
X102689394Y-57060689D01*
X102700600Y-57112200D01*
X102700600Y-57835500D01*
X102680915Y-57902539D01*
X102628111Y-57948294D01*
X102576600Y-57959500D01*
X101600389Y-57959500D01*
X101600373Y-57959499D01*
X101592777Y-57959499D01*
X101507071Y-57959499D01*
X101451880Y-57974287D01*
X101424284Y-57981682D01*
X101405729Y-57992395D01*
X101387174Y-58003108D01*
X101350062Y-58024535D01*
X101350059Y-58024537D01*
X98839537Y-60535059D01*
X98839533Y-60535065D01*
X98796681Y-60609285D01*
X98796682Y-60609286D01*
X98774500Y-60692071D01*
X98774500Y-60987811D01*
X98754815Y-61054850D01*
X98738181Y-61075492D01*
X98661792Y-61151881D01*
X98600469Y-61185366D01*
X98574111Y-61188200D01*
X95324600Y-61188200D01*
X95257561Y-61168515D01*
X95211806Y-61115711D01*
X95200600Y-61064200D01*
X95200600Y-59427717D01*
X95207559Y-59386762D01*
X95247646Y-59272201D01*
X95247646Y-59272199D01*
X95250500Y-59241769D01*
X95250500Y-58183230D01*
X95247646Y-58152800D01*
X95247645Y-58152798D01*
X95207559Y-58038237D01*
X95200600Y-57997282D01*
X95200600Y-57337200D01*
X95220285Y-57270161D01*
X95273089Y-57224406D01*
X95324600Y-57213200D01*
X101350600Y-57213200D01*
X101878033Y-56997432D01*
X101924983Y-56988200D01*
X102179235Y-56988200D01*
X102214170Y-56993223D01*
G37*
%TD.AperFunction*%
%TD*%
%TA.AperFunction,Conductor*%
%TO.N,/Power/PMID*%
G36*
X123680062Y-51676341D02*
G01*
X123695065Y-51710713D01*
X123695074Y-51711637D01*
X123695074Y-54789730D01*
X123722366Y-54891585D01*
X123722367Y-54891589D01*
X123775094Y-54982913D01*
X123780722Y-54988541D01*
X123795074Y-55023189D01*
X123795074Y-57117863D01*
X123815553Y-57194291D01*
X123816344Y-57196200D01*
X123820074Y-57214951D01*
X123820074Y-57475300D01*
X123805722Y-57509948D01*
X123771074Y-57524300D01*
X122920074Y-57524300D01*
X122885426Y-57509948D01*
X122871074Y-57475300D01*
X122871074Y-56500776D01*
X122871074Y-56500774D01*
X122867520Y-56492195D01*
X122861304Y-56477186D01*
X122857574Y-56458435D01*
X122857574Y-56381300D01*
X122626394Y-56196356D01*
X122622356Y-56192741D01*
X122584057Y-56154442D01*
X122569634Y-56148468D01*
X122557776Y-56141461D01*
X122240964Y-55888011D01*
X122222874Y-55855159D01*
X122222574Y-55849748D01*
X122222574Y-54299800D01*
X122236926Y-54265152D01*
X122271574Y-54250800D01*
X122402801Y-54250800D01*
X122402823Y-54250800D01*
X122409862Y-54250641D01*
X122414298Y-54250440D01*
X122414305Y-54250438D01*
X122414306Y-54250438D01*
X122479525Y-54232786D01*
X122479524Y-54232786D01*
X122479529Y-54232785D01*
X122512736Y-54215355D01*
X122559924Y-54177218D01*
X122660875Y-54056077D01*
X122687629Y-54009464D01*
X122698986Y-53978095D01*
X122708274Y-53925159D01*
X122708274Y-51755689D01*
X122704812Y-51737799D01*
X122712318Y-51701057D01*
X122743608Y-51680383D01*
X122751988Y-51679499D01*
X123645153Y-51662647D01*
X123680062Y-51676341D01*
G37*
%TD.AperFunction*%
%TD*%
M02*
