%TF.GenerationSoftware,KiCad,Pcbnew,8.0.3*%
%TF.CreationDate,2024-07-15T22:48:31-04:00*%
%TF.ProjectId,get-a-grip-on-reality,6765742d-612d-4677-9269-702d6f6e2d72,rev?*%
%TF.SameCoordinates,Original*%
%TF.FileFunction,Copper,L1,Top*%
%TF.FilePolarity,Positive*%
%FSLAX46Y46*%
G04 Gerber Fmt 4.6, Leading zero omitted, Abs format (unit mm)*
G04 Created by KiCad (PCBNEW 8.0.3) date 2024-07-15 22:48:31*
%MOMM*%
%LPD*%
G01*
G04 APERTURE LIST*
G04 Aperture macros list*
%AMRoundRect*
0 Rectangle with rounded corners*
0 $1 Rounding radius*
0 $2 $3 $4 $5 $6 $7 $8 $9 X,Y pos of 4 corners*
0 Add a 4 corners polygon primitive as box body*
4,1,4,$2,$3,$4,$5,$6,$7,$8,$9,$2,$3,0*
0 Add four circle primitives for the rounded corners*
1,1,$1+$1,$2,$3*
1,1,$1+$1,$4,$5*
1,1,$1+$1,$6,$7*
1,1,$1+$1,$8,$9*
0 Add four rect primitives between the rounded corners*
20,1,$1+$1,$2,$3,$4,$5,0*
20,1,$1+$1,$4,$5,$6,$7,0*
20,1,$1+$1,$6,$7,$8,$9,0*
20,1,$1+$1,$8,$9,$2,$3,0*%
G04 Aperture macros list end*
%TA.AperFunction,SMDPad,CuDef*%
%ADD10R,6.350000X7.340000*%
%TD*%
%TA.AperFunction,SMDPad,CuDef*%
%ADD11RoundRect,0.250000X0.840000X0.750000X-0.840000X0.750000X-0.840000X-0.750000X0.840000X-0.750000X0*%
%TD*%
%TA.AperFunction,SMDPad,CuDef*%
%ADD12RoundRect,0.150000X0.150000X0.425000X-0.150000X0.425000X-0.150000X-0.425000X0.150000X-0.425000X0*%
%TD*%
%TA.AperFunction,SMDPad,CuDef*%
%ADD13RoundRect,0.075000X0.075000X0.500000X-0.075000X0.500000X-0.075000X-0.500000X0.075000X-0.500000X0*%
%TD*%
%TA.AperFunction,ComponentPad*%
%ADD14O,1.700000X1.700000*%
%TD*%
%TA.AperFunction,ComponentPad*%
%ADD15R,1.700000X1.700000*%
%TD*%
%TA.AperFunction,ComponentPad*%
%ADD16C,1.400000*%
%TD*%
%TA.AperFunction,ComponentPad*%
%ADD17R,3.500000X3.500000*%
%TD*%
%TA.AperFunction,ComponentPad*%
%ADD18C,3.500000*%
%TD*%
%TA.AperFunction,ViaPad*%
%ADD19C,0.800000*%
%TD*%
%TA.AperFunction,ViaPad*%
%ADD20C,0.600000*%
%TD*%
%TA.AperFunction,ViaPad*%
%ADD21C,0.500000*%
%TD*%
%TA.AperFunction,Conductor*%
%ADD22C,0.500000*%
%TD*%
%TA.AperFunction,Conductor*%
%ADD23C,0.250000*%
%TD*%
%TA.AperFunction,Conductor*%
%ADD24C,0.300000*%
%TD*%
G04 APERTURE END LIST*
D10*
%TO.P,BT1,P2*%
%TO.N,/Power/CELL_1*%
X99815000Y-125286200D03*
%TO.P,BT1,P1*%
%TO.N,+BATT*%
X118925000Y-46626200D03*
%TO.P,BT1,N2*%
%TO.N,GND*%
X99815000Y-46626200D03*
%TO.P,BT1,N1*%
%TO.N,/Power/CELL_1*%
X118925000Y-125286200D03*
%TD*%
D11*
%TO.P,P2,S1,SHIELD*%
%TO.N,GND*%
X118238000Y-34036000D03*
X118238000Y-37966000D03*
X128458000Y-34036000D03*
X128458000Y-37966000D03*
D12*
%TO.P,P2,B12,GND*%
X126548000Y-38541000D03*
%TO.P,P2,B9,VBUS*%
%TO.N,+5VUSB*%
X125748000Y-38541000D03*
D13*
%TO.P,P2,B8*%
%TO.N,N/C*%
X125098000Y-38541000D03*
%TO.P,P2,B7*%
X124098000Y-38541000D03*
%TO.P,P2,B6*%
X122598000Y-38541000D03*
%TO.P,P2,B5,VCONN*%
%TO.N,unconnected-(P2-VCONN-PadB5)*%
X121598000Y-38541000D03*
D12*
%TO.P,P2,B4,VBUS*%
%TO.N,+5VUSB*%
X120948000Y-38541000D03*
%TO.P,P2,B1,GND*%
%TO.N,GND*%
X120148000Y-38541000D03*
%TO.P,P2,A12,GND*%
X120148000Y-38541000D03*
%TO.P,P2,A9,VBUS*%
%TO.N,+5VUSB*%
X120948000Y-38541000D03*
D13*
%TO.P,P2,A8*%
%TO.N,N/C*%
X122098000Y-38541000D03*
%TO.P,P2,A7,D-*%
%TO.N,Net-(P2-D+)*%
X123098000Y-38541000D03*
%TO.P,P2,A6,D+*%
X123598000Y-38541000D03*
%TO.P,P2,A5,CC*%
%TO.N,unconnected-(P2-CC-PadA5)*%
X124598000Y-38541000D03*
D12*
%TO.P,P2,A4,VBUS*%
%TO.N,+5VUSB*%
X125748000Y-38541000D03*
%TO.P,P2,A1,GND*%
%TO.N,GND*%
X126548000Y-38541000D03*
%TD*%
D14*
%TO.P,J14,5,Pin_5*%
%TO.N,GND*%
X130579174Y-67481100D03*
%TO.P,J14,4,Pin_4*%
%TO.N,Net-(J14-Pin_4)*%
X130579174Y-64941100D03*
%TO.P,J14,3,Pin_3*%
%TO.N,Net-(J14-Pin_3)*%
X130579174Y-62401100D03*
%TO.P,J14,2,Pin_2*%
%TO.N,Net-(J14-Pin_2)*%
X130579174Y-59861100D03*
D15*
%TO.P,J14,1,Pin_1*%
%TO.N,Net-(J14-Pin_1)*%
X130579174Y-57321100D03*
%TD*%
D16*
%TO.P,J15,*%
%TO.N,*%
X94700600Y-34988200D03*
X105700600Y-34988200D03*
D17*
%TO.P,J15,1,Pin_1*%
%TO.N,GND*%
X97700600Y-39988200D03*
D18*
%TO.P,J15,2,Pin_2*%
%TO.N,+5VBuck*%
X102700600Y-39988200D03*
%TD*%
D19*
%TO.N,GND*%
X129340600Y-71133200D03*
X129340600Y-50813200D03*
X129340600Y-48273200D03*
X129340600Y-45733200D03*
X129340600Y-43193200D03*
X129340600Y-40653200D03*
X126800600Y-71133200D03*
X126800600Y-50813200D03*
X126800600Y-48273200D03*
X126800600Y-45733200D03*
X124260600Y-71133200D03*
X124260600Y-35573200D03*
X121720600Y-71133200D03*
X121720600Y-35573200D03*
X119180600Y-68593200D03*
X119180600Y-66053200D03*
X119180600Y-40653200D03*
X116640600Y-71133200D03*
X116640600Y-68593200D03*
X116640600Y-66053200D03*
X116640600Y-40653200D03*
X114100600Y-71133200D03*
X114100600Y-68593200D03*
X114100600Y-66053200D03*
X114100600Y-40653200D03*
X114100600Y-38113200D03*
X114100600Y-35573200D03*
X111560600Y-71133200D03*
X111560600Y-68593200D03*
X111560600Y-66053200D03*
X111560600Y-63513200D03*
X111560600Y-40653200D03*
X111560600Y-38113200D03*
X111560600Y-35573200D03*
X109020600Y-71133200D03*
X109020600Y-68593200D03*
X109020600Y-43193200D03*
X109020600Y-40653200D03*
X109020600Y-38113200D03*
X109020600Y-35573200D03*
X106480600Y-71133200D03*
X106480600Y-68593200D03*
X106480600Y-66053200D03*
X106480600Y-40653200D03*
X106480600Y-38113200D03*
X103940600Y-71133200D03*
X103940600Y-68593200D03*
X103940600Y-66053200D03*
X103940600Y-35573200D03*
X101400600Y-71133200D03*
X101400600Y-68593200D03*
X101400600Y-66053200D03*
X101400600Y-35573200D03*
X98860600Y-71133200D03*
X98860600Y-68593200D03*
X98860600Y-35573200D03*
X96320600Y-71133200D03*
X96320600Y-68593200D03*
X96320600Y-66053200D03*
X96320600Y-55893200D03*
X96320600Y-53353200D03*
X96320600Y-35573200D03*
X93780600Y-71133200D03*
X93780600Y-68593200D03*
X93780600Y-66053200D03*
X93780600Y-63513200D03*
X93780600Y-60973200D03*
X93780600Y-55893200D03*
X93780600Y-53353200D03*
X93780600Y-50813200D03*
X93780600Y-48273200D03*
X93780600Y-45733200D03*
X93780600Y-43193200D03*
X93780600Y-40653200D03*
X93780600Y-38113200D03*
X91240600Y-71133200D03*
X91240600Y-68593200D03*
X91240600Y-66053200D03*
X91240600Y-63513200D03*
X91240600Y-60973200D03*
X91240600Y-53353200D03*
X91240600Y-50813200D03*
X91240600Y-48273200D03*
X91240600Y-45733200D03*
X91240600Y-43193200D03*
X91240600Y-40653200D03*
X91240600Y-38113200D03*
X91240600Y-35573200D03*
%TO.N,+BATT*%
X114400000Y-55700000D03*
X112300600Y-47788200D03*
X113400000Y-56700000D03*
X114400000Y-57700000D03*
X113300600Y-48788200D03*
X112300600Y-46788200D03*
X114300600Y-46788200D03*
X113300600Y-46788200D03*
X113300600Y-47788200D03*
X112300600Y-50788200D03*
X98300000Y-59000000D03*
X114300600Y-48788200D03*
X116400000Y-55700000D03*
X114300600Y-47788200D03*
D20*
%TO.N,GND*%
X104013000Y-57404000D03*
D19*
%TO.N,+BATT*%
X114400000Y-56700000D03*
X99300000Y-58000000D03*
X112400000Y-58700000D03*
X111400000Y-57700000D03*
X106172000Y-57531000D03*
X114400000Y-58700000D03*
X114300600Y-49788200D03*
X115400000Y-54700000D03*
X114300600Y-50788200D03*
X113400000Y-55700000D03*
X113400000Y-54700000D03*
X116400000Y-54700000D03*
X116400000Y-57700000D03*
X116400000Y-58700000D03*
X98300000Y-58000000D03*
X112400000Y-54700000D03*
X112300600Y-48788200D03*
%TO.N,+5VBuck*%
X102880057Y-60434652D03*
%TO.N,+5VUSB*%
X125730000Y-41148000D03*
%TO.N,+5VBuck*%
X104863379Y-49937012D03*
%TO.N,+BATT*%
X113300600Y-49788200D03*
%TO.N,Net-(U6-TS)*%
X126310102Y-61995800D03*
%TO.N,+BATT*%
X116400000Y-56700000D03*
D21*
%TO.N,Net-(U6-STAT)*%
X126210374Y-57092500D03*
D19*
%TO.N,Net-(U7-VCC)*%
X106109849Y-54719849D03*
%TO.N,+BATT*%
X111400000Y-55700000D03*
X112300600Y-49788200D03*
D20*
%TO.N,GND*%
X103225600Y-57404000D03*
D19*
%TO.N,+BATT*%
X99300000Y-59000000D03*
X112400000Y-55700000D03*
X112400000Y-56700000D03*
X115400000Y-55700000D03*
%TO.N,GND*%
X110525000Y-47725000D03*
D20*
X104038400Y-58115200D03*
D19*
X118200000Y-56900000D03*
D20*
X102362000Y-56515000D03*
X104733400Y-56540400D03*
D19*
X110300000Y-49675000D03*
%TO.N,+BATT*%
X115400000Y-56700000D03*
D20*
%TO.N,GND*%
X104013000Y-56642000D03*
D19*
X109625000Y-50875000D03*
X109075000Y-45600000D03*
X121400000Y-56388000D03*
D20*
X103225600Y-56591200D03*
D19*
X109200000Y-47950000D03*
%TO.N,/Power/CELL_1*%
X100540000Y-121000000D03*
X108160000Y-128620000D03*
X123400000Y-123540000D03*
X110700000Y-123540000D03*
X110700000Y-126080000D03*
X103080000Y-128620000D03*
X95460000Y-121000000D03*
X115780000Y-121000000D03*
X105620000Y-121000000D03*
X110700000Y-128620000D03*
X108160000Y-126080000D03*
X103080000Y-123540000D03*
X123400000Y-128620000D03*
X105620000Y-126080000D03*
X103080000Y-121000000D03*
X103080000Y-126080000D03*
X108160000Y-123540000D03*
X113240000Y-123540000D03*
X113240000Y-126080000D03*
X98000000Y-121000000D03*
X120860000Y-121000000D03*
X113240000Y-128620000D03*
X123400000Y-126080000D03*
X105620000Y-123540000D03*
X110700000Y-121000000D03*
X105620000Y-128620000D03*
X108160000Y-121000000D03*
X123400000Y-121000000D03*
X113240000Y-121000000D03*
%TO.N,Net-(U7-VCC)*%
X106899739Y-59400261D03*
%TO.N,+BATT*%
X111400000Y-56700000D03*
X100300000Y-58000000D03*
X115400000Y-57700000D03*
X114400000Y-54700000D03*
D21*
%TO.N,Net-(U6-STAT)*%
X126184974Y-58311700D03*
D19*
%TO.N,GND*%
X108400000Y-49575000D03*
%TO.N,+BATT*%
X115400000Y-58700000D03*
X113400000Y-58700000D03*
D21*
%TO.N,/Power/CELL_1*%
X124700600Y-64788200D03*
D19*
%TO.N,+BATT*%
X113400000Y-57700000D03*
X113300600Y-50788200D03*
D20*
%TO.N,GND*%
X103225600Y-58115200D03*
D19*
%TO.N,Net-(U6-TS)*%
X127110102Y-66995800D03*
%TO.N,+BATT*%
X112400000Y-57700000D03*
%TO.N,GND*%
X119200000Y-56900000D03*
D21*
%TO.N,Net-(U6-BTST)*%
X121875000Y-62075000D03*
D19*
%TO.N,+BATT*%
X111400000Y-54700000D03*
D21*
%TO.N,Net-(U6-BTST)*%
X117625174Y-55339900D03*
%TD*%
D22*
%TO.N,+5VUSB*%
X120947000Y-40131999D02*
X120947000Y-38661150D01*
D23*
%TO.N,+5VBuck*%
X101274368Y-56900000D02*
X101274368Y-52988832D01*
X101274368Y-58828964D02*
X101274368Y-56900000D01*
X102172702Y-59727298D02*
X101274368Y-58828964D01*
X102172702Y-59727298D02*
X102880057Y-60434652D01*
D24*
%TO.N,+5VUSB*%
X120947000Y-38661150D02*
X120920425Y-38634575D01*
D22*
X125730000Y-41148000D02*
X125730000Y-38608000D01*
X121963001Y-41148000D02*
X120947000Y-40131999D01*
D23*
%TO.N,Net-(P2-D+)*%
X123098000Y-38541000D02*
X123598000Y-38541000D01*
%TO.N,+5VBuck*%
X104900600Y-49988200D02*
X104275000Y-49988200D01*
%TO.N,Net-(U6-BTST)*%
X121875000Y-62075000D02*
X118590000Y-62075000D01*
X117348000Y-60833000D02*
X117348000Y-55617074D01*
X118590000Y-62075000D02*
X117348000Y-60833000D01*
D22*
%TO.N,+5VUSB*%
X125730000Y-41148000D02*
X121963001Y-41148000D01*
D23*
%TO.N,Net-(U6-TS)*%
X126310102Y-66395800D02*
X127110102Y-66995800D01*
%TO.N,Net-(U6-STAT)*%
X126210374Y-57092500D02*
X126210374Y-58235500D01*
%TO.N,Net-(U6-TS)*%
X126310102Y-61995800D02*
X126310102Y-66395800D01*
%TO.N,Net-(U6-BTST)*%
X117348000Y-55617074D02*
X117625174Y-55339900D01*
%TO.N,Net-(U6-TS)*%
X127110102Y-66995800D02*
X126910102Y-66995800D01*
%TO.N,+5VBuck*%
X101274368Y-52988832D02*
X104275000Y-49988200D01*
%TO.N,Net-(U7-VCC)*%
X106899739Y-59400261D02*
X106595666Y-59400261D01*
X106595666Y-59400261D02*
X105308400Y-58112995D01*
%TO.N,/Power/CELL_1*%
X124700600Y-65588200D02*
X124700600Y-64788200D01*
X118925000Y-125286200D02*
X118925000Y-71363800D01*
%TO.N,Net-(U6-STAT)*%
X126210374Y-58235500D02*
X126184974Y-58260900D01*
%TO.N,/Power/CELL_1*%
X118925000Y-71363800D02*
X124700600Y-65588200D01*
%TO.N,Net-(U7-VCC)*%
X105308400Y-55521298D02*
X106109849Y-54719849D01*
X105308400Y-58112995D02*
X105308400Y-55521298D01*
%TD*%
%TA.AperFunction,Conductor*%
%TO.N,GND*%
G36*
X132722256Y-32519685D02*
G01*
X132768011Y-32572489D01*
X132779213Y-32623160D01*
X132793768Y-34775889D01*
X132799997Y-35697233D01*
X132800000Y-35698071D01*
X132800000Y-72639410D01*
X132780315Y-72706449D01*
X132727511Y-72752204D01*
X132676070Y-72763410D01*
X119624570Y-72770767D01*
X119557519Y-72751120D01*
X119511735Y-72698342D01*
X119500500Y-72646767D01*
X119500500Y-71653542D01*
X119520185Y-71586503D01*
X119536819Y-71565861D01*
X120199395Y-70903285D01*
X125161115Y-65941565D01*
X125236881Y-65810335D01*
X125276100Y-65663966D01*
X125276100Y-65512433D01*
X125276100Y-65226218D01*
X125295785Y-65159179D01*
X125298051Y-65155777D01*
X125325417Y-65116131D01*
X125325416Y-65116131D01*
X125325418Y-65116130D01*
X125385740Y-64957072D01*
X125406245Y-64788200D01*
X125385740Y-64619328D01*
X125325418Y-64460270D01*
X125228783Y-64320271D01*
X125101452Y-64207466D01*
X125101449Y-64207463D01*
X124950826Y-64128410D01*
X124785656Y-64087700D01*
X124615544Y-64087700D01*
X124450373Y-64128410D01*
X124299750Y-64207463D01*
X124172416Y-64320272D01*
X124075782Y-64460268D01*
X124015460Y-64619325D01*
X124015459Y-64619330D01*
X123994955Y-64788200D01*
X124015459Y-64957069D01*
X124015460Y-64957074D01*
X124075782Y-65116131D01*
X124103149Y-65155777D01*
X124125033Y-65222131D01*
X124125100Y-65226218D01*
X124125100Y-65298458D01*
X124105415Y-65365497D01*
X124088781Y-65386139D01*
X118464487Y-71010432D01*
X118464485Y-71010435D01*
X118388719Y-71141663D01*
X118349500Y-71288034D01*
X118349500Y-72647555D01*
X118329815Y-72714594D01*
X118277011Y-72760349D01*
X118225570Y-72771555D01*
X88924070Y-72788073D01*
X88857019Y-72768426D01*
X88811235Y-72715648D01*
X88800000Y-72664073D01*
X88800000Y-58236556D01*
X90039500Y-58236556D01*
X90039500Y-58475843D01*
X90039501Y-58475859D01*
X90070734Y-58713100D01*
X90132669Y-58944245D01*
X90224243Y-59165323D01*
X90224251Y-59165340D01*
X90343891Y-59372565D01*
X90343892Y-59372567D01*
X90489569Y-59562416D01*
X90489575Y-59562423D01*
X90658776Y-59731624D01*
X90658783Y-59731630D01*
X90848632Y-59877307D01*
X90848634Y-59877308D01*
X91055859Y-59996948D01*
X91055862Y-59996949D01*
X91055870Y-59996954D01*
X91276953Y-60088530D01*
X91508098Y-60150465D01*
X91745350Y-60181700D01*
X91745357Y-60181700D01*
X91984643Y-60181700D01*
X91984650Y-60181700D01*
X92221902Y-60150465D01*
X92453047Y-60088530D01*
X92674130Y-59996954D01*
X92881370Y-59877305D01*
X93071218Y-59731629D01*
X93240429Y-59562418D01*
X93386105Y-59372570D01*
X93505754Y-59165330D01*
X93597330Y-58944247D01*
X93659265Y-58713102D01*
X93690500Y-58475850D01*
X93690500Y-58236550D01*
X93659265Y-57999298D01*
X93597330Y-57768153D01*
X93505754Y-57547070D01*
X93496198Y-57530518D01*
X93386108Y-57339834D01*
X93386107Y-57339832D01*
X93240430Y-57149983D01*
X93240424Y-57149976D01*
X93071223Y-56980775D01*
X93071216Y-56980769D01*
X92881367Y-56835092D01*
X92881365Y-56835091D01*
X92674140Y-56715451D01*
X92674132Y-56715447D01*
X92674130Y-56715446D01*
X92454742Y-56624572D01*
X92453045Y-56623869D01*
X92221900Y-56561934D01*
X91984659Y-56530701D01*
X91984656Y-56530700D01*
X91984650Y-56530700D01*
X91745350Y-56530700D01*
X91745344Y-56530700D01*
X91745340Y-56530701D01*
X91508099Y-56561934D01*
X91276954Y-56623869D01*
X91055876Y-56715443D01*
X91055859Y-56715451D01*
X90848634Y-56835091D01*
X90848632Y-56835092D01*
X90658783Y-56980769D01*
X90658776Y-56980775D01*
X90489575Y-57149976D01*
X90489569Y-57149983D01*
X90343892Y-57339832D01*
X90343891Y-57339834D01*
X90224251Y-57547059D01*
X90224243Y-57547076D01*
X90132669Y-57768154D01*
X90070734Y-57999299D01*
X90039501Y-58236540D01*
X90039500Y-58236556D01*
X88800000Y-58236556D01*
X88800000Y-54912202D01*
X96845100Y-54912202D01*
X96845100Y-60864216D01*
X96855509Y-60961022D01*
X96855511Y-60961033D01*
X96866714Y-61012533D01*
X96866715Y-61012535D01*
X96866716Y-61012538D01*
X96894934Y-61099281D01*
X96967562Y-61214000D01*
X96967563Y-61214001D01*
X96967562Y-61214001D01*
X97013317Y-61266804D01*
X97013320Y-61266807D01*
X97059712Y-61307562D01*
X97106108Y-61348320D01*
X97229228Y-61405563D01*
X97229236Y-61405565D01*
X97229238Y-61405566D01*
X97296259Y-61425246D01*
X97296261Y-61425246D01*
X97296267Y-61425248D01*
X97424600Y-61443700D01*
X99590461Y-61443700D01*
X99657500Y-61463385D01*
X99693635Y-61498917D01*
X100284787Y-62385645D01*
X100284790Y-62385649D01*
X100344420Y-62457766D01*
X100344432Y-62457779D01*
X100380547Y-62493291D01*
X100380558Y-62493301D01*
X100448471Y-62548320D01*
X100571591Y-62605563D01*
X100571599Y-62605565D01*
X100571601Y-62605566D01*
X100638622Y-62625246D01*
X100638624Y-62625246D01*
X100638630Y-62625248D01*
X100766963Y-62643700D01*
X100766965Y-62643700D01*
X111776600Y-62643700D01*
X111776616Y-62643699D01*
X111832047Y-62637738D01*
X111873427Y-62633290D01*
X111924938Y-62622084D01*
X112011681Y-62593866D01*
X112126400Y-62521238D01*
X112179204Y-62475483D01*
X112260720Y-62382692D01*
X112317963Y-62259572D01*
X112337648Y-62192533D01*
X112353935Y-62079252D01*
X112382959Y-62015700D01*
X112441737Y-61977926D01*
X112473252Y-61972950D01*
X113110684Y-61955378D01*
X113117531Y-61955138D01*
X113121261Y-61954979D01*
X113128116Y-61954635D01*
X116700830Y-61748366D01*
X117061689Y-61727532D01*
X117061693Y-61727531D01*
X117061706Y-61727531D01*
X117064881Y-61727336D01*
X117066580Y-61727226D01*
X117152880Y-61708757D01*
X117196325Y-61699460D01*
X117196327Y-61699459D01*
X117196333Y-61699458D01*
X117261797Y-61675041D01*
X117261807Y-61675035D01*
X117262363Y-61674785D01*
X117262557Y-61674757D01*
X117265750Y-61673567D01*
X117266013Y-61674272D01*
X117331554Y-61665068D01*
X117395014Y-61694300D01*
X117401186Y-61700066D01*
X118125144Y-62424023D01*
X118125154Y-62424034D01*
X118129484Y-62428364D01*
X118129485Y-62428365D01*
X118236635Y-62535515D01*
X118347522Y-62599536D01*
X118367865Y-62611281D01*
X118514233Y-62650500D01*
X118514234Y-62650500D01*
X121433612Y-62650500D01*
X121491238Y-62664704D01*
X121511414Y-62675293D01*
X121624775Y-62734790D01*
X121789944Y-62775500D01*
X121960056Y-62775500D01*
X122125225Y-62734790D01*
X122238586Y-62675293D01*
X122275849Y-62655736D01*
X122275850Y-62655734D01*
X122275852Y-62655734D01*
X122403183Y-62542929D01*
X122499818Y-62402930D01*
X122560140Y-62243872D01*
X122580645Y-62075000D01*
X122571028Y-61995800D01*
X125454917Y-61995800D01*
X125473605Y-62173605D01*
X125473606Y-62173607D01*
X125528849Y-62343629D01*
X125528852Y-62343635D01*
X125618240Y-62498461D01*
X125618241Y-62498463D01*
X125618243Y-62498465D01*
X125702753Y-62592322D01*
X125732982Y-62655312D01*
X125734602Y-62675293D01*
X125734602Y-66353808D01*
X125733712Y-66368639D01*
X125729671Y-66402181D01*
X125733356Y-66427977D01*
X125734602Y-66445513D01*
X125734602Y-66471570D01*
X125743344Y-66504195D01*
X125746322Y-66518746D01*
X125751101Y-66552193D01*
X125761337Y-66576158D01*
X125767077Y-66592770D01*
X125773818Y-66617930D01*
X125773821Y-66617935D01*
X125790709Y-66647186D01*
X125797354Y-66660476D01*
X125810624Y-66691543D01*
X125826715Y-66712042D01*
X125836561Y-66726604D01*
X125849587Y-66749165D01*
X125849589Y-66749167D01*
X125873469Y-66773047D01*
X125883326Y-66784162D01*
X125904189Y-66810740D01*
X125925032Y-66826372D01*
X125938314Y-66837892D01*
X125956737Y-66856315D01*
X125985994Y-66873206D01*
X125998395Y-66881394D01*
X126220547Y-67048008D01*
X126262368Y-67103979D01*
X126269467Y-67134243D01*
X126273604Y-67173597D01*
X126273606Y-67173607D01*
X126328849Y-67343629D01*
X126328852Y-67343635D01*
X126418243Y-67498465D01*
X126459914Y-67544746D01*
X126537866Y-67631321D01*
X126537869Y-67631323D01*
X126537872Y-67631326D01*
X126682509Y-67736412D01*
X126845835Y-67809129D01*
X127020711Y-67846300D01*
X127020712Y-67846300D01*
X127199491Y-67846300D01*
X127199493Y-67846300D01*
X127374369Y-67809129D01*
X127537695Y-67736412D01*
X127682332Y-67631326D01*
X127801961Y-67498465D01*
X127891352Y-67343635D01*
X127946599Y-67173603D01*
X127965287Y-66995800D01*
X127946599Y-66817997D01*
X127918975Y-66732981D01*
X127891354Y-66647970D01*
X127891351Y-66647964D01*
X127859485Y-66592770D01*
X127801961Y-66493135D01*
X127743292Y-66427977D01*
X127682337Y-66360278D01*
X127682334Y-66360276D01*
X127682333Y-66360275D01*
X127682332Y-66360274D01*
X127537695Y-66255188D01*
X127374369Y-66182471D01*
X127374367Y-66182470D01*
X127246696Y-66155333D01*
X127199493Y-66145300D01*
X127020711Y-66145300D01*
X127014213Y-66145300D01*
X127014213Y-66143580D01*
X126953819Y-66132528D01*
X126902801Y-66084789D01*
X126885602Y-66021784D01*
X126885602Y-62675293D01*
X126905287Y-62608254D01*
X126917445Y-62592327D01*
X127001961Y-62498465D01*
X127091352Y-62343635D01*
X127146599Y-62173603D01*
X127165287Y-61995800D01*
X127146599Y-61817997D01*
X127100150Y-61675041D01*
X127091354Y-61647970D01*
X127091351Y-61647964D01*
X127083908Y-61635072D01*
X127001961Y-61493135D01*
X126940835Y-61425248D01*
X126882337Y-61360278D01*
X126882334Y-61360276D01*
X126882333Y-61360275D01*
X126882332Y-61360274D01*
X126737695Y-61255188D01*
X126574369Y-61182471D01*
X126574367Y-61182470D01*
X126446696Y-61155333D01*
X126399493Y-61145300D01*
X126220711Y-61145300D01*
X126190056Y-61151815D01*
X126045835Y-61182470D01*
X126045830Y-61182472D01*
X125882510Y-61255187D01*
X125737870Y-61360275D01*
X125618242Y-61493136D01*
X125528852Y-61647964D01*
X125528849Y-61647970D01*
X125473606Y-61817992D01*
X125473605Y-61817994D01*
X125454917Y-61995800D01*
X122571028Y-61995800D01*
X122560140Y-61906128D01*
X122499818Y-61747070D01*
X122403183Y-61607071D01*
X122403181Y-61607069D01*
X122297572Y-61513507D01*
X122260445Y-61454318D01*
X122261213Y-61384452D01*
X122267358Y-61368414D01*
X122271143Y-61360274D01*
X122317963Y-61259572D01*
X122337648Y-61192533D01*
X122356100Y-61064200D01*
X122356100Y-59861098D01*
X129273706Y-59861098D01*
X129273706Y-59861101D01*
X129293538Y-60087786D01*
X129293540Y-60087797D01*
X129352432Y-60307588D01*
X129352435Y-60307597D01*
X129448605Y-60513832D01*
X129448606Y-60513834D01*
X129579128Y-60700241D01*
X129740032Y-60861145D01*
X129740035Y-60861147D01*
X129926440Y-60991668D01*
X129971196Y-61012538D01*
X129984449Y-61018718D01*
X130036888Y-61064891D01*
X130056040Y-61132084D01*
X130035824Y-61198965D01*
X129984449Y-61243482D01*
X129926441Y-61270531D01*
X129926439Y-61270532D01*
X129740032Y-61401054D01*
X129579128Y-61561958D01*
X129448606Y-61748365D01*
X129448605Y-61748367D01*
X129352435Y-61954602D01*
X129352432Y-61954611D01*
X129293540Y-62174402D01*
X129293538Y-62174413D01*
X129273706Y-62401098D01*
X129273706Y-62401101D01*
X129293538Y-62627786D01*
X129293540Y-62627797D01*
X129352432Y-62847588D01*
X129352435Y-62847597D01*
X129448605Y-63053832D01*
X129448606Y-63053834D01*
X129579128Y-63240241D01*
X129740032Y-63401145D01*
X129740035Y-63401147D01*
X129926440Y-63531668D01*
X129984449Y-63558718D01*
X130036888Y-63604891D01*
X130056040Y-63672084D01*
X130035824Y-63738965D01*
X129984449Y-63783482D01*
X129926441Y-63810531D01*
X129926439Y-63810532D01*
X129740032Y-63941054D01*
X129579128Y-64101958D01*
X129448606Y-64288365D01*
X129448605Y-64288367D01*
X129352435Y-64494602D01*
X129352432Y-64494611D01*
X129293540Y-64714402D01*
X129293538Y-64714413D01*
X129273706Y-64941098D01*
X129273706Y-64941101D01*
X129293538Y-65167786D01*
X129293540Y-65167797D01*
X129352432Y-65387588D01*
X129352435Y-65387597D01*
X129448605Y-65593832D01*
X129448606Y-65593834D01*
X129579128Y-65780241D01*
X129740032Y-65941145D01*
X129740632Y-65941565D01*
X129926440Y-66071668D01*
X130132678Y-66167839D01*
X130352482Y-66226735D01*
X130514404Y-66240901D01*
X130579172Y-66246568D01*
X130579174Y-66246568D01*
X130579176Y-66246568D01*
X130635847Y-66241609D01*
X130805866Y-66226735D01*
X131025670Y-66167839D01*
X131231908Y-66071668D01*
X131418313Y-65941147D01*
X131579221Y-65780239D01*
X131709742Y-65593834D01*
X131805913Y-65387596D01*
X131864809Y-65167792D01*
X131884642Y-64941100D01*
X131864809Y-64714408D01*
X131805913Y-64494604D01*
X131709742Y-64288366D01*
X131579221Y-64101961D01*
X131579219Y-64101958D01*
X131418315Y-63941054D01*
X131231908Y-63810532D01*
X131231902Y-63810529D01*
X131173899Y-63783482D01*
X131121459Y-63737310D01*
X131102307Y-63670117D01*
X131122522Y-63603235D01*
X131173899Y-63558718D01*
X131231908Y-63531668D01*
X131418313Y-63401147D01*
X131579221Y-63240239D01*
X131709742Y-63053834D01*
X131805913Y-62847596D01*
X131864809Y-62627792D01*
X131882636Y-62424034D01*
X131884642Y-62401101D01*
X131884642Y-62401098D01*
X131866395Y-62192539D01*
X131864809Y-62174408D01*
X131810829Y-61972950D01*
X131805915Y-61954611D01*
X131805912Y-61954602D01*
X131783307Y-61906125D01*
X131709742Y-61748366D01*
X131579221Y-61561961D01*
X131579219Y-61561958D01*
X131418315Y-61401054D01*
X131231908Y-61270532D01*
X131231902Y-61270529D01*
X131173899Y-61243482D01*
X131121459Y-61197310D01*
X131102307Y-61130117D01*
X131122522Y-61063235D01*
X131173899Y-61018718D01*
X131187152Y-61012538D01*
X131231908Y-60991668D01*
X131418313Y-60861147D01*
X131579221Y-60700239D01*
X131709742Y-60513834D01*
X131805913Y-60307596D01*
X131864809Y-60087792D01*
X131884642Y-59861100D01*
X131864809Y-59634408D01*
X131805913Y-59414604D01*
X131709742Y-59208366D01*
X131579221Y-59021961D01*
X131579219Y-59021958D01*
X131418316Y-58861055D01*
X131398494Y-58847176D01*
X131354868Y-58792600D01*
X131347674Y-58723101D01*
X131379196Y-58660746D01*
X131439425Y-58625332D01*
X131469616Y-58621600D01*
X131483444Y-58621600D01*
X131513873Y-58618746D01*
X131513875Y-58618746D01*
X131577964Y-58596319D01*
X131642056Y-58573893D01*
X131751324Y-58493250D01*
X131831967Y-58383982D01*
X131854393Y-58319890D01*
X131876820Y-58255801D01*
X131876820Y-58255799D01*
X131879674Y-58225369D01*
X131879674Y-56416830D01*
X131876820Y-56386400D01*
X131876820Y-56386398D01*
X131831967Y-56258219D01*
X131831966Y-56258217D01*
X131751324Y-56148950D01*
X131642056Y-56068307D01*
X131642054Y-56068306D01*
X131513874Y-56023453D01*
X131483444Y-56020600D01*
X131483440Y-56020600D01*
X129674908Y-56020600D01*
X129674904Y-56020600D01*
X129644474Y-56023453D01*
X129644472Y-56023453D01*
X129516293Y-56068306D01*
X129516291Y-56068307D01*
X129407024Y-56148950D01*
X129326381Y-56258217D01*
X129326380Y-56258219D01*
X129281527Y-56386398D01*
X129281527Y-56386400D01*
X129278674Y-56416830D01*
X129278674Y-58225369D01*
X129281527Y-58255799D01*
X129281527Y-58255801D01*
X129309287Y-58335131D01*
X129326381Y-58383982D01*
X129407024Y-58493250D01*
X129516292Y-58573893D01*
X129559019Y-58588844D01*
X129644473Y-58618746D01*
X129674904Y-58621600D01*
X129674908Y-58621600D01*
X129688732Y-58621600D01*
X129755771Y-58641285D01*
X129801526Y-58694089D01*
X129811470Y-58763247D01*
X129782445Y-58826803D01*
X129759854Y-58847176D01*
X129740031Y-58861055D01*
X129579128Y-59021958D01*
X129448606Y-59208365D01*
X129448605Y-59208367D01*
X129352435Y-59414602D01*
X129352432Y-59414611D01*
X129293540Y-59634402D01*
X129293538Y-59634413D01*
X129273706Y-59861098D01*
X122356100Y-59861098D01*
X122356100Y-59712200D01*
X122356099Y-59712183D01*
X122346848Y-59626145D01*
X122345690Y-59615373D01*
X122334484Y-59563862D01*
X122306266Y-59477119D01*
X122233638Y-59362400D01*
X122233636Y-59362398D01*
X122233637Y-59362398D01*
X122187882Y-59309595D01*
X122187879Y-59309592D01*
X122095094Y-59228082D01*
X122095091Y-59228079D01*
X121971975Y-59170838D01*
X121971961Y-59170833D01*
X121904940Y-59151153D01*
X121902113Y-59150746D01*
X121776600Y-59132700D01*
X121776598Y-59132700D01*
X118047500Y-59132700D01*
X117980461Y-59113015D01*
X117934706Y-59060211D01*
X117923500Y-59008700D01*
X117923500Y-58311700D01*
X125479329Y-58311700D01*
X125499833Y-58480569D01*
X125499834Y-58480574D01*
X125560156Y-58639631D01*
X125610869Y-58713100D01*
X125656791Y-58779629D01*
X125710040Y-58826803D01*
X125784124Y-58892436D01*
X125882842Y-58944247D01*
X125934749Y-58971490D01*
X126099918Y-59012200D01*
X126270030Y-59012200D01*
X126435199Y-58971490D01*
X126575991Y-58897596D01*
X126585823Y-58892436D01*
X126585824Y-58892434D01*
X126585826Y-58892434D01*
X126713157Y-58779629D01*
X126809792Y-58639630D01*
X126870114Y-58480572D01*
X126890619Y-58311700D01*
X126870114Y-58142828D01*
X126809792Y-57983770D01*
X126807821Y-57980914D01*
X126807023Y-57978494D01*
X126806305Y-57977126D01*
X126806532Y-57977006D01*
X126785941Y-57914559D01*
X126785874Y-57910478D01*
X126785874Y-57530518D01*
X126805559Y-57463479D01*
X126807825Y-57460077D01*
X126835191Y-57420431D01*
X126835190Y-57420431D01*
X126835192Y-57420430D01*
X126895514Y-57261372D01*
X126916019Y-57092500D01*
X126895514Y-56923628D01*
X126835192Y-56764570D01*
X126738557Y-56624571D01*
X126611226Y-56511766D01*
X126611223Y-56511763D01*
X126460600Y-56432710D01*
X126295430Y-56392000D01*
X126125318Y-56392000D01*
X125960147Y-56432710D01*
X125809524Y-56511763D01*
X125693012Y-56614984D01*
X125682984Y-56623869D01*
X125682190Y-56624572D01*
X125585556Y-56764568D01*
X125525234Y-56923625D01*
X125525233Y-56923630D01*
X125504729Y-57092500D01*
X125525233Y-57261369D01*
X125525234Y-57261374D01*
X125585556Y-57420431D01*
X125612923Y-57460077D01*
X125634807Y-57526431D01*
X125634874Y-57530518D01*
X125634874Y-57836882D01*
X125615189Y-57903921D01*
X125612924Y-57907322D01*
X125560157Y-57983768D01*
X125560156Y-57983768D01*
X125499834Y-58142825D01*
X125499833Y-58142830D01*
X125479329Y-58311700D01*
X117923500Y-58311700D01*
X117923500Y-56049404D01*
X117943185Y-55982365D01*
X117989873Y-55939608D01*
X118026026Y-55920634D01*
X118153357Y-55807829D01*
X118249992Y-55667830D01*
X118310314Y-55508772D01*
X118330819Y-55339900D01*
X118310314Y-55171028D01*
X118303282Y-55152487D01*
X118249991Y-55011968D01*
X118215650Y-54962218D01*
X118153357Y-54871971D01*
X118053899Y-54783859D01*
X118026023Y-54759163D01*
X117875400Y-54680110D01*
X117710230Y-54639400D01*
X117540118Y-54639400D01*
X117540116Y-54639400D01*
X117394295Y-54675341D01*
X117324493Y-54672272D01*
X117267431Y-54631951D01*
X117241301Y-54567907D01*
X117236497Y-54522197D01*
X117187701Y-54372019D01*
X117181252Y-54352170D01*
X117181249Y-54352164D01*
X117180665Y-54351153D01*
X117126543Y-54257410D01*
X117091861Y-54197338D01*
X117091860Y-54197337D01*
X117091859Y-54197335D01*
X117016361Y-54113486D01*
X116988217Y-54060594D01*
X116359802Y-51546933D01*
X116356100Y-51516859D01*
X116356100Y-50967700D01*
X116375785Y-50900661D01*
X116428589Y-50854906D01*
X116480100Y-50843700D01*
X122176600Y-50843700D01*
X122176616Y-50843699D01*
X122232047Y-50837738D01*
X122273427Y-50833290D01*
X122324938Y-50822084D01*
X122411681Y-50793866D01*
X122526400Y-50721238D01*
X122579204Y-50675483D01*
X122660720Y-50582692D01*
X122717963Y-50459572D01*
X122737648Y-50392533D01*
X122756100Y-50264200D01*
X122756100Y-42712200D01*
X122756099Y-42712183D01*
X122745690Y-42615377D01*
X122745690Y-42615373D01*
X122734484Y-42563862D01*
X122706266Y-42477119D01*
X122633638Y-42362400D01*
X122633636Y-42362398D01*
X122633637Y-42362398D01*
X122587882Y-42309595D01*
X122587879Y-42309592D01*
X122495094Y-42228082D01*
X122495091Y-42228079D01*
X122371975Y-42170838D01*
X122371961Y-42170833D01*
X122304940Y-42151153D01*
X122302113Y-42150746D01*
X122176600Y-42132700D01*
X111699600Y-42132700D01*
X111699583Y-42132700D01*
X111602777Y-42143109D01*
X111602766Y-42143111D01*
X111551266Y-42154314D01*
X111551264Y-42154315D01*
X111464518Y-42182534D01*
X111349798Y-42255163D01*
X111296995Y-42300917D01*
X111296992Y-42300920D01*
X111215482Y-42393705D01*
X111215479Y-42393708D01*
X111158238Y-42516824D01*
X111158233Y-42516838D01*
X111138553Y-42583859D01*
X111138552Y-42583867D01*
X111120103Y-42712183D01*
X111120100Y-42712202D01*
X111120100Y-51464216D01*
X111130509Y-51561022D01*
X111130511Y-51561033D01*
X111141714Y-51612533D01*
X111141715Y-51612535D01*
X111141716Y-51612538D01*
X111169934Y-51699281D01*
X111242562Y-51814000D01*
X111242563Y-51814001D01*
X111242562Y-51814001D01*
X111288317Y-51866804D01*
X111381108Y-51948320D01*
X111504228Y-52005563D01*
X111504236Y-52005565D01*
X111504238Y-52005566D01*
X111571259Y-52025246D01*
X111571261Y-52025246D01*
X111571267Y-52025248D01*
X111699600Y-52043700D01*
X111721100Y-52043700D01*
X111788139Y-52063385D01*
X111833894Y-52116189D01*
X111845100Y-52167700D01*
X111845100Y-53295129D01*
X111825415Y-53362168D01*
X111772611Y-53407923D01*
X111740955Y-53417529D01*
X108335413Y-53969966D01*
X108335411Y-53969967D01*
X108270060Y-53989742D01*
X108219768Y-54004961D01*
X108219766Y-54004962D01*
X108160422Y-54031952D01*
X108160411Y-54031958D01*
X108058047Y-54096118D01*
X107166733Y-54836094D01*
X107102579Y-54863771D01*
X107033645Y-54852370D01*
X106981819Y-54805511D01*
X106963554Y-54738071D01*
X106964204Y-54727737D01*
X106965034Y-54719849D01*
X106946346Y-54542046D01*
X106891099Y-54372014D01*
X106801708Y-54217184D01*
X106754852Y-54165145D01*
X106682084Y-54084327D01*
X106682081Y-54084325D01*
X106682080Y-54084324D01*
X106682079Y-54084323D01*
X106537442Y-53979237D01*
X106374116Y-53906520D01*
X106374114Y-53906519D01*
X106246443Y-53879382D01*
X106199240Y-53869349D01*
X106020458Y-53869349D01*
X105989803Y-53875864D01*
X105845582Y-53906519D01*
X105845577Y-53906521D01*
X105682257Y-53979236D01*
X105537617Y-54084324D01*
X105417989Y-54217185D01*
X105328599Y-54372013D01*
X105328596Y-54372019D01*
X105273353Y-54542041D01*
X105273353Y-54542042D01*
X105273352Y-54542046D01*
X105267922Y-54593708D01*
X105254402Y-54722336D01*
X105227817Y-54786950D01*
X105218763Y-54797054D01*
X104955035Y-55060783D01*
X104847887Y-55167930D01*
X104847885Y-55167933D01*
X104772119Y-55299161D01*
X104732900Y-55445532D01*
X104732900Y-58037229D01*
X104732900Y-58188761D01*
X104750863Y-58255799D01*
X104772119Y-58335131D01*
X104800323Y-58383980D01*
X104847885Y-58466360D01*
X104847887Y-58466362D01*
X106093303Y-59711778D01*
X106114637Y-59742815D01*
X106115240Y-59742468D01*
X106118488Y-59748094D01*
X106118489Y-59748096D01*
X106207880Y-59902926D01*
X106234047Y-59931987D01*
X106327503Y-60035782D01*
X106327506Y-60035784D01*
X106327509Y-60035787D01*
X106427427Y-60108382D01*
X106470092Y-60163712D01*
X106476071Y-60233326D01*
X106443465Y-60295121D01*
X106382626Y-60329478D01*
X106354541Y-60332700D01*
X103831291Y-60332700D01*
X103764252Y-60313015D01*
X103718497Y-60260211D01*
X103713360Y-60247018D01*
X103661309Y-60086823D01*
X103661308Y-60086822D01*
X103661307Y-60086817D01*
X103571916Y-59931987D01*
X103502087Y-59854434D01*
X103452292Y-59799130D01*
X103452289Y-59799128D01*
X103452288Y-59799127D01*
X103452287Y-59799126D01*
X103307650Y-59694040D01*
X103144324Y-59621323D01*
X103144322Y-59621322D01*
X103016651Y-59594185D01*
X102969448Y-59584152D01*
X102969447Y-59584152D01*
X102894798Y-59584152D01*
X102827759Y-59564467D01*
X102807117Y-59547833D01*
X101886187Y-58626903D01*
X101852702Y-58565580D01*
X101849868Y-58539222D01*
X101849868Y-53278573D01*
X101869553Y-53211534D01*
X101886182Y-53190897D01*
X104350387Y-50726691D01*
X104411708Y-50693208D01*
X104481400Y-50698192D01*
X104488498Y-50701092D01*
X104599112Y-50750341D01*
X104773988Y-50787512D01*
X104773989Y-50787512D01*
X104952768Y-50787512D01*
X104952770Y-50787512D01*
X105127646Y-50750341D01*
X105290972Y-50677624D01*
X105435609Y-50572538D01*
X105555238Y-50439677D01*
X105644629Y-50284847D01*
X105699876Y-50114815D01*
X105718564Y-49937012D01*
X105699876Y-49759209D01*
X105644629Y-49589177D01*
X105555238Y-49434347D01*
X105508382Y-49382308D01*
X105435614Y-49301490D01*
X105435611Y-49301488D01*
X105435610Y-49301487D01*
X105435609Y-49301486D01*
X105290972Y-49196400D01*
X105127646Y-49123683D01*
X105127644Y-49123682D01*
X104999973Y-49096545D01*
X104952770Y-49086512D01*
X104773988Y-49086512D01*
X104743333Y-49093027D01*
X104599112Y-49123682D01*
X104599107Y-49123684D01*
X104435787Y-49196399D01*
X104291147Y-49301487D01*
X104212973Y-49388307D01*
X104153486Y-49424955D01*
X104152919Y-49425108D01*
X104052866Y-49451918D01*
X104052865Y-49451918D01*
X103921635Y-49527685D01*
X103921632Y-49527687D01*
X100813855Y-52635464D01*
X100813853Y-52635467D01*
X100738087Y-52766695D01*
X100698868Y-52913066D01*
X100698868Y-56008700D01*
X100679183Y-56075739D01*
X100626379Y-56121494D01*
X100574868Y-56132700D01*
X99080100Y-56132700D01*
X99013061Y-56113015D01*
X98967306Y-56060211D01*
X98956100Y-56008700D01*
X98956100Y-54912200D01*
X98956099Y-54912183D01*
X98945690Y-54815377D01*
X98945690Y-54815373D01*
X98934484Y-54763862D01*
X98906266Y-54677119D01*
X98833638Y-54562400D01*
X98833636Y-54562398D01*
X98833637Y-54562398D01*
X98787882Y-54509595D01*
X98787879Y-54509592D01*
X98695094Y-54428082D01*
X98695091Y-54428079D01*
X98571975Y-54370838D01*
X98571961Y-54370833D01*
X98504940Y-54351153D01*
X98502113Y-54350746D01*
X98376600Y-54332700D01*
X97424600Y-54332700D01*
X97424583Y-54332700D01*
X97327777Y-54343109D01*
X97327766Y-54343111D01*
X97276266Y-54354314D01*
X97276264Y-54354315D01*
X97189518Y-54382534D01*
X97074798Y-54455163D01*
X97021995Y-54500917D01*
X97021992Y-54500920D01*
X96940482Y-54593705D01*
X96940479Y-54593708D01*
X96883238Y-54716824D01*
X96883233Y-54716838D01*
X96863553Y-54783859D01*
X96863552Y-54783867D01*
X96845103Y-54912183D01*
X96845100Y-54912202D01*
X88800000Y-54912202D01*
X88800000Y-39988200D01*
X100495378Y-39988200D01*
X100514244Y-40276037D01*
X100514246Y-40276049D01*
X100570517Y-40558945D01*
X100570521Y-40558960D01*
X100663242Y-40832105D01*
X100790819Y-41090806D01*
X100790823Y-41090813D01*
X100951078Y-41330652D01*
X101141272Y-41547527D01*
X101358147Y-41737721D01*
X101583967Y-41888609D01*
X101597989Y-41897978D01*
X101856698Y-42025559D01*
X102129847Y-42118281D01*
X102412761Y-42174556D01*
X102700600Y-42193422D01*
X102988439Y-42174556D01*
X103271353Y-42118281D01*
X103544502Y-42025559D01*
X103803211Y-41897978D01*
X104043054Y-41737720D01*
X104259927Y-41547527D01*
X104450120Y-41330654D01*
X104610378Y-41090811D01*
X104737959Y-40832102D01*
X104830681Y-40558953D01*
X104886956Y-40276039D01*
X104905822Y-39988200D01*
X104886956Y-39700361D01*
X104830681Y-39417447D01*
X104737959Y-39144298D01*
X104610378Y-38885589D01*
X104450120Y-38645746D01*
X104259927Y-38428872D01*
X104043052Y-38238678D01*
X103803213Y-38078423D01*
X103803206Y-38078419D01*
X103544505Y-37950842D01*
X103271360Y-37858121D01*
X103271354Y-37858119D01*
X103271353Y-37858119D01*
X103271351Y-37858118D01*
X103271345Y-37858117D01*
X102988449Y-37801846D01*
X102988439Y-37801844D01*
X102700600Y-37782978D01*
X102412761Y-37801844D01*
X102412755Y-37801845D01*
X102412750Y-37801846D01*
X102129854Y-37858117D01*
X102129839Y-37858121D01*
X101856694Y-37950842D01*
X101597993Y-38078419D01*
X101597986Y-38078423D01*
X101358147Y-38238678D01*
X101141272Y-38428872D01*
X100951078Y-38645747D01*
X100790823Y-38885586D01*
X100790819Y-38885593D01*
X100663242Y-39144294D01*
X100570521Y-39417439D01*
X100570517Y-39417454D01*
X100514246Y-39700350D01*
X100514244Y-39700362D01*
X100495378Y-39988200D01*
X88800000Y-39988200D01*
X88800000Y-37409982D01*
X120032500Y-37409982D01*
X120032500Y-37522018D01*
X120061497Y-37630237D01*
X120117515Y-37727263D01*
X120117517Y-37727265D01*
X120194359Y-37804107D01*
X120227844Y-37865430D01*
X120222860Y-37935122D01*
X120221240Y-37939239D01*
X120212956Y-37959238D01*
X120212955Y-37959239D01*
X120197500Y-38076638D01*
X120197500Y-39005363D01*
X120212953Y-39122753D01*
X120212956Y-39122762D01*
X120237061Y-39180956D01*
X120246500Y-39228409D01*
X120246500Y-40063005D01*
X120246500Y-40200993D01*
X120246500Y-40200995D01*
X120246499Y-40200995D01*
X120273418Y-40336321D01*
X120273421Y-40336331D01*
X120326222Y-40463806D01*
X120402887Y-40578544D01*
X120402888Y-40578545D01*
X121418887Y-41594542D01*
X121475008Y-41650663D01*
X121516460Y-41692115D01*
X121631183Y-41768771D01*
X121631190Y-41768775D01*
X121702952Y-41798499D01*
X121702954Y-41798501D01*
X121758667Y-41821578D01*
X121758672Y-41821580D01*
X121758681Y-41821581D01*
X121758682Y-41821582D01*
X121785546Y-41826925D01*
X121785552Y-41826926D01*
X121785592Y-41826934D01*
X121875938Y-41844905D01*
X121894007Y-41848500D01*
X121894008Y-41848500D01*
X125206907Y-41848500D01*
X125273946Y-41868185D01*
X125279792Y-41872182D01*
X125302402Y-41888609D01*
X125302404Y-41888610D01*
X125302407Y-41888612D01*
X125465733Y-41961329D01*
X125640609Y-41998500D01*
X125640610Y-41998500D01*
X125819389Y-41998500D01*
X125819391Y-41998500D01*
X125994267Y-41961329D01*
X126157593Y-41888612D01*
X126302230Y-41783526D01*
X126421859Y-41650665D01*
X126511250Y-41495835D01*
X126566497Y-41325803D01*
X126585185Y-41148000D01*
X126566497Y-40970197D01*
X126511250Y-40800165D01*
X126447113Y-40689075D01*
X126430500Y-40627075D01*
X126430500Y-39274279D01*
X126439939Y-39226826D01*
X126474123Y-39144298D01*
X126483044Y-39122762D01*
X126498500Y-39005361D01*
X126498499Y-38076640D01*
X126498499Y-38076638D01*
X126498499Y-38076636D01*
X126483046Y-37959246D01*
X126483044Y-37959239D01*
X126483044Y-37959238D01*
X126474760Y-37939240D01*
X126467291Y-37869774D01*
X126498564Y-37807294D01*
X126501585Y-37804162D01*
X126578485Y-37727263D01*
X126634503Y-37630237D01*
X126663500Y-37522018D01*
X126663500Y-37409982D01*
X126634503Y-37301763D01*
X126578485Y-37204737D01*
X126499263Y-37125515D01*
X126402237Y-37069497D01*
X126294018Y-37040500D01*
X126181982Y-37040500D01*
X126073763Y-37069497D01*
X126073760Y-37069498D01*
X125976740Y-37125513D01*
X125976734Y-37125517D01*
X125897517Y-37204734D01*
X125897513Y-37204740D01*
X125841498Y-37301760D01*
X125841497Y-37301763D01*
X125810397Y-37417832D01*
X125808536Y-37417333D01*
X125784528Y-37471591D01*
X125726200Y-37510056D01*
X125689864Y-37515500D01*
X125558637Y-37515500D01*
X125441240Y-37530954D01*
X125424543Y-37537870D01*
X125355074Y-37545335D01*
X125331609Y-37538661D01*
X125298591Y-37525641D01*
X125286526Y-37524192D01*
X125214144Y-37515500D01*
X124981856Y-37515500D01*
X124897410Y-37525641D01*
X124897403Y-37525642D01*
X124893482Y-37527189D01*
X124890069Y-37527496D01*
X124889709Y-37527588D01*
X124889694Y-37527530D01*
X124823895Y-37533467D01*
X124802518Y-37527189D01*
X124798596Y-37525642D01*
X124798590Y-37525641D01*
X124714144Y-37515500D01*
X124481856Y-37515500D01*
X124397410Y-37525641D01*
X124397403Y-37525642D01*
X124393482Y-37527189D01*
X124390069Y-37527496D01*
X124389709Y-37527588D01*
X124389694Y-37527530D01*
X124323895Y-37533467D01*
X124302518Y-37527189D01*
X124298596Y-37525642D01*
X124298590Y-37525641D01*
X124214144Y-37515500D01*
X123981856Y-37515500D01*
X123897410Y-37525641D01*
X123897403Y-37525642D01*
X123893482Y-37527189D01*
X123890069Y-37527496D01*
X123889709Y-37527588D01*
X123889694Y-37527530D01*
X123823895Y-37533467D01*
X123802518Y-37527189D01*
X123798596Y-37525642D01*
X123798590Y-37525641D01*
X123714144Y-37515500D01*
X123481856Y-37515500D01*
X123397410Y-37525641D01*
X123397403Y-37525642D01*
X123393482Y-37527189D01*
X123390069Y-37527496D01*
X123389709Y-37527588D01*
X123389694Y-37527530D01*
X123323895Y-37533467D01*
X123302518Y-37527189D01*
X123298596Y-37525642D01*
X123298590Y-37525641D01*
X123214144Y-37515500D01*
X122981856Y-37515500D01*
X122897410Y-37525641D01*
X122897403Y-37525642D01*
X122893482Y-37527189D01*
X122890069Y-37527496D01*
X122889709Y-37527588D01*
X122889694Y-37527530D01*
X122823895Y-37533467D01*
X122802518Y-37527189D01*
X122798596Y-37525642D01*
X122798590Y-37525641D01*
X122714144Y-37515500D01*
X122481856Y-37515500D01*
X122397410Y-37525641D01*
X122397403Y-37525642D01*
X122393482Y-37527189D01*
X122390069Y-37527496D01*
X122389709Y-37527588D01*
X122389694Y-37527530D01*
X122323895Y-37533467D01*
X122302518Y-37527189D01*
X122298596Y-37525642D01*
X122298590Y-37525641D01*
X122214144Y-37515500D01*
X121981856Y-37515500D01*
X121897410Y-37525641D01*
X121897403Y-37525642D01*
X121893482Y-37527189D01*
X121890069Y-37527496D01*
X121889709Y-37527588D01*
X121889694Y-37527530D01*
X121823895Y-37533467D01*
X121802518Y-37527189D01*
X121798596Y-37525642D01*
X121798590Y-37525641D01*
X121714144Y-37515500D01*
X121481856Y-37515500D01*
X121397410Y-37525641D01*
X121397409Y-37525641D01*
X121364388Y-37538662D01*
X121294801Y-37544941D01*
X121271452Y-37537868D01*
X121254764Y-37530956D01*
X121254765Y-37530956D01*
X121137370Y-37515501D01*
X121137367Y-37515500D01*
X121137361Y-37515500D01*
X121137354Y-37515500D01*
X121006137Y-37515500D01*
X120939098Y-37495815D01*
X120893343Y-37443011D01*
X120886074Y-37417705D01*
X120885603Y-37417832D01*
X120883500Y-37409982D01*
X120854503Y-37301763D01*
X120798485Y-37204737D01*
X120719263Y-37125515D01*
X120622237Y-37069497D01*
X120514018Y-37040500D01*
X120401982Y-37040500D01*
X120293763Y-37069497D01*
X120293760Y-37069498D01*
X120196740Y-37125513D01*
X120196734Y-37125517D01*
X120117517Y-37204734D01*
X120117513Y-37204740D01*
X120061498Y-37301760D01*
X120061497Y-37301763D01*
X120032500Y-37409982D01*
X88800000Y-37409982D01*
X88800000Y-34988199D01*
X93545171Y-34988199D01*
X93545171Y-34988200D01*
X93564844Y-35200510D01*
X93623196Y-35405592D01*
X93623196Y-35405594D01*
X93718232Y-35596453D01*
X93846727Y-35766606D01*
X93846728Y-35766607D01*
X94004298Y-35910252D01*
X94185581Y-36022498D01*
X94384402Y-36099521D01*
X94593990Y-36138700D01*
X94593992Y-36138700D01*
X94807208Y-36138700D01*
X94807210Y-36138700D01*
X95016798Y-36099521D01*
X95215619Y-36022498D01*
X95396902Y-35910252D01*
X95554472Y-35766607D01*
X95682966Y-35596455D01*
X95778005Y-35405589D01*
X95836356Y-35200510D01*
X95856029Y-34988200D01*
X95856029Y-34988199D01*
X104545171Y-34988199D01*
X104545171Y-34988200D01*
X104564844Y-35200510D01*
X104623196Y-35405592D01*
X104623196Y-35405594D01*
X104718232Y-35596453D01*
X104846727Y-35766606D01*
X104846728Y-35766607D01*
X105004298Y-35910252D01*
X105185581Y-36022498D01*
X105384402Y-36099521D01*
X105593990Y-36138700D01*
X105593992Y-36138700D01*
X105807208Y-36138700D01*
X105807210Y-36138700D01*
X106016798Y-36099521D01*
X106215619Y-36022498D01*
X106396902Y-35910252D01*
X106554472Y-35766607D01*
X106682966Y-35596455D01*
X106778005Y-35405589D01*
X106836356Y-35200510D01*
X106856029Y-34988200D01*
X106836356Y-34775890D01*
X106778005Y-34570811D01*
X106778003Y-34570806D01*
X106778003Y-34570805D01*
X106682967Y-34379946D01*
X106554472Y-34209793D01*
X106396902Y-34066148D01*
X106215619Y-33953902D01*
X106215617Y-33953901D01*
X106116208Y-33915390D01*
X106016798Y-33876879D01*
X105807210Y-33837700D01*
X105593990Y-33837700D01*
X105384402Y-33876879D01*
X105384399Y-33876879D01*
X105384399Y-33876880D01*
X105185582Y-33953901D01*
X105185580Y-33953902D01*
X105004299Y-34066147D01*
X104846727Y-34209793D01*
X104718232Y-34379946D01*
X104623196Y-34570805D01*
X104623196Y-34570807D01*
X104564844Y-34775889D01*
X104545171Y-34988199D01*
X95856029Y-34988199D01*
X95836356Y-34775890D01*
X95778005Y-34570811D01*
X95778003Y-34570806D01*
X95778003Y-34570805D01*
X95682967Y-34379946D01*
X95554472Y-34209793D01*
X95396902Y-34066148D01*
X95215619Y-33953902D01*
X95215617Y-33953901D01*
X95116208Y-33915390D01*
X95016798Y-33876879D01*
X94807210Y-33837700D01*
X94593990Y-33837700D01*
X94384402Y-33876879D01*
X94384399Y-33876879D01*
X94384399Y-33876880D01*
X94185582Y-33953901D01*
X94185580Y-33953902D01*
X94004299Y-34066147D01*
X93846727Y-34209793D01*
X93718232Y-34379946D01*
X93623196Y-34570805D01*
X93623196Y-34570807D01*
X93564844Y-34775889D01*
X93545171Y-34988199D01*
X88800000Y-34988199D01*
X88800000Y-32624000D01*
X88819685Y-32556961D01*
X88872489Y-32511206D01*
X88924000Y-32500000D01*
X132655217Y-32500000D01*
X132722256Y-32519685D01*
G37*
%TD.AperFunction*%
%TD*%
%TA.AperFunction,Conductor*%
%TO.N,+BATT*%
G36*
X122243639Y-42607885D02*
G01*
X122289394Y-42660689D01*
X122300600Y-42712200D01*
X122300600Y-50264200D01*
X122280915Y-50331239D01*
X122228111Y-50376994D01*
X122176600Y-50388200D01*
X115900600Y-50388200D01*
X115900600Y-51588200D01*
X117018798Y-56060992D01*
X117022500Y-56091066D01*
X117022500Y-60875852D01*
X117044682Y-60958640D01*
X117066108Y-60995750D01*
X117087535Y-61032862D01*
X117087537Y-61032864D01*
X117115986Y-61061313D01*
X117149471Y-61122636D01*
X117144487Y-61192328D01*
X117102615Y-61248261D01*
X117037151Y-61272678D01*
X117035452Y-61272788D01*
X113101862Y-61499892D01*
X113098132Y-61500051D01*
X111900600Y-61533064D01*
X109900600Y-61588200D01*
X109247764Y-60734492D01*
X108828434Y-60186137D01*
X108803347Y-60120926D01*
X108817498Y-60052505D01*
X108866395Y-60002596D01*
X108934512Y-59987045D01*
X108959021Y-59991037D01*
X109040470Y-60012861D01*
X109259526Y-60041700D01*
X109259533Y-60041700D01*
X109480467Y-60041700D01*
X109480474Y-60041700D01*
X109699530Y-60012861D01*
X109912949Y-59955676D01*
X110117077Y-59871123D01*
X110308423Y-59760649D01*
X110483712Y-59626145D01*
X110639945Y-59469912D01*
X110774449Y-59294623D01*
X110884923Y-59103277D01*
X110969476Y-58899149D01*
X111026661Y-58685730D01*
X111055500Y-58466674D01*
X111055500Y-58245726D01*
X111026661Y-58026670D01*
X110969476Y-57813251D01*
X110884923Y-57609123D01*
X110884921Y-57609120D01*
X110884919Y-57609115D01*
X110774453Y-57417784D01*
X110774449Y-57417777D01*
X110705777Y-57328282D01*
X110639946Y-57242489D01*
X110639940Y-57242482D01*
X110483717Y-57086259D01*
X110483710Y-57086253D01*
X110308431Y-56951757D01*
X110308429Y-56951755D01*
X110308423Y-56951751D01*
X110308418Y-56951748D01*
X110308415Y-56951746D01*
X110117084Y-56841280D01*
X110117067Y-56841272D01*
X109912949Y-56756724D01*
X109862618Y-56743238D01*
X109699530Y-56699539D01*
X109699524Y-56699538D01*
X109699519Y-56699537D01*
X109480484Y-56670701D01*
X109480479Y-56670700D01*
X109480474Y-56670700D01*
X109259526Y-56670700D01*
X109259520Y-56670700D01*
X109259515Y-56670701D01*
X109040480Y-56699537D01*
X109040473Y-56699538D01*
X109040470Y-56699539D01*
X108950264Y-56723709D01*
X108827050Y-56756724D01*
X108622932Y-56841272D01*
X108622915Y-56841280D01*
X108431584Y-56951746D01*
X108431568Y-56951757D01*
X108256289Y-57086253D01*
X108256282Y-57086259D01*
X108100059Y-57242482D01*
X108100053Y-57242489D01*
X107965557Y-57417768D01*
X107965546Y-57417784D01*
X107855080Y-57609115D01*
X107855072Y-57609132D01*
X107798818Y-57744943D01*
X107770524Y-57813251D01*
X107716604Y-58014487D01*
X107713340Y-58026667D01*
X107713337Y-58026680D01*
X107684501Y-58245715D01*
X107684500Y-58245732D01*
X107684500Y-58323937D01*
X107664815Y-58390976D01*
X107612011Y-58436731D01*
X107542853Y-58446675D01*
X107479297Y-58417650D01*
X107462000Y-58399261D01*
X107300601Y-58188200D01*
X107300600Y-58188200D01*
X105895294Y-58188200D01*
X105828255Y-58168515D01*
X105807613Y-58151881D01*
X105670219Y-58014487D01*
X105636734Y-57953164D01*
X105633900Y-57926806D01*
X105633900Y-57056262D01*
X105653585Y-56989223D01*
X105670219Y-56968581D01*
X105968100Y-56670700D01*
X107421548Y-55217251D01*
X107429999Y-55209547D01*
X108349004Y-54446582D01*
X108408352Y-54419589D01*
X112300600Y-53788200D01*
X112300600Y-51588200D01*
X111699600Y-51588200D01*
X111632561Y-51568515D01*
X111586806Y-51515711D01*
X111575600Y-51464200D01*
X111575600Y-42712200D01*
X111595285Y-42645161D01*
X111648089Y-42599406D01*
X111699600Y-42588200D01*
X122176600Y-42588200D01*
X122243639Y-42607885D01*
G37*
%TD.AperFunction*%
%TD*%
%TA.AperFunction,Conductor*%
%TO.N,/Power/CELL_1*%
G36*
X124243639Y-119207885D02*
G01*
X124289394Y-119260689D01*
X124300600Y-119312200D01*
X124300600Y-129264200D01*
X124280915Y-129331239D01*
X124228111Y-129376994D01*
X124176600Y-129388200D01*
X95024600Y-129388200D01*
X94957561Y-129368515D01*
X94911806Y-129315711D01*
X94900600Y-129264200D01*
X94900600Y-119312200D01*
X94920285Y-119245161D01*
X94973089Y-119199406D01*
X95024600Y-119188200D01*
X124176600Y-119188200D01*
X124243639Y-119207885D01*
G37*
%TD.AperFunction*%
%TD*%
%TA.AperFunction,Conductor*%
%TO.N,+BATT*%
G36*
X98443639Y-54807885D02*
G01*
X98489394Y-54860689D01*
X98500600Y-54912200D01*
X98500600Y-56588200D01*
X100824868Y-56588200D01*
X100891907Y-56607885D01*
X100937662Y-56660689D01*
X100948868Y-56712200D01*
X100948868Y-56857147D01*
X100948868Y-58786111D01*
X100948868Y-58871817D01*
X100957528Y-58904137D01*
X100971050Y-58954604D01*
X100981082Y-58971979D01*
X101013903Y-59028826D01*
X101013905Y-59028828D01*
X102248044Y-60262967D01*
X102281529Y-60324290D01*
X102283302Y-60366831D01*
X102274375Y-60434647D01*
X102274375Y-60434653D01*
X102295012Y-60591412D01*
X102295013Y-60591414D01*
X102355521Y-60737493D01*
X102451775Y-60862934D01*
X102577216Y-60959188D01*
X102723295Y-61019696D01*
X102801676Y-61030015D01*
X102880056Y-61040334D01*
X102880057Y-61040334D01*
X102880058Y-61040334D01*
X102932311Y-61033454D01*
X103036819Y-61019696D01*
X103182898Y-60959188D01*
X103308339Y-60862934D01*
X103328458Y-60836713D01*
X103384886Y-60795511D01*
X103426834Y-60788200D01*
X109288835Y-60788200D01*
X109900600Y-61588200D01*
X111900600Y-61533064D01*
X111900600Y-62064200D01*
X111880915Y-62131239D01*
X111828111Y-62176994D01*
X111776600Y-62188200D01*
X100766963Y-62188200D01*
X100699924Y-62168515D01*
X100663789Y-62132983D01*
X99900600Y-60988200D01*
X97424600Y-60988200D01*
X97357561Y-60968515D01*
X97311806Y-60915711D01*
X97300600Y-60864200D01*
X97300600Y-54912200D01*
X97320285Y-54845161D01*
X97373089Y-54799406D01*
X97424600Y-54788200D01*
X98376600Y-54788200D01*
X98443639Y-54807885D01*
G37*
%TD.AperFunction*%
%TD*%
M02*
