%TF.GenerationSoftware,KiCad,Pcbnew,8.0.3*%
%TF.CreationDate,2024-07-13T14:18:46-04:00*%
%TF.ProjectId,get-a-grip-on-reality,6765742d-612d-4677-9269-702d6f6e2d72,rev?*%
%TF.SameCoordinates,Original*%
%TF.FileFunction,Paste,Bot*%
%TF.FilePolarity,Positive*%
%FSLAX46Y46*%
G04 Gerber Fmt 4.6, Leading zero omitted, Abs format (unit mm)*
G04 Created by KiCad (PCBNEW 8.0.3) date 2024-07-13 14:18:46*
%MOMM*%
%LPD*%
G01*
G04 APERTURE LIST*
G04 Aperture macros list*
%AMRoundRect*
0 Rectangle with rounded corners*
0 $1 Rounding radius*
0 $2 $3 $4 $5 $6 $7 $8 $9 X,Y pos of 4 corners*
0 Add a 4 corners polygon primitive as box body*
4,1,4,$2,$3,$4,$5,$6,$7,$8,$9,$2,$3,0*
0 Add four circle primitives for the rounded corners*
1,1,$1+$1,$2,$3*
1,1,$1+$1,$4,$5*
1,1,$1+$1,$6,$7*
1,1,$1+$1,$8,$9*
0 Add four rect primitives between the rounded corners*
20,1,$1+$1,$2,$3,$4,$5,0*
20,1,$1+$1,$4,$5,$6,$7,0*
20,1,$1+$1,$6,$7,$8,$9,0*
20,1,$1+$1,$8,$9,$2,$3,0*%
G04 Aperture macros list end*
%ADD10C,0.000000*%
%ADD11RoundRect,0.250000X-0.450000X0.262500X-0.450000X-0.262500X0.450000X-0.262500X0.450000X0.262500X0*%
%ADD12R,0.650001X0.249999*%
%ADD13R,0.249999X0.650001*%
%ADD14R,0.250000X0.625000*%
%ADD15R,0.450000X0.700000*%
%ADD16R,0.450000X0.575000*%
%ADD17RoundRect,0.250000X0.475000X-0.250000X0.475000X0.250000X-0.475000X0.250000X-0.475000X-0.250000X0*%
%ADD18RoundRect,0.250000X-0.250000X-0.475000X0.250000X-0.475000X0.250000X0.475000X-0.250000X0.475000X0*%
%ADD19RoundRect,0.250000X0.450000X-0.262500X0.450000X0.262500X-0.450000X0.262500X-0.450000X-0.262500X0*%
%ADD20RoundRect,0.243750X0.456250X-0.243750X0.456250X0.243750X-0.456250X0.243750X-0.456250X-0.243750X0*%
%ADD21RoundRect,0.250000X-0.475000X0.250000X-0.475000X-0.250000X0.475000X-0.250000X0.475000X0.250000X0*%
%ADD22RoundRect,0.250000X-0.262500X-0.450000X0.262500X-0.450000X0.262500X0.450000X-0.262500X0.450000X0*%
%ADD23RoundRect,0.250000X0.250000X0.475000X-0.250000X0.475000X-0.250000X-0.475000X0.250000X-0.475000X0*%
%ADD24R,0.650000X2.000000*%
%ADD25RoundRect,0.250000X0.262500X0.450000X-0.262500X0.450000X-0.262500X-0.450000X0.262500X-0.450000X0*%
%ADD26RoundRect,0.250000X0.255000X0.255000X-0.255000X0.255000X-0.255000X-0.255000X0.255000X-0.255000X0*%
%ADD27RoundRect,0.062500X0.375000X0.062500X-0.375000X0.062500X-0.375000X-0.062500X0.375000X-0.062500X0*%
%ADD28RoundRect,0.062500X0.062500X0.375000X-0.062500X0.375000X-0.062500X-0.375000X0.062500X-0.375000X0*%
%ADD29RoundRect,0.275000X0.725000X-0.275000X0.725000X0.275000X-0.725000X0.275000X-0.725000X-0.275000X0*%
%ADD30RoundRect,0.275000X-0.275000X-0.725000X0.275000X-0.725000X0.275000X0.725000X-0.275000X0.725000X0*%
%ADD31RoundRect,0.275000X0.275000X0.725000X-0.275000X0.725000X-0.275000X-0.725000X0.275000X-0.725000X0*%
%ADD32RoundRect,0.150000X0.150000X0.425000X-0.150000X0.425000X-0.150000X-0.425000X0.150000X-0.425000X0*%
%ADD33RoundRect,0.075000X0.075000X0.500000X-0.075000X0.500000X-0.075000X-0.500000X0.075000X-0.500000X0*%
%ADD34RoundRect,0.250000X0.840000X0.750000X-0.840000X0.750000X-0.840000X-0.750000X0.840000X-0.750000X0*%
G04 APERTURE END LIST*
D10*
%TO.C,U7*%
G36*
X103500001Y-57460998D02*
G01*
X103500001Y-58220999D01*
X103450001Y-58270999D01*
X102970002Y-58270999D01*
X102920000Y-58220999D01*
X102920000Y-57460998D01*
X102970002Y-57410998D01*
X103450001Y-57410998D01*
X103500001Y-57460998D01*
G37*
G36*
X104280002Y-57460998D02*
G01*
X104280002Y-58220999D01*
X104230000Y-58270999D01*
X103750001Y-58270999D01*
X103700001Y-58220999D01*
X103700001Y-57460998D01*
X103750001Y-57410998D01*
X104230000Y-57410998D01*
X104280002Y-57460998D01*
G37*
G36*
X103450001Y-56284998D02*
G01*
X103450001Y-57046998D01*
X103400001Y-57096998D01*
X102900000Y-57096998D01*
X102850003Y-57046998D01*
X102850000Y-57010001D01*
X102788001Y-56916999D01*
X102750000Y-56868998D01*
X102750000Y-56284998D01*
X102800000Y-56234999D01*
X103400001Y-56234999D01*
X103450001Y-56284998D01*
G37*
G36*
X104450002Y-56284998D02*
G01*
X104450002Y-56868998D01*
X104412001Y-56916999D01*
X104349999Y-57010001D01*
X104349999Y-57046998D01*
X104300002Y-57096998D01*
X103800001Y-57096998D01*
X103750001Y-57047001D01*
X103750001Y-56284998D01*
X103800001Y-56234999D01*
X104400002Y-56234999D01*
X104450002Y-56284998D01*
G37*
G36*
X102425002Y-55335000D02*
G01*
X102475002Y-55385000D01*
X102475002Y-55859998D01*
X102425002Y-55909998D01*
X101950002Y-55909998D01*
X101900002Y-55860001D01*
X101900002Y-55709998D01*
X101950002Y-55659998D01*
X102125000Y-55659998D01*
X102225000Y-55559999D01*
X102225000Y-55385000D01*
X102275000Y-55334998D01*
X102425002Y-55335000D01*
G37*
G36*
X102475002Y-58710000D02*
G01*
X102475002Y-59184998D01*
X102425002Y-59234998D01*
X102275000Y-59235000D01*
X102225000Y-59184998D01*
X102225000Y-59009999D01*
X102125000Y-58910000D01*
X101950002Y-58910000D01*
X101900002Y-58860000D01*
X101900002Y-58710000D01*
X101950002Y-58660000D01*
X102425002Y-58659998D01*
X102475002Y-58710000D01*
G37*
G36*
X104975002Y-55385000D02*
G01*
X104975002Y-55559999D01*
X105075002Y-55659998D01*
X105250000Y-55659998D01*
X105300000Y-55709998D01*
X105300000Y-55860001D01*
X105250000Y-55909998D01*
X104775000Y-55909998D01*
X104725000Y-55860001D01*
X104725000Y-55385000D01*
X104775000Y-55335000D01*
X104925002Y-55334998D01*
X104975002Y-55385000D01*
G37*
G36*
X105300000Y-58709997D02*
G01*
X105300000Y-58860000D01*
X105250000Y-58910000D01*
X105075002Y-58910000D01*
X104975002Y-59009999D01*
X104975002Y-59184998D01*
X104925002Y-59235000D01*
X104775002Y-59234998D01*
X104725000Y-59184998D01*
X104725000Y-58710000D01*
X104775000Y-58660000D01*
X105250000Y-58660000D01*
X105300000Y-58709997D01*
G37*
G36*
X102550001Y-56184999D02*
G01*
X102550001Y-56859999D01*
X102500001Y-56909998D01*
X101950002Y-56910001D01*
X101900002Y-56859999D01*
X101900002Y-56709999D01*
X101950002Y-56659999D01*
X102175000Y-56659999D01*
X102225000Y-56609999D01*
X102225000Y-56459999D01*
X102175000Y-56409999D01*
X101950002Y-56410002D01*
X101900002Y-56360000D01*
X101900002Y-56210000D01*
X101950002Y-56160000D01*
X102525002Y-56160000D01*
X102550001Y-56184999D01*
G37*
G36*
X102600000Y-57210000D02*
G01*
X102600000Y-57859999D01*
X102550001Y-57909999D01*
X101950002Y-57909999D01*
X101900002Y-57859999D01*
X101900002Y-57709999D01*
X101950002Y-57660000D01*
X102175000Y-57660000D01*
X102225000Y-57610000D01*
X102225000Y-57460000D01*
X102175000Y-57409997D01*
X101950002Y-57410000D01*
X101900002Y-57359998D01*
X101900002Y-57209998D01*
X101950002Y-57159998D01*
X102550001Y-57159998D01*
X102600000Y-57210000D01*
G37*
G36*
X105300000Y-56210000D02*
G01*
X105300000Y-56360000D01*
X105250000Y-56410002D01*
X105025002Y-56409999D01*
X104975000Y-56459999D01*
X104975002Y-56609999D01*
X105025002Y-56660002D01*
X105250000Y-56659999D01*
X105300000Y-56709999D01*
X105300000Y-56859999D01*
X105250000Y-56910001D01*
X104700001Y-56909998D01*
X104650001Y-56859999D01*
X104650001Y-56184999D01*
X104675000Y-56160000D01*
X105250000Y-56160000D01*
X105300000Y-56210000D01*
G37*
G36*
X105300000Y-57210000D02*
G01*
X105300000Y-57360000D01*
X105250000Y-57409997D01*
X105025002Y-57410000D01*
X104975000Y-57460000D01*
X104975000Y-57610000D01*
X105025002Y-57659997D01*
X105250000Y-57660000D01*
X105300000Y-57709997D01*
X105300000Y-57859999D01*
X105250000Y-57909999D01*
X104650001Y-57909999D01*
X104600002Y-57859999D01*
X104600002Y-57210000D01*
X104650001Y-57159998D01*
X105250000Y-57159998D01*
X105300000Y-57210000D01*
G37*
G36*
X104475001Y-55385000D02*
G01*
X104475001Y-55884999D01*
X104425001Y-55934999D01*
X102775001Y-55934999D01*
X102725001Y-55884999D01*
X102725001Y-55385000D01*
X102775001Y-55335000D01*
X102925001Y-55334998D01*
X102975001Y-55385000D01*
X102975001Y-55609999D01*
X103025001Y-55659998D01*
X103175001Y-55659998D01*
X103225000Y-55609999D01*
X103225000Y-55385000D01*
X103275000Y-55335000D01*
X103425000Y-55334998D01*
X103475000Y-55385000D01*
X103475000Y-55609999D01*
X103525002Y-55659998D01*
X103675000Y-55659998D01*
X103724999Y-55609999D01*
X103725002Y-55385000D01*
X103775002Y-55335000D01*
X103925002Y-55334998D01*
X103975002Y-55385000D01*
X103975002Y-55609999D01*
X104025001Y-55659998D01*
X104175001Y-55659998D01*
X104225001Y-55609999D01*
X104225001Y-55385000D01*
X104275001Y-55335000D01*
X104425001Y-55334998D01*
X104475001Y-55385000D01*
G37*
%TD*%
D11*
%TO.C,R15*%
X104904600Y-60866496D03*
X104904600Y-62691496D03*
%TD*%
D12*
%TO.C,U7*%
X102225000Y-58285000D03*
X104975002Y-58285000D03*
D13*
X104350002Y-58910000D03*
X103850001Y-58910000D03*
X103350001Y-58910000D03*
X102850000Y-58910000D03*
%TD*%
D14*
%TO.C,U3*%
X57875000Y-69195000D03*
X58375000Y-69195000D03*
D15*
X58875000Y-69232500D03*
D14*
X59375000Y-69195000D03*
X59875000Y-69195000D03*
X59875000Y-69970000D03*
X59375000Y-69970000D03*
D16*
X58875000Y-69995000D03*
D14*
X58375000Y-69970000D03*
X57875000Y-69970000D03*
%TD*%
D17*
%TO.C,C22*%
X107800000Y-53075000D03*
X107800000Y-51175000D03*
%TD*%
D11*
%TO.C,R9*%
X127632774Y-63747300D03*
X127632774Y-65572300D03*
%TD*%
D17*
%TO.C,C20*%
X110904548Y-54650150D03*
X110904548Y-52750150D03*
%TD*%
D11*
%TO.C,TH1*%
X125668974Y-67210300D03*
X125668974Y-69035300D03*
%TD*%
D18*
%TO.C,C28*%
X105508600Y-46923796D03*
X107408600Y-46923796D03*
%TD*%
D11*
%TO.C,R18*%
X123676908Y-63747300D03*
X123676908Y-65572300D03*
%TD*%
%TO.C,R10*%
X98600000Y-60425000D03*
X98600000Y-62250000D03*
%TD*%
D19*
%TO.C,R14*%
X108700600Y-62617196D03*
X108700600Y-60792196D03*
%TD*%
D17*
%TO.C,C26*%
X118844374Y-58779100D03*
X118844374Y-56879100D03*
%TD*%
D20*
%TO.C,D7*%
X127454974Y-51927900D03*
X127454974Y-50052900D03*
%TD*%
D21*
%TO.C,C24*%
X121668974Y-63709800D03*
X121668974Y-65609800D03*
%TD*%
D11*
%TO.C,R16*%
X104950000Y-64450000D03*
X104950000Y-66275000D03*
%TD*%
D22*
%TO.C,R19*%
X100972200Y-60969996D03*
X102797200Y-60969996D03*
%TD*%
D11*
%TO.C,R8*%
X127454974Y-53561900D03*
X127454974Y-55386900D03*
%TD*%
D23*
%TO.C,C29*%
X101179548Y-47025150D03*
X99279548Y-47025150D03*
%TD*%
D24*
%TO.C,L1*%
X123339574Y-52876100D03*
X121989574Y-52876100D03*
%TD*%
D21*
%TO.C,C16*%
X117599774Y-63284900D03*
X117599774Y-65184900D03*
%TD*%
D11*
%TO.C,R11*%
X98600000Y-63900000D03*
X98600000Y-65725000D03*
%TD*%
D25*
%TO.C,R20*%
X102799100Y-62925796D03*
X100974100Y-62925796D03*
%TD*%
D18*
%TO.C,C21*%
X121333574Y-55238300D03*
X123233574Y-55238300D03*
%TD*%
D26*
%TO.C,U6*%
X123970574Y-59640800D03*
X123970574Y-58390800D03*
X122720574Y-59640800D03*
X122720574Y-58390800D03*
D27*
X125283074Y-57765800D03*
X125283074Y-58265800D03*
X125283074Y-58765800D03*
X125283074Y-59265800D03*
X125283074Y-59765800D03*
X125283074Y-60265800D03*
D28*
X124595574Y-60953300D03*
X124095574Y-60953300D03*
X123595574Y-60953300D03*
X123095574Y-60953300D03*
X122595574Y-60953300D03*
X122095574Y-60953300D03*
D27*
X121408074Y-60265800D03*
X121408074Y-59765800D03*
X121408074Y-59265800D03*
X121408074Y-58765800D03*
X121408074Y-58265800D03*
X121408074Y-57765800D03*
D28*
X122095574Y-57078300D03*
X122595574Y-57078300D03*
X123095574Y-57078300D03*
X123595574Y-57078300D03*
X124095574Y-57078300D03*
X124595574Y-57078300D03*
%TD*%
D17*
%TO.C,C14*%
X127450600Y-48238200D03*
X127450600Y-46338200D03*
%TD*%
D11*
%TO.C,R12*%
X121693974Y-67210300D03*
X121693974Y-69035300D03*
%TD*%
D23*
%TO.C,C18*%
X96950000Y-58625000D03*
X95050000Y-58625000D03*
%TD*%
D21*
%TO.C,C19*%
X115454548Y-63284900D03*
X115454548Y-65184900D03*
%TD*%
D11*
%TO.C,R17*%
X125654841Y-63747300D03*
X125654841Y-65572300D03*
%TD*%
D18*
%TO.C,C7*%
X41625000Y-50150000D03*
X43525000Y-50150000D03*
%TD*%
D17*
%TO.C,C25*%
X118844374Y-55314500D03*
X118844374Y-53414500D03*
%TD*%
D23*
%TO.C,C30*%
X101194748Y-44967750D03*
X99294748Y-44967750D03*
%TD*%
D17*
%TO.C,C27*%
X99300000Y-55175000D03*
X99300000Y-53275000D03*
%TD*%
D11*
%TO.C,R13*%
X123681474Y-67210300D03*
X123681474Y-69035300D03*
%TD*%
D29*
%TO.C,L2*%
X103563000Y-53565596D03*
X103563000Y-48765596D03*
D30*
X101163000Y-51165596D03*
D31*
X105963000Y-51165596D03*
%TD*%
D21*
%TO.C,C15*%
X119657174Y-62065700D03*
X119657174Y-63965700D03*
%TD*%
%TO.C,C17*%
X96593400Y-60400000D03*
X96593400Y-62300000D03*
%TD*%
D32*
%TO.C,P1*%
X61350000Y-72045000D03*
X60550000Y-72045000D03*
D33*
X59400000Y-72045000D03*
X58400000Y-72045000D03*
X57900000Y-72045000D03*
X56900000Y-72045000D03*
D32*
X55750000Y-72045000D03*
X54950000Y-72045000D03*
X54950000Y-72045000D03*
X55750000Y-72045000D03*
D33*
X56400000Y-72045000D03*
X57400000Y-72045000D03*
X58900000Y-72045000D03*
X59900000Y-72045000D03*
D32*
X60550000Y-72045000D03*
X61350000Y-72045000D03*
D34*
X63260000Y-76550000D03*
X63260000Y-72620000D03*
X53040000Y-76550000D03*
X53040000Y-72620000D03*
%TD*%
D23*
%TO.C,C23*%
X102836600Y-64932396D03*
X100936600Y-64932396D03*
%TD*%
M02*
