%TF.GenerationSoftware,KiCad,Pcbnew,8.0.3*%
%TF.CreationDate,2024-07-13T14:18:46-04:00*%
%TF.ProjectId,get-a-grip-on-reality,6765742d-612d-4677-9269-702d6f6e2d72,rev?*%
%TF.SameCoordinates,Original*%
%TF.FileFunction,Legend,Bot*%
%TF.FilePolarity,Positive*%
%FSLAX46Y46*%
G04 Gerber Fmt 4.6, Leading zero omitted, Abs format (unit mm)*
G04 Created by KiCad (PCBNEW 8.0.3) date 2024-07-13 14:18:46*
%MOMM*%
%LPD*%
G01*
G04 APERTURE LIST*
%ADD10C,0.150000*%
%ADD11C,0.120000*%
%ADD12C,0.250000*%
G04 APERTURE END LIST*
D10*
X105554819Y-68077142D02*
X105078628Y-67743809D01*
X105554819Y-67505714D02*
X104554819Y-67505714D01*
X104554819Y-67505714D02*
X104554819Y-67886666D01*
X104554819Y-67886666D02*
X104602438Y-67981904D01*
X104602438Y-67981904D02*
X104650057Y-68029523D01*
X104650057Y-68029523D02*
X104745295Y-68077142D01*
X104745295Y-68077142D02*
X104888152Y-68077142D01*
X104888152Y-68077142D02*
X104983390Y-68029523D01*
X104983390Y-68029523D02*
X105031009Y-67981904D01*
X105031009Y-67981904D02*
X105078628Y-67886666D01*
X105078628Y-67886666D02*
X105078628Y-67505714D01*
X105554819Y-69029523D02*
X105554819Y-68458095D01*
X105554819Y-68743809D02*
X104554819Y-68743809D01*
X104554819Y-68743809D02*
X104697676Y-68648571D01*
X104697676Y-68648571D02*
X104792914Y-68553333D01*
X104792914Y-68553333D02*
X104840533Y-68458095D01*
X104554819Y-69934285D02*
X104554819Y-69458095D01*
X104554819Y-69458095D02*
X105031009Y-69410476D01*
X105031009Y-69410476D02*
X104983390Y-69458095D01*
X104983390Y-69458095D02*
X104935771Y-69553333D01*
X104935771Y-69553333D02*
X104935771Y-69791428D01*
X104935771Y-69791428D02*
X104983390Y-69886666D01*
X104983390Y-69886666D02*
X105031009Y-69934285D01*
X105031009Y-69934285D02*
X105126247Y-69981904D01*
X105126247Y-69981904D02*
X105364342Y-69981904D01*
X105364342Y-69981904D02*
X105459580Y-69934285D01*
X105459580Y-69934285D02*
X105507200Y-69886666D01*
X105507200Y-69886666D02*
X105554819Y-69791428D01*
X105554819Y-69791428D02*
X105554819Y-69553333D01*
X105554819Y-69553333D02*
X105507200Y-69458095D01*
X105507200Y-69458095D02*
X105459580Y-69410476D01*
X105838096Y-57830179D02*
X105838096Y-57020656D01*
X105838096Y-57020656D02*
X105885715Y-56925418D01*
X105885715Y-56925418D02*
X105933334Y-56877799D01*
X105933334Y-56877799D02*
X106028572Y-56830179D01*
X106028572Y-56830179D02*
X106219048Y-56830179D01*
X106219048Y-56830179D02*
X106314286Y-56877799D01*
X106314286Y-56877799D02*
X106361905Y-56925418D01*
X106361905Y-56925418D02*
X106409524Y-57020656D01*
X106409524Y-57020656D02*
X106409524Y-57830179D01*
X106790477Y-57830179D02*
X107457143Y-57830179D01*
X107457143Y-57830179D02*
X107028572Y-56830179D01*
X55789819Y-68820595D02*
X56599342Y-68820595D01*
X56599342Y-68820595D02*
X56694580Y-68868214D01*
X56694580Y-68868214D02*
X56742200Y-68915833D01*
X56742200Y-68915833D02*
X56789819Y-69011071D01*
X56789819Y-69011071D02*
X56789819Y-69201547D01*
X56789819Y-69201547D02*
X56742200Y-69296785D01*
X56742200Y-69296785D02*
X56694580Y-69344404D01*
X56694580Y-69344404D02*
X56599342Y-69392023D01*
X56599342Y-69392023D02*
X55789819Y-69392023D01*
X55789819Y-69772976D02*
X55789819Y-70392023D01*
X55789819Y-70392023D02*
X56170771Y-70058690D01*
X56170771Y-70058690D02*
X56170771Y-70201547D01*
X56170771Y-70201547D02*
X56218390Y-70296785D01*
X56218390Y-70296785D02*
X56266009Y-70344404D01*
X56266009Y-70344404D02*
X56361247Y-70392023D01*
X56361247Y-70392023D02*
X56599342Y-70392023D01*
X56599342Y-70392023D02*
X56694580Y-70344404D01*
X56694580Y-70344404D02*
X56742200Y-70296785D01*
X56742200Y-70296785D02*
X56789819Y-70201547D01*
X56789819Y-70201547D02*
X56789819Y-69915833D01*
X56789819Y-69915833D02*
X56742200Y-69820595D01*
X56742200Y-69820595D02*
X56694580Y-69772976D01*
X108309580Y-54767142D02*
X108357200Y-54719523D01*
X108357200Y-54719523D02*
X108404819Y-54576666D01*
X108404819Y-54576666D02*
X108404819Y-54481428D01*
X108404819Y-54481428D02*
X108357200Y-54338571D01*
X108357200Y-54338571D02*
X108261961Y-54243333D01*
X108261961Y-54243333D02*
X108166723Y-54195714D01*
X108166723Y-54195714D02*
X107976247Y-54148095D01*
X107976247Y-54148095D02*
X107833390Y-54148095D01*
X107833390Y-54148095D02*
X107642914Y-54195714D01*
X107642914Y-54195714D02*
X107547676Y-54243333D01*
X107547676Y-54243333D02*
X107452438Y-54338571D01*
X107452438Y-54338571D02*
X107404819Y-54481428D01*
X107404819Y-54481428D02*
X107404819Y-54576666D01*
X107404819Y-54576666D02*
X107452438Y-54719523D01*
X107452438Y-54719523D02*
X107500057Y-54767142D01*
X107500057Y-55148095D02*
X107452438Y-55195714D01*
X107452438Y-55195714D02*
X107404819Y-55290952D01*
X107404819Y-55290952D02*
X107404819Y-55529047D01*
X107404819Y-55529047D02*
X107452438Y-55624285D01*
X107452438Y-55624285D02*
X107500057Y-55671904D01*
X107500057Y-55671904D02*
X107595295Y-55719523D01*
X107595295Y-55719523D02*
X107690533Y-55719523D01*
X107690533Y-55719523D02*
X107833390Y-55671904D01*
X107833390Y-55671904D02*
X108404819Y-55100476D01*
X108404819Y-55100476D02*
X108404819Y-55719523D01*
X107500057Y-56100476D02*
X107452438Y-56148095D01*
X107452438Y-56148095D02*
X107404819Y-56243333D01*
X107404819Y-56243333D02*
X107404819Y-56481428D01*
X107404819Y-56481428D02*
X107452438Y-56576666D01*
X107452438Y-56576666D02*
X107500057Y-56624285D01*
X107500057Y-56624285D02*
X107595295Y-56671904D01*
X107595295Y-56671904D02*
X107690533Y-56671904D01*
X107690533Y-56671904D02*
X107833390Y-56624285D01*
X107833390Y-56624285D02*
X108404819Y-56052857D01*
X108404819Y-56052857D02*
X108404819Y-56671904D01*
X128188619Y-71470333D02*
X127712428Y-71137000D01*
X128188619Y-70898905D02*
X127188619Y-70898905D01*
X127188619Y-70898905D02*
X127188619Y-71279857D01*
X127188619Y-71279857D02*
X127236238Y-71375095D01*
X127236238Y-71375095D02*
X127283857Y-71422714D01*
X127283857Y-71422714D02*
X127379095Y-71470333D01*
X127379095Y-71470333D02*
X127521952Y-71470333D01*
X127521952Y-71470333D02*
X127617190Y-71422714D01*
X127617190Y-71422714D02*
X127664809Y-71375095D01*
X127664809Y-71375095D02*
X127712428Y-71279857D01*
X127712428Y-71279857D02*
X127712428Y-70898905D01*
X128188619Y-71946524D02*
X128188619Y-72137000D01*
X128188619Y-72137000D02*
X128141000Y-72232238D01*
X128141000Y-72232238D02*
X128093380Y-72279857D01*
X128093380Y-72279857D02*
X127950523Y-72375095D01*
X127950523Y-72375095D02*
X127760047Y-72422714D01*
X127760047Y-72422714D02*
X127379095Y-72422714D01*
X127379095Y-72422714D02*
X127283857Y-72375095D01*
X127283857Y-72375095D02*
X127236238Y-72327476D01*
X127236238Y-72327476D02*
X127188619Y-72232238D01*
X127188619Y-72232238D02*
X127188619Y-72041762D01*
X127188619Y-72041762D02*
X127236238Y-71946524D01*
X127236238Y-71946524D02*
X127283857Y-71898905D01*
X127283857Y-71898905D02*
X127379095Y-71851286D01*
X127379095Y-71851286D02*
X127617190Y-71851286D01*
X127617190Y-71851286D02*
X127712428Y-71898905D01*
X127712428Y-71898905D02*
X127760047Y-71946524D01*
X127760047Y-71946524D02*
X127807666Y-72041762D01*
X127807666Y-72041762D02*
X127807666Y-72232238D01*
X127807666Y-72232238D02*
X127760047Y-72327476D01*
X127760047Y-72327476D02*
X127712428Y-72375095D01*
X127712428Y-72375095D02*
X127617190Y-72422714D01*
X111289580Y-56267142D02*
X111337200Y-56219523D01*
X111337200Y-56219523D02*
X111384819Y-56076666D01*
X111384819Y-56076666D02*
X111384819Y-55981428D01*
X111384819Y-55981428D02*
X111337200Y-55838571D01*
X111337200Y-55838571D02*
X111241961Y-55743333D01*
X111241961Y-55743333D02*
X111146723Y-55695714D01*
X111146723Y-55695714D02*
X110956247Y-55648095D01*
X110956247Y-55648095D02*
X110813390Y-55648095D01*
X110813390Y-55648095D02*
X110622914Y-55695714D01*
X110622914Y-55695714D02*
X110527676Y-55743333D01*
X110527676Y-55743333D02*
X110432438Y-55838571D01*
X110432438Y-55838571D02*
X110384819Y-55981428D01*
X110384819Y-55981428D02*
X110384819Y-56076666D01*
X110384819Y-56076666D02*
X110432438Y-56219523D01*
X110432438Y-56219523D02*
X110480057Y-56267142D01*
X110480057Y-56648095D02*
X110432438Y-56695714D01*
X110432438Y-56695714D02*
X110384819Y-56790952D01*
X110384819Y-56790952D02*
X110384819Y-57029047D01*
X110384819Y-57029047D02*
X110432438Y-57124285D01*
X110432438Y-57124285D02*
X110480057Y-57171904D01*
X110480057Y-57171904D02*
X110575295Y-57219523D01*
X110575295Y-57219523D02*
X110670533Y-57219523D01*
X110670533Y-57219523D02*
X110813390Y-57171904D01*
X110813390Y-57171904D02*
X111384819Y-56600476D01*
X111384819Y-56600476D02*
X111384819Y-57219523D01*
X110384819Y-57838571D02*
X110384819Y-57933809D01*
X110384819Y-57933809D02*
X110432438Y-58029047D01*
X110432438Y-58029047D02*
X110480057Y-58076666D01*
X110480057Y-58076666D02*
X110575295Y-58124285D01*
X110575295Y-58124285D02*
X110765771Y-58171904D01*
X110765771Y-58171904D02*
X111003866Y-58171904D01*
X111003866Y-58171904D02*
X111194342Y-58124285D01*
X111194342Y-58124285D02*
X111289580Y-58076666D01*
X111289580Y-58076666D02*
X111337200Y-58029047D01*
X111337200Y-58029047D02*
X111384819Y-57933809D01*
X111384819Y-57933809D02*
X111384819Y-57838571D01*
X111384819Y-57838571D02*
X111337200Y-57743333D01*
X111337200Y-57743333D02*
X111289580Y-57695714D01*
X111289580Y-57695714D02*
X111194342Y-57648095D01*
X111194342Y-57648095D02*
X111003866Y-57600476D01*
X111003866Y-57600476D02*
X110765771Y-57600476D01*
X110765771Y-57600476D02*
X110575295Y-57648095D01*
X110575295Y-57648095D02*
X110480057Y-57695714D01*
X110480057Y-57695714D02*
X110432438Y-57743333D01*
X110432438Y-57743333D02*
X110384819Y-57838571D01*
X125224819Y-73814286D02*
X125224819Y-74385714D01*
X126224819Y-74100000D02*
X125224819Y-74100000D01*
X126224819Y-74719048D02*
X125224819Y-74719048D01*
X125701009Y-74719048D02*
X125701009Y-75290476D01*
X126224819Y-75290476D02*
X125224819Y-75290476D01*
X126224819Y-76290476D02*
X126224819Y-75719048D01*
X126224819Y-76004762D02*
X125224819Y-76004762D01*
X125224819Y-76004762D02*
X125367676Y-75909524D01*
X125367676Y-75909524D02*
X125462914Y-75814286D01*
X125462914Y-75814286D02*
X125510533Y-75719048D01*
X104312857Y-52039580D02*
X104360476Y-52087200D01*
X104360476Y-52087200D02*
X104503333Y-52134819D01*
X104503333Y-52134819D02*
X104598571Y-52134819D01*
X104598571Y-52134819D02*
X104741428Y-52087200D01*
X104741428Y-52087200D02*
X104836666Y-51991961D01*
X104836666Y-51991961D02*
X104884285Y-51896723D01*
X104884285Y-51896723D02*
X104931904Y-51706247D01*
X104931904Y-51706247D02*
X104931904Y-51563390D01*
X104931904Y-51563390D02*
X104884285Y-51372914D01*
X104884285Y-51372914D02*
X104836666Y-51277676D01*
X104836666Y-51277676D02*
X104741428Y-51182438D01*
X104741428Y-51182438D02*
X104598571Y-51134819D01*
X104598571Y-51134819D02*
X104503333Y-51134819D01*
X104503333Y-51134819D02*
X104360476Y-51182438D01*
X104360476Y-51182438D02*
X104312857Y-51230057D01*
X103931904Y-51230057D02*
X103884285Y-51182438D01*
X103884285Y-51182438D02*
X103789047Y-51134819D01*
X103789047Y-51134819D02*
X103550952Y-51134819D01*
X103550952Y-51134819D02*
X103455714Y-51182438D01*
X103455714Y-51182438D02*
X103408095Y-51230057D01*
X103408095Y-51230057D02*
X103360476Y-51325295D01*
X103360476Y-51325295D02*
X103360476Y-51420533D01*
X103360476Y-51420533D02*
X103408095Y-51563390D01*
X103408095Y-51563390D02*
X103979523Y-52134819D01*
X103979523Y-52134819D02*
X103360476Y-52134819D01*
X102789047Y-51563390D02*
X102884285Y-51515771D01*
X102884285Y-51515771D02*
X102931904Y-51468152D01*
X102931904Y-51468152D02*
X102979523Y-51372914D01*
X102979523Y-51372914D02*
X102979523Y-51325295D01*
X102979523Y-51325295D02*
X102931904Y-51230057D01*
X102931904Y-51230057D02*
X102884285Y-51182438D01*
X102884285Y-51182438D02*
X102789047Y-51134819D01*
X102789047Y-51134819D02*
X102598571Y-51134819D01*
X102598571Y-51134819D02*
X102503333Y-51182438D01*
X102503333Y-51182438D02*
X102455714Y-51230057D01*
X102455714Y-51230057D02*
X102408095Y-51325295D01*
X102408095Y-51325295D02*
X102408095Y-51372914D01*
X102408095Y-51372914D02*
X102455714Y-51468152D01*
X102455714Y-51468152D02*
X102503333Y-51515771D01*
X102503333Y-51515771D02*
X102598571Y-51563390D01*
X102598571Y-51563390D02*
X102789047Y-51563390D01*
X102789047Y-51563390D02*
X102884285Y-51611009D01*
X102884285Y-51611009D02*
X102931904Y-51658628D01*
X102931904Y-51658628D02*
X102979523Y-51753866D01*
X102979523Y-51753866D02*
X102979523Y-51944342D01*
X102979523Y-51944342D02*
X102931904Y-52039580D01*
X102931904Y-52039580D02*
X102884285Y-52087200D01*
X102884285Y-52087200D02*
X102789047Y-52134819D01*
X102789047Y-52134819D02*
X102598571Y-52134819D01*
X102598571Y-52134819D02*
X102503333Y-52087200D01*
X102503333Y-52087200D02*
X102455714Y-52039580D01*
X102455714Y-52039580D02*
X102408095Y-51944342D01*
X102408095Y-51944342D02*
X102408095Y-51753866D01*
X102408095Y-51753866D02*
X102455714Y-51658628D01*
X102455714Y-51658628D02*
X102503333Y-51611009D01*
X102503333Y-51611009D02*
X102598571Y-51563390D01*
X124232753Y-70994142D02*
X123756562Y-70660809D01*
X124232753Y-70422714D02*
X123232753Y-70422714D01*
X123232753Y-70422714D02*
X123232753Y-70803666D01*
X123232753Y-70803666D02*
X123280372Y-70898904D01*
X123280372Y-70898904D02*
X123327991Y-70946523D01*
X123327991Y-70946523D02*
X123423229Y-70994142D01*
X123423229Y-70994142D02*
X123566086Y-70994142D01*
X123566086Y-70994142D02*
X123661324Y-70946523D01*
X123661324Y-70946523D02*
X123708943Y-70898904D01*
X123708943Y-70898904D02*
X123756562Y-70803666D01*
X123756562Y-70803666D02*
X123756562Y-70422714D01*
X124232753Y-71946523D02*
X124232753Y-71375095D01*
X124232753Y-71660809D02*
X123232753Y-71660809D01*
X123232753Y-71660809D02*
X123375610Y-71565571D01*
X123375610Y-71565571D02*
X123470848Y-71470333D01*
X123470848Y-71470333D02*
X123518467Y-71375095D01*
X123661324Y-72517952D02*
X123613705Y-72422714D01*
X123613705Y-72422714D02*
X123566086Y-72375095D01*
X123566086Y-72375095D02*
X123470848Y-72327476D01*
X123470848Y-72327476D02*
X123423229Y-72327476D01*
X123423229Y-72327476D02*
X123327991Y-72375095D01*
X123327991Y-72375095D02*
X123280372Y-72422714D01*
X123280372Y-72422714D02*
X123232753Y-72517952D01*
X123232753Y-72517952D02*
X123232753Y-72708428D01*
X123232753Y-72708428D02*
X123280372Y-72803666D01*
X123280372Y-72803666D02*
X123327991Y-72851285D01*
X123327991Y-72851285D02*
X123423229Y-72898904D01*
X123423229Y-72898904D02*
X123470848Y-72898904D01*
X123470848Y-72898904D02*
X123566086Y-72851285D01*
X123566086Y-72851285D02*
X123613705Y-72803666D01*
X123613705Y-72803666D02*
X123661324Y-72708428D01*
X123661324Y-72708428D02*
X123661324Y-72517952D01*
X123661324Y-72517952D02*
X123708943Y-72422714D01*
X123708943Y-72422714D02*
X123756562Y-72375095D01*
X123756562Y-72375095D02*
X123851800Y-72327476D01*
X123851800Y-72327476D02*
X124042276Y-72327476D01*
X124042276Y-72327476D02*
X124137514Y-72375095D01*
X124137514Y-72375095D02*
X124185134Y-72422714D01*
X124185134Y-72422714D02*
X124232753Y-72517952D01*
X124232753Y-72517952D02*
X124232753Y-72708428D01*
X124232753Y-72708428D02*
X124185134Y-72803666D01*
X124185134Y-72803666D02*
X124137514Y-72851285D01*
X124137514Y-72851285D02*
X124042276Y-72898904D01*
X124042276Y-72898904D02*
X123851800Y-72898904D01*
X123851800Y-72898904D02*
X123756562Y-72851285D01*
X123756562Y-72851285D02*
X123708943Y-72803666D01*
X123708943Y-72803666D02*
X123661324Y-72708428D01*
X99074819Y-67592142D02*
X98598628Y-67258809D01*
X99074819Y-67020714D02*
X98074819Y-67020714D01*
X98074819Y-67020714D02*
X98074819Y-67401666D01*
X98074819Y-67401666D02*
X98122438Y-67496904D01*
X98122438Y-67496904D02*
X98170057Y-67544523D01*
X98170057Y-67544523D02*
X98265295Y-67592142D01*
X98265295Y-67592142D02*
X98408152Y-67592142D01*
X98408152Y-67592142D02*
X98503390Y-67544523D01*
X98503390Y-67544523D02*
X98551009Y-67496904D01*
X98551009Y-67496904D02*
X98598628Y-67401666D01*
X98598628Y-67401666D02*
X98598628Y-67020714D01*
X99074819Y-68544523D02*
X99074819Y-67973095D01*
X99074819Y-68258809D02*
X98074819Y-68258809D01*
X98074819Y-68258809D02*
X98217676Y-68163571D01*
X98217676Y-68163571D02*
X98312914Y-68068333D01*
X98312914Y-68068333D02*
X98360533Y-67973095D01*
X98074819Y-69163571D02*
X98074819Y-69258809D01*
X98074819Y-69258809D02*
X98122438Y-69354047D01*
X98122438Y-69354047D02*
X98170057Y-69401666D01*
X98170057Y-69401666D02*
X98265295Y-69449285D01*
X98265295Y-69449285D02*
X98455771Y-69496904D01*
X98455771Y-69496904D02*
X98693866Y-69496904D01*
X98693866Y-69496904D02*
X98884342Y-69449285D01*
X98884342Y-69449285D02*
X98979580Y-69401666D01*
X98979580Y-69401666D02*
X99027200Y-69354047D01*
X99027200Y-69354047D02*
X99074819Y-69258809D01*
X99074819Y-69258809D02*
X99074819Y-69163571D01*
X99074819Y-69163571D02*
X99027200Y-69068333D01*
X99027200Y-69068333D02*
X98979580Y-69020714D01*
X98979580Y-69020714D02*
X98884342Y-68973095D01*
X98884342Y-68973095D02*
X98693866Y-68925476D01*
X98693866Y-68925476D02*
X98455771Y-68925476D01*
X98455771Y-68925476D02*
X98265295Y-68973095D01*
X98265295Y-68973095D02*
X98170057Y-69020714D01*
X98170057Y-69020714D02*
X98122438Y-69068333D01*
X98122438Y-69068333D02*
X98074819Y-69163571D01*
X110805419Y-61061838D02*
X110329228Y-60728505D01*
X110805419Y-60490410D02*
X109805419Y-60490410D01*
X109805419Y-60490410D02*
X109805419Y-60871362D01*
X109805419Y-60871362D02*
X109853038Y-60966600D01*
X109853038Y-60966600D02*
X109900657Y-61014219D01*
X109900657Y-61014219D02*
X109995895Y-61061838D01*
X109995895Y-61061838D02*
X110138752Y-61061838D01*
X110138752Y-61061838D02*
X110233990Y-61014219D01*
X110233990Y-61014219D02*
X110281609Y-60966600D01*
X110281609Y-60966600D02*
X110329228Y-60871362D01*
X110329228Y-60871362D02*
X110329228Y-60490410D01*
X110805419Y-62014219D02*
X110805419Y-61442791D01*
X110805419Y-61728505D02*
X109805419Y-61728505D01*
X109805419Y-61728505D02*
X109948276Y-61633267D01*
X109948276Y-61633267D02*
X110043514Y-61538029D01*
X110043514Y-61538029D02*
X110091133Y-61442791D01*
X110138752Y-62871362D02*
X110805419Y-62871362D01*
X109757800Y-62633267D02*
X110472085Y-62395172D01*
X110472085Y-62395172D02*
X110472085Y-63014219D01*
X119259580Y-50371742D02*
X119307200Y-50324123D01*
X119307200Y-50324123D02*
X119354819Y-50181266D01*
X119354819Y-50181266D02*
X119354819Y-50086028D01*
X119354819Y-50086028D02*
X119307200Y-49943171D01*
X119307200Y-49943171D02*
X119211961Y-49847933D01*
X119211961Y-49847933D02*
X119116723Y-49800314D01*
X119116723Y-49800314D02*
X118926247Y-49752695D01*
X118926247Y-49752695D02*
X118783390Y-49752695D01*
X118783390Y-49752695D02*
X118592914Y-49800314D01*
X118592914Y-49800314D02*
X118497676Y-49847933D01*
X118497676Y-49847933D02*
X118402438Y-49943171D01*
X118402438Y-49943171D02*
X118354819Y-50086028D01*
X118354819Y-50086028D02*
X118354819Y-50181266D01*
X118354819Y-50181266D02*
X118402438Y-50324123D01*
X118402438Y-50324123D02*
X118450057Y-50371742D01*
X118450057Y-50752695D02*
X118402438Y-50800314D01*
X118402438Y-50800314D02*
X118354819Y-50895552D01*
X118354819Y-50895552D02*
X118354819Y-51133647D01*
X118354819Y-51133647D02*
X118402438Y-51228885D01*
X118402438Y-51228885D02*
X118450057Y-51276504D01*
X118450057Y-51276504D02*
X118545295Y-51324123D01*
X118545295Y-51324123D02*
X118640533Y-51324123D01*
X118640533Y-51324123D02*
X118783390Y-51276504D01*
X118783390Y-51276504D02*
X119354819Y-50705076D01*
X119354819Y-50705076D02*
X119354819Y-51324123D01*
X118354819Y-52181266D02*
X118354819Y-51990790D01*
X118354819Y-51990790D02*
X118402438Y-51895552D01*
X118402438Y-51895552D02*
X118450057Y-51847933D01*
X118450057Y-51847933D02*
X118592914Y-51752695D01*
X118592914Y-51752695D02*
X118783390Y-51705076D01*
X118783390Y-51705076D02*
X119164342Y-51705076D01*
X119164342Y-51705076D02*
X119259580Y-51752695D01*
X119259580Y-51752695D02*
X119307200Y-51800314D01*
X119307200Y-51800314D02*
X119354819Y-51895552D01*
X119354819Y-51895552D02*
X119354819Y-52086028D01*
X119354819Y-52086028D02*
X119307200Y-52181266D01*
X119307200Y-52181266D02*
X119259580Y-52228885D01*
X119259580Y-52228885D02*
X119164342Y-52276504D01*
X119164342Y-52276504D02*
X118926247Y-52276504D01*
X118926247Y-52276504D02*
X118831009Y-52228885D01*
X118831009Y-52228885D02*
X118783390Y-52181266D01*
X118783390Y-52181266D02*
X118735771Y-52086028D01*
X118735771Y-52086028D02*
X118735771Y-51895552D01*
X118735771Y-51895552D02*
X118783390Y-51800314D01*
X118783390Y-51800314D02*
X118831009Y-51752695D01*
X118831009Y-51752695D02*
X118926247Y-51705076D01*
X129774819Y-50281905D02*
X128774819Y-50281905D01*
X128774819Y-50281905D02*
X128774819Y-50520000D01*
X128774819Y-50520000D02*
X128822438Y-50662857D01*
X128822438Y-50662857D02*
X128917676Y-50758095D01*
X128917676Y-50758095D02*
X129012914Y-50805714D01*
X129012914Y-50805714D02*
X129203390Y-50853333D01*
X129203390Y-50853333D02*
X129346247Y-50853333D01*
X129346247Y-50853333D02*
X129536723Y-50805714D01*
X129536723Y-50805714D02*
X129631961Y-50758095D01*
X129631961Y-50758095D02*
X129727200Y-50662857D01*
X129727200Y-50662857D02*
X129774819Y-50520000D01*
X129774819Y-50520000D02*
X129774819Y-50281905D01*
X128774819Y-51186667D02*
X128774819Y-51853333D01*
X128774819Y-51853333D02*
X129774819Y-51424762D01*
X122099580Y-70994142D02*
X122147200Y-70946523D01*
X122147200Y-70946523D02*
X122194819Y-70803666D01*
X122194819Y-70803666D02*
X122194819Y-70708428D01*
X122194819Y-70708428D02*
X122147200Y-70565571D01*
X122147200Y-70565571D02*
X122051961Y-70470333D01*
X122051961Y-70470333D02*
X121956723Y-70422714D01*
X121956723Y-70422714D02*
X121766247Y-70375095D01*
X121766247Y-70375095D02*
X121623390Y-70375095D01*
X121623390Y-70375095D02*
X121432914Y-70422714D01*
X121432914Y-70422714D02*
X121337676Y-70470333D01*
X121337676Y-70470333D02*
X121242438Y-70565571D01*
X121242438Y-70565571D02*
X121194819Y-70708428D01*
X121194819Y-70708428D02*
X121194819Y-70803666D01*
X121194819Y-70803666D02*
X121242438Y-70946523D01*
X121242438Y-70946523D02*
X121290057Y-70994142D01*
X121290057Y-71375095D02*
X121242438Y-71422714D01*
X121242438Y-71422714D02*
X121194819Y-71517952D01*
X121194819Y-71517952D02*
X121194819Y-71756047D01*
X121194819Y-71756047D02*
X121242438Y-71851285D01*
X121242438Y-71851285D02*
X121290057Y-71898904D01*
X121290057Y-71898904D02*
X121385295Y-71946523D01*
X121385295Y-71946523D02*
X121480533Y-71946523D01*
X121480533Y-71946523D02*
X121623390Y-71898904D01*
X121623390Y-71898904D02*
X122194819Y-71327476D01*
X122194819Y-71327476D02*
X122194819Y-71946523D01*
X121528152Y-72803666D02*
X122194819Y-72803666D01*
X121147200Y-72565571D02*
X121861485Y-72327476D01*
X121861485Y-72327476D02*
X121861485Y-72946523D01*
X105544819Y-71017142D02*
X105068628Y-70683809D01*
X105544819Y-70445714D02*
X104544819Y-70445714D01*
X104544819Y-70445714D02*
X104544819Y-70826666D01*
X104544819Y-70826666D02*
X104592438Y-70921904D01*
X104592438Y-70921904D02*
X104640057Y-70969523D01*
X104640057Y-70969523D02*
X104735295Y-71017142D01*
X104735295Y-71017142D02*
X104878152Y-71017142D01*
X104878152Y-71017142D02*
X104973390Y-70969523D01*
X104973390Y-70969523D02*
X105021009Y-70921904D01*
X105021009Y-70921904D02*
X105068628Y-70826666D01*
X105068628Y-70826666D02*
X105068628Y-70445714D01*
X105544819Y-71969523D02*
X105544819Y-71398095D01*
X105544819Y-71683809D02*
X104544819Y-71683809D01*
X104544819Y-71683809D02*
X104687676Y-71588571D01*
X104687676Y-71588571D02*
X104782914Y-71493333D01*
X104782914Y-71493333D02*
X104830533Y-71398095D01*
X104544819Y-72826666D02*
X104544819Y-72636190D01*
X104544819Y-72636190D02*
X104592438Y-72540952D01*
X104592438Y-72540952D02*
X104640057Y-72493333D01*
X104640057Y-72493333D02*
X104782914Y-72398095D01*
X104782914Y-72398095D02*
X104973390Y-72350476D01*
X104973390Y-72350476D02*
X105354342Y-72350476D01*
X105354342Y-72350476D02*
X105449580Y-72398095D01*
X105449580Y-72398095D02*
X105497200Y-72445714D01*
X105497200Y-72445714D02*
X105544819Y-72540952D01*
X105544819Y-72540952D02*
X105544819Y-72731428D01*
X105544819Y-72731428D02*
X105497200Y-72826666D01*
X105497200Y-72826666D02*
X105449580Y-72874285D01*
X105449580Y-72874285D02*
X105354342Y-72921904D01*
X105354342Y-72921904D02*
X105116247Y-72921904D01*
X105116247Y-72921904D02*
X105021009Y-72874285D01*
X105021009Y-72874285D02*
X104973390Y-72826666D01*
X104973390Y-72826666D02*
X104925771Y-72731428D01*
X104925771Y-72731428D02*
X104925771Y-72540952D01*
X104925771Y-72540952D02*
X104973390Y-72445714D01*
X104973390Y-72445714D02*
X105021009Y-72398095D01*
X105021009Y-72398095D02*
X105116247Y-72350476D01*
X102502857Y-67334819D02*
X102836190Y-66858628D01*
X103074285Y-67334819D02*
X103074285Y-66334819D01*
X103074285Y-66334819D02*
X102693333Y-66334819D01*
X102693333Y-66334819D02*
X102598095Y-66382438D01*
X102598095Y-66382438D02*
X102550476Y-66430057D01*
X102550476Y-66430057D02*
X102502857Y-66525295D01*
X102502857Y-66525295D02*
X102502857Y-66668152D01*
X102502857Y-66668152D02*
X102550476Y-66763390D01*
X102550476Y-66763390D02*
X102598095Y-66811009D01*
X102598095Y-66811009D02*
X102693333Y-66858628D01*
X102693333Y-66858628D02*
X103074285Y-66858628D01*
X101550476Y-67334819D02*
X102121904Y-67334819D01*
X101836190Y-67334819D02*
X101836190Y-66334819D01*
X101836190Y-66334819D02*
X101931428Y-66477676D01*
X101931428Y-66477676D02*
X102026666Y-66572914D01*
X102026666Y-66572914D02*
X102121904Y-66620533D01*
X101074285Y-67334819D02*
X100883809Y-67334819D01*
X100883809Y-67334819D02*
X100788571Y-67287200D01*
X100788571Y-67287200D02*
X100740952Y-67239580D01*
X100740952Y-67239580D02*
X100645714Y-67096723D01*
X100645714Y-67096723D02*
X100598095Y-66906247D01*
X100598095Y-66906247D02*
X100598095Y-66525295D01*
X100598095Y-66525295D02*
X100645714Y-66430057D01*
X100645714Y-66430057D02*
X100693333Y-66382438D01*
X100693333Y-66382438D02*
X100788571Y-66334819D01*
X100788571Y-66334819D02*
X100979047Y-66334819D01*
X100979047Y-66334819D02*
X101074285Y-66382438D01*
X101074285Y-66382438D02*
X101121904Y-66430057D01*
X101121904Y-66430057D02*
X101169523Y-66525295D01*
X101169523Y-66525295D02*
X101169523Y-66763390D01*
X101169523Y-66763390D02*
X101121904Y-66858628D01*
X101121904Y-66858628D02*
X101074285Y-66906247D01*
X101074285Y-66906247D02*
X100979047Y-66953866D01*
X100979047Y-66953866D02*
X100788571Y-66953866D01*
X100788571Y-66953866D02*
X100693333Y-66906247D01*
X100693333Y-66906247D02*
X100645714Y-66858628D01*
X100645714Y-66858628D02*
X100598095Y-66763390D01*
X129644819Y-54083333D02*
X129168628Y-53750000D01*
X129644819Y-53511905D02*
X128644819Y-53511905D01*
X128644819Y-53511905D02*
X128644819Y-53892857D01*
X128644819Y-53892857D02*
X128692438Y-53988095D01*
X128692438Y-53988095D02*
X128740057Y-54035714D01*
X128740057Y-54035714D02*
X128835295Y-54083333D01*
X128835295Y-54083333D02*
X128978152Y-54083333D01*
X128978152Y-54083333D02*
X129073390Y-54035714D01*
X129073390Y-54035714D02*
X129121009Y-53988095D01*
X129121009Y-53988095D02*
X129168628Y-53892857D01*
X129168628Y-53892857D02*
X129168628Y-53511905D01*
X129073390Y-54654762D02*
X129025771Y-54559524D01*
X129025771Y-54559524D02*
X128978152Y-54511905D01*
X128978152Y-54511905D02*
X128882914Y-54464286D01*
X128882914Y-54464286D02*
X128835295Y-54464286D01*
X128835295Y-54464286D02*
X128740057Y-54511905D01*
X128740057Y-54511905D02*
X128692438Y-54559524D01*
X128692438Y-54559524D02*
X128644819Y-54654762D01*
X128644819Y-54654762D02*
X128644819Y-54845238D01*
X128644819Y-54845238D02*
X128692438Y-54940476D01*
X128692438Y-54940476D02*
X128740057Y-54988095D01*
X128740057Y-54988095D02*
X128835295Y-55035714D01*
X128835295Y-55035714D02*
X128882914Y-55035714D01*
X128882914Y-55035714D02*
X128978152Y-54988095D01*
X128978152Y-54988095D02*
X129025771Y-54940476D01*
X129025771Y-54940476D02*
X129073390Y-54845238D01*
X129073390Y-54845238D02*
X129073390Y-54654762D01*
X129073390Y-54654762D02*
X129121009Y-54559524D01*
X129121009Y-54559524D02*
X129168628Y-54511905D01*
X129168628Y-54511905D02*
X129263866Y-54464286D01*
X129263866Y-54464286D02*
X129454342Y-54464286D01*
X129454342Y-54464286D02*
X129549580Y-54511905D01*
X129549580Y-54511905D02*
X129597200Y-54559524D01*
X129597200Y-54559524D02*
X129644819Y-54654762D01*
X129644819Y-54654762D02*
X129644819Y-54845238D01*
X129644819Y-54845238D02*
X129597200Y-54940476D01*
X129597200Y-54940476D02*
X129549580Y-54988095D01*
X129549580Y-54988095D02*
X129454342Y-55035714D01*
X129454342Y-55035714D02*
X129263866Y-55035714D01*
X129263866Y-55035714D02*
X129168628Y-54988095D01*
X129168628Y-54988095D02*
X129121009Y-54940476D01*
X129121009Y-54940476D02*
X129073390Y-54845238D01*
X97792857Y-47419580D02*
X97840476Y-47467200D01*
X97840476Y-47467200D02*
X97983333Y-47514819D01*
X97983333Y-47514819D02*
X98078571Y-47514819D01*
X98078571Y-47514819D02*
X98221428Y-47467200D01*
X98221428Y-47467200D02*
X98316666Y-47371961D01*
X98316666Y-47371961D02*
X98364285Y-47276723D01*
X98364285Y-47276723D02*
X98411904Y-47086247D01*
X98411904Y-47086247D02*
X98411904Y-46943390D01*
X98411904Y-46943390D02*
X98364285Y-46752914D01*
X98364285Y-46752914D02*
X98316666Y-46657676D01*
X98316666Y-46657676D02*
X98221428Y-46562438D01*
X98221428Y-46562438D02*
X98078571Y-46514819D01*
X98078571Y-46514819D02*
X97983333Y-46514819D01*
X97983333Y-46514819D02*
X97840476Y-46562438D01*
X97840476Y-46562438D02*
X97792857Y-46610057D01*
X97411904Y-46610057D02*
X97364285Y-46562438D01*
X97364285Y-46562438D02*
X97269047Y-46514819D01*
X97269047Y-46514819D02*
X97030952Y-46514819D01*
X97030952Y-46514819D02*
X96935714Y-46562438D01*
X96935714Y-46562438D02*
X96888095Y-46610057D01*
X96888095Y-46610057D02*
X96840476Y-46705295D01*
X96840476Y-46705295D02*
X96840476Y-46800533D01*
X96840476Y-46800533D02*
X96888095Y-46943390D01*
X96888095Y-46943390D02*
X97459523Y-47514819D01*
X97459523Y-47514819D02*
X96840476Y-47514819D01*
X96364285Y-47514819D02*
X96173809Y-47514819D01*
X96173809Y-47514819D02*
X96078571Y-47467200D01*
X96078571Y-47467200D02*
X96030952Y-47419580D01*
X96030952Y-47419580D02*
X95935714Y-47276723D01*
X95935714Y-47276723D02*
X95888095Y-47086247D01*
X95888095Y-47086247D02*
X95888095Y-46705295D01*
X95888095Y-46705295D02*
X95935714Y-46610057D01*
X95935714Y-46610057D02*
X95983333Y-46562438D01*
X95983333Y-46562438D02*
X96078571Y-46514819D01*
X96078571Y-46514819D02*
X96269047Y-46514819D01*
X96269047Y-46514819D02*
X96364285Y-46562438D01*
X96364285Y-46562438D02*
X96411904Y-46610057D01*
X96411904Y-46610057D02*
X96459523Y-46705295D01*
X96459523Y-46705295D02*
X96459523Y-46943390D01*
X96459523Y-46943390D02*
X96411904Y-47038628D01*
X96411904Y-47038628D02*
X96364285Y-47086247D01*
X96364285Y-47086247D02*
X96269047Y-47133866D01*
X96269047Y-47133866D02*
X96078571Y-47133866D01*
X96078571Y-47133866D02*
X95983333Y-47086247D01*
X95983333Y-47086247D02*
X95935714Y-47038628D01*
X95935714Y-47038628D02*
X95888095Y-46943390D01*
X122946666Y-49364819D02*
X123422856Y-49364819D01*
X123422856Y-49364819D02*
X123422856Y-48364819D01*
X122089523Y-49364819D02*
X122660951Y-49364819D01*
X122375237Y-49364819D02*
X122375237Y-48364819D01*
X122375237Y-48364819D02*
X122470475Y-48507676D01*
X122470475Y-48507676D02*
X122565713Y-48602914D01*
X122565713Y-48602914D02*
X122660951Y-48650533D01*
X69959523Y-65104819D02*
X69959523Y-65819104D01*
X69959523Y-65819104D02*
X70007142Y-65961961D01*
X70007142Y-65961961D02*
X70102380Y-66057200D01*
X70102380Y-66057200D02*
X70245237Y-66104819D01*
X70245237Y-66104819D02*
X70340475Y-66104819D01*
X68959523Y-66104819D02*
X69530951Y-66104819D01*
X69245237Y-66104819D02*
X69245237Y-65104819D01*
X69245237Y-65104819D02*
X69340475Y-65247676D01*
X69340475Y-65247676D02*
X69435713Y-65342914D01*
X69435713Y-65342914D02*
X69530951Y-65390533D01*
X68578570Y-65200057D02*
X68530951Y-65152438D01*
X68530951Y-65152438D02*
X68435713Y-65104819D01*
X68435713Y-65104819D02*
X68197618Y-65104819D01*
X68197618Y-65104819D02*
X68102380Y-65152438D01*
X68102380Y-65152438D02*
X68054761Y-65200057D01*
X68054761Y-65200057D02*
X68007142Y-65295295D01*
X68007142Y-65295295D02*
X68007142Y-65390533D01*
X68007142Y-65390533D02*
X68054761Y-65533390D01*
X68054761Y-65533390D02*
X68626189Y-66104819D01*
X68626189Y-66104819D02*
X68007142Y-66104819D01*
X71224028Y-67070900D02*
X70081171Y-67070900D01*
X70652599Y-67642328D02*
X70652599Y-66499471D01*
X131388697Y-54445919D02*
X131388697Y-55160204D01*
X131388697Y-55160204D02*
X131436316Y-55303061D01*
X131436316Y-55303061D02*
X131531554Y-55398300D01*
X131531554Y-55398300D02*
X131674411Y-55445919D01*
X131674411Y-55445919D02*
X131769649Y-55445919D01*
X130388697Y-55445919D02*
X130960125Y-55445919D01*
X130674411Y-55445919D02*
X130674411Y-54445919D01*
X130674411Y-54445919D02*
X130769649Y-54588776D01*
X130769649Y-54588776D02*
X130864887Y-54684014D01*
X130864887Y-54684014D02*
X130960125Y-54731633D01*
X129531554Y-54779252D02*
X129531554Y-55445919D01*
X129769649Y-54398300D02*
X130007744Y-55112585D01*
X130007744Y-55112585D02*
X129388697Y-55112585D01*
X118059580Y-66817142D02*
X118107200Y-66769523D01*
X118107200Y-66769523D02*
X118154819Y-66626666D01*
X118154819Y-66626666D02*
X118154819Y-66531428D01*
X118154819Y-66531428D02*
X118107200Y-66388571D01*
X118107200Y-66388571D02*
X118011961Y-66293333D01*
X118011961Y-66293333D02*
X117916723Y-66245714D01*
X117916723Y-66245714D02*
X117726247Y-66198095D01*
X117726247Y-66198095D02*
X117583390Y-66198095D01*
X117583390Y-66198095D02*
X117392914Y-66245714D01*
X117392914Y-66245714D02*
X117297676Y-66293333D01*
X117297676Y-66293333D02*
X117202438Y-66388571D01*
X117202438Y-66388571D02*
X117154819Y-66531428D01*
X117154819Y-66531428D02*
X117154819Y-66626666D01*
X117154819Y-66626666D02*
X117202438Y-66769523D01*
X117202438Y-66769523D02*
X117250057Y-66817142D01*
X118154819Y-67769523D02*
X118154819Y-67198095D01*
X118154819Y-67483809D02*
X117154819Y-67483809D01*
X117154819Y-67483809D02*
X117297676Y-67388571D01*
X117297676Y-67388571D02*
X117392914Y-67293333D01*
X117392914Y-67293333D02*
X117440533Y-67198095D01*
X117154819Y-68626666D02*
X117154819Y-68436190D01*
X117154819Y-68436190D02*
X117202438Y-68340952D01*
X117202438Y-68340952D02*
X117250057Y-68293333D01*
X117250057Y-68293333D02*
X117392914Y-68198095D01*
X117392914Y-68198095D02*
X117583390Y-68150476D01*
X117583390Y-68150476D02*
X117964342Y-68150476D01*
X117964342Y-68150476D02*
X118059580Y-68198095D01*
X118059580Y-68198095D02*
X118107200Y-68245714D01*
X118107200Y-68245714D02*
X118154819Y-68340952D01*
X118154819Y-68340952D02*
X118154819Y-68531428D01*
X118154819Y-68531428D02*
X118107200Y-68626666D01*
X118107200Y-68626666D02*
X118059580Y-68674285D01*
X118059580Y-68674285D02*
X117964342Y-68721904D01*
X117964342Y-68721904D02*
X117726247Y-68721904D01*
X117726247Y-68721904D02*
X117631009Y-68674285D01*
X117631009Y-68674285D02*
X117583390Y-68626666D01*
X117583390Y-68626666D02*
X117535771Y-68531428D01*
X117535771Y-68531428D02*
X117535771Y-68340952D01*
X117535771Y-68340952D02*
X117583390Y-68245714D01*
X117583390Y-68245714D02*
X117631009Y-68198095D01*
X117631009Y-68198095D02*
X117726247Y-68150476D01*
X99074819Y-71067142D02*
X98598628Y-70733809D01*
X99074819Y-70495714D02*
X98074819Y-70495714D01*
X98074819Y-70495714D02*
X98074819Y-70876666D01*
X98074819Y-70876666D02*
X98122438Y-70971904D01*
X98122438Y-70971904D02*
X98170057Y-71019523D01*
X98170057Y-71019523D02*
X98265295Y-71067142D01*
X98265295Y-71067142D02*
X98408152Y-71067142D01*
X98408152Y-71067142D02*
X98503390Y-71019523D01*
X98503390Y-71019523D02*
X98551009Y-70971904D01*
X98551009Y-70971904D02*
X98598628Y-70876666D01*
X98598628Y-70876666D02*
X98598628Y-70495714D01*
X99074819Y-72019523D02*
X99074819Y-71448095D01*
X99074819Y-71733809D02*
X98074819Y-71733809D01*
X98074819Y-71733809D02*
X98217676Y-71638571D01*
X98217676Y-71638571D02*
X98312914Y-71543333D01*
X98312914Y-71543333D02*
X98360533Y-71448095D01*
X99074819Y-72971904D02*
X99074819Y-72400476D01*
X99074819Y-72686190D02*
X98074819Y-72686190D01*
X98074819Y-72686190D02*
X98217676Y-72590952D01*
X98217676Y-72590952D02*
X98312914Y-72495714D01*
X98312914Y-72495714D02*
X98360533Y-72400476D01*
X102529457Y-68824819D02*
X102862790Y-68348628D01*
X103100885Y-68824819D02*
X103100885Y-67824819D01*
X103100885Y-67824819D02*
X102719933Y-67824819D01*
X102719933Y-67824819D02*
X102624695Y-67872438D01*
X102624695Y-67872438D02*
X102577076Y-67920057D01*
X102577076Y-67920057D02*
X102529457Y-68015295D01*
X102529457Y-68015295D02*
X102529457Y-68158152D01*
X102529457Y-68158152D02*
X102577076Y-68253390D01*
X102577076Y-68253390D02*
X102624695Y-68301009D01*
X102624695Y-68301009D02*
X102719933Y-68348628D01*
X102719933Y-68348628D02*
X103100885Y-68348628D01*
X102148504Y-67920057D02*
X102100885Y-67872438D01*
X102100885Y-67872438D02*
X102005647Y-67824819D01*
X102005647Y-67824819D02*
X101767552Y-67824819D01*
X101767552Y-67824819D02*
X101672314Y-67872438D01*
X101672314Y-67872438D02*
X101624695Y-67920057D01*
X101624695Y-67920057D02*
X101577076Y-68015295D01*
X101577076Y-68015295D02*
X101577076Y-68110533D01*
X101577076Y-68110533D02*
X101624695Y-68253390D01*
X101624695Y-68253390D02*
X102196123Y-68824819D01*
X102196123Y-68824819D02*
X101577076Y-68824819D01*
X100958028Y-67824819D02*
X100862790Y-67824819D01*
X100862790Y-67824819D02*
X100767552Y-67872438D01*
X100767552Y-67872438D02*
X100719933Y-67920057D01*
X100719933Y-67920057D02*
X100672314Y-68015295D01*
X100672314Y-68015295D02*
X100624695Y-68205771D01*
X100624695Y-68205771D02*
X100624695Y-68443866D01*
X100624695Y-68443866D02*
X100672314Y-68634342D01*
X100672314Y-68634342D02*
X100719933Y-68729580D01*
X100719933Y-68729580D02*
X100767552Y-68777200D01*
X100767552Y-68777200D02*
X100862790Y-68824819D01*
X100862790Y-68824819D02*
X100958028Y-68824819D01*
X100958028Y-68824819D02*
X101053266Y-68777200D01*
X101053266Y-68777200D02*
X101100885Y-68729580D01*
X101100885Y-68729580D02*
X101148504Y-68634342D01*
X101148504Y-68634342D02*
X101196123Y-68443866D01*
X101196123Y-68443866D02*
X101196123Y-68205771D01*
X101196123Y-68205771D02*
X101148504Y-68015295D01*
X101148504Y-68015295D02*
X101100885Y-67920057D01*
X101100885Y-67920057D02*
X101053266Y-67872438D01*
X101053266Y-67872438D02*
X100958028Y-67824819D01*
X122943457Y-50747780D02*
X122991076Y-50795400D01*
X122991076Y-50795400D02*
X123133933Y-50843019D01*
X123133933Y-50843019D02*
X123229171Y-50843019D01*
X123229171Y-50843019D02*
X123372028Y-50795400D01*
X123372028Y-50795400D02*
X123467266Y-50700161D01*
X123467266Y-50700161D02*
X123514885Y-50604923D01*
X123514885Y-50604923D02*
X123562504Y-50414447D01*
X123562504Y-50414447D02*
X123562504Y-50271590D01*
X123562504Y-50271590D02*
X123514885Y-50081114D01*
X123514885Y-50081114D02*
X123467266Y-49985876D01*
X123467266Y-49985876D02*
X123372028Y-49890638D01*
X123372028Y-49890638D02*
X123229171Y-49843019D01*
X123229171Y-49843019D02*
X123133933Y-49843019D01*
X123133933Y-49843019D02*
X122991076Y-49890638D01*
X122991076Y-49890638D02*
X122943457Y-49938257D01*
X122562504Y-49938257D02*
X122514885Y-49890638D01*
X122514885Y-49890638D02*
X122419647Y-49843019D01*
X122419647Y-49843019D02*
X122181552Y-49843019D01*
X122181552Y-49843019D02*
X122086314Y-49890638D01*
X122086314Y-49890638D02*
X122038695Y-49938257D01*
X122038695Y-49938257D02*
X121991076Y-50033495D01*
X121991076Y-50033495D02*
X121991076Y-50128733D01*
X121991076Y-50128733D02*
X122038695Y-50271590D01*
X122038695Y-50271590D02*
X122610123Y-50843019D01*
X122610123Y-50843019D02*
X121991076Y-50843019D01*
X121038695Y-50843019D02*
X121610123Y-50843019D01*
X121324409Y-50843019D02*
X121324409Y-49843019D01*
X121324409Y-49843019D02*
X121419647Y-49985876D01*
X121419647Y-49985876D02*
X121514885Y-50081114D01*
X121514885Y-50081114D02*
X121610123Y-50128733D01*
X125971904Y-54744819D02*
X125971904Y-55554342D01*
X125971904Y-55554342D02*
X125924285Y-55649580D01*
X125924285Y-55649580D02*
X125876666Y-55697200D01*
X125876666Y-55697200D02*
X125781428Y-55744819D01*
X125781428Y-55744819D02*
X125590952Y-55744819D01*
X125590952Y-55744819D02*
X125495714Y-55697200D01*
X125495714Y-55697200D02*
X125448095Y-55649580D01*
X125448095Y-55649580D02*
X125400476Y-55554342D01*
X125400476Y-55554342D02*
X125400476Y-54744819D01*
X124495714Y-54744819D02*
X124686190Y-54744819D01*
X124686190Y-54744819D02*
X124781428Y-54792438D01*
X124781428Y-54792438D02*
X124829047Y-54840057D01*
X124829047Y-54840057D02*
X124924285Y-54982914D01*
X124924285Y-54982914D02*
X124971904Y-55173390D01*
X124971904Y-55173390D02*
X124971904Y-55554342D01*
X124971904Y-55554342D02*
X124924285Y-55649580D01*
X124924285Y-55649580D02*
X124876666Y-55697200D01*
X124876666Y-55697200D02*
X124781428Y-55744819D01*
X124781428Y-55744819D02*
X124590952Y-55744819D01*
X124590952Y-55744819D02*
X124495714Y-55697200D01*
X124495714Y-55697200D02*
X124448095Y-55649580D01*
X124448095Y-55649580D02*
X124400476Y-55554342D01*
X124400476Y-55554342D02*
X124400476Y-55316247D01*
X124400476Y-55316247D02*
X124448095Y-55221009D01*
X124448095Y-55221009D02*
X124495714Y-55173390D01*
X124495714Y-55173390D02*
X124590952Y-55125771D01*
X124590952Y-55125771D02*
X124781428Y-55125771D01*
X124781428Y-55125771D02*
X124876666Y-55173390D01*
X124876666Y-55173390D02*
X124924285Y-55221009D01*
X124924285Y-55221009D02*
X124971904Y-55316247D01*
X129619580Y-46783342D02*
X129667200Y-46735723D01*
X129667200Y-46735723D02*
X129714819Y-46592866D01*
X129714819Y-46592866D02*
X129714819Y-46497628D01*
X129714819Y-46497628D02*
X129667200Y-46354771D01*
X129667200Y-46354771D02*
X129571961Y-46259533D01*
X129571961Y-46259533D02*
X129476723Y-46211914D01*
X129476723Y-46211914D02*
X129286247Y-46164295D01*
X129286247Y-46164295D02*
X129143390Y-46164295D01*
X129143390Y-46164295D02*
X128952914Y-46211914D01*
X128952914Y-46211914D02*
X128857676Y-46259533D01*
X128857676Y-46259533D02*
X128762438Y-46354771D01*
X128762438Y-46354771D02*
X128714819Y-46497628D01*
X128714819Y-46497628D02*
X128714819Y-46592866D01*
X128714819Y-46592866D02*
X128762438Y-46735723D01*
X128762438Y-46735723D02*
X128810057Y-46783342D01*
X129714819Y-47735723D02*
X129714819Y-47164295D01*
X129714819Y-47450009D02*
X128714819Y-47450009D01*
X128714819Y-47450009D02*
X128857676Y-47354771D01*
X128857676Y-47354771D02*
X128952914Y-47259533D01*
X128952914Y-47259533D02*
X129000533Y-47164295D01*
X129048152Y-48592866D02*
X129714819Y-48592866D01*
X128667200Y-48354771D02*
X129381485Y-48116676D01*
X129381485Y-48116676D02*
X129381485Y-48735723D01*
X122249819Y-74457142D02*
X121773628Y-74123809D01*
X122249819Y-73885714D02*
X121249819Y-73885714D01*
X121249819Y-73885714D02*
X121249819Y-74266666D01*
X121249819Y-74266666D02*
X121297438Y-74361904D01*
X121297438Y-74361904D02*
X121345057Y-74409523D01*
X121345057Y-74409523D02*
X121440295Y-74457142D01*
X121440295Y-74457142D02*
X121583152Y-74457142D01*
X121583152Y-74457142D02*
X121678390Y-74409523D01*
X121678390Y-74409523D02*
X121726009Y-74361904D01*
X121726009Y-74361904D02*
X121773628Y-74266666D01*
X121773628Y-74266666D02*
X121773628Y-73885714D01*
X122249819Y-75409523D02*
X122249819Y-74838095D01*
X122249819Y-75123809D02*
X121249819Y-75123809D01*
X121249819Y-75123809D02*
X121392676Y-75028571D01*
X121392676Y-75028571D02*
X121487914Y-74933333D01*
X121487914Y-74933333D02*
X121535533Y-74838095D01*
X121345057Y-75790476D02*
X121297438Y-75838095D01*
X121297438Y-75838095D02*
X121249819Y-75933333D01*
X121249819Y-75933333D02*
X121249819Y-76171428D01*
X121249819Y-76171428D02*
X121297438Y-76266666D01*
X121297438Y-76266666D02*
X121345057Y-76314285D01*
X121345057Y-76314285D02*
X121440295Y-76361904D01*
X121440295Y-76361904D02*
X121535533Y-76361904D01*
X121535533Y-76361904D02*
X121678390Y-76314285D01*
X121678390Y-76314285D02*
X122249819Y-75742857D01*
X122249819Y-75742857D02*
X122249819Y-76361904D01*
X96642857Y-57304580D02*
X96690476Y-57352200D01*
X96690476Y-57352200D02*
X96833333Y-57399819D01*
X96833333Y-57399819D02*
X96928571Y-57399819D01*
X96928571Y-57399819D02*
X97071428Y-57352200D01*
X97071428Y-57352200D02*
X97166666Y-57256961D01*
X97166666Y-57256961D02*
X97214285Y-57161723D01*
X97214285Y-57161723D02*
X97261904Y-56971247D01*
X97261904Y-56971247D02*
X97261904Y-56828390D01*
X97261904Y-56828390D02*
X97214285Y-56637914D01*
X97214285Y-56637914D02*
X97166666Y-56542676D01*
X97166666Y-56542676D02*
X97071428Y-56447438D01*
X97071428Y-56447438D02*
X96928571Y-56399819D01*
X96928571Y-56399819D02*
X96833333Y-56399819D01*
X96833333Y-56399819D02*
X96690476Y-56447438D01*
X96690476Y-56447438D02*
X96642857Y-56495057D01*
X95690476Y-57399819D02*
X96261904Y-57399819D01*
X95976190Y-57399819D02*
X95976190Y-56399819D01*
X95976190Y-56399819D02*
X96071428Y-56542676D01*
X96071428Y-56542676D02*
X96166666Y-56637914D01*
X96166666Y-56637914D02*
X96261904Y-56685533D01*
X95119047Y-56828390D02*
X95214285Y-56780771D01*
X95214285Y-56780771D02*
X95261904Y-56733152D01*
X95261904Y-56733152D02*
X95309523Y-56637914D01*
X95309523Y-56637914D02*
X95309523Y-56590295D01*
X95309523Y-56590295D02*
X95261904Y-56495057D01*
X95261904Y-56495057D02*
X95214285Y-56447438D01*
X95214285Y-56447438D02*
X95119047Y-56399819D01*
X95119047Y-56399819D02*
X94928571Y-56399819D01*
X94928571Y-56399819D02*
X94833333Y-56447438D01*
X94833333Y-56447438D02*
X94785714Y-56495057D01*
X94785714Y-56495057D02*
X94738095Y-56590295D01*
X94738095Y-56590295D02*
X94738095Y-56637914D01*
X94738095Y-56637914D02*
X94785714Y-56733152D01*
X94785714Y-56733152D02*
X94833333Y-56780771D01*
X94833333Y-56780771D02*
X94928571Y-56828390D01*
X94928571Y-56828390D02*
X95119047Y-56828390D01*
X95119047Y-56828390D02*
X95214285Y-56876009D01*
X95214285Y-56876009D02*
X95261904Y-56923628D01*
X95261904Y-56923628D02*
X95309523Y-57018866D01*
X95309523Y-57018866D02*
X95309523Y-57209342D01*
X95309523Y-57209342D02*
X95261904Y-57304580D01*
X95261904Y-57304580D02*
X95214285Y-57352200D01*
X95214285Y-57352200D02*
X95119047Y-57399819D01*
X95119047Y-57399819D02*
X94928571Y-57399819D01*
X94928571Y-57399819D02*
X94833333Y-57352200D01*
X94833333Y-57352200D02*
X94785714Y-57304580D01*
X94785714Y-57304580D02*
X94738095Y-57209342D01*
X94738095Y-57209342D02*
X94738095Y-57018866D01*
X94738095Y-57018866D02*
X94785714Y-56923628D01*
X94785714Y-56923628D02*
X94833333Y-56876009D01*
X94833333Y-56876009D02*
X94928571Y-56828390D01*
X115914354Y-66817142D02*
X115961974Y-66769523D01*
X115961974Y-66769523D02*
X116009593Y-66626666D01*
X116009593Y-66626666D02*
X116009593Y-66531428D01*
X116009593Y-66531428D02*
X115961974Y-66388571D01*
X115961974Y-66388571D02*
X115866735Y-66293333D01*
X115866735Y-66293333D02*
X115771497Y-66245714D01*
X115771497Y-66245714D02*
X115581021Y-66198095D01*
X115581021Y-66198095D02*
X115438164Y-66198095D01*
X115438164Y-66198095D02*
X115247688Y-66245714D01*
X115247688Y-66245714D02*
X115152450Y-66293333D01*
X115152450Y-66293333D02*
X115057212Y-66388571D01*
X115057212Y-66388571D02*
X115009593Y-66531428D01*
X115009593Y-66531428D02*
X115009593Y-66626666D01*
X115009593Y-66626666D02*
X115057212Y-66769523D01*
X115057212Y-66769523D02*
X115104831Y-66817142D01*
X116009593Y-67769523D02*
X116009593Y-67198095D01*
X116009593Y-67483809D02*
X115009593Y-67483809D01*
X115009593Y-67483809D02*
X115152450Y-67388571D01*
X115152450Y-67388571D02*
X115247688Y-67293333D01*
X115247688Y-67293333D02*
X115295307Y-67198095D01*
X116009593Y-68245714D02*
X116009593Y-68436190D01*
X116009593Y-68436190D02*
X115961974Y-68531428D01*
X115961974Y-68531428D02*
X115914354Y-68579047D01*
X115914354Y-68579047D02*
X115771497Y-68674285D01*
X115771497Y-68674285D02*
X115581021Y-68721904D01*
X115581021Y-68721904D02*
X115200069Y-68721904D01*
X115200069Y-68721904D02*
X115104831Y-68674285D01*
X115104831Y-68674285D02*
X115057212Y-68626666D01*
X115057212Y-68626666D02*
X115009593Y-68531428D01*
X115009593Y-68531428D02*
X115009593Y-68340952D01*
X115009593Y-68340952D02*
X115057212Y-68245714D01*
X115057212Y-68245714D02*
X115104831Y-68198095D01*
X115104831Y-68198095D02*
X115200069Y-68150476D01*
X115200069Y-68150476D02*
X115438164Y-68150476D01*
X115438164Y-68150476D02*
X115533402Y-68198095D01*
X115533402Y-68198095D02*
X115581021Y-68245714D01*
X115581021Y-68245714D02*
X115628640Y-68340952D01*
X115628640Y-68340952D02*
X115628640Y-68531428D01*
X115628640Y-68531428D02*
X115581021Y-68626666D01*
X115581021Y-68626666D02*
X115533402Y-68674285D01*
X115533402Y-68674285D02*
X115438164Y-68721904D01*
X126210686Y-70994142D02*
X125734495Y-70660809D01*
X126210686Y-70422714D02*
X125210686Y-70422714D01*
X125210686Y-70422714D02*
X125210686Y-70803666D01*
X125210686Y-70803666D02*
X125258305Y-70898904D01*
X125258305Y-70898904D02*
X125305924Y-70946523D01*
X125305924Y-70946523D02*
X125401162Y-70994142D01*
X125401162Y-70994142D02*
X125544019Y-70994142D01*
X125544019Y-70994142D02*
X125639257Y-70946523D01*
X125639257Y-70946523D02*
X125686876Y-70898904D01*
X125686876Y-70898904D02*
X125734495Y-70803666D01*
X125734495Y-70803666D02*
X125734495Y-70422714D01*
X126210686Y-71946523D02*
X126210686Y-71375095D01*
X126210686Y-71660809D02*
X125210686Y-71660809D01*
X125210686Y-71660809D02*
X125353543Y-71565571D01*
X125353543Y-71565571D02*
X125448781Y-71470333D01*
X125448781Y-71470333D02*
X125496400Y-71375095D01*
X125210686Y-72279857D02*
X125210686Y-72946523D01*
X125210686Y-72946523D02*
X126210686Y-72517952D01*
X40031666Y-50535780D02*
X40079285Y-50583400D01*
X40079285Y-50583400D02*
X40222142Y-50631019D01*
X40222142Y-50631019D02*
X40317380Y-50631019D01*
X40317380Y-50631019D02*
X40460237Y-50583400D01*
X40460237Y-50583400D02*
X40555475Y-50488161D01*
X40555475Y-50488161D02*
X40603094Y-50392923D01*
X40603094Y-50392923D02*
X40650713Y-50202447D01*
X40650713Y-50202447D02*
X40650713Y-50059590D01*
X40650713Y-50059590D02*
X40603094Y-49869114D01*
X40603094Y-49869114D02*
X40555475Y-49773876D01*
X40555475Y-49773876D02*
X40460237Y-49678638D01*
X40460237Y-49678638D02*
X40317380Y-49631019D01*
X40317380Y-49631019D02*
X40222142Y-49631019D01*
X40222142Y-49631019D02*
X40079285Y-49678638D01*
X40079285Y-49678638D02*
X40031666Y-49726257D01*
X39698332Y-49631019D02*
X39031666Y-49631019D01*
X39031666Y-49631019D02*
X39460237Y-50631019D01*
X119259580Y-46907142D02*
X119307200Y-46859523D01*
X119307200Y-46859523D02*
X119354819Y-46716666D01*
X119354819Y-46716666D02*
X119354819Y-46621428D01*
X119354819Y-46621428D02*
X119307200Y-46478571D01*
X119307200Y-46478571D02*
X119211961Y-46383333D01*
X119211961Y-46383333D02*
X119116723Y-46335714D01*
X119116723Y-46335714D02*
X118926247Y-46288095D01*
X118926247Y-46288095D02*
X118783390Y-46288095D01*
X118783390Y-46288095D02*
X118592914Y-46335714D01*
X118592914Y-46335714D02*
X118497676Y-46383333D01*
X118497676Y-46383333D02*
X118402438Y-46478571D01*
X118402438Y-46478571D02*
X118354819Y-46621428D01*
X118354819Y-46621428D02*
X118354819Y-46716666D01*
X118354819Y-46716666D02*
X118402438Y-46859523D01*
X118402438Y-46859523D02*
X118450057Y-46907142D01*
X118450057Y-47288095D02*
X118402438Y-47335714D01*
X118402438Y-47335714D02*
X118354819Y-47430952D01*
X118354819Y-47430952D02*
X118354819Y-47669047D01*
X118354819Y-47669047D02*
X118402438Y-47764285D01*
X118402438Y-47764285D02*
X118450057Y-47811904D01*
X118450057Y-47811904D02*
X118545295Y-47859523D01*
X118545295Y-47859523D02*
X118640533Y-47859523D01*
X118640533Y-47859523D02*
X118783390Y-47811904D01*
X118783390Y-47811904D02*
X119354819Y-47240476D01*
X119354819Y-47240476D02*
X119354819Y-47859523D01*
X118354819Y-48764285D02*
X118354819Y-48288095D01*
X118354819Y-48288095D02*
X118831009Y-48240476D01*
X118831009Y-48240476D02*
X118783390Y-48288095D01*
X118783390Y-48288095D02*
X118735771Y-48383333D01*
X118735771Y-48383333D02*
X118735771Y-48621428D01*
X118735771Y-48621428D02*
X118783390Y-48716666D01*
X118783390Y-48716666D02*
X118831009Y-48764285D01*
X118831009Y-48764285D02*
X118926247Y-48811904D01*
X118926247Y-48811904D02*
X119164342Y-48811904D01*
X119164342Y-48811904D02*
X119259580Y-48764285D01*
X119259580Y-48764285D02*
X119307200Y-48716666D01*
X119307200Y-48716666D02*
X119354819Y-48621428D01*
X119354819Y-48621428D02*
X119354819Y-48383333D01*
X119354819Y-48383333D02*
X119307200Y-48288095D01*
X119307200Y-48288095D02*
X119259580Y-48240476D01*
X97542857Y-45279580D02*
X97590476Y-45327200D01*
X97590476Y-45327200D02*
X97733333Y-45374819D01*
X97733333Y-45374819D02*
X97828571Y-45374819D01*
X97828571Y-45374819D02*
X97971428Y-45327200D01*
X97971428Y-45327200D02*
X98066666Y-45231961D01*
X98066666Y-45231961D02*
X98114285Y-45136723D01*
X98114285Y-45136723D02*
X98161904Y-44946247D01*
X98161904Y-44946247D02*
X98161904Y-44803390D01*
X98161904Y-44803390D02*
X98114285Y-44612914D01*
X98114285Y-44612914D02*
X98066666Y-44517676D01*
X98066666Y-44517676D02*
X97971428Y-44422438D01*
X97971428Y-44422438D02*
X97828571Y-44374819D01*
X97828571Y-44374819D02*
X97733333Y-44374819D01*
X97733333Y-44374819D02*
X97590476Y-44422438D01*
X97590476Y-44422438D02*
X97542857Y-44470057D01*
X97209523Y-44374819D02*
X96590476Y-44374819D01*
X96590476Y-44374819D02*
X96923809Y-44755771D01*
X96923809Y-44755771D02*
X96780952Y-44755771D01*
X96780952Y-44755771D02*
X96685714Y-44803390D01*
X96685714Y-44803390D02*
X96638095Y-44851009D01*
X96638095Y-44851009D02*
X96590476Y-44946247D01*
X96590476Y-44946247D02*
X96590476Y-45184342D01*
X96590476Y-45184342D02*
X96638095Y-45279580D01*
X96638095Y-45279580D02*
X96685714Y-45327200D01*
X96685714Y-45327200D02*
X96780952Y-45374819D01*
X96780952Y-45374819D02*
X97066666Y-45374819D01*
X97066666Y-45374819D02*
X97161904Y-45327200D01*
X97161904Y-45327200D02*
X97209523Y-45279580D01*
X95971428Y-44374819D02*
X95876190Y-44374819D01*
X95876190Y-44374819D02*
X95780952Y-44422438D01*
X95780952Y-44422438D02*
X95733333Y-44470057D01*
X95733333Y-44470057D02*
X95685714Y-44565295D01*
X95685714Y-44565295D02*
X95638095Y-44755771D01*
X95638095Y-44755771D02*
X95638095Y-44993866D01*
X95638095Y-44993866D02*
X95685714Y-45184342D01*
X95685714Y-45184342D02*
X95733333Y-45279580D01*
X95733333Y-45279580D02*
X95780952Y-45327200D01*
X95780952Y-45327200D02*
X95876190Y-45374819D01*
X95876190Y-45374819D02*
X95971428Y-45374819D01*
X95971428Y-45374819D02*
X96066666Y-45327200D01*
X96066666Y-45327200D02*
X96114285Y-45279580D01*
X96114285Y-45279580D02*
X96161904Y-45184342D01*
X96161904Y-45184342D02*
X96209523Y-44993866D01*
X96209523Y-44993866D02*
X96209523Y-44755771D01*
X96209523Y-44755771D02*
X96161904Y-44565295D01*
X96161904Y-44565295D02*
X96114285Y-44470057D01*
X96114285Y-44470057D02*
X96066666Y-44422438D01*
X96066666Y-44422438D02*
X95971428Y-44374819D01*
X101339580Y-53582142D02*
X101387200Y-53534523D01*
X101387200Y-53534523D02*
X101434819Y-53391666D01*
X101434819Y-53391666D02*
X101434819Y-53296428D01*
X101434819Y-53296428D02*
X101387200Y-53153571D01*
X101387200Y-53153571D02*
X101291961Y-53058333D01*
X101291961Y-53058333D02*
X101196723Y-53010714D01*
X101196723Y-53010714D02*
X101006247Y-52963095D01*
X101006247Y-52963095D02*
X100863390Y-52963095D01*
X100863390Y-52963095D02*
X100672914Y-53010714D01*
X100672914Y-53010714D02*
X100577676Y-53058333D01*
X100577676Y-53058333D02*
X100482438Y-53153571D01*
X100482438Y-53153571D02*
X100434819Y-53296428D01*
X100434819Y-53296428D02*
X100434819Y-53391666D01*
X100434819Y-53391666D02*
X100482438Y-53534523D01*
X100482438Y-53534523D02*
X100530057Y-53582142D01*
X100530057Y-53963095D02*
X100482438Y-54010714D01*
X100482438Y-54010714D02*
X100434819Y-54105952D01*
X100434819Y-54105952D02*
X100434819Y-54344047D01*
X100434819Y-54344047D02*
X100482438Y-54439285D01*
X100482438Y-54439285D02*
X100530057Y-54486904D01*
X100530057Y-54486904D02*
X100625295Y-54534523D01*
X100625295Y-54534523D02*
X100720533Y-54534523D01*
X100720533Y-54534523D02*
X100863390Y-54486904D01*
X100863390Y-54486904D02*
X101434819Y-53915476D01*
X101434819Y-53915476D02*
X101434819Y-54534523D01*
X100434819Y-54867857D02*
X100434819Y-55534523D01*
X100434819Y-55534523D02*
X101434819Y-55105952D01*
X124237319Y-74457142D02*
X123761128Y-74123809D01*
X124237319Y-73885714D02*
X123237319Y-73885714D01*
X123237319Y-73885714D02*
X123237319Y-74266666D01*
X123237319Y-74266666D02*
X123284938Y-74361904D01*
X123284938Y-74361904D02*
X123332557Y-74409523D01*
X123332557Y-74409523D02*
X123427795Y-74457142D01*
X123427795Y-74457142D02*
X123570652Y-74457142D01*
X123570652Y-74457142D02*
X123665890Y-74409523D01*
X123665890Y-74409523D02*
X123713509Y-74361904D01*
X123713509Y-74361904D02*
X123761128Y-74266666D01*
X123761128Y-74266666D02*
X123761128Y-73885714D01*
X124237319Y-75409523D02*
X124237319Y-74838095D01*
X124237319Y-75123809D02*
X123237319Y-75123809D01*
X123237319Y-75123809D02*
X123380176Y-75028571D01*
X123380176Y-75028571D02*
X123475414Y-74933333D01*
X123475414Y-74933333D02*
X123523033Y-74838095D01*
X123237319Y-75742857D02*
X123237319Y-76361904D01*
X123237319Y-76361904D02*
X123618271Y-76028571D01*
X123618271Y-76028571D02*
X123618271Y-76171428D01*
X123618271Y-76171428D02*
X123665890Y-76266666D01*
X123665890Y-76266666D02*
X123713509Y-76314285D01*
X123713509Y-76314285D02*
X123808747Y-76361904D01*
X123808747Y-76361904D02*
X124046842Y-76361904D01*
X124046842Y-76361904D02*
X124142080Y-76314285D01*
X124142080Y-76314285D02*
X124189700Y-76266666D01*
X124189700Y-76266666D02*
X124237319Y-76171428D01*
X124237319Y-76171428D02*
X124237319Y-75885714D01*
X124237319Y-75885714D02*
X124189700Y-75790476D01*
X124189700Y-75790476D02*
X124142080Y-75742857D01*
X107108180Y-51332262D02*
X107108180Y-51808452D01*
X107108180Y-51808452D02*
X108108180Y-51808452D01*
X108012942Y-51046547D02*
X108060561Y-50998928D01*
X108060561Y-50998928D02*
X108108180Y-50903690D01*
X108108180Y-50903690D02*
X108108180Y-50665595D01*
X108108180Y-50665595D02*
X108060561Y-50570357D01*
X108060561Y-50570357D02*
X108012942Y-50522738D01*
X108012942Y-50522738D02*
X107917704Y-50475119D01*
X107917704Y-50475119D02*
X107822466Y-50475119D01*
X107822466Y-50475119D02*
X107679609Y-50522738D01*
X107679609Y-50522738D02*
X107108180Y-51094166D01*
X107108180Y-51094166D02*
X107108180Y-50475119D01*
X120116980Y-65597942D02*
X120164600Y-65550323D01*
X120164600Y-65550323D02*
X120212219Y-65407466D01*
X120212219Y-65407466D02*
X120212219Y-65312228D01*
X120212219Y-65312228D02*
X120164600Y-65169371D01*
X120164600Y-65169371D02*
X120069361Y-65074133D01*
X120069361Y-65074133D02*
X119974123Y-65026514D01*
X119974123Y-65026514D02*
X119783647Y-64978895D01*
X119783647Y-64978895D02*
X119640790Y-64978895D01*
X119640790Y-64978895D02*
X119450314Y-65026514D01*
X119450314Y-65026514D02*
X119355076Y-65074133D01*
X119355076Y-65074133D02*
X119259838Y-65169371D01*
X119259838Y-65169371D02*
X119212219Y-65312228D01*
X119212219Y-65312228D02*
X119212219Y-65407466D01*
X119212219Y-65407466D02*
X119259838Y-65550323D01*
X119259838Y-65550323D02*
X119307457Y-65597942D01*
X120212219Y-66550323D02*
X120212219Y-65978895D01*
X120212219Y-66264609D02*
X119212219Y-66264609D01*
X119212219Y-66264609D02*
X119355076Y-66169371D01*
X119355076Y-66169371D02*
X119450314Y-66074133D01*
X119450314Y-66074133D02*
X119497933Y-65978895D01*
X119212219Y-67455085D02*
X119212219Y-66978895D01*
X119212219Y-66978895D02*
X119688409Y-66931276D01*
X119688409Y-66931276D02*
X119640790Y-66978895D01*
X119640790Y-66978895D02*
X119593171Y-67074133D01*
X119593171Y-67074133D02*
X119593171Y-67312228D01*
X119593171Y-67312228D02*
X119640790Y-67407466D01*
X119640790Y-67407466D02*
X119688409Y-67455085D01*
X119688409Y-67455085D02*
X119783647Y-67502704D01*
X119783647Y-67502704D02*
X120021742Y-67502704D01*
X120021742Y-67502704D02*
X120116980Y-67455085D01*
X120116980Y-67455085D02*
X120164600Y-67407466D01*
X120164600Y-67407466D02*
X120212219Y-67312228D01*
X120212219Y-67312228D02*
X120212219Y-67074133D01*
X120212219Y-67074133D02*
X120164600Y-66978895D01*
X120164600Y-66978895D02*
X120116980Y-66931276D01*
X96942980Y-67604642D02*
X96990600Y-67557023D01*
X96990600Y-67557023D02*
X97038219Y-67414166D01*
X97038219Y-67414166D02*
X97038219Y-67318928D01*
X97038219Y-67318928D02*
X96990600Y-67176071D01*
X96990600Y-67176071D02*
X96895361Y-67080833D01*
X96895361Y-67080833D02*
X96800123Y-67033214D01*
X96800123Y-67033214D02*
X96609647Y-66985595D01*
X96609647Y-66985595D02*
X96466790Y-66985595D01*
X96466790Y-66985595D02*
X96276314Y-67033214D01*
X96276314Y-67033214D02*
X96181076Y-67080833D01*
X96181076Y-67080833D02*
X96085838Y-67176071D01*
X96085838Y-67176071D02*
X96038219Y-67318928D01*
X96038219Y-67318928D02*
X96038219Y-67414166D01*
X96038219Y-67414166D02*
X96085838Y-67557023D01*
X96085838Y-67557023D02*
X96133457Y-67604642D01*
X97038219Y-68557023D02*
X97038219Y-67985595D01*
X97038219Y-68271309D02*
X96038219Y-68271309D01*
X96038219Y-68271309D02*
X96181076Y-68176071D01*
X96181076Y-68176071D02*
X96276314Y-68080833D01*
X96276314Y-68080833D02*
X96323933Y-67985595D01*
X96038219Y-68890357D02*
X96038219Y-69557023D01*
X96038219Y-69557023D02*
X97038219Y-69128452D01*
X58888094Y-71164819D02*
X58888094Y-70164819D01*
X58888094Y-70164819D02*
X58507142Y-70164819D01*
X58507142Y-70164819D02*
X58411904Y-70212438D01*
X58411904Y-70212438D02*
X58364285Y-70260057D01*
X58364285Y-70260057D02*
X58316666Y-70355295D01*
X58316666Y-70355295D02*
X58316666Y-70498152D01*
X58316666Y-70498152D02*
X58364285Y-70593390D01*
X58364285Y-70593390D02*
X58411904Y-70641009D01*
X58411904Y-70641009D02*
X58507142Y-70688628D01*
X58507142Y-70688628D02*
X58888094Y-70688628D01*
X57364285Y-71164819D02*
X57935713Y-71164819D01*
X57649999Y-71164819D02*
X57649999Y-70164819D01*
X57649999Y-70164819D02*
X57745237Y-70307676D01*
X57745237Y-70307676D02*
X57840475Y-70402914D01*
X57840475Y-70402914D02*
X57935713Y-70450533D01*
X102529457Y-70099580D02*
X102577076Y-70147200D01*
X102577076Y-70147200D02*
X102719933Y-70194819D01*
X102719933Y-70194819D02*
X102815171Y-70194819D01*
X102815171Y-70194819D02*
X102958028Y-70147200D01*
X102958028Y-70147200D02*
X103053266Y-70051961D01*
X103053266Y-70051961D02*
X103100885Y-69956723D01*
X103100885Y-69956723D02*
X103148504Y-69766247D01*
X103148504Y-69766247D02*
X103148504Y-69623390D01*
X103148504Y-69623390D02*
X103100885Y-69432914D01*
X103100885Y-69432914D02*
X103053266Y-69337676D01*
X103053266Y-69337676D02*
X102958028Y-69242438D01*
X102958028Y-69242438D02*
X102815171Y-69194819D01*
X102815171Y-69194819D02*
X102719933Y-69194819D01*
X102719933Y-69194819D02*
X102577076Y-69242438D01*
X102577076Y-69242438D02*
X102529457Y-69290057D01*
X102148504Y-69290057D02*
X102100885Y-69242438D01*
X102100885Y-69242438D02*
X102005647Y-69194819D01*
X102005647Y-69194819D02*
X101767552Y-69194819D01*
X101767552Y-69194819D02*
X101672314Y-69242438D01*
X101672314Y-69242438D02*
X101624695Y-69290057D01*
X101624695Y-69290057D02*
X101577076Y-69385295D01*
X101577076Y-69385295D02*
X101577076Y-69480533D01*
X101577076Y-69480533D02*
X101624695Y-69623390D01*
X101624695Y-69623390D02*
X102196123Y-70194819D01*
X102196123Y-70194819D02*
X101577076Y-70194819D01*
X101243742Y-69194819D02*
X100624695Y-69194819D01*
X100624695Y-69194819D02*
X100958028Y-69575771D01*
X100958028Y-69575771D02*
X100815171Y-69575771D01*
X100815171Y-69575771D02*
X100719933Y-69623390D01*
X100719933Y-69623390D02*
X100672314Y-69671009D01*
X100672314Y-69671009D02*
X100624695Y-69766247D01*
X100624695Y-69766247D02*
X100624695Y-70004342D01*
X100624695Y-70004342D02*
X100672314Y-70099580D01*
X100672314Y-70099580D02*
X100719933Y-70147200D01*
X100719933Y-70147200D02*
X100815171Y-70194819D01*
X100815171Y-70194819D02*
X101100885Y-70194819D01*
X101100885Y-70194819D02*
X101196123Y-70147200D01*
X101196123Y-70147200D02*
X101243742Y-70099580D01*
D11*
%TO.C,R15*%
X104169600Y-62006060D02*
X104169600Y-61551932D01*
X105639600Y-62006060D02*
X105639600Y-61551932D01*
D10*
%TO.C,U7*%
X101675001Y-55259999D02*
X101675001Y-55110000D01*
X101675001Y-59459998D02*
X101675001Y-59309999D01*
X101825001Y-55110000D02*
X101675001Y-55110000D01*
X101825001Y-59459998D02*
X101675001Y-59459998D01*
X105525001Y-55110000D02*
X105375001Y-55110000D01*
X105525001Y-55259999D02*
X105525001Y-55110000D01*
X105525001Y-59459998D02*
X105375001Y-59459998D01*
X105525001Y-59459998D02*
X105525001Y-59309999D01*
D12*
X101425002Y-58934998D02*
G75*
G02*
X101175000Y-58934998I-125001J0D01*
G01*
X101175000Y-58934998D02*
G75*
G02*
X101425002Y-58934998I125001J0D01*
G01*
D11*
%TO.C,U3*%
X57515000Y-69082500D02*
X57515000Y-70082500D01*
X60235000Y-69082500D02*
X60235000Y-70082500D01*
X57565000Y-68692500D02*
X57285000Y-68692500D01*
X57565000Y-68412500D01*
X57565000Y-68692500D01*
G36*
X57565000Y-68692500D02*
G01*
X57285000Y-68692500D01*
X57565000Y-68412500D01*
X57565000Y-68692500D01*
G37*
%TO.C,C22*%
X107065000Y-51863748D02*
X107065000Y-52386252D01*
X108535000Y-51863748D02*
X108535000Y-52386252D01*
%TO.C,R9*%
X126897774Y-64886864D02*
X126897774Y-64432736D01*
X128367774Y-64886864D02*
X128367774Y-64432736D01*
%TO.C,C20*%
X110169548Y-53438898D02*
X110169548Y-53961402D01*
X111639548Y-53438898D02*
X111639548Y-53961402D01*
%TO.C,TH1*%
X124933974Y-68349864D02*
X124933974Y-67895736D01*
X126403974Y-68349864D02*
X126403974Y-67895736D01*
%TO.C,C28*%
X106719852Y-46188796D02*
X106197348Y-46188796D01*
X106719852Y-47658796D02*
X106197348Y-47658796D01*
%TO.C,R18*%
X122941908Y-64886864D02*
X122941908Y-64432736D01*
X124411908Y-64886864D02*
X124411908Y-64432736D01*
%TO.C,R10*%
X97865000Y-61564564D02*
X97865000Y-61110436D01*
X99335000Y-61564564D02*
X99335000Y-61110436D01*
%TO.C,R14*%
X107965600Y-61477632D02*
X107965600Y-61931760D01*
X109435600Y-61477632D02*
X109435600Y-61931760D01*
%TO.C,C26*%
X118109374Y-57567848D02*
X118109374Y-58090352D01*
X119579374Y-57567848D02*
X119579374Y-58090352D01*
%TO.C,D7*%
X126494974Y-49990400D02*
X126494974Y-52675400D01*
X126494974Y-52675400D02*
X128414974Y-52675400D01*
X128414974Y-52675400D02*
X128414974Y-49990400D01*
%TO.C,C24*%
X120933974Y-64921052D02*
X120933974Y-64398548D01*
X122403974Y-64921052D02*
X122403974Y-64398548D01*
%TO.C,R16*%
X104215000Y-65589564D02*
X104215000Y-65135436D01*
X105685000Y-65589564D02*
X105685000Y-65135436D01*
%TO.C,R19*%
X102111764Y-60234996D02*
X101657636Y-60234996D01*
X102111764Y-61704996D02*
X101657636Y-61704996D01*
%TO.C,R8*%
X126719974Y-54701464D02*
X126719974Y-54247336D01*
X128189974Y-54701464D02*
X128189974Y-54247336D01*
%TO.C,C29*%
X99968296Y-46290150D02*
X100490800Y-46290150D01*
X99968296Y-47760150D02*
X100490800Y-47760150D01*
%TO.C,L1*%
X121664574Y-51776100D02*
X123664574Y-51776100D01*
X121664574Y-53976100D02*
X123664574Y-53976100D01*
%TO.C,J12*%
X69840000Y-71015000D02*
X69840000Y-75915000D01*
X69840000Y-75915000D02*
X69250000Y-75915000D01*
X69840000Y-78135000D02*
X69250000Y-78135000D01*
X69840000Y-78135000D02*
X69840000Y-80235000D01*
X79960000Y-71015000D02*
X69840000Y-71015000D01*
X79960000Y-71015000D02*
X79960000Y-75915000D01*
X79960000Y-78135000D02*
X79960000Y-80235000D01*
X79960000Y-80235000D02*
X69840000Y-80235000D01*
X80550000Y-75915000D02*
X79960000Y-75915000D01*
X80550000Y-78135000D02*
X79960000Y-78135000D01*
X69250000Y-78135000D02*
G75*
G02*
X69250000Y-75915000I0J1110000D01*
G01*
X80550000Y-75915000D02*
G75*
G02*
X80550000Y-78135000I0J-1110000D01*
G01*
%TO.C,J14*%
X129249174Y-58591100D02*
X131909174Y-58591100D01*
X129249174Y-68811100D02*
X129249174Y-58591100D01*
X129249174Y-68811100D02*
X131909174Y-68811100D01*
X130579174Y-55991100D02*
X131909174Y-55991100D01*
X131909174Y-55991100D02*
X131909174Y-57321100D01*
X131909174Y-68811100D02*
X131909174Y-58591100D01*
%TO.C,C16*%
X116864774Y-64496152D02*
X116864774Y-63973648D01*
X118334774Y-64496152D02*
X118334774Y-63973648D01*
%TO.C,R11*%
X97865000Y-65039564D02*
X97865000Y-64585436D01*
X99335000Y-65039564D02*
X99335000Y-64585436D01*
%TO.C,R20*%
X101659536Y-62190796D02*
X102113664Y-62190796D01*
X101659536Y-63660796D02*
X102113664Y-63660796D01*
%TO.C,C21*%
X122544826Y-54503300D02*
X122022322Y-54503300D01*
X122544826Y-55973300D02*
X122022322Y-55973300D01*
%TO.C,U6*%
X121235574Y-56905800D02*
X121710574Y-56905800D01*
X121235574Y-57380800D02*
X121235574Y-56905800D01*
X121235574Y-60650800D02*
X121235574Y-61125800D01*
X121235574Y-61125800D02*
X121710574Y-61125800D01*
X125155574Y-56905800D02*
X124980574Y-56905800D01*
X125455574Y-57145800D02*
X125455574Y-57380800D01*
X125455574Y-60650800D02*
X125455574Y-61125800D01*
X125455574Y-61125800D02*
X124980574Y-61125800D01*
X125455574Y-56905800D02*
X125215574Y-56575800D01*
X125695574Y-56575800D01*
X125455574Y-56905800D01*
G36*
X125455574Y-56905800D02*
G01*
X125215574Y-56575800D01*
X125695574Y-56575800D01*
X125455574Y-56905800D01*
G37*
%TO.C,C14*%
X126715600Y-47026948D02*
X126715600Y-47549452D01*
X128185600Y-47026948D02*
X128185600Y-47549452D01*
%TO.C,R12*%
X120958974Y-68349864D02*
X120958974Y-67895736D01*
X122428974Y-68349864D02*
X122428974Y-67895736D01*
%TO.C,C18*%
X95738748Y-57890000D02*
X96261252Y-57890000D01*
X95738748Y-59360000D02*
X96261252Y-59360000D01*
%TO.C,C19*%
X114719548Y-64496152D02*
X114719548Y-63973648D01*
X116189548Y-64496152D02*
X116189548Y-63973648D01*
%TO.C,R17*%
X124919841Y-64886864D02*
X124919841Y-64432736D01*
X126389841Y-64886864D02*
X126389841Y-64432736D01*
%TO.C,C7*%
X42836252Y-49415000D02*
X42313748Y-49415000D01*
X42836252Y-50885000D02*
X42313748Y-50885000D01*
%TO.C,C25*%
X118109374Y-54103248D02*
X118109374Y-54625752D01*
X119579374Y-54103248D02*
X119579374Y-54625752D01*
%TO.C,C30*%
X99983496Y-44232750D02*
X100506000Y-44232750D01*
X99983496Y-45702750D02*
X100506000Y-45702750D01*
%TO.C,C27*%
X98565000Y-53963748D02*
X98565000Y-54486252D01*
X100035000Y-53963748D02*
X100035000Y-54486252D01*
%TO.C,R13*%
X122946474Y-68349864D02*
X122946474Y-67895736D01*
X124416474Y-68349864D02*
X124416474Y-67895736D01*
%TO.C,L2*%
X102263000Y-48565596D02*
X100963000Y-49865596D01*
X102263000Y-53765596D02*
X100963000Y-52465596D01*
X102263000Y-54115596D02*
X102263000Y-53765596D01*
X104863000Y-48565596D02*
X106163000Y-49865596D01*
X104863000Y-54125596D02*
X104863000Y-53765596D01*
X106163000Y-52465596D02*
X104863000Y-53765596D01*
%TO.C,C15*%
X118922174Y-63276952D02*
X118922174Y-62754448D01*
X120392174Y-63276952D02*
X120392174Y-62754448D01*
%TO.C,C17*%
X95858400Y-61611252D02*
X95858400Y-61088748D01*
X97328400Y-61611252D02*
X97328400Y-61088748D01*
%TO.C,P1*%
X53570000Y-73880000D02*
X53570000Y-75290000D01*
X61910000Y-71210000D02*
X61110000Y-71210000D01*
X61910000Y-71360000D02*
X61910000Y-71210000D01*
X62730000Y-73880000D02*
X62730000Y-75290000D01*
%TO.C,C23*%
X101625348Y-64197396D02*
X102147852Y-64197396D01*
X101625348Y-65667396D02*
X102147852Y-65667396D01*
%TD*%
M02*
