%TF.GenerationSoftware,KiCad,Pcbnew,8.0.3*%
%TF.CreationDate,2024-07-13T14:18:46-04:00*%
%TF.ProjectId,get-a-grip-on-reality,6765742d-612d-4677-9269-702d6f6e2d72,rev?*%
%TF.SameCoordinates,Original*%
%TF.FileFunction,Copper,L2,Bot*%
%TF.FilePolarity,Positive*%
%FSLAX46Y46*%
G04 Gerber Fmt 4.6, Leading zero omitted, Abs format (unit mm)*
G04 Created by KiCad (PCBNEW 8.0.3) date 2024-07-13 14:18:46*
%MOMM*%
%LPD*%
G01*
G04 APERTURE LIST*
G04 Aperture macros list*
%AMRoundRect*
0 Rectangle with rounded corners*
0 $1 Rounding radius*
0 $2 $3 $4 $5 $6 $7 $8 $9 X,Y pos of 4 corners*
0 Add a 4 corners polygon primitive as box body*
4,1,4,$2,$3,$4,$5,$6,$7,$8,$9,$2,$3,0*
0 Add four circle primitives for the rounded corners*
1,1,$1+$1,$2,$3*
1,1,$1+$1,$4,$5*
1,1,$1+$1,$6,$7*
1,1,$1+$1,$8,$9*
0 Add four rect primitives between the rounded corners*
20,1,$1+$1,$2,$3,$4,$5,0*
20,1,$1+$1,$4,$5,$6,$7,0*
20,1,$1+$1,$6,$7,$8,$9,0*
20,1,$1+$1,$8,$9,$2,$3,0*%
%AMRotRect*
0 Rectangle, with rotation*
0 The origin of the aperture is its center*
0 $1 length*
0 $2 width*
0 $3 Rotation angle, in degrees counterclockwise*
0 Add horizontal line*
21,1,$1,$2,0,0,$3*%
G04 Aperture macros list end*
%TA.AperFunction,EtchedComponent*%
%ADD10C,0.000000*%
%TD*%
%TA.AperFunction,ComponentPad*%
%ADD11C,1.258000*%
%TD*%
%TA.AperFunction,ComponentPad*%
%ADD12RotRect,1.258000X1.258000X210.000000*%
%TD*%
%TA.AperFunction,ComponentPad*%
%ADD13R,1.700000X1.700000*%
%TD*%
%TA.AperFunction,ComponentPad*%
%ADD14O,1.700000X1.700000*%
%TD*%
%TA.AperFunction,HeatsinkPad*%
%ADD15R,1.600000X0.500000*%
%TD*%
%TA.AperFunction,ComponentPad*%
%ADD16C,1.400000*%
%TD*%
%TA.AperFunction,ComponentPad*%
%ADD17R,3.500000X3.500000*%
%TD*%
%TA.AperFunction,ComponentPad*%
%ADD18C,3.500000*%
%TD*%
%TA.AperFunction,ComponentPad*%
%ADD19RotRect,1.258000X1.258000X330.000000*%
%TD*%
%TA.AperFunction,ComponentPad*%
%ADD20R,1.258000X1.258000*%
%TD*%
%TA.AperFunction,SMDPad,CuDef*%
%ADD21RoundRect,0.250000X-0.450000X0.262500X-0.450000X-0.262500X0.450000X-0.262500X0.450000X0.262500X0*%
%TD*%
%TA.AperFunction,SMDPad,CuDef*%
%ADD22R,0.675000X0.675000*%
%TD*%
%TA.AperFunction,SMDPad,CuDef*%
%ADD23R,0.650001X0.249999*%
%TD*%
%TA.AperFunction,SMDPad,CuDef*%
%ADD24R,0.800001X0.850001*%
%TD*%
%TA.AperFunction,SMDPad,CuDef*%
%ADD25R,1.849999X0.700001*%
%TD*%
%TA.AperFunction,SMDPad,CuDef*%
%ADD26R,0.249999X0.650001*%
%TD*%
%TA.AperFunction,SMDPad,CuDef*%
%ADD27C,1.374676*%
%TD*%
%TA.AperFunction,SMDPad,CuDef*%
%ADD28R,0.250000X0.625000*%
%TD*%
%TA.AperFunction,SMDPad,CuDef*%
%ADD29R,0.450000X0.700000*%
%TD*%
%TA.AperFunction,SMDPad,CuDef*%
%ADD30R,0.450000X0.575000*%
%TD*%
%TA.AperFunction,SMDPad,CuDef*%
%ADD31RoundRect,0.250000X0.475000X-0.250000X0.475000X0.250000X-0.475000X0.250000X-0.475000X-0.250000X0*%
%TD*%
%TA.AperFunction,SMDPad,CuDef*%
%ADD32RoundRect,0.250000X-0.250000X-0.475000X0.250000X-0.475000X0.250000X0.475000X-0.250000X0.475000X0*%
%TD*%
%TA.AperFunction,SMDPad,CuDef*%
%ADD33RoundRect,0.250000X0.450000X-0.262500X0.450000X0.262500X-0.450000X0.262500X-0.450000X-0.262500X0*%
%TD*%
%TA.AperFunction,SMDPad,CuDef*%
%ADD34RoundRect,0.243750X0.456250X-0.243750X0.456250X0.243750X-0.456250X0.243750X-0.456250X-0.243750X0*%
%TD*%
%TA.AperFunction,SMDPad,CuDef*%
%ADD35RoundRect,0.250000X-0.475000X0.250000X-0.475000X-0.250000X0.475000X-0.250000X0.475000X0.250000X0*%
%TD*%
%TA.AperFunction,SMDPad,CuDef*%
%ADD36RoundRect,0.250000X-0.262500X-0.450000X0.262500X-0.450000X0.262500X0.450000X-0.262500X0.450000X0*%
%TD*%
%TA.AperFunction,SMDPad,CuDef*%
%ADD37RoundRect,0.250000X0.250000X0.475000X-0.250000X0.475000X-0.250000X-0.475000X0.250000X-0.475000X0*%
%TD*%
%TA.AperFunction,SMDPad,CuDef*%
%ADD38R,0.650000X2.000000*%
%TD*%
%TA.AperFunction,SMDPad,CuDef*%
%ADD39RoundRect,0.250000X0.262500X0.450000X-0.262500X0.450000X-0.262500X-0.450000X0.262500X-0.450000X0*%
%TD*%
%TA.AperFunction,SMDPad,CuDef*%
%ADD40RoundRect,0.062500X0.375000X0.062500X-0.375000X0.062500X-0.375000X-0.062500X0.375000X-0.062500X0*%
%TD*%
%TA.AperFunction,SMDPad,CuDef*%
%ADD41RoundRect,0.062500X0.062500X0.375000X-0.062500X0.375000X-0.062500X-0.375000X0.062500X-0.375000X0*%
%TD*%
%TA.AperFunction,HeatsinkPad*%
%ADD42R,2.500000X2.500000*%
%TD*%
%TA.AperFunction,SMDPad,CuDef*%
%ADD43RoundRect,0.275000X0.725000X-0.275000X0.725000X0.275000X-0.725000X0.275000X-0.725000X-0.275000X0*%
%TD*%
%TA.AperFunction,SMDPad,CuDef*%
%ADD44RoundRect,0.275000X-0.275000X-0.725000X0.275000X-0.725000X0.275000X0.725000X-0.275000X0.725000X0*%
%TD*%
%TA.AperFunction,SMDPad,CuDef*%
%ADD45RoundRect,0.275000X0.275000X0.725000X-0.275000X0.725000X-0.275000X-0.725000X0.275000X-0.725000X0*%
%TD*%
%TA.AperFunction,SMDPad,CuDef*%
%ADD46RoundRect,0.150000X0.150000X0.425000X-0.150000X0.425000X-0.150000X-0.425000X0.150000X-0.425000X0*%
%TD*%
%TA.AperFunction,SMDPad,CuDef*%
%ADD47RoundRect,0.075000X0.075000X0.500000X-0.075000X0.500000X-0.075000X-0.500000X0.075000X-0.500000X0*%
%TD*%
%TA.AperFunction,SMDPad,CuDef*%
%ADD48RoundRect,0.250000X0.840000X0.750000X-0.840000X0.750000X-0.840000X-0.750000X0.840000X-0.750000X0*%
%TD*%
%TA.AperFunction,ViaPad*%
%ADD49C,0.800000*%
%TD*%
%TA.AperFunction,ViaPad*%
%ADD50C,0.500000*%
%TD*%
%TA.AperFunction,ViaPad*%
%ADD51C,0.600000*%
%TD*%
%TA.AperFunction,Conductor*%
%ADD52C,0.400000*%
%TD*%
%TA.AperFunction,Conductor*%
%ADD53C,0.250000*%
%TD*%
%TA.AperFunction,Conductor*%
%ADD54C,1.000000*%
%TD*%
%TA.AperFunction,Conductor*%
%ADD55C,0.500000*%
%TD*%
%TA.AperFunction,Conductor*%
%ADD56C,0.150000*%
%TD*%
G04 APERTURE END LIST*
D10*
%TA.AperFunction,EtchedComponent*%
%TO.C,U7*%
G36*
X102600000Y-56184999D02*
G01*
X104599999Y-56184999D01*
X104674002Y-56110000D01*
X105250000Y-56110000D01*
X105350000Y-56210000D01*
X105350000Y-56860001D01*
X105250000Y-56959998D01*
X104450002Y-56959998D01*
X104400002Y-57009998D01*
X104399999Y-57079002D01*
X104375001Y-57122000D01*
X104349999Y-57166000D01*
X104350002Y-58235000D01*
X104250000Y-58334999D01*
X102950002Y-58334999D01*
X102850000Y-58235000D01*
X102850000Y-57166003D01*
X102825001Y-57122000D01*
X102800000Y-57079000D01*
X102800000Y-57010003D01*
X102750000Y-56959998D01*
X101950002Y-56960001D01*
X101850002Y-56859999D01*
X101850002Y-56210000D01*
X101950002Y-56110000D01*
X102526000Y-56110000D01*
X102600000Y-56184999D01*
G37*
%TD.AperFunction*%
%TD*%
D11*
%TO.P,D5,A*%
%TO.N,GND*%
X81400296Y-53310000D03*
D12*
%TO.P,D5,K*%
%TO.N,/Light Sensor/1IN-*%
X83600000Y-52040000D03*
%TD*%
D13*
%TO.P,J9,1,Pin_1*%
%TO.N,+5V*%
X57759664Y-39446000D03*
D14*
%TO.P,J9,2,Pin_2*%
%TO.N,/MOTOR3*%
X57759664Y-36906000D03*
%TO.P,J9,3,Pin_3*%
%TO.N,GND*%
X57759664Y-34366000D03*
%TD*%
D13*
%TO.P,J11,1,Pin_1*%
%TO.N,+5V*%
X65227000Y-39446000D03*
D14*
%TO.P,J11,2,Pin_2*%
%TO.N,/MOTOR5*%
X65227000Y-36906000D03*
%TO.P,J11,3,Pin_3*%
%TO.N,GND*%
X65227000Y-34366000D03*
%TD*%
D13*
%TO.P,J10,1,Pin_1*%
%TO.N,+5V*%
X61493330Y-39446000D03*
D14*
%TO.P,J10,2,Pin_2*%
%TO.N,/MOTOR4*%
X61493330Y-36906000D03*
%TO.P,J10,3,Pin_3*%
%TO.N,GND*%
X61493330Y-34366000D03*
%TD*%
D15*
%TO.P,U1,7,PAD*%
%TO.N,GND*%
X69225000Y-61400000D03*
%TD*%
D16*
%TO.P,J15,*%
%TO.N,*%
X94700600Y-34988200D03*
X105700600Y-34988200D03*
D17*
%TO.P,J15,1,Pin_1*%
%TO.N,GND*%
X97700600Y-39988200D03*
D18*
%TO.P,J15,2,Pin_2*%
%TO.N,+5V*%
X102700600Y-39988200D03*
%TD*%
D11*
%TO.P,D6,A*%
%TO.N,GND*%
X83600000Y-46675000D03*
D19*
%TO.P,D6,K*%
%TO.N,/Light Sensor/1IN-*%
X81400296Y-45405000D03*
%TD*%
D13*
%TO.P,J8,1,Pin_1*%
%TO.N,+5V*%
X54025998Y-39446000D03*
D14*
%TO.P,J8,2,Pin_2*%
%TO.N,/MOTOR2*%
X54025998Y-36906000D03*
%TO.P,J8,3,Pin_3*%
%TO.N,GND*%
X54025998Y-34366000D03*
%TD*%
D13*
%TO.P,J1,1,Pin_1*%
%TO.N,+3.3V*%
X46675000Y-44845000D03*
D14*
%TO.P,J1,2,Pin_2*%
%TO.N,/IMU/SDO*%
X46675000Y-42305000D03*
%TO.P,J1,3,Pin_3*%
%TO.N,/IMU/SCLK*%
X46675000Y-39765000D03*
%TO.P,J1,4,Pin_4*%
%TO.N,GND*%
X46675000Y-37225000D03*
%TD*%
D13*
%TO.P,J13,1,Pin_1*%
%TO.N,+3.3V*%
X43075000Y-45295000D03*
D14*
%TO.P,J13,2,Pin_2*%
%TO.N,Net-(J13-Pin_2)*%
X43075000Y-42755000D03*
%TO.P,J13,3,Pin_3*%
%TO.N,Net-(J13-Pin_3)*%
X43075000Y-40215000D03*
%TO.P,J13,4,Pin_4*%
%TO.N,Net-(J13-Pin_4)*%
X43075000Y-37675000D03*
%TO.P,J13,5,Pin_5*%
%TO.N,GND*%
X43075000Y-35135000D03*
%TD*%
D13*
%TO.P,J7,1,Pin_1*%
%TO.N,+5V*%
X50292332Y-39446000D03*
D14*
%TO.P,J7,2,Pin_2*%
%TO.N,/MOTOR1*%
X50292332Y-36906000D03*
%TO.P,J7,3,Pin_3*%
%TO.N,GND*%
X50292332Y-34366000D03*
%TD*%
D11*
%TO.P,D4,A*%
%TO.N,GND*%
X76775000Y-48092500D03*
D20*
%TO.P,D4,K*%
%TO.N,/Light Sensor/1IN-*%
X76775000Y-50632500D03*
%TD*%
D21*
%TO.P,R15,1*%
%TO.N,Net-(U7-ILIM)*%
X104904600Y-60866496D03*
%TO.P,R15,2*%
%TO.N,GND*%
X104904600Y-62691496D03*
%TD*%
D22*
%TO.P,U7,1,EN*%
%TO.N,Net-(U7-EN)*%
X102187502Y-58947500D03*
D23*
%TO.P,U7,2,AGND*%
%TO.N,GND*%
X102225000Y-58285000D03*
D24*
%TO.P,U7,3,VIN*%
%TO.N,+BATT*%
X102250001Y-57534999D03*
D23*
%TO.P,U7,4,PGND*%
%TO.N,GND*%
X102225000Y-56534998D03*
D22*
%TO.P,U7,5,BOOT*%
%TO.N,/Power/BOOT*%
X102187502Y-55622498D03*
D25*
%TO.P,U7,6,SW*%
%TO.N,/Power/SW_5*%
X103600001Y-55635000D03*
D22*
%TO.P,U7,7,VCC*%
%TO.N,Net-(U7-VCC)*%
X105012500Y-55622498D03*
D23*
%TO.P,U7,8,PGND*%
%TO.N,GND*%
X104975002Y-56534998D03*
D24*
%TO.P,U7,9,VIN*%
%TO.N,+BATT*%
X104950001Y-57534999D03*
D23*
%TO.P,U7,10,PG*%
%TO.N,Net-(U7-PG)*%
X104975002Y-58285000D03*
D22*
%TO.P,U7,11,MSEL*%
%TO.N,Net-(U7-MSEL)*%
X105012500Y-58947500D03*
D26*
%TO.P,U7,12,ILIM*%
%TO.N,Net-(U7-ILIM)*%
X104350002Y-58910000D03*
%TO.P,U7,13,GOSNS*%
%TO.N,GND*%
X103850001Y-58910000D03*
%TO.P,U7,14,FB*%
%TO.N,Net-(U7-FB)*%
X103350001Y-58910000D03*
%TO.P,U7,15,SS*%
%TO.N,Net-(U7-SS)*%
X102850000Y-58910000D03*
D27*
%TO.P,U7,16,PGND*%
%TO.N,GND*%
X103600001Y-57016572D03*
%TD*%
D28*
%TO.P,U3,1*%
%TO.N,/MCU/USB_N*%
X57875000Y-69195000D03*
%TO.P,U3,2*%
%TO.N,/MCU/USB_P*%
X58375000Y-69195000D03*
D29*
%TO.P,U3,3,VSS*%
%TO.N,GND*%
X58875000Y-69232500D03*
D28*
%TO.P,U3,4*%
%TO.N,+5V*%
X59375000Y-69195000D03*
%TO.P,U3,5*%
%TO.N,unconnected-(U3-Pad5)*%
X59875000Y-69195000D03*
%TO.P,U3,6,NC*%
%TO.N,unconnected-(U3-NC-Pad6)*%
X59875000Y-69970000D03*
%TO.P,U3,7,NC*%
%TO.N,+5V*%
X59375000Y-69970000D03*
D30*
%TO.P,U3,8,VSS*%
%TO.N,GND*%
X58875000Y-69995000D03*
D28*
%TO.P,U3,9,NC*%
%TO.N,/MCU/USB_P*%
X58375000Y-69970000D03*
%TO.P,U3,10,NC*%
%TO.N,/MCU/USB_N*%
X57875000Y-69970000D03*
%TD*%
D31*
%TO.P,C22,1*%
%TO.N,Net-(U7-VCC)*%
X107800000Y-53075000D03*
%TO.P,C22,2*%
%TO.N,GND*%
X107800000Y-51175000D03*
%TD*%
D21*
%TO.P,R9,1*%
%TO.N,Net-(U6-ILIM)*%
X127632774Y-63747300D03*
%TO.P,R9,2*%
%TO.N,GND*%
X127632774Y-65572300D03*
%TD*%
D31*
%TO.P,C20,1*%
%TO.N,+BATT*%
X110904548Y-54650150D03*
%TO.P,C20,2*%
%TO.N,GND*%
X110904548Y-52750150D03*
%TD*%
D21*
%TO.P,TH1,1*%
%TO.N,Net-(U6-TS)*%
X125668974Y-67210300D03*
%TO.P,TH1,2*%
%TO.N,GND*%
X125668974Y-69035300D03*
%TD*%
D32*
%TO.P,C28,1*%
%TO.N,+5V*%
X105508600Y-46923796D03*
%TO.P,C28,2*%
%TO.N,GND*%
X107408600Y-46923796D03*
%TD*%
D21*
%TO.P,R18,1*%
%TO.N,Net-(U6-CBSET)*%
X123676908Y-63747300D03*
%TO.P,R18,2*%
%TO.N,/Power/CELL_1*%
X123676908Y-65572300D03*
%TD*%
%TO.P,R10,1*%
%TO.N,+BATT*%
X98600000Y-60425000D03*
%TO.P,R10,2*%
%TO.N,Net-(U7-EN)*%
X98600000Y-62250000D03*
%TD*%
D33*
%TO.P,R14,1*%
%TO.N,Net-(U7-VCC)*%
X108700600Y-62617196D03*
%TO.P,R14,2*%
%TO.N,Net-(U7-PG)*%
X108700600Y-60792196D03*
%TD*%
D31*
%TO.P,C26,1*%
%TO.N,/Power/SNS*%
X118844374Y-58779100D03*
%TO.P,C26,2*%
%TO.N,GND*%
X118844374Y-56879100D03*
%TD*%
D34*
%TO.P,D7,1,K*%
%TO.N,Net-(D7-K)*%
X127454974Y-51927900D03*
%TO.P,D7,2,A*%
%TO.N,GND*%
X127454974Y-50052900D03*
%TD*%
D35*
%TO.P,C24,1*%
%TO.N,Net-(U6-REGN)*%
X121668974Y-63709800D03*
%TO.P,C24,2*%
%TO.N,GND*%
X121668974Y-65609800D03*
%TD*%
D21*
%TO.P,R16,1*%
%TO.N,Net-(U7-MSEL)*%
X104950000Y-64450000D03*
%TO.P,R16,2*%
%TO.N,GND*%
X104950000Y-66275000D03*
%TD*%
D36*
%TO.P,R19,1*%
%TO.N,+5V*%
X100972200Y-60969996D03*
%TO.P,R19,2*%
%TO.N,Net-(U7-FB)*%
X102797200Y-60969996D03*
%TD*%
D21*
%TO.P,R8,1*%
%TO.N,Net-(D7-K)*%
X127454974Y-53561900D03*
%TO.P,R8,2*%
%TO.N,Net-(U6-STAT)*%
X127454974Y-55386900D03*
%TD*%
D37*
%TO.P,C29,1*%
%TO.N,+5V*%
X101179548Y-47025150D03*
%TO.P,C29,2*%
%TO.N,GND*%
X99279548Y-47025150D03*
%TD*%
D38*
%TO.P,L1,1,1*%
%TO.N,/Power/PMID*%
X123339574Y-52876100D03*
%TO.P,L1,2,2*%
%TO.N,/Power/SW_BAT*%
X121989574Y-52876100D03*
%TD*%
D16*
%TO.P,J12,*%
%TO.N,*%
X69400000Y-77025000D03*
X80400000Y-77025000D03*
D17*
%TO.P,J12,1,Pin_1*%
%TO.N,GND*%
X77400000Y-67025000D03*
D18*
%TO.P,J12,2,Pin_2*%
%TO.N,+5V*%
X72400000Y-67025000D03*
%TD*%
D13*
%TO.P,J14,1,Pin_1*%
%TO.N,Net-(J14-Pin_1)*%
X130579174Y-57321100D03*
D14*
%TO.P,J14,2,Pin_2*%
%TO.N,Net-(J14-Pin_2)*%
X130579174Y-59861100D03*
%TO.P,J14,3,Pin_3*%
%TO.N,Net-(J14-Pin_3)*%
X130579174Y-62401100D03*
%TO.P,J14,4,Pin_4*%
%TO.N,Net-(J14-Pin_4)*%
X130579174Y-64941100D03*
%TO.P,J14,5,Pin_5*%
%TO.N,GND*%
X130579174Y-67481100D03*
%TD*%
D35*
%TO.P,C16,1*%
%TO.N,+BATT*%
X117599774Y-63284900D03*
%TO.P,C16,2*%
%TO.N,GND*%
X117599774Y-65184900D03*
%TD*%
D21*
%TO.P,R11,1*%
%TO.N,Net-(U7-EN)*%
X98600000Y-63900000D03*
%TO.P,R11,2*%
%TO.N,GND*%
X98600000Y-65725000D03*
%TD*%
D39*
%TO.P,R20,1*%
%TO.N,Net-(U7-FB)*%
X102799100Y-62925796D03*
%TO.P,R20,2*%
%TO.N,GND*%
X100974100Y-62925796D03*
%TD*%
D32*
%TO.P,C21,1*%
%TO.N,GND*%
X121333574Y-55238300D03*
%TO.P,C21,2*%
%TO.N,/Power/PMID*%
X123233574Y-55238300D03*
%TD*%
D40*
%TO.P,U6,1,~{PG}*%
%TO.N,Net-(J14-Pin_1)*%
X125283074Y-57765800D03*
%TO.P,U6,2,STAT*%
%TO.N,Net-(U6-STAT)*%
X125283074Y-58265800D03*
%TO.P,U6,3,CD*%
%TO.N,unconnected-(U6-CD-Pad3)*%
X125283074Y-58765800D03*
%TO.P,U6,4,SDA*%
%TO.N,Net-(J14-Pin_2)*%
X125283074Y-59265800D03*
%TO.P,U6,5,SCL*%
%TO.N,Net-(J14-Pin_3)*%
X125283074Y-59765800D03*
%TO.P,U6,6,~{INT}*%
%TO.N,Net-(J14-Pin_4)*%
X125283074Y-60265800D03*
D41*
%TO.P,U6,7,TS*%
%TO.N,Net-(U6-TS)*%
X124595574Y-60953300D03*
%TO.P,U6,8,ILIM*%
%TO.N,Net-(U6-ILIM)*%
X124095574Y-60953300D03*
%TO.P,U6,9,MID*%
%TO.N,Net-(U6-MID)*%
X123595574Y-60953300D03*
%TO.P,U6,10,CBSET*%
%TO.N,Net-(U6-CBSET)*%
X123095574Y-60953300D03*
%TO.P,U6,11,REGN*%
%TO.N,Net-(U6-REGN)*%
X122595574Y-60953300D03*
%TO.P,U6,12,BTST*%
%TO.N,Net-(U6-BTST)*%
X122095574Y-60953300D03*
D40*
%TO.P,U6,13,BAT*%
%TO.N,+BATT*%
X121408074Y-60265800D03*
%TO.P,U6,14,BAT*%
X121408074Y-59765800D03*
%TO.P,U6,15,SNS*%
%TO.N,/Power/SNS*%
X121408074Y-59265800D03*
%TO.P,U6,16,SNS*%
X121408074Y-58765800D03*
%TO.P,U6,17,SW*%
%TO.N,/Power/SW_BAT*%
X121408074Y-58265800D03*
%TO.P,U6,18,SW*%
X121408074Y-57765800D03*
D41*
%TO.P,U6,19,GND*%
%TO.N,GND*%
X122095574Y-57078300D03*
%TO.P,U6,20,GND*%
X122595574Y-57078300D03*
%TO.P,U6,21,PMID*%
%TO.N,/Power/PMID*%
X123095574Y-57078300D03*
%TO.P,U6,22,PMID*%
X123595574Y-57078300D03*
%TO.P,U6,23,VBUS*%
%TO.N,+5V*%
X124095574Y-57078300D03*
%TO.P,U6,24,PSEL*%
%TO.N,unconnected-(U6-PSEL-Pad24)*%
X124595574Y-57078300D03*
D42*
%TO.P,U6,25*%
%TO.N,N/C*%
X123345574Y-59015800D03*
%TD*%
D31*
%TO.P,C14,1*%
%TO.N,+5V*%
X127450600Y-48238200D03*
%TO.P,C14,2*%
%TO.N,GND*%
X127450600Y-46338200D03*
%TD*%
D21*
%TO.P,R12,1*%
%TO.N,Net-(U6-REGN)*%
X121693974Y-67210300D03*
%TO.P,R12,2*%
%TO.N,Net-(U6-TS)*%
X121693974Y-69035300D03*
%TD*%
D37*
%TO.P,C18,1*%
%TO.N,+BATT*%
X96950000Y-58625000D03*
%TO.P,C18,2*%
%TO.N,GND*%
X95050000Y-58625000D03*
%TD*%
D35*
%TO.P,C19,1*%
%TO.N,+BATT*%
X115454548Y-63284900D03*
%TO.P,C19,2*%
%TO.N,GND*%
X115454548Y-65184900D03*
%TD*%
D21*
%TO.P,R17,1*%
%TO.N,Net-(U6-MID)*%
X125654841Y-63747300D03*
%TO.P,R17,2*%
%TO.N,/Power/CELL_1*%
X125654841Y-65572300D03*
%TD*%
D32*
%TO.P,C7,1*%
%TO.N,+3.3V*%
X41625000Y-50150000D03*
%TO.P,C7,2*%
%TO.N,GND*%
X43525000Y-50150000D03*
%TD*%
D31*
%TO.P,C25,1*%
%TO.N,Net-(U6-BTST)*%
X118844374Y-55314500D03*
%TO.P,C25,2*%
%TO.N,/Power/SW_BAT*%
X118844374Y-53414500D03*
%TD*%
D37*
%TO.P,C30,1*%
%TO.N,+5V*%
X101194748Y-44967750D03*
%TO.P,C30,2*%
%TO.N,GND*%
X99294748Y-44967750D03*
%TD*%
D31*
%TO.P,C27,1*%
%TO.N,/Power/BOOT*%
X99300000Y-55175000D03*
%TO.P,C27,2*%
%TO.N,/Power/SW_5*%
X99300000Y-53275000D03*
%TD*%
D21*
%TO.P,R13,1*%
%TO.N,Net-(U6-TS)*%
X123681474Y-67210300D03*
%TO.P,R13,2*%
%TO.N,GND*%
X123681474Y-69035300D03*
%TD*%
D43*
%TO.P,L2,1,1*%
%TO.N,/Power/SW_5*%
X103563000Y-53565596D03*
%TO.P,L2,2,2*%
%TO.N,+5V*%
X103563000Y-48765596D03*
D44*
%TO.P,L2,MP*%
%TO.N,N/C*%
X101163000Y-51165596D03*
D45*
X105963000Y-51165596D03*
%TD*%
D35*
%TO.P,C15,1*%
%TO.N,+BATT*%
X119657174Y-62065700D03*
%TO.P,C15,2*%
%TO.N,GND*%
X119657174Y-63965700D03*
%TD*%
%TO.P,C17,1*%
%TO.N,+BATT*%
X96593400Y-60400000D03*
%TO.P,C17,2*%
%TO.N,GND*%
X96593400Y-62300000D03*
%TD*%
D46*
%TO.P,P1,A1,GND*%
%TO.N,GND*%
X61350000Y-72045000D03*
%TO.P,P1,A4,VBUS*%
%TO.N,+5V*%
X60550000Y-72045000D03*
D47*
%TO.P,P1,A5,CC*%
%TO.N,unconnected-(P1-CC-PadA5)*%
X59400000Y-72045000D03*
%TO.P,P1,A6,D+*%
%TO.N,/MCU/USB_P*%
X58400000Y-72045000D03*
%TO.P,P1,A7,D-*%
%TO.N,/MCU/USB_N*%
X57900000Y-72045000D03*
%TO.P,P1,A8*%
%TO.N,N/C*%
X56900000Y-72045000D03*
D46*
%TO.P,P1,A9,VBUS*%
%TO.N,+5V*%
X55750000Y-72045000D03*
%TO.P,P1,A12,GND*%
%TO.N,GND*%
X54950000Y-72045000D03*
%TO.P,P1,B1,GND*%
X54950000Y-72045000D03*
%TO.P,P1,B4,VBUS*%
%TO.N,+5V*%
X55750000Y-72045000D03*
D47*
%TO.P,P1,B5,VCONN*%
%TO.N,unconnected-(P1-VCONN-PadB5)*%
X56400000Y-72045000D03*
%TO.P,P1,B6*%
%TO.N,N/C*%
X57400000Y-72045000D03*
%TO.P,P1,B7*%
X58900000Y-72045000D03*
%TO.P,P1,B8*%
X59900000Y-72045000D03*
D46*
%TO.P,P1,B9,VBUS*%
%TO.N,+5V*%
X60550000Y-72045000D03*
%TO.P,P1,B12,GND*%
%TO.N,GND*%
X61350000Y-72045000D03*
D48*
%TO.P,P1,S1,SHIELD*%
%TO.N,unconnected-(P1-SHIELD-PadS1)_1*%
X63260000Y-76550000D03*
%TO.N,unconnected-(P1-SHIELD-PadS1)_2*%
X63260000Y-72620000D03*
%TO.N,unconnected-(P1-SHIELD-PadS1)_0*%
X53040000Y-76550000D03*
%TO.N,unconnected-(P1-SHIELD-PadS1)*%
X53040000Y-72620000D03*
%TD*%
D37*
%TO.P,C23,1*%
%TO.N,Net-(U7-SS)*%
X102836600Y-64932396D03*
%TO.P,C23,2*%
%TO.N,GND*%
X100936600Y-64932396D03*
%TD*%
D49*
%TO.N,GND*%
X98529000Y-78753200D03*
X90909000Y-104153200D03*
X113769000Y-111773200D03*
D50*
X75789000Y-70525000D03*
D49*
X88369000Y-106693200D03*
X93449000Y-50813200D03*
X98529000Y-96533200D03*
X111229000Y-83833200D03*
D50*
X51789000Y-51325000D03*
X78989000Y-43325000D03*
X48589000Y-64125000D03*
X82189000Y-65725000D03*
X78989000Y-70525000D03*
X77389000Y-75325000D03*
D49*
X68900000Y-49950000D03*
X126469000Y-104153200D03*
D50*
X54989000Y-60925000D03*
D49*
X103609000Y-99073200D03*
X106149000Y-78753200D03*
D50*
X70989000Y-36925000D03*
D49*
X113769000Y-35573200D03*
X50710000Y-59820000D03*
X116309000Y-83833200D03*
X103609000Y-78753200D03*
X131549000Y-78753200D03*
X126469000Y-86373200D03*
D50*
X77389000Y-44925000D03*
D49*
X51420000Y-58970000D03*
X88369000Y-119393200D03*
X121389000Y-111773200D03*
X106149000Y-111773200D03*
X98529000Y-111773200D03*
X101069000Y-35573200D03*
D50*
X56589000Y-52925000D03*
X48589000Y-54525000D03*
D49*
X126469000Y-71133200D03*
X121389000Y-76213200D03*
X65925000Y-60325000D03*
X126469000Y-78753200D03*
D50*
X83789000Y-36925000D03*
D49*
X95989000Y-91453200D03*
X93449000Y-119393200D03*
X111229000Y-38113200D03*
X88369000Y-76213200D03*
X129009000Y-101613200D03*
X103609000Y-93993200D03*
X90909000Y-86373200D03*
X131549000Y-121933200D03*
D50*
X80589000Y-56125000D03*
X53389000Y-52925000D03*
D49*
X131549000Y-53353200D03*
X101069000Y-101613200D03*
X109200000Y-47950000D03*
X88369000Y-114313200D03*
X108689000Y-43193200D03*
X88369000Y-43193200D03*
D50*
X82189000Y-59325000D03*
D49*
X90909000Y-66053200D03*
X129009000Y-71133200D03*
X106149000Y-68593200D03*
D50*
X82189000Y-75325000D03*
D49*
X116309000Y-104153200D03*
D50*
X70989000Y-72125000D03*
X75789000Y-46525000D03*
D49*
X51520000Y-57020000D03*
D50*
X77389000Y-72125000D03*
X54989000Y-59325000D03*
X58189000Y-57725000D03*
D49*
X41925000Y-60525000D03*
X129009000Y-81293200D03*
X48925000Y-74075000D03*
X129009000Y-127013200D03*
X98529000Y-81293200D03*
D50*
X78989000Y-60925000D03*
D49*
X88369000Y-91453200D03*
X121400000Y-55750000D03*
X126469000Y-121933200D03*
D51*
X103175000Y-57284999D03*
D49*
X95989000Y-78753200D03*
X50090000Y-57030000D03*
D50*
X80589000Y-41725000D03*
X69389000Y-73725000D03*
D49*
X90909000Y-111773200D03*
X101069000Y-81293200D03*
X95989000Y-116853200D03*
X88369000Y-48273200D03*
D50*
X78989000Y-76925000D03*
X66189000Y-54525000D03*
X53389000Y-49725000D03*
D49*
X129009000Y-106693200D03*
X108689000Y-104153200D03*
X126469000Y-83833200D03*
X109075000Y-45600000D03*
D50*
X45389000Y-51325000D03*
D49*
X95989000Y-106693200D03*
X95989000Y-101613200D03*
D50*
X83789000Y-40125000D03*
X75789000Y-75325000D03*
D49*
X129009000Y-91453200D03*
X95989000Y-73673200D03*
X88369000Y-73673200D03*
X58725000Y-45050000D03*
X106149000Y-104153200D03*
D50*
X58189000Y-54525000D03*
D49*
X123929000Y-101613200D03*
X129009000Y-38113200D03*
X126469000Y-40653200D03*
X66075000Y-43925000D03*
X98529000Y-83833200D03*
D50*
X56589000Y-60925000D03*
D49*
X129009000Y-124473200D03*
X129009000Y-104153200D03*
X131549000Y-88913200D03*
X108689000Y-66053200D03*
X88369000Y-71133200D03*
D50*
X82189000Y-60925000D03*
D49*
X98529000Y-93993200D03*
X88369000Y-109233200D03*
D50*
X69389000Y-75325000D03*
D49*
X129009000Y-93993200D03*
X126469000Y-91453200D03*
X88369000Y-93993200D03*
X98529000Y-35573200D03*
X93449000Y-76213200D03*
D50*
X83789000Y-38525000D03*
D49*
X116309000Y-68593200D03*
X93449000Y-38113200D03*
X103609000Y-111773200D03*
X95989000Y-99073200D03*
X116309000Y-76213200D03*
X90909000Y-50813200D03*
X103609000Y-76213200D03*
X108689000Y-99073200D03*
D50*
X78989000Y-73725000D03*
D49*
X123929000Y-78753200D03*
X121400000Y-54775000D03*
X111229000Y-91453200D03*
X113769000Y-68593200D03*
X108689000Y-35573200D03*
D50*
X46989000Y-59325000D03*
D49*
X126469000Y-116853200D03*
D50*
X72589000Y-72125000D03*
D49*
X88369000Y-58433200D03*
X116309000Y-109233200D03*
D50*
X70989000Y-70525000D03*
D49*
X88369000Y-63513200D03*
X131549000Y-40653200D03*
D50*
X80589000Y-36925000D03*
D49*
X131549000Y-109233200D03*
X48530000Y-58990000D03*
X123929000Y-81293200D03*
X113769000Y-109233200D03*
X93449000Y-68593200D03*
D50*
X59789000Y-36925000D03*
D49*
X88369000Y-60973200D03*
X131549000Y-91453200D03*
X88369000Y-124473200D03*
X45325000Y-56325000D03*
X113769000Y-99073200D03*
X129009000Y-88913200D03*
X111229000Y-71133200D03*
X90909000Y-71133200D03*
X123929000Y-76213200D03*
X101069000Y-91453200D03*
D50*
X56589000Y-49725000D03*
D49*
X93449000Y-88913200D03*
X103609000Y-106693200D03*
D50*
X78989000Y-44925000D03*
D49*
X90909000Y-106693200D03*
D50*
X56589000Y-56125000D03*
D49*
X116309000Y-106693200D03*
X95989000Y-68593200D03*
X131549000Y-38113200D03*
X93449000Y-99073200D03*
D50*
X56589000Y-64125000D03*
D51*
X104050000Y-56600000D03*
D49*
X121389000Y-71133200D03*
X101069000Y-73673200D03*
X111229000Y-63513200D03*
D50*
X46989000Y-76925000D03*
D49*
X93449000Y-101613200D03*
D50*
X50189000Y-49725000D03*
X50189000Y-51325000D03*
D49*
X49825000Y-42325000D03*
X106149000Y-71133200D03*
X121389000Y-78753200D03*
D50*
X42189000Y-75325000D03*
D49*
X129009000Y-83833200D03*
X118849000Y-68593200D03*
X95989000Y-93993200D03*
X121389000Y-91453200D03*
X116309000Y-35573200D03*
D50*
X75789000Y-76925000D03*
D49*
X121389000Y-106693200D03*
X88369000Y-45733200D03*
X123929000Y-109233200D03*
X110300000Y-49675000D03*
D50*
X82189000Y-36925000D03*
D49*
X108689000Y-109233200D03*
D50*
X82189000Y-48125000D03*
D49*
X101069000Y-71133200D03*
D50*
X78989000Y-64125000D03*
D49*
X98529000Y-88913200D03*
X88369000Y-68593200D03*
X111229000Y-116853200D03*
X95989000Y-88913200D03*
D50*
X72589000Y-36925000D03*
D49*
X103609000Y-81293200D03*
D50*
X75789000Y-73725000D03*
D49*
X106149000Y-91453200D03*
X90909000Y-88913200D03*
X123929000Y-106693200D03*
X113769000Y-66053200D03*
D50*
X80589000Y-38525000D03*
X83789000Y-56125000D03*
D49*
X116309000Y-86373200D03*
X98529000Y-73673200D03*
X51275000Y-42325000D03*
D50*
X83789000Y-62525000D03*
D49*
X90909000Y-68593200D03*
X126469000Y-119393200D03*
X93449000Y-73673200D03*
X93449000Y-106693200D03*
X121389000Y-109233200D03*
D50*
X82189000Y-73725000D03*
X80589000Y-62525000D03*
D49*
X90909000Y-73673200D03*
X101069000Y-68593200D03*
D50*
X43789000Y-76925000D03*
D49*
X126469000Y-88913200D03*
D50*
X83789000Y-54525000D03*
D49*
X93449000Y-63513200D03*
X93449000Y-60973200D03*
X95989000Y-104153200D03*
X123929000Y-35573200D03*
D50*
X83789000Y-72125000D03*
D49*
X68700000Y-46550000D03*
D50*
X62989000Y-56125000D03*
D49*
X101069000Y-78753200D03*
X121389000Y-99073200D03*
X95989000Y-66053200D03*
X116309000Y-91453200D03*
X93449000Y-114313200D03*
X90909000Y-40653200D03*
X131549000Y-99073200D03*
D50*
X77389000Y-46525000D03*
X83789000Y-48125000D03*
D49*
X101069000Y-88913200D03*
D50*
X85389000Y-36925000D03*
D49*
X131549000Y-35573200D03*
X121389000Y-104153200D03*
D50*
X56589000Y-51325000D03*
D51*
X103175000Y-57959999D03*
D50*
X78989000Y-49725000D03*
X74189000Y-33725000D03*
X53389000Y-60925000D03*
D49*
X131549000Y-86373200D03*
X129009000Y-96533200D03*
D50*
X80589000Y-70525000D03*
X75789000Y-62525000D03*
D49*
X123929000Y-111773200D03*
X93449000Y-55893200D03*
X129009000Y-119393200D03*
D50*
X56589000Y-54525000D03*
D49*
X88369000Y-99073200D03*
X90909000Y-124473200D03*
D50*
X67789000Y-36925000D03*
X80589000Y-64125000D03*
X77389000Y-35325000D03*
D49*
X88369000Y-88913200D03*
D50*
X74189000Y-36925000D03*
D49*
X121389000Y-81293200D03*
D50*
X75789000Y-54525000D03*
D49*
X106149000Y-88913200D03*
X116309000Y-111773200D03*
X90909000Y-116853200D03*
X129009000Y-116853200D03*
X106149000Y-116853200D03*
D50*
X59789000Y-35325000D03*
D49*
X90909000Y-127013200D03*
X113769000Y-106693200D03*
X116309000Y-73673200D03*
X95989000Y-71133200D03*
D50*
X82189000Y-56125000D03*
X82189000Y-64125000D03*
D51*
X102225002Y-56609999D03*
D49*
X101069000Y-96533200D03*
X101069000Y-104153200D03*
X103609000Y-109233200D03*
X108400000Y-49575000D03*
D50*
X83789000Y-59325000D03*
D49*
X103609000Y-73673200D03*
X90909000Y-91453200D03*
D50*
X82189000Y-35325000D03*
X83789000Y-35325000D03*
X74189000Y-35325000D03*
X77389000Y-33725000D03*
X78989000Y-72125000D03*
X80589000Y-35325000D03*
D49*
X106149000Y-93993200D03*
X108689000Y-116853200D03*
X129009000Y-53353200D03*
X126469000Y-35573200D03*
X116309000Y-114313200D03*
X66175000Y-58325000D03*
D50*
X53389000Y-54525000D03*
D49*
X108689000Y-101613200D03*
D50*
X46989000Y-54525000D03*
X78989000Y-46525000D03*
D49*
X95989000Y-114313200D03*
X111229000Y-96533200D03*
X126469000Y-93993200D03*
D50*
X77389000Y-70525000D03*
X83789000Y-73725000D03*
X70989000Y-75325000D03*
X82189000Y-57725000D03*
D49*
X90909000Y-43193200D03*
X113769000Y-81293200D03*
X126469000Y-109233200D03*
X131549000Y-45733200D03*
X109625000Y-50875000D03*
X88369000Y-50813200D03*
X95989000Y-76213200D03*
D50*
X80589000Y-75325000D03*
D49*
X93449000Y-86373200D03*
D50*
X78989000Y-62525000D03*
D49*
X88369000Y-55893200D03*
X90909000Y-38113200D03*
D50*
X70989000Y-73725000D03*
X58189000Y-59325000D03*
X72589000Y-76925000D03*
D49*
X131549000Y-104153200D03*
X111229000Y-109233200D03*
D50*
X74189000Y-76925000D03*
D49*
X126469000Y-43193200D03*
X123929000Y-99073200D03*
X101069000Y-99073200D03*
D50*
X58189000Y-51325000D03*
D49*
X101069000Y-93993200D03*
X116309000Y-96533200D03*
X123929000Y-38113200D03*
X95989000Y-111773200D03*
X106149000Y-38113200D03*
X108689000Y-83833200D03*
D50*
X83789000Y-65725000D03*
D49*
X131549000Y-48273200D03*
X116309000Y-116853200D03*
D50*
X53389000Y-51325000D03*
D49*
X106149000Y-81293200D03*
D50*
X45389000Y-64125000D03*
D49*
X126469000Y-99073200D03*
X131549000Y-116853200D03*
D50*
X58189000Y-52925000D03*
D49*
X113769000Y-38113200D03*
D50*
X83789000Y-70525000D03*
X77389000Y-62525000D03*
D49*
X111229000Y-99073200D03*
X108689000Y-81293200D03*
X90909000Y-114313200D03*
D51*
X104050000Y-57950000D03*
D50*
X80589000Y-72125000D03*
D49*
X113769000Y-93993200D03*
D50*
X85389000Y-38525000D03*
X45389000Y-52925000D03*
D49*
X131549000Y-83833200D03*
D50*
X59789000Y-33725000D03*
D49*
X57675000Y-74575000D03*
X131549000Y-127013200D03*
X116309000Y-99073200D03*
D50*
X85389000Y-40125000D03*
D49*
X129009000Y-99073200D03*
X129009000Y-40653200D03*
X48630000Y-57040000D03*
X61825000Y-46750000D03*
X93449000Y-104153200D03*
D50*
X80589000Y-57725000D03*
X70989000Y-33725000D03*
D49*
X98529000Y-109233200D03*
D50*
X80589000Y-43325000D03*
X75789000Y-64125000D03*
D49*
X67675000Y-61225000D03*
D50*
X67789000Y-72125000D03*
D49*
X116309000Y-71133200D03*
X68950000Y-48200000D03*
X131549000Y-119393200D03*
X123929000Y-83833200D03*
D50*
X53389000Y-57725000D03*
X54989000Y-64125000D03*
D49*
X129009000Y-76213200D03*
X121389000Y-83833200D03*
D50*
X67789000Y-73725000D03*
D49*
X121389000Y-116853200D03*
D50*
X82189000Y-72125000D03*
X75789000Y-56125000D03*
D49*
X131549000Y-106693200D03*
X110525000Y-47725000D03*
D50*
X50189000Y-64125000D03*
D49*
X93449000Y-116853200D03*
X116309000Y-93993200D03*
X41925000Y-56325000D03*
D50*
X80589000Y-67325000D03*
X51789000Y-54525000D03*
D49*
X131549000Y-50813200D03*
X93449000Y-109233200D03*
D50*
X85389000Y-41725000D03*
D49*
X101069000Y-111773200D03*
D50*
X77389000Y-59325000D03*
D49*
X62500000Y-66125000D03*
X98529000Y-76213200D03*
D50*
X50189000Y-52925000D03*
D49*
X123929000Y-40653200D03*
X129009000Y-50813200D03*
D50*
X85389000Y-33725000D03*
X62989000Y-35325000D03*
D49*
X131549000Y-93993200D03*
X98529000Y-104153200D03*
X98529000Y-91453200D03*
X93449000Y-124473200D03*
D50*
X78989000Y-59325000D03*
X70989000Y-76925000D03*
D49*
X88369000Y-111773200D03*
D50*
X83789000Y-68925000D03*
D49*
X121389000Y-86373200D03*
X93449000Y-48273200D03*
X101069000Y-83833200D03*
D50*
X54989000Y-57725000D03*
D49*
X93449000Y-40653200D03*
X118849000Y-35573200D03*
D50*
X77389000Y-36925000D03*
D49*
X93449000Y-81293200D03*
D50*
X51789000Y-52925000D03*
D49*
X126469000Y-38113200D03*
D50*
X72589000Y-75325000D03*
X54989000Y-52925000D03*
D49*
X108689000Y-68593200D03*
D50*
X54989000Y-54525000D03*
D49*
X113769000Y-76213200D03*
X93449000Y-78753200D03*
X123929000Y-91453200D03*
X98529000Y-86373200D03*
X111229000Y-93993200D03*
X98529000Y-114313200D03*
X118425000Y-56875000D03*
X93449000Y-53353200D03*
X106149000Y-101613200D03*
X101069000Y-106693200D03*
X121389000Y-73673200D03*
X62800000Y-45750000D03*
X68275000Y-68850000D03*
X108689000Y-73673200D03*
D50*
X85389000Y-76925000D03*
D49*
X108689000Y-38113200D03*
D50*
X83789000Y-44925000D03*
D49*
X113769000Y-86373200D03*
D50*
X53389000Y-56125000D03*
D49*
X98529000Y-101613200D03*
X108689000Y-86373200D03*
X90909000Y-53353200D03*
X88369000Y-127013200D03*
X123929000Y-104153200D03*
X88369000Y-38113200D03*
D50*
X83789000Y-60925000D03*
D49*
X103609000Y-68593200D03*
X90909000Y-109233200D03*
X95989000Y-53353200D03*
D50*
X59789000Y-43325000D03*
D49*
X111229000Y-73673200D03*
X95989000Y-96533200D03*
X126469000Y-73673200D03*
D50*
X53389000Y-59325000D03*
D49*
X88369000Y-35573200D03*
X113769000Y-88913200D03*
X113769000Y-96533200D03*
D50*
X80589000Y-33725000D03*
D49*
X95989000Y-109233200D03*
X113769000Y-114313200D03*
D50*
X80589000Y-65725000D03*
D49*
X103609000Y-88913200D03*
X98529000Y-99073200D03*
X106149000Y-99073200D03*
X90909000Y-63513200D03*
X129009000Y-121933200D03*
X88369000Y-83833200D03*
D50*
X46989000Y-64125000D03*
D49*
X45325000Y-60525000D03*
D50*
X82189000Y-67325000D03*
D49*
X126469000Y-124473200D03*
D50*
X46989000Y-52925000D03*
D49*
X106149000Y-114313200D03*
X68300000Y-65550000D03*
D50*
X75789000Y-72125000D03*
X54989000Y-56125000D03*
D49*
X93449000Y-127013200D03*
X111229000Y-101613200D03*
D50*
X46989000Y-57725000D03*
D49*
X93449000Y-93993200D03*
X93449000Y-96533200D03*
X42250000Y-69925000D03*
X108689000Y-96533200D03*
D50*
X82189000Y-43325000D03*
D49*
X98529000Y-106693200D03*
X101069000Y-114313200D03*
D50*
X46989000Y-60925000D03*
D49*
X131549000Y-101613200D03*
D50*
X61389000Y-76925000D03*
D49*
X123929000Y-86373200D03*
X111229000Y-81293200D03*
X111229000Y-106693200D03*
X103609000Y-83833200D03*
X88369000Y-101613200D03*
D50*
X53389000Y-64125000D03*
D49*
X98529000Y-116853200D03*
D50*
X82189000Y-62525000D03*
D49*
X93449000Y-66053200D03*
X116309000Y-101613200D03*
D50*
X72589000Y-70525000D03*
D49*
X103609000Y-91453200D03*
X93449000Y-71133200D03*
X131549000Y-124473200D03*
D50*
X83789000Y-49725000D03*
D49*
X41925000Y-58525000D03*
D50*
X77389000Y-38525000D03*
D49*
X98529000Y-71133200D03*
X126469000Y-76213200D03*
X90909000Y-76213200D03*
D50*
X56589000Y-57725000D03*
D49*
X48975000Y-72675000D03*
X108689000Y-106693200D03*
X121389000Y-114313200D03*
D50*
X82189000Y-68925000D03*
X67789000Y-75325000D03*
X80589000Y-60925000D03*
D49*
X111229000Y-35573200D03*
X108689000Y-93993200D03*
X131549000Y-81293200D03*
X90909000Y-35573200D03*
X106149000Y-83833200D03*
X41925000Y-62925000D03*
D50*
X54989000Y-76925000D03*
D49*
X103609000Y-101613200D03*
X123929000Y-114313200D03*
X123929000Y-73673200D03*
D50*
X82189000Y-33725000D03*
D49*
X111229000Y-66053200D03*
X116309000Y-38113200D03*
X113769000Y-83833200D03*
X121389000Y-35573200D03*
X116309000Y-88913200D03*
D51*
X103175000Y-56609999D03*
D50*
X78989000Y-57725000D03*
X74189000Y-73725000D03*
D49*
X113769000Y-101613200D03*
X106149000Y-109233200D03*
X98529000Y-68593200D03*
X59175000Y-74575000D03*
X50810000Y-57870000D03*
D50*
X51789000Y-35325000D03*
D49*
X113769000Y-71133200D03*
X121389000Y-96533200D03*
D50*
X83789000Y-67325000D03*
X74189000Y-70525000D03*
D49*
X119350000Y-56875000D03*
X126469000Y-106693200D03*
X103609000Y-96533200D03*
X108689000Y-78753200D03*
X90909000Y-119393200D03*
D50*
X42189000Y-73725000D03*
D49*
X121389000Y-38113200D03*
X90909000Y-99073200D03*
D50*
X77389000Y-64125000D03*
D49*
X123929000Y-93993200D03*
X129009000Y-78753200D03*
X121389000Y-88913200D03*
X95989000Y-83833200D03*
X88369000Y-121933200D03*
X68300000Y-67100000D03*
X129009000Y-86373200D03*
X49300000Y-59860000D03*
D50*
X51789000Y-49725000D03*
D49*
X90909000Y-96533200D03*
D50*
X85389000Y-35325000D03*
D49*
X123929000Y-88913200D03*
D50*
X48589000Y-52925000D03*
D49*
X101069000Y-109233200D03*
X111229000Y-78753200D03*
X42250000Y-71725000D03*
X95989000Y-81293200D03*
D50*
X77389000Y-76925000D03*
D49*
X126469000Y-127013200D03*
X51599098Y-70143694D03*
D50*
X70989000Y-35325000D03*
D49*
X108689000Y-71133200D03*
X65675000Y-73325000D03*
D51*
X104050000Y-57275000D03*
D49*
X41550000Y-64200000D03*
X129009000Y-35573200D03*
D50*
X80589000Y-73725000D03*
D49*
X116309000Y-81293200D03*
D50*
X58189000Y-56125000D03*
D49*
X50501147Y-43309440D03*
X101069000Y-76213200D03*
X113769000Y-91453200D03*
D50*
X75789000Y-44925000D03*
D49*
X111229000Y-76213200D03*
X113769000Y-78753200D03*
X131549000Y-111773200D03*
X88369000Y-81293200D03*
D50*
X78989000Y-75325000D03*
X48589000Y-51325000D03*
X69389000Y-72125000D03*
X78989000Y-36925000D03*
D49*
X113769000Y-116853200D03*
X90909000Y-48273200D03*
X108689000Y-91453200D03*
X126469000Y-101613200D03*
D50*
X82189000Y-70525000D03*
D49*
X101069000Y-116853200D03*
X129009000Y-73673200D03*
X103609000Y-116853200D03*
X121389000Y-93993200D03*
D50*
X83789000Y-64125000D03*
D49*
X111229000Y-86373200D03*
X116309000Y-78753200D03*
X49990000Y-58980000D03*
D50*
X83789000Y-57725000D03*
D49*
X103609000Y-86373200D03*
D50*
X54989000Y-51325000D03*
D49*
X93449000Y-83833200D03*
X113769000Y-104153200D03*
X106149000Y-73673200D03*
X93449000Y-91453200D03*
X88369000Y-96533200D03*
X118849000Y-38113200D03*
X111229000Y-68593200D03*
X93449000Y-111773200D03*
X123929000Y-71133200D03*
X131549000Y-96533200D03*
D50*
X51789000Y-64125000D03*
D49*
X106149000Y-106693200D03*
X93449000Y-43193200D03*
X106149000Y-96533200D03*
X90909000Y-60973200D03*
X49400000Y-57910000D03*
X103609000Y-104153200D03*
X111229000Y-88913200D03*
D50*
X77389000Y-60925000D03*
D49*
X108689000Y-76213200D03*
D50*
X45389000Y-38525000D03*
D49*
X88369000Y-78753200D03*
X131549000Y-114313200D03*
D50*
X80589000Y-68925000D03*
X45389000Y-76925000D03*
D49*
X129009000Y-43193200D03*
X90909000Y-78753200D03*
X90909000Y-81293200D03*
D50*
X74189000Y-75325000D03*
D49*
X103609000Y-71133200D03*
X88369000Y-116853200D03*
D50*
X77389000Y-73725000D03*
D49*
X126469000Y-96533200D03*
X88369000Y-53353200D03*
X111229000Y-104153200D03*
X88369000Y-104153200D03*
X101069000Y-86373200D03*
X131549000Y-76213200D03*
X123929000Y-116853200D03*
X126469000Y-81293200D03*
D50*
X82189000Y-38525000D03*
X50189000Y-54525000D03*
D49*
X108689000Y-88913200D03*
X123929000Y-96533200D03*
X93449000Y-45733200D03*
D50*
X45389000Y-54525000D03*
D49*
X69225000Y-61400000D03*
X131549000Y-73673200D03*
D50*
X72589000Y-73725000D03*
D49*
X88369000Y-86373200D03*
X88369000Y-40653200D03*
X106149000Y-86373200D03*
D50*
X74189000Y-72125000D03*
X58189000Y-60925000D03*
D49*
X113769000Y-73673200D03*
X88369000Y-66053200D03*
X121389000Y-101613200D03*
X95989000Y-86373200D03*
X90909000Y-101613200D03*
D50*
X58189000Y-49725000D03*
X54989000Y-49725000D03*
X78989000Y-48125000D03*
X58189000Y-64125000D03*
D49*
X129009000Y-109233200D03*
X90909000Y-45733200D03*
D50*
X83789000Y-33725000D03*
D49*
X103609000Y-114313200D03*
X90909000Y-83833200D03*
D50*
X46989000Y-56125000D03*
D49*
X106149000Y-76213200D03*
X103609000Y-35573200D03*
D50*
X80589000Y-59325000D03*
D49*
X131549000Y-71133200D03*
X131549000Y-43193200D03*
X90909000Y-93993200D03*
D50*
X56589000Y-59325000D03*
D49*
X45325000Y-58525000D03*
%TO.N,Net-(U2-GPIO0{slash}BOOT)*%
X65225000Y-42525000D03*
X62325000Y-43725000D03*
%TO.N,+5V*%
X104863379Y-49937012D03*
X101275000Y-59775000D03*
X71225000Y-64225000D03*
X72175000Y-64225000D03*
X73125000Y-64225000D03*
%TO.N,Net-(U2-EN)*%
X77125000Y-40125000D03*
X45325000Y-71525000D03*
%TO.N,+3.3V*%
X41525000Y-51525000D03*
%TO.N,+BATT*%
X113300600Y-49788200D03*
X112300600Y-50788200D03*
X114300600Y-47788200D03*
X96700600Y-58988200D03*
X114300600Y-48788200D03*
X113300600Y-47788200D03*
X113300600Y-46788200D03*
X113300600Y-48788200D03*
X112300600Y-47788200D03*
X114300600Y-46788200D03*
X112300600Y-46788200D03*
X114810000Y-59710000D03*
X97700600Y-57988200D03*
X113900000Y-61110000D03*
X112300600Y-49788200D03*
X114300600Y-49788200D03*
X109090000Y-55410000D03*
X115390000Y-54720000D03*
X114300600Y-50788200D03*
X117110000Y-61250000D03*
X113300600Y-50788200D03*
X113120000Y-54890000D03*
X105675000Y-57525000D03*
X114590000Y-57390000D03*
X97700600Y-58988200D03*
X112300600Y-48788200D03*
X98700600Y-57988200D03*
X111150000Y-56610000D03*
X96700600Y-57988200D03*
X112040000Y-57590000D03*
D50*
%TO.N,/IMU/SCLK*%
X52325000Y-47125000D03*
X50094202Y-45352873D03*
%TO.N,/IMU/SDO*%
X51925000Y-46325000D03*
X51057538Y-46942464D03*
D49*
%TO.N,Net-(J13-Pin_3)*%
X47225000Y-49925000D03*
%TO.N,Net-(J13-Pin_4)*%
X42475000Y-53950000D03*
%TO.N,Net-(J13-Pin_2)*%
X45825000Y-49625000D03*
%TO.N,/MCU/USB_N*%
X57600000Y-67575000D03*
%TO.N,/MCU/USB_P*%
X58650000Y-67575000D03*
%TO.N,/Power/CELL_1*%
X113904600Y-119448200D03*
X124064600Y-119448200D03*
X106284600Y-121988200D03*
X121524600Y-119448200D03*
X113904600Y-127068200D03*
X106284600Y-127068200D03*
X108824600Y-119448200D03*
X124064600Y-124528200D03*
X98664600Y-119448200D03*
X113904600Y-124528200D03*
X113904600Y-121988200D03*
X111364600Y-119448200D03*
X108824600Y-121988200D03*
X103744600Y-124528200D03*
X103744600Y-119448200D03*
D50*
X124700600Y-64788200D03*
D49*
X106284600Y-124528200D03*
X103744600Y-121988200D03*
X108824600Y-124528200D03*
X106284600Y-119448200D03*
X116444600Y-119448200D03*
X96124600Y-119448200D03*
X103744600Y-127068200D03*
X111364600Y-124528200D03*
X111364600Y-121988200D03*
X111364600Y-127068200D03*
X124064600Y-121988200D03*
X108824600Y-127068200D03*
X124064600Y-127068200D03*
X101204600Y-119448200D03*
D50*
%TO.N,/IMU/INT1*%
X52525000Y-44325000D03*
X44083400Y-46629200D03*
D49*
%TO.N,Net-(U7-VCC)*%
X106109849Y-54719849D03*
X106602454Y-59823409D03*
D50*
%TO.N,Net-(U6-BTST)*%
X121875000Y-62075000D03*
X117625174Y-55339900D03*
%TO.N,Net-(U6-STAT)*%
X126210374Y-57092500D03*
X126184974Y-58311700D03*
D49*
%TO.N,Net-(U6-TS)*%
X127110102Y-66995800D03*
X126310102Y-61995800D03*
%TD*%
D52*
%TO.N,GND*%
X109150000Y-53376166D02*
X109150000Y-52525000D01*
X109150000Y-52525000D02*
X107800000Y-51175000D01*
D53*
X97480900Y-61412500D02*
X94837500Y-61412500D01*
X103838400Y-58910996D02*
X103838400Y-61625296D01*
X102213399Y-56535994D02*
X101435994Y-56535994D01*
X101102303Y-58285996D02*
X99625000Y-59763299D01*
X94837500Y-61412500D02*
X94800000Y-61375000D01*
X103925000Y-63671096D02*
X103925000Y-65250000D01*
X58875000Y-68575000D02*
X59125000Y-68325000D01*
X97480900Y-61412500D02*
X96593400Y-62300000D01*
X99625000Y-61000000D02*
X99212500Y-61412500D01*
X60125000Y-68325000D02*
X60225000Y-68325000D01*
X103925000Y-65250000D02*
X104950000Y-66275000D01*
X103838400Y-61625296D02*
X104904600Y-62691496D01*
D52*
X105614006Y-56535994D02*
X108175000Y-53975000D01*
D53*
X99625000Y-59763299D02*
X99625000Y-61000000D01*
X62425000Y-66125000D02*
X62500000Y-66125000D01*
D52*
X108175000Y-53975000D02*
X108551166Y-53975000D01*
X104963401Y-56535994D02*
X105614006Y-56535994D01*
D53*
X104904600Y-62691496D02*
X103925000Y-63671096D01*
X99212500Y-61412500D02*
X97480900Y-61412500D01*
X62500000Y-66050000D02*
X62425000Y-66125000D01*
D52*
X108551166Y-53975000D02*
X109150000Y-53376166D01*
D53*
X62500000Y-66125000D02*
X62500000Y-66050000D01*
D52*
X104963401Y-56535994D02*
X102213399Y-56535994D01*
D53*
X102213399Y-58285996D02*
X101102303Y-58285996D01*
X101435994Y-56535994D02*
X101400000Y-56500000D01*
X59125000Y-68325000D02*
X60125000Y-68325000D01*
X60225000Y-68325000D02*
X62425000Y-66125000D01*
X58875000Y-68575000D02*
X58875000Y-69995000D01*
X58875000Y-69232500D02*
X58875000Y-68575000D01*
%TO.N,Net-(U2-GPIO0{slash}BOOT)*%
X63525000Y-42525000D02*
X62325000Y-43725000D01*
X65225000Y-42525000D02*
X63525000Y-42525000D01*
D54*
%TO.N,+5V*%
X126687400Y-47475000D02*
X127450600Y-48238200D01*
D55*
X60550000Y-70775000D02*
X61607250Y-69717750D01*
D54*
X102700600Y-39988200D02*
X118688200Y-39988200D01*
D53*
X103691963Y-48765596D02*
X104863379Y-49937012D01*
X59625000Y-73625000D02*
X59625000Y-73615761D01*
X103563000Y-48765596D02*
X103691963Y-48765596D01*
X59625000Y-73615761D02*
X60550000Y-72690761D01*
X56755001Y-73625000D02*
X59625000Y-73625000D01*
X100972200Y-60969996D02*
X100972200Y-60077800D01*
D56*
X59375000Y-69970000D02*
X60550000Y-71145000D01*
X60550000Y-71145000D02*
X60550000Y-72045000D01*
D53*
X55750000Y-72045000D02*
X55750000Y-72619999D01*
D56*
X59375000Y-69970000D02*
X59375000Y-69195000D01*
D55*
X61607250Y-69717750D02*
X69932250Y-69717750D01*
D53*
X100972200Y-60077800D02*
X101275000Y-59775000D01*
D54*
X118688200Y-39988200D02*
X126175000Y-47475000D01*
D53*
X60550000Y-72690761D02*
X60550000Y-72045000D01*
D55*
X69932250Y-69717750D02*
X72525000Y-67125000D01*
X60550000Y-72045000D02*
X60550000Y-70775000D01*
D54*
X126175000Y-47475000D02*
X126687400Y-47475000D01*
D53*
X55750000Y-72619999D02*
X56755001Y-73625000D01*
%TO.N,Net-(U2-EN)*%
X84875000Y-43375000D02*
X83250000Y-41750000D01*
X83250000Y-41750000D02*
X83000000Y-41750000D01*
X83000000Y-41750000D02*
X81375000Y-40125000D01*
X81375000Y-40125000D02*
X77125000Y-40125000D01*
X51950000Y-78150000D02*
X82025000Y-78150000D01*
X82025000Y-78150000D02*
X84875000Y-75300000D01*
X45325000Y-71525000D02*
X51950000Y-78150000D01*
X84875000Y-75300000D02*
X84875000Y-43375000D01*
D52*
%TO.N,+3.3V*%
X41525000Y-51525000D02*
X41525000Y-50275000D01*
D53*
X41525000Y-50275000D02*
X41375000Y-50125000D01*
%TO.N,/IMU/SCLK*%
X52450000Y-47000000D02*
X52325000Y-47125000D01*
X50840075Y-47467464D02*
X51982536Y-47467464D01*
X50441977Y-43984440D02*
X50202703Y-43984440D01*
X46623400Y-39735800D02*
X46623400Y-40165863D01*
X48418263Y-41508263D02*
X46675000Y-39765000D01*
X52450000Y-45992463D02*
X52450000Y-47000000D01*
X50094202Y-45352873D02*
X50094202Y-46721591D01*
X52450000Y-45992463D02*
X50441977Y-43984440D01*
X51982536Y-47467464D02*
X52325000Y-47125000D01*
X50202703Y-43984440D02*
X48418263Y-42200000D01*
X50094202Y-46721591D02*
X50840075Y-47467464D01*
X48418263Y-42200000D02*
X48418263Y-41508263D01*
%TO.N,/IMU/SDO*%
X47877081Y-42305000D02*
X51897081Y-46325000D01*
X51897081Y-46325000D02*
X51925000Y-46325000D01*
X51307536Y-46942464D02*
X51925000Y-46325000D01*
X46675000Y-42305000D02*
X47877081Y-42305000D01*
X51057538Y-46942464D02*
X51307536Y-46942464D01*
%TO.N,Net-(J13-Pin_3)*%
X41500000Y-46535686D02*
X41500000Y-41790000D01*
X41500000Y-41790000D02*
X43075000Y-40215000D01*
X45264314Y-50300000D02*
X41500000Y-46535686D01*
X46850000Y-50300000D02*
X45264314Y-50300000D01*
X47225000Y-49925000D02*
X46850000Y-50300000D01*
%TO.N,Net-(J14-Pin_3)*%
X127943874Y-59765800D02*
X130579174Y-62401100D01*
X125283074Y-59765800D02*
X127943874Y-59765800D01*
%TO.N,Net-(J13-Pin_4)*%
X42450000Y-49730000D02*
X42450000Y-49500610D01*
X41000000Y-39750000D02*
X43075000Y-37675000D01*
X42450000Y-49500610D02*
X41000000Y-48050610D01*
X41000000Y-48050610D02*
X41000000Y-39750000D01*
X42450000Y-49730000D02*
X42450000Y-53925000D01*
X42450000Y-53925000D02*
X42475000Y-53950000D01*
%TO.N,Net-(J13-Pin_2)*%
X43075000Y-42755000D02*
X41900000Y-43930000D01*
X41900000Y-46370000D02*
X45155000Y-49625000D01*
X41900000Y-43930000D02*
X41900000Y-46370000D01*
X45155000Y-49625000D02*
X45825000Y-49625000D01*
D56*
%TO.N,/MCU/USB_N*%
X57875000Y-68726249D02*
X57925000Y-68676249D01*
X57900000Y-72045000D02*
X57900000Y-69995000D01*
X57600000Y-67575000D02*
X57925000Y-67625000D01*
X57925000Y-67900000D02*
X57600000Y-67575000D01*
X57900000Y-69995000D02*
X57875000Y-69970000D01*
X57875000Y-69195000D02*
X57875000Y-68726249D01*
X57925000Y-68676249D02*
X57925000Y-67900000D01*
X57875000Y-69970000D02*
X57875000Y-69195000D01*
%TO.N,/MCU/USB_P*%
X58400000Y-72045000D02*
X58375000Y-72020000D01*
X58325000Y-67900000D02*
X58650000Y-67575000D01*
X58375000Y-68726249D02*
X58325000Y-68676249D01*
X58375000Y-69195000D02*
X58375000Y-68726249D01*
X58375000Y-69970000D02*
X58375000Y-69195000D01*
X58375000Y-72020000D02*
X58375000Y-69970000D01*
X58325000Y-68676249D02*
X58325000Y-67900000D01*
D53*
%TO.N,Net-(U6-ILIM)*%
X126795274Y-62909800D02*
X127632774Y-63747300D01*
X124095574Y-60953300D02*
X124095574Y-61440540D01*
X124095574Y-61440540D02*
X125564834Y-62909800D01*
X125564834Y-62909800D02*
X126795274Y-62909800D01*
%TO.N,/Power/CELL_1*%
X125654841Y-65572300D02*
X125484700Y-65572300D01*
X125484700Y-65572300D02*
X124700600Y-64788200D01*
X123676908Y-65572300D02*
X123916500Y-65572300D01*
X123916500Y-65572300D02*
X124700600Y-64788200D01*
%TO.N,/IMU/INT1*%
X45371664Y-47917464D02*
X52274999Y-47917464D01*
X52925000Y-44725000D02*
X52525000Y-44325000D01*
X52925000Y-47267463D02*
X52925000Y-44725000D01*
X44083400Y-46629200D02*
X45371664Y-47917464D01*
X52274999Y-47917464D02*
X52925000Y-47267463D01*
%TO.N,Net-(J14-Pin_1)*%
X125283074Y-57765800D02*
X130134474Y-57765800D01*
X130134474Y-57765800D02*
X130579174Y-57321100D01*
%TO.N,Net-(J14-Pin_4)*%
X129404174Y-62773800D02*
X129404174Y-63766100D01*
X125283074Y-60265800D02*
X126896174Y-60265800D01*
X126896174Y-60265800D02*
X129404174Y-62773800D01*
X129404174Y-63766100D02*
X130579174Y-64941100D01*
%TO.N,/Power/SW_BAT*%
X119783700Y-50951300D02*
X119706700Y-50951300D01*
X119706700Y-50951300D02*
X119693200Y-50937800D01*
D55*
%TO.N,/Power/SW_5*%
X99300000Y-53275000D02*
X103272404Y-53275000D01*
D56*
X103272404Y-53275000D02*
X103563000Y-53565596D01*
D55*
%TO.N,/Power/BOOT*%
X99300000Y-55175000D02*
X101727407Y-55175000D01*
X101727407Y-55175000D02*
X102175901Y-55623494D01*
D53*
%TO.N,Net-(J14-Pin_2)*%
X129983874Y-59265800D02*
X130579174Y-59861100D01*
X125283074Y-59265800D02*
X129983874Y-59265800D01*
%TO.N,Net-(U7-VCC)*%
X106109849Y-54719849D02*
X108154548Y-52675150D01*
X108700600Y-62617196D02*
X108529596Y-62617196D01*
X108700600Y-62617196D02*
X106510000Y-60426596D01*
X105000899Y-55623494D02*
X105206204Y-55623494D01*
X106510000Y-60426596D02*
X106510000Y-59780000D01*
X105206204Y-55623494D02*
X106109849Y-54719849D01*
X106559045Y-59780000D02*
X106602454Y-59823409D01*
X106510000Y-59780000D02*
X106559045Y-59780000D01*
%TO.N,Net-(U7-SS)*%
X101886600Y-63982396D02*
X102836600Y-64932396D01*
X102851800Y-59944996D02*
X102289600Y-59944996D01*
X102851800Y-58924397D02*
X102851800Y-59944996D01*
X102289600Y-59944996D02*
X101886600Y-60347996D01*
X101886600Y-60347996D02*
X101886600Y-63982396D01*
X102838401Y-58910998D02*
X102851800Y-58924397D01*
%TO.N,Net-(U6-REGN)*%
X120593974Y-66110300D02*
X120593974Y-64784800D01*
X120593974Y-64784800D02*
X121668974Y-63709800D01*
X122595574Y-60953300D02*
X122595574Y-62788200D01*
X122595574Y-62788200D02*
X121663774Y-63720000D01*
X121693974Y-67210300D02*
X120593974Y-66110300D01*
%TO.N,Net-(U6-BTST)*%
X117625174Y-55339900D02*
X117650574Y-55314500D01*
X122095574Y-61854426D02*
X122095574Y-60953300D01*
X121875000Y-62075000D02*
X122095574Y-61854426D01*
X118844374Y-55314500D02*
X117625174Y-55339900D01*
%TO.N,Net-(D7-K)*%
X127454974Y-53561900D02*
X127454974Y-51927900D01*
%TO.N,Net-(U6-STAT)*%
X127454974Y-55822500D02*
X126210374Y-57067100D01*
X126139074Y-58265800D02*
X126184974Y-58311700D01*
X127454974Y-55386900D02*
X127454974Y-55822500D01*
X125283074Y-58265800D02*
X126139074Y-58265800D01*
%TO.N,Net-(U7-EN)*%
X99500000Y-62250000D02*
X100125000Y-61625000D01*
X100125000Y-61009700D02*
X100125000Y-61625000D01*
X100134700Y-61000000D02*
X100125000Y-61009700D01*
X102175901Y-58948496D02*
X101076199Y-58948496D01*
X100134700Y-59889995D02*
X100134700Y-61000000D01*
X101076199Y-58948496D02*
X100134700Y-59889995D01*
X98600000Y-62250000D02*
X98600000Y-63900000D01*
X98600000Y-62250000D02*
X99500000Y-62250000D01*
%TO.N,Net-(U6-TS)*%
X125668974Y-67210300D02*
X126895602Y-67210300D01*
X124595574Y-60953300D02*
X125638074Y-61995800D01*
X126895602Y-67210300D02*
X127110102Y-66995800D01*
X125668974Y-67210300D02*
X123681474Y-67210300D01*
X123518974Y-67210300D02*
X123681474Y-67210300D01*
X125638074Y-61995800D02*
X126310102Y-61995800D01*
X121693974Y-69035300D02*
X123518974Y-67210300D01*
%TO.N,Net-(U7-PG)*%
X106111400Y-58285996D02*
X104963401Y-58285996D01*
X108617600Y-60792196D02*
X106111400Y-58285996D01*
%TO.N,Net-(U7-ILIM)*%
X104904600Y-60866496D02*
X104587799Y-60549695D01*
X104338399Y-60475395D02*
X104338399Y-58910996D01*
%TO.N,Net-(U7-MSEL)*%
X105000899Y-58948496D02*
X105929600Y-59877197D01*
X105929600Y-63470400D02*
X104950000Y-64450000D01*
X105929600Y-59877197D02*
X105929600Y-63470400D01*
%TO.N,Net-(U6-MID)*%
X125651574Y-63747300D02*
X123595574Y-61691300D01*
X123595574Y-61691300D02*
X123595574Y-60953300D01*
%TO.N,Net-(U6-CBSET)*%
X123670374Y-63747300D02*
X123095574Y-63172500D01*
X123095574Y-63172500D02*
X123095574Y-60953300D01*
%TO.N,Net-(U7-FB)*%
X103338400Y-60428796D02*
X102797200Y-60969996D01*
X103338400Y-58910996D02*
X103338400Y-60428796D01*
X102799100Y-62925796D02*
X103338400Y-62386496D01*
X103338400Y-62386496D02*
X103338400Y-58910996D01*
%TD*%
%TA.AperFunction,Conductor*%
%TO.N,GND*%
G36*
X86184191Y-32243907D02*
G01*
X86220155Y-32293407D01*
X86225000Y-32324000D01*
X86225000Y-78125783D01*
X86206093Y-78183974D01*
X86156593Y-78219938D01*
X86125784Y-78224783D01*
X82939118Y-78217841D01*
X82880969Y-78198807D01*
X82845113Y-78149228D01*
X82845246Y-78088043D01*
X82869327Y-78048840D01*
X85295505Y-75622665D01*
X85364689Y-75502835D01*
X85400501Y-75369183D01*
X85400501Y-75230816D01*
X85400501Y-75224754D01*
X85400500Y-75224736D01*
X85400500Y-43452170D01*
X85400501Y-43452157D01*
X85400501Y-43305816D01*
X85400500Y-43305814D01*
X85368062Y-43184756D01*
X85368062Y-43184755D01*
X85366578Y-43179221D01*
X85364688Y-43172165D01*
X85364688Y-43172164D01*
X85295505Y-43052335D01*
X85197665Y-42954495D01*
X85197662Y-42954493D01*
X83670506Y-41427337D01*
X83670505Y-41427335D01*
X83572665Y-41329495D01*
X83525219Y-41302102D01*
X83452837Y-41260312D01*
X83452839Y-41260312D01*
X83438054Y-41256350D01*
X83424591Y-41252743D01*
X83319183Y-41224499D01*
X83319181Y-41224499D01*
X83258676Y-41224499D01*
X83200485Y-41205592D01*
X83188672Y-41195503D01*
X81795506Y-39802337D01*
X81795505Y-39802335D01*
X81697665Y-39704495D01*
X81697662Y-39704493D01*
X81577837Y-39635312D01*
X81577839Y-39635312D01*
X81563054Y-39631350D01*
X81549591Y-39627743D01*
X81444183Y-39599499D01*
X81305817Y-39599499D01*
X81299754Y-39599499D01*
X81299738Y-39599500D01*
X77772586Y-39599500D01*
X77714395Y-39580593D01*
X77702583Y-39570504D01*
X77627263Y-39495185D01*
X77627258Y-39495181D01*
X77474523Y-39399211D01*
X77304261Y-39339633D01*
X77304257Y-39339632D01*
X77125000Y-39319435D01*
X76945742Y-39339632D01*
X76945738Y-39339633D01*
X76775477Y-39399211D01*
X76775476Y-39399211D01*
X76622741Y-39495181D01*
X76495181Y-39622741D01*
X76399211Y-39775476D01*
X76399211Y-39775477D01*
X76339633Y-39945738D01*
X76339632Y-39945742D01*
X76319435Y-40125000D01*
X76339632Y-40304257D01*
X76339633Y-40304261D01*
X76399211Y-40474522D01*
X76399211Y-40474523D01*
X76495181Y-40627258D01*
X76495184Y-40627262D01*
X76622738Y-40754816D01*
X76622740Y-40754817D01*
X76622741Y-40754818D01*
X76738044Y-40827268D01*
X76775478Y-40850789D01*
X76831903Y-40870533D01*
X76945738Y-40910366D01*
X76945742Y-40910367D01*
X76945745Y-40910368D01*
X77125000Y-40930565D01*
X77304255Y-40910368D01*
X77474522Y-40850789D01*
X77627262Y-40754816D01*
X77664923Y-40717155D01*
X77702583Y-40679496D01*
X77757100Y-40651719D01*
X77772586Y-40650500D01*
X81116323Y-40650500D01*
X81174514Y-40669407D01*
X81186327Y-40679496D01*
X82579493Y-42072662D01*
X82579495Y-42072665D01*
X82677335Y-42170505D01*
X82797164Y-42239688D01*
X82797166Y-42239688D01*
X82797167Y-42239689D01*
X82825405Y-42247256D01*
X82825408Y-42247256D01*
X82930814Y-42275500D01*
X82930816Y-42275501D01*
X82930817Y-42275501D01*
X82991324Y-42275501D01*
X83049515Y-42294408D01*
X83061328Y-42304497D01*
X84320504Y-43563673D01*
X84348281Y-43618190D01*
X84349500Y-43633677D01*
X84349500Y-50909700D01*
X84330593Y-50967891D01*
X84281093Y-51003855D01*
X84219907Y-51003855D01*
X84170407Y-50967891D01*
X84164764Y-50959202D01*
X84161312Y-50953224D01*
X84101555Y-50879429D01*
X83995163Y-50810337D01*
X83995160Y-50810335D01*
X83872615Y-50777499D01*
X83872609Y-50777499D01*
X83745925Y-50784138D01*
X83657277Y-50818166D01*
X82513226Y-51478685D01*
X82439429Y-51538444D01*
X82370337Y-51644836D01*
X82370335Y-51644839D01*
X82337499Y-51767384D01*
X82337499Y-51767390D01*
X82344138Y-51894074D01*
X82378166Y-51982722D01*
X83038685Y-53126773D01*
X83098444Y-53200570D01*
X83204836Y-53269662D01*
X83204841Y-53269665D01*
X83327385Y-53302501D01*
X83454077Y-53295861D01*
X83542724Y-53261833D01*
X84201002Y-52881774D01*
X84260848Y-52869053D01*
X84316744Y-52893940D01*
X84347337Y-52946928D01*
X84349500Y-52967511D01*
X84349500Y-75041322D01*
X84330593Y-75099513D01*
X84320504Y-75111326D01*
X81836327Y-77595504D01*
X81781810Y-77623281D01*
X81766323Y-77624500D01*
X81490760Y-77624500D01*
X81432569Y-77605593D01*
X81396605Y-77556093D01*
X81396605Y-77494907D01*
X81402139Y-77481372D01*
X81406909Y-77471791D01*
X81430582Y-77424250D01*
X81486397Y-77228083D01*
X81505215Y-77025000D01*
X81486397Y-76821917D01*
X81430582Y-76625750D01*
X81339673Y-76443179D01*
X81216764Y-76280421D01*
X81066041Y-76143019D01*
X80892637Y-76035652D01*
X80702456Y-75961976D01*
X80702455Y-75961975D01*
X80702453Y-75961975D01*
X80501976Y-75924500D01*
X80298024Y-75924500D01*
X80097546Y-75961975D01*
X80027632Y-75989059D01*
X79907363Y-76035652D01*
X79733959Y-76143019D01*
X79583237Y-76280420D01*
X79460328Y-76443177D01*
X79460323Y-76443186D01*
X79369419Y-76625747D01*
X79369418Y-76625750D01*
X79313603Y-76821917D01*
X79294785Y-77025000D01*
X79313603Y-77228083D01*
X79363249Y-77402569D01*
X79369419Y-77424252D01*
X79397861Y-77481372D01*
X79406874Y-77541890D01*
X79378593Y-77596148D01*
X79323822Y-77623420D01*
X79309240Y-77624500D01*
X70490760Y-77624500D01*
X70432569Y-77605593D01*
X70396605Y-77556093D01*
X70396605Y-77494907D01*
X70402139Y-77481372D01*
X70406909Y-77471791D01*
X70430582Y-77424250D01*
X70486397Y-77228083D01*
X70505215Y-77025000D01*
X70486397Y-76821917D01*
X70430582Y-76625750D01*
X70339673Y-76443179D01*
X70216764Y-76280421D01*
X70066041Y-76143019D01*
X69892637Y-76035652D01*
X69702456Y-75961976D01*
X69702455Y-75961975D01*
X69702453Y-75961975D01*
X69501976Y-75924500D01*
X69298024Y-75924500D01*
X69097546Y-75961975D01*
X69027632Y-75989059D01*
X68907363Y-76035652D01*
X68733959Y-76143019D01*
X68583237Y-76280420D01*
X68460328Y-76443177D01*
X68460323Y-76443186D01*
X68369419Y-76625747D01*
X68369418Y-76625750D01*
X68313603Y-76821917D01*
X68294785Y-77025000D01*
X68313603Y-77228083D01*
X68363249Y-77402569D01*
X68369419Y-77424252D01*
X68397861Y-77481372D01*
X68406874Y-77541890D01*
X68378593Y-77596148D01*
X68323822Y-77623420D01*
X68309240Y-77624500D01*
X64814976Y-77624500D01*
X64756785Y-77605593D01*
X64720821Y-77556093D01*
X64719907Y-77497881D01*
X64747598Y-77402569D01*
X64750500Y-77365694D01*
X64750500Y-75734306D01*
X64747598Y-75697431D01*
X64701744Y-75539602D01*
X64618081Y-75398135D01*
X64501865Y-75281919D01*
X64360398Y-75198256D01*
X64202569Y-75152402D01*
X64202568Y-75152401D01*
X64202565Y-75152401D01*
X64179140Y-75150558D01*
X64165694Y-75149500D01*
X62354306Y-75149500D01*
X62341773Y-75150486D01*
X62317434Y-75152401D01*
X62317427Y-75152403D01*
X62159602Y-75198256D01*
X62018136Y-75281918D01*
X61901918Y-75398136D01*
X61818256Y-75539602D01*
X61772403Y-75697427D01*
X61772401Y-75697434D01*
X61769500Y-75734311D01*
X61769500Y-77365688D01*
X61772401Y-77402565D01*
X61772402Y-77402569D01*
X61800092Y-77497880D01*
X61798171Y-77559035D01*
X61760671Y-77607381D01*
X61705024Y-77624500D01*
X54594976Y-77624500D01*
X54536785Y-77605593D01*
X54500821Y-77556093D01*
X54499907Y-77497881D01*
X54527598Y-77402569D01*
X54530500Y-77365694D01*
X54530500Y-75734306D01*
X54527598Y-75697431D01*
X54481744Y-75539602D01*
X54398081Y-75398135D01*
X54281865Y-75281919D01*
X54140398Y-75198256D01*
X53982569Y-75152402D01*
X53982568Y-75152401D01*
X53982565Y-75152401D01*
X53959140Y-75150558D01*
X53945694Y-75149500D01*
X52134306Y-75149500D01*
X52121773Y-75150486D01*
X52097434Y-75152401D01*
X52097427Y-75152403D01*
X51939602Y-75198256D01*
X51798136Y-75281918D01*
X51681918Y-75398136D01*
X51598256Y-75539602D01*
X51552403Y-75697427D01*
X51552401Y-75697434D01*
X51549500Y-75734311D01*
X51549500Y-76767323D01*
X51530593Y-76825514D01*
X51481093Y-76861478D01*
X51419907Y-76861478D01*
X51380496Y-76837327D01*
X46347480Y-71804311D01*
X51549500Y-71804311D01*
X51549500Y-73435688D01*
X51552401Y-73472565D01*
X51552401Y-73472568D01*
X51552402Y-73472569D01*
X51598256Y-73630398D01*
X51681919Y-73771865D01*
X51798135Y-73888081D01*
X51939602Y-73971744D01*
X52097431Y-74017598D01*
X52134306Y-74020500D01*
X52134311Y-74020500D01*
X53945689Y-74020500D01*
X53945694Y-74020500D01*
X53982569Y-74017598D01*
X54140398Y-73971744D01*
X54281865Y-73888081D01*
X54398081Y-73771865D01*
X54481744Y-73630398D01*
X54527598Y-73472569D01*
X54530500Y-73435694D01*
X54530500Y-71804306D01*
X54527598Y-71767431D01*
X54481744Y-71609602D01*
X54398081Y-71468135D01*
X54281865Y-71351919D01*
X54140398Y-71268256D01*
X53982569Y-71222402D01*
X53982568Y-71222401D01*
X53982565Y-71222401D01*
X53959140Y-71220558D01*
X53945694Y-71219500D01*
X52134306Y-71219500D01*
X52121773Y-71220486D01*
X52097434Y-71222401D01*
X52097427Y-71222403D01*
X51939602Y-71268256D01*
X51798136Y-71351918D01*
X51681918Y-71468136D01*
X51598256Y-71609602D01*
X51552403Y-71767427D01*
X51552401Y-71767434D01*
X51549500Y-71804311D01*
X46347480Y-71804311D01*
X46157958Y-71614789D01*
X46130181Y-71560272D01*
X46129585Y-71533698D01*
X46129744Y-71532285D01*
X46130565Y-71525000D01*
X46110368Y-71345745D01*
X46050789Y-71175478D01*
X46025756Y-71135639D01*
X45954818Y-71022741D01*
X45954817Y-71022740D01*
X45954816Y-71022738D01*
X45827262Y-70895184D01*
X45827259Y-70895182D01*
X45827258Y-70895181D01*
X45674523Y-70799211D01*
X45504261Y-70739633D01*
X45504257Y-70739632D01*
X45325000Y-70719435D01*
X45145742Y-70739632D01*
X45145738Y-70739633D01*
X44975477Y-70799211D01*
X44975476Y-70799211D01*
X44822741Y-70895181D01*
X44695181Y-71022741D01*
X44599211Y-71175476D01*
X44599211Y-71175477D01*
X44539633Y-71345738D01*
X44539632Y-71345742D01*
X44519435Y-71525000D01*
X44539632Y-71704257D01*
X44539633Y-71704261D01*
X44599211Y-71874522D01*
X44599211Y-71874523D01*
X44695181Y-72027258D01*
X44695184Y-72027262D01*
X44822738Y-72154816D01*
X44975478Y-72250789D01*
X45043657Y-72274646D01*
X45145738Y-72310366D01*
X45145742Y-72310367D01*
X45145745Y-72310368D01*
X45325000Y-72330565D01*
X45332285Y-72329744D01*
X45333698Y-72329585D01*
X45393640Y-72341856D01*
X45414789Y-72357958D01*
X51036008Y-77979177D01*
X51063785Y-78033694D01*
X51054214Y-78094126D01*
X51010949Y-78137391D01*
X50965788Y-78148181D01*
X40912784Y-78126280D01*
X40854635Y-78107246D01*
X40818779Y-78057667D01*
X40814000Y-78027280D01*
X40814000Y-52185085D01*
X40832907Y-52126894D01*
X40882407Y-52090930D01*
X40943593Y-52090930D01*
X40983001Y-52115079D01*
X41022738Y-52154816D01*
X41175478Y-52250789D01*
X41243657Y-52274646D01*
X41345738Y-52310366D01*
X41345742Y-52310367D01*
X41345745Y-52310368D01*
X41525000Y-52330565D01*
X41704255Y-52310368D01*
X41792802Y-52279383D01*
X41853972Y-52278010D01*
X41904266Y-52312854D01*
X41924475Y-52370606D01*
X41924500Y-52372828D01*
X41924500Y-53327414D01*
X41905593Y-53385605D01*
X41895504Y-53397417D01*
X41845185Y-53447736D01*
X41845181Y-53447741D01*
X41749211Y-53600476D01*
X41749211Y-53600477D01*
X41689633Y-53770738D01*
X41689632Y-53770742D01*
X41669435Y-53950000D01*
X41689632Y-54129257D01*
X41689633Y-54129261D01*
X41749211Y-54299522D01*
X41749211Y-54299523D01*
X41845181Y-54452258D01*
X41845184Y-54452262D01*
X41972738Y-54579816D01*
X42125478Y-54675789D01*
X42193657Y-54699646D01*
X42295738Y-54735366D01*
X42295742Y-54735367D01*
X42295745Y-54735368D01*
X42475000Y-54755565D01*
X42654255Y-54735368D01*
X42824522Y-54675789D01*
X42977262Y-54579816D01*
X43104816Y-54452262D01*
X43200789Y-54299522D01*
X43260368Y-54129255D01*
X43280565Y-53950000D01*
X43260368Y-53770745D01*
X43200789Y-53600478D01*
X43104816Y-53447738D01*
X43004494Y-53347416D01*
X42976719Y-53292902D01*
X42975500Y-53277415D01*
X42975500Y-49577781D01*
X42975501Y-49577768D01*
X42975501Y-49431428D01*
X42975501Y-49431427D01*
X42939689Y-49297775D01*
X42939687Y-49297772D01*
X42939687Y-49297770D01*
X42870508Y-49177949D01*
X42870507Y-49177948D01*
X42870506Y-49177947D01*
X42870505Y-49177945D01*
X41554496Y-47861936D01*
X41526719Y-47807419D01*
X41525500Y-47791932D01*
X41525500Y-47543363D01*
X41544407Y-47485172D01*
X41593907Y-47449208D01*
X41655093Y-47449208D01*
X41694504Y-47473359D01*
X44843807Y-50622662D01*
X44843809Y-50622665D01*
X44941649Y-50720505D01*
X45061478Y-50789688D01*
X45061480Y-50789688D01*
X45061481Y-50789689D01*
X45089719Y-50797256D01*
X45089722Y-50797256D01*
X45195128Y-50825500D01*
X45195130Y-50825501D01*
X45195131Y-50825501D01*
X45339560Y-50825501D01*
X45339576Y-50825500D01*
X46774738Y-50825500D01*
X46774754Y-50825501D01*
X46780817Y-50825501D01*
X46919183Y-50825501D01*
X47024591Y-50797256D01*
X47052836Y-50789688D01*
X47138421Y-50740275D01*
X47198265Y-50727554D01*
X47198689Y-50727600D01*
X47225000Y-50730565D01*
X47404255Y-50710368D01*
X47574522Y-50650789D01*
X47727262Y-50554816D01*
X47854816Y-50427262D01*
X47950789Y-50274522D01*
X48010368Y-50104255D01*
X48030565Y-49925000D01*
X48010368Y-49745745D01*
X47950789Y-49575478D01*
X47947219Y-49569797D01*
X47854818Y-49422741D01*
X47854817Y-49422740D01*
X47854816Y-49422738D01*
X47727262Y-49295184D01*
X47727259Y-49295182D01*
X47727258Y-49295181D01*
X47574523Y-49199211D01*
X47404261Y-49139633D01*
X47404257Y-49139632D01*
X47225000Y-49119435D01*
X47045742Y-49139632D01*
X47045738Y-49139633D01*
X46875477Y-49199211D01*
X46875476Y-49199211D01*
X46722741Y-49295181D01*
X46722735Y-49295186D01*
X46711743Y-49306178D01*
X46657226Y-49333954D01*
X46596794Y-49324380D01*
X46553531Y-49281114D01*
X46552544Y-49279123D01*
X46550787Y-49275474D01*
X46454818Y-49122741D01*
X46454817Y-49122740D01*
X46454816Y-49122738D01*
X46327262Y-48995184D01*
X46327259Y-48995182D01*
X46327258Y-48995181D01*
X46174523Y-48899211D01*
X46004261Y-48839633D01*
X46004257Y-48839632D01*
X45825000Y-48819435D01*
X45645742Y-48839632D01*
X45645738Y-48839633D01*
X45475477Y-48899211D01*
X45475476Y-48899211D01*
X45356188Y-48974166D01*
X45296858Y-48989116D01*
X45240071Y-48966337D01*
X45233513Y-48960344D01*
X43603919Y-47330750D01*
X43576142Y-47276233D01*
X43585713Y-47215801D01*
X43628978Y-47172536D01*
X43689410Y-47162965D01*
X43719928Y-47173085D01*
X43801316Y-47215801D01*
X43851035Y-47241896D01*
X43959457Y-47268619D01*
X44005769Y-47294738D01*
X44951157Y-48240126D01*
X44951159Y-48240129D01*
X45048999Y-48337969D01*
X45168828Y-48407152D01*
X45168830Y-48407152D01*
X45168831Y-48407153D01*
X45235653Y-48425058D01*
X45235654Y-48425058D01*
X45302480Y-48442964D01*
X45302481Y-48442964D01*
X52199737Y-48442964D01*
X52199753Y-48442965D01*
X52205816Y-48442965D01*
X52344182Y-48442965D01*
X52449590Y-48414720D01*
X52477835Y-48407152D01*
X52597664Y-48337969D01*
X52695504Y-48240129D01*
X52695505Y-48240126D01*
X53247662Y-47687969D01*
X53247665Y-47687968D01*
X53345505Y-47590128D01*
X53414688Y-47470299D01*
X53450500Y-47336646D01*
X53450500Y-44655817D01*
X53443448Y-44629500D01*
X53416939Y-44530565D01*
X53414688Y-44522164D01*
X53345505Y-44402335D01*
X53247665Y-44304495D01*
X53247662Y-44304493D01*
X53192287Y-44249118D01*
X53164510Y-44194601D01*
X53164013Y-44191047D01*
X53161237Y-44168182D01*
X53105220Y-44020477D01*
X53025002Y-43904261D01*
X53015484Y-43890471D01*
X52992033Y-43869695D01*
X52897240Y-43785717D01*
X52781555Y-43725000D01*
X52757364Y-43712303D01*
X52603987Y-43674500D01*
X52603985Y-43674500D01*
X52446015Y-43674500D01*
X52446012Y-43674500D01*
X52292635Y-43712303D01*
X52152758Y-43785718D01*
X52034515Y-43890471D01*
X51944780Y-44020476D01*
X51888763Y-44168182D01*
X51888762Y-44168183D01*
X51869722Y-44324998D01*
X51869722Y-44325002D01*
X51882684Y-44431760D01*
X51870929Y-44491805D01*
X51826124Y-44533473D01*
X51765385Y-44540848D01*
X51714402Y-44513696D01*
X50862483Y-43661777D01*
X50862482Y-43661775D01*
X50764642Y-43563935D01*
X50644813Y-43494752D01*
X50644812Y-43494751D01*
X50644809Y-43494750D01*
X50606831Y-43484574D01*
X50606830Y-43484574D01*
X50511162Y-43458939D01*
X50511160Y-43458939D01*
X50461379Y-43458939D01*
X50403188Y-43440032D01*
X50391375Y-43429943D01*
X48972759Y-42011327D01*
X48944982Y-41956810D01*
X48943763Y-41941323D01*
X48943763Y-41921966D01*
X48962670Y-41863775D01*
X49012170Y-41827811D01*
X49056853Y-41823974D01*
X49102240Y-41830500D01*
X49102244Y-41830500D01*
X63334553Y-41830500D01*
X63392744Y-41849407D01*
X63428708Y-41898907D01*
X63428708Y-41960093D01*
X63392744Y-42009593D01*
X63360179Y-42025125D01*
X63334345Y-42032048D01*
X63322163Y-42035312D01*
X63202332Y-42104497D01*
X63104494Y-42202334D01*
X63104495Y-42202335D01*
X63104493Y-42202337D01*
X62414788Y-42892041D01*
X62360271Y-42919818D01*
X62333705Y-42920415D01*
X62325003Y-42919435D01*
X62325001Y-42919435D01*
X62325000Y-42919435D01*
X62235372Y-42929533D01*
X62145742Y-42939632D01*
X62145738Y-42939633D01*
X61975477Y-42999211D01*
X61975476Y-42999211D01*
X61822741Y-43095181D01*
X61695181Y-43222741D01*
X61599211Y-43375476D01*
X61599211Y-43375477D01*
X61539633Y-43545738D01*
X61539632Y-43545742D01*
X61519435Y-43725000D01*
X61539632Y-43904257D01*
X61539633Y-43904261D01*
X61599211Y-44074522D01*
X61599211Y-44074523D01*
X61695181Y-44227258D01*
X61695184Y-44227262D01*
X61822738Y-44354816D01*
X61822740Y-44354817D01*
X61822741Y-44354818D01*
X61945193Y-44431760D01*
X61975478Y-44450789D01*
X62043657Y-44474646D01*
X62145738Y-44510366D01*
X62145742Y-44510367D01*
X62145745Y-44510368D01*
X62325000Y-44530565D01*
X62504255Y-44510368D01*
X62674522Y-44450789D01*
X62827262Y-44354816D01*
X62954816Y-44227262D01*
X63050789Y-44074522D01*
X63110368Y-43904255D01*
X63130565Y-43725000D01*
X63129584Y-43716301D01*
X63141853Y-43656363D01*
X63157958Y-43635210D01*
X63713674Y-43079496D01*
X63768190Y-43051719D01*
X63783677Y-43050500D01*
X64577414Y-43050500D01*
X64635605Y-43069407D01*
X64647417Y-43079496D01*
X64722736Y-43154814D01*
X64722738Y-43154816D01*
X64722740Y-43154817D01*
X64722741Y-43154818D01*
X64770385Y-43184755D01*
X64875478Y-43250789D01*
X64920658Y-43266598D01*
X65045738Y-43310366D01*
X65045742Y-43310367D01*
X65045745Y-43310368D01*
X65225000Y-43330565D01*
X65404255Y-43310368D01*
X65574522Y-43250789D01*
X65727262Y-43154816D01*
X65854816Y-43027262D01*
X65950789Y-42874522D01*
X66010368Y-42704255D01*
X66030565Y-42525000D01*
X66010368Y-42345745D01*
X66003343Y-42325670D01*
X65960187Y-42202337D01*
X65950789Y-42175478D01*
X65947664Y-42170505D01*
X65854818Y-42022741D01*
X65854817Y-42022740D01*
X65854816Y-42022738D01*
X65831579Y-41999501D01*
X65803804Y-41944987D01*
X65813375Y-41884555D01*
X65856640Y-41841290D01*
X65901585Y-41830500D01*
X69820500Y-41830500D01*
X69878691Y-41849407D01*
X69914655Y-41898907D01*
X69919500Y-41929500D01*
X69919500Y-60807902D01*
X69919821Y-60825923D01*
X69920138Y-60834791D01*
X69921103Y-60852798D01*
X69951688Y-60993396D01*
X69976104Y-61058857D01*
X69976105Y-61058860D01*
X70002889Y-61107910D01*
X70008756Y-61120756D01*
X70013756Y-61134160D01*
X70019999Y-61168760D01*
X70019999Y-61628994D01*
X70011052Y-61670121D01*
X69959664Y-61782640D01*
X69959664Y-61782641D01*
X69939976Y-61849690D01*
X69939974Y-61849699D01*
X69919500Y-61992100D01*
X69919500Y-68769546D01*
X69900593Y-68827737D01*
X69890504Y-68839550D01*
X69691800Y-69038254D01*
X69637283Y-69066031D01*
X69621796Y-69067250D01*
X61543180Y-69067250D01*
X61480343Y-69079749D01*
X61417506Y-69092249D01*
X61417505Y-69092249D01*
X61417502Y-69092250D01*
X61299123Y-69141284D01*
X61192580Y-69212473D01*
X60569502Y-69835550D01*
X60514986Y-69863327D01*
X60454554Y-69853756D01*
X60411289Y-69810491D01*
X60400499Y-69765546D01*
X60400499Y-69625978D01*
X60396066Y-69597987D01*
X60396066Y-69567012D01*
X60400500Y-69539019D01*
X60400499Y-68850982D01*
X60385646Y-68757196D01*
X60328050Y-68644158D01*
X60238342Y-68554450D01*
X60125304Y-68496854D01*
X60125305Y-68496854D01*
X60031522Y-68482000D01*
X59718478Y-68482000D01*
X59718476Y-68482001D01*
X59640486Y-68494352D01*
X59609515Y-68494352D01*
X59531522Y-68482000D01*
X59218479Y-68482000D01*
X59218476Y-68482001D01*
X59124700Y-68496852D01*
X59124695Y-68496854D01*
X59011659Y-68554449D01*
X58982729Y-68583379D01*
X58928212Y-68611155D01*
X58867780Y-68601583D01*
X58824516Y-68558318D01*
X58820792Y-68548619D01*
X58820578Y-68548708D01*
X58818096Y-68542718D01*
X58818095Y-68542713D01*
X58816602Y-68540127D01*
X58813762Y-68535207D01*
X58800500Y-68485710D01*
X58800500Y-68440673D01*
X58819407Y-68382482D01*
X58866799Y-68347230D01*
X58999522Y-68300789D01*
X59152262Y-68204816D01*
X59279816Y-68077262D01*
X59375789Y-67924522D01*
X59435368Y-67754255D01*
X59455565Y-67575000D01*
X59435368Y-67395745D01*
X59375789Y-67225478D01*
X59279816Y-67072738D01*
X59152262Y-66945184D01*
X59152259Y-66945182D01*
X59152258Y-66945181D01*
X58999523Y-66849211D01*
X58829261Y-66789633D01*
X58829257Y-66789632D01*
X58650000Y-66769435D01*
X58470742Y-66789632D01*
X58470738Y-66789633D01*
X58300477Y-66849211D01*
X58300476Y-66849211D01*
X58177671Y-66926375D01*
X58118340Y-66941325D01*
X58072329Y-66926375D01*
X57949523Y-66849211D01*
X57779261Y-66789633D01*
X57779257Y-66789632D01*
X57600000Y-66769435D01*
X57420742Y-66789632D01*
X57420738Y-66789633D01*
X57250477Y-66849211D01*
X57250476Y-66849211D01*
X57097741Y-66945181D01*
X56970181Y-67072741D01*
X56874211Y-67225476D01*
X56874211Y-67225477D01*
X56814633Y-67395738D01*
X56814632Y-67395742D01*
X56794435Y-67575000D01*
X56814632Y-67754257D01*
X56814633Y-67754261D01*
X56874211Y-67924522D01*
X56874211Y-67924523D01*
X56970181Y-68077258D01*
X56970184Y-68077262D01*
X57097738Y-68204816D01*
X57250478Y-68300789D01*
X57383200Y-68347230D01*
X57431878Y-68384294D01*
X57449500Y-68440673D01*
X57449500Y-68485710D01*
X57436238Y-68535207D01*
X57431906Y-68542709D01*
X57431905Y-68542713D01*
X57399500Y-68663648D01*
X57399500Y-68663650D01*
X57399500Y-68664449D01*
X57399266Y-68665422D01*
X57398653Y-68670081D01*
X57398163Y-68670016D01*
X57388710Y-68709393D01*
X57364355Y-68757191D01*
X57364354Y-68757196D01*
X57349500Y-68850979D01*
X57349500Y-69539017D01*
X57353934Y-69567014D01*
X57353934Y-69597981D01*
X57349501Y-69625978D01*
X57349500Y-69625982D01*
X57349500Y-70314020D01*
X57349501Y-70314023D01*
X57364352Y-70407799D01*
X57364353Y-70407804D01*
X57394977Y-70467904D01*
X57413709Y-70504669D01*
X57424500Y-70549613D01*
X57424500Y-70970500D01*
X57405593Y-71028691D01*
X57356093Y-71064655D01*
X57325502Y-71069500D01*
X57279522Y-71069500D01*
X57279515Y-71069501D01*
X57222883Y-71075588D01*
X57184594Y-71089869D01*
X57123465Y-71092488D01*
X57115404Y-71089869D01*
X57077115Y-71075588D01*
X57077108Y-71075587D01*
X57051502Y-71072834D01*
X57020485Y-71069500D01*
X57020481Y-71069500D01*
X56779521Y-71069500D01*
X56779515Y-71069501D01*
X56722883Y-71075588D01*
X56684594Y-71089869D01*
X56623465Y-71092488D01*
X56615404Y-71089869D01*
X56577115Y-71075588D01*
X56577108Y-71075587D01*
X56551502Y-71072834D01*
X56520485Y-71069500D01*
X56520481Y-71069500D01*
X56279521Y-71069500D01*
X56279515Y-71069501D01*
X56222888Y-71075587D01*
X56222883Y-71075588D01*
X56154234Y-71101193D01*
X56093105Y-71103813D01*
X56083320Y-71100533D01*
X56045082Y-71085454D01*
X56031564Y-71080123D01*
X56013871Y-71077998D01*
X55943106Y-71069500D01*
X55943102Y-71069500D01*
X55556898Y-71069500D01*
X55556893Y-71069500D01*
X55468434Y-71080123D01*
X55327660Y-71135637D01*
X55327656Y-71135640D01*
X55207081Y-71227075D01*
X55207075Y-71227081D01*
X55115640Y-71347656D01*
X55115637Y-71347660D01*
X55060123Y-71488434D01*
X55049500Y-71576893D01*
X55049500Y-72513106D01*
X55060123Y-72601564D01*
X55074593Y-72638258D01*
X55078351Y-72699328D01*
X55045495Y-72750944D01*
X55031997Y-72760311D01*
X54998739Y-72779513D01*
X54919513Y-72858739D01*
X54863498Y-72955758D01*
X54847782Y-73014412D01*
X54834500Y-73063982D01*
X54834500Y-73176018D01*
X54860072Y-73271455D01*
X54863498Y-73284241D01*
X54916544Y-73376117D01*
X54919515Y-73381263D01*
X54998737Y-73460485D01*
X54998739Y-73460486D01*
X55095759Y-73516501D01*
X55095757Y-73516501D01*
X55095761Y-73516502D01*
X55095763Y-73516503D01*
X55203982Y-73545500D01*
X55203984Y-73545500D01*
X55316016Y-73545500D01*
X55316018Y-73545500D01*
X55424237Y-73516503D01*
X55424239Y-73516501D01*
X55424241Y-73516501D01*
X55453064Y-73499859D01*
X55521263Y-73460485D01*
X55600485Y-73381263D01*
X55600487Y-73381258D01*
X55600490Y-73381256D01*
X55604434Y-73376117D01*
X55607055Y-73378128D01*
X55642191Y-73346066D01*
X55702997Y-73339264D01*
X55753064Y-73366232D01*
X56334494Y-73947662D01*
X56334496Y-73947665D01*
X56432336Y-74045505D01*
X56552165Y-74114688D01*
X56552167Y-74114688D01*
X56552168Y-74114689D01*
X56580406Y-74122256D01*
X56580409Y-74122256D01*
X56685815Y-74150500D01*
X56685817Y-74150501D01*
X56685818Y-74150501D01*
X56830247Y-74150501D01*
X56830263Y-74150500D01*
X59694181Y-74150500D01*
X59694183Y-74150500D01*
X59827836Y-74114688D01*
X59947665Y-74045505D01*
X60045505Y-73947665D01*
X60051609Y-73937090D01*
X60067337Y-73916591D01*
X60581088Y-73402841D01*
X60635604Y-73375065D01*
X60696036Y-73384636D01*
X60721091Y-73402839D01*
X60778737Y-73460485D01*
X60778739Y-73460486D01*
X60875759Y-73516501D01*
X60875757Y-73516501D01*
X60875761Y-73516502D01*
X60875763Y-73516503D01*
X60983982Y-73545500D01*
X60983984Y-73545500D01*
X61096016Y-73545500D01*
X61096018Y-73545500D01*
X61204237Y-73516503D01*
X61204239Y-73516501D01*
X61204241Y-73516501D01*
X61233064Y-73499859D01*
X61301263Y-73460485D01*
X61380485Y-73381263D01*
X61436503Y-73284237D01*
X61465500Y-73176018D01*
X61465500Y-73063982D01*
X61436503Y-72955763D01*
X61436501Y-72955760D01*
X61436501Y-72955758D01*
X61380486Y-72858739D01*
X61380485Y-72858737D01*
X61301263Y-72779515D01*
X61301260Y-72779513D01*
X61268003Y-72760312D01*
X61227062Y-72714843D01*
X61220666Y-72653992D01*
X61225406Y-72638258D01*
X61239877Y-72601564D01*
X61250500Y-72513102D01*
X61250500Y-71804311D01*
X61769500Y-71804311D01*
X61769500Y-73435688D01*
X61772401Y-73472565D01*
X61772401Y-73472568D01*
X61772402Y-73472569D01*
X61818256Y-73630398D01*
X61901919Y-73771865D01*
X62018135Y-73888081D01*
X62159602Y-73971744D01*
X62317431Y-74017598D01*
X62354306Y-74020500D01*
X62354311Y-74020500D01*
X64165689Y-74020500D01*
X64165694Y-74020500D01*
X64202569Y-74017598D01*
X64360398Y-73971744D01*
X64501865Y-73888081D01*
X64618081Y-73771865D01*
X64701744Y-73630398D01*
X64747598Y-73472569D01*
X64750500Y-73435694D01*
X64750500Y-71804306D01*
X64747598Y-71767431D01*
X64701744Y-71609602D01*
X64618081Y-71468135D01*
X64501865Y-71351919D01*
X64360398Y-71268256D01*
X64202569Y-71222402D01*
X64202568Y-71222401D01*
X64202565Y-71222401D01*
X64179140Y-71220558D01*
X64165694Y-71219500D01*
X62354306Y-71219500D01*
X62341773Y-71220486D01*
X62317434Y-71222401D01*
X62317427Y-71222403D01*
X62159602Y-71268256D01*
X62018136Y-71351918D01*
X61901918Y-71468136D01*
X61818256Y-71609602D01*
X61772403Y-71767427D01*
X61772401Y-71767434D01*
X61769500Y-71804311D01*
X61250500Y-71804311D01*
X61250500Y-71576898D01*
X61239877Y-71488436D01*
X61207402Y-71406084D01*
X61200500Y-71369766D01*
X61200500Y-71085454D01*
X61219407Y-71027263D01*
X61229496Y-71015450D01*
X61847700Y-70397246D01*
X61902217Y-70369469D01*
X61917704Y-70368250D01*
X69996318Y-70368250D01*
X69996319Y-70368250D01*
X70121994Y-70343251D01*
X70240377Y-70294215D01*
X70346919Y-70223027D01*
X70565392Y-70004554D01*
X70710451Y-69859496D01*
X70764967Y-69831719D01*
X70780454Y-69830500D01*
X74302946Y-69830500D01*
X74302953Y-69830500D01*
X74406478Y-69819786D01*
X74456193Y-69809384D01*
X74456194Y-69809383D01*
X74456197Y-69809383D01*
X74555329Y-69777694D01*
X74555329Y-69777693D01*
X74555338Y-69777691D01*
X74677597Y-69701834D01*
X74731120Y-69656923D01*
X74827054Y-69549695D01*
X74888894Y-69419781D01*
X74909640Y-69353062D01*
X74932373Y-69210991D01*
X75061904Y-61050539D01*
X75237754Y-49971978D01*
X75745500Y-49971978D01*
X75745500Y-51293021D01*
X75745501Y-51293023D01*
X75760352Y-51386799D01*
X75760354Y-51386804D01*
X75817950Y-51499842D01*
X75907658Y-51589550D01*
X76020696Y-51647146D01*
X76114481Y-51662000D01*
X77435518Y-51661999D01*
X77435521Y-51661999D01*
X77435522Y-51661998D01*
X77482411Y-51654572D01*
X77529299Y-51647147D01*
X77529299Y-51647146D01*
X77529304Y-51647146D01*
X77642342Y-51589550D01*
X77732050Y-51499842D01*
X77789646Y-51386804D01*
X77804500Y-51293019D01*
X77804499Y-49971982D01*
X77804499Y-49971981D01*
X77804499Y-49971978D01*
X77804498Y-49971976D01*
X77789647Y-49878200D01*
X77789646Y-49878198D01*
X77789646Y-49878196D01*
X77732050Y-49765158D01*
X77642342Y-49675450D01*
X77529304Y-49617854D01*
X77529305Y-49617854D01*
X77435521Y-49603000D01*
X76114478Y-49603000D01*
X76114476Y-49603001D01*
X76020700Y-49617852D01*
X76020695Y-49617854D01*
X75907659Y-49675449D01*
X75817949Y-49765159D01*
X75760354Y-49878195D01*
X75745500Y-49971978D01*
X75237754Y-49971978D01*
X75305918Y-45677610D01*
X80137795Y-45677610D01*
X80137795Y-45677615D01*
X80170631Y-45800160D01*
X80170633Y-45800163D01*
X80239725Y-45906555D01*
X80239725Y-45906556D01*
X80313520Y-45966314D01*
X81457572Y-46626831D01*
X81546219Y-46660861D01*
X81672911Y-46667501D01*
X81795455Y-46634665D01*
X81901851Y-46565570D01*
X81901852Y-46565570D01*
X81909368Y-46556289D01*
X81961610Y-46491776D01*
X82622127Y-45347724D01*
X82656157Y-45259077D01*
X82662797Y-45132385D01*
X82629961Y-45009841D01*
X82600214Y-44964035D01*
X82560866Y-44903444D01*
X82560866Y-44903443D01*
X82487071Y-44843685D01*
X81449126Y-44244429D01*
X81343020Y-44183169D01*
X81343019Y-44183168D01*
X81343018Y-44183168D01*
X81318751Y-44173852D01*
X81254373Y-44149139D01*
X81191027Y-44145819D01*
X81127685Y-44142499D01*
X81127680Y-44142499D01*
X81005135Y-44175335D01*
X81005132Y-44175337D01*
X80898740Y-44244429D01*
X80898739Y-44244429D01*
X80838981Y-44318224D01*
X80178464Y-45462277D01*
X80160263Y-45509691D01*
X80144435Y-45550923D01*
X80144435Y-45550926D01*
X80137795Y-45677610D01*
X75305918Y-45677610D01*
X75428436Y-37958988D01*
X75417785Y-37847439D01*
X75417782Y-37847426D01*
X75417782Y-37847422D01*
X75411076Y-37815378D01*
X75406596Y-37793963D01*
X75371630Y-37687496D01*
X75371629Y-37687495D01*
X75371629Y-37687493D01*
X75371628Y-37687491D01*
X75293848Y-37566466D01*
X75293846Y-37566464D01*
X75293842Y-37566457D01*
X75248087Y-37513653D01*
X75248079Y-37513646D01*
X75248076Y-37513643D01*
X75139354Y-37419433D01*
X75008481Y-37359664D01*
X75008479Y-37359663D01*
X75008476Y-37359662D01*
X74941437Y-37339977D01*
X74941433Y-37339976D01*
X74941430Y-37339975D01*
X74941423Y-37339974D01*
X74799022Y-37319500D01*
X74799017Y-37319500D01*
X66539836Y-37319500D01*
X66481645Y-37300593D01*
X66445681Y-37251093D01*
X66444209Y-37194877D01*
X66463207Y-37123977D01*
X66482277Y-36906000D01*
X66478964Y-36868127D01*
X66463208Y-36688030D01*
X66463207Y-36688027D01*
X66463207Y-36688023D01*
X66406575Y-36476670D01*
X66314102Y-36278362D01*
X66188598Y-36099123D01*
X66033877Y-35944402D01*
X66033873Y-35944399D01*
X66033872Y-35944398D01*
X65934435Y-35874772D01*
X65854639Y-35818898D01*
X65656330Y-35726425D01*
X65444977Y-35669793D01*
X65444976Y-35669792D01*
X65444969Y-35669791D01*
X65227003Y-35650723D01*
X65226997Y-35650723D01*
X65009030Y-35669791D01*
X64797666Y-35726426D01*
X64599372Y-35818892D01*
X64599364Y-35818896D01*
X64420127Y-35944398D01*
X64265398Y-36099127D01*
X64139896Y-36278364D01*
X64139892Y-36278372D01*
X64047426Y-36476666D01*
X63990791Y-36688030D01*
X63971723Y-36905996D01*
X63971723Y-36906003D01*
X63990791Y-37123969D01*
X64009791Y-37194877D01*
X64006588Y-37255979D01*
X63968083Y-37303529D01*
X63914164Y-37319500D01*
X62806166Y-37319500D01*
X62747975Y-37300593D01*
X62712011Y-37251093D01*
X62710539Y-37194877D01*
X62729537Y-37123977D01*
X62748607Y-36906000D01*
X62745294Y-36868127D01*
X62729538Y-36688030D01*
X62729537Y-36688027D01*
X62729537Y-36688023D01*
X62672905Y-36476670D01*
X62580432Y-36278362D01*
X62454928Y-36099123D01*
X62300207Y-35944402D01*
X62300203Y-35944399D01*
X62300202Y-35944398D01*
X62200765Y-35874772D01*
X62120969Y-35818898D01*
X61922660Y-35726425D01*
X61711307Y-35669793D01*
X61711306Y-35669792D01*
X61711299Y-35669791D01*
X61493333Y-35650723D01*
X61493327Y-35650723D01*
X61275360Y-35669791D01*
X61063996Y-35726426D01*
X60865702Y-35818892D01*
X60865694Y-35818896D01*
X60686457Y-35944398D01*
X60531728Y-36099127D01*
X60406226Y-36278364D01*
X60406222Y-36278372D01*
X60313756Y-36476666D01*
X60257121Y-36688030D01*
X60238053Y-36905996D01*
X60238053Y-36906003D01*
X60257121Y-37123969D01*
X60276121Y-37194877D01*
X60272918Y-37255979D01*
X60234413Y-37303529D01*
X60180494Y-37319500D01*
X59072500Y-37319500D01*
X59014309Y-37300593D01*
X58978345Y-37251093D01*
X58976873Y-37194877D01*
X58995871Y-37123977D01*
X59014941Y-36906000D01*
X59011628Y-36868127D01*
X58995872Y-36688030D01*
X58995871Y-36688027D01*
X58995871Y-36688023D01*
X58939239Y-36476670D01*
X58846766Y-36278362D01*
X58721262Y-36099123D01*
X58566541Y-35944402D01*
X58566537Y-35944399D01*
X58566536Y-35944398D01*
X58467099Y-35874772D01*
X58387303Y-35818898D01*
X58188994Y-35726425D01*
X57977641Y-35669793D01*
X57977640Y-35669792D01*
X57977633Y-35669791D01*
X57759667Y-35650723D01*
X57759661Y-35650723D01*
X57541694Y-35669791D01*
X57330330Y-35726426D01*
X57132036Y-35818892D01*
X57132028Y-35818896D01*
X56952791Y-35944398D01*
X56798062Y-36099127D01*
X56672560Y-36278364D01*
X56672556Y-36278372D01*
X56580090Y-36476666D01*
X56523455Y-36688030D01*
X56504387Y-36905996D01*
X56504387Y-36906003D01*
X56523455Y-37123969D01*
X56542455Y-37194877D01*
X56539252Y-37255979D01*
X56500747Y-37303529D01*
X56446828Y-37319500D01*
X55338834Y-37319500D01*
X55280643Y-37300593D01*
X55244679Y-37251093D01*
X55243207Y-37194877D01*
X55262205Y-37123977D01*
X55281275Y-36906000D01*
X55277962Y-36868127D01*
X55262206Y-36688030D01*
X55262205Y-36688027D01*
X55262205Y-36688023D01*
X55205573Y-36476670D01*
X55113100Y-36278362D01*
X54987596Y-36099123D01*
X54832875Y-35944402D01*
X54832871Y-35944399D01*
X54832870Y-35944398D01*
X54733433Y-35874772D01*
X54653637Y-35818898D01*
X54455328Y-35726425D01*
X54243975Y-35669793D01*
X54243974Y-35669792D01*
X54243967Y-35669791D01*
X54026001Y-35650723D01*
X54025995Y-35650723D01*
X53808028Y-35669791D01*
X53596664Y-35726426D01*
X53398370Y-35818892D01*
X53398362Y-35818896D01*
X53219125Y-35944398D01*
X53064396Y-36099127D01*
X52938894Y-36278364D01*
X52938890Y-36278372D01*
X52846424Y-36476666D01*
X52789789Y-36688030D01*
X52770721Y-36905996D01*
X52770721Y-36906003D01*
X52789789Y-37123969D01*
X52808789Y-37194877D01*
X52805586Y-37255979D01*
X52767081Y-37303529D01*
X52713162Y-37319500D01*
X51605168Y-37319500D01*
X51546977Y-37300593D01*
X51511013Y-37251093D01*
X51509541Y-37194877D01*
X51528539Y-37123977D01*
X51547609Y-36906000D01*
X51544296Y-36868127D01*
X51528540Y-36688030D01*
X51528539Y-36688027D01*
X51528539Y-36688023D01*
X51471907Y-36476670D01*
X51379434Y-36278362D01*
X51253930Y-36099123D01*
X51099209Y-35944402D01*
X51099205Y-35944399D01*
X51099204Y-35944398D01*
X50999767Y-35874772D01*
X50919971Y-35818898D01*
X50721662Y-35726425D01*
X50510309Y-35669793D01*
X50510308Y-35669792D01*
X50510301Y-35669791D01*
X50292335Y-35650723D01*
X50292329Y-35650723D01*
X50074362Y-35669791D01*
X49862998Y-35726426D01*
X49664704Y-35818892D01*
X49664696Y-35818896D01*
X49485459Y-35944398D01*
X49330730Y-36099127D01*
X49205228Y-36278364D01*
X49205224Y-36278372D01*
X49112758Y-36476666D01*
X49056123Y-36688030D01*
X49037055Y-36905996D01*
X49037055Y-36906003D01*
X49056123Y-37123971D01*
X49076920Y-37201587D01*
X49073717Y-37262688D01*
X49035211Y-37310238D01*
X48991877Y-37325641D01*
X48941544Y-37331053D01*
X48941535Y-37331054D01*
X48890037Y-37342257D01*
X48787497Y-37376386D01*
X48787496Y-37376386D01*
X48720516Y-37419433D01*
X48666457Y-37454175D01*
X48666456Y-37454176D01*
X48666453Y-37454178D01*
X48613656Y-37499927D01*
X48613643Y-37499940D01*
X48519433Y-37608662D01*
X48459664Y-37739534D01*
X48459664Y-37739535D01*
X48439976Y-37806584D01*
X48439974Y-37806593D01*
X48419500Y-37948994D01*
X48419500Y-40527323D01*
X48400593Y-40585514D01*
X48351093Y-40621478D01*
X48289907Y-40621478D01*
X48250496Y-40597327D01*
X47893496Y-40240327D01*
X47865719Y-40185810D01*
X47867873Y-40144700D01*
X47873152Y-40125000D01*
X47911207Y-39982977D01*
X47912547Y-39967669D01*
X47930277Y-39765003D01*
X47930277Y-39764996D01*
X47911208Y-39547030D01*
X47911207Y-39547027D01*
X47911207Y-39547023D01*
X47854575Y-39335670D01*
X47762102Y-39137362D01*
X47651071Y-38978793D01*
X47636601Y-38958127D01*
X47636600Y-38958126D01*
X47636598Y-38958123D01*
X47481877Y-38803402D01*
X47481873Y-38803399D01*
X47481872Y-38803398D01*
X47382435Y-38733772D01*
X47302639Y-38677898D01*
X47104330Y-38585425D01*
X46892977Y-38528793D01*
X46892976Y-38528792D01*
X46892969Y-38528791D01*
X46675003Y-38509723D01*
X46674997Y-38509723D01*
X46457030Y-38528791D01*
X46245666Y-38585426D01*
X46047372Y-38677892D01*
X46047364Y-38677896D01*
X45868127Y-38803398D01*
X45713398Y-38958127D01*
X45587896Y-39137364D01*
X45587892Y-39137372D01*
X45495426Y-39335666D01*
X45438791Y-39547030D01*
X45419723Y-39764996D01*
X45419723Y-39765003D01*
X45438791Y-39982969D01*
X45438792Y-39982976D01*
X45438793Y-39982977D01*
X45495425Y-40194330D01*
X45587898Y-40392639D01*
X45713402Y-40571877D01*
X45868123Y-40726598D01*
X46047361Y-40852102D01*
X46245670Y-40944575D01*
X46245671Y-40944575D01*
X46247172Y-40945275D01*
X46291920Y-40987004D01*
X46303595Y-41047065D01*
X46277737Y-41102518D01*
X46247172Y-41124724D01*
X46047372Y-41217892D01*
X46047364Y-41217896D01*
X45868127Y-41343398D01*
X45713398Y-41498127D01*
X45587896Y-41677364D01*
X45587892Y-41677372D01*
X45495426Y-41875666D01*
X45438791Y-42087030D01*
X45419723Y-42304996D01*
X45419723Y-42305003D01*
X45438791Y-42522969D01*
X45438792Y-42522976D01*
X45438793Y-42522977D01*
X45495425Y-42734330D01*
X45587898Y-42932639D01*
X45616143Y-42972977D01*
X45690728Y-43079496D01*
X45713402Y-43111877D01*
X45868123Y-43266598D01*
X46047361Y-43392102D01*
X46047362Y-43392102D01*
X46047363Y-43392103D01*
X46047365Y-43392104D01*
X46076683Y-43405775D01*
X46121432Y-43447503D01*
X46133107Y-43507564D01*
X46107250Y-43563017D01*
X46053736Y-43592681D01*
X46034845Y-43594500D01*
X45793478Y-43594500D01*
X45793476Y-43594501D01*
X45699700Y-43609352D01*
X45699695Y-43609354D01*
X45586659Y-43666949D01*
X45496949Y-43756659D01*
X45439354Y-43869695D01*
X45424500Y-43963478D01*
X45424500Y-45726521D01*
X45424501Y-45726523D01*
X45439352Y-45820299D01*
X45439354Y-45820304D01*
X45496950Y-45933342D01*
X45586658Y-46023050D01*
X45699696Y-46080646D01*
X45793481Y-46095500D01*
X47556518Y-46095499D01*
X47556521Y-46095499D01*
X47556522Y-46095498D01*
X47603411Y-46088072D01*
X47650299Y-46080647D01*
X47650299Y-46080646D01*
X47650304Y-46080646D01*
X47763342Y-46023050D01*
X47853050Y-45933342D01*
X47910646Y-45820304D01*
X47925500Y-45726519D01*
X47925499Y-43963482D01*
X47925499Y-43963481D01*
X47925499Y-43963478D01*
X47925498Y-43963476D01*
X47910647Y-43869700D01*
X47910646Y-43869698D01*
X47910646Y-43869696D01*
X47853050Y-43756658D01*
X47763342Y-43666950D01*
X47650304Y-43609354D01*
X47650305Y-43609354D01*
X47556522Y-43594500D01*
X47315155Y-43594500D01*
X47256964Y-43575593D01*
X47221000Y-43526093D01*
X47221000Y-43464907D01*
X47256964Y-43415407D01*
X47273317Y-43405775D01*
X47302639Y-43392102D01*
X47481877Y-43266598D01*
X47636598Y-43111877D01*
X47694202Y-43029609D01*
X47743066Y-42992788D01*
X47804242Y-42991720D01*
X47845302Y-43016390D01*
X49605462Y-44776550D01*
X49633239Y-44831067D01*
X49623668Y-44891499D01*
X49606902Y-44913169D01*
X49607687Y-44913864D01*
X49603719Y-44918342D01*
X49513982Y-45048349D01*
X49457965Y-45196055D01*
X49457964Y-45196056D01*
X49438924Y-45352871D01*
X49438924Y-45352874D01*
X49457964Y-45509689D01*
X49457965Y-45509691D01*
X49513982Y-45657396D01*
X49551177Y-45711282D01*
X49568702Y-45767520D01*
X49568702Y-46646328D01*
X49568701Y-46646346D01*
X49568701Y-46790776D01*
X49592676Y-46880248D01*
X49592676Y-46880249D01*
X49604513Y-46924424D01*
X49604514Y-46924427D01*
X49673697Y-47044256D01*
X49771537Y-47142096D01*
X49771539Y-47142097D01*
X49852402Y-47222960D01*
X49880179Y-47277477D01*
X49870608Y-47337909D01*
X49827343Y-47381174D01*
X49782398Y-47391964D01*
X45630341Y-47391964D01*
X45572150Y-47373057D01*
X45560337Y-47362968D01*
X44750687Y-46553318D01*
X44722910Y-46498801D01*
X44722413Y-46495247D01*
X44721992Y-46491776D01*
X44719637Y-46472382D01*
X44663620Y-46324677D01*
X44573883Y-46194670D01*
X44455640Y-46089917D01*
X44378490Y-46049425D01*
X44335752Y-46005640D01*
X44325499Y-45961765D01*
X44325499Y-44413478D01*
X44325498Y-44413476D01*
X44310647Y-44319700D01*
X44310646Y-44319698D01*
X44310646Y-44319696D01*
X44253050Y-44206658D01*
X44163342Y-44116950D01*
X44050304Y-44059354D01*
X44050305Y-44059354D01*
X43956522Y-44044500D01*
X43956519Y-44044500D01*
X43715156Y-44044500D01*
X43656965Y-44025593D01*
X43621001Y-43976093D01*
X43621001Y-43914907D01*
X43656965Y-43865407D01*
X43673317Y-43855775D01*
X43702639Y-43842102D01*
X43881877Y-43716598D01*
X44036598Y-43561877D01*
X44162102Y-43382639D01*
X44254575Y-43184330D01*
X44311207Y-42972977D01*
X44314125Y-42939632D01*
X44330277Y-42755003D01*
X44330277Y-42754996D01*
X44311208Y-42537030D01*
X44311207Y-42537027D01*
X44311207Y-42537023D01*
X44254575Y-42325670D01*
X44162102Y-42127362D01*
X44060551Y-41982331D01*
X44036601Y-41948127D01*
X44036600Y-41948126D01*
X44036598Y-41948123D01*
X43881877Y-41793402D01*
X43881873Y-41793399D01*
X43881872Y-41793398D01*
X43716169Y-41677372D01*
X43702639Y-41667898D01*
X43504330Y-41575425D01*
X43504325Y-41575423D01*
X43502827Y-41574725D01*
X43458079Y-41532996D01*
X43446404Y-41472935D01*
X43472262Y-41417482D01*
X43502827Y-41395275D01*
X43504325Y-41394576D01*
X43504330Y-41394575D01*
X43702639Y-41302102D01*
X43881877Y-41176598D01*
X44036598Y-41021877D01*
X44162102Y-40842639D01*
X44254575Y-40644330D01*
X44311207Y-40432977D01*
X44322469Y-40304257D01*
X44330277Y-40215003D01*
X44330277Y-40214996D01*
X44311208Y-39997030D01*
X44311207Y-39997027D01*
X44311207Y-39997023D01*
X44254575Y-39785670D01*
X44162102Y-39587362D01*
X44036598Y-39408123D01*
X43881877Y-39253402D01*
X43881873Y-39253399D01*
X43881872Y-39253398D01*
X43716169Y-39137372D01*
X43702639Y-39127898D01*
X43504330Y-39035425D01*
X43504325Y-39035423D01*
X43502827Y-39034725D01*
X43458079Y-38992996D01*
X43446404Y-38932935D01*
X43472262Y-38877482D01*
X43502827Y-38855275D01*
X43504325Y-38854576D01*
X43504330Y-38854575D01*
X43702639Y-38762102D01*
X43881877Y-38636598D01*
X44036598Y-38481877D01*
X44162102Y-38302639D01*
X44254575Y-38104330D01*
X44311207Y-37892977D01*
X44315192Y-37847435D01*
X44330277Y-37675003D01*
X44330277Y-37674996D01*
X44311208Y-37457030D01*
X44311207Y-37457027D01*
X44311207Y-37457023D01*
X44254575Y-37245670D01*
X44162102Y-37047362D01*
X44036598Y-36868123D01*
X43881877Y-36713402D01*
X43881873Y-36713399D01*
X43881872Y-36713398D01*
X43782435Y-36643772D01*
X43702639Y-36587898D01*
X43504330Y-36495425D01*
X43292977Y-36438793D01*
X43292976Y-36438792D01*
X43292969Y-36438791D01*
X43075003Y-36419723D01*
X43074997Y-36419723D01*
X42857030Y-36438791D01*
X42645666Y-36495426D01*
X42447372Y-36587892D01*
X42447364Y-36587896D01*
X42268127Y-36713398D01*
X42113398Y-36868127D01*
X41987896Y-37047364D01*
X41987892Y-37047372D01*
X41895426Y-37245666D01*
X41838791Y-37457030D01*
X41819723Y-37674996D01*
X41819723Y-37675003D01*
X41838791Y-37892969D01*
X41882126Y-38054699D01*
X41878923Y-38115801D01*
X41856503Y-38150326D01*
X40983004Y-39023826D01*
X40928487Y-39051603D01*
X40868055Y-39042032D01*
X40824790Y-38998767D01*
X40814000Y-38953822D01*
X40814000Y-32991001D01*
X40814000Y-32991000D01*
X40424000Y-32991000D01*
X40365809Y-32972093D01*
X40329845Y-32922593D01*
X40325000Y-32892000D01*
X40325000Y-32324000D01*
X40343907Y-32265809D01*
X40393407Y-32229845D01*
X40424000Y-32225000D01*
X86126000Y-32225000D01*
X86184191Y-32243907D01*
G37*
%TD.AperFunction*%
%TD*%
%TA.AperFunction,Conductor*%
%TO.N,/Power/CELL_1*%
G36*
X124243639Y-119207885D02*
G01*
X124289394Y-119260689D01*
X124300600Y-119312200D01*
X124300600Y-129264200D01*
X124280915Y-129331239D01*
X124228111Y-129376994D01*
X124176600Y-129388200D01*
X95024600Y-129388200D01*
X94957561Y-129368515D01*
X94911806Y-129315711D01*
X94900600Y-129264200D01*
X94900600Y-119312200D01*
X94920285Y-119245161D01*
X94973089Y-119199406D01*
X95024600Y-119188200D01*
X124176600Y-119188200D01*
X124243639Y-119207885D01*
G37*
%TD.AperFunction*%
%TD*%
%TA.AperFunction,Conductor*%
%TO.N,GND*%
G36*
X122717323Y-64499105D02*
G01*
X122747988Y-64521538D01*
X122797026Y-64570576D01*
X122795136Y-64572465D01*
X122828425Y-64619043D01*
X122831868Y-64688828D01*
X122797037Y-64749397D01*
X122794162Y-64751887D01*
X122671438Y-64874611D01*
X122583430Y-65020193D01*
X122532821Y-65182607D01*
X122526408Y-65253186D01*
X122526408Y-65891413D01*
X122532821Y-65961992D01*
X122532821Y-65961994D01*
X122532822Y-65961996D01*
X122583430Y-66124406D01*
X122583431Y-66124408D01*
X122583432Y-66124410D01*
X122586508Y-66131245D01*
X122585190Y-66131838D01*
X122600903Y-66191372D01*
X122579379Y-66257844D01*
X122525335Y-66302127D01*
X122455929Y-66310161D01*
X122440060Y-66306342D01*
X122433582Y-66304323D01*
X122433580Y-66304322D01*
X122271170Y-66253714D01*
X122271168Y-66253713D01*
X122271166Y-66253713D01*
X122221752Y-66249223D01*
X122200590Y-66247300D01*
X122200587Y-66247300D01*
X121596216Y-66247300D01*
X121529177Y-66227615D01*
X121508535Y-66210981D01*
X121205793Y-65908239D01*
X121172308Y-65846916D01*
X121169474Y-65820558D01*
X121169474Y-65074542D01*
X121189159Y-65007503D01*
X121205793Y-64986861D01*
X121496035Y-64696619D01*
X121557358Y-64663134D01*
X121583716Y-64660300D01*
X122200587Y-64660300D01*
X122200590Y-64660300D01*
X122271170Y-64653886D01*
X122433580Y-64603278D01*
X122579159Y-64515272D01*
X122579166Y-64515264D01*
X122583829Y-64511612D01*
X122648740Y-64485760D01*
X122717323Y-64499105D01*
G37*
%TD.AperFunction*%
%TA.AperFunction,Conductor*%
G36*
X104102049Y-61734422D02*
G01*
X104164994Y-61772474D01*
X104327404Y-61823082D01*
X104397984Y-61829496D01*
X105230100Y-61829496D01*
X105297139Y-61849181D01*
X105342894Y-61901985D01*
X105354100Y-61953496D01*
X105354100Y-63180658D01*
X105334415Y-63247697D01*
X105317781Y-63268339D01*
X105135439Y-63450681D01*
X105074116Y-63484166D01*
X105047758Y-63487000D01*
X104443384Y-63487000D01*
X104424145Y-63488748D01*
X104372807Y-63493413D01*
X104210393Y-63544022D01*
X104064811Y-63632030D01*
X103944530Y-63752311D01*
X103856522Y-63897893D01*
X103856522Y-63897894D01*
X103837062Y-63960344D01*
X103798325Y-64018491D01*
X103734300Y-64046465D01*
X103665315Y-64035384D01*
X103630998Y-64011137D01*
X103611638Y-63991777D01*
X103578153Y-63930457D01*
X103583136Y-63860765D01*
X103611642Y-63816411D01*
X103617072Y-63810981D01*
X103705078Y-63665402D01*
X103755686Y-63502992D01*
X103762100Y-63432412D01*
X103762100Y-62828038D01*
X103781785Y-62760999D01*
X103798426Y-62740350D01*
X103798914Y-62739862D01*
X103801843Y-62734790D01*
X103874681Y-62608631D01*
X103877118Y-62599536D01*
X103913900Y-62462263D01*
X103913900Y-62310730D01*
X103913900Y-61840539D01*
X103933585Y-61773500D01*
X103986389Y-61727745D01*
X104055547Y-61717801D01*
X104102049Y-61734422D01*
G37*
%TD.AperFunction*%
%TA.AperFunction,Conductor*%
G36*
X117827963Y-56031654D02*
G01*
X117875516Y-56061299D01*
X117934189Y-56119972D01*
X118079768Y-56207978D01*
X118242178Y-56258586D01*
X118312758Y-56265000D01*
X119221160Y-56265000D01*
X119288199Y-56284685D01*
X119333954Y-56337489D01*
X119345150Y-56387539D01*
X119346093Y-56467646D01*
X119347156Y-56558013D01*
X119347388Y-56568192D01*
X119347388Y-56568193D01*
X119372173Y-56701677D01*
X119372178Y-56701695D01*
X119377117Y-56715968D01*
X119380530Y-56725487D01*
X119380534Y-56725497D01*
X119418538Y-56794258D01*
X119424573Y-56806790D01*
X119433171Y-56827549D01*
X119440638Y-56897019D01*
X119433171Y-56922449D01*
X119411228Y-56975425D01*
X119389384Y-57042398D01*
X119387645Y-57049570D01*
X119387641Y-57049592D01*
X119374836Y-57161647D01*
X119389939Y-57255249D01*
X119381184Y-57324568D01*
X119336342Y-57378149D01*
X119269651Y-57398982D01*
X119267522Y-57399000D01*
X117919634Y-57399000D01*
X117852595Y-57379315D01*
X117806840Y-57326511D01*
X117799336Y-57305074D01*
X117798458Y-57301563D01*
X117521686Y-56194473D01*
X117524524Y-56124662D01*
X117564654Y-56067467D01*
X117629336Y-56041047D01*
X117641984Y-56040400D01*
X117710231Y-56040400D01*
X117710231Y-56040399D01*
X117758161Y-56028586D01*
X117827963Y-56031654D01*
G37*
%TD.AperFunction*%
%TA.AperFunction,Conductor*%
G36*
X121710113Y-54570485D02*
G01*
X121755868Y-54623289D01*
X121767074Y-54674800D01*
X121767074Y-55849731D01*
X121767772Y-55874969D01*
X121768073Y-55880387D01*
X121776831Y-55947496D01*
X121776835Y-55947510D01*
X121821505Y-56068478D01*
X121823867Y-56074874D01*
X121841957Y-56107726D01*
X121864217Y-56144023D01*
X121956415Y-56243698D01*
X122358682Y-56565511D01*
X122398734Y-56622762D01*
X122404622Y-56650181D01*
X122405207Y-56656114D01*
X122422013Y-56741663D01*
X122434446Y-56768111D01*
X122479777Y-56864543D01*
X122494176Y-56886092D01*
X122515054Y-56952769D01*
X122515074Y-56954982D01*
X122515074Y-57154319D01*
X122516534Y-57185504D01*
X122500005Y-57253390D01*
X122449398Y-57301563D01*
X122392670Y-57315300D01*
X122222433Y-57315300D01*
X122155394Y-57295615D01*
X122135943Y-57280156D01*
X120881410Y-56059027D01*
X120847100Y-55998161D01*
X120843900Y-55970171D01*
X120843900Y-54674800D01*
X120863585Y-54607761D01*
X120916389Y-54562006D01*
X120967900Y-54550800D01*
X121643074Y-54550800D01*
X121710113Y-54570485D01*
G37*
%TD.AperFunction*%
%TA.AperFunction,Conductor*%
G36*
X106269546Y-55590034D02*
G01*
X106315301Y-55642838D01*
X106325245Y-55711996D01*
X106296220Y-55775552D01*
X106290188Y-55782030D01*
X106012181Y-56060036D01*
X105950858Y-56093521D01*
X105881166Y-56088537D01*
X105825233Y-56046665D01*
X105800816Y-55981201D01*
X105800500Y-55972355D01*
X105800500Y-55894440D01*
X105820185Y-55827401D01*
X105836819Y-55806759D01*
X106036910Y-55606668D01*
X106098233Y-55573183D01*
X106124591Y-55570349D01*
X106202507Y-55570349D01*
X106269546Y-55590034D01*
G37*
%TD.AperFunction*%
%TA.AperFunction,Conductor*%
G36*
X107866663Y-54045185D02*
G01*
X107912418Y-54097989D01*
X107922362Y-54167147D01*
X107893337Y-54230703D01*
X107878835Y-54244901D01*
X107664772Y-54422619D01*
X107596015Y-54479701D01*
X107580121Y-54493530D01*
X107571656Y-54501247D01*
X107556463Y-54515753D01*
X107167145Y-54905071D01*
X107105822Y-54938556D01*
X107036130Y-54933572D01*
X106980197Y-54891700D01*
X106955780Y-54826236D01*
X106956142Y-54804443D01*
X106965034Y-54719849D01*
X106965033Y-54719845D01*
X106965295Y-54717359D01*
X106991880Y-54652745D01*
X107000925Y-54642651D01*
X107581759Y-54061819D01*
X107643082Y-54028334D01*
X107669440Y-54025500D01*
X107799624Y-54025500D01*
X107866663Y-54045185D01*
G37*
%TD.AperFunction*%
%TA.AperFunction,Conductor*%
G36*
X118310167Y-40958385D02*
G01*
X118330809Y-40975019D01*
X119276809Y-41921019D01*
X119310294Y-41982342D01*
X119305310Y-42052034D01*
X119263438Y-42107967D01*
X119197974Y-42132384D01*
X119189128Y-42132700D01*
X111699583Y-42132700D01*
X111602777Y-42143109D01*
X111602766Y-42143111D01*
X111551266Y-42154314D01*
X111551264Y-42154315D01*
X111464518Y-42182534D01*
X111349798Y-42255163D01*
X111296995Y-42300917D01*
X111296992Y-42300920D01*
X111215482Y-42393705D01*
X111215479Y-42393708D01*
X111158238Y-42516824D01*
X111158233Y-42516838D01*
X111138553Y-42583859D01*
X111120100Y-42712202D01*
X111120100Y-51464216D01*
X111130509Y-51561022D01*
X111130511Y-51561033D01*
X111141714Y-51612533D01*
X111141715Y-51612535D01*
X111141716Y-51612538D01*
X111169934Y-51699281D01*
X111242562Y-51814000D01*
X111242563Y-51814001D01*
X111242562Y-51814001D01*
X111288317Y-51866804D01*
X111381108Y-51948320D01*
X111504228Y-52005563D01*
X111504236Y-52005565D01*
X111504238Y-52005566D01*
X111571259Y-52025246D01*
X111571261Y-52025246D01*
X111571267Y-52025248D01*
X111699600Y-52043700D01*
X111721100Y-52043700D01*
X111788139Y-52063385D01*
X111833894Y-52116189D01*
X111845100Y-52167700D01*
X111845100Y-53295129D01*
X111825415Y-53362168D01*
X111772611Y-53407923D01*
X111740955Y-53417529D01*
X109008395Y-53860796D01*
X108939069Y-53852100D01*
X108885449Y-53807304D01*
X108864560Y-53740630D01*
X108882423Y-53674247D01*
X108918478Y-53614606D01*
X108969086Y-53452196D01*
X108975500Y-53381616D01*
X108975500Y-52768384D01*
X108969086Y-52697804D01*
X108918478Y-52535394D01*
X108830472Y-52389815D01*
X108830470Y-52389813D01*
X108830469Y-52389811D01*
X108710188Y-52269530D01*
X108564606Y-52181522D01*
X108402196Y-52130914D01*
X108331616Y-52124500D01*
X108331615Y-52124500D01*
X108329260Y-52124286D01*
X108308390Y-52120570D01*
X108292039Y-52116189D01*
X108230314Y-52099650D01*
X108078781Y-52099650D01*
X108001807Y-52120275D01*
X107969714Y-52124500D01*
X107268384Y-52124500D01*
X107197804Y-52130914D01*
X107114876Y-52156755D01*
X107045016Y-52157905D01*
X106985624Y-52121104D01*
X106955556Y-52058035D01*
X106954629Y-52025772D01*
X106963500Y-51938941D01*
X106963499Y-50392252D01*
X106953349Y-50292888D01*
X106900003Y-50131899D01*
X106899999Y-50131893D01*
X106899998Y-50131890D01*
X106810970Y-49987555D01*
X106810967Y-49987551D01*
X106691044Y-49867628D01*
X106691040Y-49867625D01*
X106546705Y-49778597D01*
X106546699Y-49778594D01*
X106546697Y-49778593D01*
X106546694Y-49778592D01*
X106385709Y-49725247D01*
X106286352Y-49715096D01*
X106286345Y-49715096D01*
X105880100Y-49715096D01*
X105813061Y-49695411D01*
X105767306Y-49642607D01*
X105756100Y-49591096D01*
X105756100Y-49581366D01*
X105775785Y-49514327D01*
X105780900Y-49506966D01*
X106840200Y-48094566D01*
X106849858Y-48081191D01*
X106854973Y-48073830D01*
X106860720Y-48065358D01*
X106917963Y-47942238D01*
X106937648Y-47875199D01*
X106956100Y-47746866D01*
X106956100Y-43427938D01*
X106955963Y-43416779D01*
X106955814Y-43410699D01*
X106955665Y-43405714D01*
X106930682Y-43272254D01*
X106907734Y-43206260D01*
X106848159Y-43091110D01*
X106437955Y-42516824D01*
X105979197Y-41874561D01*
X105956249Y-41808568D01*
X105956100Y-41802488D01*
X105956100Y-41062700D01*
X105975785Y-40995661D01*
X106028589Y-40949906D01*
X106080100Y-40938700D01*
X118243128Y-40938700D01*
X118310167Y-40958385D01*
G37*
%TD.AperFunction*%
%TA.AperFunction,Conductor*%
G36*
X133719022Y-32244685D02*
G01*
X133764777Y-32297489D01*
X133775982Y-32348648D01*
X133876412Y-67973903D01*
X134050249Y-129638915D01*
X134030753Y-129706010D01*
X133978078Y-129751914D01*
X133926314Y-129763265D01*
X124768777Y-129768099D01*
X124701728Y-129748450D01*
X124655945Y-129695670D01*
X124645965Y-129626517D01*
X124659083Y-129591711D01*
X124656981Y-129590734D01*
X124660720Y-129582692D01*
X124717963Y-129459572D01*
X124737648Y-129392533D01*
X124756100Y-129264200D01*
X124756100Y-127604712D01*
X124772713Y-127542712D01*
X124845850Y-127416035D01*
X124901097Y-127246003D01*
X124919785Y-127068200D01*
X124901097Y-126890397D01*
X124845850Y-126720365D01*
X124845847Y-126720359D01*
X124772713Y-126593686D01*
X124756100Y-126531687D01*
X124756100Y-125064712D01*
X124772713Y-125002712D01*
X124845850Y-124876035D01*
X124901097Y-124706003D01*
X124919785Y-124528200D01*
X124901097Y-124350397D01*
X124845850Y-124180365D01*
X124845847Y-124180359D01*
X124772713Y-124053686D01*
X124756100Y-123991687D01*
X124756100Y-122524712D01*
X124772713Y-122462712D01*
X124777056Y-122455190D01*
X124845850Y-122336035D01*
X124901097Y-122166003D01*
X124919785Y-121988200D01*
X124901097Y-121810397D01*
X124873473Y-121725381D01*
X124845852Y-121640370D01*
X124845847Y-121640359D01*
X124772713Y-121513686D01*
X124756100Y-121451687D01*
X124756100Y-119984712D01*
X124772713Y-119922712D01*
X124845850Y-119796035D01*
X124901097Y-119626003D01*
X124919785Y-119448200D01*
X124901097Y-119270397D01*
X124872979Y-119183859D01*
X124845852Y-119100370D01*
X124845849Y-119100364D01*
X124756459Y-118945535D01*
X124709603Y-118893496D01*
X124636835Y-118812678D01*
X124636832Y-118812676D01*
X124636831Y-118812675D01*
X124636830Y-118812674D01*
X124492193Y-118707588D01*
X124328867Y-118634871D01*
X124328865Y-118634870D01*
X124201194Y-118607733D01*
X124153991Y-118597700D01*
X123975209Y-118597700D01*
X123944554Y-118604215D01*
X123800333Y-118634870D01*
X123800328Y-118634872D01*
X123637008Y-118707588D01*
X123637003Y-118707590D01*
X123635039Y-118709018D01*
X123633709Y-118709492D01*
X123631375Y-118710840D01*
X123631128Y-118710413D01*
X123569233Y-118732498D01*
X123562154Y-118732700D01*
X122027046Y-118732700D01*
X121960007Y-118713015D01*
X121954173Y-118709027D01*
X121952193Y-118707588D01*
X121788867Y-118634871D01*
X121788865Y-118634870D01*
X121661194Y-118607733D01*
X121613991Y-118597700D01*
X121435209Y-118597700D01*
X121404554Y-118604215D01*
X121260333Y-118634870D01*
X121260328Y-118634872D01*
X121097008Y-118707588D01*
X121097003Y-118707590D01*
X121095039Y-118709018D01*
X121093709Y-118709492D01*
X121091375Y-118710840D01*
X121091128Y-118710413D01*
X121029233Y-118732498D01*
X121022154Y-118732700D01*
X116947046Y-118732700D01*
X116880007Y-118713015D01*
X116874173Y-118709027D01*
X116872193Y-118707588D01*
X116708867Y-118634871D01*
X116708865Y-118634870D01*
X116581194Y-118607733D01*
X116533991Y-118597700D01*
X116355209Y-118597700D01*
X116324554Y-118604215D01*
X116180333Y-118634870D01*
X116180328Y-118634872D01*
X116017008Y-118707588D01*
X116017003Y-118707590D01*
X116015039Y-118709018D01*
X116013709Y-118709492D01*
X116011375Y-118710840D01*
X116011128Y-118710413D01*
X115949233Y-118732498D01*
X115942154Y-118732700D01*
X114407046Y-118732700D01*
X114340007Y-118713015D01*
X114334173Y-118709027D01*
X114332193Y-118707588D01*
X114168867Y-118634871D01*
X114168865Y-118634870D01*
X114041194Y-118607733D01*
X113993991Y-118597700D01*
X113815209Y-118597700D01*
X113784554Y-118604215D01*
X113640333Y-118634870D01*
X113640328Y-118634872D01*
X113477008Y-118707588D01*
X113477003Y-118707590D01*
X113475039Y-118709018D01*
X113473709Y-118709492D01*
X113471375Y-118710840D01*
X113471128Y-118710413D01*
X113409233Y-118732498D01*
X113402154Y-118732700D01*
X111867046Y-118732700D01*
X111800007Y-118713015D01*
X111794173Y-118709027D01*
X111792193Y-118707588D01*
X111628867Y-118634871D01*
X111628865Y-118634870D01*
X111501194Y-118607733D01*
X111453991Y-118597700D01*
X111275209Y-118597700D01*
X111244554Y-118604215D01*
X111100333Y-118634870D01*
X111100328Y-118634872D01*
X110937008Y-118707588D01*
X110937003Y-118707590D01*
X110935039Y-118709018D01*
X110933709Y-118709492D01*
X110931375Y-118710840D01*
X110931128Y-118710413D01*
X110869233Y-118732498D01*
X110862154Y-118732700D01*
X109327046Y-118732700D01*
X109260007Y-118713015D01*
X109254173Y-118709027D01*
X109252193Y-118707588D01*
X109088867Y-118634871D01*
X109088865Y-118634870D01*
X108961194Y-118607733D01*
X108913991Y-118597700D01*
X108735209Y-118597700D01*
X108704554Y-118604215D01*
X108560333Y-118634870D01*
X108560328Y-118634872D01*
X108397008Y-118707588D01*
X108397003Y-118707590D01*
X108395039Y-118709018D01*
X108393709Y-118709492D01*
X108391375Y-118710840D01*
X108391128Y-118710413D01*
X108329233Y-118732498D01*
X108322154Y-118732700D01*
X106787046Y-118732700D01*
X106720007Y-118713015D01*
X106714173Y-118709027D01*
X106712193Y-118707588D01*
X106548867Y-118634871D01*
X106548865Y-118634870D01*
X106421194Y-118607733D01*
X106373991Y-118597700D01*
X106195209Y-118597700D01*
X106164554Y-118604215D01*
X106020333Y-118634870D01*
X106020328Y-118634872D01*
X105857008Y-118707588D01*
X105857003Y-118707590D01*
X105855039Y-118709018D01*
X105853709Y-118709492D01*
X105851375Y-118710840D01*
X105851128Y-118710413D01*
X105789233Y-118732498D01*
X105782154Y-118732700D01*
X104247046Y-118732700D01*
X104180007Y-118713015D01*
X104174173Y-118709027D01*
X104172193Y-118707588D01*
X104008867Y-118634871D01*
X104008865Y-118634870D01*
X103881194Y-118607733D01*
X103833991Y-118597700D01*
X103655209Y-118597700D01*
X103624554Y-118604215D01*
X103480333Y-118634870D01*
X103480328Y-118634872D01*
X103317008Y-118707588D01*
X103317003Y-118707590D01*
X103315039Y-118709018D01*
X103313709Y-118709492D01*
X103311375Y-118710840D01*
X103311128Y-118710413D01*
X103249233Y-118732498D01*
X103242154Y-118732700D01*
X101707046Y-118732700D01*
X101640007Y-118713015D01*
X101634173Y-118709027D01*
X101632193Y-118707588D01*
X101468867Y-118634871D01*
X101468865Y-118634870D01*
X101341194Y-118607733D01*
X101293991Y-118597700D01*
X101115209Y-118597700D01*
X101084554Y-118604215D01*
X100940333Y-118634870D01*
X100940328Y-118634872D01*
X100777008Y-118707588D01*
X100777003Y-118707590D01*
X100775039Y-118709018D01*
X100773709Y-118709492D01*
X100771375Y-118710840D01*
X100771128Y-118710413D01*
X100709233Y-118732498D01*
X100702154Y-118732700D01*
X99167046Y-118732700D01*
X99100007Y-118713015D01*
X99094173Y-118709027D01*
X99092193Y-118707588D01*
X98928867Y-118634871D01*
X98928865Y-118634870D01*
X98801194Y-118607733D01*
X98753991Y-118597700D01*
X98575209Y-118597700D01*
X98544554Y-118604215D01*
X98400333Y-118634870D01*
X98400328Y-118634872D01*
X98237008Y-118707588D01*
X98237003Y-118707590D01*
X98235039Y-118709018D01*
X98233709Y-118709492D01*
X98231375Y-118710840D01*
X98231128Y-118710413D01*
X98169233Y-118732498D01*
X98162154Y-118732700D01*
X96627046Y-118732700D01*
X96560007Y-118713015D01*
X96554173Y-118709027D01*
X96552193Y-118707588D01*
X96388867Y-118634871D01*
X96388865Y-118634870D01*
X96261194Y-118607733D01*
X96213991Y-118597700D01*
X96035209Y-118597700D01*
X96004554Y-118604215D01*
X95860333Y-118634870D01*
X95860328Y-118634872D01*
X95697008Y-118707588D01*
X95697003Y-118707590D01*
X95695039Y-118709018D01*
X95693709Y-118709492D01*
X95691375Y-118710840D01*
X95691128Y-118710413D01*
X95629233Y-118732498D01*
X95622154Y-118732700D01*
X95024583Y-118732700D01*
X94927777Y-118743109D01*
X94927766Y-118743111D01*
X94876266Y-118754314D01*
X94876264Y-118754315D01*
X94789518Y-118782534D01*
X94674798Y-118855163D01*
X94621995Y-118900917D01*
X94621992Y-118900920D01*
X94540482Y-118993705D01*
X94540479Y-118993708D01*
X94483238Y-119116824D01*
X94483233Y-119116838D01*
X94463553Y-119183859D01*
X94445100Y-119312202D01*
X94445100Y-129264216D01*
X94455509Y-129361022D01*
X94455511Y-129361033D01*
X94466714Y-129412533D01*
X94466715Y-129412535D01*
X94466716Y-129412538D01*
X94494934Y-129499281D01*
X94552832Y-129590734D01*
X94554760Y-129593778D01*
X94573988Y-129660950D01*
X94553848Y-129727854D01*
X94500734Y-129773249D01*
X94450056Y-129784107D01*
X86824665Y-129788134D01*
X86757616Y-129768485D01*
X86711833Y-129715705D01*
X86700600Y-129664134D01*
X86700600Y-121674236D01*
X90569500Y-121674236D01*
X90569500Y-121878163D01*
X90601398Y-122079560D01*
X90601399Y-122079564D01*
X90664413Y-122273499D01*
X90756989Y-122455190D01*
X90876848Y-122620162D01*
X91021038Y-122764352D01*
X91186010Y-122884211D01*
X91367701Y-122976787D01*
X91561636Y-123039801D01*
X91637163Y-123051763D01*
X91763037Y-123071700D01*
X91763042Y-123071700D01*
X91966963Y-123071700D01*
X92078850Y-123053978D01*
X92168364Y-123039801D01*
X92362299Y-122976787D01*
X92543990Y-122884211D01*
X92708962Y-122764352D01*
X92853152Y-122620162D01*
X92973011Y-122455190D01*
X93065587Y-122273499D01*
X93128601Y-122079564D01*
X93143071Y-121988200D01*
X93160500Y-121878163D01*
X93160500Y-121674236D01*
X93128601Y-121472839D01*
X93128601Y-121472836D01*
X93065587Y-121278901D01*
X92973011Y-121097210D01*
X92853152Y-120932238D01*
X92708962Y-120788048D01*
X92543990Y-120668189D01*
X92362299Y-120575613D01*
X92168364Y-120512599D01*
X92168362Y-120512598D01*
X92168360Y-120512598D01*
X91966963Y-120480700D01*
X91966958Y-120480700D01*
X91763042Y-120480700D01*
X91763037Y-120480700D01*
X91561639Y-120512598D01*
X91367698Y-120575614D01*
X91186009Y-120668189D01*
X91021035Y-120788050D01*
X90876850Y-120932235D01*
X90756989Y-121097209D01*
X90664414Y-121278898D01*
X90601398Y-121472839D01*
X90569500Y-121674236D01*
X86700600Y-121674236D01*
X86700600Y-113445732D01*
X107684500Y-113445732D01*
X107684500Y-113666667D01*
X107684501Y-113666684D01*
X107713337Y-113885719D01*
X107713338Y-113885724D01*
X107713339Y-113885730D01*
X107770524Y-114099149D01*
X107855072Y-114303267D01*
X107855080Y-114303284D01*
X107965546Y-114494615D01*
X107965557Y-114494631D01*
X108100053Y-114669910D01*
X108100059Y-114669917D01*
X108256282Y-114826140D01*
X108256288Y-114826145D01*
X108431577Y-114960649D01*
X108431584Y-114960653D01*
X108622915Y-115071119D01*
X108622920Y-115071121D01*
X108622923Y-115071123D01*
X108622927Y-115071124D01*
X108622932Y-115071127D01*
X108687666Y-115097940D01*
X108827051Y-115155676D01*
X109040470Y-115212861D01*
X109259526Y-115241700D01*
X109259533Y-115241700D01*
X109480467Y-115241700D01*
X109480474Y-115241700D01*
X109699530Y-115212861D01*
X109912949Y-115155676D01*
X110117077Y-115071123D01*
X110308423Y-114960649D01*
X110483712Y-114826145D01*
X110639945Y-114669912D01*
X110774449Y-114494623D01*
X110884923Y-114303277D01*
X110969476Y-114099149D01*
X111026661Y-113885730D01*
X111055500Y-113666674D01*
X111055500Y-113445726D01*
X111054293Y-113436556D01*
X125049500Y-113436556D01*
X125049500Y-113675843D01*
X125049501Y-113675859D01*
X125080734Y-113913100D01*
X125142669Y-114144245D01*
X125234243Y-114365323D01*
X125234251Y-114365340D01*
X125353891Y-114572565D01*
X125353892Y-114572567D01*
X125499569Y-114762416D01*
X125499575Y-114762423D01*
X125668776Y-114931624D01*
X125668783Y-114931630D01*
X125858632Y-115077307D01*
X125858634Y-115077308D01*
X126065859Y-115196948D01*
X126065862Y-115196949D01*
X126065870Y-115196954D01*
X126286953Y-115288530D01*
X126518098Y-115350465D01*
X126755350Y-115381700D01*
X126755357Y-115381700D01*
X126994643Y-115381700D01*
X126994650Y-115381700D01*
X127231902Y-115350465D01*
X127463047Y-115288530D01*
X127684130Y-115196954D01*
X127891370Y-115077305D01*
X128081218Y-114931629D01*
X128250429Y-114762418D01*
X128396105Y-114572570D01*
X128515754Y-114365330D01*
X128607330Y-114144247D01*
X128669265Y-113913102D01*
X128700500Y-113675850D01*
X128700500Y-113436550D01*
X128669265Y-113199298D01*
X128607330Y-112968153D01*
X128515754Y-112747070D01*
X128515748Y-112747059D01*
X128396108Y-112539834D01*
X128396107Y-112539832D01*
X128250430Y-112349983D01*
X128250424Y-112349976D01*
X128081223Y-112180775D01*
X128081216Y-112180769D01*
X127891367Y-112035092D01*
X127891365Y-112035091D01*
X127684140Y-111915451D01*
X127684132Y-111915447D01*
X127684130Y-111915446D01*
X127645730Y-111899540D01*
X127463045Y-111823869D01*
X127231900Y-111761934D01*
X126994659Y-111730701D01*
X126994656Y-111730700D01*
X126994650Y-111730700D01*
X126755350Y-111730700D01*
X126755344Y-111730700D01*
X126755340Y-111730701D01*
X126518099Y-111761934D01*
X126286954Y-111823869D01*
X126065876Y-111915443D01*
X126065859Y-111915451D01*
X125858634Y-112035091D01*
X125858632Y-112035092D01*
X125668783Y-112180769D01*
X125668776Y-112180775D01*
X125499575Y-112349976D01*
X125499569Y-112349983D01*
X125353892Y-112539832D01*
X125353891Y-112539834D01*
X125234251Y-112747059D01*
X125234243Y-112747076D01*
X125142669Y-112968154D01*
X125080734Y-113199299D01*
X125049501Y-113436540D01*
X125049500Y-113436556D01*
X111054293Y-113436556D01*
X111026661Y-113226670D01*
X110969476Y-113013251D01*
X110884923Y-112809123D01*
X110884921Y-112809120D01*
X110884919Y-112809115D01*
X110774453Y-112617784D01*
X110774449Y-112617777D01*
X110639945Y-112442488D01*
X110639940Y-112442482D01*
X110483717Y-112286259D01*
X110483710Y-112286253D01*
X110308431Y-112151757D01*
X110308429Y-112151755D01*
X110308423Y-112151751D01*
X110308418Y-112151748D01*
X110308415Y-112151746D01*
X110117084Y-112041280D01*
X110117067Y-112041272D01*
X109912949Y-111956724D01*
X109699530Y-111899539D01*
X109699524Y-111899538D01*
X109699519Y-111899537D01*
X109480484Y-111870701D01*
X109480479Y-111870700D01*
X109480474Y-111870700D01*
X109259526Y-111870700D01*
X109259520Y-111870700D01*
X109259515Y-111870701D01*
X109040480Y-111899537D01*
X109040473Y-111899538D01*
X109040470Y-111899539D01*
X108981115Y-111915443D01*
X108827050Y-111956724D01*
X108622932Y-112041272D01*
X108622915Y-112041280D01*
X108431584Y-112151746D01*
X108431568Y-112151757D01*
X108256289Y-112286253D01*
X108256282Y-112286259D01*
X108100059Y-112442482D01*
X108100053Y-112442489D01*
X107965557Y-112617768D01*
X107965546Y-112617784D01*
X107855080Y-112809115D01*
X107855072Y-112809132D01*
X107770524Y-113013250D01*
X107713340Y-113226667D01*
X107713337Y-113226680D01*
X107684501Y-113445715D01*
X107684500Y-113445732D01*
X86700600Y-113445732D01*
X86700600Y-58236556D01*
X90039500Y-58236556D01*
X90039500Y-58475843D01*
X90039501Y-58475859D01*
X90070734Y-58713100D01*
X90132669Y-58944245D01*
X90224243Y-59165323D01*
X90224251Y-59165340D01*
X90343891Y-59372565D01*
X90343892Y-59372567D01*
X90489569Y-59562416D01*
X90489575Y-59562423D01*
X90658776Y-59731624D01*
X90658783Y-59731630D01*
X90848632Y-59877307D01*
X90848634Y-59877308D01*
X91055859Y-59996948D01*
X91055862Y-59996949D01*
X91055870Y-59996954D01*
X91276953Y-60088530D01*
X91508098Y-60150465D01*
X91745350Y-60181700D01*
X91745357Y-60181700D01*
X91984643Y-60181700D01*
X91984650Y-60181700D01*
X92221902Y-60150465D01*
X92434924Y-60093386D01*
X95417900Y-60093386D01*
X95417900Y-60706613D01*
X95424313Y-60777192D01*
X95424313Y-60777194D01*
X95424314Y-60777196D01*
X95469425Y-60921966D01*
X95474922Y-60939606D01*
X95562930Y-61085188D01*
X95683211Y-61205469D01*
X95683213Y-61205470D01*
X95683215Y-61205472D01*
X95828794Y-61293478D01*
X95962884Y-61335261D01*
X96009509Y-61363549D01*
X96010150Y-61362821D01*
X96013314Y-61365600D01*
X96013317Y-61365604D01*
X96106108Y-61447120D01*
X96229228Y-61504363D01*
X96229236Y-61504365D01*
X96229238Y-61504366D01*
X96296259Y-61524046D01*
X96296261Y-61524046D01*
X96296267Y-61524048D01*
X96424600Y-61542500D01*
X96424602Y-61542500D01*
X97386424Y-61542500D01*
X97453463Y-61562185D01*
X97499218Y-61614989D01*
X97509162Y-61684147D01*
X97504811Y-61703383D01*
X97482963Y-61773500D01*
X97455913Y-61860307D01*
X97449500Y-61930886D01*
X97449500Y-62569113D01*
X97455913Y-62639692D01*
X97455913Y-62639694D01*
X97455914Y-62639696D01*
X97488980Y-62745810D01*
X97506522Y-62802106D01*
X97594530Y-62947688D01*
X97634161Y-62987319D01*
X97667646Y-63048642D01*
X97662662Y-63118334D01*
X97634161Y-63162681D01*
X97594531Y-63202310D01*
X97594530Y-63202311D01*
X97506522Y-63347893D01*
X97455913Y-63510307D01*
X97449500Y-63580886D01*
X97449500Y-64219113D01*
X97455913Y-64289692D01*
X97455913Y-64289694D01*
X97455914Y-64289696D01*
X97506522Y-64452106D01*
X97576413Y-64567720D01*
X97594530Y-64597688D01*
X97714811Y-64717969D01*
X97714813Y-64717970D01*
X97714815Y-64717972D01*
X97860394Y-64805978D01*
X98022804Y-64856586D01*
X98093384Y-64863000D01*
X98093387Y-64863000D01*
X99106613Y-64863000D01*
X99106616Y-64863000D01*
X99177196Y-64856586D01*
X99339606Y-64805978D01*
X99485185Y-64717972D01*
X99605472Y-64597685D01*
X99693478Y-64452106D01*
X99744086Y-64289696D01*
X99750500Y-64219116D01*
X99750500Y-63580884D01*
X99744086Y-63510304D01*
X99693478Y-63347894D01*
X99605472Y-63202315D01*
X99605470Y-63202313D01*
X99605469Y-63202311D01*
X99565839Y-63162682D01*
X99532353Y-63101359D01*
X99537337Y-63031668D01*
X99565839Y-62987318D01*
X99605472Y-62947685D01*
X99676311Y-62830502D01*
X99720428Y-62787266D01*
X99722133Y-62786281D01*
X99722135Y-62786281D01*
X99853365Y-62710515D01*
X100428322Y-62135556D01*
X100489643Y-62102073D01*
X100552889Y-62104853D01*
X100582504Y-62114082D01*
X100653084Y-62120496D01*
X100653087Y-62120496D01*
X101187100Y-62120496D01*
X101254139Y-62140181D01*
X101299894Y-62192985D01*
X101311100Y-62244496D01*
X101311100Y-63906630D01*
X101311100Y-64058162D01*
X101321695Y-64097702D01*
X101350319Y-64204532D01*
X101388202Y-64270146D01*
X101426085Y-64335761D01*
X101426087Y-64335763D01*
X101849781Y-64759457D01*
X101883266Y-64820780D01*
X101886100Y-64847138D01*
X101886100Y-65464009D01*
X101892513Y-65534588D01*
X101943122Y-65697002D01*
X102031130Y-65842584D01*
X102151411Y-65962865D01*
X102151413Y-65962866D01*
X102151415Y-65962868D01*
X102296994Y-66050874D01*
X102459404Y-66101482D01*
X102529984Y-66107896D01*
X102529987Y-66107896D01*
X103143213Y-66107896D01*
X103143216Y-66107896D01*
X103213796Y-66101482D01*
X103376206Y-66050874D01*
X103521785Y-65962868D01*
X103642072Y-65842581D01*
X103730078Y-65697002D01*
X103780686Y-65534592D01*
X103787100Y-65464012D01*
X103787100Y-65289620D01*
X103806785Y-65222581D01*
X103859589Y-65176826D01*
X103928747Y-65166882D01*
X103992303Y-65195907D01*
X103998781Y-65201939D01*
X104064811Y-65267969D01*
X104064813Y-65267970D01*
X104064815Y-65267972D01*
X104210394Y-65355978D01*
X104372804Y-65406586D01*
X104443384Y-65413000D01*
X104443387Y-65413000D01*
X105456613Y-65413000D01*
X105456616Y-65413000D01*
X105527196Y-65406586D01*
X105689606Y-65355978D01*
X105835185Y-65267972D01*
X105955472Y-65147685D01*
X106043478Y-65002106D01*
X106094086Y-64839696D01*
X106100500Y-64769116D01*
X106100500Y-64164741D01*
X106120185Y-64097702D01*
X106136819Y-64077060D01*
X106225644Y-63988235D01*
X106390115Y-63823765D01*
X106433858Y-63748000D01*
X106438833Y-63739384D01*
X106465878Y-63692540D01*
X106465877Y-63692540D01*
X106465881Y-63692535D01*
X106505100Y-63546166D01*
X106505100Y-61534937D01*
X106524785Y-61467898D01*
X106577589Y-61422143D01*
X106646747Y-61412199D01*
X106710303Y-61441224D01*
X106716781Y-61447256D01*
X107513781Y-62244256D01*
X107547266Y-62305579D01*
X107550100Y-62331937D01*
X107550100Y-62936309D01*
X107556513Y-63006888D01*
X107556513Y-63006890D01*
X107556514Y-63006892D01*
X107572347Y-63057703D01*
X107607122Y-63169302D01*
X107695130Y-63314884D01*
X107815411Y-63435165D01*
X107815413Y-63435166D01*
X107815415Y-63435168D01*
X107960994Y-63523174D01*
X108123404Y-63573782D01*
X108193984Y-63580196D01*
X108193987Y-63580196D01*
X109207213Y-63580196D01*
X109207216Y-63580196D01*
X109277796Y-63573782D01*
X109440206Y-63523174D01*
X109585785Y-63435168D01*
X109706072Y-63314881D01*
X109794078Y-63169302D01*
X109844686Y-63006892D01*
X109851100Y-62936312D01*
X109851100Y-62298080D01*
X109844686Y-62227500D01*
X109794078Y-62065090D01*
X109706072Y-61919511D01*
X109706070Y-61919509D01*
X109706069Y-61919507D01*
X109580482Y-61793920D01*
X109582374Y-61792027D01*
X109549092Y-61745481D01*
X109545631Y-61675698D01*
X109580448Y-61615120D01*
X109583338Y-61612615D01*
X109706068Y-61489885D01*
X109706072Y-61489881D01*
X109726587Y-61455944D01*
X109778113Y-61408758D01*
X109846972Y-61396919D01*
X109911301Y-61424187D01*
X109917688Y-61429798D01*
X110149496Y-61647970D01*
X112952607Y-64286192D01*
X112984394Y-64313465D01*
X113002340Y-64327483D01*
X113031284Y-64348320D01*
X113154404Y-64405563D01*
X113154412Y-64405565D01*
X113154414Y-64405566D01*
X113221435Y-64425246D01*
X113221437Y-64425246D01*
X113221443Y-64425248D01*
X113349776Y-64443700D01*
X113349778Y-64443700D01*
X118456128Y-64443700D01*
X118481224Y-64442961D01*
X118482899Y-64442912D01*
X118497464Y-64442054D01*
X118518026Y-64440374D01*
X118649457Y-64406291D01*
X118713720Y-64378868D01*
X118824507Y-64311532D01*
X118976068Y-64186716D01*
X119026984Y-64137679D01*
X119052471Y-64108999D01*
X119091794Y-64057876D01*
X119149037Y-63934756D01*
X119168722Y-63867717D01*
X119174569Y-63827050D01*
X119203593Y-63763497D01*
X119262371Y-63725723D01*
X119297306Y-63720700D01*
X119334056Y-63720700D01*
X119356102Y-63720051D01*
X119360830Y-63719912D01*
X119375394Y-63719054D01*
X119395952Y-63717375D01*
X119527382Y-63683292D01*
X119591646Y-63655869D01*
X119702435Y-63588533D01*
X120347014Y-63057702D01*
X120411277Y-63030280D01*
X120480164Y-63041954D01*
X120531804Y-63089019D01*
X120549802Y-63156531D01*
X120544227Y-63190311D01*
X120499888Y-63332605D01*
X120493474Y-63403186D01*
X120493474Y-64019226D01*
X120492203Y-64019226D01*
X120476751Y-64082273D01*
X120457191Y-64107702D01*
X120240609Y-64324285D01*
X120133461Y-64431432D01*
X120133459Y-64431435D01*
X120057693Y-64562663D01*
X120018474Y-64709034D01*
X120018474Y-66186065D01*
X120057693Y-66332436D01*
X120073766Y-66360274D01*
X120133459Y-66463665D01*
X120133461Y-66463667D01*
X120507155Y-66837361D01*
X120540640Y-66898684D01*
X120543474Y-66925042D01*
X120543474Y-67529413D01*
X120549887Y-67599992D01*
X120549887Y-67599994D01*
X120549888Y-67599996D01*
X120600496Y-67762406D01*
X120661301Y-67862990D01*
X120688504Y-67907988D01*
X120814092Y-68033576D01*
X120812202Y-68035465D01*
X120845491Y-68082043D01*
X120848934Y-68151828D01*
X120814103Y-68212397D01*
X120811228Y-68214887D01*
X120688504Y-68337611D01*
X120600496Y-68483193D01*
X120549887Y-68645607D01*
X120543474Y-68716186D01*
X120543474Y-69354413D01*
X120549887Y-69424992D01*
X120600496Y-69587406D01*
X120688504Y-69732988D01*
X120808785Y-69853269D01*
X120808787Y-69853270D01*
X120808789Y-69853272D01*
X120954368Y-69941278D01*
X121116778Y-69991886D01*
X121187358Y-69998300D01*
X121187361Y-69998300D01*
X122200587Y-69998300D01*
X122200590Y-69998300D01*
X122271170Y-69991886D01*
X122433580Y-69941278D01*
X122579159Y-69853272D01*
X122699446Y-69732985D01*
X122787452Y-69587406D01*
X122838060Y-69424996D01*
X122844474Y-69354416D01*
X122844474Y-68750041D01*
X122864159Y-68683002D01*
X122880793Y-68662360D01*
X123333535Y-68209619D01*
X123394858Y-68176134D01*
X123421216Y-68173300D01*
X124188087Y-68173300D01*
X124188090Y-68173300D01*
X124258670Y-68166886D01*
X124421080Y-68116278D01*
X124566659Y-68028272D01*
X124587543Y-68007387D01*
X124648864Y-67973903D01*
X124718555Y-67978886D01*
X124762904Y-68007387D01*
X124783789Y-68028272D01*
X124929368Y-68116278D01*
X125091778Y-68166886D01*
X125162358Y-68173300D01*
X125162361Y-68173300D01*
X126175587Y-68173300D01*
X126175590Y-68173300D01*
X126246170Y-68166886D01*
X126408580Y-68116278D01*
X126554159Y-68028272D01*
X126674446Y-67907985D01*
X126701647Y-67862988D01*
X126753174Y-67815802D01*
X126822034Y-67803964D01*
X126841103Y-67808123D01*
X126845834Y-67809128D01*
X126845835Y-67809129D01*
X127020711Y-67846300D01*
X127020712Y-67846300D01*
X127199491Y-67846300D01*
X127199493Y-67846300D01*
X127374369Y-67809129D01*
X127537695Y-67736412D01*
X127682332Y-67631326D01*
X127801961Y-67498465D01*
X127891352Y-67343635D01*
X127946599Y-67173603D01*
X127965287Y-66995800D01*
X127946599Y-66817997D01*
X127891352Y-66647965D01*
X127801961Y-66493135D01*
X127755105Y-66441096D01*
X127682337Y-66360278D01*
X127682334Y-66360276D01*
X127682333Y-66360275D01*
X127682332Y-66360274D01*
X127537695Y-66255188D01*
X127374369Y-66182471D01*
X127374367Y-66182470D01*
X127246696Y-66155333D01*
X127199493Y-66145300D01*
X127020711Y-66145300D01*
X126929201Y-66164750D01*
X126859535Y-66159434D01*
X126803802Y-66117296D01*
X126779697Y-66051716D01*
X126785036Y-66006572D01*
X126798927Y-65961996D01*
X126805341Y-65891416D01*
X126805341Y-65253184D01*
X126798927Y-65182604D01*
X126748319Y-65020194D01*
X126660313Y-64874615D01*
X126660311Y-64874613D01*
X126660310Y-64874611D01*
X126534723Y-64749024D01*
X126536615Y-64747131D01*
X126503333Y-64700585D01*
X126499872Y-64630802D01*
X126534689Y-64570224D01*
X126537578Y-64567720D01*
X126556124Y-64549174D01*
X126617446Y-64515687D01*
X126687138Y-64520670D01*
X126731488Y-64549172D01*
X126747585Y-64565269D01*
X126747587Y-64565270D01*
X126747589Y-64565272D01*
X126893168Y-64653278D01*
X127055578Y-64703886D01*
X127126158Y-64710300D01*
X127126161Y-64710300D01*
X128139387Y-64710300D01*
X128139390Y-64710300D01*
X128209970Y-64703886D01*
X128372380Y-64653278D01*
X128517959Y-64565272D01*
X128638246Y-64444985D01*
X128726252Y-64299406D01*
X128759630Y-64192289D01*
X128798365Y-64134145D01*
X128862390Y-64106170D01*
X128931376Y-64117251D01*
X128965695Y-64141501D01*
X129294703Y-64470509D01*
X129328188Y-64531832D01*
X129326797Y-64590282D01*
X129293541Y-64714399D01*
X129293538Y-64714413D01*
X129273706Y-64941098D01*
X129273706Y-64941101D01*
X129293538Y-65167786D01*
X129293540Y-65167797D01*
X129352432Y-65387588D01*
X129352435Y-65387597D01*
X129448605Y-65593832D01*
X129448606Y-65593834D01*
X129579128Y-65780241D01*
X129740032Y-65941145D01*
X129740035Y-65941147D01*
X129926440Y-66071668D01*
X130132678Y-66167839D01*
X130352482Y-66226735D01*
X130514404Y-66240901D01*
X130579172Y-66246568D01*
X130579174Y-66246568D01*
X130579176Y-66246568D01*
X130635847Y-66241609D01*
X130805866Y-66226735D01*
X131025670Y-66167839D01*
X131231908Y-66071668D01*
X131418313Y-65941147D01*
X131579221Y-65780239D01*
X131709742Y-65593834D01*
X131805913Y-65387596D01*
X131864809Y-65167792D01*
X131884642Y-64941100D01*
X131864809Y-64714408D01*
X131805913Y-64494604D01*
X131709742Y-64288366D01*
X131589927Y-64117251D01*
X131579219Y-64101958D01*
X131418315Y-63941054D01*
X131231908Y-63810532D01*
X131231902Y-63810529D01*
X131173899Y-63783482D01*
X131121459Y-63737310D01*
X131102307Y-63670117D01*
X131122522Y-63603235D01*
X131173899Y-63558718D01*
X131231908Y-63531668D01*
X131418313Y-63401147D01*
X131579221Y-63240239D01*
X131709742Y-63053834D01*
X131805913Y-62847596D01*
X131864809Y-62627792D01*
X131884642Y-62401100D01*
X131864809Y-62174408D01*
X131805913Y-61954604D01*
X131709742Y-61748366D01*
X131579221Y-61561961D01*
X131579219Y-61561958D01*
X131418315Y-61401054D01*
X131231908Y-61270532D01*
X131231902Y-61270529D01*
X131173899Y-61243482D01*
X131121459Y-61197310D01*
X131102307Y-61130117D01*
X131122522Y-61063235D01*
X131173899Y-61018718D01*
X131231908Y-60991668D01*
X131418313Y-60861147D01*
X131579221Y-60700239D01*
X131709742Y-60513834D01*
X131805913Y-60307596D01*
X131864809Y-60087792D01*
X131884642Y-59861100D01*
X131864809Y-59634408D01*
X131805913Y-59414604D01*
X131709742Y-59208366D01*
X131579221Y-59021961D01*
X131579219Y-59021958D01*
X131418316Y-58861055D01*
X131398494Y-58847176D01*
X131354868Y-58792600D01*
X131347674Y-58723101D01*
X131379196Y-58660746D01*
X131439425Y-58625332D01*
X131469616Y-58621600D01*
X131483444Y-58621600D01*
X131513873Y-58618746D01*
X131513875Y-58618746D01*
X131577964Y-58596319D01*
X131642056Y-58573893D01*
X131751324Y-58493250D01*
X131831967Y-58383982D01*
X131854393Y-58319890D01*
X131876820Y-58255801D01*
X131876820Y-58255799D01*
X131879674Y-58225369D01*
X131879674Y-56416830D01*
X131876820Y-56386400D01*
X131876820Y-56386398D01*
X131834340Y-56265000D01*
X131831967Y-56258218D01*
X131751324Y-56148950D01*
X131642056Y-56068307D01*
X131642054Y-56068306D01*
X131513874Y-56023453D01*
X131483444Y-56020600D01*
X131483440Y-56020600D01*
X129674908Y-56020600D01*
X129674904Y-56020600D01*
X129644474Y-56023453D01*
X129644472Y-56023453D01*
X129516293Y-56068306D01*
X129516291Y-56068307D01*
X129407024Y-56148950D01*
X129326381Y-56258217D01*
X129326380Y-56258219D01*
X129281527Y-56386398D01*
X129281527Y-56386400D01*
X129278674Y-56416830D01*
X129278674Y-57066300D01*
X129258989Y-57133339D01*
X129206185Y-57179094D01*
X129154674Y-57190300D01*
X127200414Y-57190300D01*
X127133375Y-57170615D01*
X127087620Y-57117811D01*
X127077676Y-57048653D01*
X127106701Y-56985097D01*
X127112733Y-56978619D01*
X127323242Y-56768111D01*
X127705134Y-56386219D01*
X127766457Y-56352734D01*
X127792815Y-56349900D01*
X127961587Y-56349900D01*
X127961590Y-56349900D01*
X128032170Y-56343486D01*
X128194580Y-56292878D01*
X128340159Y-56204872D01*
X128460446Y-56084585D01*
X128548452Y-55939006D01*
X128599060Y-55776596D01*
X128605474Y-55706016D01*
X128605474Y-55067784D01*
X128599060Y-54997204D01*
X128548452Y-54834794D01*
X128460446Y-54689215D01*
X128460444Y-54689213D01*
X128460443Y-54689211D01*
X128334856Y-54563624D01*
X128336748Y-54561731D01*
X128303466Y-54515185D01*
X128300005Y-54445402D01*
X128334822Y-54384824D01*
X128337712Y-54382319D01*
X128460443Y-54259588D01*
X128460446Y-54259585D01*
X128548452Y-54114006D01*
X128599060Y-53951596D01*
X128605474Y-53881016D01*
X128605474Y-53242784D01*
X128599060Y-53172204D01*
X128548452Y-53009794D01*
X128460446Y-52864215D01*
X128460444Y-52864213D01*
X128460443Y-52864211D01*
X128418143Y-52821911D01*
X128384658Y-52760588D01*
X128389642Y-52690896D01*
X128418143Y-52646549D01*
X128421874Y-52642818D01*
X128461740Y-52602952D01*
X128548960Y-52458672D01*
X128599118Y-52297711D01*
X128605474Y-52227764D01*
X128605474Y-51628036D01*
X128599118Y-51558089D01*
X128552058Y-51407070D01*
X128548962Y-51397134D01*
X128548959Y-51397126D01*
X128461744Y-51252853D01*
X128461740Y-51252848D01*
X128342525Y-51133633D01*
X128342520Y-51133629D01*
X128198247Y-51046414D01*
X128198239Y-51046411D01*
X128037285Y-50996256D01*
X128037286Y-50996256D01*
X128019798Y-50994667D01*
X127967338Y-50989900D01*
X126942610Y-50989900D01*
X126900641Y-50993713D01*
X126872661Y-50996256D01*
X126711708Y-51046411D01*
X126711706Y-51046412D01*
X126711703Y-51046413D01*
X126711702Y-51046414D01*
X126682315Y-51064179D01*
X126676223Y-51067862D01*
X126608668Y-51085697D01*
X126542194Y-51064179D01*
X126497907Y-51010138D01*
X126488074Y-50961744D01*
X126488074Y-49231888D01*
X126507759Y-49164849D01*
X126560563Y-49119094D01*
X126629721Y-49109150D01*
X126676221Y-49125770D01*
X126685994Y-49131678D01*
X126848404Y-49182286D01*
X126918984Y-49188700D01*
X126918987Y-49188700D01*
X127982213Y-49188700D01*
X127982216Y-49188700D01*
X128052796Y-49182286D01*
X128215206Y-49131678D01*
X128360785Y-49043672D01*
X128481072Y-48923385D01*
X128569078Y-48777806D01*
X128619686Y-48615396D01*
X128626100Y-48544816D01*
X128626100Y-47931584D01*
X128619686Y-47861004D01*
X128569078Y-47698594D01*
X128481072Y-47553015D01*
X128481070Y-47553013D01*
X128481069Y-47553011D01*
X128360788Y-47432730D01*
X128215206Y-47344722D01*
X128052796Y-47294114D01*
X128052794Y-47294113D01*
X128052792Y-47294113D01*
X128003378Y-47289623D01*
X127982216Y-47287700D01*
X127982213Y-47287700D01*
X127895672Y-47287700D01*
X127828633Y-47268015D01*
X127807991Y-47251381D01*
X127293311Y-46736700D01*
X127293307Y-46736697D01*
X127137636Y-46632680D01*
X127137627Y-46632675D01*
X127036303Y-46590706D01*
X127036301Y-46590705D01*
X126964651Y-46561027D01*
X126964647Y-46561026D01*
X126964643Y-46561024D01*
X126872833Y-46542763D01*
X126781020Y-46524500D01*
X126781017Y-46524500D01*
X126781016Y-46524500D01*
X126620072Y-46524500D01*
X126553033Y-46504815D01*
X126532391Y-46488181D01*
X126524393Y-46480183D01*
X126490908Y-46418860D01*
X126488074Y-46392502D01*
X126488074Y-44478914D01*
X126488074Y-44478900D01*
X126486086Y-44436387D01*
X126453407Y-44304601D01*
X126446378Y-44287630D01*
X126406621Y-44212407D01*
X126316143Y-44111168D01*
X126199844Y-44041096D01*
X126182884Y-44034071D01*
X126182873Y-44034067D01*
X126142835Y-44019637D01*
X126104474Y-44013855D01*
X126008579Y-43999400D01*
X126008574Y-43999400D01*
X124094972Y-43999400D01*
X124027933Y-43979715D01*
X124007291Y-43963081D01*
X119294111Y-39249900D01*
X119294107Y-39249897D01*
X119138436Y-39145880D01*
X119138427Y-39145875D01*
X119037103Y-39103906D01*
X119037101Y-39103905D01*
X118965451Y-39074227D01*
X118965447Y-39074226D01*
X118965443Y-39074224D01*
X118873633Y-39055963D01*
X118781820Y-39037700D01*
X118781817Y-39037700D01*
X118781816Y-39037700D01*
X106080100Y-39037700D01*
X106013061Y-39018015D01*
X105967306Y-38965211D01*
X105956100Y-38913700D01*
X105956100Y-37712200D01*
X105956099Y-37712183D01*
X105945690Y-37615377D01*
X105945690Y-37615373D01*
X105934484Y-37563862D01*
X105906266Y-37477119D01*
X105833638Y-37362400D01*
X105833636Y-37362398D01*
X105833637Y-37362398D01*
X105787882Y-37309595D01*
X105787879Y-37309592D01*
X105695094Y-37228082D01*
X105695091Y-37228079D01*
X105571975Y-37170838D01*
X105571961Y-37170833D01*
X105504940Y-37151153D01*
X105502113Y-37150746D01*
X105376600Y-37132700D01*
X100224600Y-37132700D01*
X100224583Y-37132700D01*
X100127777Y-37143109D01*
X100127766Y-37143111D01*
X100076266Y-37154314D01*
X100076264Y-37154315D01*
X99989518Y-37182534D01*
X99874798Y-37255163D01*
X99821995Y-37300917D01*
X99821992Y-37300920D01*
X99740482Y-37393705D01*
X99740479Y-37393708D01*
X99683238Y-37516824D01*
X99683233Y-37516838D01*
X99663553Y-37583859D01*
X99663552Y-37583867D01*
X99645103Y-37712183D01*
X99645100Y-37712202D01*
X99645100Y-50864216D01*
X99655509Y-50961022D01*
X99655511Y-50961033D01*
X99666714Y-51012533D01*
X99666715Y-51012535D01*
X99666716Y-51012538D01*
X99694934Y-51099281D01*
X99767562Y-51214000D01*
X99767563Y-51214001D01*
X99767562Y-51214001D01*
X99813317Y-51266804D01*
X99813320Y-51266807D01*
X99841050Y-51291167D01*
X99906108Y-51348320D01*
X100029228Y-51405563D01*
X100029236Y-51405565D01*
X100029238Y-51405566D01*
X100073435Y-51418544D01*
X100132213Y-51456319D01*
X100161238Y-51519874D01*
X100162500Y-51537521D01*
X100162500Y-51938933D01*
X100162501Y-51938951D01*
X100172650Y-52038303D01*
X100172651Y-52038306D01*
X100225996Y-52199290D01*
X100226001Y-52199301D01*
X100231897Y-52208859D01*
X100250338Y-52276251D01*
X100229416Y-52342914D01*
X100175774Y-52387684D01*
X100106444Y-52396346D01*
X100071880Y-52383631D01*
X100071445Y-52384600D01*
X100064610Y-52381524D01*
X100064608Y-52381523D01*
X100064606Y-52381522D01*
X99902196Y-52330914D01*
X99902194Y-52330913D01*
X99902192Y-52330913D01*
X99852778Y-52326423D01*
X99831616Y-52324500D01*
X98768384Y-52324500D01*
X98749145Y-52326248D01*
X98697807Y-52330913D01*
X98535393Y-52381522D01*
X98389811Y-52469530D01*
X98269530Y-52589811D01*
X98181522Y-52735393D01*
X98130913Y-52897807D01*
X98124500Y-52968386D01*
X98124500Y-53581613D01*
X98130913Y-53652192D01*
X98130913Y-53652194D01*
X98130914Y-53652196D01*
X98181522Y-53814606D01*
X98264333Y-53951592D01*
X98269530Y-53960188D01*
X98389811Y-54080469D01*
X98389813Y-54080470D01*
X98389815Y-54080472D01*
X98453355Y-54118884D01*
X98500543Y-54170411D01*
X98512381Y-54239271D01*
X98485112Y-54303599D01*
X98453356Y-54331115D01*
X98420232Y-54351140D01*
X98389811Y-54369530D01*
X98269530Y-54489811D01*
X98181522Y-54635393D01*
X98130913Y-54797807D01*
X98124500Y-54868386D01*
X98124500Y-55481613D01*
X98130913Y-55552192D01*
X98130913Y-55552194D01*
X98130914Y-55552196D01*
X98181522Y-55714606D01*
X98259186Y-55843078D01*
X98269530Y-55860188D01*
X98389811Y-55980469D01*
X98389813Y-55980470D01*
X98389815Y-55980472D01*
X98535394Y-56068478D01*
X98697804Y-56119086D01*
X98768384Y-56125500D01*
X98768387Y-56125500D01*
X99831613Y-56125500D01*
X99831616Y-56125500D01*
X99902196Y-56119086D01*
X100064606Y-56068478D01*
X100210185Y-55980472D01*
X100278839Y-55911817D01*
X100340160Y-55878334D01*
X100366519Y-55875500D01*
X101275502Y-55875500D01*
X101342541Y-55895185D01*
X101388296Y-55947989D01*
X101399502Y-55999500D01*
X101399502Y-56014267D01*
X101402355Y-56044696D01*
X101404123Y-56049748D01*
X101409697Y-56109185D01*
X101394502Y-56209992D01*
X101394502Y-56619850D01*
X101374817Y-56686889D01*
X101322013Y-56732644D01*
X101317453Y-56734618D01*
X101283598Y-56748468D01*
X101236647Y-56757700D01*
X96424583Y-56757700D01*
X96327777Y-56768109D01*
X96327766Y-56768111D01*
X96276266Y-56779314D01*
X96276264Y-56779315D01*
X96189518Y-56807534D01*
X96074798Y-56880163D01*
X96021995Y-56925917D01*
X96021992Y-56925920D01*
X95940482Y-57018705D01*
X95940479Y-57018708D01*
X95883238Y-57141824D01*
X95883233Y-57141838D01*
X95863553Y-57208859D01*
X95863552Y-57208867D01*
X95846917Y-57324568D01*
X95845100Y-57337202D01*
X95845100Y-59426729D01*
X95825415Y-59493768D01*
X95785251Y-59532844D01*
X95736331Y-59562418D01*
X95683211Y-59594530D01*
X95562930Y-59714811D01*
X95474922Y-59860393D01*
X95424313Y-60022807D01*
X95417900Y-60093386D01*
X92434924Y-60093386D01*
X92453047Y-60088530D01*
X92674130Y-59996954D01*
X92812290Y-59917188D01*
X92881365Y-59877308D01*
X92881367Y-59877307D01*
X92902487Y-59861101D01*
X93071218Y-59731629D01*
X93240429Y-59562418D01*
X93386105Y-59372570D01*
X93505754Y-59165330D01*
X93597330Y-58944247D01*
X93659265Y-58713102D01*
X93690500Y-58475850D01*
X93690500Y-58236550D01*
X93659265Y-57999298D01*
X93597330Y-57768153D01*
X93505754Y-57547070D01*
X93426449Y-57409708D01*
X93386108Y-57339834D01*
X93386107Y-57339832D01*
X93240430Y-57149983D01*
X93240424Y-57149976D01*
X93071223Y-56980775D01*
X93071216Y-56980769D01*
X92881367Y-56835092D01*
X92881365Y-56835091D01*
X92674140Y-56715451D01*
X92674132Y-56715447D01*
X92674130Y-56715446D01*
X92651941Y-56706255D01*
X92453045Y-56623869D01*
X92221900Y-56561934D01*
X91984659Y-56530701D01*
X91984656Y-56530700D01*
X91984650Y-56530700D01*
X91745350Y-56530700D01*
X91745344Y-56530700D01*
X91745340Y-56530701D01*
X91508099Y-56561934D01*
X91276954Y-56623869D01*
X91055876Y-56715443D01*
X91055859Y-56715451D01*
X90848634Y-56835091D01*
X90848632Y-56835092D01*
X90658783Y-56980769D01*
X90658776Y-56980775D01*
X90489575Y-57149976D01*
X90489569Y-57149983D01*
X90343892Y-57339832D01*
X90343891Y-57339834D01*
X90224251Y-57547059D01*
X90224243Y-57547076D01*
X90132669Y-57768154D01*
X90070734Y-57999299D01*
X90039501Y-58236540D01*
X90039500Y-58236556D01*
X86700600Y-58236556D01*
X86700600Y-34988199D01*
X93545171Y-34988199D01*
X93545171Y-34988200D01*
X93564844Y-35200510D01*
X93623196Y-35405592D01*
X93623196Y-35405594D01*
X93718232Y-35596453D01*
X93718234Y-35596455D01*
X93846728Y-35766607D01*
X94004298Y-35910252D01*
X94185581Y-36022498D01*
X94384402Y-36099521D01*
X94593990Y-36138700D01*
X94593992Y-36138700D01*
X94807208Y-36138700D01*
X94807210Y-36138700D01*
X95016798Y-36099521D01*
X95215619Y-36022498D01*
X95396902Y-35910252D01*
X95554472Y-35766607D01*
X95682966Y-35596455D01*
X95778005Y-35405589D01*
X95836356Y-35200510D01*
X95856029Y-34988200D01*
X95856029Y-34988199D01*
X104545171Y-34988199D01*
X104545171Y-34988200D01*
X104564844Y-35200510D01*
X104623196Y-35405592D01*
X104623196Y-35405594D01*
X104718232Y-35596453D01*
X104718234Y-35596455D01*
X104846728Y-35766607D01*
X105004298Y-35910252D01*
X105185581Y-36022498D01*
X105384402Y-36099521D01*
X105593990Y-36138700D01*
X105593992Y-36138700D01*
X105807208Y-36138700D01*
X105807210Y-36138700D01*
X106016798Y-36099521D01*
X106215619Y-36022498D01*
X106396902Y-35910252D01*
X106554472Y-35766607D01*
X106682966Y-35596455D01*
X106778005Y-35405589D01*
X106836356Y-35200510D01*
X106856029Y-34988200D01*
X106836356Y-34775890D01*
X106778005Y-34570811D01*
X106778003Y-34570806D01*
X106778003Y-34570805D01*
X106682967Y-34379946D01*
X106554472Y-34209793D01*
X106396902Y-34066148D01*
X106215619Y-33953902D01*
X106215617Y-33953901D01*
X106116208Y-33915390D01*
X106016798Y-33876879D01*
X105807210Y-33837700D01*
X105593990Y-33837700D01*
X105384402Y-33876879D01*
X105384399Y-33876879D01*
X105384399Y-33876880D01*
X105185582Y-33953901D01*
X105185580Y-33953902D01*
X105004299Y-34066147D01*
X104846727Y-34209793D01*
X104718232Y-34379946D01*
X104623196Y-34570805D01*
X104623196Y-34570807D01*
X104564844Y-34775889D01*
X104545171Y-34988199D01*
X95856029Y-34988199D01*
X95836356Y-34775890D01*
X95778005Y-34570811D01*
X95778003Y-34570806D01*
X95778003Y-34570805D01*
X95682967Y-34379946D01*
X95554472Y-34209793D01*
X95396902Y-34066148D01*
X95215619Y-33953902D01*
X95215617Y-33953901D01*
X95116208Y-33915390D01*
X95016798Y-33876879D01*
X94807210Y-33837700D01*
X94593990Y-33837700D01*
X94384402Y-33876879D01*
X94384399Y-33876879D01*
X94384399Y-33876880D01*
X94185582Y-33953901D01*
X94185580Y-33953902D01*
X94004299Y-34066147D01*
X93846727Y-34209793D01*
X93718232Y-34379946D01*
X93623196Y-34570805D01*
X93623196Y-34570807D01*
X93564844Y-34775889D01*
X93545171Y-34988199D01*
X86700600Y-34988199D01*
X86700600Y-32349000D01*
X86720285Y-32281961D01*
X86773089Y-32236206D01*
X86824600Y-32225000D01*
X133651983Y-32225000D01*
X133719022Y-32244685D01*
G37*
%TD.AperFunction*%
%TD*%
%TA.AperFunction,Conductor*%
%TO.N,+BATT*%
G36*
X120313220Y-42607885D02*
G01*
X120333862Y-42624519D01*
X122264281Y-44554938D01*
X122297766Y-44616261D01*
X122300600Y-44642619D01*
X122300600Y-50264200D01*
X122280915Y-50331239D01*
X122228111Y-50376994D01*
X122176600Y-50388200D01*
X115900600Y-50388200D01*
X115900600Y-51588200D01*
X117900599Y-59588199D01*
X117900600Y-59588200D01*
X120979376Y-59588200D01*
X121003566Y-59590582D01*
X121007173Y-59591300D01*
X121771074Y-59591299D01*
X121838113Y-59610983D01*
X121883868Y-59663787D01*
X121895074Y-59715299D01*
X121895074Y-60287922D01*
X121875389Y-60354961D01*
X121851413Y-60379370D01*
X121852096Y-60380053D01*
X121843463Y-60388685D01*
X121785333Y-60475684D01*
X121785332Y-60475687D01*
X121770074Y-60552394D01*
X121770074Y-61237173D01*
X121750389Y-61304212D01*
X121724902Y-61332892D01*
X119412870Y-63236919D01*
X119348606Y-63264342D01*
X119334042Y-63265200D01*
X119127904Y-63265200D01*
X119097474Y-63268053D01*
X119097472Y-63268053D01*
X118969293Y-63312906D01*
X118969291Y-63312907D01*
X118860024Y-63393550D01*
X118779381Y-63502817D01*
X118779380Y-63502819D01*
X118734527Y-63630998D01*
X118734527Y-63631000D01*
X118731674Y-63661430D01*
X118731674Y-63739384D01*
X118711989Y-63806423D01*
X118686502Y-63835103D01*
X118534941Y-63959919D01*
X118470678Y-63987342D01*
X118456113Y-63988200D01*
X113349776Y-63988200D01*
X113282737Y-63968515D01*
X113264791Y-63954497D01*
X109901960Y-60789480D01*
X109899264Y-60786864D01*
X109634077Y-60521677D01*
X109600592Y-60460354D01*
X109598299Y-60445565D01*
X109598246Y-60444997D01*
X109598245Y-60444994D01*
X109598245Y-60444992D01*
X109563496Y-60345688D01*
X109553393Y-60316814D01*
X109486699Y-60226446D01*
X109462729Y-60160820D01*
X109478044Y-60092650D01*
X109527784Y-60043581D01*
X109570283Y-60029876D01*
X109699530Y-60012861D01*
X109912949Y-59955676D01*
X110117077Y-59871123D01*
X110308423Y-59760649D01*
X110483712Y-59626145D01*
X110639945Y-59469912D01*
X110774449Y-59294623D01*
X110884923Y-59103277D01*
X110969476Y-58899149D01*
X111026661Y-58685730D01*
X111055500Y-58466674D01*
X111055500Y-58245726D01*
X111026661Y-58026670D01*
X110969476Y-57813251D01*
X110911740Y-57673866D01*
X110884927Y-57609132D01*
X110884919Y-57609115D01*
X110774453Y-57417784D01*
X110774449Y-57417777D01*
X110665681Y-57276028D01*
X110639946Y-57242489D01*
X110639940Y-57242482D01*
X110483717Y-57086259D01*
X110483710Y-57086253D01*
X110308431Y-56951757D01*
X110308429Y-56951755D01*
X110308423Y-56951751D01*
X110308418Y-56951748D01*
X110308415Y-56951746D01*
X110117084Y-56841280D01*
X110117067Y-56841272D01*
X109912949Y-56756724D01*
X109699530Y-56699539D01*
X109699524Y-56699538D01*
X109699519Y-56699537D01*
X109480484Y-56670701D01*
X109480479Y-56670700D01*
X109480474Y-56670700D01*
X109259526Y-56670700D01*
X109259520Y-56670700D01*
X109259515Y-56670701D01*
X109040480Y-56699537D01*
X109040473Y-56699538D01*
X109040470Y-56699539D01*
X108970684Y-56718238D01*
X108827050Y-56756724D01*
X108622932Y-56841272D01*
X108622915Y-56841280D01*
X108431584Y-56951746D01*
X108431568Y-56951757D01*
X108256289Y-57086253D01*
X108256282Y-57086259D01*
X108100059Y-57242482D01*
X108100053Y-57242489D01*
X107965557Y-57417768D01*
X107965546Y-57417784D01*
X107855080Y-57609115D01*
X107855072Y-57609132D01*
X107770524Y-57813250D01*
X107713340Y-58026667D01*
X107713337Y-58026680D01*
X107684501Y-58245715D01*
X107684500Y-58245732D01*
X107684500Y-58272738D01*
X107664815Y-58339777D01*
X107612011Y-58385532D01*
X107542853Y-58395476D01*
X107479297Y-58366451D01*
X107472819Y-58360419D01*
X107300600Y-58188200D01*
X106525293Y-58188200D01*
X106458254Y-58168515D01*
X106437612Y-58151881D01*
X106311264Y-58025533D01*
X106311262Y-58025531D01*
X106274150Y-58004104D01*
X106237040Y-57982678D01*
X106193952Y-57971133D01*
X106154253Y-57960496D01*
X106154252Y-57960496D01*
X105335957Y-57960496D01*
X105323805Y-57959899D01*
X105319753Y-57959500D01*
X105319751Y-57959500D01*
X105000345Y-57959500D01*
X104933306Y-57939815D01*
X104887551Y-57887011D01*
X104877607Y-57817853D01*
X104906632Y-57754297D01*
X104909791Y-57750789D01*
X104929441Y-57729783D01*
X105224222Y-57414672D01*
X105227036Y-57411763D01*
X105691834Y-56946965D01*
X105747419Y-56914874D01*
X105768594Y-56909201D01*
X105859919Y-56856474D01*
X107878549Y-54837843D01*
X107886977Y-54830160D01*
X108349004Y-54446582D01*
X108408352Y-54419589D01*
X112300600Y-53788200D01*
X112300600Y-51588200D01*
X111699600Y-51588200D01*
X111632561Y-51568515D01*
X111586806Y-51515711D01*
X111575600Y-51464200D01*
X111575600Y-42712200D01*
X111595285Y-42645161D01*
X111648089Y-42599406D01*
X111699600Y-42588200D01*
X120246181Y-42588200D01*
X120313220Y-42607885D01*
G37*
%TD.AperFunction*%
%TD*%
%TA.AperFunction,Conductor*%
%TO.N,+5V*%
G36*
X105443639Y-37607885D02*
G01*
X105489394Y-37660689D01*
X105500600Y-37712200D01*
X105500600Y-41988200D01*
X106477503Y-43355864D01*
X106500451Y-43421858D01*
X106500600Y-43427938D01*
X106500600Y-47746866D01*
X106480915Y-47813905D01*
X106475800Y-47821266D01*
X105300600Y-49388200D01*
X105300600Y-50123375D01*
X105280915Y-50190414D01*
X105275869Y-50197683D01*
X105266372Y-50210370D01*
X105218588Y-50338481D01*
X105218587Y-50338485D01*
X105212500Y-50395094D01*
X105212500Y-50864200D01*
X105192815Y-50931239D01*
X105140011Y-50976994D01*
X105088500Y-50988200D01*
X102037499Y-50988200D01*
X101970460Y-50968515D01*
X101924705Y-50915711D01*
X101913499Y-50864200D01*
X101913499Y-50395114D01*
X101913498Y-50395105D01*
X101907412Y-50338481D01*
X101889588Y-50290697D01*
X101859628Y-50210370D01*
X101777687Y-50100909D01*
X101711911Y-50051670D01*
X101668228Y-50018969D01*
X101668226Y-50018968D01*
X101540114Y-49971184D01*
X101540112Y-49971183D01*
X101540110Y-49971183D01*
X101483493Y-49965096D01*
X100842518Y-49965096D01*
X100842509Y-49965097D01*
X100785885Y-49971183D01*
X100657773Y-50018968D01*
X100548313Y-50100909D01*
X100466373Y-50210367D01*
X100418587Y-50338485D01*
X100412500Y-50395094D01*
X100412500Y-50864200D01*
X100392815Y-50931239D01*
X100340011Y-50976994D01*
X100288500Y-50988200D01*
X100224600Y-50988200D01*
X100157561Y-50968515D01*
X100111806Y-50915711D01*
X100100600Y-50864200D01*
X100100600Y-37712200D01*
X100120285Y-37645161D01*
X100173089Y-37599406D01*
X100224600Y-37588200D01*
X105376600Y-37588200D01*
X105443639Y-37607885D01*
G37*
%TD.AperFunction*%
%TD*%
%TA.AperFunction,Conductor*%
%TO.N,+5V*%
G36*
X126025545Y-44461929D02*
G01*
X126032574Y-44478900D01*
X126032574Y-56133318D01*
X126025545Y-56150289D01*
X126013627Y-56156780D01*
X124381574Y-56508300D01*
X124381574Y-56539364D01*
X124377529Y-56552698D01*
X124332432Y-56620189D01*
X124332431Y-56620191D01*
X124320074Y-56682315D01*
X124320074Y-57474284D01*
X124324318Y-57495618D01*
X124320734Y-57513634D01*
X124305461Y-57523839D01*
X124300779Y-57524300D01*
X123890369Y-57524300D01*
X123873398Y-57517271D01*
X123866369Y-57500300D01*
X123866830Y-57495618D01*
X123871073Y-57474284D01*
X123871074Y-57474280D01*
X123871074Y-56682320D01*
X123858716Y-56620191D01*
X123828689Y-56575252D01*
X123824644Y-56561871D01*
X123824688Y-56539364D01*
X123825873Y-55929382D01*
X123828485Y-55918548D01*
X123869220Y-55838604D01*
X123884074Y-55744819D01*
X123884073Y-54731782D01*
X123869220Y-54637996D01*
X123869219Y-54637994D01*
X123869219Y-54637993D01*
X123831165Y-54563310D01*
X123828549Y-54552370D01*
X123848127Y-44478851D01*
X123855189Y-44461896D01*
X123872127Y-44454900D01*
X126008574Y-44454900D01*
X126025545Y-44461929D01*
G37*
%TD.AperFunction*%
%TD*%
%TA.AperFunction,Conductor*%
%TO.N,/Power/SW_BAT*%
G36*
X121383584Y-51683341D02*
G01*
X122504796Y-51706700D01*
X122539136Y-51721770D01*
X122552774Y-51755689D01*
X122552774Y-53925159D01*
X122541417Y-53956528D01*
X122440466Y-54077669D01*
X122407259Y-54095099D01*
X122402823Y-54095300D01*
X120388400Y-54095300D01*
X120388400Y-53881029D01*
X121614574Y-53881029D01*
X121617474Y-53895606D01*
X121628526Y-53912147D01*
X121645067Y-53923199D01*
X121659644Y-53926099D01*
X121659648Y-53926100D01*
X121664574Y-53926100D01*
X122314574Y-53926100D01*
X122319500Y-53926100D01*
X122319503Y-53926099D01*
X122334080Y-53923199D01*
X122350621Y-53912147D01*
X122361673Y-53895606D01*
X122364573Y-53881029D01*
X122364574Y-53881026D01*
X122364574Y-53201100D01*
X122314574Y-53201100D01*
X122314574Y-53926100D01*
X121664574Y-53926100D01*
X121664574Y-53201100D01*
X121614574Y-53201100D01*
X121614574Y-53881029D01*
X120388400Y-53881029D01*
X120388400Y-53707000D01*
X117879174Y-53670300D01*
X118116171Y-53833771D01*
X118117587Y-53836979D01*
X118196894Y-53916286D01*
X118299500Y-53961590D01*
X118301878Y-53961865D01*
X118495327Y-54095300D01*
X117928174Y-54095300D01*
X117893526Y-54080948D01*
X117879174Y-54046300D01*
X117879174Y-53014499D01*
X118107662Y-53014499D01*
X118107662Y-53014500D01*
X118444374Y-53014500D01*
X119244374Y-53014500D01*
X119581086Y-53014500D01*
X119581085Y-53014499D01*
X119571160Y-52992020D01*
X119491853Y-52912713D01*
X119491854Y-52912713D01*
X119389247Y-52867409D01*
X119364184Y-52864501D01*
X119364164Y-52864500D01*
X119244374Y-52864500D01*
X119244374Y-53014500D01*
X118444374Y-53014500D01*
X118444374Y-52864500D01*
X118324586Y-52864500D01*
X118324579Y-52864501D01*
X118299497Y-52867410D01*
X118196894Y-52912713D01*
X118117587Y-52992020D01*
X118107662Y-53014499D01*
X117879174Y-53014499D01*
X117879174Y-52696089D01*
X117893526Y-52661441D01*
X117927760Y-52647091D01*
X120901774Y-52622100D01*
X121333574Y-52190300D01*
X121333574Y-51871170D01*
X121614574Y-51871170D01*
X121614574Y-52551100D01*
X121664574Y-52551100D01*
X122314574Y-52551100D01*
X122364574Y-52551100D01*
X122364574Y-51871174D01*
X122364573Y-51871170D01*
X122361673Y-51856593D01*
X122350621Y-51840052D01*
X122334080Y-51829000D01*
X122319503Y-51826100D01*
X122314574Y-51826100D01*
X122314574Y-52551100D01*
X121664574Y-52551100D01*
X121664574Y-51826100D01*
X121659644Y-51826100D01*
X121645067Y-51829000D01*
X121628526Y-51840052D01*
X121617474Y-51856593D01*
X121614574Y-51871170D01*
X121333574Y-51871170D01*
X121333574Y-51732331D01*
X121347926Y-51697683D01*
X121382574Y-51683331D01*
X121383584Y-51683341D01*
G37*
%TD.AperFunction*%
%TD*%
%TA.AperFunction,Conductor*%
%TO.N,+BATT*%
G36*
X101799785Y-57103039D02*
G01*
X101800708Y-57101947D01*
X101804688Y-57105308D01*
X101804690Y-57105310D01*
X101860840Y-57145150D01*
X101950003Y-57165501D01*
X102520500Y-57165498D01*
X102587539Y-57185182D01*
X102633294Y-57237986D01*
X102644500Y-57289498D01*
X102644500Y-57835500D01*
X102624815Y-57902539D01*
X102572011Y-57948294D01*
X102520500Y-57959500D01*
X101880249Y-57959500D01*
X101876197Y-57959899D01*
X101864045Y-57960496D01*
X101059450Y-57960496D01*
X100976662Y-57982678D01*
X100902441Y-58025531D01*
X100902438Y-58025533D01*
X99364537Y-59563434D01*
X99364533Y-59563440D01*
X99321681Y-59637661D01*
X99318547Y-59649359D01*
X99318547Y-59649361D01*
X99299500Y-59720446D01*
X99299500Y-60813811D01*
X99279815Y-60880850D01*
X99263181Y-60901492D01*
X99113992Y-61050681D01*
X99052669Y-61084166D01*
X99026311Y-61087000D01*
X97531365Y-61087000D01*
X97531349Y-61086999D01*
X97523753Y-61086999D01*
X97438048Y-61086999D01*
X97430452Y-61086999D01*
X97430436Y-61087000D01*
X96424600Y-61087000D01*
X96357561Y-61067315D01*
X96311806Y-61014511D01*
X96300600Y-60963000D01*
X96300600Y-57337200D01*
X96320285Y-57270161D01*
X96373089Y-57224406D01*
X96424600Y-57213200D01*
X101350600Y-57213200D01*
X101673103Y-57081267D01*
X101742604Y-57074103D01*
X101799785Y-57103039D01*
G37*
%TD.AperFunction*%
%TD*%
%TA.AperFunction,Conductor*%
%TO.N,/Power/SW_5*%
G36*
X101928651Y-51171395D02*
G01*
X101935293Y-51172364D01*
X101979601Y-51185375D01*
X102037499Y-51193700D01*
X102037500Y-51193700D01*
X105088503Y-51193700D01*
X105132170Y-51189005D01*
X105132177Y-51189003D01*
X105132184Y-51189003D01*
X105147540Y-51185662D01*
X105152729Y-51185114D01*
X105238605Y-51185480D01*
X105255543Y-51192581D01*
X105262500Y-51209479D01*
X105262500Y-51924081D01*
X105278281Y-52023724D01*
X105339469Y-52143812D01*
X105339470Y-52143813D01*
X105339472Y-52143816D01*
X105434780Y-52239124D01*
X105434782Y-52239125D01*
X105434783Y-52239126D01*
X105554871Y-52300314D01*
X105554872Y-52300314D01*
X105554874Y-52300315D01*
X105654512Y-52316096D01*
X105654515Y-52316096D01*
X105891652Y-52316096D01*
X105908623Y-52323125D01*
X105915652Y-52340096D01*
X105912805Y-52351434D01*
X104833000Y-54365996D01*
X104836028Y-55110400D01*
X104829067Y-55127399D01*
X104812126Y-55134498D01*
X104660175Y-55134498D01*
X104616277Y-55143230D01*
X104566498Y-55176492D01*
X104566494Y-55176496D01*
X104533232Y-55226275D01*
X104524500Y-55270173D01*
X104524500Y-55974819D01*
X104529672Y-56000816D01*
X104526089Y-56018832D01*
X104510816Y-56029038D01*
X104506133Y-56029499D01*
X102693869Y-56029499D01*
X102676898Y-56022470D01*
X102669869Y-56005499D01*
X102670330Y-56000816D01*
X102675502Y-55974818D01*
X102675502Y-55270178D01*
X102666769Y-55226276D01*
X102666769Y-55226275D01*
X102633507Y-55176496D01*
X102633506Y-55176494D01*
X102633279Y-55176342D01*
X102583724Y-55143230D01*
X102558006Y-55138115D01*
X102542733Y-55127910D01*
X102538696Y-55115146D01*
X102521600Y-54391396D01*
X101285441Y-52352537D01*
X101282655Y-52334383D01*
X101293522Y-52319573D01*
X101305965Y-52316096D01*
X101471485Y-52316096D01*
X101471488Y-52316096D01*
X101571126Y-52300315D01*
X101691220Y-52239124D01*
X101786528Y-52143816D01*
X101847719Y-52023722D01*
X101863500Y-51924084D01*
X101863500Y-51195220D01*
X101870529Y-51178249D01*
X101887499Y-51171220D01*
X101928651Y-51171395D01*
G37*
%TD.AperFunction*%
%TD*%
%TA.AperFunction,Conductor*%
%TO.N,+5V*%
G36*
X49317113Y-37844685D02*
G01*
X49337755Y-37861319D01*
X49420931Y-37944495D01*
X49517716Y-38012265D01*
X49614497Y-38080032D01*
X49614499Y-38080033D01*
X49614502Y-38080035D01*
X49828669Y-38179903D01*
X50056924Y-38241063D01*
X50245250Y-38257539D01*
X50292331Y-38261659D01*
X50292332Y-38261659D01*
X50292333Y-38261659D01*
X50331566Y-38258226D01*
X50527740Y-38241063D01*
X50755995Y-38179903D01*
X50970162Y-38080035D01*
X51163733Y-37944495D01*
X51246909Y-37861319D01*
X51308232Y-37827834D01*
X51334590Y-37825000D01*
X52983740Y-37825000D01*
X53050779Y-37844685D01*
X53071421Y-37861319D01*
X53154597Y-37944495D01*
X53251382Y-38012265D01*
X53348163Y-38080032D01*
X53348165Y-38080033D01*
X53348168Y-38080035D01*
X53562335Y-38179903D01*
X53790590Y-38241063D01*
X53978916Y-38257539D01*
X54025997Y-38261659D01*
X54025998Y-38261659D01*
X54025999Y-38261659D01*
X54065232Y-38258226D01*
X54261406Y-38241063D01*
X54489661Y-38179903D01*
X54703828Y-38080035D01*
X54897399Y-37944495D01*
X54980575Y-37861319D01*
X55041898Y-37827834D01*
X55068256Y-37825000D01*
X56717406Y-37825000D01*
X56784445Y-37844685D01*
X56805087Y-37861319D01*
X56888263Y-37944495D01*
X56985048Y-38012265D01*
X57081829Y-38080032D01*
X57081831Y-38080033D01*
X57081834Y-38080035D01*
X57296001Y-38179903D01*
X57524256Y-38241063D01*
X57712582Y-38257539D01*
X57759663Y-38261659D01*
X57759664Y-38261659D01*
X57759665Y-38261659D01*
X57798898Y-38258226D01*
X57995072Y-38241063D01*
X58223327Y-38179903D01*
X58437494Y-38080035D01*
X58631065Y-37944495D01*
X58714241Y-37861319D01*
X58775564Y-37827834D01*
X58801922Y-37825000D01*
X60451072Y-37825000D01*
X60518111Y-37844685D01*
X60538753Y-37861319D01*
X60621929Y-37944495D01*
X60718714Y-38012265D01*
X60815495Y-38080032D01*
X60815497Y-38080033D01*
X60815500Y-38080035D01*
X61029667Y-38179903D01*
X61257922Y-38241063D01*
X61446248Y-38257539D01*
X61493329Y-38261659D01*
X61493330Y-38261659D01*
X61493331Y-38261659D01*
X61532564Y-38258226D01*
X61728738Y-38241063D01*
X61956993Y-38179903D01*
X62171160Y-38080035D01*
X62364731Y-37944495D01*
X62447907Y-37861319D01*
X62509230Y-37827834D01*
X62535588Y-37825000D01*
X64184742Y-37825000D01*
X64251781Y-37844685D01*
X64272423Y-37861319D01*
X64355599Y-37944495D01*
X64452384Y-38012265D01*
X64549165Y-38080032D01*
X64549167Y-38080033D01*
X64549170Y-38080035D01*
X64763337Y-38179903D01*
X64991592Y-38241063D01*
X65179918Y-38257539D01*
X65226999Y-38261659D01*
X65227000Y-38261659D01*
X65227001Y-38261659D01*
X65266234Y-38258226D01*
X65462408Y-38241063D01*
X65690663Y-38179903D01*
X65904830Y-38080035D01*
X66098401Y-37944495D01*
X66181577Y-37861319D01*
X66242900Y-37827834D01*
X66269258Y-37825000D01*
X74799017Y-37825000D01*
X74866056Y-37844685D01*
X74911811Y-37897489D01*
X74923000Y-37950965D01*
X74556468Y-61042516D01*
X74426937Y-69202968D01*
X74406191Y-69269687D01*
X74352668Y-69314598D01*
X74302953Y-69325000D01*
X70549000Y-69325000D01*
X70481961Y-69305315D01*
X70436206Y-69252511D01*
X70425000Y-69201000D01*
X70425000Y-61992106D01*
X70444685Y-61925067D01*
X70449734Y-61917794D01*
X70468796Y-61892331D01*
X70519091Y-61757483D01*
X70525500Y-61697873D01*
X70525499Y-61102128D01*
X70519091Y-61042517D01*
X70502445Y-60997888D01*
X70468797Y-60907671D01*
X70468795Y-60907668D01*
X70449733Y-60882204D01*
X70425316Y-60816739D01*
X70425000Y-60807893D01*
X70425000Y-41325000D01*
X49102244Y-41325000D01*
X49035205Y-41305315D01*
X48989450Y-41252511D01*
X48987683Y-41248453D01*
X48972574Y-41211978D01*
X48972574Y-41211977D01*
X48945897Y-41172052D01*
X48925020Y-41105375D01*
X48925000Y-41103162D01*
X48925000Y-37949000D01*
X48944685Y-37881961D01*
X48997489Y-37836206D01*
X49049000Y-37825000D01*
X49250074Y-37825000D01*
X49317113Y-37844685D01*
G37*
%TD.AperFunction*%
%TD*%
%TA.AperFunction,Conductor*%
%TO.N,/Power/SNS*%
G36*
X120213501Y-57861529D02*
G01*
X120214842Y-57862987D01*
X120512796Y-58215115D01*
X120801278Y-58556049D01*
X120803324Y-58558368D01*
X120805525Y-58560862D01*
X120806575Y-58562003D01*
X120806873Y-58562328D01*
X120806882Y-58562336D01*
X120844952Y-58588940D01*
X120861831Y-58600736D01*
X120869396Y-58603869D01*
X120878793Y-58607762D01*
X120878797Y-58607763D01*
X120878802Y-58607765D01*
X120938305Y-58619600D01*
X120938309Y-58619600D01*
X121921074Y-58619600D01*
X121938045Y-58626629D01*
X121945074Y-58643600D01*
X121945074Y-59400327D01*
X121938045Y-59417298D01*
X121921074Y-59424327D01*
X121909359Y-59421274D01*
X121901708Y-59416995D01*
X121896008Y-59413807D01*
X121828969Y-59394123D01*
X121828965Y-59394122D01*
X121771074Y-59385799D01*
X121022133Y-59385799D01*
X121019783Y-59385684D01*
X121017941Y-59385502D01*
X120999514Y-59383689D01*
X120999506Y-59383688D01*
X120999490Y-59383687D01*
X120979387Y-59382700D01*
X120979376Y-59382700D01*
X118079787Y-59382700D01*
X118062816Y-59375671D01*
X118056504Y-59364521D01*
X117879891Y-58658067D01*
X117879174Y-58652246D01*
X117879174Y-57878500D01*
X117886203Y-57861529D01*
X117903174Y-57854500D01*
X120196530Y-57854500D01*
X120213501Y-57861529D01*
G37*
%TD.AperFunction*%
%TD*%
%TA.AperFunction,Conductor*%
%TO.N,/Power/SW_BAT*%
G36*
X120388400Y-53707000D02*
G01*
X120388400Y-54095300D01*
X120388400Y-54095301D01*
X120388400Y-56214799D01*
X120388400Y-56214800D01*
X121939223Y-57724330D01*
X121946481Y-57741204D01*
X121946022Y-57746207D01*
X121945075Y-57750968D01*
X121945074Y-57750983D01*
X121945074Y-58440100D01*
X121938045Y-58457071D01*
X121921074Y-58464100D01*
X120938305Y-58464100D01*
X120921334Y-58457071D01*
X120919984Y-58455603D01*
X119835909Y-57174423D01*
X119830313Y-57156927D01*
X119832056Y-57149739D01*
X119886330Y-57018709D01*
X119905250Y-56875000D01*
X119886330Y-56731291D01*
X119830861Y-56597375D01*
X119830858Y-56597371D01*
X119830857Y-56597369D01*
X119807583Y-56567038D01*
X119802625Y-56552712D01*
X119784174Y-54984300D01*
X119784174Y-54984299D01*
X119702560Y-54928005D01*
X119694803Y-54919145D01*
X119647426Y-54826161D01*
X119647425Y-54826160D01*
X119647424Y-54826158D01*
X119557716Y-54736450D01*
X119557713Y-54736448D01*
X119557712Y-54736447D01*
X119444680Y-54678854D01*
X119407164Y-54672912D01*
X119350893Y-54664000D01*
X119350890Y-54664000D01*
X119327286Y-54664000D01*
X119313659Y-54659756D01*
X118495327Y-54095300D01*
X117879174Y-53670300D01*
X120388400Y-53707000D01*
G37*
%TD.AperFunction*%
%TD*%
%TA.AperFunction,Conductor*%
%TO.N,/Power/PMID*%
G36*
X123663555Y-51676653D02*
G01*
X123678558Y-51711025D01*
X123678567Y-51712044D01*
X123678412Y-51792060D01*
X123664574Y-51825376D01*
X123664574Y-53932774D01*
X123674206Y-53956028D01*
X123674206Y-53956123D01*
X123673248Y-54449275D01*
X123658829Y-54483895D01*
X123650999Y-54490233D01*
X123633574Y-54501587D01*
X123633574Y-55975010D01*
X123647936Y-55984370D01*
X123669129Y-56015311D01*
X123670184Y-56025518D01*
X123669188Y-56539059D01*
X123669144Y-56561563D01*
X123669145Y-56561575D01*
X123675795Y-56606861D01*
X123675796Y-56606868D01*
X123679842Y-56620252D01*
X123699391Y-56661636D01*
X123699393Y-56661640D01*
X123706824Y-56672761D01*
X123714137Y-56690411D01*
X123714630Y-56692891D01*
X123715574Y-56702458D01*
X123715574Y-57154300D01*
X123701222Y-57188948D01*
X123666574Y-57203300D01*
X123420575Y-57203300D01*
X123420575Y-57464380D01*
X123420847Y-57465747D01*
X123420755Y-57466207D01*
X123420811Y-57466772D01*
X123420639Y-57466788D01*
X123413525Y-57502529D01*
X123382340Y-57523360D01*
X123372787Y-57524300D01*
X123318362Y-57524300D01*
X123283714Y-57509948D01*
X123269362Y-57475300D01*
X123270303Y-57465742D01*
X123270574Y-57464379D01*
X123270574Y-57203300D01*
X123019574Y-57203300D01*
X122984926Y-57188948D01*
X122970574Y-57154300D01*
X122970574Y-56953300D01*
X123220574Y-56953300D01*
X123270573Y-56953300D01*
X123270573Y-56692223D01*
X123270572Y-56692222D01*
X123420574Y-56692222D01*
X123420574Y-56953300D01*
X123470574Y-56953300D01*
X123470574Y-56609757D01*
X123451967Y-56622191D01*
X123451961Y-56622196D01*
X123427101Y-56659403D01*
X123420574Y-56692222D01*
X123270572Y-56692222D01*
X123264046Y-56659405D01*
X123264044Y-56659400D01*
X123239186Y-56622196D01*
X123239180Y-56622191D01*
X123220574Y-56609757D01*
X123220574Y-56953300D01*
X122970574Y-56953300D01*
X122970574Y-56609757D01*
X122951967Y-56622191D01*
X122951962Y-56622196D01*
X122947315Y-56629151D01*
X122916132Y-56649986D01*
X122879350Y-56642668D01*
X122858515Y-56611485D01*
X122857574Y-56601927D01*
X122857574Y-56381300D01*
X122240964Y-55888012D01*
X122222874Y-55855160D01*
X122222574Y-55849749D01*
X122222574Y-55758094D01*
X122683575Y-55758094D01*
X122686484Y-55783176D01*
X122731787Y-55885779D01*
X122811095Y-55965086D01*
X122811098Y-55965088D01*
X122833573Y-55975010D01*
X122833574Y-55975010D01*
X122833574Y-55638300D01*
X122683575Y-55638300D01*
X122683575Y-55758094D01*
X122222574Y-55758094D01*
X122222574Y-54718509D01*
X122683574Y-54718509D01*
X122683574Y-54838300D01*
X122833574Y-54838300D01*
X122833574Y-54501588D01*
X122833573Y-54501588D01*
X122811094Y-54511513D01*
X122731787Y-54590820D01*
X122686483Y-54693426D01*
X122683575Y-54718489D01*
X122683574Y-54718509D01*
X122222574Y-54718509D01*
X122222574Y-54299800D01*
X122236926Y-54265152D01*
X122271574Y-54250800D01*
X122402801Y-54250800D01*
X122402823Y-54250800D01*
X122409862Y-54250641D01*
X122414298Y-54250440D01*
X122414305Y-54250438D01*
X122414306Y-54250438D01*
X122479525Y-54232786D01*
X122479524Y-54232786D01*
X122479529Y-54232785D01*
X122512736Y-54215355D01*
X122559924Y-54177218D01*
X122660875Y-54056077D01*
X122687629Y-54009464D01*
X122698986Y-53978095D01*
X122708274Y-53925159D01*
X122708274Y-53881029D01*
X122964574Y-53881029D01*
X122967474Y-53895606D01*
X122978526Y-53912147D01*
X122995067Y-53923199D01*
X123009644Y-53926099D01*
X123009648Y-53926100D01*
X123014574Y-53926100D01*
X123014574Y-53201100D01*
X122964574Y-53201100D01*
X122964574Y-53881029D01*
X122708274Y-53881029D01*
X122708274Y-51871170D01*
X122964574Y-51871170D01*
X122964574Y-52551100D01*
X123014574Y-52551100D01*
X123014574Y-51826100D01*
X123009644Y-51826100D01*
X122995067Y-51829000D01*
X122978526Y-51840052D01*
X122967474Y-51856593D01*
X122964574Y-51871170D01*
X122708274Y-51871170D01*
X122708274Y-51755689D01*
X122704812Y-51737799D01*
X122712318Y-51701057D01*
X122743608Y-51680383D01*
X122751988Y-51679499D01*
X123628645Y-51662959D01*
X123663555Y-51676653D01*
G37*
%TD.AperFunction*%
%TD*%
M02*
