%TF.GenerationSoftware,KiCad,Pcbnew,8.0.3*%
%TF.CreationDate,2024-07-13T14:18:46-04:00*%
%TF.ProjectId,get-a-grip-on-reality,6765742d-612d-4677-9269-702d6f6e2d72,rev?*%
%TF.SameCoordinates,Original*%
%TF.FileFunction,Copper,L1,Top*%
%TF.FilePolarity,Positive*%
%FSLAX46Y46*%
G04 Gerber Fmt 4.6, Leading zero omitted, Abs format (unit mm)*
G04 Created by KiCad (PCBNEW 8.0.3) date 2024-07-13 14:18:46*
%MOMM*%
%LPD*%
G01*
G04 APERTURE LIST*
G04 Aperture macros list*
%AMRoundRect*
0 Rectangle with rounded corners*
0 $1 Rounding radius*
0 $2 $3 $4 $5 $6 $7 $8 $9 X,Y pos of 4 corners*
0 Add a 4 corners polygon primitive as box body*
4,1,4,$2,$3,$4,$5,$6,$7,$8,$9,$2,$3,0*
0 Add four circle primitives for the rounded corners*
1,1,$1+$1,$2,$3*
1,1,$1+$1,$4,$5*
1,1,$1+$1,$6,$7*
1,1,$1+$1,$8,$9*
0 Add four rect primitives between the rounded corners*
20,1,$1+$1,$2,$3,$4,$5,0*
20,1,$1+$1,$4,$5,$6,$7,0*
20,1,$1+$1,$6,$7,$8,$9,0*
20,1,$1+$1,$8,$9,$2,$3,0*%
%AMRotRect*
0 Rectangle, with rotation*
0 The origin of the aperture is its center*
0 $1 length*
0 $2 width*
0 $3 Rotation angle, in degrees counterclockwise*
0 Add horizontal line*
21,1,$1,$2,0,0,$3*%
G04 Aperture macros list end*
%TA.AperFunction,ComponentPad*%
%ADD10C,1.258000*%
%TD*%
%TA.AperFunction,ComponentPad*%
%ADD11RotRect,1.258000X1.258000X210.000000*%
%TD*%
%TA.AperFunction,SMDPad,CuDef*%
%ADD12RoundRect,0.250000X0.250000X0.475000X-0.250000X0.475000X-0.250000X-0.475000X0.250000X-0.475000X0*%
%TD*%
%TA.AperFunction,ComponentPad*%
%ADD13R,1.700000X1.700000*%
%TD*%
%TA.AperFunction,ComponentPad*%
%ADD14O,1.700000X1.700000*%
%TD*%
%TA.AperFunction,SMDPad,CuDef*%
%ADD15RoundRect,0.150000X-0.625000X0.150000X-0.625000X-0.150000X0.625000X-0.150000X0.625000X0.150000X0*%
%TD*%
%TA.AperFunction,SMDPad,CuDef*%
%ADD16RoundRect,0.250000X-0.650000X0.350000X-0.650000X-0.350000X0.650000X-0.350000X0.650000X0.350000X0*%
%TD*%
%TA.AperFunction,SMDPad,CuDef*%
%ADD17RoundRect,0.250000X-0.450000X0.262500X-0.450000X-0.262500X0.450000X-0.262500X0.450000X0.262500X0*%
%TD*%
%TA.AperFunction,SMDPad,CuDef*%
%ADD18RoundRect,0.093750X-0.106250X0.093750X-0.106250X-0.093750X0.106250X-0.093750X0.106250X0.093750X0*%
%TD*%
%TA.AperFunction,HeatsinkPad*%
%ADD19R,1.600000X1.000000*%
%TD*%
%TA.AperFunction,SMDPad,CuDef*%
%ADD20RoundRect,0.243750X-0.456250X0.243750X-0.456250X-0.243750X0.456250X-0.243750X0.456250X0.243750X0*%
%TD*%
%TA.AperFunction,SMDPad,CuDef*%
%ADD21RoundRect,0.250000X-0.250000X-0.475000X0.250000X-0.475000X0.250000X0.475000X-0.250000X0.475000X0*%
%TD*%
%TA.AperFunction,ComponentPad*%
%ADD22C,1.400000*%
%TD*%
%TA.AperFunction,ComponentPad*%
%ADD23R,3.500000X3.500000*%
%TD*%
%TA.AperFunction,ComponentPad*%
%ADD24C,3.500000*%
%TD*%
%TA.AperFunction,SMDPad,CuDef*%
%ADD25RoundRect,0.250000X-0.262500X-0.450000X0.262500X-0.450000X0.262500X0.450000X-0.262500X0.450000X0*%
%TD*%
%TA.AperFunction,SMDPad,CuDef*%
%ADD26RoundRect,0.062500X-0.117500X-0.062500X0.117500X-0.062500X0.117500X0.062500X-0.117500X0.062500X0*%
%TD*%
%TA.AperFunction,SMDPad,CuDef*%
%ADD27RoundRect,0.150000X0.150000X0.625000X-0.150000X0.625000X-0.150000X-0.625000X0.150000X-0.625000X0*%
%TD*%
%TA.AperFunction,SMDPad,CuDef*%
%ADD28RoundRect,0.250000X0.350000X0.650000X-0.350000X0.650000X-0.350000X-0.650000X0.350000X-0.650000X0*%
%TD*%
%TA.AperFunction,SMDPad,CuDef*%
%ADD29R,0.675000X0.250000*%
%TD*%
%TA.AperFunction,SMDPad,CuDef*%
%ADD30R,0.250000X0.675000*%
%TD*%
%TA.AperFunction,SMDPad,CuDef*%
%ADD31R,6.350000X7.340000*%
%TD*%
%TA.AperFunction,SMDPad,CuDef*%
%ADD32RoundRect,0.250000X0.475000X-0.250000X0.475000X0.250000X-0.475000X0.250000X-0.475000X-0.250000X0*%
%TD*%
%TA.AperFunction,SMDPad,CuDef*%
%ADD33R,0.900000X1.500000*%
%TD*%
%TA.AperFunction,SMDPad,CuDef*%
%ADD34R,1.500000X0.900000*%
%TD*%
%TA.AperFunction,SMDPad,CuDef*%
%ADD35R,3.900000X3.900000*%
%TD*%
%TA.AperFunction,ComponentPad*%
%ADD36RotRect,1.258000X1.258000X330.000000*%
%TD*%
%TA.AperFunction,SMDPad,CuDef*%
%ADD37R,1.000000X2.750000*%
%TD*%
%TA.AperFunction,SMDPad,CuDef*%
%ADD38RoundRect,0.250000X0.450000X-0.262500X0.450000X0.262500X-0.450000X0.262500X-0.450000X-0.262500X0*%
%TD*%
%TA.AperFunction,ComponentPad*%
%ADD39R,1.258000X1.258000*%
%TD*%
%TA.AperFunction,SMDPad,CuDef*%
%ADD40RoundRect,0.250000X0.262500X0.450000X-0.262500X0.450000X-0.262500X-0.450000X0.262500X-0.450000X0*%
%TD*%
%TA.AperFunction,SMDPad,CuDef*%
%ADD41RoundRect,0.250000X-0.475000X0.250000X-0.475000X-0.250000X0.475000X-0.250000X0.475000X0.250000X0*%
%TD*%
%TA.AperFunction,SMDPad,CuDef*%
%ADD42RoundRect,0.075000X0.910000X0.225000X-0.910000X0.225000X-0.910000X-0.225000X0.910000X-0.225000X0*%
%TD*%
%TA.AperFunction,ViaPad*%
%ADD43C,0.800000*%
%TD*%
%TA.AperFunction,ViaPad*%
%ADD44C,0.500000*%
%TD*%
%TA.AperFunction,ViaPad*%
%ADD45C,0.600000*%
%TD*%
%TA.AperFunction,Conductor*%
%ADD46C,0.250000*%
%TD*%
%TA.AperFunction,Conductor*%
%ADD47C,0.560000*%
%TD*%
%TA.AperFunction,Conductor*%
%ADD48C,0.400000*%
%TD*%
%TA.AperFunction,Conductor*%
%ADD49C,0.350000*%
%TD*%
%TA.AperFunction,Conductor*%
%ADD50C,0.150000*%
%TD*%
%TA.AperFunction,Conductor*%
%ADD51C,0.200000*%
%TD*%
G04 APERTURE END LIST*
D10*
%TO.P,D5,A*%
%TO.N,GND*%
X81400296Y-53310000D03*
D11*
%TO.P,D5,K*%
%TO.N,/Light Sensor/1IN-*%
X83600000Y-52040000D03*
%TD*%
D12*
%TO.P,C8,1*%
%TO.N,+3.3V*%
X47525000Y-34325000D03*
%TO.P,C8,2*%
%TO.N,GND*%
X45625000Y-34325000D03*
%TD*%
%TO.P,C6,1*%
%TO.N,+3.3V*%
X43875200Y-68066800D03*
%TO.P,C6,2*%
%TO.N,GND*%
X41975200Y-68066800D03*
%TD*%
D13*
%TO.P,J9,1,Pin_1*%
%TO.N,+5V*%
X57759664Y-39446000D03*
D14*
%TO.P,J9,2,Pin_2*%
%TO.N,/MOTOR3*%
X57759664Y-36906000D03*
%TO.P,J9,3,Pin_3*%
%TO.N,GND*%
X57759664Y-34366000D03*
%TD*%
D13*
%TO.P,J11,1,Pin_1*%
%TO.N,+5V*%
X65227000Y-39446000D03*
D14*
%TO.P,J11,2,Pin_2*%
%TO.N,/MOTOR5*%
X65227000Y-36906000D03*
%TO.P,J11,3,Pin_3*%
%TO.N,GND*%
X65227000Y-34366000D03*
%TD*%
D13*
%TO.P,J10,1,Pin_1*%
%TO.N,+5V*%
X61493330Y-39446000D03*
D14*
%TO.P,J10,2,Pin_2*%
%TO.N,/MOTOR4*%
X61493330Y-36906000D03*
%TO.P,J10,3,Pin_3*%
%TO.N,GND*%
X61493330Y-34366000D03*
%TD*%
D15*
%TO.P,J6,1,Pin_1*%
%TO.N,GND*%
X63100000Y-57775000D03*
%TO.P,J6,2,Pin_2*%
%TO.N,/HALL5C*%
X63100000Y-58775000D03*
%TO.P,J6,3,Pin_3*%
%TO.N,/HALL5B*%
X63100000Y-59775000D03*
%TO.P,J6,4,Pin_4*%
%TO.N,/HALL5A*%
X63100000Y-60775000D03*
%TO.P,J6,5,Pin_5*%
%TO.N,+3.3V*%
X63100000Y-61775000D03*
D16*
%TO.P,J6,MP*%
%TO.N,N/C*%
X65625000Y-56475000D03*
X65625000Y-63075000D03*
%TD*%
D17*
%TO.P,R4,1*%
%TO.N,GND*%
X64525000Y-44700000D03*
%TO.P,R4,2*%
%TO.N,/Light Sensor/2IN-*%
X64525000Y-46525000D03*
%TD*%
D18*
%TO.P,U1,1,OUT*%
%TO.N,+3.3V*%
X69875000Y-60512500D03*
%TO.P,U1,2,SNS*%
X69225000Y-60512500D03*
%TO.P,U1,3,GND*%
%TO.N,GND*%
X68575000Y-60512500D03*
%TO.P,U1,4,EN*%
%TO.N,+5V*%
X68575000Y-62287500D03*
%TO.P,U1,5,GND*%
%TO.N,GND*%
X69225000Y-62287500D03*
%TO.P,U1,6,IN*%
%TO.N,+5V*%
X69875000Y-62287500D03*
D19*
%TO.P,U1,7,PAD*%
%TO.N,GND*%
X69225000Y-61400000D03*
%TD*%
D20*
%TO.P,D2,1,K*%
%TO.N,Net-(D2-K)*%
X62475000Y-51750000D03*
%TO.P,D2,2,A*%
%TO.N,Net-(D2-A)*%
X62475000Y-53625000D03*
%TD*%
D12*
%TO.P,C5,1*%
%TO.N,+3.3V*%
X69747400Y-55992200D03*
%TO.P,C5,2*%
%TO.N,GND*%
X67847400Y-55992200D03*
%TD*%
D21*
%TO.P,C3,1*%
%TO.N,Net-(U2-GPIO0{slash}BOOT)*%
X67617800Y-42525000D03*
%TO.P,C3,2*%
%TO.N,GND*%
X69517800Y-42525000D03*
%TD*%
D12*
%TO.P,C11,1*%
%TO.N,+3.3V*%
X52375000Y-42325000D03*
%TO.P,C11,2*%
%TO.N,GND*%
X50475000Y-42325000D03*
%TD*%
%TO.P,C13,1*%
%TO.N,Net-(U5-1OUT)*%
X70025000Y-53125000D03*
%TO.P,C13,2*%
%TO.N,/Light Sensor/2IN+*%
X68125000Y-53125000D03*
%TD*%
%TO.P,C1,1*%
%TO.N,+5V*%
X70050000Y-63825000D03*
%TO.P,C1,2*%
%TO.N,GND*%
X68150000Y-63825000D03*
%TD*%
D22*
%TO.P,J15,*%
%TO.N,*%
X94700600Y-34988200D03*
X105700600Y-34988200D03*
D23*
%TO.P,J15,1,Pin_1*%
%TO.N,GND*%
X97700600Y-39988200D03*
D24*
%TO.P,J15,2,Pin_2*%
%TO.N,+5V*%
X102700600Y-39988200D03*
%TD*%
D25*
%TO.P,R1,1*%
%TO.N,+3.3V*%
X71058900Y-42525000D03*
%TO.P,R1,2*%
%TO.N,Net-(U2-EN)*%
X72883900Y-42525000D03*
%TD*%
D26*
%TO.P,D1,1,A1*%
%TO.N,GND*%
X71845000Y-55891200D03*
%TO.P,D1,2,A2*%
%TO.N,+3.3V*%
X71005000Y-55891200D03*
%TD*%
D15*
%TO.P,J5,1,Pin_1*%
%TO.N,GND*%
X63097400Y-66781200D03*
%TO.P,J5,2,Pin_2*%
%TO.N,/HALL4C*%
X63097400Y-67781200D03*
%TO.P,J5,3,Pin_3*%
%TO.N,/HALL4B*%
X63097400Y-68781200D03*
%TO.P,J5,4,Pin_4*%
%TO.N,/HALL4A*%
X63097400Y-69781200D03*
%TO.P,J5,5,Pin_5*%
%TO.N,+3.3V*%
X63097400Y-70781200D03*
D16*
%TO.P,J5,MP*%
%TO.N,N/C*%
X65622400Y-65481200D03*
X65622400Y-72081200D03*
%TD*%
D27*
%TO.P,J3,1,Pin_1*%
%TO.N,GND*%
X56475000Y-74625000D03*
%TO.P,J3,2,Pin_2*%
%TO.N,/HALL2C*%
X55475000Y-74625000D03*
%TO.P,J3,3,Pin_3*%
%TO.N,/HALL2B*%
X54475000Y-74625000D03*
%TO.P,J3,4,Pin_4*%
%TO.N,/HALL2A*%
X53475000Y-74625000D03*
%TO.P,J3,5,Pin_5*%
%TO.N,+3.3V*%
X52475000Y-74625000D03*
D28*
%TO.P,J3,MP*%
%TO.N,N/C*%
X57775000Y-77150000D03*
X51175000Y-77150000D03*
%TD*%
D29*
%TO.P,U4,1,AP_SDO/AP_AD0*%
%TO.N,/IMU/SDO*%
X51881700Y-45875000D03*
%TO.P,U4,2,RESV*%
%TO.N,unconnected-(U4-RESV-Pad2)*%
X51881700Y-45375000D03*
%TO.P,U4,3,RESV*%
%TO.N,unconnected-(U4-RESV-Pad3)*%
X51881700Y-44875000D03*
%TO.P,U4,4,INT1/INT*%
%TO.N,/IMU/INT1*%
X51881700Y-44375000D03*
D30*
%TO.P,U4,5,VDDIO*%
%TO.N,+3.3V*%
X51119200Y-44112500D03*
%TO.P,U4,6,GND*%
%TO.N,GND*%
X50619200Y-44112500D03*
%TO.P,U4,7,GND*%
X50119200Y-44112500D03*
D29*
%TO.P,U4,8,VDD*%
%TO.N,+3.3V*%
X49356700Y-44375000D03*
%TO.P,U4,9,INT2/FSYNC/CLKIN*%
%TO.N,/IMU/INT2*%
X49356700Y-44875000D03*
%TO.P,U4,10,RESV*%
%TO.N,unconnected-(U4-RESV-Pad10)*%
X49356700Y-45375000D03*
%TO.P,U4,11,RESV*%
%TO.N,unconnected-(U4-RESV-Pad11)*%
X49356700Y-45875000D03*
D30*
%TO.P,U4,12,AP_CS*%
%TO.N,/IMU/SCS*%
X50119200Y-46137500D03*
%TO.P,U4,13,AP_SCL/AP_SCLK*%
%TO.N,/IMU/SCLK*%
X50619200Y-46137500D03*
%TO.P,U4,14,AP_SDA/AP_SDIO/AP_SDI*%
%TO.N,/IMU/SDI*%
X51119200Y-46137500D03*
%TD*%
D31*
%TO.P,BT1,N1*%
%TO.N,/Power/CELL_1*%
X118925000Y-125286200D03*
%TO.P,BT1,N2*%
%TO.N,GND*%
X99815000Y-46626200D03*
%TO.P,BT1,P1*%
%TO.N,+BATT*%
X118925000Y-46626200D03*
%TO.P,BT1,P2*%
%TO.N,/Power/CELL_1*%
X99815000Y-125286200D03*
%TD*%
D32*
%TO.P,C9,1*%
%TO.N,+3.3V*%
X72135000Y-59320200D03*
%TO.P,C9,2*%
%TO.N,GND*%
X72135000Y-57420200D03*
%TD*%
D21*
%TO.P,C2,1*%
%TO.N,Net-(U2-EN)*%
X74425000Y-42525000D03*
%TO.P,C2,2*%
%TO.N,GND*%
X76325000Y-42525000D03*
%TD*%
D33*
%TO.P,U2,1,GND*%
%TO.N,GND*%
X42304000Y-65741000D03*
%TO.P,U2,2,3V3*%
%TO.N,+3.3V*%
X43574000Y-65741000D03*
%TO.P,U2,3,EN*%
%TO.N,Net-(U2-EN)*%
X44844000Y-65741000D03*
%TO.P,U2,4,GPIO4_HALL1A*%
%TO.N,/HALL1A*%
X46114000Y-65741000D03*
%TO.P,U2,5,GPIO5_HALL1B*%
%TO.N,/HALL1B*%
X47384000Y-65741000D03*
%TO.P,U2,6,GPIO6_HALL1C*%
%TO.N,/HALL1C*%
X48654000Y-65741000D03*
%TO.P,U2,7,GPIO7_HALL2A*%
%TO.N,/HALL2A*%
X49924000Y-65741000D03*
%TO.P,U2,8,GPIO15_HALL2B*%
%TO.N,/HALL2B*%
X51194000Y-65741000D03*
%TO.P,U2,9,GPIO16_HALL2C*%
%TO.N,/HALL2C*%
X52464000Y-65741000D03*
%TO.P,U2,10,GPIO17_HALL3A*%
%TO.N,/HALL3A*%
X53734000Y-65741000D03*
%TO.P,U2,11,GPIO18_HALL3B*%
%TO.N,/HALL3B*%
X55004000Y-65741000D03*
%TO.P,U2,12,GPIO8_HALL3C*%
%TO.N,/HALL3C*%
X56274000Y-65741000D03*
%TO.P,U2,13,GPIO19_USB_D-*%
%TO.N,/MCU/USB_N*%
X57544000Y-65741000D03*
%TO.P,U2,14,GPIO20_USB_D+*%
%TO.N,/MCU/USB_P*%
X58814000Y-65741000D03*
D34*
%TO.P,U2,15,GPIO3_HALL4A*%
%TO.N,/HALL4A*%
X60064000Y-63976000D03*
%TO.P,U2,16,GPIO46*%
%TO.N,Net-(J13-Pin_4)*%
X60064000Y-62706000D03*
%TO.P,U2,17,GPIO9_HALL4B*%
%TO.N,/HALL4B*%
X60064000Y-61436000D03*
%TO.P,U2,18,GPIO10_HALL4C*%
%TO.N,/HALL4C*%
X60064000Y-60166000D03*
%TO.P,U2,19,GPIO11_HALL5A*%
%TO.N,/HALL5A*%
X60064000Y-58896000D03*
%TO.P,U2,20,GPIO12_HALL5B*%
%TO.N,/HALL5B*%
X60064000Y-57626000D03*
%TO.P,U2,21,GPIO13_HALL5C*%
%TO.N,/HALL5C*%
X60064000Y-56356000D03*
%TO.P,U2,22,GPIO14_LIGHT_IN*%
%TO.N,/Light Sensor/2OUT*%
X60064000Y-55086000D03*
%TO.P,U2,23,GPIO21*%
%TO.N,Net-(D2-A)*%
X60064000Y-53816000D03*
%TO.P,U2,24,GPIO47/SPICLK_P/SUBSPICLK_P_DIFF*%
%TO.N,unconnected-(U2-GPIO47{slash}SPICLK_P{slash}SUBSPICLK_P_DIFF-Pad24)*%
X60064000Y-52546000D03*
%TO.P,U2,25,GPIO48/SPICLK_N/SUBSPICLK_N_DIFF*%
%TO.N,unconnected-(U2-GPIO48{slash}SPICLK_N{slash}SUBSPICLK_N_DIFF-Pad25)*%
X60064000Y-51276000D03*
%TO.P,U2,26,GPIO45_MOTOR5*%
%TO.N,/MOTOR5*%
X60064000Y-50006000D03*
D33*
%TO.P,U2,27,GPIO0/BOOT*%
%TO.N,Net-(U2-GPIO0{slash}BOOT)*%
X58814000Y-48241000D03*
%TO.P,U2,28,GPIO35_MOTOR4*%
%TO.N,/MOTOR4*%
X57544000Y-48241000D03*
%TO.P,U2,29,GPIO36_MOTOR3*%
%TO.N,/MOTOR3*%
X56274000Y-48241000D03*
%TO.P,U2,30,GPIO37_MOTOR2*%
%TO.N,/MOTOR2*%
X55004000Y-48241000D03*
%TO.P,U2,31,GPIO38_MOTOR1*%
%TO.N,/MOTOR1*%
X53734000Y-48241000D03*
%TO.P,U2,32,GPIO39_MTCK*%
%TO.N,/IMU/SCLK*%
X52464000Y-48241000D03*
%TO.P,U2,33,GPIO40_MTDO*%
%TO.N,/IMU/SDI*%
X51194000Y-48241000D03*
%TO.P,U2,34,GPIO41_MTDI*%
%TO.N,/IMU/SDO*%
X49924000Y-48241000D03*
%TO.P,U2,35,GPIO42_MTMS*%
%TO.N,/IMU/SCS*%
X48654000Y-48241000D03*
%TO.P,U2,36,U0RXD/GPIO44/CLK_OUT2*%
%TO.N,Net-(J13-Pin_3)*%
X47384000Y-48241000D03*
%TO.P,U2,37,U0TXD/GPIO43/CLK_OUT1*%
%TO.N,Net-(J13-Pin_2)*%
X46114000Y-48241000D03*
%TO.P,U2,38,GPIO2/TOUCH2/ADC1_CH1*%
%TO.N,/IMU/INT2*%
X44844000Y-48241000D03*
%TO.P,U2,39,GPIO1/TOUCH1/ADC1_CH0*%
%TO.N,/IMU/INT1*%
X43574000Y-48241000D03*
%TO.P,U2,40,GND*%
%TO.N,GND*%
X42304000Y-48241000D03*
D35*
%TO.P,U2,41,GND*%
X50024000Y-58491000D03*
%TD*%
D10*
%TO.P,D6,A*%
%TO.N,GND*%
X83600000Y-46675000D03*
D36*
%TO.P,D6,K*%
%TO.N,/Light Sensor/1IN-*%
X81400296Y-45405000D03*
%TD*%
D20*
%TO.P,D3,1,K*%
%TO.N,Net-(D3-K)*%
X74175000Y-57450000D03*
%TO.P,D3,2,A*%
%TO.N,+3.3V*%
X74175000Y-59325000D03*
%TD*%
D37*
%TO.P,RESET1,1,1*%
%TO.N,GND*%
X79425000Y-34015000D03*
X79425000Y-39775000D03*
%TO.P,RESET1,2,2*%
%TO.N,Net-(U2-EN)*%
X75425000Y-34015000D03*
X75425000Y-39775000D03*
%TD*%
D12*
%TO.P,C4,1*%
%TO.N,+3.3V*%
X69747400Y-58075000D03*
%TO.P,C4,2*%
%TO.N,GND*%
X67847400Y-58075000D03*
%TD*%
D13*
%TO.P,J8,1,Pin_1*%
%TO.N,+5V*%
X54025998Y-39446000D03*
D14*
%TO.P,J8,2,Pin_2*%
%TO.N,/MOTOR2*%
X54025998Y-36906000D03*
%TO.P,J8,3,Pin_3*%
%TO.N,GND*%
X54025998Y-34366000D03*
%TD*%
D13*
%TO.P,J1,1,Pin_1*%
%TO.N,+3.3V*%
X46675000Y-44845000D03*
D14*
%TO.P,J1,2,Pin_2*%
%TO.N,/IMU/SDO*%
X46675000Y-42305000D03*
%TO.P,J1,3,Pin_3*%
%TO.N,/IMU/SCLK*%
X46675000Y-39765000D03*
%TO.P,J1,4,Pin_4*%
%TO.N,GND*%
X46675000Y-37225000D03*
%TD*%
D13*
%TO.P,J13,1,Pin_1*%
%TO.N,+3.3V*%
X43075000Y-45295000D03*
D14*
%TO.P,J13,2,Pin_2*%
%TO.N,Net-(J13-Pin_2)*%
X43075000Y-42755000D03*
%TO.P,J13,3,Pin_3*%
%TO.N,Net-(J13-Pin_3)*%
X43075000Y-40215000D03*
%TO.P,J13,4,Pin_4*%
%TO.N,Net-(J13-Pin_4)*%
X43075000Y-37675000D03*
%TO.P,J13,5,Pin_5*%
%TO.N,GND*%
X43075000Y-35135000D03*
%TD*%
D27*
%TO.P,J2,1,Pin_1*%
%TO.N,GND*%
X47575000Y-74630000D03*
%TO.P,J2,2,Pin_2*%
%TO.N,/HALL1C*%
X46575000Y-74630000D03*
%TO.P,J2,3,Pin_3*%
%TO.N,/HALL1B*%
X45575000Y-74630000D03*
%TO.P,J2,4,Pin_4*%
%TO.N,/HALL1A*%
X44575000Y-74630000D03*
%TO.P,J2,5,Pin_5*%
%TO.N,+3.3V*%
X43575000Y-74630000D03*
D28*
%TO.P,J2,MP*%
%TO.N,N/C*%
X48875000Y-77155000D03*
X42275000Y-77155000D03*
%TD*%
D26*
%TO.P,D8,1,A1*%
%TO.N,GND*%
X74830800Y-64325000D03*
%TO.P,D8,2,A2*%
%TO.N,+5V*%
X73990800Y-64325000D03*
%TD*%
D13*
%TO.P,J7,1,Pin_1*%
%TO.N,+5V*%
X50292332Y-39446000D03*
D14*
%TO.P,J7,2,Pin_2*%
%TO.N,/MOTOR1*%
X50292332Y-36906000D03*
%TO.P,J7,3,Pin_3*%
%TO.N,GND*%
X50292332Y-34366000D03*
%TD*%
D38*
%TO.P,R5,1*%
%TO.N,/Light Sensor/2OUT*%
X64525000Y-50037500D03*
%TO.P,R5,2*%
%TO.N,/Light Sensor/2IN-*%
X64525000Y-48212500D03*
%TD*%
%TO.P,R2,1*%
%TO.N,Net-(D2-K)*%
X62475000Y-50071300D03*
%TO.P,R2,2*%
%TO.N,GND*%
X62475000Y-48246300D03*
%TD*%
D10*
%TO.P,D4,A*%
%TO.N,GND*%
X76775000Y-48092500D03*
D39*
%TO.P,D4,K*%
%TO.N,/Light Sensor/1IN-*%
X76775000Y-50632500D03*
%TD*%
D40*
%TO.P,R6,1*%
%TO.N,/Light Sensor/1IN-*%
X78862500Y-53850000D03*
%TO.P,R6,2*%
%TO.N,Net-(U5-1OUT)*%
X77037500Y-53850000D03*
%TD*%
D27*
%TO.P,J4,1,Pin_1*%
%TO.N,GND*%
X65375000Y-74625000D03*
%TO.P,J4,2,Pin_2*%
%TO.N,/HALL3C*%
X64375000Y-74625000D03*
%TO.P,J4,3,Pin_3*%
%TO.N,/HALL3B*%
X63375000Y-74625000D03*
%TO.P,J4,4,Pin_4*%
%TO.N,/HALL3A*%
X62375000Y-74625000D03*
%TO.P,J4,5,Pin_5*%
%TO.N,+3.3V*%
X61375000Y-74625000D03*
D28*
%TO.P,J4,MP*%
%TO.N,N/C*%
X66675000Y-77150000D03*
X60075000Y-77150000D03*
%TD*%
D37*
%TO.P,BOOT1,1,1*%
%TO.N,Net-(U2-GPIO0{slash}BOOT)*%
X68681800Y-39796400D03*
X68681800Y-34036400D03*
%TO.P,BOOT1,2,2*%
%TO.N,GND*%
X72681800Y-39796400D03*
X72681800Y-34036400D03*
%TD*%
D41*
%TO.P,C10,1*%
%TO.N,+3.3V*%
X72130000Y-60961000D03*
%TO.P,C10,2*%
%TO.N,GND*%
X72130000Y-62861000D03*
%TD*%
D12*
%TO.P,C12,1*%
%TO.N,/Light Sensor/1IN-*%
X78900000Y-55850000D03*
%TO.P,C12,2*%
%TO.N,Net-(U5-1OUT)*%
X77000000Y-55850000D03*
%TD*%
D42*
%TO.P,U5,1,1OUT*%
%TO.N,Net-(U5-1OUT)*%
X71720000Y-51205000D03*
%TO.P,U5,2,1IN-*%
%TO.N,/Light Sensor/1IN-*%
X71720000Y-49935000D03*
%TO.P,U5,3,1IN+*%
%TO.N,GND*%
X71720000Y-48665000D03*
%TO.P,U5,4,GND*%
X71720000Y-47395000D03*
%TO.P,U5,5,2IN+*%
%TO.N,/Light Sensor/2IN+*%
X66780000Y-47395000D03*
%TO.P,U5,6,2IN-*%
%TO.N,/Light Sensor/2IN-*%
X66780000Y-48665000D03*
%TO.P,U5,7,2OUT*%
%TO.N,/Light Sensor/2OUT*%
X66780000Y-49935000D03*
%TO.P,U5,8,VDD+*%
%TO.N,+3.3V*%
X66780000Y-51205000D03*
%TD*%
D40*
%TO.P,R7,1*%
%TO.N,GND*%
X69437500Y-44725000D03*
%TO.P,R7,2*%
%TO.N,/Light Sensor/2IN+*%
X67612500Y-44725000D03*
%TD*%
D38*
%TO.P,R3,1*%
%TO.N,Net-(D3-K)*%
X74200400Y-55817900D03*
%TO.P,R3,2*%
%TO.N,GND*%
X74200400Y-53992900D03*
%TD*%
D22*
%TO.P,J12,*%
%TO.N,*%
X69400000Y-77025000D03*
X80400000Y-77025000D03*
D23*
%TO.P,J12,1,Pin_1*%
%TO.N,GND*%
X77400000Y-67025000D03*
D24*
%TO.P,J12,2,Pin_2*%
%TO.N,+5V*%
X72400000Y-67025000D03*
%TD*%
D13*
%TO.P,J14,1,Pin_1*%
%TO.N,Net-(J14-Pin_1)*%
X130579174Y-57321100D03*
D14*
%TO.P,J14,2,Pin_2*%
%TO.N,Net-(J14-Pin_2)*%
X130579174Y-59861100D03*
%TO.P,J14,3,Pin_3*%
%TO.N,Net-(J14-Pin_3)*%
X130579174Y-62401100D03*
%TO.P,J14,4,Pin_4*%
%TO.N,Net-(J14-Pin_4)*%
X130579174Y-64941100D03*
%TO.P,J14,5,Pin_5*%
%TO.N,GND*%
X130579174Y-67481100D03*
%TD*%
D43*
%TO.N,GND*%
X98529000Y-78753200D03*
X90909000Y-104153200D03*
X113769000Y-111773200D03*
D44*
X75789000Y-70525000D03*
D43*
X88369000Y-106693200D03*
X93449000Y-50813200D03*
X98529000Y-96533200D03*
X111229000Y-83833200D03*
D44*
X51789000Y-51325000D03*
X78989000Y-43325000D03*
X48589000Y-64125000D03*
X82189000Y-65725000D03*
X78989000Y-70525000D03*
X77389000Y-75325000D03*
D43*
X68900000Y-49950000D03*
X126469000Y-104153200D03*
D44*
X54989000Y-60925000D03*
D43*
X103609000Y-99073200D03*
X106149000Y-78753200D03*
D44*
X70989000Y-36925000D03*
D43*
X113769000Y-35573200D03*
X50710000Y-59820000D03*
X116309000Y-83833200D03*
X103609000Y-78753200D03*
X131549000Y-78753200D03*
X126469000Y-86373200D03*
D44*
X77389000Y-44925000D03*
D43*
X51420000Y-58970000D03*
X88369000Y-119393200D03*
X121389000Y-111773200D03*
X106149000Y-111773200D03*
X98529000Y-111773200D03*
X101069000Y-35573200D03*
D44*
X56589000Y-52925000D03*
X48589000Y-54525000D03*
D43*
X126469000Y-71133200D03*
X121389000Y-76213200D03*
X65925000Y-60325000D03*
X126469000Y-78753200D03*
D44*
X83789000Y-36925000D03*
D43*
X95989000Y-91453200D03*
X93449000Y-119393200D03*
X111229000Y-38113200D03*
X88369000Y-76213200D03*
X129009000Y-101613200D03*
X103609000Y-93993200D03*
X90909000Y-86373200D03*
X131549000Y-121933200D03*
D44*
X80589000Y-56125000D03*
X53389000Y-52925000D03*
D43*
X131549000Y-53353200D03*
X101069000Y-101613200D03*
X109200000Y-47950000D03*
X88369000Y-114313200D03*
X108689000Y-43193200D03*
X88369000Y-43193200D03*
D44*
X82189000Y-59325000D03*
D43*
X90909000Y-66053200D03*
X129009000Y-71133200D03*
X106149000Y-68593200D03*
D44*
X82189000Y-75325000D03*
D43*
X116309000Y-104153200D03*
D44*
X70989000Y-72125000D03*
X75789000Y-46525000D03*
D43*
X51520000Y-57020000D03*
D44*
X77389000Y-72125000D03*
X54989000Y-59325000D03*
X58189000Y-57725000D03*
D43*
X41925000Y-60525000D03*
X129009000Y-81293200D03*
X48925000Y-74075000D03*
X129009000Y-127013200D03*
X98529000Y-81293200D03*
D44*
X78989000Y-60925000D03*
D43*
X88369000Y-91453200D03*
X121400000Y-55750000D03*
X126469000Y-121933200D03*
D45*
X103175000Y-57284999D03*
D43*
X95989000Y-78753200D03*
X50090000Y-57030000D03*
D44*
X80589000Y-41725000D03*
X69389000Y-73725000D03*
D43*
X90909000Y-111773200D03*
X101069000Y-81293200D03*
X95989000Y-116853200D03*
X88369000Y-48273200D03*
D44*
X78989000Y-76925000D03*
X66189000Y-54525000D03*
X53389000Y-49725000D03*
D43*
X129009000Y-106693200D03*
X108689000Y-104153200D03*
X126469000Y-83833200D03*
X109075000Y-45600000D03*
D44*
X45389000Y-51325000D03*
D43*
X95989000Y-106693200D03*
X95989000Y-101613200D03*
D44*
X83789000Y-40125000D03*
X75789000Y-75325000D03*
D43*
X129009000Y-91453200D03*
X95989000Y-73673200D03*
X88369000Y-73673200D03*
X58725000Y-45050000D03*
X106149000Y-104153200D03*
D44*
X58189000Y-54525000D03*
D43*
X123929000Y-101613200D03*
X129009000Y-38113200D03*
X126469000Y-40653200D03*
X66075000Y-43925000D03*
X98529000Y-83833200D03*
D44*
X56589000Y-60925000D03*
D43*
X129009000Y-124473200D03*
X129009000Y-104153200D03*
X131549000Y-88913200D03*
X108689000Y-66053200D03*
X88369000Y-71133200D03*
D44*
X82189000Y-60925000D03*
D43*
X98529000Y-93993200D03*
X88369000Y-109233200D03*
D44*
X69389000Y-75325000D03*
D43*
X129009000Y-93993200D03*
X126469000Y-91453200D03*
X88369000Y-93993200D03*
X98529000Y-35573200D03*
X93449000Y-76213200D03*
D44*
X83789000Y-38525000D03*
D43*
X116309000Y-68593200D03*
X93449000Y-38113200D03*
X103609000Y-111773200D03*
X95989000Y-99073200D03*
X116309000Y-76213200D03*
X90909000Y-50813200D03*
X103609000Y-76213200D03*
X108689000Y-99073200D03*
D44*
X78989000Y-73725000D03*
D43*
X123929000Y-78753200D03*
X121400000Y-54775000D03*
X111229000Y-91453200D03*
X113769000Y-68593200D03*
X108689000Y-35573200D03*
D44*
X46989000Y-59325000D03*
D43*
X126469000Y-116853200D03*
D44*
X72589000Y-72125000D03*
D43*
X88369000Y-58433200D03*
X116309000Y-109233200D03*
D44*
X70989000Y-70525000D03*
D43*
X88369000Y-63513200D03*
X131549000Y-40653200D03*
D44*
X80589000Y-36925000D03*
D43*
X131549000Y-109233200D03*
X48530000Y-58990000D03*
X123929000Y-81293200D03*
X113769000Y-109233200D03*
X93449000Y-68593200D03*
D44*
X59789000Y-36925000D03*
D43*
X88369000Y-60973200D03*
X131549000Y-91453200D03*
X88369000Y-124473200D03*
X45325000Y-56325000D03*
X113769000Y-99073200D03*
X129009000Y-88913200D03*
X111229000Y-71133200D03*
X90909000Y-71133200D03*
X123929000Y-76213200D03*
X101069000Y-91453200D03*
D44*
X56589000Y-49725000D03*
D43*
X93449000Y-88913200D03*
X103609000Y-106693200D03*
D44*
X78989000Y-44925000D03*
D43*
X90909000Y-106693200D03*
D44*
X56589000Y-56125000D03*
D43*
X116309000Y-106693200D03*
X95989000Y-68593200D03*
X131549000Y-38113200D03*
X93449000Y-99073200D03*
D44*
X56589000Y-64125000D03*
D45*
X104050000Y-56600000D03*
D43*
X121389000Y-71133200D03*
X101069000Y-73673200D03*
X111229000Y-63513200D03*
D44*
X46989000Y-76925000D03*
D43*
X93449000Y-101613200D03*
D44*
X50189000Y-49725000D03*
X50189000Y-51325000D03*
D43*
X49825000Y-42325000D03*
X106149000Y-71133200D03*
X121389000Y-78753200D03*
D44*
X42189000Y-75325000D03*
D43*
X129009000Y-83833200D03*
X118849000Y-68593200D03*
X95989000Y-93993200D03*
X121389000Y-91453200D03*
X116309000Y-35573200D03*
D44*
X75789000Y-76925000D03*
D43*
X121389000Y-106693200D03*
X88369000Y-45733200D03*
X123929000Y-109233200D03*
X110300000Y-49675000D03*
D44*
X82189000Y-36925000D03*
D43*
X108689000Y-109233200D03*
D44*
X82189000Y-48125000D03*
D43*
X101069000Y-71133200D03*
D44*
X78989000Y-64125000D03*
D43*
X98529000Y-88913200D03*
X88369000Y-68593200D03*
X111229000Y-116853200D03*
X95989000Y-88913200D03*
D44*
X72589000Y-36925000D03*
D43*
X103609000Y-81293200D03*
D44*
X75789000Y-73725000D03*
D43*
X106149000Y-91453200D03*
X90909000Y-88913200D03*
X123929000Y-106693200D03*
X113769000Y-66053200D03*
D44*
X80589000Y-38525000D03*
X83789000Y-56125000D03*
D43*
X116309000Y-86373200D03*
X98529000Y-73673200D03*
X51275000Y-42325000D03*
D44*
X83789000Y-62525000D03*
D43*
X90909000Y-68593200D03*
X126469000Y-119393200D03*
X93449000Y-73673200D03*
X93449000Y-106693200D03*
X121389000Y-109233200D03*
D44*
X82189000Y-73725000D03*
X80589000Y-62525000D03*
D43*
X90909000Y-73673200D03*
X101069000Y-68593200D03*
D44*
X43789000Y-76925000D03*
D43*
X126469000Y-88913200D03*
D44*
X83789000Y-54525000D03*
D43*
X93449000Y-63513200D03*
X93449000Y-60973200D03*
X95989000Y-104153200D03*
X123929000Y-35573200D03*
D44*
X83789000Y-72125000D03*
D43*
X68700000Y-46550000D03*
D44*
X62989000Y-56125000D03*
D43*
X101069000Y-78753200D03*
X121389000Y-99073200D03*
X95989000Y-66053200D03*
X116309000Y-91453200D03*
X93449000Y-114313200D03*
X90909000Y-40653200D03*
X131549000Y-99073200D03*
D44*
X77389000Y-46525000D03*
X83789000Y-48125000D03*
D43*
X101069000Y-88913200D03*
D44*
X85389000Y-36925000D03*
D43*
X131549000Y-35573200D03*
X121389000Y-104153200D03*
D44*
X56589000Y-51325000D03*
D45*
X103175000Y-57959999D03*
D44*
X78989000Y-49725000D03*
X74189000Y-33725000D03*
X53389000Y-60925000D03*
D43*
X131549000Y-86373200D03*
X129009000Y-96533200D03*
D44*
X80589000Y-70525000D03*
X75789000Y-62525000D03*
D43*
X123929000Y-111773200D03*
X93449000Y-55893200D03*
X129009000Y-119393200D03*
D44*
X56589000Y-54525000D03*
D43*
X88369000Y-99073200D03*
X90909000Y-124473200D03*
D44*
X67789000Y-36925000D03*
X80589000Y-64125000D03*
X77389000Y-35325000D03*
D43*
X88369000Y-88913200D03*
D44*
X74189000Y-36925000D03*
D43*
X121389000Y-81293200D03*
D44*
X75789000Y-54525000D03*
D43*
X106149000Y-88913200D03*
X116309000Y-111773200D03*
X90909000Y-116853200D03*
X129009000Y-116853200D03*
X106149000Y-116853200D03*
D44*
X59789000Y-35325000D03*
D43*
X90909000Y-127013200D03*
X113769000Y-106693200D03*
X116309000Y-73673200D03*
X95989000Y-71133200D03*
D44*
X82189000Y-56125000D03*
X82189000Y-64125000D03*
D45*
X102225002Y-56609999D03*
D43*
X101069000Y-96533200D03*
X101069000Y-104153200D03*
X103609000Y-109233200D03*
X108400000Y-49575000D03*
D44*
X83789000Y-59325000D03*
D43*
X103609000Y-73673200D03*
X90909000Y-91453200D03*
D44*
X82189000Y-35325000D03*
X83789000Y-35325000D03*
X74189000Y-35325000D03*
X77389000Y-33725000D03*
X78989000Y-72125000D03*
X80589000Y-35325000D03*
D43*
X106149000Y-93993200D03*
X108689000Y-116853200D03*
X129009000Y-53353200D03*
X126469000Y-35573200D03*
X116309000Y-114313200D03*
X66175000Y-58325000D03*
D44*
X53389000Y-54525000D03*
D43*
X108689000Y-101613200D03*
D44*
X46989000Y-54525000D03*
X78989000Y-46525000D03*
D43*
X95989000Y-114313200D03*
X111229000Y-96533200D03*
X126469000Y-93993200D03*
D44*
X77389000Y-70525000D03*
X83789000Y-73725000D03*
X70989000Y-75325000D03*
X82189000Y-57725000D03*
D43*
X90909000Y-43193200D03*
X113769000Y-81293200D03*
X126469000Y-109233200D03*
X131549000Y-45733200D03*
X109625000Y-50875000D03*
X88369000Y-50813200D03*
X95989000Y-76213200D03*
D44*
X80589000Y-75325000D03*
D43*
X93449000Y-86373200D03*
D44*
X78989000Y-62525000D03*
D43*
X88369000Y-55893200D03*
X90909000Y-38113200D03*
D44*
X70989000Y-73725000D03*
X58189000Y-59325000D03*
X72589000Y-76925000D03*
D43*
X131549000Y-104153200D03*
X111229000Y-109233200D03*
D44*
X74189000Y-76925000D03*
D43*
X126469000Y-43193200D03*
X123929000Y-99073200D03*
X101069000Y-99073200D03*
D44*
X58189000Y-51325000D03*
D43*
X101069000Y-93993200D03*
X116309000Y-96533200D03*
X123929000Y-38113200D03*
X95989000Y-111773200D03*
X106149000Y-38113200D03*
X108689000Y-83833200D03*
D44*
X83789000Y-65725000D03*
D43*
X131549000Y-48273200D03*
X116309000Y-116853200D03*
D44*
X53389000Y-51325000D03*
D43*
X106149000Y-81293200D03*
D44*
X45389000Y-64125000D03*
D43*
X126469000Y-99073200D03*
X131549000Y-116853200D03*
D44*
X58189000Y-52925000D03*
D43*
X113769000Y-38113200D03*
D44*
X83789000Y-70525000D03*
X77389000Y-62525000D03*
D43*
X111229000Y-99073200D03*
X108689000Y-81293200D03*
X90909000Y-114313200D03*
D45*
X104050000Y-57950000D03*
D44*
X80589000Y-72125000D03*
D43*
X113769000Y-93993200D03*
D44*
X85389000Y-38525000D03*
X45389000Y-52925000D03*
D43*
X131549000Y-83833200D03*
D44*
X59789000Y-33725000D03*
D43*
X57675000Y-74575000D03*
X131549000Y-127013200D03*
X116309000Y-99073200D03*
D44*
X85389000Y-40125000D03*
D43*
X129009000Y-99073200D03*
X129009000Y-40653200D03*
X48630000Y-57040000D03*
X61825000Y-46750000D03*
X93449000Y-104153200D03*
D44*
X80589000Y-57725000D03*
X70989000Y-33725000D03*
D43*
X98529000Y-109233200D03*
D44*
X80589000Y-43325000D03*
X75789000Y-64125000D03*
D43*
X67675000Y-61225000D03*
D44*
X67789000Y-72125000D03*
D43*
X116309000Y-71133200D03*
X68950000Y-48200000D03*
X131549000Y-119393200D03*
X123929000Y-83833200D03*
D44*
X53389000Y-57725000D03*
X54989000Y-64125000D03*
D43*
X129009000Y-76213200D03*
X121389000Y-83833200D03*
D44*
X67789000Y-73725000D03*
D43*
X121389000Y-116853200D03*
D44*
X82189000Y-72125000D03*
X75789000Y-56125000D03*
D43*
X131549000Y-106693200D03*
X110525000Y-47725000D03*
D44*
X50189000Y-64125000D03*
D43*
X93449000Y-116853200D03*
X116309000Y-93993200D03*
X41925000Y-56325000D03*
D44*
X80589000Y-67325000D03*
X51789000Y-54525000D03*
D43*
X131549000Y-50813200D03*
X93449000Y-109233200D03*
D44*
X85389000Y-41725000D03*
D43*
X101069000Y-111773200D03*
D44*
X77389000Y-59325000D03*
D43*
X62500000Y-66125000D03*
X98529000Y-76213200D03*
D44*
X50189000Y-52925000D03*
D43*
X123929000Y-40653200D03*
X129009000Y-50813200D03*
D44*
X85389000Y-33725000D03*
X62989000Y-35325000D03*
D43*
X131549000Y-93993200D03*
X98529000Y-104153200D03*
X98529000Y-91453200D03*
X93449000Y-124473200D03*
D44*
X78989000Y-59325000D03*
X70989000Y-76925000D03*
D43*
X88369000Y-111773200D03*
D44*
X83789000Y-68925000D03*
D43*
X121389000Y-86373200D03*
X93449000Y-48273200D03*
X101069000Y-83833200D03*
D44*
X54989000Y-57725000D03*
D43*
X93449000Y-40653200D03*
X118849000Y-35573200D03*
D44*
X77389000Y-36925000D03*
D43*
X93449000Y-81293200D03*
D44*
X51789000Y-52925000D03*
D43*
X126469000Y-38113200D03*
D44*
X72589000Y-75325000D03*
X54989000Y-52925000D03*
D43*
X108689000Y-68593200D03*
D44*
X54989000Y-54525000D03*
D43*
X113769000Y-76213200D03*
X93449000Y-78753200D03*
X123929000Y-91453200D03*
X98529000Y-86373200D03*
X111229000Y-93993200D03*
X98529000Y-114313200D03*
X118425000Y-56875000D03*
X93449000Y-53353200D03*
X106149000Y-101613200D03*
X101069000Y-106693200D03*
X121389000Y-73673200D03*
X62800000Y-45750000D03*
X68275000Y-68850000D03*
X108689000Y-73673200D03*
D44*
X85389000Y-76925000D03*
D43*
X108689000Y-38113200D03*
D44*
X83789000Y-44925000D03*
D43*
X113769000Y-86373200D03*
D44*
X53389000Y-56125000D03*
D43*
X98529000Y-101613200D03*
X108689000Y-86373200D03*
X90909000Y-53353200D03*
X88369000Y-127013200D03*
X123929000Y-104153200D03*
X88369000Y-38113200D03*
D44*
X83789000Y-60925000D03*
D43*
X103609000Y-68593200D03*
X90909000Y-109233200D03*
X95989000Y-53353200D03*
D44*
X59789000Y-43325000D03*
D43*
X111229000Y-73673200D03*
X95989000Y-96533200D03*
X126469000Y-73673200D03*
D44*
X53389000Y-59325000D03*
D43*
X88369000Y-35573200D03*
X113769000Y-88913200D03*
X113769000Y-96533200D03*
D44*
X80589000Y-33725000D03*
D43*
X95989000Y-109233200D03*
X113769000Y-114313200D03*
D44*
X80589000Y-65725000D03*
D43*
X103609000Y-88913200D03*
X98529000Y-99073200D03*
X106149000Y-99073200D03*
X90909000Y-63513200D03*
X129009000Y-121933200D03*
X88369000Y-83833200D03*
D44*
X46989000Y-64125000D03*
D43*
X45325000Y-60525000D03*
D44*
X82189000Y-67325000D03*
D43*
X126469000Y-124473200D03*
D44*
X46989000Y-52925000D03*
D43*
X106149000Y-114313200D03*
X68300000Y-65550000D03*
D44*
X75789000Y-72125000D03*
X54989000Y-56125000D03*
D43*
X93449000Y-127013200D03*
X111229000Y-101613200D03*
D44*
X46989000Y-57725000D03*
D43*
X93449000Y-93993200D03*
X93449000Y-96533200D03*
X42250000Y-69925000D03*
X108689000Y-96533200D03*
D44*
X82189000Y-43325000D03*
D43*
X98529000Y-106693200D03*
X101069000Y-114313200D03*
D44*
X46989000Y-60925000D03*
D43*
X131549000Y-101613200D03*
D44*
X61389000Y-76925000D03*
D43*
X123929000Y-86373200D03*
X111229000Y-81293200D03*
X111229000Y-106693200D03*
X103609000Y-83833200D03*
X88369000Y-101613200D03*
D44*
X53389000Y-64125000D03*
D43*
X98529000Y-116853200D03*
D44*
X82189000Y-62525000D03*
D43*
X93449000Y-66053200D03*
X116309000Y-101613200D03*
D44*
X72589000Y-70525000D03*
D43*
X103609000Y-91453200D03*
X93449000Y-71133200D03*
X131549000Y-124473200D03*
D44*
X83789000Y-49725000D03*
D43*
X41925000Y-58525000D03*
D44*
X77389000Y-38525000D03*
D43*
X98529000Y-71133200D03*
X126469000Y-76213200D03*
X90909000Y-76213200D03*
D44*
X56589000Y-57725000D03*
D43*
X48975000Y-72675000D03*
X108689000Y-106693200D03*
X121389000Y-114313200D03*
D44*
X82189000Y-68925000D03*
X67789000Y-75325000D03*
X80589000Y-60925000D03*
D43*
X111229000Y-35573200D03*
X108689000Y-93993200D03*
X131549000Y-81293200D03*
X90909000Y-35573200D03*
X106149000Y-83833200D03*
X41925000Y-62925000D03*
D44*
X54989000Y-76925000D03*
D43*
X103609000Y-101613200D03*
X123929000Y-114313200D03*
X123929000Y-73673200D03*
D44*
X82189000Y-33725000D03*
D43*
X111229000Y-66053200D03*
X116309000Y-38113200D03*
X113769000Y-83833200D03*
X121389000Y-35573200D03*
X116309000Y-88913200D03*
D45*
X103175000Y-56609999D03*
D44*
X78989000Y-57725000D03*
X74189000Y-73725000D03*
D43*
X113769000Y-101613200D03*
X106149000Y-109233200D03*
X98529000Y-68593200D03*
X59175000Y-74575000D03*
X50810000Y-57870000D03*
D44*
X51789000Y-35325000D03*
D43*
X113769000Y-71133200D03*
X121389000Y-96533200D03*
D44*
X83789000Y-67325000D03*
X74189000Y-70525000D03*
D43*
X119350000Y-56875000D03*
X126469000Y-106693200D03*
X103609000Y-96533200D03*
X108689000Y-78753200D03*
X90909000Y-119393200D03*
D44*
X42189000Y-73725000D03*
D43*
X121389000Y-38113200D03*
X90909000Y-99073200D03*
D44*
X77389000Y-64125000D03*
D43*
X123929000Y-93993200D03*
X129009000Y-78753200D03*
X121389000Y-88913200D03*
X95989000Y-83833200D03*
X88369000Y-121933200D03*
X68300000Y-67100000D03*
X129009000Y-86373200D03*
X49300000Y-59860000D03*
D44*
X51789000Y-49725000D03*
D43*
X90909000Y-96533200D03*
D44*
X85389000Y-35325000D03*
D43*
X123929000Y-88913200D03*
D44*
X48589000Y-52925000D03*
D43*
X101069000Y-109233200D03*
X111229000Y-78753200D03*
X42250000Y-71725000D03*
X95989000Y-81293200D03*
D44*
X77389000Y-76925000D03*
D43*
X126469000Y-127013200D03*
X51599098Y-70143694D03*
D44*
X70989000Y-35325000D03*
D43*
X108689000Y-71133200D03*
X65675000Y-73325000D03*
D45*
X104050000Y-57275000D03*
D43*
X41550000Y-64200000D03*
X129009000Y-35573200D03*
D44*
X80589000Y-73725000D03*
D43*
X116309000Y-81293200D03*
D44*
X58189000Y-56125000D03*
D43*
X50501147Y-43309440D03*
X101069000Y-76213200D03*
X113769000Y-91453200D03*
D44*
X75789000Y-44925000D03*
D43*
X111229000Y-76213200D03*
X113769000Y-78753200D03*
X131549000Y-111773200D03*
X88369000Y-81293200D03*
D44*
X78989000Y-75325000D03*
X48589000Y-51325000D03*
X69389000Y-72125000D03*
X78989000Y-36925000D03*
D43*
X113769000Y-116853200D03*
X90909000Y-48273200D03*
X108689000Y-91453200D03*
X126469000Y-101613200D03*
D44*
X82189000Y-70525000D03*
D43*
X101069000Y-116853200D03*
X129009000Y-73673200D03*
X103609000Y-116853200D03*
X121389000Y-93993200D03*
D44*
X83789000Y-64125000D03*
D43*
X111229000Y-86373200D03*
X116309000Y-78753200D03*
X49990000Y-58980000D03*
D44*
X83789000Y-57725000D03*
D43*
X103609000Y-86373200D03*
D44*
X54989000Y-51325000D03*
D43*
X93449000Y-83833200D03*
X113769000Y-104153200D03*
X106149000Y-73673200D03*
X93449000Y-91453200D03*
X88369000Y-96533200D03*
X118849000Y-38113200D03*
X111229000Y-68593200D03*
X93449000Y-111773200D03*
X123929000Y-71133200D03*
X131549000Y-96533200D03*
D44*
X51789000Y-64125000D03*
D43*
X106149000Y-106693200D03*
X93449000Y-43193200D03*
X106149000Y-96533200D03*
X90909000Y-60973200D03*
X49400000Y-57910000D03*
X103609000Y-104153200D03*
X111229000Y-88913200D03*
D44*
X77389000Y-60925000D03*
D43*
X108689000Y-76213200D03*
D44*
X45389000Y-38525000D03*
D43*
X88369000Y-78753200D03*
X131549000Y-114313200D03*
D44*
X80589000Y-68925000D03*
X45389000Y-76925000D03*
D43*
X129009000Y-43193200D03*
X90909000Y-78753200D03*
X90909000Y-81293200D03*
D44*
X74189000Y-75325000D03*
D43*
X103609000Y-71133200D03*
X88369000Y-116853200D03*
D44*
X77389000Y-73725000D03*
D43*
X126469000Y-96533200D03*
X88369000Y-53353200D03*
X111229000Y-104153200D03*
X88369000Y-104153200D03*
X101069000Y-86373200D03*
X131549000Y-76213200D03*
X123929000Y-116853200D03*
X126469000Y-81293200D03*
D44*
X82189000Y-38525000D03*
X50189000Y-54525000D03*
D43*
X108689000Y-88913200D03*
X123929000Y-96533200D03*
X93449000Y-45733200D03*
D44*
X45389000Y-54525000D03*
D43*
X69225000Y-61400000D03*
X131549000Y-73673200D03*
D44*
X72589000Y-73725000D03*
D43*
X88369000Y-86373200D03*
X88369000Y-40653200D03*
X106149000Y-86373200D03*
D44*
X74189000Y-72125000D03*
X58189000Y-60925000D03*
D43*
X113769000Y-73673200D03*
X88369000Y-66053200D03*
X121389000Y-101613200D03*
X95989000Y-86373200D03*
X90909000Y-101613200D03*
D44*
X58189000Y-49725000D03*
X54989000Y-49725000D03*
X78989000Y-48125000D03*
X58189000Y-64125000D03*
D43*
X129009000Y-109233200D03*
X90909000Y-45733200D03*
D44*
X83789000Y-33725000D03*
D43*
X103609000Y-114313200D03*
X90909000Y-83833200D03*
D44*
X46989000Y-56125000D03*
D43*
X106149000Y-76213200D03*
X103609000Y-35573200D03*
D44*
X80589000Y-59325000D03*
D43*
X131549000Y-71133200D03*
X131549000Y-43193200D03*
X90909000Y-93993200D03*
D44*
X56589000Y-59325000D03*
D43*
X45325000Y-58525000D03*
%TO.N,Net-(U2-GPIO0{slash}BOOT)*%
X65225000Y-42525000D03*
X62325000Y-43725000D03*
%TO.N,+5V*%
X104863379Y-49937012D03*
X101275000Y-59775000D03*
X71225000Y-64225000D03*
X72175000Y-64225000D03*
X73125000Y-64225000D03*
%TO.N,Net-(U2-EN)*%
X77125000Y-40125000D03*
X45325000Y-71525000D03*
%TO.N,+3.3V*%
X41525000Y-51525000D03*
%TO.N,+BATT*%
X113300600Y-49788200D03*
X112300600Y-50788200D03*
X114300600Y-47788200D03*
X96700600Y-58988200D03*
X114300600Y-48788200D03*
X113300600Y-47788200D03*
X113300600Y-46788200D03*
X113300600Y-48788200D03*
X112300600Y-47788200D03*
X114300600Y-46788200D03*
X112300600Y-46788200D03*
X114810000Y-59710000D03*
X97700600Y-57988200D03*
X113900000Y-61110000D03*
X112300600Y-49788200D03*
X114300600Y-49788200D03*
X109090000Y-55410000D03*
X115390000Y-54720000D03*
X114300600Y-50788200D03*
X117110000Y-61250000D03*
X113300600Y-50788200D03*
X113120000Y-54890000D03*
X105675000Y-57525000D03*
X114590000Y-57390000D03*
X97700600Y-58988200D03*
X112300600Y-48788200D03*
X98700600Y-57988200D03*
X111150000Y-56610000D03*
X96700600Y-57988200D03*
X112040000Y-57590000D03*
D44*
%TO.N,/IMU/SCLK*%
X52325000Y-47125000D03*
X50094202Y-45352873D03*
%TO.N,/IMU/SDO*%
X51925000Y-46325000D03*
X51057538Y-46942464D03*
D43*
%TO.N,Net-(J13-Pin_3)*%
X47225000Y-49925000D03*
%TO.N,Net-(J13-Pin_4)*%
X42475000Y-53950000D03*
%TO.N,Net-(J13-Pin_2)*%
X45825000Y-49625000D03*
%TO.N,/MCU/USB_N*%
X57600000Y-67575000D03*
%TO.N,/MCU/USB_P*%
X58650000Y-67575000D03*
%TO.N,/Power/CELL_1*%
X113904600Y-119448200D03*
X124064600Y-119448200D03*
X106284600Y-121988200D03*
X121524600Y-119448200D03*
X113904600Y-127068200D03*
X106284600Y-127068200D03*
X108824600Y-119448200D03*
X124064600Y-124528200D03*
X98664600Y-119448200D03*
X113904600Y-124528200D03*
X113904600Y-121988200D03*
X111364600Y-119448200D03*
X108824600Y-121988200D03*
X103744600Y-124528200D03*
X103744600Y-119448200D03*
D44*
X124700600Y-64788200D03*
D43*
X106284600Y-124528200D03*
X103744600Y-121988200D03*
X108824600Y-124528200D03*
X106284600Y-119448200D03*
X116444600Y-119448200D03*
X96124600Y-119448200D03*
X103744600Y-127068200D03*
X111364600Y-124528200D03*
X111364600Y-121988200D03*
X111364600Y-127068200D03*
X124064600Y-121988200D03*
X108824600Y-127068200D03*
X124064600Y-127068200D03*
X101204600Y-119448200D03*
D44*
%TO.N,/IMU/INT1*%
X52525000Y-44325000D03*
X44083400Y-46629200D03*
D43*
%TO.N,Net-(U7-VCC)*%
X106109849Y-54719849D03*
X106602454Y-59823409D03*
D44*
%TO.N,Net-(U6-BTST)*%
X121875000Y-62075000D03*
X117625174Y-55339900D03*
%TO.N,Net-(U6-STAT)*%
X126210374Y-57092500D03*
X126184974Y-58311700D03*
D43*
%TO.N,Net-(U6-TS)*%
X127110102Y-66995800D03*
X126310102Y-61995800D03*
%TD*%
D46*
%TO.N,*%
X102475000Y-54350000D02*
X102500000Y-54375000D01*
%TO.N,GND*%
X68575000Y-61300000D02*
X68675000Y-61400000D01*
X69775000Y-61400000D02*
X70669000Y-61400000D01*
X73476412Y-58262500D02*
X76787500Y-58262500D01*
X76787500Y-58262500D02*
X77125000Y-57925000D01*
X68387500Y-60512500D02*
X67675000Y-61225000D01*
X68575000Y-60512500D02*
X68387500Y-60512500D01*
X74830800Y-64325000D02*
X75589000Y-64325000D01*
X72634112Y-57420200D02*
X73476412Y-58262500D01*
X69225000Y-62287500D02*
X69225000Y-61400000D01*
X72135000Y-57420200D02*
X72634112Y-57420200D01*
X70669000Y-61400000D02*
X72130000Y-62861000D01*
X68575000Y-60512500D02*
X68575000Y-61300000D01*
X75589000Y-64325000D02*
X75789000Y-64125000D01*
%TO.N,Net-(U2-GPIO0{slash}BOOT)*%
X67617800Y-40860400D02*
X68681800Y-39796400D01*
X58814000Y-47236000D02*
X62325000Y-43725000D01*
X67617800Y-42525000D02*
X67617800Y-40860400D01*
X65225000Y-42525000D02*
X67617800Y-42525000D01*
X58814000Y-48241000D02*
X58814000Y-47236000D01*
X68681800Y-34036400D02*
X68681800Y-39796400D01*
%TO.N,+5V*%
X101274368Y-59774368D02*
X101274368Y-52988832D01*
X101274368Y-52988832D02*
X104275000Y-49988200D01*
X104900600Y-49988200D02*
X104275000Y-49988200D01*
X101275000Y-59775000D02*
X101274368Y-59774368D01*
%TO.N,Net-(U2-EN)*%
X44844000Y-65741000D02*
X44844000Y-71044000D01*
X74425000Y-42525000D02*
X74425000Y-40775000D01*
X44844000Y-71044000D02*
X45325000Y-71525000D01*
X75425000Y-34015000D02*
X75144000Y-34296000D01*
X76775000Y-39775000D02*
X77125000Y-40125000D01*
X74425000Y-40775000D02*
X75425000Y-39775000D01*
X75144000Y-39494000D02*
X75425000Y-39775000D01*
X75425000Y-39775000D02*
X76775000Y-39775000D01*
X75144000Y-34296000D02*
X75144000Y-39494000D01*
X72883900Y-42525000D02*
X74425000Y-42525000D01*
D47*
%TO.N,+3.3V*%
X66975000Y-67075000D02*
X66975000Y-66150000D01*
X53059888Y-75880000D02*
X56890112Y-75880000D01*
X43575000Y-75404999D02*
X43575000Y-74630000D01*
X67877082Y-59575000D02*
X68675000Y-59575000D01*
D46*
X51119200Y-43580800D02*
X52375000Y-42325000D01*
X51119200Y-44112500D02*
X51119200Y-43580800D01*
X69152450Y-52069786D02*
X69152450Y-55397250D01*
D47*
X60545000Y-75455000D02*
X61375000Y-74625000D01*
X66975000Y-62428122D02*
X66321878Y-61775000D01*
D48*
X48925000Y-42514200D02*
X46623400Y-44815800D01*
D47*
X65025000Y-61775000D02*
X65677082Y-61775000D01*
X65790112Y-75880000D02*
X67002400Y-74667712D01*
D46*
X69447100Y-55992200D02*
X69747400Y-55992200D01*
X66780000Y-53325100D02*
X69447100Y-55992200D01*
D48*
X46623400Y-44815800D02*
X43026600Y-44815800D01*
D47*
X67002400Y-74667712D02*
X67002400Y-67102400D01*
X56890112Y-75880000D02*
X57315112Y-75455000D01*
X66975000Y-66150000D02*
X66975000Y-62428122D01*
X66975000Y-67678599D02*
X66975000Y-66150000D01*
D48*
X48925000Y-41125000D02*
X48925000Y-42325000D01*
D49*
X41340000Y-46807000D02*
X42636000Y-45511000D01*
D46*
X66780000Y-51205000D02*
X66780000Y-53325100D01*
D47*
X61959888Y-75880000D02*
X65790112Y-75880000D01*
X47990112Y-75885000D02*
X44055001Y-75885000D01*
D48*
X52125000Y-40925000D02*
X49125000Y-40925000D01*
X49125000Y-40925000D02*
X48925000Y-41125000D01*
X47064200Y-44375000D02*
X49356700Y-44375000D01*
D47*
X68675000Y-59575000D02*
X69675000Y-59575000D01*
D48*
X52375000Y-41175000D02*
X52125000Y-40925000D01*
D47*
X44055001Y-75885000D02*
X43575000Y-75404999D01*
D46*
X69925000Y-45770100D02*
X69925000Y-51297236D01*
D48*
X42825000Y-45017400D02*
X43026600Y-44815800D01*
D46*
X69152450Y-55397250D02*
X69747400Y-55992200D01*
D47*
X52475000Y-74625000D02*
X52475000Y-75295112D01*
X61375000Y-74625000D02*
X61375000Y-75295112D01*
D48*
X41525000Y-54265000D02*
X43360000Y-56100000D01*
D49*
X41340000Y-51340000D02*
X41340000Y-46807000D01*
D47*
X57315112Y-75455000D02*
X60545000Y-75455000D01*
X52475000Y-75295112D02*
X53059888Y-75880000D01*
X63097400Y-70781200D02*
X63872399Y-70781200D01*
X65025000Y-61775000D02*
X63100000Y-61775000D01*
D46*
X70342800Y-43241100D02*
X70342800Y-45352300D01*
D47*
X67002400Y-67102400D02*
X66975000Y-67075000D01*
D48*
X52375000Y-42525000D02*
X52375000Y-41175000D01*
X46623400Y-44815800D02*
X47064200Y-44375000D01*
D47*
X52475000Y-74625000D02*
X51579888Y-75520112D01*
X66321878Y-61775000D02*
X65677082Y-61775000D01*
D48*
X43360000Y-56100000D02*
X43360000Y-65527000D01*
D47*
X51579888Y-75520112D02*
X48355000Y-75520112D01*
D46*
X70342800Y-45352300D02*
X69925000Y-45770100D01*
D48*
X42825000Y-45300000D02*
X42825000Y-45017400D01*
X41525000Y-51525000D02*
X41525000Y-54265000D01*
D47*
X48355000Y-75520112D02*
X47990112Y-75885000D01*
D46*
X69925000Y-51297236D02*
X69152450Y-52069786D01*
D47*
X61375000Y-75295112D02*
X61959888Y-75880000D01*
D46*
X71058900Y-42525000D02*
X70342800Y-43241100D01*
D47*
X63872399Y-70781200D02*
X66975000Y-67678599D01*
D46*
X43574000Y-65161000D02*
X43574000Y-65741000D01*
D48*
X43360000Y-65527000D02*
X43574000Y-65741000D01*
X48925000Y-42325000D02*
X48925000Y-42514200D01*
D47*
X65677082Y-61775000D02*
X67877082Y-59575000D01*
D48*
X48925000Y-35575000D02*
X48925000Y-42325000D01*
X47475000Y-34125000D02*
X48925000Y-35575000D01*
D46*
%TO.N,Net-(D2-A)*%
X60064000Y-53816000D02*
X62284000Y-53816000D01*
X62284000Y-53816000D02*
X62475000Y-53625000D01*
%TO.N,Net-(D2-K)*%
X62475000Y-50071300D02*
X62475000Y-51750000D01*
%TO.N,Net-(D3-K)*%
X74175000Y-57450000D02*
X74175000Y-55843300D01*
X74175000Y-55843300D02*
X74200400Y-55817900D01*
%TO.N,/HALL1A*%
X46114000Y-72316001D02*
X46114000Y-65741000D01*
X44575000Y-74630000D02*
X44575000Y-73855001D01*
X44575000Y-73855001D02*
X46114000Y-72316001D01*
%TO.N,/HALL1C*%
X46575000Y-73127793D02*
X48654000Y-71048793D01*
X48654000Y-71048793D02*
X48654000Y-65741000D01*
X46575000Y-74630000D02*
X46575000Y-73127793D01*
%TO.N,/HALL1B*%
X45575000Y-74630000D02*
X45575000Y-73491397D01*
X45575000Y-73491397D02*
X47384000Y-71682397D01*
X47384000Y-71682397D02*
X47384000Y-65741000D01*
%TO.N,/HALL2C*%
X55465000Y-73904949D02*
X55960000Y-73409949D01*
X52464000Y-66339000D02*
X52464000Y-65741000D01*
X55960000Y-73409949D02*
X55960000Y-69835000D01*
X55960000Y-69835000D02*
X52464000Y-66339000D01*
X55465000Y-74625000D02*
X55465000Y-73904949D01*
%TO.N,/HALL2B*%
X51194000Y-66321000D02*
X51194000Y-65741000D01*
X54465000Y-69592000D02*
X51194000Y-66321000D01*
X54465000Y-74625000D02*
X54465000Y-69592000D01*
%TO.N,/HALL2A*%
X53465000Y-69862000D02*
X49924000Y-66321000D01*
X49924000Y-66321000D02*
X49924000Y-65741000D01*
X53465000Y-74625000D02*
X53465000Y-69862000D01*
%TO.N,/HALL3A*%
X59413000Y-72420000D02*
X61595000Y-72420000D01*
X61595000Y-72420000D02*
X62375000Y-73200000D01*
X62375000Y-73200000D02*
X62375000Y-74625000D01*
X53734000Y-65741000D02*
X53734000Y-66741000D01*
X53734000Y-66741000D02*
X59413000Y-72420000D01*
%TO.N,/HALL3C*%
X61995000Y-71520000D02*
X64375000Y-73900000D01*
X64375000Y-73900000D02*
X64375000Y-74625000D01*
X60519695Y-71520000D02*
X61995000Y-71520000D01*
X56274000Y-67274305D02*
X60519695Y-71520000D01*
X56274000Y-65741000D02*
X56274000Y-67274305D01*
%TO.N,/HALL3B*%
X55004000Y-66741000D02*
X60233000Y-71970000D01*
X60233000Y-71970000D02*
X61795000Y-71970000D01*
X55004000Y-65741000D02*
X55004000Y-66741000D01*
X63375000Y-73550000D02*
X63375000Y-74625000D01*
X61795000Y-71970000D02*
X63375000Y-73550000D01*
%TO.N,/HALL4A*%
X60064000Y-67522799D02*
X62322401Y-69781200D01*
X62322401Y-69781200D02*
X63097400Y-69781200D01*
X60064000Y-63976000D02*
X60064000Y-67522799D01*
%TO.N,/HALL4B*%
X61064000Y-61436000D02*
X61550000Y-61922000D01*
X61550000Y-67684708D02*
X62646492Y-68781200D01*
X61550000Y-61922000D02*
X61550000Y-67684708D01*
X60064000Y-61436000D02*
X61064000Y-61436000D01*
X62646492Y-68781200D02*
X63097400Y-68781200D01*
%TO.N,/HALL4C*%
X63872399Y-67781200D02*
X63097400Y-67781200D01*
X61064000Y-60166000D02*
X62000000Y-61102000D01*
X64225000Y-66425000D02*
X64225000Y-67428599D01*
X60064000Y-60166000D02*
X61064000Y-60166000D01*
X62000000Y-64200000D02*
X64225000Y-66425000D01*
X64225000Y-67428599D02*
X63872399Y-67781200D01*
X62000000Y-61102000D02*
X62000000Y-64200000D01*
%TO.N,/HALL5A*%
X60064000Y-58896000D02*
X60644000Y-58896000D01*
X60644000Y-58896000D02*
X62523000Y-60775000D01*
X62523000Y-60775000D02*
X63100000Y-60775000D01*
%TO.N,/HALL5C*%
X60064000Y-56356000D02*
X60644000Y-56356000D01*
X62425000Y-58775000D02*
X63100000Y-58775000D01*
X62000000Y-58350000D02*
X62425000Y-58775000D01*
X60644000Y-56356000D02*
X62000000Y-57712000D01*
X62000000Y-57712000D02*
X62000000Y-58350000D01*
%TO.N,/HALL5B*%
X60500092Y-57626000D02*
X62649092Y-59775000D01*
X62649092Y-59775000D02*
X63100000Y-59775000D01*
X60064000Y-57626000D02*
X60500092Y-57626000D01*
%TO.N,/IMU/SCLK*%
X50094202Y-45352873D02*
X50347073Y-45352873D01*
X52464000Y-48241000D02*
X52464000Y-47264000D01*
X50619200Y-45625000D02*
X50619200Y-46137500D01*
X50347073Y-45352873D02*
X50619200Y-45625000D01*
X52464000Y-47264000D02*
X52325000Y-47125000D01*
%TO.N,/IMU/SDO*%
X49924000Y-48241000D02*
X49924000Y-47926000D01*
X51057538Y-46942464D02*
X50875002Y-47125000D01*
X49924000Y-47661000D02*
X49924000Y-47926000D01*
X49924000Y-47926000D02*
X50325000Y-47525000D01*
X50875002Y-47125000D02*
X50460000Y-47125000D01*
X50460000Y-47125000D02*
X49924000Y-47661000D01*
X51925000Y-45918300D02*
X51881700Y-45875000D01*
X51925000Y-46325000D02*
X51925000Y-45918300D01*
%TO.N,/MOTOR1*%
X51467332Y-38081000D02*
X50292332Y-36906000D01*
X53734000Y-41504002D02*
X51467332Y-39237334D01*
X51467332Y-39237334D02*
X51467332Y-38081000D01*
X53734000Y-48241000D02*
X53734000Y-41504002D01*
%TO.N,/MOTOR2*%
X55725000Y-47116000D02*
X55004000Y-47837000D01*
X55004000Y-47837000D02*
X55004000Y-48241000D01*
X55725000Y-38829000D02*
X55725000Y-47116000D01*
X53992000Y-36906000D02*
X53992000Y-37096000D01*
X53992000Y-37096000D02*
X55725000Y-38829000D01*
%TO.N,/MOTOR3*%
X57707000Y-36886000D02*
X56274000Y-38319000D01*
X56274000Y-38319000D02*
X56274000Y-48241000D01*
%TO.N,/MOTOR4*%
X57544000Y-41939000D02*
X60282000Y-39201000D01*
X57544000Y-48241000D02*
X57544000Y-41939000D01*
X60282000Y-38076000D02*
X61457000Y-36901000D01*
X60282000Y-39201000D02*
X60282000Y-38076000D01*
%TO.N,/MOTOR5*%
X64052000Y-43023305D02*
X64052000Y-38081000D01*
X60064000Y-47011305D02*
X64052000Y-43023305D01*
X60064000Y-50006000D02*
X60064000Y-47011305D01*
X64052000Y-38081000D02*
X65227000Y-36906000D01*
%TO.N,Net-(J13-Pin_3)*%
X47384000Y-48241000D02*
X47384000Y-49766000D01*
X47225000Y-49925000D02*
X47325000Y-49825000D01*
X47384000Y-49766000D02*
X47225000Y-49925000D01*
%TO.N,Net-(J13-Pin_4)*%
X43885000Y-55360000D02*
X42475000Y-53950000D01*
X43885000Y-61085000D02*
X43885000Y-55360000D01*
X60064000Y-62706000D02*
X45506000Y-62706000D01*
X45506000Y-62706000D02*
X43885000Y-61085000D01*
%TO.N,Net-(J13-Pin_2)*%
X45925000Y-49625000D02*
X45825000Y-49625000D01*
X45825000Y-49625000D02*
X45825000Y-49725000D01*
X46114000Y-49436000D02*
X45925000Y-49625000D01*
X46114000Y-48241000D02*
X46114000Y-49436000D01*
X45825000Y-49725000D02*
X45925000Y-49625000D01*
D50*
%TO.N,/MCU/USB_N*%
X57600000Y-66193000D02*
X57600000Y-67575000D01*
%TO.N,/MCU/USB_P*%
X58663000Y-65892000D02*
X58663000Y-67562000D01*
X58663000Y-67562000D02*
X58650000Y-67575000D01*
D46*
%TO.N,/Power/CELL_1*%
X118925000Y-125286200D02*
X118925000Y-71363800D01*
X124700600Y-65588200D02*
X124700600Y-64788200D01*
X118925000Y-71363800D02*
X124700600Y-65588200D01*
%TO.N,/IMU/SDI*%
X51684002Y-47750998D02*
X51684002Y-46826465D01*
X51119200Y-46261663D02*
X51119200Y-46137500D01*
X51194000Y-48241000D02*
X51684002Y-47750998D01*
X51684002Y-46826465D02*
X51119200Y-46261663D01*
%TO.N,/IMU/SCS*%
X48654000Y-47602700D02*
X48654000Y-48241000D01*
X50119200Y-46137500D02*
X48654000Y-47602700D01*
%TO.N,/IMU/INT1*%
X44083400Y-46629200D02*
X43574000Y-47138600D01*
X43574000Y-47138600D02*
X43574000Y-48241000D01*
X52525000Y-44325000D02*
X51931700Y-44325000D01*
X51931700Y-44325000D02*
X51881700Y-44375000D01*
%TO.N,/IMU/INT2*%
X48769200Y-44875000D02*
X46478200Y-47166000D01*
X49356700Y-44875000D02*
X48769200Y-44875000D01*
X44844000Y-47606000D02*
X44844000Y-48241000D01*
X45284000Y-47166000D02*
X44844000Y-47606000D01*
X46478200Y-47166000D02*
X45284000Y-47166000D01*
%TO.N,Net-(U5-1OUT)*%
X71720000Y-51205000D02*
X70025000Y-52900000D01*
X77037500Y-53850000D02*
X77037500Y-55812500D01*
X75505000Y-51205000D02*
X77050000Y-52750000D01*
X77050000Y-52750000D02*
X77050000Y-52925000D01*
X77037500Y-55812500D02*
X77000000Y-55850000D01*
X71720000Y-51205000D02*
X75505000Y-51205000D01*
X77037500Y-52937500D02*
X77037500Y-53850000D01*
X77050000Y-52925000D02*
X77037500Y-52937500D01*
%TO.N,/Light Sensor/1IN-*%
X76275000Y-50632500D02*
X75577500Y-49935000D01*
X78862500Y-52720000D02*
X76775000Y-50632500D01*
X78862500Y-53850000D02*
X78862500Y-52720000D01*
X75577500Y-49935000D02*
X71720000Y-49935000D01*
X78900000Y-53887500D02*
X78862500Y-53850000D01*
X80108092Y-50632500D02*
X76275000Y-50632500D01*
X80900296Y-49840296D02*
X83100000Y-52040000D01*
X78900000Y-55850000D02*
X78900000Y-53887500D01*
X80900296Y-45405000D02*
X80900296Y-49840296D01*
X80900296Y-49840296D02*
X80108092Y-50632500D01*
D51*
%TO.N,/Light Sensor/2IN+*%
X67612500Y-46562500D02*
X67612500Y-44725000D01*
X68125000Y-47755001D02*
X68125000Y-53125000D01*
X66780000Y-47395000D02*
X67612500Y-46562500D01*
X67764999Y-47395000D02*
X68125000Y-47755001D01*
X66780000Y-47395000D02*
X67764999Y-47395000D01*
D46*
%TO.N,Net-(U7-VCC)*%
X104625000Y-57845955D02*
X104625000Y-56204698D01*
X104625000Y-56204698D02*
X106109849Y-54719849D01*
X106602454Y-59823409D02*
X104625000Y-57845955D01*
%TO.N,Net-(U6-BTST)*%
X121875000Y-62075000D02*
X121562174Y-61762174D01*
X117625174Y-55339900D02*
X117625174Y-57650174D01*
X117625174Y-57650174D02*
X120775900Y-60800900D01*
X120775900Y-60800900D02*
X121562174Y-60800900D01*
X121562174Y-61762174D02*
X121562174Y-60800900D01*
X121562174Y-60800900D02*
X121562174Y-60953300D01*
D51*
%TO.N,/Light Sensor/2IN-*%
X64525000Y-48212500D02*
X64525000Y-46525000D01*
X65065000Y-48665000D02*
X66780000Y-48665000D01*
X64525000Y-48212500D02*
X64612500Y-48212500D01*
X64612500Y-48212500D02*
X65065000Y-48665000D01*
D46*
%TO.N,/Light Sensor/2OUT*%
X64757000Y-54265988D02*
X64757000Y-51493000D01*
X66315000Y-49935000D02*
X66780000Y-49935000D01*
X64627500Y-49935000D02*
X64525000Y-50037500D01*
X66780000Y-49935000D02*
X64627500Y-49935000D01*
X63936988Y-55086000D02*
X64757000Y-54265988D01*
X60064000Y-55086000D02*
X63936988Y-55086000D01*
X64757000Y-51493000D02*
X66315000Y-49935000D01*
%TO.N,Net-(U6-STAT)*%
X126210374Y-57092500D02*
X126210374Y-58235500D01*
X126210374Y-58235500D02*
X126184974Y-58260900D01*
%TO.N,Net-(U6-TS)*%
X126310102Y-66395800D02*
X127110102Y-66995800D01*
X126310102Y-61995800D02*
X126310102Y-66395800D01*
X127110102Y-66995800D02*
X126910102Y-66995800D01*
%TD*%
%TA.AperFunction,Conductor*%
%TO.N,GND*%
G36*
X51674500Y-42375500D02*
G01*
X50925000Y-43125000D01*
X50925000Y-43314673D01*
X50858736Y-43380937D01*
X50858735Y-43380937D01*
X50815882Y-43455159D01*
X50814213Y-43461391D01*
X50814212Y-43461390D01*
X50814212Y-43461394D01*
X50793700Y-43537944D01*
X50793700Y-44125000D01*
X49925000Y-44125000D01*
X49925000Y-43125000D01*
X49325500Y-42375625D01*
X49325500Y-42125000D01*
X51674500Y-42125000D01*
X51674500Y-42375500D01*
G37*
%TD.AperFunction*%
%TD*%
%TA.AperFunction,Conductor*%
%TO.N,+5V*%
G36*
X68160148Y-61839352D02*
G01*
X68174500Y-61874000D01*
X68174500Y-61924677D01*
X68189033Y-61997739D01*
X68244398Y-62080601D01*
X68327260Y-62135966D01*
X68400326Y-62150500D01*
X68725500Y-62150500D01*
X68760148Y-62164852D01*
X68774500Y-62199500D01*
X68774500Y-62421586D01*
X68774501Y-62421591D01*
X68781099Y-62471723D01*
X68814552Y-62543463D01*
X68832406Y-62581750D01*
X68832407Y-62581751D01*
X68832408Y-62581753D01*
X68918246Y-62667591D01*
X68918248Y-62667592D01*
X68918250Y-62667594D01*
X69028277Y-62718900D01*
X69078409Y-62725500D01*
X69371590Y-62725499D01*
X69421723Y-62718900D01*
X69531750Y-62667594D01*
X69617594Y-62581750D01*
X69668900Y-62471723D01*
X69675500Y-62421591D01*
X69675499Y-62199499D01*
X69689851Y-62164852D01*
X69724499Y-62150500D01*
X70049674Y-62150500D01*
X70122740Y-62135966D01*
X70205601Y-62080601D01*
X70260966Y-61997740D01*
X70275500Y-61924674D01*
X70275500Y-61874000D01*
X70289852Y-61839352D01*
X70324500Y-61825000D01*
X70542667Y-61825000D01*
X70577315Y-61839352D01*
X70910648Y-62172685D01*
X70925000Y-62207333D01*
X70925000Y-63825000D01*
X74376810Y-63825000D01*
X74411458Y-63839352D01*
X74425803Y-63873184D01*
X74429882Y-64117974D01*
X74425299Y-64139497D01*
X74406301Y-64180240D01*
X74400300Y-64225824D01*
X74400300Y-64424174D01*
X74400301Y-64424179D01*
X74406300Y-64469760D01*
X74432426Y-64525787D01*
X74437010Y-64545678D01*
X74524170Y-69775183D01*
X74510398Y-69810066D01*
X74475994Y-69824993D01*
X74475177Y-69825000D01*
X69573252Y-69825000D01*
X69538604Y-69810648D01*
X69524258Y-69776754D01*
X69425000Y-63325000D01*
X68946973Y-63325000D01*
X68912325Y-63310648D01*
X68898254Y-63281237D01*
X68894092Y-63242521D01*
X68894091Y-63242517D01*
X68843796Y-63107669D01*
X68757546Y-62992454D01*
X68688314Y-62940627D01*
X68642333Y-62906205D01*
X68642331Y-62906204D01*
X68597381Y-62889439D01*
X68507479Y-62855907D01*
X68447879Y-62849500D01*
X67974000Y-62849500D01*
X67939352Y-62835148D01*
X67925000Y-62800500D01*
X67925000Y-61874000D01*
X67939352Y-61839352D01*
X67974000Y-61825000D01*
X68125500Y-61825000D01*
X68160148Y-61839352D01*
G37*
%TD.AperFunction*%
%TD*%
%TA.AperFunction,Conductor*%
%TO.N,+BATT*%
G36*
X98443639Y-54807885D02*
G01*
X98489394Y-54860689D01*
X98500600Y-54912200D01*
X98500600Y-56588200D01*
X100824868Y-56588200D01*
X100891907Y-56607885D01*
X100937662Y-56660689D01*
X100948868Y-56712200D01*
X100948868Y-59207184D01*
X100929183Y-59274223D01*
X100900356Y-59305559D01*
X100846720Y-59346715D01*
X100750463Y-59472160D01*
X100689956Y-59618237D01*
X100689955Y-59618239D01*
X100669318Y-59774998D01*
X100669318Y-59775001D01*
X100689955Y-59931760D01*
X100689956Y-59931762D01*
X100699861Y-59955676D01*
X100750464Y-60077841D01*
X100846718Y-60203282D01*
X100972159Y-60299536D01*
X101118238Y-60360044D01*
X101196619Y-60370363D01*
X101274999Y-60380682D01*
X101275000Y-60380682D01*
X101275001Y-60380682D01*
X101327254Y-60373802D01*
X101431762Y-60360044D01*
X101577841Y-60299536D01*
X101703282Y-60203282D01*
X101799536Y-60077841D01*
X101860044Y-59931762D01*
X101860046Y-59931746D01*
X101861338Y-59926926D01*
X101897698Y-59867262D01*
X101960543Y-59836728D01*
X102029919Y-59845017D01*
X102063494Y-59866328D01*
X103100600Y-60788200D01*
X109900600Y-60788200D01*
X110963100Y-61788200D01*
X100751962Y-61788200D01*
X100684923Y-61768515D01*
X100664281Y-61751881D01*
X99900600Y-60988200D01*
X96424600Y-60988200D01*
X96357561Y-60968515D01*
X96311806Y-60915711D01*
X96300600Y-60864200D01*
X96300600Y-54912200D01*
X96320285Y-54845161D01*
X96373089Y-54799406D01*
X96424600Y-54788200D01*
X98376600Y-54788200D01*
X98443639Y-54807885D01*
G37*
%TD.AperFunction*%
%TD*%
%TA.AperFunction,Conductor*%
%TO.N,+3.3V*%
G36*
X44510648Y-64639352D02*
G01*
X44525000Y-64674000D01*
X44525000Y-64691500D01*
X44510648Y-64726148D01*
X44476000Y-64740500D01*
X44369322Y-64740500D01*
X44296260Y-64755033D01*
X44213398Y-64810398D01*
X44158033Y-64893260D01*
X44143500Y-64966322D01*
X44143500Y-66515677D01*
X44158033Y-66588739D01*
X44213398Y-66671601D01*
X44296260Y-66726966D01*
X44369326Y-66741500D01*
X44419500Y-66741500D01*
X44454148Y-66755852D01*
X44468500Y-66790500D01*
X44468500Y-71093437D01*
X44494089Y-71188936D01*
X44494090Y-71188938D01*
X44518435Y-71231106D01*
X44525000Y-71255604D01*
X44525000Y-73353667D01*
X44510648Y-73388315D01*
X44344438Y-73554526D01*
X44274527Y-73624435D01*
X44272573Y-73626983D01*
X44271751Y-73626353D01*
X44255262Y-73641993D01*
X44186661Y-73676948D01*
X44186654Y-73676953D01*
X44096950Y-73766657D01*
X44096945Y-73766664D01*
X44039355Y-73879690D01*
X44039355Y-73879692D01*
X44024500Y-73973482D01*
X44024500Y-75286517D01*
X44039353Y-75380303D01*
X44096945Y-75493335D01*
X44096950Y-75493342D01*
X44144960Y-75541352D01*
X44159312Y-75576000D01*
X44144960Y-75610648D01*
X44110312Y-75625000D01*
X43074000Y-75625000D01*
X43039352Y-75610648D01*
X43025000Y-75576000D01*
X43025000Y-73525009D01*
X42999501Y-71255604D01*
X42947944Y-66667044D01*
X42956197Y-66639278D01*
X42989966Y-66588740D01*
X43004500Y-66515674D01*
X43004500Y-64966326D01*
X42989966Y-64893260D01*
X42935044Y-64811062D01*
X42926790Y-64784395D01*
X42925557Y-64674550D01*
X42939519Y-64639743D01*
X42974004Y-64625003D01*
X42974554Y-64625000D01*
X44476000Y-64625000D01*
X44510648Y-64639352D01*
G37*
%TD.AperFunction*%
%TD*%
%TA.AperFunction,Conductor*%
%TO.N,+3.3V*%
G36*
X71160648Y-55089352D02*
G01*
X71175000Y-55124000D01*
X71175000Y-58575000D01*
X75626000Y-58575000D01*
X75660648Y-58589352D01*
X75675000Y-58624000D01*
X75675000Y-61776000D01*
X75660648Y-61810648D01*
X75626000Y-61825000D01*
X71503911Y-61825000D01*
X71469263Y-61810648D01*
X70825060Y-61166444D01*
X70723801Y-61124500D01*
X70719067Y-61123559D01*
X70719269Y-61122540D01*
X70689352Y-61110148D01*
X70675000Y-61075500D01*
X70675000Y-60825000D01*
X70182081Y-60825000D01*
X70147433Y-60810648D01*
X70141343Y-60803228D01*
X70133504Y-60791496D01*
X70133501Y-60791494D01*
X70133499Y-60791491D01*
X70083721Y-60758232D01*
X70039823Y-60749500D01*
X70039820Y-60749500D01*
X68961497Y-60749500D01*
X68926849Y-60735148D01*
X68912497Y-60700500D01*
X68913439Y-60690940D01*
X68925499Y-60630308D01*
X68925500Y-60630305D01*
X68925499Y-60394696D01*
X68911328Y-60323448D01*
X68893414Y-60296639D01*
X68857344Y-60242655D01*
X68808912Y-60210294D01*
X68776552Y-60188672D01*
X68705305Y-60174500D01*
X68705302Y-60174500D01*
X68474000Y-60174500D01*
X68439352Y-60160148D01*
X68425000Y-60125500D01*
X68425000Y-58800990D01*
X68430341Y-58778744D01*
X68483044Y-58675307D01*
X68483046Y-58675304D01*
X68497900Y-58581519D01*
X68497899Y-57568482D01*
X68483046Y-57474696D01*
X68430341Y-57371254D01*
X68425000Y-57349009D01*
X68425000Y-56718190D01*
X68430341Y-56695944D01*
X68483044Y-56592507D01*
X68483046Y-56592504D01*
X68497900Y-56498719D01*
X68497899Y-55485682D01*
X68483046Y-55391896D01*
X68430341Y-55288454D01*
X68425000Y-55266209D01*
X68425000Y-55124000D01*
X68439352Y-55089352D01*
X68474000Y-55075000D01*
X71126000Y-55075000D01*
X71160648Y-55089352D01*
G37*
%TD.AperFunction*%
%TD*%
%TA.AperFunction,Conductor*%
%TO.N,GND*%
G36*
X86184191Y-32243907D02*
G01*
X86220155Y-32293407D01*
X86225000Y-32324000D01*
X86225000Y-78125783D01*
X86206093Y-78183974D01*
X86156593Y-78219938D01*
X86125784Y-78224783D01*
X80908168Y-78213416D01*
X80850019Y-78194382D01*
X80814163Y-78144803D01*
X80814296Y-78083618D01*
X80850368Y-78034197D01*
X80872613Y-78022104D01*
X80892637Y-78014348D01*
X81066041Y-77906981D01*
X81216764Y-77769579D01*
X81339673Y-77606821D01*
X81430582Y-77424250D01*
X81486397Y-77228083D01*
X81505215Y-77025000D01*
X81486397Y-76821917D01*
X81430582Y-76625750D01*
X81339673Y-76443179D01*
X81216764Y-76280421D01*
X81066041Y-76143019D01*
X80892637Y-76035652D01*
X80702456Y-75961976D01*
X80702455Y-75961975D01*
X80702453Y-75961975D01*
X80501976Y-75924500D01*
X80298024Y-75924500D01*
X80097546Y-75961975D01*
X80033708Y-75986706D01*
X79907363Y-76035652D01*
X79779714Y-76114689D01*
X79733959Y-76143019D01*
X79598970Y-76266078D01*
X79583236Y-76280421D01*
X79558034Y-76313794D01*
X79460328Y-76443177D01*
X79460323Y-76443186D01*
X79390004Y-76584407D01*
X79369418Y-76625750D01*
X79313603Y-76821917D01*
X79294785Y-77025000D01*
X79313603Y-77228083D01*
X79369418Y-77424250D01*
X79460327Y-77606821D01*
X79583236Y-77769579D01*
X79733959Y-77906981D01*
X79907363Y-78014348D01*
X79921627Y-78019874D01*
X79969057Y-78058522D01*
X79984713Y-78117670D01*
X79962612Y-78174725D01*
X79911197Y-78207892D01*
X79885649Y-78211188D01*
X69957395Y-78189558D01*
X69899246Y-78170524D01*
X69863390Y-78120945D01*
X69863523Y-78059760D01*
X69899595Y-78010339D01*
X69905468Y-78006403D01*
X70066041Y-77906981D01*
X70216764Y-77769579D01*
X70339673Y-77606821D01*
X70430582Y-77424250D01*
X70486397Y-77228083D01*
X70505215Y-77025000D01*
X70486397Y-76821917D01*
X70430582Y-76625750D01*
X70339673Y-76443179D01*
X70216764Y-76280421D01*
X70066041Y-76143019D01*
X69892637Y-76035652D01*
X69702456Y-75961976D01*
X69702455Y-75961975D01*
X69702453Y-75961975D01*
X69501976Y-75924500D01*
X69298024Y-75924500D01*
X69097546Y-75961975D01*
X69033708Y-75986706D01*
X68907363Y-76035652D01*
X68779714Y-76114689D01*
X68733959Y-76143019D01*
X68598970Y-76266078D01*
X68583236Y-76280421D01*
X68558034Y-76313794D01*
X68460328Y-76443177D01*
X68460323Y-76443186D01*
X68390004Y-76584407D01*
X68369418Y-76625750D01*
X68313603Y-76821917D01*
X68294785Y-77025000D01*
X68313603Y-77228083D01*
X68369418Y-77424250D01*
X68460327Y-77606821D01*
X68583236Y-77769579D01*
X68733959Y-77906981D01*
X68801880Y-77949036D01*
X68890567Y-78003949D01*
X68930088Y-78050657D01*
X68934607Y-78111676D01*
X68902397Y-78163696D01*
X68845761Y-78186850D01*
X68838234Y-78187120D01*
X67722273Y-78184688D01*
X67664124Y-78165654D01*
X67628268Y-78116075D01*
X67627420Y-78058071D01*
X67672598Y-77902569D01*
X67675500Y-77865694D01*
X67675500Y-76434306D01*
X67672598Y-76397431D01*
X67626744Y-76239602D01*
X67543081Y-76098135D01*
X67426865Y-75981919D01*
X67285398Y-75898256D01*
X67127569Y-75852402D01*
X67127568Y-75852401D01*
X67127565Y-75852401D01*
X67104140Y-75850558D01*
X67090694Y-75849500D01*
X67090689Y-75849500D01*
X67021991Y-75849500D01*
X66963800Y-75830593D01*
X66927836Y-75781093D01*
X66927836Y-75719907D01*
X66951987Y-75680497D01*
X67056492Y-75575992D01*
X67428042Y-75204440D01*
X67428047Y-75204437D01*
X67436192Y-75196291D01*
X67436194Y-75196291D01*
X67530979Y-75101506D01*
X67605452Y-74990050D01*
X67656749Y-74866207D01*
X67682900Y-74734735D01*
X67682900Y-67035377D01*
X67657401Y-66907185D01*
X67655500Y-66887876D01*
X67655500Y-63304646D01*
X67674407Y-63246455D01*
X67723907Y-63210491D01*
X67785093Y-63210491D01*
X67792373Y-63213177D01*
X67818819Y-63224132D01*
X67848694Y-63235153D01*
X67926833Y-63247529D01*
X67973998Y-63255000D01*
X67974000Y-63255000D01*
X68397223Y-63255000D01*
X68455414Y-63273907D01*
X68489980Y-63319404D01*
X68497444Y-63339417D01*
X68497562Y-63339731D01*
X68499693Y-63346095D01*
X68532460Y-63456235D01*
X68532464Y-63456247D01*
X68546530Y-63485647D01*
X68554177Y-63499711D01*
X68566578Y-63522518D01*
X68570895Y-63527572D01*
X68648972Y-63618991D01*
X68750256Y-63681059D01*
X68757144Y-63685280D01*
X68791792Y-63699632D01*
X68821667Y-63710653D01*
X68902714Y-63723489D01*
X68943663Y-63729976D01*
X68998179Y-63757754D01*
X69025956Y-63812271D01*
X69027163Y-63826234D01*
X69118806Y-69782991D01*
X69120264Y-69811678D01*
X69120265Y-69811681D01*
X69148168Y-69924086D01*
X69150830Y-69934811D01*
X69165176Y-69968705D01*
X69191391Y-70019668D01*
X69192858Y-70022520D01*
X69275250Y-70118990D01*
X69378168Y-70182060D01*
X69383423Y-70185280D01*
X69418071Y-70199632D01*
X69447946Y-70210653D01*
X69515691Y-70221383D01*
X69573250Y-70230500D01*
X69573252Y-70230500D01*
X74475188Y-70230500D01*
X74475435Y-70230498D01*
X74478651Y-70230485D01*
X74479468Y-70230478D01*
X74514541Y-70228657D01*
X74637393Y-70196988D01*
X74671797Y-70182061D01*
X74728008Y-70152230D01*
X74823092Y-70068238D01*
X74887567Y-69958974D01*
X74901339Y-69924091D01*
X74911858Y-69894045D01*
X74929614Y-69768425D01*
X74926951Y-69608670D01*
X74858301Y-65489739D01*
X74842454Y-64538920D01*
X74832153Y-64454615D01*
X74827569Y-64434724D01*
X74811187Y-64387120D01*
X74805800Y-64354907D01*
X74805800Y-64288190D01*
X74810921Y-64256762D01*
X74821907Y-64223949D01*
X74826490Y-64202426D01*
X74835326Y-64111218D01*
X74831247Y-63866428D01*
X74829774Y-63838003D01*
X74799131Y-63714891D01*
X74799129Y-63714886D01*
X74799128Y-63714882D01*
X74784789Y-63681065D01*
X74784787Y-63681061D01*
X74757206Y-63627484D01*
X74757205Y-63627482D01*
X74674812Y-63531010D01*
X74669197Y-63527569D01*
X74566643Y-63464722D01*
X74566640Y-63464720D01*
X74566639Y-63464720D01*
X74531991Y-63450368D01*
X74524160Y-63447479D01*
X74502118Y-63439347D01*
X74376812Y-63419500D01*
X74376810Y-63419500D01*
X73131136Y-63419500D01*
X73129978Y-63419435D01*
X73120022Y-63419435D01*
X73118864Y-63419500D01*
X72181136Y-63419500D01*
X72179978Y-63419435D01*
X72170022Y-63419435D01*
X72168864Y-63419500D01*
X71429500Y-63419500D01*
X71371309Y-63400593D01*
X71335345Y-63351093D01*
X71330500Y-63320500D01*
X71330500Y-62318948D01*
X71349407Y-62260757D01*
X71398907Y-62224793D01*
X71444986Y-62221167D01*
X71473058Y-62225613D01*
X71503909Y-62230500D01*
X71503911Y-62230500D01*
X75625993Y-62230500D01*
X75626000Y-62230500D01*
X75657818Y-62229250D01*
X75781181Y-62199632D01*
X75815829Y-62185280D01*
X75872518Y-62156395D01*
X75968990Y-62074002D01*
X76035280Y-61965829D01*
X76049632Y-61931181D01*
X76060653Y-61901306D01*
X76080500Y-61776000D01*
X76080500Y-58624000D01*
X76079250Y-58592182D01*
X76049632Y-58468819D01*
X76035280Y-58434171D01*
X76035277Y-58434165D01*
X76035273Y-58434156D01*
X76006395Y-58377482D01*
X75924001Y-58281009D01*
X75815833Y-58214722D01*
X75815830Y-58214720D01*
X75815829Y-58214720D01*
X75781181Y-58200368D01*
X75773350Y-58197479D01*
X75751308Y-58189347D01*
X75626002Y-58169500D01*
X75626000Y-58169500D01*
X75271939Y-58169500D01*
X75213748Y-58150593D01*
X75177784Y-58101093D01*
X75177784Y-58039907D01*
X75186726Y-58020105D01*
X75227210Y-57951649D01*
X75227212Y-57951646D01*
X75272625Y-57795334D01*
X75275500Y-57758804D01*
X75275500Y-57141196D01*
X75272625Y-57104666D01*
X75227212Y-56948354D01*
X75217127Y-56931302D01*
X75144355Y-56808250D01*
X75144354Y-56808249D01*
X75144353Y-56808247D01*
X75063427Y-56727321D01*
X75035652Y-56672807D01*
X75045223Y-56612375D01*
X75063426Y-56587319D01*
X75168481Y-56482265D01*
X75252144Y-56340798D01*
X75297998Y-56182969D01*
X75300900Y-56146094D01*
X75300900Y-55489706D01*
X75297998Y-55452831D01*
X75252144Y-55295002D01*
X75168481Y-55153535D01*
X75052265Y-55037319D01*
X74910798Y-54953656D01*
X74752969Y-54907802D01*
X74752968Y-54907801D01*
X74752965Y-54907801D01*
X74729540Y-54905958D01*
X74716094Y-54904900D01*
X73684706Y-54904900D01*
X73672173Y-54905886D01*
X73647834Y-54907801D01*
X73647827Y-54907803D01*
X73490002Y-54953656D01*
X73348536Y-55037318D01*
X73232318Y-55153536D01*
X73148656Y-55295002D01*
X73102803Y-55452827D01*
X73102801Y-55452834D01*
X73099900Y-55489711D01*
X73099900Y-56146088D01*
X73102801Y-56182965D01*
X73102801Y-56182968D01*
X73102802Y-56182969D01*
X73148656Y-56340798D01*
X73232319Y-56482265D01*
X73311972Y-56561918D01*
X73339748Y-56616433D01*
X73330177Y-56676865D01*
X73311973Y-56701920D01*
X73205647Y-56808247D01*
X73205644Y-56808250D01*
X73122789Y-56948350D01*
X73122789Y-56948351D01*
X73122788Y-56948353D01*
X73122788Y-56948354D01*
X73114901Y-56975500D01*
X73077376Y-57104662D01*
X73077374Y-57104668D01*
X73075532Y-57128080D01*
X73074500Y-57141196D01*
X73074500Y-57758804D01*
X73075704Y-57774105D01*
X73077374Y-57795331D01*
X73077376Y-57795337D01*
X73122789Y-57951648D01*
X73122789Y-57951649D01*
X73163274Y-58020105D01*
X73176622Y-58079817D01*
X73152322Y-58135970D01*
X73099657Y-58167116D01*
X73078061Y-58169500D01*
X71679500Y-58169500D01*
X71621309Y-58150593D01*
X71585345Y-58101093D01*
X71580500Y-58070500D01*
X71580500Y-56060898D01*
X71582027Y-56046748D01*
X71582005Y-56046746D01*
X71585499Y-56009482D01*
X71585500Y-56009479D01*
X71585500Y-55772921D01*
X71585499Y-55772919D01*
X71582005Y-55735656D01*
X71582027Y-55735653D01*
X71580500Y-55721502D01*
X71580500Y-55124007D01*
X71580500Y-55124000D01*
X71579250Y-55092182D01*
X71549632Y-54968819D01*
X71535280Y-54934171D01*
X71535277Y-54934165D01*
X71535273Y-54934156D01*
X71506395Y-54877482D01*
X71424001Y-54781009D01*
X71315833Y-54714722D01*
X71315830Y-54714720D01*
X71315829Y-54714720D01*
X71281181Y-54700368D01*
X71265665Y-54694644D01*
X71251308Y-54689347D01*
X71126002Y-54669500D01*
X71126000Y-54669500D01*
X69776950Y-54669500D01*
X69718759Y-54650593D01*
X69682795Y-54601093D01*
X69677950Y-54570500D01*
X69677950Y-54349500D01*
X69696857Y-54291309D01*
X69746357Y-54255345D01*
X69776950Y-54250500D01*
X70340689Y-54250500D01*
X70340694Y-54250500D01*
X70377569Y-54247598D01*
X70535398Y-54201744D01*
X70676865Y-54118081D01*
X70793081Y-54001865D01*
X70876744Y-53860398D01*
X70922598Y-53702569D01*
X70925500Y-53665694D01*
X70925500Y-52783676D01*
X70944407Y-52725485D01*
X70954490Y-52713678D01*
X71733673Y-51934494D01*
X71788190Y-51906718D01*
X71803677Y-51905499D01*
X72675479Y-51905499D01*
X72675484Y-51905499D01*
X72732114Y-51899412D01*
X72860226Y-51851628D01*
X72969687Y-51769687D01*
X72969692Y-51769679D01*
X72974693Y-51764680D01*
X72975693Y-51765680D01*
X73019336Y-51734917D01*
X73048578Y-51730500D01*
X75246323Y-51730500D01*
X75304514Y-51749407D01*
X75316327Y-51759496D01*
X76335939Y-52779108D01*
X76363716Y-52833625D01*
X76354145Y-52894057D01*
X76335941Y-52919112D01*
X76271807Y-52983247D01*
X76256918Y-52998136D01*
X76173256Y-53139602D01*
X76127403Y-53297427D01*
X76127401Y-53297434D01*
X76124500Y-53334311D01*
X76124500Y-54365688D01*
X76127401Y-54402565D01*
X76127401Y-54402568D01*
X76127402Y-54402569D01*
X76173256Y-54560398D01*
X76256919Y-54701865D01*
X76310051Y-54754997D01*
X76337827Y-54809512D01*
X76328256Y-54869944D01*
X76310050Y-54895002D01*
X76231920Y-54973133D01*
X76148256Y-55114602D01*
X76102403Y-55272427D01*
X76102401Y-55272434D01*
X76099500Y-55309311D01*
X76099500Y-56390688D01*
X76102401Y-56427565D01*
X76102401Y-56427568D01*
X76102402Y-56427569D01*
X76148256Y-56585398D01*
X76231919Y-56726865D01*
X76348135Y-56843081D01*
X76489602Y-56926744D01*
X76647431Y-56972598D01*
X76684306Y-56975500D01*
X76684311Y-56975500D01*
X77315689Y-56975500D01*
X77315694Y-56975500D01*
X77352569Y-56972598D01*
X77510398Y-56926744D01*
X77651865Y-56843081D01*
X77768081Y-56726865D01*
X77851744Y-56585398D01*
X77854931Y-56574425D01*
X77889322Y-56523822D01*
X77946890Y-56503096D01*
X78005646Y-56520166D01*
X78043147Y-56568512D01*
X78045065Y-56574415D01*
X78048256Y-56585398D01*
X78131919Y-56726865D01*
X78248135Y-56843081D01*
X78389602Y-56926744D01*
X78547431Y-56972598D01*
X78584306Y-56975500D01*
X78584311Y-56975500D01*
X79215689Y-56975500D01*
X79215694Y-56975500D01*
X79252569Y-56972598D01*
X79410398Y-56926744D01*
X79551865Y-56843081D01*
X79668081Y-56726865D01*
X79751744Y-56585398D01*
X79797598Y-56427569D01*
X79800500Y-56390694D01*
X79800500Y-55309306D01*
X79797598Y-55272431D01*
X79751744Y-55114602D01*
X79668081Y-54973135D01*
X79589947Y-54895001D01*
X79562172Y-54840487D01*
X79571743Y-54780055D01*
X79589946Y-54754999D01*
X79643081Y-54701865D01*
X79726744Y-54560398D01*
X79772598Y-54402569D01*
X79775500Y-54365694D01*
X79775500Y-53334306D01*
X79772598Y-53297431D01*
X79726744Y-53139602D01*
X79643081Y-52998135D01*
X79526865Y-52881919D01*
X79526862Y-52881917D01*
X79526861Y-52881916D01*
X79436606Y-52828539D01*
X79396143Y-52782643D01*
X79388001Y-52743326D01*
X79388001Y-52650818D01*
X79388001Y-52650817D01*
X79352189Y-52517165D01*
X79352187Y-52517162D01*
X79352187Y-52517160D01*
X79283008Y-52397339D01*
X79283006Y-52397337D01*
X79283005Y-52397335D01*
X78212672Y-51327003D01*
X78184896Y-51272487D01*
X78194467Y-51212055D01*
X78237732Y-51168790D01*
X78282677Y-51158000D01*
X80032830Y-51158000D01*
X80032846Y-51158001D01*
X80038909Y-51158001D01*
X80177275Y-51158001D01*
X80282683Y-51129756D01*
X80310928Y-51122188D01*
X80430757Y-51053005D01*
X80528597Y-50955165D01*
X80528597Y-50955163D01*
X80536747Y-50947014D01*
X80536748Y-50947011D01*
X80830293Y-50653467D01*
X80884808Y-50625691D01*
X80945240Y-50635262D01*
X80970299Y-50653468D01*
X82476339Y-52159508D01*
X82492071Y-52180012D01*
X83038685Y-53126773D01*
X83098444Y-53200570D01*
X83204836Y-53269662D01*
X83204841Y-53269665D01*
X83327385Y-53302501D01*
X83454077Y-53295861D01*
X83542724Y-53261833D01*
X84686775Y-52601313D01*
X84760569Y-52541557D01*
X84829665Y-52435159D01*
X84862501Y-52312615D01*
X84855861Y-52185923D01*
X84821833Y-52097276D01*
X84387935Y-51345745D01*
X84161314Y-50953226D01*
X84119625Y-50901744D01*
X84101557Y-50879431D01*
X84101556Y-50879430D01*
X84101555Y-50879429D01*
X83995163Y-50810337D01*
X83995160Y-50810335D01*
X83872615Y-50777499D01*
X83872609Y-50777499D01*
X83745925Y-50784138D01*
X83657282Y-50818164D01*
X83657278Y-50818166D01*
X83657276Y-50818167D01*
X83250526Y-51053005D01*
X83066305Y-51159365D01*
X83006457Y-51172086D01*
X82950561Y-51147199D01*
X82946801Y-51143632D01*
X81454792Y-49651623D01*
X81427015Y-49597106D01*
X81425796Y-49581619D01*
X81425796Y-46757518D01*
X81444703Y-46699327D01*
X81494203Y-46663363D01*
X81538406Y-46661048D01*
X81538438Y-46660453D01*
X81544106Y-46660750D01*
X81545388Y-46660683D01*
X81546211Y-46660858D01*
X81546219Y-46660861D01*
X81672911Y-46667501D01*
X81795455Y-46634665D01*
X81901851Y-46565570D01*
X81901852Y-46565570D01*
X81917118Y-46546718D01*
X81961610Y-46491776D01*
X82622127Y-45347724D01*
X82656157Y-45259077D01*
X82662797Y-45132385D01*
X82629961Y-45009841D01*
X82629958Y-45009836D01*
X82560866Y-44903444D01*
X82560866Y-44903443D01*
X82487071Y-44843685D01*
X81404179Y-44218479D01*
X81343020Y-44183169D01*
X81343019Y-44183168D01*
X81343018Y-44183168D01*
X81303979Y-44168182D01*
X81254373Y-44149139D01*
X81191027Y-44145819D01*
X81127685Y-44142499D01*
X81127680Y-44142499D01*
X81005135Y-44175335D01*
X81005132Y-44175337D01*
X80898740Y-44244429D01*
X80898739Y-44244429D01*
X80838981Y-44318224D01*
X80178464Y-45462277D01*
X80153751Y-45526654D01*
X80144435Y-45550923D01*
X80143075Y-45576865D01*
X80137795Y-45677610D01*
X80137795Y-45677615D01*
X80170631Y-45800160D01*
X80170633Y-45800163D01*
X80239725Y-45906555D01*
X80239725Y-45906556D01*
X80313512Y-45966308D01*
X80313515Y-45966310D01*
X80313520Y-45966314D01*
X80313527Y-45966318D01*
X80313533Y-45966322D01*
X80325294Y-45973112D01*
X80366236Y-46018580D01*
X80374796Y-46058849D01*
X80374796Y-49581619D01*
X80355889Y-49639810D01*
X80345800Y-49651622D01*
X79919420Y-50078003D01*
X79864903Y-50105781D01*
X79849416Y-50107000D01*
X77903499Y-50107000D01*
X77845308Y-50088093D01*
X77809344Y-50038593D01*
X77804499Y-50008000D01*
X77804499Y-49971978D01*
X77804498Y-49971976D01*
X77789647Y-49878200D01*
X77789646Y-49878198D01*
X77789646Y-49878196D01*
X77732050Y-49765158D01*
X77642342Y-49675450D01*
X77529304Y-49617854D01*
X77529305Y-49617854D01*
X77435521Y-49603000D01*
X76114482Y-49603000D01*
X76055690Y-49612311D01*
X75995258Y-49602737D01*
X75970205Y-49584535D01*
X75900165Y-49514495D01*
X75900162Y-49514493D01*
X75780337Y-49445312D01*
X75780339Y-49445312D01*
X75765554Y-49441350D01*
X75752091Y-49437743D01*
X75646683Y-49409499D01*
X75508317Y-49409499D01*
X75502254Y-49409499D01*
X75502238Y-49409500D01*
X73048578Y-49409500D01*
X72990387Y-49390593D01*
X72974793Y-49375219D01*
X72974693Y-49375320D01*
X72969689Y-49370316D01*
X72969687Y-49370313D01*
X72933476Y-49343206D01*
X72860228Y-49288373D01*
X72860226Y-49288372D01*
X72732114Y-49240588D01*
X72732113Y-49240587D01*
X72693895Y-49236479D01*
X72675485Y-49234500D01*
X72675481Y-49234500D01*
X70764521Y-49234500D01*
X70764515Y-49234501D01*
X70707888Y-49240587D01*
X70707886Y-49240588D01*
X70584095Y-49286760D01*
X70522968Y-49289381D01*
X70471973Y-49255570D01*
X70450591Y-49198242D01*
X70450500Y-49194002D01*
X70450500Y-46028775D01*
X70469407Y-45970584D01*
X70479490Y-45958777D01*
X70665462Y-45772806D01*
X70665465Y-45772805D01*
X70763305Y-45674965D01*
X70832488Y-45555136D01*
X70843162Y-45515300D01*
X70852252Y-45481379D01*
X70861346Y-45447435D01*
X70868300Y-45421484D01*
X70868300Y-45283117D01*
X70868300Y-43724500D01*
X70887207Y-43666309D01*
X70936707Y-43630345D01*
X70967300Y-43625500D01*
X71387089Y-43625500D01*
X71387094Y-43625500D01*
X71423969Y-43622598D01*
X71581798Y-43576744D01*
X71723265Y-43493081D01*
X71839481Y-43376865D01*
X71886188Y-43297887D01*
X71932082Y-43257427D01*
X71992996Y-43251668D01*
X72045661Y-43282814D01*
X72056608Y-43297881D01*
X72103319Y-43376865D01*
X72219535Y-43493081D01*
X72361002Y-43576744D01*
X72518831Y-43622598D01*
X72555706Y-43625500D01*
X72555711Y-43625500D01*
X73212089Y-43625500D01*
X73212094Y-43625500D01*
X73248969Y-43622598D01*
X73406798Y-43576744D01*
X73548265Y-43493081D01*
X73578196Y-43463149D01*
X73632712Y-43435372D01*
X73693144Y-43444943D01*
X73718200Y-43463146D01*
X73773135Y-43518081D01*
X73914602Y-43601744D01*
X74072431Y-43647598D01*
X74109306Y-43650500D01*
X74109311Y-43650500D01*
X74740689Y-43650500D01*
X74740694Y-43650500D01*
X74777569Y-43647598D01*
X74935398Y-43601744D01*
X75076865Y-43518081D01*
X75193081Y-43401865D01*
X75276744Y-43260398D01*
X75322598Y-43102569D01*
X75325500Y-43065694D01*
X75325500Y-41984306D01*
X75322598Y-41947431D01*
X75276744Y-41789602D01*
X75223690Y-41699893D01*
X75210344Y-41640182D01*
X75234644Y-41584029D01*
X75287309Y-41552883D01*
X75308905Y-41550499D01*
X75956521Y-41550499D01*
X75956522Y-41550498D01*
X76003411Y-41543072D01*
X76050299Y-41535647D01*
X76050299Y-41535646D01*
X76050304Y-41535646D01*
X76163342Y-41478050D01*
X76253050Y-41388342D01*
X76310646Y-41275304D01*
X76325500Y-41181519D01*
X76325500Y-40696585D01*
X76344407Y-40638394D01*
X76393907Y-40602430D01*
X76455093Y-40602430D01*
X76494504Y-40626581D01*
X76495181Y-40627258D01*
X76495184Y-40627262D01*
X76622738Y-40754816D01*
X76622740Y-40754817D01*
X76622741Y-40754818D01*
X76764964Y-40844183D01*
X76775478Y-40850789D01*
X76843657Y-40874646D01*
X76945738Y-40910366D01*
X76945742Y-40910367D01*
X76945745Y-40910368D01*
X77125000Y-40930565D01*
X77304255Y-40910368D01*
X77474522Y-40850789D01*
X77627262Y-40754816D01*
X77754816Y-40627262D01*
X77850789Y-40474522D01*
X77910368Y-40304255D01*
X77930565Y-40125000D01*
X77910368Y-39945745D01*
X77850789Y-39775478D01*
X77822003Y-39729666D01*
X77754818Y-39622741D01*
X77754817Y-39622740D01*
X77754816Y-39622738D01*
X77627262Y-39495184D01*
X77627259Y-39495182D01*
X77627258Y-39495181D01*
X77474523Y-39399211D01*
X77304261Y-39339633D01*
X77304257Y-39339632D01*
X77198674Y-39327736D01*
X77125000Y-39319435D01*
X77124998Y-39319435D01*
X77083687Y-39324089D01*
X77023746Y-39311814D01*
X77023106Y-39311448D01*
X76977834Y-39285311D01*
X76977833Y-39285310D01*
X76949592Y-39277743D01*
X76949591Y-39277743D01*
X76844183Y-39249499D01*
X76705817Y-39249499D01*
X76699754Y-39249499D01*
X76699738Y-39249500D01*
X76424499Y-39249500D01*
X76366308Y-39230593D01*
X76330344Y-39181093D01*
X76325499Y-39150500D01*
X76325499Y-38368478D01*
X76325498Y-38368476D01*
X76310647Y-38274700D01*
X76310646Y-38274698D01*
X76310646Y-38274696D01*
X76253050Y-38161658D01*
X76163342Y-38071950D01*
X76050304Y-38014354D01*
X76050305Y-38014354D01*
X75956522Y-37999500D01*
X75956519Y-37999500D01*
X75768500Y-37999500D01*
X75710309Y-37980593D01*
X75674345Y-37931093D01*
X75669500Y-37900500D01*
X75669500Y-35889499D01*
X75688407Y-35831308D01*
X75737907Y-35795344D01*
X75768500Y-35790499D01*
X75956521Y-35790499D01*
X75956522Y-35790498D01*
X76003411Y-35783072D01*
X76050299Y-35775647D01*
X76050299Y-35775646D01*
X76050304Y-35775646D01*
X76163342Y-35718050D01*
X76253050Y-35628342D01*
X76310646Y-35515304D01*
X76325500Y-35421519D01*
X76325499Y-32608482D01*
X76325499Y-32608481D01*
X76325499Y-32608478D01*
X76325498Y-32608476D01*
X76310647Y-32514700D01*
X76310646Y-32514698D01*
X76310646Y-32514696D01*
X76253050Y-32401658D01*
X76245393Y-32394001D01*
X76217618Y-32339487D01*
X76227189Y-32279055D01*
X76270454Y-32235790D01*
X76315399Y-32225000D01*
X86126000Y-32225000D01*
X86184191Y-32243907D01*
G37*
%TD.AperFunction*%
%TA.AperFunction,Conductor*%
G36*
X61092730Y-75978488D02*
G01*
X61109414Y-75991898D01*
X61431307Y-76313791D01*
X61431307Y-76313792D01*
X61526091Y-76408577D01*
X61637542Y-76483048D01*
X61637548Y-76483051D01*
X61637549Y-76483051D01*
X61637550Y-76483052D01*
X61688848Y-76504300D01*
X61761394Y-76534350D01*
X61892865Y-76560501D01*
X61892866Y-76560501D01*
X62031791Y-76560501D01*
X62031811Y-76560500D01*
X65575500Y-76560500D01*
X65633691Y-76579407D01*
X65669655Y-76628907D01*
X65674500Y-76659500D01*
X65674500Y-77865694D01*
X65675683Y-77880732D01*
X65677401Y-77902565D01*
X65677401Y-77902568D01*
X65677402Y-77902569D01*
X65678855Y-77907569D01*
X65721252Y-78053501D01*
X65719330Y-78114656D01*
X65681829Y-78163002D01*
X65625967Y-78180121D01*
X61126448Y-78170318D01*
X61068299Y-78151284D01*
X61032443Y-78101705D01*
X61031595Y-78043700D01*
X61072598Y-77902569D01*
X61075500Y-77865694D01*
X61075500Y-76434306D01*
X61072598Y-76397431D01*
X61026744Y-76239602D01*
X60952333Y-76113780D01*
X60938987Y-76054070D01*
X60963287Y-75997917D01*
X60975458Y-75987282D01*
X60974984Y-75986706D01*
X60976555Y-75985415D01*
X60978443Y-75984674D01*
X60982633Y-75981014D01*
X60982924Y-75980820D01*
X60984032Y-75982482D01*
X61033517Y-75963078D01*
X61092730Y-75978488D01*
G37*
%TD.AperFunction*%
%TA.AperFunction,Conductor*%
G36*
X52184913Y-75974238D02*
G01*
X52209948Y-75992432D01*
X52531307Y-76313791D01*
X52531307Y-76313792D01*
X52626091Y-76408577D01*
X52737542Y-76483048D01*
X52737548Y-76483051D01*
X52737549Y-76483051D01*
X52737550Y-76483052D01*
X52788848Y-76504300D01*
X52861394Y-76534350D01*
X52992865Y-76560501D01*
X52992866Y-76560501D01*
X53131791Y-76560501D01*
X53131811Y-76560500D01*
X56675500Y-76560500D01*
X56733691Y-76579407D01*
X56769655Y-76628907D01*
X56774500Y-76659500D01*
X56774500Y-77865694D01*
X56775683Y-77880732D01*
X56777401Y-77902565D01*
X56777401Y-77902568D01*
X56777402Y-77902569D01*
X56778855Y-77907569D01*
X56815615Y-78034099D01*
X56813693Y-78095254D01*
X56776192Y-78143600D01*
X56720330Y-78160719D01*
X52232078Y-78150940D01*
X52173929Y-78131906D01*
X52138073Y-78082327D01*
X52137225Y-78024322D01*
X52172598Y-77902569D01*
X52175500Y-77865694D01*
X52175500Y-76434306D01*
X52172598Y-76397431D01*
X52126744Y-76239602D01*
X52052871Y-76114689D01*
X52039524Y-76054977D01*
X52063824Y-75998824D01*
X52068084Y-75994288D01*
X52069959Y-75992414D01*
X52124483Y-75964651D01*
X52184913Y-75974238D01*
G37*
%TD.AperFunction*%
%TA.AperFunction,Conductor*%
G36*
X43397727Y-76191204D02*
G01*
X43407054Y-76199426D01*
X43621207Y-76413579D01*
X43732656Y-76488048D01*
X43732660Y-76488050D01*
X43732663Y-76488052D01*
X43768934Y-76503075D01*
X43768935Y-76503076D01*
X43816831Y-76522915D01*
X43856506Y-76539350D01*
X43987978Y-76565501D01*
X43987979Y-76565501D01*
X44126904Y-76565501D01*
X44126924Y-76565500D01*
X47775500Y-76565500D01*
X47833691Y-76584407D01*
X47869655Y-76633907D01*
X47874500Y-76664500D01*
X47874500Y-77870688D01*
X47877401Y-77907565D01*
X47877403Y-77907572D01*
X47908525Y-78014694D01*
X47906603Y-78075849D01*
X47869102Y-78124195D01*
X47813240Y-78141314D01*
X43339159Y-78131566D01*
X43281010Y-78112532D01*
X43245154Y-78062953D01*
X43244306Y-78004949D01*
X43272598Y-77907569D01*
X43275500Y-77870694D01*
X43275500Y-76439306D01*
X43272598Y-76402431D01*
X43241981Y-76297047D01*
X43243903Y-76235896D01*
X43281403Y-76187549D01*
X43340159Y-76170479D01*
X43397727Y-76191204D01*
G37*
%TD.AperFunction*%
%TA.AperFunction,Conductor*%
G36*
X40993093Y-54545794D02*
G01*
X40998729Y-54554473D01*
X41044480Y-54633716D01*
X41156284Y-54745520D01*
X41156286Y-54745521D01*
X42730504Y-56319739D01*
X42758281Y-56374256D01*
X42759500Y-56389743D01*
X42759500Y-64220220D01*
X42740593Y-64278411D01*
X42725636Y-64294774D01*
X42628239Y-64379867D01*
X42563171Y-64488770D01*
X42563168Y-64488777D01*
X42549212Y-64523569D01*
X42549206Y-64523586D01*
X42543744Y-64538920D01*
X42538521Y-64553581D01*
X42538520Y-64553585D01*
X42520083Y-64679098D01*
X42521315Y-64788940D01*
X42521316Y-64788946D01*
X42539421Y-64904294D01*
X42547675Y-64930961D01*
X42589375Y-65018489D01*
X42599000Y-65061069D01*
X42599000Y-66434581D01*
X42589613Y-66476658D01*
X42567505Y-66523741D01*
X42567501Y-66523751D01*
X42559252Y-66551502D01*
X42559250Y-66551515D01*
X42542469Y-66671596D01*
X42594027Y-71260160D01*
X42619494Y-73526717D01*
X42619500Y-73527829D01*
X42619500Y-75575992D01*
X42620750Y-75607820D01*
X42650658Y-75732388D01*
X42645859Y-75793384D01*
X42606122Y-75839911D01*
X42554394Y-75854500D01*
X41859306Y-75854500D01*
X41846773Y-75855486D01*
X41822434Y-75857401D01*
X41822427Y-75857403D01*
X41664602Y-75903256D01*
X41523136Y-75986918D01*
X41406918Y-76103136D01*
X41323256Y-76244602D01*
X41277403Y-76402427D01*
X41277401Y-76402434D01*
X41275486Y-76426773D01*
X41274894Y-76434306D01*
X41274500Y-76439311D01*
X41274500Y-77870688D01*
X41277401Y-77907565D01*
X41277403Y-77907572D01*
X41304344Y-78000305D01*
X41302422Y-78061460D01*
X41264921Y-78109806D01*
X41209059Y-78126925D01*
X40912784Y-78126280D01*
X40854635Y-78107246D01*
X40818779Y-78057668D01*
X40814000Y-78027280D01*
X40814000Y-54603985D01*
X40832907Y-54545794D01*
X40882407Y-54509830D01*
X40943593Y-54509830D01*
X40993093Y-54545794D01*
G37*
%TD.AperFunction*%
%TA.AperFunction,Conductor*%
G36*
X49333945Y-66869130D02*
G01*
X49348696Y-66876646D01*
X49442481Y-66891500D01*
X49710322Y-66891499D01*
X49768512Y-66910406D01*
X49780326Y-66920495D01*
X52910504Y-70050673D01*
X52938281Y-70105190D01*
X52939500Y-70120677D01*
X52939500Y-73386803D01*
X52920593Y-73444994D01*
X52871093Y-73480958D01*
X52809907Y-73480958D01*
X52804182Y-73478901D01*
X52782678Y-73470421D01*
X52756564Y-73460123D01*
X52738871Y-73457998D01*
X52668106Y-73449500D01*
X52668102Y-73449500D01*
X52281898Y-73449500D01*
X52281893Y-73449500D01*
X52193434Y-73460123D01*
X52052660Y-73515637D01*
X52052656Y-73515640D01*
X51932081Y-73607075D01*
X51932075Y-73607081D01*
X51840640Y-73727656D01*
X51840637Y-73727660D01*
X51785123Y-73868434D01*
X51774500Y-73956893D01*
X51774500Y-74322119D01*
X51755593Y-74380310D01*
X51745504Y-74392123D01*
X51327011Y-74810616D01*
X51272494Y-74838393D01*
X51257007Y-74839612D01*
X48426923Y-74839612D01*
X48426903Y-74839611D01*
X48422023Y-74839611D01*
X48287977Y-74839611D01*
X48287974Y-74839611D01*
X48156506Y-74865762D01*
X48156504Y-74865762D01*
X48083959Y-74895811D01*
X48032663Y-74917059D01*
X47921206Y-74991532D01*
X47826421Y-75086318D01*
X47826419Y-75086320D01*
X47776647Y-75136093D01*
X47737237Y-75175503D01*
X47682721Y-75203281D01*
X47667233Y-75204500D01*
X47374500Y-75204500D01*
X47316309Y-75185593D01*
X47280345Y-75136093D01*
X47275500Y-75105500D01*
X47275500Y-73961899D01*
X47275499Y-73961893D01*
X47264877Y-73873436D01*
X47209361Y-73732658D01*
X47120616Y-73615630D01*
X47100521Y-73557839D01*
X47100500Y-73555811D01*
X47100500Y-73386469D01*
X47119407Y-73328278D01*
X47129490Y-73316471D01*
X48976662Y-71469299D01*
X48976665Y-71469298D01*
X49074505Y-71371458D01*
X49143688Y-71251629D01*
X49158236Y-71197335D01*
X49179501Y-71117976D01*
X49179501Y-70979610D01*
X49179501Y-70973548D01*
X49179500Y-70973530D01*
X49179500Y-66962689D01*
X49198407Y-66904498D01*
X49233552Y-66874481D01*
X49244057Y-66869128D01*
X49304487Y-66859558D01*
X49333945Y-66869130D01*
G37*
%TD.AperFunction*%
%TA.AperFunction,Conductor*%
G36*
X56654503Y-70404672D02*
G01*
X59090335Y-72840505D01*
X59090337Y-72840506D01*
X59090339Y-72840508D01*
X59210161Y-72909687D01*
X59210159Y-72909687D01*
X59210163Y-72909688D01*
X59210165Y-72909689D01*
X59343817Y-72945501D01*
X59343819Y-72945501D01*
X59488246Y-72945501D01*
X59488262Y-72945500D01*
X60517228Y-72945500D01*
X60575419Y-72964407D01*
X60611383Y-73013907D01*
X60612520Y-73057177D01*
X60615347Y-73057550D01*
X60614500Y-73063981D01*
X60614500Y-73063982D01*
X60614500Y-73176018D01*
X60615755Y-73180700D01*
X60643498Y-73284241D01*
X60676133Y-73340765D01*
X60699515Y-73381263D01*
X60778737Y-73460485D01*
X60795947Y-73470421D01*
X60836887Y-73515891D01*
X60843282Y-73576741D01*
X60825330Y-73615976D01*
X60740640Y-73727656D01*
X60740637Y-73727660D01*
X60685123Y-73868434D01*
X60674500Y-73956893D01*
X60674500Y-74322119D01*
X60655593Y-74380310D01*
X60645504Y-74392123D01*
X60292123Y-74745504D01*
X60237606Y-74773281D01*
X60222119Y-74774500D01*
X57387035Y-74774500D01*
X57387015Y-74774499D01*
X57382135Y-74774499D01*
X57248089Y-74774499D01*
X57248086Y-74774499D01*
X57116619Y-74800649D01*
X57116613Y-74800651D01*
X57038915Y-74832836D01*
X57038914Y-74832836D01*
X56992776Y-74851946D01*
X56992775Y-74851946D01*
X56895329Y-74917059D01*
X56895328Y-74917060D01*
X56881318Y-74926420D01*
X56637234Y-75170504D01*
X56582718Y-75198281D01*
X56567231Y-75199500D01*
X56274500Y-75199500D01*
X56216309Y-75180593D01*
X56180345Y-75131093D01*
X56175500Y-75100500D01*
X56175500Y-73978625D01*
X56194407Y-73920434D01*
X56204497Y-73908621D01*
X56244684Y-73868434D01*
X56380505Y-73732614D01*
X56449689Y-73612784D01*
X56485501Y-73479132D01*
X56485501Y-73340765D01*
X56485501Y-73334703D01*
X56485500Y-73334685D01*
X56485500Y-70474677D01*
X56504407Y-70416486D01*
X56553907Y-70380522D01*
X56615093Y-70380522D01*
X56654503Y-70404672D01*
G37*
%TD.AperFunction*%
%TA.AperFunction,Conductor*%
G36*
X64334672Y-71373020D02*
G01*
X64368666Y-71423893D01*
X64368452Y-71478388D01*
X64324803Y-71628627D01*
X64324801Y-71628634D01*
X64321900Y-71665511D01*
X64321900Y-72496888D01*
X64324801Y-72533765D01*
X64324801Y-72533768D01*
X64324802Y-72533769D01*
X64370656Y-72691598D01*
X64454319Y-72833065D01*
X64570535Y-72949281D01*
X64712002Y-73032944D01*
X64869831Y-73078798D01*
X64906706Y-73081700D01*
X66222900Y-73081700D01*
X66281091Y-73100607D01*
X66317055Y-73150107D01*
X66321900Y-73180700D01*
X66321900Y-74344831D01*
X66302993Y-74403022D01*
X66292904Y-74414835D01*
X65537235Y-75170504D01*
X65482718Y-75198281D01*
X65467231Y-75199500D01*
X65174500Y-75199500D01*
X65116309Y-75180593D01*
X65080345Y-75131093D01*
X65075500Y-75100500D01*
X65075500Y-73956899D01*
X65075499Y-73956893D01*
X65064877Y-73868436D01*
X65011332Y-73732656D01*
X65009362Y-73727660D01*
X65009361Y-73727659D01*
X65009361Y-73727658D01*
X64917922Y-73607078D01*
X64849499Y-73555191D01*
X64797340Y-73515637D01*
X64711578Y-73481817D01*
X64677893Y-73459724D01*
X62868873Y-71650704D01*
X62841096Y-71596187D01*
X62850667Y-71535755D01*
X62893932Y-71492490D01*
X62938877Y-71481700D01*
X63765500Y-71481700D01*
X63765502Y-71481700D01*
X63853964Y-71471077D01*
X63860237Y-71468602D01*
X63896557Y-71461700D01*
X63939420Y-71461700D01*
X63939422Y-71461700D01*
X64070894Y-71435550D01*
X64158462Y-71399276D01*
X64158464Y-71399276D01*
X64194731Y-71384255D01*
X64194734Y-71384252D01*
X64194737Y-71384252D01*
X64218380Y-71368453D01*
X64277268Y-71351844D01*
X64334672Y-71373020D01*
G37*
%TD.AperFunction*%
%TA.AperFunction,Conductor*%
G36*
X62244504Y-65187673D02*
G01*
X63670504Y-66613673D01*
X63698281Y-66668190D01*
X63699500Y-66683677D01*
X63699500Y-66981700D01*
X63680593Y-67039891D01*
X63631093Y-67075855D01*
X63600500Y-67080700D01*
X62429293Y-67080700D01*
X62340833Y-67091323D01*
X62210819Y-67142595D01*
X62149749Y-67146354D01*
X62098133Y-67113499D01*
X62075687Y-67056579D01*
X62075500Y-67050498D01*
X62075500Y-65257677D01*
X62094407Y-65199486D01*
X62143907Y-65163522D01*
X62205093Y-65163522D01*
X62244504Y-65187673D01*
G37*
%TD.AperFunction*%
%TA.AperFunction,Conductor*%
G36*
X44129504Y-62072673D02*
G01*
X45085493Y-63028662D01*
X45085495Y-63028665D01*
X45183335Y-63126505D01*
X45303164Y-63195688D01*
X45436817Y-63231500D01*
X45575183Y-63231500D01*
X58842311Y-63231500D01*
X58900502Y-63250407D01*
X58930524Y-63285562D01*
X58935873Y-63296062D01*
X58945440Y-63356495D01*
X58935871Y-63385943D01*
X58928354Y-63400696D01*
X58913500Y-63494479D01*
X58913500Y-64457518D01*
X58916430Y-64476017D01*
X58906856Y-64536449D01*
X58863589Y-64579712D01*
X58818648Y-64590500D01*
X58332479Y-64590500D01*
X58332478Y-64590501D01*
X58238700Y-64605352D01*
X58238697Y-64605353D01*
X58223943Y-64612871D01*
X58163511Y-64622441D01*
X58134057Y-64612871D01*
X58119304Y-64605354D01*
X58072411Y-64597927D01*
X58025520Y-64590500D01*
X57062478Y-64590500D01*
X56968700Y-64605352D01*
X56968697Y-64605353D01*
X56953943Y-64612871D01*
X56893511Y-64622441D01*
X56864057Y-64612871D01*
X56849304Y-64605354D01*
X56802411Y-64597927D01*
X56755520Y-64590500D01*
X55792478Y-64590500D01*
X55698700Y-64605352D01*
X55698697Y-64605353D01*
X55683943Y-64612871D01*
X55623511Y-64622441D01*
X55594057Y-64612871D01*
X55579304Y-64605354D01*
X55532411Y-64597927D01*
X55485520Y-64590500D01*
X54522478Y-64590500D01*
X54428700Y-64605352D01*
X54428697Y-64605353D01*
X54413943Y-64612871D01*
X54353511Y-64622441D01*
X54324057Y-64612871D01*
X54309304Y-64605354D01*
X54262411Y-64597927D01*
X54215520Y-64590500D01*
X53252478Y-64590500D01*
X53158700Y-64605352D01*
X53158697Y-64605353D01*
X53143943Y-64612871D01*
X53083511Y-64622441D01*
X53054057Y-64612871D01*
X53039304Y-64605354D01*
X52992411Y-64597927D01*
X52945520Y-64590500D01*
X51982478Y-64590500D01*
X51888700Y-64605352D01*
X51888697Y-64605353D01*
X51873943Y-64612871D01*
X51813511Y-64622441D01*
X51784057Y-64612871D01*
X51769304Y-64605354D01*
X51722411Y-64597927D01*
X51675520Y-64590500D01*
X50712478Y-64590500D01*
X50618700Y-64605352D01*
X50618697Y-64605353D01*
X50603943Y-64612871D01*
X50543511Y-64622441D01*
X50514057Y-64612871D01*
X50499304Y-64605354D01*
X50452411Y-64597927D01*
X50405520Y-64590500D01*
X49442478Y-64590500D01*
X49348700Y-64605352D01*
X49348697Y-64605353D01*
X49333943Y-64612871D01*
X49273511Y-64622441D01*
X49244057Y-64612871D01*
X49229304Y-64605354D01*
X49182411Y-64597927D01*
X49135520Y-64590500D01*
X48172478Y-64590500D01*
X48078700Y-64605352D01*
X48078697Y-64605353D01*
X48063943Y-64612871D01*
X48003511Y-64622441D01*
X47974057Y-64612871D01*
X47959304Y-64605354D01*
X47912411Y-64597927D01*
X47865520Y-64590500D01*
X46902478Y-64590500D01*
X46808700Y-64605352D01*
X46808697Y-64605353D01*
X46793943Y-64612871D01*
X46733511Y-64622441D01*
X46704057Y-64612871D01*
X46689304Y-64605354D01*
X46642411Y-64597927D01*
X46595520Y-64590500D01*
X45632478Y-64590500D01*
X45538700Y-64605352D01*
X45538697Y-64605353D01*
X45523943Y-64612871D01*
X45463511Y-64622441D01*
X45434057Y-64612871D01*
X45419304Y-64605354D01*
X45388042Y-64600402D01*
X45325521Y-64590500D01*
X45325519Y-64590500D01*
X44994851Y-64590500D01*
X44936660Y-64571593D01*
X44900700Y-64522105D01*
X44899632Y-64518820D01*
X44887188Y-64488779D01*
X44885280Y-64484171D01*
X44885277Y-64484165D01*
X44885273Y-64484156D01*
X44856395Y-64427482D01*
X44808551Y-64371463D01*
X44774002Y-64331010D01*
X44774001Y-64331009D01*
X44665833Y-64264722D01*
X44665830Y-64264720D01*
X44665829Y-64264720D01*
X44631181Y-64250368D01*
X44623350Y-64247479D01*
X44601308Y-64239347D01*
X44476002Y-64219500D01*
X44476000Y-64219500D01*
X44059500Y-64219500D01*
X44001309Y-64200593D01*
X43965345Y-64151093D01*
X43960500Y-64120500D01*
X43960500Y-62142677D01*
X43979407Y-62084486D01*
X44028907Y-62048522D01*
X44090093Y-62048522D01*
X44129504Y-62072673D01*
G37*
%TD.AperFunction*%
%TA.AperFunction,Conductor*%
G36*
X43243114Y-46564406D02*
G01*
X43279078Y-46613906D01*
X43279078Y-46675092D01*
X43254927Y-46714503D01*
X43251337Y-46718093D01*
X43251335Y-46718095D01*
X43251334Y-46718094D01*
X43153497Y-46815932D01*
X43153495Y-46815934D01*
X43153495Y-46815935D01*
X43142530Y-46834927D01*
X43084311Y-46935765D01*
X43084310Y-46935769D01*
X43082515Y-46942469D01*
X43056612Y-47039135D01*
X43023288Y-47090449D01*
X43004938Y-47100441D01*
X43005639Y-47101816D01*
X42885659Y-47162949D01*
X42795949Y-47252659D01*
X42738354Y-47365695D01*
X42723500Y-47459478D01*
X42723500Y-49022521D01*
X42723501Y-49022523D01*
X42738352Y-49116299D01*
X42738354Y-49116304D01*
X42795950Y-49229342D01*
X42885658Y-49319050D01*
X42998696Y-49376646D01*
X43092481Y-49391500D01*
X44055518Y-49391499D01*
X44055521Y-49391499D01*
X44055522Y-49391498D01*
X44102411Y-49384072D01*
X44149299Y-49376647D01*
X44149301Y-49376646D01*
X44149304Y-49376646D01*
X44164053Y-49369130D01*
X44224484Y-49359557D01*
X44253945Y-49369130D01*
X44268696Y-49376646D01*
X44362481Y-49391500D01*
X44934963Y-49391499D01*
X44993154Y-49410406D01*
X45029118Y-49459906D01*
X45033340Y-49501581D01*
X45019435Y-49625000D01*
X45024538Y-49670289D01*
X45039632Y-49804257D01*
X45039633Y-49804261D01*
X45099211Y-49974522D01*
X45099211Y-49974523D01*
X45195181Y-50127258D01*
X45195184Y-50127262D01*
X45322738Y-50254816D01*
X45475478Y-50350789D01*
X45543657Y-50374646D01*
X45645738Y-50410366D01*
X45645742Y-50410367D01*
X45645745Y-50410368D01*
X45825000Y-50430565D01*
X46004255Y-50410368D01*
X46174522Y-50350789D01*
X46327262Y-50254816D01*
X46338252Y-50243825D01*
X46392767Y-50216046D01*
X46453199Y-50225616D01*
X46496465Y-50268879D01*
X46497453Y-50270872D01*
X46499211Y-50274523D01*
X46595181Y-50427258D01*
X46595184Y-50427262D01*
X46722738Y-50554816D01*
X46722740Y-50554817D01*
X46722741Y-50554818D01*
X46858805Y-50640313D01*
X46875478Y-50650789D01*
X46921178Y-50666780D01*
X47045738Y-50710366D01*
X47045742Y-50710367D01*
X47045745Y-50710368D01*
X47225000Y-50730565D01*
X47404255Y-50710368D01*
X47574522Y-50650789D01*
X47727262Y-50554816D01*
X47854816Y-50427262D01*
X47950789Y-50274522D01*
X48004974Y-50119667D01*
X48010366Y-50104261D01*
X48010367Y-50104257D01*
X48010368Y-50104255D01*
X48030565Y-49925000D01*
X48010368Y-49745745D01*
X47996541Y-49706231D01*
X47965617Y-49617854D01*
X47950789Y-49575478D01*
X47924673Y-49533914D01*
X47909500Y-49481244D01*
X47909500Y-49462689D01*
X47928407Y-49404498D01*
X47963552Y-49374481D01*
X47974057Y-49369128D01*
X48034487Y-49359558D01*
X48063945Y-49369130D01*
X48078696Y-49376646D01*
X48172481Y-49391500D01*
X49135518Y-49391499D01*
X49135521Y-49391499D01*
X49135522Y-49391498D01*
X49182411Y-49384072D01*
X49229299Y-49376647D01*
X49229301Y-49376646D01*
X49229304Y-49376646D01*
X49244053Y-49369130D01*
X49304484Y-49359557D01*
X49333945Y-49369130D01*
X49348696Y-49376646D01*
X49442481Y-49391500D01*
X50405518Y-49391499D01*
X50405521Y-49391499D01*
X50405522Y-49391498D01*
X50452411Y-49384072D01*
X50499299Y-49376647D01*
X50499301Y-49376646D01*
X50499304Y-49376646D01*
X50514053Y-49369130D01*
X50574484Y-49359557D01*
X50603945Y-49369130D01*
X50618696Y-49376646D01*
X50712481Y-49391500D01*
X51675518Y-49391499D01*
X51675521Y-49391499D01*
X51675522Y-49391498D01*
X51722411Y-49384072D01*
X51769299Y-49376647D01*
X51769301Y-49376646D01*
X51769304Y-49376646D01*
X51784053Y-49369130D01*
X51844484Y-49359557D01*
X51873945Y-49369130D01*
X51888696Y-49376646D01*
X51982481Y-49391500D01*
X52945518Y-49391499D01*
X52945521Y-49391499D01*
X52945522Y-49391498D01*
X52992411Y-49384072D01*
X53039299Y-49376647D01*
X53039301Y-49376646D01*
X53039304Y-49376646D01*
X53054053Y-49369130D01*
X53114484Y-49359557D01*
X53143945Y-49369130D01*
X53158696Y-49376646D01*
X53252481Y-49391500D01*
X54215518Y-49391499D01*
X54215521Y-49391499D01*
X54215522Y-49391498D01*
X54262411Y-49384072D01*
X54309299Y-49376647D01*
X54309301Y-49376646D01*
X54309304Y-49376646D01*
X54324053Y-49369130D01*
X54384484Y-49359557D01*
X54413945Y-49369130D01*
X54428696Y-49376646D01*
X54522481Y-49391500D01*
X55485518Y-49391499D01*
X55485521Y-49391499D01*
X55485522Y-49391498D01*
X55532411Y-49384072D01*
X55579299Y-49376647D01*
X55579301Y-49376646D01*
X55579304Y-49376646D01*
X55594053Y-49369130D01*
X55654484Y-49359557D01*
X55683945Y-49369130D01*
X55698696Y-49376646D01*
X55792481Y-49391500D01*
X56755518Y-49391499D01*
X56755521Y-49391499D01*
X56755522Y-49391498D01*
X56802411Y-49384072D01*
X56849299Y-49376647D01*
X56849301Y-49376646D01*
X56849304Y-49376646D01*
X56864053Y-49369130D01*
X56924484Y-49359557D01*
X56953945Y-49369130D01*
X56968696Y-49376646D01*
X57062481Y-49391500D01*
X58025518Y-49391499D01*
X58025521Y-49391499D01*
X58025522Y-49391498D01*
X58072411Y-49384072D01*
X58119299Y-49376647D01*
X58119301Y-49376646D01*
X58119304Y-49376646D01*
X58134053Y-49369130D01*
X58194484Y-49359557D01*
X58223945Y-49369130D01*
X58238696Y-49376646D01*
X58332481Y-49391500D01*
X58818647Y-49391499D01*
X58876838Y-49410406D01*
X58912802Y-49459906D01*
X58916429Y-49505982D01*
X58913500Y-49524479D01*
X58913500Y-50487521D01*
X58928352Y-50581299D01*
X58928353Y-50581302D01*
X58935871Y-50596057D01*
X58945441Y-50656489D01*
X58935871Y-50685943D01*
X58928354Y-50700696D01*
X58913500Y-50794479D01*
X58913500Y-51757521D01*
X58928352Y-51851299D01*
X58928353Y-51851302D01*
X58935871Y-51866057D01*
X58945441Y-51926489D01*
X58935871Y-51955943D01*
X58928354Y-51970696D01*
X58913500Y-52064479D01*
X58913500Y-53027521D01*
X58928352Y-53121299D01*
X58928353Y-53121302D01*
X58928353Y-53121303D01*
X58928354Y-53121304D01*
X58929396Y-53123350D01*
X58935871Y-53136057D01*
X58945441Y-53196489D01*
X58935871Y-53225943D01*
X58928354Y-53240696D01*
X58913500Y-53334479D01*
X58913500Y-54297521D01*
X58928352Y-54391299D01*
X58928353Y-54391302D01*
X58935871Y-54406057D01*
X58945441Y-54466489D01*
X58935871Y-54495943D01*
X58928354Y-54510696D01*
X58913500Y-54604479D01*
X58913500Y-55567521D01*
X58928352Y-55661299D01*
X58928353Y-55661302D01*
X58935871Y-55676057D01*
X58945441Y-55736489D01*
X58935871Y-55765942D01*
X58932312Y-55772928D01*
X58928354Y-55780696D01*
X58913500Y-55874479D01*
X58913500Y-56837521D01*
X58928352Y-56931299D01*
X58928353Y-56931302D01*
X58935871Y-56946057D01*
X58945441Y-57006489D01*
X58935871Y-57035943D01*
X58928354Y-57050696D01*
X58913500Y-57144479D01*
X58913500Y-58107521D01*
X58928352Y-58201299D01*
X58928353Y-58201302D01*
X58935871Y-58216057D01*
X58945441Y-58276489D01*
X58935871Y-58305943D01*
X58928354Y-58320696D01*
X58913500Y-58414479D01*
X58913500Y-59377521D01*
X58928352Y-59471299D01*
X58928353Y-59471302D01*
X58935871Y-59486057D01*
X58945441Y-59546489D01*
X58935871Y-59575943D01*
X58928354Y-59590696D01*
X58913500Y-59684479D01*
X58913500Y-60647521D01*
X58928352Y-60741299D01*
X58928353Y-60741302D01*
X58935871Y-60756057D01*
X58945441Y-60816489D01*
X58935871Y-60845943D01*
X58928354Y-60860696D01*
X58913500Y-60954479D01*
X58913500Y-61917521D01*
X58928352Y-62011299D01*
X58928353Y-62011302D01*
X58935871Y-62026057D01*
X58945441Y-62086489D01*
X58935873Y-62115938D01*
X58930524Y-62126438D01*
X58887263Y-62169706D01*
X58842311Y-62180500D01*
X45764677Y-62180500D01*
X45706486Y-62161593D01*
X45694673Y-62151504D01*
X44439496Y-60896327D01*
X44411719Y-60841810D01*
X44410500Y-60826323D01*
X44410500Y-55290818D01*
X44405574Y-55272434D01*
X44374688Y-55157164D01*
X44305505Y-55037335D01*
X44207665Y-54939495D01*
X44207662Y-54939493D01*
X43307958Y-54039789D01*
X43280181Y-53985272D01*
X43279585Y-53958698D01*
X43279744Y-53957285D01*
X43280565Y-53950000D01*
X43260368Y-53770745D01*
X43251571Y-53745606D01*
X43217335Y-53647764D01*
X43200789Y-53600478D01*
X43104816Y-53447738D01*
X42977262Y-53320184D01*
X42977259Y-53320182D01*
X42977258Y-53320181D01*
X42824523Y-53224211D01*
X42654261Y-53164633D01*
X42654257Y-53164632D01*
X42475000Y-53144435D01*
X42295742Y-53164632D01*
X42257197Y-53178120D01*
X42196027Y-53179492D01*
X42145733Y-53144647D01*
X42125525Y-53086895D01*
X42125500Y-53084675D01*
X42125500Y-52097585D01*
X42144407Y-52039394D01*
X42154490Y-52027587D01*
X42154816Y-52027262D01*
X42250789Y-51874522D01*
X42310368Y-51704255D01*
X42330565Y-51525000D01*
X42310368Y-51345745D01*
X42303810Y-51327004D01*
X42276288Y-51248350D01*
X42250789Y-51175478D01*
X42247557Y-51170335D01*
X42154818Y-51022741D01*
X42154817Y-51022740D01*
X42154816Y-51022738D01*
X42027262Y-50895184D01*
X42027259Y-50895182D01*
X42027256Y-50895179D01*
X41961828Y-50854068D01*
X41922616Y-50807100D01*
X41915500Y-50770243D01*
X41915500Y-47086387D01*
X41934407Y-47028196D01*
X41944490Y-47016389D01*
X42386384Y-46574494D01*
X42440901Y-46546718D01*
X42456388Y-46545499D01*
X43184923Y-46545499D01*
X43243114Y-46564406D01*
G37*
%TD.AperFunction*%
%TA.AperFunction,Conductor*%
G36*
X68109253Y-60401943D02*
G01*
X68139585Y-60425855D01*
X68175998Y-60468490D01*
X68176000Y-60468492D01*
X68284166Y-60534777D01*
X68284171Y-60534780D01*
X68318819Y-60549132D01*
X68348694Y-60560153D01*
X68425342Y-60572293D01*
X68479858Y-60600071D01*
X68507635Y-60654587D01*
X68508849Y-60671047D01*
X68508246Y-60732316D01*
X68537863Y-60855674D01*
X68537866Y-60855683D01*
X68552215Y-60890325D01*
X68552223Y-60890343D01*
X68581101Y-60947017D01*
X68581102Y-60947018D01*
X68663495Y-61043490D01*
X68771668Y-61109780D01*
X68806316Y-61124132D01*
X68836191Y-61135153D01*
X68914330Y-61147529D01*
X68961495Y-61155000D01*
X68961497Y-61155000D01*
X69914919Y-61155000D01*
X69966647Y-61169589D01*
X69992252Y-61185280D01*
X70026900Y-61199632D01*
X70056775Y-61210653D01*
X70134914Y-61223029D01*
X70182079Y-61230500D01*
X70182081Y-61230500D01*
X70236306Y-61230500D01*
X70294497Y-61249407D01*
X70324512Y-61284547D01*
X70325861Y-61287194D01*
X70335437Y-61347626D01*
X70307665Y-61402145D01*
X70260768Y-61428411D01*
X70169327Y-61450366D01*
X70169319Y-61450368D01*
X70169317Y-61450368D01*
X70169316Y-61450369D01*
X70134674Y-61464718D01*
X70134656Y-61464726D01*
X70077982Y-61493604D01*
X69981510Y-61575997D01*
X69934794Y-61652229D01*
X69888267Y-61691965D01*
X69850384Y-61699500D01*
X69721485Y-61699500D01*
X69721479Y-61699501D01*
X69662612Y-61705828D01*
X69529443Y-61755498D01*
X69415671Y-61840667D01*
X69415667Y-61840671D01*
X69330498Y-61954444D01*
X69317756Y-61988604D01*
X69279704Y-62036517D01*
X69220756Y-62052913D01*
X69163429Y-62031529D01*
X69132243Y-61988602D01*
X69119503Y-61954446D01*
X69034331Y-61840669D01*
X68979621Y-61799714D01*
X68920556Y-61755498D01*
X68920554Y-61755497D01*
X68787391Y-61705829D01*
X68787390Y-61705828D01*
X68747660Y-61701557D01*
X68728521Y-61699500D01*
X68728517Y-61699500D01*
X68603257Y-61699500D01*
X68545066Y-61680593D01*
X68515048Y-61645447D01*
X68505895Y-61627482D01*
X68423502Y-61531010D01*
X68423501Y-61531009D01*
X68315333Y-61464722D01*
X68315330Y-61464720D01*
X68315329Y-61464720D01*
X68280681Y-61450368D01*
X68272850Y-61447479D01*
X68250808Y-61439347D01*
X68125502Y-61419500D01*
X68125500Y-61419500D01*
X67974000Y-61419500D01*
X67951727Y-61420375D01*
X67942179Y-61420750D01*
X67818825Y-61450366D01*
X67818816Y-61450369D01*
X67784174Y-61464718D01*
X67784156Y-61464726D01*
X67727482Y-61493604D01*
X67631009Y-61575998D01*
X67564722Y-61684166D01*
X67564719Y-61684173D01*
X67550369Y-61718816D01*
X67539347Y-61748691D01*
X67531266Y-61799714D01*
X67503488Y-61854230D01*
X67448971Y-61882007D01*
X67388539Y-61872435D01*
X67363481Y-61854230D01*
X67031856Y-61522605D01*
X67004079Y-61468088D01*
X67013650Y-61407656D01*
X67031850Y-61382604D01*
X67994306Y-60420147D01*
X68048821Y-60392372D01*
X68109253Y-60401943D01*
G37*
%TD.AperFunction*%
%TA.AperFunction,Conductor*%
G36*
X65433115Y-51656795D02*
G01*
X65467422Y-51685674D01*
X65530313Y-51769687D01*
X65603563Y-51824521D01*
X65639338Y-51851302D01*
X65639774Y-51851628D01*
X65767886Y-51899412D01*
X65824515Y-51905500D01*
X66155500Y-51905499D01*
X66213690Y-51924406D01*
X66249655Y-51973906D01*
X66254500Y-52004499D01*
X66254500Y-53249837D01*
X66254499Y-53249855D01*
X66254499Y-53394285D01*
X66273982Y-53466993D01*
X66273982Y-53466994D01*
X66273983Y-53466994D01*
X66273983Y-53466995D01*
X66290312Y-53527936D01*
X66359495Y-53647765D01*
X66457335Y-53745605D01*
X66457337Y-53745606D01*
X68000805Y-55289074D01*
X68028582Y-55343591D01*
X68029114Y-55347439D01*
X68030704Y-55360872D01*
X68036045Y-55383119D01*
X68036046Y-55383122D01*
X68036047Y-55383124D01*
X68061764Y-55452831D01*
X68069037Y-55472545D01*
X68069040Y-55472552D01*
X68081608Y-55497217D01*
X68092399Y-55542163D01*
X68092399Y-56442232D01*
X68081610Y-56487174D01*
X68069038Y-56511850D01*
X68036044Y-56601283D01*
X68036043Y-56601286D01*
X68030705Y-56623522D01*
X68030705Y-56623523D01*
X68019500Y-56718187D01*
X68019500Y-57349009D01*
X68030706Y-57443681D01*
X68036045Y-57465919D01*
X68036046Y-57465922D01*
X68036047Y-57465924D01*
X68039580Y-57475500D01*
X68069037Y-57555345D01*
X68069040Y-57555352D01*
X68081608Y-57580017D01*
X68092399Y-57624963D01*
X68092399Y-58525032D01*
X68081610Y-58569974D01*
X68069038Y-58594650D01*
X68036044Y-58684083D01*
X68036043Y-58684086D01*
X68030705Y-58706322D01*
X68030705Y-58706323D01*
X68019499Y-58800992D01*
X68019481Y-58801309D01*
X68019453Y-58801378D01*
X68019157Y-58803887D01*
X68018502Y-58803809D01*
X67997192Y-58858290D01*
X67945666Y-58891287D01*
X67920652Y-58894499D01*
X67810056Y-58894499D01*
X67678589Y-58920649D01*
X67678583Y-58920651D01*
X67603229Y-58951865D01*
X67603228Y-58951865D01*
X67554746Y-58971946D01*
X67554745Y-58971946D01*
X67506018Y-59004506D01*
X67443288Y-59046421D01*
X67443284Y-59046424D01*
X65424205Y-61065504D01*
X65369688Y-61093281D01*
X65354201Y-61094500D01*
X64371921Y-61094500D01*
X64313730Y-61075593D01*
X64277766Y-61026093D01*
X64273628Y-60983693D01*
X64275499Y-60968116D01*
X64275500Y-60968100D01*
X64275500Y-60581899D01*
X64275499Y-60581893D01*
X64275272Y-60580000D01*
X64264877Y-60493436D01*
X64209361Y-60352658D01*
X64195832Y-60334818D01*
X64175737Y-60277031D01*
X64193446Y-60218465D01*
X64195804Y-60215218D01*
X64209361Y-60197342D01*
X64264877Y-60056564D01*
X64275500Y-59968102D01*
X64275500Y-59581898D01*
X64264877Y-59493436D01*
X64256148Y-59471302D01*
X64219166Y-59377521D01*
X64209361Y-59352658D01*
X64195832Y-59334818D01*
X64175737Y-59277031D01*
X64193446Y-59218465D01*
X64195804Y-59215218D01*
X64209361Y-59197342D01*
X64264877Y-59056564D01*
X64275500Y-58968102D01*
X64275500Y-58581898D01*
X64264877Y-58493436D01*
X64233740Y-58414479D01*
X64209362Y-58352660D01*
X64209361Y-58352659D01*
X64209361Y-58352658D01*
X64117922Y-58232078D01*
X63997342Y-58140639D01*
X63997341Y-58140638D01*
X63997339Y-58140637D01*
X63856565Y-58085123D01*
X63768106Y-58074500D01*
X63768102Y-58074500D01*
X62624500Y-58074500D01*
X62566309Y-58055593D01*
X62530345Y-58006093D01*
X62525500Y-57975500D01*
X62525500Y-57789171D01*
X62525501Y-57789158D01*
X62525501Y-57642818D01*
X62520717Y-57624963D01*
X62489689Y-57509165D01*
X62489687Y-57509162D01*
X62489687Y-57509160D01*
X62420508Y-57389339D01*
X62420506Y-57389337D01*
X62420505Y-57389335D01*
X61243494Y-56212325D01*
X61215718Y-56157809D01*
X61214499Y-56142322D01*
X61214499Y-56059311D01*
X64324500Y-56059311D01*
X64324500Y-56890688D01*
X64327401Y-56927565D01*
X64327401Y-56927568D01*
X64327402Y-56927569D01*
X64373256Y-57085398D01*
X64456919Y-57226865D01*
X64573135Y-57343081D01*
X64714602Y-57426744D01*
X64872431Y-57472598D01*
X64909306Y-57475500D01*
X64909311Y-57475500D01*
X66340689Y-57475500D01*
X66340694Y-57475500D01*
X66377569Y-57472598D01*
X66535398Y-57426744D01*
X66676865Y-57343081D01*
X66793081Y-57226865D01*
X66876744Y-57085398D01*
X66922598Y-56927569D01*
X66925500Y-56890694D01*
X66925500Y-56059306D01*
X66922598Y-56022431D01*
X66876744Y-55864602D01*
X66793081Y-55723135D01*
X66676865Y-55606919D01*
X66535398Y-55523256D01*
X66377569Y-55477402D01*
X66377568Y-55477401D01*
X66377565Y-55477401D01*
X66354140Y-55475558D01*
X66340694Y-55474500D01*
X64909306Y-55474500D01*
X64896773Y-55475486D01*
X64872434Y-55477401D01*
X64872427Y-55477403D01*
X64714602Y-55523256D01*
X64573136Y-55606918D01*
X64456918Y-55723136D01*
X64373256Y-55864602D01*
X64327403Y-56022427D01*
X64327401Y-56022434D01*
X64324500Y-56059311D01*
X61214499Y-56059311D01*
X61214499Y-55874478D01*
X61214498Y-55874476D01*
X61199647Y-55780700D01*
X61199646Y-55780696D01*
X61192131Y-55765948D01*
X61182557Y-55705516D01*
X61192133Y-55676048D01*
X61197484Y-55665548D01*
X61240751Y-55622287D01*
X61285690Y-55611500D01*
X63861726Y-55611500D01*
X63861742Y-55611501D01*
X63867805Y-55611501D01*
X64006171Y-55611501D01*
X64111579Y-55583256D01*
X64139824Y-55575688D01*
X64259653Y-55506505D01*
X64357493Y-55408665D01*
X64357494Y-55408662D01*
X65079662Y-54686494D01*
X65079665Y-54686493D01*
X65177505Y-54588653D01*
X65246688Y-54468824D01*
X65282500Y-54335171D01*
X65282500Y-51751675D01*
X65301407Y-51693484D01*
X65311485Y-51681683D01*
X65318169Y-51674999D01*
X65372683Y-51647224D01*
X65433115Y-51656795D01*
G37*
%TD.AperFunction*%
%TA.AperFunction,Conductor*%
G36*
X74592792Y-32243907D02*
G01*
X74628756Y-32293407D01*
X74628756Y-32354593D01*
X74604606Y-32394001D01*
X74596950Y-32401658D01*
X74596949Y-32401659D01*
X74539354Y-32514695D01*
X74524500Y-32608478D01*
X74524500Y-35421521D01*
X74524501Y-35421523D01*
X74539352Y-35515299D01*
X74539354Y-35515304D01*
X74596948Y-35628339D01*
X74599592Y-35631977D01*
X74618500Y-35690168D01*
X74618500Y-38099830D01*
X74599595Y-38158018D01*
X74596949Y-38161659D01*
X74539354Y-38274695D01*
X74524500Y-38368478D01*
X74524500Y-39891322D01*
X74505593Y-39949513D01*
X74495509Y-39961319D01*
X74102337Y-40354493D01*
X74102335Y-40354495D01*
X74102334Y-40354494D01*
X74004497Y-40452332D01*
X74004495Y-40452334D01*
X74004495Y-40452335D01*
X73935312Y-40572164D01*
X73935312Y-40572165D01*
X73935311Y-40572167D01*
X73931938Y-40584755D01*
X73931938Y-40584756D01*
X73899499Y-40705814D01*
X73899499Y-40852157D01*
X73899500Y-40852170D01*
X73899500Y-41400718D01*
X73880593Y-41458909D01*
X73850895Y-41485931D01*
X73773137Y-41531917D01*
X73773134Y-41531919D01*
X73718201Y-41586851D01*
X73663684Y-41614627D01*
X73603252Y-41605055D01*
X73578198Y-41586852D01*
X73548265Y-41556919D01*
X73406798Y-41473256D01*
X73248969Y-41427402D01*
X73248968Y-41427401D01*
X73248965Y-41427401D01*
X73225540Y-41425558D01*
X73212094Y-41424500D01*
X72555706Y-41424500D01*
X72543173Y-41425486D01*
X72518834Y-41427401D01*
X72518827Y-41427403D01*
X72361002Y-41473256D01*
X72219536Y-41556918D01*
X72219535Y-41556919D01*
X72103319Y-41673135D01*
X72058598Y-41748756D01*
X72056614Y-41752110D01*
X72010718Y-41792573D01*
X71949804Y-41798331D01*
X71897139Y-41767185D01*
X71886186Y-41752110D01*
X71839481Y-41673135D01*
X71723265Y-41556919D01*
X71581798Y-41473256D01*
X71423969Y-41427402D01*
X71423968Y-41427401D01*
X71423965Y-41427401D01*
X71400540Y-41425558D01*
X71387094Y-41424500D01*
X70730706Y-41424500D01*
X70718173Y-41425486D01*
X70693834Y-41427401D01*
X70693827Y-41427403D01*
X70536002Y-41473256D01*
X70394536Y-41556918D01*
X70278318Y-41673136D01*
X70194656Y-41814602D01*
X70148803Y-41972427D01*
X70148801Y-41972434D01*
X70147867Y-41984306D01*
X70145989Y-42008186D01*
X70145900Y-42009311D01*
X70145900Y-42653823D01*
X70126993Y-42712014D01*
X70116905Y-42723825D01*
X70020137Y-42820593D01*
X70020135Y-42820595D01*
X70020126Y-42820602D01*
X69922294Y-42918435D01*
X69853113Y-43038260D01*
X69853112Y-43038262D01*
X69848548Y-43055298D01*
X69848547Y-43055300D01*
X69817299Y-43171914D01*
X69817299Y-43318257D01*
X69817300Y-43318270D01*
X69817300Y-45093623D01*
X69798393Y-45151814D01*
X69788304Y-45163626D01*
X69602337Y-45349593D01*
X69602335Y-45349595D01*
X69602326Y-45349602D01*
X69504494Y-45447435D01*
X69435315Y-45567256D01*
X69435313Y-45567261D01*
X69435312Y-45567263D01*
X69435312Y-45567264D01*
X69427743Y-45595508D01*
X69410260Y-45660756D01*
X69399499Y-45700918D01*
X69399499Y-45847257D01*
X69399500Y-45847270D01*
X69399500Y-51038558D01*
X69380593Y-51096749D01*
X69370504Y-51108562D01*
X68794504Y-51684562D01*
X68739987Y-51712339D01*
X68679555Y-51702768D01*
X68636290Y-51659503D01*
X68625500Y-51614558D01*
X68625500Y-47689107D01*
X68624266Y-47684503D01*
X68624264Y-47684498D01*
X68591392Y-47561815D01*
X68575054Y-47533517D01*
X68525500Y-47447687D01*
X68525499Y-47447685D01*
X68432314Y-47354500D01*
X68432314Y-47354501D01*
X68182796Y-47104983D01*
X68160042Y-47069577D01*
X68159412Y-47067888D01*
X68159412Y-47067886D01*
X68111628Y-46939774D01*
X68107098Y-46933723D01*
X68074422Y-46890072D01*
X68072273Y-46887202D01*
X68052538Y-46829288D01*
X68065792Y-46778374D01*
X68078892Y-46755686D01*
X68113000Y-46628392D01*
X68113000Y-46496607D01*
X68113000Y-45846458D01*
X68131907Y-45788267D01*
X68161600Y-45761247D01*
X68276865Y-45693081D01*
X68393081Y-45576865D01*
X68476744Y-45435398D01*
X68522598Y-45277569D01*
X68525500Y-45240694D01*
X68525500Y-44209306D01*
X68522598Y-44172431D01*
X68476744Y-44014602D01*
X68393081Y-43873135D01*
X68276865Y-43756919D01*
X68276862Y-43756917D01*
X68215425Y-43720583D01*
X68174963Y-43674687D01*
X68169205Y-43613773D01*
X68200352Y-43561109D01*
X68215418Y-43550162D01*
X68269665Y-43518081D01*
X68385881Y-43401865D01*
X68469544Y-43260398D01*
X68515398Y-43102569D01*
X68518300Y-43065694D01*
X68518300Y-41984306D01*
X68515398Y-41947431D01*
X68469544Y-41789602D01*
X68447371Y-41752110D01*
X68429147Y-41721294D01*
X68415799Y-41661583D01*
X68440099Y-41605429D01*
X68492764Y-41574283D01*
X68514360Y-41571899D01*
X69213321Y-41571899D01*
X69213322Y-41571898D01*
X69260211Y-41564472D01*
X69307099Y-41557047D01*
X69307099Y-41557046D01*
X69307104Y-41557046D01*
X69420142Y-41499450D01*
X69509850Y-41409742D01*
X69567446Y-41296704D01*
X69582300Y-41202919D01*
X69582299Y-38389882D01*
X69582299Y-38389881D01*
X69582299Y-38389878D01*
X69582298Y-38389876D01*
X69567447Y-38296100D01*
X69567446Y-38296098D01*
X69567446Y-38296096D01*
X69509850Y-38183058D01*
X69420142Y-38093350D01*
X69307104Y-38035754D01*
X69307106Y-38035754D01*
X69290810Y-38033173D01*
X69236294Y-38005393D01*
X69208518Y-37950876D01*
X69207300Y-37935392D01*
X69207300Y-35897407D01*
X69226207Y-35839216D01*
X69275707Y-35803252D01*
X69290812Y-35799626D01*
X69307104Y-35797046D01*
X69420142Y-35739450D01*
X69509850Y-35649742D01*
X69567446Y-35536704D01*
X69582300Y-35442919D01*
X69582299Y-32629882D01*
X69582299Y-32629881D01*
X69582299Y-32629878D01*
X69582298Y-32629876D01*
X69567447Y-32536100D01*
X69567446Y-32536098D01*
X69567446Y-32536096D01*
X69509850Y-32423058D01*
X69480793Y-32394001D01*
X69453018Y-32339487D01*
X69462589Y-32279055D01*
X69505854Y-32235790D01*
X69550799Y-32225000D01*
X74534601Y-32225000D01*
X74592792Y-32243907D01*
G37*
%TD.AperFunction*%
%TA.AperFunction,Conductor*%
G36*
X66688935Y-43069407D02*
G01*
X66724899Y-43118907D01*
X66725802Y-43121845D01*
X66766056Y-43260398D01*
X66849719Y-43401865D01*
X66965935Y-43518081D01*
X67014874Y-43547023D01*
X67055336Y-43592918D01*
X67061094Y-43653832D01*
X67029948Y-43706497D01*
X67014874Y-43717449D01*
X66948137Y-43756917D01*
X66831918Y-43873136D01*
X66748256Y-44014602D01*
X66702403Y-44172427D01*
X66702401Y-44172434D01*
X66701557Y-44183168D01*
X66699500Y-44209306D01*
X66699500Y-45240694D01*
X66699702Y-45243255D01*
X66702401Y-45277565D01*
X66702401Y-45277568D01*
X66702402Y-45277569D01*
X66748256Y-45435398D01*
X66831919Y-45576865D01*
X66948135Y-45693081D01*
X67063397Y-45761246D01*
X67103857Y-45807140D01*
X67112000Y-45846458D01*
X67112000Y-46314178D01*
X67093093Y-46372369D01*
X67083004Y-46384181D01*
X66801680Y-46665504D01*
X66747165Y-46693281D01*
X66731678Y-46694500D01*
X65824521Y-46694500D01*
X65824515Y-46694501D01*
X65767888Y-46700587D01*
X65767884Y-46700588D01*
X65759094Y-46703867D01*
X65697965Y-46706486D01*
X65646971Y-46672673D01*
X65625591Y-46615345D01*
X65625500Y-46611108D01*
X65625500Y-46196811D01*
X65622598Y-46159934D01*
X65622598Y-46159931D01*
X65576744Y-46002102D01*
X65493081Y-45860635D01*
X65376865Y-45744419D01*
X65235398Y-45660756D01*
X65077569Y-45614902D01*
X65077568Y-45614901D01*
X65077565Y-45614901D01*
X65054140Y-45613058D01*
X65040694Y-45612000D01*
X64009306Y-45612000D01*
X63996773Y-45612986D01*
X63972434Y-45614901D01*
X63972427Y-45614903D01*
X63814602Y-45660756D01*
X63673136Y-45744418D01*
X63556918Y-45860636D01*
X63473256Y-46002102D01*
X63427403Y-46159927D01*
X63427401Y-46159934D01*
X63424500Y-46196811D01*
X63424500Y-46853188D01*
X63427401Y-46890065D01*
X63427401Y-46890068D01*
X63427402Y-46890069D01*
X63473256Y-47047898D01*
X63556919Y-47189365D01*
X63666302Y-47298748D01*
X63694078Y-47353263D01*
X63684507Y-47413695D01*
X63666303Y-47438750D01*
X63571537Y-47533517D01*
X63556918Y-47548136D01*
X63473256Y-47689602D01*
X63427403Y-47847427D01*
X63427401Y-47847434D01*
X63424500Y-47884311D01*
X63424500Y-48540688D01*
X63427401Y-48577565D01*
X63427401Y-48577568D01*
X63427402Y-48577569D01*
X63473256Y-48735398D01*
X63556919Y-48876865D01*
X63673135Y-48993081D01*
X63752110Y-49039787D01*
X63792573Y-49085682D01*
X63798331Y-49146596D01*
X63767185Y-49199261D01*
X63752113Y-49210211D01*
X63719182Y-49229687D01*
X63673136Y-49256918D01*
X63673135Y-49256918D01*
X63673135Y-49256919D01*
X63556919Y-49373135D01*
X63556917Y-49373137D01*
X63553104Y-49376951D01*
X63498587Y-49404728D01*
X63438155Y-49395157D01*
X63413099Y-49376953D01*
X63326865Y-49290719D01*
X63185398Y-49207056D01*
X63027569Y-49161202D01*
X63027568Y-49161201D01*
X63027565Y-49161201D01*
X63004140Y-49159358D01*
X62990694Y-49158300D01*
X61959306Y-49158300D01*
X61946773Y-49159286D01*
X61922434Y-49161201D01*
X61922427Y-49161203D01*
X61764602Y-49207056D01*
X61623136Y-49290718D01*
X61506918Y-49406936D01*
X61423256Y-49548401D01*
X61423256Y-49548402D01*
X61413606Y-49581619D01*
X61408568Y-49598959D01*
X61374176Y-49649564D01*
X61316608Y-49670289D01*
X61257852Y-49653219D01*
X61220352Y-49604872D01*
X61214499Y-49571338D01*
X61214499Y-49524478D01*
X61214498Y-49524476D01*
X61199647Y-49430700D01*
X61199646Y-49430698D01*
X61199646Y-49430696D01*
X61142050Y-49317658D01*
X61052342Y-49227950D01*
X60939304Y-49170354D01*
X60939305Y-49170354D01*
X60845522Y-49155500D01*
X60845519Y-49155500D01*
X60688500Y-49155500D01*
X60630309Y-49136593D01*
X60594345Y-49087093D01*
X60589500Y-49056500D01*
X60589500Y-47269982D01*
X60608407Y-47211791D01*
X60618496Y-47199978D01*
X62516139Y-45302335D01*
X64472505Y-43345970D01*
X64541689Y-43226140D01*
X64550641Y-43192728D01*
X64583963Y-43141416D01*
X64641084Y-43119488D01*
X64700184Y-43135322D01*
X64716265Y-43148343D01*
X64722738Y-43154816D01*
X64722740Y-43154817D01*
X64722741Y-43154818D01*
X64836252Y-43226142D01*
X64875478Y-43250789D01*
X64902939Y-43260398D01*
X65045738Y-43310366D01*
X65045742Y-43310367D01*
X65045745Y-43310368D01*
X65225000Y-43330565D01*
X65404255Y-43310368D01*
X65404490Y-43310286D01*
X65470342Y-43287243D01*
X65574522Y-43250789D01*
X65727262Y-43154816D01*
X65779513Y-43102565D01*
X65802583Y-43079496D01*
X65857100Y-43051719D01*
X65872586Y-43050500D01*
X66630744Y-43050500D01*
X66688935Y-43069407D01*
G37*
%TD.AperFunction*%
%TA.AperFunction,Conductor*%
G36*
X67870992Y-32243907D02*
G01*
X67906956Y-32293407D01*
X67906956Y-32354593D01*
X67882806Y-32394001D01*
X67853750Y-32423058D01*
X67853749Y-32423059D01*
X67796154Y-32536095D01*
X67781300Y-32629878D01*
X67781300Y-35442921D01*
X67781301Y-35442923D01*
X67796152Y-35536699D01*
X67796154Y-35536704D01*
X67853750Y-35649742D01*
X67943458Y-35739450D01*
X68056496Y-35797046D01*
X68072786Y-35799626D01*
X68127303Y-35827403D01*
X68155081Y-35881919D01*
X68156300Y-35897407D01*
X68156300Y-37935392D01*
X68137393Y-37993583D01*
X68087893Y-38029547D01*
X68072787Y-38033173D01*
X68056499Y-38035752D01*
X68056495Y-38035754D01*
X67943459Y-38093349D01*
X67853749Y-38183059D01*
X67796154Y-38296095D01*
X67781300Y-38389878D01*
X67781300Y-39912722D01*
X67762393Y-39970913D01*
X67752304Y-39982726D01*
X67295137Y-40439893D01*
X67295135Y-40439895D01*
X67295134Y-40439894D01*
X67197297Y-40537732D01*
X67197295Y-40537734D01*
X67197295Y-40537735D01*
X67128112Y-40657564D01*
X67128112Y-40657565D01*
X67128111Y-40657567D01*
X67124738Y-40670155D01*
X67124738Y-40670156D01*
X67092299Y-40791214D01*
X67092299Y-40937557D01*
X67092300Y-40937570D01*
X67092300Y-41400718D01*
X67073393Y-41458909D01*
X67043695Y-41485931D01*
X66965938Y-41531916D01*
X66849718Y-41648136D01*
X66832434Y-41677362D01*
X66766056Y-41789602D01*
X66725811Y-41928121D01*
X66691422Y-41978725D01*
X66633854Y-41999451D01*
X66630744Y-41999500D01*
X65872586Y-41999500D01*
X65814395Y-41980593D01*
X65802583Y-41970504D01*
X65727263Y-41895185D01*
X65727258Y-41895181D01*
X65574523Y-41799211D01*
X65404261Y-41739633D01*
X65404257Y-41739632D01*
X65225000Y-41719435D01*
X65045742Y-41739632D01*
X65045738Y-41739633D01*
X64875477Y-41799211D01*
X64875476Y-41799211D01*
X64729171Y-41891141D01*
X64669840Y-41906091D01*
X64613053Y-41883312D01*
X64580501Y-41831505D01*
X64577500Y-41807315D01*
X64577500Y-40795499D01*
X64596407Y-40737308D01*
X64645907Y-40701344D01*
X64676500Y-40696499D01*
X66108521Y-40696499D01*
X66108522Y-40696498D01*
X66155411Y-40689072D01*
X66202299Y-40681647D01*
X66202299Y-40681646D01*
X66202304Y-40681646D01*
X66315342Y-40624050D01*
X66405050Y-40534342D01*
X66462646Y-40421304D01*
X66477500Y-40327519D01*
X66477499Y-38564482D01*
X66477499Y-38564481D01*
X66477499Y-38564478D01*
X66477498Y-38564476D01*
X66462647Y-38470700D01*
X66462646Y-38470698D01*
X66462646Y-38470696D01*
X66405050Y-38357658D01*
X66315342Y-38267950D01*
X66202304Y-38210354D01*
X66202305Y-38210354D01*
X66108522Y-38195500D01*
X66108519Y-38195500D01*
X65867156Y-38195500D01*
X65808965Y-38176593D01*
X65773001Y-38127093D01*
X65773001Y-38065907D01*
X65808965Y-38016407D01*
X65825317Y-38006775D01*
X65828281Y-38005393D01*
X65854639Y-37993102D01*
X66033877Y-37867598D01*
X66188598Y-37712877D01*
X66314102Y-37533639D01*
X66406575Y-37335330D01*
X66463207Y-37123977D01*
X66482277Y-36906000D01*
X66478964Y-36868127D01*
X66463208Y-36688030D01*
X66463207Y-36688027D01*
X66463207Y-36688023D01*
X66406575Y-36476670D01*
X66314102Y-36278362D01*
X66188598Y-36099123D01*
X66033877Y-35944402D01*
X66033873Y-35944399D01*
X66033872Y-35944398D01*
X65920112Y-35864743D01*
X65854639Y-35818898D01*
X65656330Y-35726425D01*
X65444977Y-35669793D01*
X65444976Y-35669792D01*
X65444969Y-35669791D01*
X65227003Y-35650723D01*
X65226997Y-35650723D01*
X65009030Y-35669791D01*
X64797666Y-35726426D01*
X64599372Y-35818892D01*
X64599364Y-35818896D01*
X64420127Y-35944398D01*
X64265398Y-36099127D01*
X64139896Y-36278364D01*
X64139892Y-36278372D01*
X64047426Y-36476666D01*
X63990791Y-36688030D01*
X63971723Y-36905996D01*
X63971723Y-36906003D01*
X63990791Y-37123969D01*
X64034126Y-37285699D01*
X64030923Y-37346801D01*
X64008503Y-37381325D01*
X63729337Y-37660492D01*
X63729337Y-37660493D01*
X63729335Y-37660495D01*
X63729334Y-37660494D01*
X63631497Y-37758332D01*
X63631495Y-37758334D01*
X63631495Y-37758335D01*
X63562312Y-37878164D01*
X63562312Y-37878165D01*
X63562311Y-37878167D01*
X63558938Y-37890755D01*
X63558938Y-37890756D01*
X63526499Y-38011814D01*
X63526499Y-38158157D01*
X63526500Y-38158170D01*
X63526500Y-42764626D01*
X63507593Y-42822817D01*
X63497503Y-42834630D01*
X63101730Y-43230402D01*
X63047214Y-43258179D01*
X62986782Y-43248608D01*
X62959264Y-43226152D01*
X62958747Y-43226670D01*
X62954817Y-43222740D01*
X62954816Y-43222738D01*
X62827262Y-43095184D01*
X62827259Y-43095182D01*
X62827258Y-43095181D01*
X62674523Y-42999211D01*
X62504261Y-42939633D01*
X62504257Y-42939632D01*
X62325000Y-42919435D01*
X62145742Y-42939632D01*
X62145738Y-42939633D01*
X61975477Y-42999211D01*
X61975476Y-42999211D01*
X61822741Y-43095181D01*
X61695181Y-43222741D01*
X61599211Y-43375476D01*
X61599211Y-43375477D01*
X61539633Y-43545738D01*
X61539632Y-43545742D01*
X61532465Y-43609352D01*
X61519492Y-43724500D01*
X61519435Y-43725002D01*
X61520415Y-43733703D01*
X61508139Y-43793644D01*
X61492041Y-43814787D01*
X58491337Y-46815493D01*
X58491335Y-46815495D01*
X58491334Y-46815494D01*
X58393497Y-46913332D01*
X58393495Y-46913334D01*
X58393495Y-46913335D01*
X58324312Y-47033164D01*
X58324312Y-47033165D01*
X58317796Y-47044452D01*
X58316961Y-47043970D01*
X58291217Y-47083609D01*
X58244412Y-47104448D01*
X58238698Y-47105353D01*
X58238697Y-47105353D01*
X58223943Y-47112871D01*
X58163511Y-47122441D01*
X58134055Y-47112870D01*
X58123555Y-47107520D01*
X58080290Y-47064255D01*
X58069500Y-47019310D01*
X58069500Y-42197677D01*
X58088407Y-42139486D01*
X58098496Y-42127673D01*
X59049571Y-41176598D01*
X60073828Y-40152340D01*
X60128343Y-40124565D01*
X60188775Y-40134136D01*
X60232040Y-40177401D01*
X60242830Y-40222345D01*
X60242830Y-40327520D01*
X60242831Y-40327523D01*
X60257682Y-40421299D01*
X60257684Y-40421304D01*
X60315280Y-40534342D01*
X60404988Y-40624050D01*
X60518026Y-40681646D01*
X60611811Y-40696500D01*
X62374848Y-40696499D01*
X62374851Y-40696499D01*
X62374852Y-40696498D01*
X62421741Y-40689072D01*
X62468629Y-40681647D01*
X62468629Y-40681646D01*
X62468634Y-40681646D01*
X62581672Y-40624050D01*
X62671380Y-40534342D01*
X62728976Y-40421304D01*
X62743830Y-40327519D01*
X62743829Y-38564482D01*
X62743829Y-38564481D01*
X62743829Y-38564478D01*
X62743828Y-38564476D01*
X62728977Y-38470700D01*
X62728976Y-38470698D01*
X62728976Y-38470696D01*
X62671380Y-38357658D01*
X62581672Y-38267950D01*
X62468634Y-38210354D01*
X62468635Y-38210354D01*
X62374852Y-38195500D01*
X62374849Y-38195500D01*
X62133486Y-38195500D01*
X62075295Y-38176593D01*
X62039331Y-38127093D01*
X62039331Y-38065907D01*
X62075295Y-38016407D01*
X62091647Y-38006775D01*
X62094611Y-38005393D01*
X62120969Y-37993102D01*
X62300207Y-37867598D01*
X62454928Y-37712877D01*
X62580432Y-37533639D01*
X62672905Y-37335330D01*
X62729537Y-37123977D01*
X62748607Y-36906000D01*
X62745294Y-36868127D01*
X62729538Y-36688030D01*
X62729537Y-36688027D01*
X62729537Y-36688023D01*
X62672905Y-36476670D01*
X62580432Y-36278362D01*
X62454928Y-36099123D01*
X62300207Y-35944402D01*
X62300203Y-35944399D01*
X62300202Y-35944398D01*
X62186442Y-35864743D01*
X62120969Y-35818898D01*
X61922660Y-35726425D01*
X61711307Y-35669793D01*
X61711306Y-35669792D01*
X61711299Y-35669791D01*
X61493333Y-35650723D01*
X61493327Y-35650723D01*
X61275360Y-35669791D01*
X61063996Y-35726426D01*
X60865702Y-35818892D01*
X60865694Y-35818896D01*
X60686457Y-35944398D01*
X60531728Y-36099127D01*
X60406226Y-36278364D01*
X60406222Y-36278372D01*
X60313756Y-36476666D01*
X60257121Y-36688030D01*
X60238053Y-36905996D01*
X60238053Y-36906003D01*
X60257121Y-37123970D01*
X60291722Y-37253104D01*
X60288519Y-37314205D01*
X60266099Y-37348729D01*
X59959337Y-37655492D01*
X59959337Y-37655493D01*
X59959335Y-37655495D01*
X59959334Y-37655494D01*
X59861497Y-37753332D01*
X59861495Y-37753334D01*
X59861495Y-37753335D01*
X59792312Y-37873164D01*
X59792312Y-37873165D01*
X59792311Y-37873167D01*
X59788938Y-37885755D01*
X59788938Y-37885756D01*
X59756499Y-38006814D01*
X59756499Y-38153157D01*
X59756500Y-38153170D01*
X59756500Y-38942321D01*
X59737593Y-39000512D01*
X59727504Y-39012325D01*
X59179167Y-39560662D01*
X59124650Y-39588439D01*
X59064218Y-39578868D01*
X59020953Y-39535603D01*
X59010163Y-39490658D01*
X59010163Y-38564478D01*
X59010162Y-38564476D01*
X58995311Y-38470700D01*
X58995310Y-38470698D01*
X58995310Y-38470696D01*
X58937714Y-38357658D01*
X58848006Y-38267950D01*
X58734968Y-38210354D01*
X58734969Y-38210354D01*
X58641186Y-38195500D01*
X58641183Y-38195500D01*
X58399820Y-38195500D01*
X58341629Y-38176593D01*
X58305665Y-38127093D01*
X58305665Y-38065907D01*
X58341629Y-38016407D01*
X58357981Y-38006775D01*
X58360945Y-38005393D01*
X58387303Y-37993102D01*
X58566541Y-37867598D01*
X58721262Y-37712877D01*
X58846766Y-37533639D01*
X58939239Y-37335330D01*
X58995871Y-37123977D01*
X59014941Y-36906000D01*
X59011628Y-36868127D01*
X58995872Y-36688030D01*
X58995871Y-36688027D01*
X58995871Y-36688023D01*
X58939239Y-36476670D01*
X58846766Y-36278362D01*
X58721262Y-36099123D01*
X58566541Y-35944402D01*
X58566537Y-35944399D01*
X58566536Y-35944398D01*
X58452776Y-35864743D01*
X58387303Y-35818898D01*
X58188994Y-35726425D01*
X57977641Y-35669793D01*
X57977640Y-35669792D01*
X57977633Y-35669791D01*
X57759667Y-35650723D01*
X57759661Y-35650723D01*
X57541694Y-35669791D01*
X57330330Y-35726426D01*
X57132036Y-35818892D01*
X57132028Y-35818896D01*
X56952791Y-35944398D01*
X56798062Y-36099127D01*
X56672560Y-36278364D01*
X56672556Y-36278372D01*
X56580090Y-36476666D01*
X56523455Y-36688030D01*
X56504387Y-36905996D01*
X56504387Y-36906003D01*
X56523455Y-37123971D01*
X56551434Y-37228392D01*
X56548231Y-37289493D01*
X56525811Y-37324018D01*
X55951337Y-37898493D01*
X55951335Y-37898495D01*
X55951334Y-37898494D01*
X55853495Y-37996334D01*
X55838214Y-38022802D01*
X55792743Y-38063743D01*
X55731893Y-38070137D01*
X55682474Y-38043305D01*
X55181104Y-37541935D01*
X55153327Y-37487418D01*
X55161383Y-37430094D01*
X55205573Y-37335330D01*
X55262205Y-37123977D01*
X55281275Y-36906000D01*
X55277962Y-36868127D01*
X55262206Y-36688030D01*
X55262205Y-36688027D01*
X55262205Y-36688023D01*
X55205573Y-36476670D01*
X55113100Y-36278362D01*
X54987596Y-36099123D01*
X54832875Y-35944402D01*
X54832871Y-35944399D01*
X54832870Y-35944398D01*
X54719110Y-35864743D01*
X54653637Y-35818898D01*
X54455328Y-35726425D01*
X54243975Y-35669793D01*
X54243974Y-35669792D01*
X54243967Y-35669791D01*
X54026001Y-35650723D01*
X54025995Y-35650723D01*
X53808028Y-35669791D01*
X53596664Y-35726426D01*
X53398370Y-35818892D01*
X53398362Y-35818896D01*
X53219125Y-35944398D01*
X53064396Y-36099127D01*
X52938894Y-36278364D01*
X52938890Y-36278372D01*
X52846424Y-36476666D01*
X52789789Y-36688030D01*
X52770721Y-36905996D01*
X52770721Y-36906003D01*
X52789789Y-37123969D01*
X52789790Y-37123971D01*
X52789791Y-37123977D01*
X52846423Y-37335330D01*
X52903173Y-37457030D01*
X52938895Y-37533637D01*
X53027721Y-37660495D01*
X53064400Y-37712877D01*
X53219121Y-37867598D01*
X53219124Y-37867600D01*
X53219125Y-37867601D01*
X53263245Y-37898494D01*
X53398359Y-37993102D01*
X53398360Y-37993102D01*
X53398361Y-37993103D01*
X53398363Y-37993104D01*
X53427681Y-38006775D01*
X53472430Y-38048503D01*
X53484105Y-38108564D01*
X53458248Y-38164017D01*
X53404734Y-38193681D01*
X53385843Y-38195500D01*
X53144476Y-38195500D01*
X53144474Y-38195501D01*
X53050698Y-38210352D01*
X53050693Y-38210354D01*
X52937657Y-38267949D01*
X52847947Y-38357659D01*
X52790352Y-38470695D01*
X52775498Y-38564478D01*
X52775498Y-39563322D01*
X52756591Y-39621513D01*
X52707091Y-39657477D01*
X52645905Y-39657477D01*
X52606494Y-39633326D01*
X52021828Y-39048660D01*
X51994051Y-38994143D01*
X51992832Y-38978656D01*
X51992832Y-38158170D01*
X51992833Y-38158157D01*
X51992833Y-38011816D01*
X51992832Y-38011814D01*
X51991111Y-38005393D01*
X51957020Y-37878165D01*
X51957020Y-37878164D01*
X51887837Y-37758335D01*
X51789997Y-37660495D01*
X51789994Y-37660493D01*
X51510828Y-37381327D01*
X51483051Y-37326810D01*
X51485205Y-37285700D01*
X51528539Y-37123977D01*
X51547609Y-36906000D01*
X51544296Y-36868127D01*
X51528540Y-36688030D01*
X51528539Y-36688027D01*
X51528539Y-36688023D01*
X51471907Y-36476670D01*
X51379434Y-36278362D01*
X51253930Y-36099123D01*
X51099209Y-35944402D01*
X51099205Y-35944399D01*
X51099204Y-35944398D01*
X50985444Y-35864743D01*
X50919971Y-35818898D01*
X50721662Y-35726425D01*
X50510309Y-35669793D01*
X50510308Y-35669792D01*
X50510301Y-35669791D01*
X50292335Y-35650723D01*
X50292329Y-35650723D01*
X50074362Y-35669791D01*
X49863002Y-35726425D01*
X49666339Y-35818130D01*
X49605610Y-35825586D01*
X49552096Y-35795923D01*
X49526238Y-35740470D01*
X49525500Y-35728405D01*
X49525500Y-35662045D01*
X49525501Y-35662032D01*
X49525501Y-35495942D01*
X49525500Y-35495940D01*
X49484578Y-35343219D01*
X49484578Y-35343218D01*
X49470065Y-35318081D01*
X49405520Y-35206284D01*
X48454496Y-34255260D01*
X48426719Y-34200743D01*
X48425500Y-34185256D01*
X48425500Y-33784311D01*
X48422598Y-33747434D01*
X48422598Y-33747431D01*
X48376744Y-33589602D01*
X48293081Y-33448135D01*
X48176865Y-33331919D01*
X48035398Y-33248256D01*
X47877569Y-33202402D01*
X47877568Y-33202401D01*
X47877565Y-33202401D01*
X47854140Y-33200558D01*
X47840694Y-33199500D01*
X47209306Y-33199500D01*
X47196773Y-33200486D01*
X47172434Y-33202401D01*
X47172427Y-33202403D01*
X47014602Y-33248256D01*
X46873136Y-33331918D01*
X46756918Y-33448136D01*
X46673256Y-33589602D01*
X46627403Y-33747427D01*
X46627401Y-33747434D01*
X46624500Y-33784311D01*
X46624500Y-34865688D01*
X46627401Y-34902565D01*
X46627401Y-34902568D01*
X46627402Y-34902569D01*
X46673256Y-35060398D01*
X46756919Y-35201865D01*
X46873135Y-35318081D01*
X47014602Y-35401744D01*
X47172431Y-35447598D01*
X47209306Y-35450500D01*
X47209311Y-35450500D01*
X47840689Y-35450500D01*
X47840694Y-35450500D01*
X47877569Y-35447598D01*
X47877578Y-35447595D01*
X47882546Y-35446689D01*
X47882823Y-35448207D01*
X47937340Y-35449911D01*
X47973825Y-35473060D01*
X48295504Y-35794739D01*
X48323281Y-35849256D01*
X48324500Y-35864743D01*
X48324500Y-41039863D01*
X48324499Y-41039881D01*
X48324499Y-41212031D01*
X48324500Y-41212044D01*
X48324500Y-42224457D01*
X48305593Y-42282648D01*
X48295503Y-42294461D01*
X48088603Y-42501360D01*
X48034087Y-42529137D01*
X47973655Y-42519566D01*
X47930390Y-42476301D01*
X47919977Y-42422728D01*
X47930277Y-42305000D01*
X47928322Y-42282648D01*
X47911208Y-42087030D01*
X47911207Y-42087027D01*
X47911207Y-42087023D01*
X47854575Y-41875670D01*
X47794776Y-41747431D01*
X47762107Y-41677372D01*
X47762103Y-41677364D01*
X47755474Y-41667897D01*
X47669006Y-41544407D01*
X47636601Y-41498127D01*
X47636600Y-41498126D01*
X47636598Y-41498123D01*
X47481877Y-41343402D01*
X47481873Y-41343399D01*
X47481872Y-41343398D01*
X47382435Y-41273772D01*
X47302639Y-41217898D01*
X47104330Y-41125425D01*
X47104325Y-41125423D01*
X47102827Y-41124725D01*
X47058079Y-41082996D01*
X47046404Y-41022935D01*
X47072262Y-40967482D01*
X47102827Y-40945275D01*
X47104325Y-40944576D01*
X47104330Y-40944575D01*
X47302639Y-40852102D01*
X47481877Y-40726598D01*
X47636598Y-40571877D01*
X47762102Y-40392639D01*
X47854575Y-40194330D01*
X47911207Y-39982977D01*
X47912263Y-39970913D01*
X47930277Y-39765003D01*
X47930277Y-39764996D01*
X47911208Y-39547030D01*
X47911207Y-39547027D01*
X47911207Y-39547023D01*
X47854575Y-39335670D01*
X47782494Y-39181093D01*
X47762107Y-39137372D01*
X47762103Y-39137364D01*
X47755474Y-39127897D01*
X47674686Y-39012518D01*
X47636601Y-38958127D01*
X47636600Y-38958126D01*
X47636598Y-38958123D01*
X47481877Y-38803402D01*
X47481873Y-38803399D01*
X47481872Y-38803398D01*
X47382435Y-38733772D01*
X47302639Y-38677898D01*
X47104330Y-38585425D01*
X46892977Y-38528793D01*
X46892976Y-38528792D01*
X46892969Y-38528791D01*
X46675003Y-38509723D01*
X46674997Y-38509723D01*
X46457030Y-38528791D01*
X46245666Y-38585426D01*
X46047372Y-38677892D01*
X46047364Y-38677896D01*
X45868127Y-38803398D01*
X45713398Y-38958127D01*
X45587896Y-39137364D01*
X45587892Y-39137372D01*
X45495426Y-39335666D01*
X45438791Y-39547030D01*
X45419723Y-39764996D01*
X45419723Y-39765003D01*
X45438791Y-39982969D01*
X45438792Y-39982976D01*
X45438793Y-39982977D01*
X45495425Y-40194330D01*
X45587898Y-40392639D01*
X45620987Y-40439895D01*
X45687119Y-40534342D01*
X45713402Y-40571877D01*
X45868123Y-40726598D01*
X46047361Y-40852102D01*
X46245670Y-40944575D01*
X46245671Y-40944575D01*
X46247172Y-40945275D01*
X46291920Y-40987004D01*
X46303595Y-41047065D01*
X46277737Y-41102518D01*
X46247172Y-41124724D01*
X46047372Y-41217892D01*
X46047364Y-41217896D01*
X45868127Y-41343398D01*
X45713398Y-41498127D01*
X45587896Y-41677364D01*
X45587892Y-41677372D01*
X45495426Y-41875666D01*
X45438791Y-42087030D01*
X45419723Y-42304996D01*
X45419723Y-42305003D01*
X45438791Y-42522969D01*
X45438792Y-42522976D01*
X45438793Y-42522977D01*
X45495425Y-42734330D01*
X45587898Y-42932639D01*
X45616143Y-42972977D01*
X45706886Y-43102572D01*
X45713402Y-43111877D01*
X45868123Y-43266598D01*
X46047361Y-43392102D01*
X46047362Y-43392102D01*
X46047363Y-43392103D01*
X46047365Y-43392104D01*
X46076683Y-43405775D01*
X46121432Y-43447503D01*
X46133107Y-43507564D01*
X46107250Y-43563017D01*
X46053736Y-43592681D01*
X46034845Y-43594500D01*
X45793478Y-43594500D01*
X45793476Y-43594501D01*
X45699700Y-43609352D01*
X45699695Y-43609354D01*
X45586659Y-43666949D01*
X45496949Y-43756659D01*
X45439354Y-43869695D01*
X45424500Y-43963478D01*
X45424500Y-44116300D01*
X45405593Y-44174491D01*
X45356093Y-44210455D01*
X45325500Y-44215300D01*
X44302699Y-44215300D01*
X44244508Y-44196393D01*
X44232701Y-44186309D01*
X44163342Y-44116950D01*
X44050304Y-44059354D01*
X44050305Y-44059354D01*
X43956522Y-44044500D01*
X43715155Y-44044500D01*
X43656964Y-44025593D01*
X43621000Y-43976093D01*
X43621000Y-43914907D01*
X43656964Y-43865407D01*
X43673317Y-43855775D01*
X43686774Y-43849500D01*
X43702639Y-43842102D01*
X43881877Y-43716598D01*
X44036598Y-43561877D01*
X44162102Y-43382639D01*
X44254575Y-43184330D01*
X44311207Y-42972977D01*
X44319087Y-42882913D01*
X44330277Y-42755000D01*
X44330277Y-42754994D01*
X44311208Y-42537030D01*
X44311207Y-42537027D01*
X44311207Y-42537023D01*
X44254575Y-42325670D01*
X44162102Y-42127362D01*
X44036598Y-41948123D01*
X43881877Y-41793402D01*
X43881873Y-41793399D01*
X43881872Y-41793398D01*
X43716169Y-41677372D01*
X43702639Y-41667898D01*
X43504330Y-41575425D01*
X43504325Y-41575423D01*
X43502827Y-41574725D01*
X43458079Y-41532996D01*
X43446404Y-41472935D01*
X43472262Y-41417482D01*
X43502827Y-41395275D01*
X43504325Y-41394576D01*
X43504330Y-41394575D01*
X43702639Y-41302102D01*
X43881877Y-41176598D01*
X44036598Y-41021877D01*
X44162102Y-40842639D01*
X44254575Y-40644330D01*
X44311207Y-40432977D01*
X44312229Y-40421304D01*
X44330277Y-40215003D01*
X44330277Y-40214996D01*
X44311208Y-39997030D01*
X44311207Y-39997027D01*
X44311207Y-39997023D01*
X44254575Y-39785670D01*
X44194797Y-39657477D01*
X44162107Y-39587372D01*
X44162103Y-39587364D01*
X44143406Y-39560662D01*
X44036598Y-39408123D01*
X43881877Y-39253402D01*
X43881873Y-39253399D01*
X43881872Y-39253398D01*
X43716169Y-39137372D01*
X43702639Y-39127898D01*
X43504330Y-39035425D01*
X43504325Y-39035423D01*
X43502827Y-39034725D01*
X43458079Y-38992996D01*
X43446404Y-38932935D01*
X43472262Y-38877482D01*
X43502827Y-38855275D01*
X43504325Y-38854576D01*
X43504330Y-38854575D01*
X43702639Y-38762102D01*
X43881877Y-38636598D01*
X44036598Y-38481877D01*
X44162102Y-38302639D01*
X44254575Y-38104330D01*
X44311207Y-37892977D01*
X44311402Y-37890756D01*
X44330277Y-37675003D01*
X44330277Y-37674996D01*
X44311208Y-37457030D01*
X44311207Y-37457027D01*
X44311207Y-37457023D01*
X44254575Y-37245670D01*
X44162102Y-37047362D01*
X44036598Y-36868123D01*
X43881877Y-36713402D01*
X43881873Y-36713399D01*
X43881872Y-36713398D01*
X43782435Y-36643772D01*
X43702639Y-36587898D01*
X43504330Y-36495425D01*
X43292977Y-36438793D01*
X43292976Y-36438792D01*
X43292969Y-36438791D01*
X43075003Y-36419723D01*
X43074997Y-36419723D01*
X42857030Y-36438791D01*
X42645666Y-36495426D01*
X42447372Y-36587892D01*
X42447364Y-36587896D01*
X42268127Y-36713398D01*
X42113398Y-36868127D01*
X41987896Y-37047364D01*
X41987892Y-37047372D01*
X41895426Y-37245666D01*
X41838791Y-37457030D01*
X41819723Y-37674996D01*
X41819723Y-37675003D01*
X41838791Y-37892969D01*
X41838792Y-37892976D01*
X41838793Y-37892977D01*
X41895425Y-38104330D01*
X41987898Y-38302639D01*
X42033998Y-38368476D01*
X42105575Y-38470700D01*
X42113402Y-38481877D01*
X42268123Y-38636598D01*
X42447361Y-38762102D01*
X42645670Y-38854575D01*
X42645671Y-38854575D01*
X42647172Y-38855275D01*
X42691920Y-38897004D01*
X42703595Y-38957065D01*
X42677737Y-39012518D01*
X42647172Y-39034724D01*
X42447372Y-39127892D01*
X42447364Y-39127896D01*
X42268127Y-39253398D01*
X42113398Y-39408127D01*
X41987896Y-39587364D01*
X41987892Y-39587372D01*
X41895426Y-39785666D01*
X41838791Y-39997030D01*
X41819723Y-40214996D01*
X41819723Y-40215003D01*
X41838791Y-40432969D01*
X41838792Y-40432976D01*
X41838793Y-40432977D01*
X41895425Y-40644330D01*
X41987898Y-40842639D01*
X41993604Y-40850788D01*
X42112281Y-41020277D01*
X42113402Y-41021877D01*
X42268123Y-41176598D01*
X42268126Y-41176600D01*
X42268127Y-41176601D01*
X42275151Y-41181519D01*
X42447361Y-41302102D01*
X42645670Y-41394575D01*
X42645671Y-41394575D01*
X42647172Y-41395275D01*
X42691920Y-41437004D01*
X42703595Y-41497065D01*
X42677737Y-41552518D01*
X42647172Y-41574724D01*
X42447372Y-41667892D01*
X42447364Y-41667896D01*
X42268127Y-41793398D01*
X42113398Y-41948127D01*
X41987896Y-42127364D01*
X41987892Y-42127372D01*
X41895426Y-42325666D01*
X41838791Y-42537030D01*
X41819723Y-42754994D01*
X41819723Y-42755000D01*
X41838791Y-42972969D01*
X41838792Y-42972976D01*
X41838793Y-42972977D01*
X41895425Y-43184330D01*
X41987898Y-43382639D01*
X42033383Y-43447598D01*
X42112281Y-43560277D01*
X42113402Y-43561877D01*
X42268123Y-43716598D01*
X42268126Y-43716600D01*
X42268127Y-43716601D01*
X42292551Y-43733703D01*
X42447361Y-43842102D01*
X42447362Y-43842102D01*
X42447363Y-43842103D01*
X42447365Y-43842104D01*
X42476683Y-43855775D01*
X42521432Y-43897503D01*
X42533107Y-43957564D01*
X42507250Y-44013017D01*
X42453736Y-44042681D01*
X42434845Y-44044500D01*
X42193478Y-44044500D01*
X42193476Y-44044501D01*
X42099700Y-44059352D01*
X42099695Y-44059354D01*
X41986659Y-44116949D01*
X41896949Y-44206659D01*
X41839354Y-44319695D01*
X41824500Y-44413478D01*
X41824500Y-45467611D01*
X41805593Y-45525802D01*
X41795504Y-45537615D01*
X40986635Y-46346485D01*
X40983004Y-46350116D01*
X40928487Y-46377893D01*
X40868055Y-46368322D01*
X40824790Y-46325057D01*
X40814000Y-46280112D01*
X40814000Y-32991001D01*
X40814000Y-32991000D01*
X40424000Y-32991000D01*
X40365809Y-32972093D01*
X40329845Y-32922593D01*
X40325000Y-32892000D01*
X40325000Y-32324000D01*
X40343907Y-32265809D01*
X40393407Y-32229845D01*
X40424000Y-32225000D01*
X67812801Y-32225000D01*
X67870992Y-32243907D01*
G37*
%TD.AperFunction*%
%TA.AperFunction,Conductor*%
G36*
X50593700Y-44481520D02*
G01*
X50593701Y-44481523D01*
X50608552Y-44575299D01*
X50608554Y-44575304D01*
X50666150Y-44688342D01*
X50706893Y-44729085D01*
X50734669Y-44783600D01*
X50729689Y-44815041D01*
X50732687Y-44812044D01*
X50793119Y-44802473D01*
X50822572Y-44812042D01*
X50868896Y-44835646D01*
X50962681Y-44850500D01*
X51044700Y-44850499D01*
X51102890Y-44869406D01*
X51138854Y-44918905D01*
X51143700Y-44949498D01*
X51143700Y-45031520D01*
X51143701Y-45031524D01*
X51156052Y-45109513D01*
X51156052Y-45140484D01*
X51148410Y-45188737D01*
X51120633Y-45243254D01*
X51066117Y-45271032D01*
X51005685Y-45261461D01*
X50980625Y-45243255D01*
X50707628Y-44970258D01*
X50679851Y-44915741D01*
X50684830Y-44884299D01*
X50681833Y-44887297D01*
X50621401Y-44896868D01*
X50587390Y-44884824D01*
X50549909Y-44863185D01*
X50549908Y-44863184D01*
X50549907Y-44863184D01*
X50533053Y-44858668D01*
X50493032Y-44837145D01*
X50466446Y-44813592D01*
X50326566Y-44740176D01*
X50173184Y-44702372D01*
X50171527Y-44702171D01*
X50170578Y-44701729D01*
X50167373Y-44700940D01*
X50167527Y-44700312D01*
X50116042Y-44676382D01*
X50086312Y-44622904D01*
X50085689Y-44588411D01*
X50094700Y-44531519D01*
X50094699Y-44218482D01*
X50089603Y-44186304D01*
X50079895Y-44125000D01*
X50593700Y-44125000D01*
X50593700Y-44481520D01*
G37*
%TD.AperFunction*%
%TA.AperFunction,Conductor*%
G36*
X49925000Y-43125000D02*
G01*
X49925000Y-43918107D01*
X49819504Y-43864354D01*
X49819505Y-43864354D01*
X49725722Y-43849500D01*
X49725719Y-43849500D01*
X49674034Y-43849500D01*
X49624533Y-43836236D01*
X49588486Y-43815424D01*
X49588485Y-43815423D01*
X49588484Y-43815423D01*
X49435757Y-43774500D01*
X49435755Y-43774500D01*
X48752943Y-43774500D01*
X48694752Y-43755593D01*
X48658788Y-43706093D01*
X48658788Y-43644907D01*
X48682939Y-43605497D01*
X49285562Y-43002872D01*
X49293713Y-42994721D01*
X49293716Y-42994720D01*
X49405520Y-42882916D01*
X49479372Y-42755000D01*
X49484577Y-42745985D01*
X49519003Y-42617504D01*
X49925000Y-43125000D01*
G37*
%TD.AperFunction*%
%TA.AperFunction,Conductor*%
G36*
X51468215Y-41544407D02*
G01*
X51504179Y-41593907D01*
X51505092Y-41652118D01*
X51491213Y-41699894D01*
X51477402Y-41747430D01*
X51477401Y-41747434D01*
X51474500Y-41784311D01*
X51474500Y-42125000D01*
X49525500Y-42125000D01*
X49525500Y-41624500D01*
X49544407Y-41566309D01*
X49593907Y-41530345D01*
X49624500Y-41525500D01*
X51410024Y-41525500D01*
X51468215Y-41544407D01*
G37*
%TD.AperFunction*%
%TD*%
%TA.AperFunction,Conductor*%
%TO.N,/Power/CELL_1*%
G36*
X124243639Y-119207885D02*
G01*
X124289394Y-119260689D01*
X124300600Y-119312200D01*
X124300600Y-129264200D01*
X124280915Y-129331239D01*
X124228111Y-129376994D01*
X124176600Y-129388200D01*
X95024600Y-129388200D01*
X94957561Y-129368515D01*
X94911806Y-129315711D01*
X94900600Y-129264200D01*
X94900600Y-119312200D01*
X94920285Y-119245161D01*
X94973089Y-119199406D01*
X95024600Y-119188200D01*
X124176600Y-119188200D01*
X124243639Y-119207885D01*
G37*
%TD.AperFunction*%
%TD*%
%TA.AperFunction,Conductor*%
%TO.N,GND*%
G36*
X133719022Y-32244685D02*
G01*
X133764777Y-32297489D01*
X133775982Y-32348648D01*
X133871257Y-66145300D01*
X134050249Y-129638915D01*
X134030753Y-129706010D01*
X133978078Y-129751914D01*
X133926314Y-129763265D01*
X124768777Y-129768099D01*
X124701728Y-129748450D01*
X124655945Y-129695670D01*
X124645965Y-129626517D01*
X124659083Y-129591711D01*
X124656981Y-129590734D01*
X124660720Y-129582692D01*
X124717963Y-129459572D01*
X124737648Y-129392533D01*
X124756100Y-129264200D01*
X124756100Y-127604712D01*
X124772713Y-127542712D01*
X124845850Y-127416035D01*
X124901097Y-127246003D01*
X124919785Y-127068200D01*
X124901097Y-126890397D01*
X124845850Y-126720365D01*
X124845847Y-126720359D01*
X124772713Y-126593686D01*
X124756100Y-126531687D01*
X124756100Y-125064712D01*
X124772713Y-125002712D01*
X124845850Y-124876035D01*
X124901097Y-124706003D01*
X124919785Y-124528200D01*
X124901097Y-124350397D01*
X124845850Y-124180365D01*
X124845847Y-124180359D01*
X124772713Y-124053686D01*
X124756100Y-123991687D01*
X124756100Y-122524712D01*
X124772713Y-122462712D01*
X124777056Y-122455190D01*
X124845850Y-122336035D01*
X124901097Y-122166003D01*
X124919785Y-121988200D01*
X124901097Y-121810397D01*
X124873473Y-121725381D01*
X124845852Y-121640370D01*
X124845847Y-121640359D01*
X124772713Y-121513686D01*
X124756100Y-121451687D01*
X124756100Y-119984712D01*
X124772713Y-119922712D01*
X124845850Y-119796035D01*
X124901097Y-119626003D01*
X124919785Y-119448200D01*
X124901097Y-119270397D01*
X124872979Y-119183859D01*
X124845852Y-119100370D01*
X124845849Y-119100364D01*
X124756459Y-118945535D01*
X124709603Y-118893496D01*
X124636835Y-118812678D01*
X124636832Y-118812676D01*
X124636831Y-118812675D01*
X124636830Y-118812674D01*
X124492193Y-118707588D01*
X124328867Y-118634871D01*
X124328865Y-118634870D01*
X124201194Y-118607733D01*
X124153991Y-118597700D01*
X123975209Y-118597700D01*
X123944554Y-118604215D01*
X123800333Y-118634870D01*
X123800328Y-118634872D01*
X123637008Y-118707588D01*
X123637003Y-118707590D01*
X123635039Y-118709018D01*
X123633709Y-118709492D01*
X123631375Y-118710840D01*
X123631128Y-118710413D01*
X123569233Y-118732498D01*
X123562154Y-118732700D01*
X122027046Y-118732700D01*
X121960007Y-118713015D01*
X121954173Y-118709027D01*
X121952193Y-118707588D01*
X121788867Y-118634871D01*
X121788865Y-118634870D01*
X121661194Y-118607733D01*
X121613991Y-118597700D01*
X121435209Y-118597700D01*
X121404554Y-118604215D01*
X121260333Y-118634870D01*
X121260328Y-118634872D01*
X121097008Y-118707588D01*
X121097003Y-118707590D01*
X121095039Y-118709018D01*
X121093709Y-118709492D01*
X121091375Y-118710840D01*
X121091128Y-118710413D01*
X121029233Y-118732498D01*
X121022154Y-118732700D01*
X119624500Y-118732700D01*
X119557461Y-118713015D01*
X119511706Y-118660211D01*
X119500500Y-118608700D01*
X119500500Y-113436556D01*
X125049500Y-113436556D01*
X125049500Y-113675843D01*
X125049501Y-113675859D01*
X125080734Y-113913100D01*
X125142669Y-114144245D01*
X125234243Y-114365323D01*
X125234251Y-114365340D01*
X125353891Y-114572565D01*
X125353892Y-114572567D01*
X125499569Y-114762416D01*
X125499575Y-114762423D01*
X125668776Y-114931624D01*
X125668783Y-114931630D01*
X125858632Y-115077307D01*
X125858634Y-115077308D01*
X126065859Y-115196948D01*
X126065862Y-115196949D01*
X126065870Y-115196954D01*
X126286953Y-115288530D01*
X126518098Y-115350465D01*
X126755350Y-115381700D01*
X126755357Y-115381700D01*
X126994643Y-115381700D01*
X126994650Y-115381700D01*
X127231902Y-115350465D01*
X127463047Y-115288530D01*
X127684130Y-115196954D01*
X127891370Y-115077305D01*
X128081218Y-114931629D01*
X128250429Y-114762418D01*
X128396105Y-114572570D01*
X128515754Y-114365330D01*
X128607330Y-114144247D01*
X128669265Y-113913102D01*
X128700500Y-113675850D01*
X128700500Y-113436550D01*
X128669265Y-113199298D01*
X128607330Y-112968153D01*
X128515754Y-112747070D01*
X128515748Y-112747059D01*
X128396108Y-112539834D01*
X128396107Y-112539832D01*
X128250430Y-112349983D01*
X128250424Y-112349976D01*
X128081223Y-112180775D01*
X128081216Y-112180769D01*
X127891367Y-112035092D01*
X127891365Y-112035091D01*
X127684140Y-111915451D01*
X127684132Y-111915447D01*
X127684130Y-111915446D01*
X127645730Y-111899540D01*
X127463045Y-111823869D01*
X127231900Y-111761934D01*
X126994659Y-111730701D01*
X126994656Y-111730700D01*
X126994650Y-111730700D01*
X126755350Y-111730700D01*
X126755344Y-111730700D01*
X126755340Y-111730701D01*
X126518099Y-111761934D01*
X126286954Y-111823869D01*
X126065876Y-111915443D01*
X126065859Y-111915451D01*
X125858634Y-112035091D01*
X125858632Y-112035092D01*
X125668783Y-112180769D01*
X125668776Y-112180775D01*
X125499575Y-112349976D01*
X125499569Y-112349983D01*
X125353892Y-112539832D01*
X125353891Y-112539834D01*
X125234251Y-112747059D01*
X125234243Y-112747076D01*
X125142669Y-112968154D01*
X125080734Y-113199299D01*
X125049501Y-113436540D01*
X125049500Y-113436556D01*
X119500500Y-113436556D01*
X119500500Y-71653542D01*
X119520185Y-71586503D01*
X119536819Y-71565861D01*
X120199395Y-70903285D01*
X125161115Y-65941565D01*
X125236881Y-65810335D01*
X125276100Y-65663966D01*
X125276100Y-65512433D01*
X125276100Y-65226218D01*
X125295785Y-65159179D01*
X125298051Y-65155777D01*
X125325417Y-65116131D01*
X125325416Y-65116131D01*
X125325418Y-65116130D01*
X125385740Y-64957072D01*
X125406245Y-64788200D01*
X125385740Y-64619328D01*
X125325418Y-64460270D01*
X125313980Y-64443700D01*
X125269232Y-64378871D01*
X125228783Y-64320271D01*
X125101452Y-64207466D01*
X125101449Y-64207463D01*
X124950826Y-64128410D01*
X124785656Y-64087700D01*
X124615544Y-64087700D01*
X124450373Y-64128410D01*
X124299750Y-64207463D01*
X124172416Y-64320272D01*
X124075782Y-64460268D01*
X124015460Y-64619325D01*
X124015459Y-64619330D01*
X123994955Y-64788200D01*
X124015459Y-64957069D01*
X124015460Y-64957074D01*
X124075782Y-65116131D01*
X124103149Y-65155777D01*
X124125033Y-65222131D01*
X124125100Y-65226218D01*
X124125100Y-65298458D01*
X124105415Y-65365497D01*
X124088781Y-65386139D01*
X118464487Y-71010432D01*
X118464485Y-71010435D01*
X118388719Y-71141663D01*
X118349500Y-71288034D01*
X118349500Y-118608700D01*
X118329815Y-118675739D01*
X118277011Y-118721494D01*
X118225500Y-118732700D01*
X116947046Y-118732700D01*
X116880007Y-118713015D01*
X116874173Y-118709027D01*
X116872193Y-118707588D01*
X116708867Y-118634871D01*
X116708865Y-118634870D01*
X116581194Y-118607733D01*
X116533991Y-118597700D01*
X116355209Y-118597700D01*
X116324554Y-118604215D01*
X116180333Y-118634870D01*
X116180328Y-118634872D01*
X116017008Y-118707588D01*
X116017003Y-118707590D01*
X116015039Y-118709018D01*
X116013709Y-118709492D01*
X116011375Y-118710840D01*
X116011128Y-118710413D01*
X115949233Y-118732498D01*
X115942154Y-118732700D01*
X114407046Y-118732700D01*
X114340007Y-118713015D01*
X114334173Y-118709027D01*
X114332193Y-118707588D01*
X114168867Y-118634871D01*
X114168865Y-118634870D01*
X114041194Y-118607733D01*
X113993991Y-118597700D01*
X113815209Y-118597700D01*
X113784554Y-118604215D01*
X113640333Y-118634870D01*
X113640328Y-118634872D01*
X113477008Y-118707588D01*
X113477003Y-118707590D01*
X113475039Y-118709018D01*
X113473709Y-118709492D01*
X113471375Y-118710840D01*
X113471128Y-118710413D01*
X113409233Y-118732498D01*
X113402154Y-118732700D01*
X111867046Y-118732700D01*
X111800007Y-118713015D01*
X111794173Y-118709027D01*
X111792193Y-118707588D01*
X111628867Y-118634871D01*
X111628865Y-118634870D01*
X111501194Y-118607733D01*
X111453991Y-118597700D01*
X111275209Y-118597700D01*
X111244554Y-118604215D01*
X111100333Y-118634870D01*
X111100328Y-118634872D01*
X110937008Y-118707588D01*
X110937003Y-118707590D01*
X110935039Y-118709018D01*
X110933709Y-118709492D01*
X110931375Y-118710840D01*
X110931128Y-118710413D01*
X110869233Y-118732498D01*
X110862154Y-118732700D01*
X109327046Y-118732700D01*
X109260007Y-118713015D01*
X109254173Y-118709027D01*
X109252193Y-118707588D01*
X109088867Y-118634871D01*
X109088865Y-118634870D01*
X108961194Y-118607733D01*
X108913991Y-118597700D01*
X108735209Y-118597700D01*
X108704554Y-118604215D01*
X108560333Y-118634870D01*
X108560328Y-118634872D01*
X108397008Y-118707588D01*
X108397003Y-118707590D01*
X108395039Y-118709018D01*
X108393709Y-118709492D01*
X108391375Y-118710840D01*
X108391128Y-118710413D01*
X108329233Y-118732498D01*
X108322154Y-118732700D01*
X106787046Y-118732700D01*
X106720007Y-118713015D01*
X106714173Y-118709027D01*
X106712193Y-118707588D01*
X106548867Y-118634871D01*
X106548865Y-118634870D01*
X106421194Y-118607733D01*
X106373991Y-118597700D01*
X106195209Y-118597700D01*
X106164554Y-118604215D01*
X106020333Y-118634870D01*
X106020328Y-118634872D01*
X105857008Y-118707588D01*
X105857003Y-118707590D01*
X105855039Y-118709018D01*
X105853709Y-118709492D01*
X105851375Y-118710840D01*
X105851128Y-118710413D01*
X105789233Y-118732498D01*
X105782154Y-118732700D01*
X104247046Y-118732700D01*
X104180007Y-118713015D01*
X104174173Y-118709027D01*
X104172193Y-118707588D01*
X104008867Y-118634871D01*
X104008865Y-118634870D01*
X103881194Y-118607733D01*
X103833991Y-118597700D01*
X103655209Y-118597700D01*
X103624554Y-118604215D01*
X103480333Y-118634870D01*
X103480328Y-118634872D01*
X103317008Y-118707588D01*
X103317003Y-118707590D01*
X103315039Y-118709018D01*
X103313709Y-118709492D01*
X103311375Y-118710840D01*
X103311128Y-118710413D01*
X103249233Y-118732498D01*
X103242154Y-118732700D01*
X101707046Y-118732700D01*
X101640007Y-118713015D01*
X101634173Y-118709027D01*
X101632193Y-118707588D01*
X101468867Y-118634871D01*
X101468865Y-118634870D01*
X101341194Y-118607733D01*
X101293991Y-118597700D01*
X101115209Y-118597700D01*
X101084554Y-118604215D01*
X100940333Y-118634870D01*
X100940328Y-118634872D01*
X100777008Y-118707588D01*
X100777003Y-118707590D01*
X100775039Y-118709018D01*
X100773709Y-118709492D01*
X100771375Y-118710840D01*
X100771128Y-118710413D01*
X100709233Y-118732498D01*
X100702154Y-118732700D01*
X99167046Y-118732700D01*
X99100007Y-118713015D01*
X99094173Y-118709027D01*
X99092193Y-118707588D01*
X98928867Y-118634871D01*
X98928865Y-118634870D01*
X98801194Y-118607733D01*
X98753991Y-118597700D01*
X98575209Y-118597700D01*
X98544554Y-118604215D01*
X98400333Y-118634870D01*
X98400328Y-118634872D01*
X98237008Y-118707588D01*
X98237003Y-118707590D01*
X98235039Y-118709018D01*
X98233709Y-118709492D01*
X98231375Y-118710840D01*
X98231128Y-118710413D01*
X98169233Y-118732498D01*
X98162154Y-118732700D01*
X96627046Y-118732700D01*
X96560007Y-118713015D01*
X96554173Y-118709027D01*
X96552193Y-118707588D01*
X96388867Y-118634871D01*
X96388865Y-118634870D01*
X96261194Y-118607733D01*
X96213991Y-118597700D01*
X96035209Y-118597700D01*
X96004554Y-118604215D01*
X95860333Y-118634870D01*
X95860328Y-118634872D01*
X95697008Y-118707588D01*
X95697003Y-118707590D01*
X95695039Y-118709018D01*
X95693709Y-118709492D01*
X95691375Y-118710840D01*
X95691128Y-118710413D01*
X95629233Y-118732498D01*
X95622154Y-118732700D01*
X95024583Y-118732700D01*
X94927777Y-118743109D01*
X94927766Y-118743111D01*
X94876266Y-118754314D01*
X94876264Y-118754315D01*
X94789518Y-118782534D01*
X94674798Y-118855163D01*
X94621995Y-118900917D01*
X94621992Y-118900920D01*
X94540482Y-118993705D01*
X94540479Y-118993708D01*
X94483238Y-119116824D01*
X94483233Y-119116838D01*
X94463553Y-119183859D01*
X94445100Y-119312202D01*
X94445100Y-129264216D01*
X94455509Y-129361022D01*
X94455511Y-129361033D01*
X94466714Y-129412533D01*
X94466715Y-129412535D01*
X94466716Y-129412538D01*
X94494934Y-129499281D01*
X94552832Y-129590734D01*
X94554760Y-129593778D01*
X94573988Y-129660950D01*
X94553848Y-129727854D01*
X94500734Y-129773249D01*
X94450056Y-129784107D01*
X86824665Y-129788134D01*
X86757616Y-129768485D01*
X86711833Y-129715705D01*
X86700600Y-129664134D01*
X86700600Y-121674236D01*
X90569500Y-121674236D01*
X90569500Y-121878163D01*
X90601398Y-122079560D01*
X90601399Y-122079564D01*
X90664413Y-122273499D01*
X90756989Y-122455190D01*
X90876848Y-122620162D01*
X91021038Y-122764352D01*
X91186010Y-122884211D01*
X91367701Y-122976787D01*
X91561636Y-123039801D01*
X91637163Y-123051763D01*
X91763037Y-123071700D01*
X91763042Y-123071700D01*
X91966963Y-123071700D01*
X92078850Y-123053978D01*
X92168364Y-123039801D01*
X92362299Y-122976787D01*
X92543990Y-122884211D01*
X92708962Y-122764352D01*
X92853152Y-122620162D01*
X92973011Y-122455190D01*
X93065587Y-122273499D01*
X93128601Y-122079564D01*
X93143071Y-121988200D01*
X93160500Y-121878163D01*
X93160500Y-121674236D01*
X93128601Y-121472839D01*
X93128601Y-121472836D01*
X93065587Y-121278901D01*
X92973011Y-121097210D01*
X92853152Y-120932238D01*
X92708962Y-120788048D01*
X92543990Y-120668189D01*
X92362299Y-120575613D01*
X92168364Y-120512599D01*
X92168362Y-120512598D01*
X92168360Y-120512598D01*
X91966963Y-120480700D01*
X91966958Y-120480700D01*
X91763042Y-120480700D01*
X91763037Y-120480700D01*
X91561639Y-120512598D01*
X91367698Y-120575614D01*
X91186009Y-120668189D01*
X91021035Y-120788050D01*
X90876850Y-120932235D01*
X90756989Y-121097209D01*
X90664414Y-121278898D01*
X90601398Y-121472839D01*
X90569500Y-121674236D01*
X86700600Y-121674236D01*
X86700600Y-113445732D01*
X107684500Y-113445732D01*
X107684500Y-113666667D01*
X107684501Y-113666684D01*
X107713337Y-113885719D01*
X107713338Y-113885724D01*
X107713339Y-113885730D01*
X107770524Y-114099149D01*
X107855072Y-114303267D01*
X107855080Y-114303284D01*
X107965546Y-114494615D01*
X107965557Y-114494631D01*
X108100053Y-114669910D01*
X108100059Y-114669917D01*
X108256282Y-114826140D01*
X108256288Y-114826145D01*
X108431577Y-114960649D01*
X108431584Y-114960653D01*
X108622915Y-115071119D01*
X108622920Y-115071121D01*
X108622923Y-115071123D01*
X108622927Y-115071124D01*
X108622932Y-115071127D01*
X108687666Y-115097940D01*
X108827051Y-115155676D01*
X109040470Y-115212861D01*
X109259526Y-115241700D01*
X109259533Y-115241700D01*
X109480467Y-115241700D01*
X109480474Y-115241700D01*
X109699530Y-115212861D01*
X109912949Y-115155676D01*
X110117077Y-115071123D01*
X110308423Y-114960649D01*
X110483712Y-114826145D01*
X110639945Y-114669912D01*
X110774449Y-114494623D01*
X110884923Y-114303277D01*
X110969476Y-114099149D01*
X111026661Y-113885730D01*
X111055500Y-113666674D01*
X111055500Y-113445726D01*
X111026661Y-113226670D01*
X110969476Y-113013251D01*
X110884923Y-112809123D01*
X110884921Y-112809120D01*
X110884919Y-112809115D01*
X110774453Y-112617784D01*
X110774449Y-112617777D01*
X110639945Y-112442488D01*
X110639940Y-112442482D01*
X110483717Y-112286259D01*
X110483710Y-112286253D01*
X110308431Y-112151757D01*
X110308429Y-112151755D01*
X110308423Y-112151751D01*
X110308418Y-112151748D01*
X110308415Y-112151746D01*
X110117084Y-112041280D01*
X110117067Y-112041272D01*
X109912949Y-111956724D01*
X109699530Y-111899539D01*
X109699524Y-111899538D01*
X109699519Y-111899537D01*
X109480484Y-111870701D01*
X109480479Y-111870700D01*
X109480474Y-111870700D01*
X109259526Y-111870700D01*
X109259520Y-111870700D01*
X109259515Y-111870701D01*
X109040480Y-111899537D01*
X109040473Y-111899538D01*
X109040470Y-111899539D01*
X108981115Y-111915443D01*
X108827050Y-111956724D01*
X108622932Y-112041272D01*
X108622915Y-112041280D01*
X108431584Y-112151746D01*
X108431568Y-112151757D01*
X108256289Y-112286253D01*
X108256282Y-112286259D01*
X108100059Y-112442482D01*
X108100053Y-112442489D01*
X107965557Y-112617768D01*
X107965546Y-112617784D01*
X107855080Y-112809115D01*
X107855072Y-112809132D01*
X107770524Y-113013250D01*
X107713340Y-113226667D01*
X107713337Y-113226680D01*
X107684501Y-113445715D01*
X107684500Y-113445732D01*
X86700600Y-113445732D01*
X86700600Y-58236556D01*
X90039500Y-58236556D01*
X90039500Y-58475843D01*
X90039501Y-58475859D01*
X90070734Y-58713100D01*
X90132669Y-58944245D01*
X90224243Y-59165323D01*
X90224251Y-59165340D01*
X90343891Y-59372565D01*
X90343892Y-59372567D01*
X90489569Y-59562416D01*
X90489575Y-59562423D01*
X90658776Y-59731624D01*
X90658783Y-59731630D01*
X90848632Y-59877307D01*
X90848634Y-59877308D01*
X91055859Y-59996948D01*
X91055862Y-59996949D01*
X91055870Y-59996954D01*
X91276953Y-60088530D01*
X91508098Y-60150465D01*
X91745350Y-60181700D01*
X91745357Y-60181700D01*
X91984643Y-60181700D01*
X91984650Y-60181700D01*
X92221902Y-60150465D01*
X92453047Y-60088530D01*
X92674130Y-59996954D01*
X92881370Y-59877305D01*
X93071218Y-59731629D01*
X93240429Y-59562418D01*
X93386105Y-59372570D01*
X93416027Y-59320744D01*
X93469524Y-59228082D01*
X93505754Y-59165330D01*
X93597330Y-58944247D01*
X93659265Y-58713102D01*
X93690500Y-58475850D01*
X93690500Y-58236550D01*
X93659265Y-57999298D01*
X93597330Y-57768153D01*
X93505754Y-57547070D01*
X93496198Y-57530518D01*
X93386108Y-57339834D01*
X93386107Y-57339832D01*
X93240430Y-57149983D01*
X93240424Y-57149976D01*
X93071223Y-56980775D01*
X93071216Y-56980769D01*
X92881367Y-56835092D01*
X92881365Y-56835091D01*
X92674140Y-56715451D01*
X92674132Y-56715447D01*
X92674130Y-56715446D01*
X92454742Y-56624572D01*
X92453045Y-56623869D01*
X92221900Y-56561934D01*
X91984659Y-56530701D01*
X91984656Y-56530700D01*
X91984650Y-56530700D01*
X91745350Y-56530700D01*
X91745344Y-56530700D01*
X91745340Y-56530701D01*
X91508099Y-56561934D01*
X91276954Y-56623869D01*
X91055876Y-56715443D01*
X91055859Y-56715451D01*
X90848634Y-56835091D01*
X90848632Y-56835092D01*
X90658783Y-56980769D01*
X90658776Y-56980775D01*
X90489575Y-57149976D01*
X90489569Y-57149983D01*
X90343892Y-57339832D01*
X90343891Y-57339834D01*
X90224251Y-57547059D01*
X90224243Y-57547076D01*
X90132669Y-57768154D01*
X90070734Y-57999299D01*
X90039501Y-58236540D01*
X90039500Y-58236556D01*
X86700600Y-58236556D01*
X86700600Y-54912202D01*
X95845100Y-54912202D01*
X95845100Y-60864216D01*
X95855509Y-60961022D01*
X95855511Y-60961033D01*
X95866714Y-61012533D01*
X95866715Y-61012535D01*
X95866716Y-61012538D01*
X95894934Y-61099281D01*
X95967562Y-61214000D01*
X95967563Y-61214001D01*
X95967562Y-61214001D01*
X96013317Y-61266804D01*
X96013320Y-61266807D01*
X96059712Y-61307562D01*
X96106108Y-61348320D01*
X96229228Y-61405563D01*
X96229236Y-61405565D01*
X96229238Y-61405566D01*
X96296259Y-61425246D01*
X96296261Y-61425246D01*
X96296267Y-61425248D01*
X96424600Y-61443700D01*
X99660564Y-61443700D01*
X99727603Y-61463385D01*
X99748245Y-61480019D01*
X100342194Y-62073968D01*
X100342212Y-62073984D01*
X100378481Y-62106562D01*
X100390989Y-62116640D01*
X100399115Y-62123189D01*
X100399131Y-62123200D01*
X100399134Y-62123203D01*
X100433464Y-62148316D01*
X100433466Y-62148317D01*
X100433470Y-62148320D01*
X100556590Y-62205563D01*
X100556598Y-62205565D01*
X100556600Y-62205566D01*
X100623621Y-62225246D01*
X100623623Y-62225246D01*
X100623629Y-62225248D01*
X100751962Y-62243700D01*
X110733283Y-62243700D01*
X110800322Y-62263385D01*
X110818268Y-62277403D01*
X111643224Y-63053832D01*
X112952607Y-64286192D01*
X112984394Y-64313465D01*
X113002340Y-64327483D01*
X113031284Y-64348320D01*
X113154404Y-64405563D01*
X113154412Y-64405565D01*
X113154414Y-64405566D01*
X113221435Y-64425246D01*
X113221437Y-64425246D01*
X113221443Y-64425248D01*
X113349776Y-64443700D01*
X113349778Y-64443700D01*
X118456127Y-64443700D01*
X118478173Y-64443051D01*
X118482901Y-64442912D01*
X118497465Y-64442054D01*
X118518023Y-64440375D01*
X118649453Y-64406292D01*
X118713717Y-64378869D01*
X118824506Y-64311533D01*
X121106811Y-62431986D01*
X121171074Y-62404564D01*
X121239961Y-62416239D01*
X121287688Y-62457266D01*
X121346816Y-62542928D01*
X121474150Y-62655736D01*
X121624773Y-62734789D01*
X121624775Y-62734790D01*
X121789944Y-62775500D01*
X121960056Y-62775500D01*
X122125225Y-62734790D01*
X122238586Y-62675293D01*
X122275849Y-62655736D01*
X122275850Y-62655734D01*
X122275852Y-62655734D01*
X122403183Y-62542929D01*
X122499818Y-62402930D01*
X122560140Y-62243872D01*
X122580645Y-62075000D01*
X122571028Y-61995800D01*
X125454917Y-61995800D01*
X125473605Y-62173605D01*
X125473606Y-62173607D01*
X125528849Y-62343629D01*
X125528852Y-62343635D01*
X125618240Y-62498461D01*
X125618241Y-62498463D01*
X125618243Y-62498465D01*
X125702753Y-62592322D01*
X125732982Y-62655312D01*
X125734602Y-62675293D01*
X125734602Y-66353808D01*
X125733712Y-66368639D01*
X125729671Y-66402181D01*
X125733356Y-66427977D01*
X125734602Y-66445513D01*
X125734602Y-66471570D01*
X125743344Y-66504195D01*
X125746322Y-66518746D01*
X125751101Y-66552193D01*
X125761337Y-66576158D01*
X125767077Y-66592770D01*
X125773818Y-66617930D01*
X125773821Y-66617935D01*
X125790709Y-66647186D01*
X125797354Y-66660476D01*
X125810624Y-66691543D01*
X125826715Y-66712042D01*
X125836561Y-66726604D01*
X125849587Y-66749165D01*
X125849589Y-66749167D01*
X125873469Y-66773047D01*
X125883326Y-66784162D01*
X125904189Y-66810740D01*
X125925032Y-66826372D01*
X125938314Y-66837892D01*
X125956737Y-66856315D01*
X125985994Y-66873206D01*
X125998395Y-66881394D01*
X126220547Y-67048008D01*
X126262368Y-67103979D01*
X126269467Y-67134243D01*
X126273604Y-67173597D01*
X126273606Y-67173607D01*
X126328849Y-67343629D01*
X126328852Y-67343635D01*
X126418243Y-67498465D01*
X126459914Y-67544746D01*
X126537866Y-67631321D01*
X126537869Y-67631323D01*
X126537872Y-67631326D01*
X126682509Y-67736412D01*
X126845835Y-67809129D01*
X127020711Y-67846300D01*
X127020712Y-67846300D01*
X127199491Y-67846300D01*
X127199493Y-67846300D01*
X127374369Y-67809129D01*
X127537695Y-67736412D01*
X127682332Y-67631326D01*
X127801961Y-67498465D01*
X127891352Y-67343635D01*
X127946599Y-67173603D01*
X127965287Y-66995800D01*
X127946599Y-66817997D01*
X127918975Y-66732981D01*
X127891354Y-66647970D01*
X127891351Y-66647964D01*
X127859485Y-66592770D01*
X127801961Y-66493135D01*
X127743292Y-66427977D01*
X127682337Y-66360278D01*
X127682334Y-66360276D01*
X127682333Y-66360275D01*
X127682332Y-66360274D01*
X127537695Y-66255188D01*
X127374369Y-66182471D01*
X127374367Y-66182470D01*
X127246696Y-66155333D01*
X127199493Y-66145300D01*
X127020711Y-66145300D01*
X127014213Y-66145300D01*
X127014213Y-66143580D01*
X126953819Y-66132528D01*
X126902801Y-66084789D01*
X126885602Y-66021784D01*
X126885602Y-62675293D01*
X126905287Y-62608254D01*
X126917445Y-62592327D01*
X127001961Y-62498465D01*
X127091352Y-62343635D01*
X127146599Y-62173603D01*
X127165287Y-61995800D01*
X127146599Y-61817997D01*
X127091352Y-61647965D01*
X127001961Y-61493135D01*
X126940835Y-61425248D01*
X126882337Y-61360278D01*
X126882334Y-61360276D01*
X126882333Y-61360275D01*
X126882332Y-61360274D01*
X126737695Y-61255188D01*
X126574369Y-61182471D01*
X126574367Y-61182470D01*
X126446696Y-61155333D01*
X126399493Y-61145300D01*
X126220711Y-61145300D01*
X126190056Y-61151815D01*
X126045835Y-61182470D01*
X126045830Y-61182472D01*
X125882510Y-61255187D01*
X125737870Y-61360275D01*
X125618242Y-61493136D01*
X125528852Y-61647964D01*
X125528849Y-61647970D01*
X125473606Y-61817992D01*
X125473605Y-61817994D01*
X125454917Y-61995800D01*
X122571028Y-61995800D01*
X122560140Y-61906128D01*
X122499818Y-61747070D01*
X122403183Y-61607071D01*
X122275852Y-61494266D01*
X122204047Y-61456579D01*
X122153835Y-61407993D01*
X122137674Y-61346783D01*
X122137674Y-60909557D01*
X122157359Y-60842518D01*
X122176607Y-60820307D01*
X122176215Y-60819912D01*
X122179195Y-60816949D01*
X122179204Y-60816943D01*
X122260720Y-60724152D01*
X122317963Y-60601032D01*
X122337648Y-60533993D01*
X122356100Y-60405660D01*
X122356100Y-59861098D01*
X129273706Y-59861098D01*
X129273706Y-59861101D01*
X129293538Y-60087786D01*
X129293540Y-60087797D01*
X129352432Y-60307588D01*
X129352435Y-60307597D01*
X129448605Y-60513832D01*
X129448606Y-60513834D01*
X129579128Y-60700241D01*
X129740032Y-60861145D01*
X129740035Y-60861147D01*
X129926440Y-60991668D01*
X129971196Y-61012538D01*
X129984449Y-61018718D01*
X130036888Y-61064891D01*
X130056040Y-61132084D01*
X130035824Y-61198965D01*
X129984449Y-61243482D01*
X129926441Y-61270531D01*
X129926439Y-61270532D01*
X129740032Y-61401054D01*
X129579128Y-61561958D01*
X129448606Y-61748365D01*
X129448605Y-61748367D01*
X129352435Y-61954602D01*
X129352432Y-61954611D01*
X129293540Y-62174402D01*
X129293538Y-62174413D01*
X129273706Y-62401098D01*
X129273706Y-62401101D01*
X129293538Y-62627786D01*
X129293540Y-62627797D01*
X129352432Y-62847588D01*
X129352435Y-62847597D01*
X129448605Y-63053832D01*
X129448606Y-63053834D01*
X129579128Y-63240241D01*
X129740032Y-63401145D01*
X129740035Y-63401147D01*
X129926440Y-63531668D01*
X129984449Y-63558718D01*
X130036888Y-63604891D01*
X130056040Y-63672084D01*
X130035824Y-63738965D01*
X129984449Y-63783482D01*
X129926441Y-63810531D01*
X129926439Y-63810532D01*
X129740032Y-63941054D01*
X129579128Y-64101958D01*
X129448606Y-64288365D01*
X129448605Y-64288367D01*
X129352435Y-64494602D01*
X129352432Y-64494611D01*
X129293540Y-64714402D01*
X129293538Y-64714413D01*
X129273706Y-64941098D01*
X129273706Y-64941101D01*
X129293538Y-65167786D01*
X129293540Y-65167797D01*
X129352432Y-65387588D01*
X129352435Y-65387597D01*
X129448605Y-65593832D01*
X129448606Y-65593834D01*
X129579128Y-65780241D01*
X129740032Y-65941145D01*
X129740632Y-65941565D01*
X129926440Y-66071668D01*
X130132678Y-66167839D01*
X130352482Y-66226735D01*
X130514404Y-66240901D01*
X130579172Y-66246568D01*
X130579174Y-66246568D01*
X130579176Y-66246568D01*
X130635847Y-66241609D01*
X130805866Y-66226735D01*
X131025670Y-66167839D01*
X131231908Y-66071668D01*
X131418313Y-65941147D01*
X131579221Y-65780239D01*
X131709742Y-65593834D01*
X131805913Y-65387596D01*
X131864809Y-65167792D01*
X131884642Y-64941100D01*
X131864809Y-64714408D01*
X131805913Y-64494604D01*
X131709742Y-64288366D01*
X131579221Y-64101961D01*
X131579219Y-64101958D01*
X131418315Y-63941054D01*
X131231908Y-63810532D01*
X131231902Y-63810529D01*
X131173899Y-63783482D01*
X131121459Y-63737310D01*
X131102307Y-63670117D01*
X131122522Y-63603235D01*
X131173899Y-63558718D01*
X131231908Y-63531668D01*
X131418313Y-63401147D01*
X131579221Y-63240239D01*
X131709742Y-63053834D01*
X131805913Y-62847596D01*
X131864809Y-62627792D01*
X131884642Y-62401100D01*
X131864809Y-62174408D01*
X131805913Y-61954604D01*
X131709742Y-61748366D01*
X131579221Y-61561961D01*
X131579219Y-61561958D01*
X131418315Y-61401054D01*
X131231908Y-61270532D01*
X131231902Y-61270529D01*
X131173899Y-61243482D01*
X131121459Y-61197310D01*
X131102307Y-61130117D01*
X131122522Y-61063235D01*
X131173899Y-61018718D01*
X131187152Y-61012538D01*
X131231908Y-60991668D01*
X131418313Y-60861147D01*
X131579221Y-60700239D01*
X131709742Y-60513834D01*
X131805913Y-60307596D01*
X131864809Y-60087792D01*
X131883765Y-59871123D01*
X131884642Y-59861101D01*
X131884642Y-59861098D01*
X131875853Y-59760642D01*
X131864809Y-59634408D01*
X131805913Y-59414604D01*
X131709742Y-59208366D01*
X131579221Y-59021961D01*
X131579219Y-59021958D01*
X131418316Y-58861055D01*
X131398494Y-58847176D01*
X131354868Y-58792600D01*
X131347674Y-58723101D01*
X131379196Y-58660746D01*
X131439425Y-58625332D01*
X131469616Y-58621600D01*
X131483444Y-58621600D01*
X131513873Y-58618746D01*
X131513875Y-58618746D01*
X131577964Y-58596319D01*
X131642056Y-58573893D01*
X131751324Y-58493250D01*
X131831967Y-58383982D01*
X131854393Y-58319890D01*
X131876820Y-58255801D01*
X131876820Y-58255799D01*
X131879674Y-58225369D01*
X131879674Y-56416830D01*
X131876820Y-56386400D01*
X131876820Y-56386398D01*
X131831967Y-56258219D01*
X131831966Y-56258217D01*
X131751324Y-56148950D01*
X131642056Y-56068307D01*
X131642054Y-56068306D01*
X131513874Y-56023453D01*
X131483444Y-56020600D01*
X131483440Y-56020600D01*
X129674908Y-56020600D01*
X129674904Y-56020600D01*
X129644474Y-56023453D01*
X129644472Y-56023453D01*
X129516293Y-56068306D01*
X129516291Y-56068307D01*
X129407024Y-56148950D01*
X129326381Y-56258217D01*
X129326380Y-56258219D01*
X129281527Y-56386398D01*
X129281527Y-56386400D01*
X129278674Y-56416830D01*
X129278674Y-58225369D01*
X129281527Y-58255799D01*
X129281527Y-58255801D01*
X129326380Y-58383980D01*
X129326381Y-58383982D01*
X129407024Y-58493250D01*
X129516292Y-58573893D01*
X129559019Y-58588844D01*
X129644473Y-58618746D01*
X129674904Y-58621600D01*
X129674908Y-58621600D01*
X129688732Y-58621600D01*
X129755771Y-58641285D01*
X129801526Y-58694089D01*
X129811470Y-58763247D01*
X129782445Y-58826803D01*
X129759854Y-58847176D01*
X129740031Y-58861055D01*
X129579128Y-59021958D01*
X129448606Y-59208365D01*
X129448605Y-59208367D01*
X129352435Y-59414602D01*
X129352432Y-59414611D01*
X129293540Y-59634402D01*
X129293538Y-59634413D01*
X129273706Y-59861098D01*
X122356100Y-59861098D01*
X122356100Y-59712200D01*
X122356099Y-59712183D01*
X122346848Y-59626145D01*
X122345690Y-59615373D01*
X122334484Y-59563862D01*
X122306266Y-59477119D01*
X122233638Y-59362400D01*
X122233636Y-59362398D01*
X122233637Y-59362398D01*
X122187882Y-59309595D01*
X122187879Y-59309592D01*
X122095094Y-59228082D01*
X122095091Y-59228079D01*
X121971975Y-59170838D01*
X121971961Y-59170833D01*
X121904940Y-59151153D01*
X121902113Y-59150746D01*
X121776600Y-59132700D01*
X120322889Y-59132700D01*
X120322868Y-59132700D01*
X120306673Y-59132988D01*
X120297723Y-59133308D01*
X120287733Y-59133776D01*
X120259211Y-59139777D01*
X120154861Y-59161736D01*
X120132069Y-59170236D01*
X120089385Y-59186157D01*
X120088790Y-59186427D01*
X120088587Y-59186455D01*
X120085446Y-59187627D01*
X120085186Y-59186931D01*
X120019596Y-59196119D01*
X119956146Y-59166864D01*
X119950007Y-59161127D01*
X119100580Y-58311700D01*
X125479329Y-58311700D01*
X125499833Y-58480569D01*
X125499834Y-58480574D01*
X125560156Y-58639631D01*
X125601695Y-58699809D01*
X125656791Y-58779629D01*
X125742298Y-58855381D01*
X125784124Y-58892436D01*
X125882842Y-58944247D01*
X125934749Y-58971490D01*
X126099918Y-59012200D01*
X126270030Y-59012200D01*
X126435199Y-58971490D01*
X126514666Y-58929781D01*
X126585823Y-58892436D01*
X126585824Y-58892434D01*
X126585826Y-58892434D01*
X126713157Y-58779629D01*
X126809792Y-58639630D01*
X126870114Y-58480572D01*
X126890619Y-58311700D01*
X126870114Y-58142828D01*
X126809792Y-57983770D01*
X126807821Y-57980914D01*
X126807023Y-57978494D01*
X126806305Y-57977126D01*
X126806532Y-57977006D01*
X126785941Y-57914559D01*
X126785874Y-57910478D01*
X126785874Y-57530518D01*
X126805559Y-57463479D01*
X126807825Y-57460077D01*
X126835191Y-57420431D01*
X126835190Y-57420431D01*
X126835192Y-57420430D01*
X126895514Y-57261372D01*
X126916019Y-57092500D01*
X126895514Y-56923628D01*
X126835192Y-56764570D01*
X126738557Y-56624571D01*
X126611226Y-56511766D01*
X126611223Y-56511763D01*
X126460600Y-56432710D01*
X126295430Y-56392000D01*
X126125318Y-56392000D01*
X125960147Y-56432710D01*
X125809524Y-56511763D01*
X125697573Y-56610944D01*
X125682984Y-56623869D01*
X125682190Y-56624572D01*
X125585556Y-56764568D01*
X125525234Y-56923625D01*
X125525233Y-56923630D01*
X125504729Y-57092500D01*
X125525233Y-57261369D01*
X125525234Y-57261374D01*
X125585556Y-57420431D01*
X125612923Y-57460077D01*
X125634807Y-57526431D01*
X125634874Y-57530518D01*
X125634874Y-57836882D01*
X125615189Y-57903921D01*
X125612924Y-57907322D01*
X125560157Y-57983768D01*
X125560156Y-57983768D01*
X125499834Y-58142825D01*
X125499833Y-58142830D01*
X125479329Y-58311700D01*
X119100580Y-58311700D01*
X118236993Y-57448113D01*
X118203508Y-57386790D01*
X118200674Y-57360432D01*
X118200674Y-55777918D01*
X118220359Y-55710879D01*
X118222625Y-55707477D01*
X118249991Y-55667831D01*
X118249990Y-55667831D01*
X118249992Y-55667830D01*
X118310314Y-55508772D01*
X118330819Y-55339900D01*
X118310314Y-55171028D01*
X118249992Y-55011970D01*
X118153357Y-54871971D01*
X118039464Y-54771071D01*
X118026023Y-54759163D01*
X117875400Y-54680110D01*
X117710230Y-54639400D01*
X117540118Y-54639400D01*
X117374947Y-54680110D01*
X117309656Y-54714378D01*
X117241147Y-54728104D01*
X117176094Y-54702611D01*
X117135150Y-54645996D01*
X117131732Y-54634656D01*
X117121494Y-54593705D01*
X116359802Y-51546933D01*
X116356100Y-51516859D01*
X116356100Y-50967700D01*
X116375785Y-50900661D01*
X116428589Y-50854906D01*
X116480100Y-50843700D01*
X122176600Y-50843700D01*
X122176616Y-50843699D01*
X122232047Y-50837738D01*
X122273427Y-50833290D01*
X122324938Y-50822084D01*
X122411681Y-50793866D01*
X122526400Y-50721238D01*
X122579204Y-50675483D01*
X122660720Y-50582692D01*
X122717963Y-50459572D01*
X122737648Y-50392533D01*
X122756100Y-50264200D01*
X122756100Y-42712200D01*
X122756099Y-42712183D01*
X122745690Y-42615377D01*
X122745690Y-42615373D01*
X122734484Y-42563862D01*
X122706266Y-42477119D01*
X122633638Y-42362400D01*
X122633636Y-42362398D01*
X122633637Y-42362398D01*
X122587882Y-42309595D01*
X122587879Y-42309592D01*
X122495094Y-42228082D01*
X122495091Y-42228079D01*
X122371975Y-42170838D01*
X122371961Y-42170833D01*
X122304940Y-42151153D01*
X122302113Y-42150746D01*
X122176600Y-42132700D01*
X111699600Y-42132700D01*
X111699583Y-42132700D01*
X111602777Y-42143109D01*
X111602766Y-42143111D01*
X111551266Y-42154314D01*
X111551264Y-42154315D01*
X111464518Y-42182534D01*
X111349798Y-42255163D01*
X111296995Y-42300917D01*
X111296992Y-42300920D01*
X111215482Y-42393705D01*
X111215479Y-42393708D01*
X111158238Y-42516824D01*
X111158233Y-42516838D01*
X111138553Y-42583859D01*
X111138552Y-42583867D01*
X111120103Y-42712183D01*
X111120100Y-42712202D01*
X111120100Y-51464216D01*
X111130509Y-51561022D01*
X111130511Y-51561033D01*
X111141714Y-51612533D01*
X111141715Y-51612535D01*
X111141716Y-51612538D01*
X111169934Y-51699281D01*
X111242562Y-51814000D01*
X111242563Y-51814001D01*
X111242562Y-51814001D01*
X111288317Y-51866804D01*
X111381108Y-51948320D01*
X111504228Y-52005563D01*
X111504236Y-52005565D01*
X111504238Y-52005566D01*
X111571259Y-52025246D01*
X111571261Y-52025246D01*
X111571267Y-52025248D01*
X111699600Y-52043700D01*
X111721100Y-52043700D01*
X111788139Y-52063385D01*
X111833894Y-52116189D01*
X111845100Y-52167700D01*
X111845100Y-53295129D01*
X111825415Y-53362168D01*
X111772611Y-53407923D01*
X111740955Y-53417529D01*
X108335413Y-53969966D01*
X108335411Y-53969967D01*
X108292157Y-53983056D01*
X108219768Y-54004961D01*
X108219766Y-54004962D01*
X108160422Y-54031952D01*
X108160411Y-54031958D01*
X108058047Y-54096118D01*
X107166733Y-54836094D01*
X107102579Y-54863771D01*
X107033645Y-54852370D01*
X106981819Y-54805511D01*
X106963554Y-54738071D01*
X106964204Y-54727737D01*
X106965034Y-54719849D01*
X106946346Y-54542046D01*
X106891099Y-54372014D01*
X106801708Y-54217184D01*
X106721285Y-54127865D01*
X106682084Y-54084327D01*
X106682081Y-54084325D01*
X106682080Y-54084324D01*
X106682079Y-54084323D01*
X106537442Y-53979237D01*
X106374116Y-53906520D01*
X106374114Y-53906519D01*
X106246443Y-53879382D01*
X106199240Y-53869349D01*
X106020458Y-53869349D01*
X106013933Y-53870736D01*
X105845582Y-53906519D01*
X105845577Y-53906521D01*
X105682257Y-53979236D01*
X105537617Y-54084324D01*
X105417989Y-54217185D01*
X105328599Y-54372013D01*
X105328596Y-54372019D01*
X105273353Y-54542041D01*
X105273352Y-54542043D01*
X105270189Y-54572135D01*
X105254981Y-54716838D01*
X105254403Y-54722335D01*
X105227818Y-54786949D01*
X105218763Y-54797054D01*
X104271635Y-55744183D01*
X104164487Y-55851330D01*
X104164485Y-55851333D01*
X104088719Y-55982561D01*
X104049500Y-56128932D01*
X104049500Y-57921720D01*
X104088719Y-58068091D01*
X104126602Y-58133705D01*
X104164485Y-58199320D01*
X104938074Y-58972909D01*
X105711367Y-59746201D01*
X105744852Y-59807524D01*
X105747007Y-59820920D01*
X105765957Y-60001213D01*
X105765958Y-60001216D01*
X105820924Y-60170382D01*
X105822919Y-60240223D01*
X105786839Y-60300056D01*
X105724138Y-60330884D01*
X105702993Y-60332700D01*
X103320926Y-60332700D01*
X103253887Y-60313015D01*
X103238545Y-60301379D01*
X102366118Y-59525888D01*
X102366112Y-59525883D01*
X102307604Y-59481764D01*
X102307601Y-59481762D01*
X102307593Y-59481756D01*
X102274018Y-59460445D01*
X102214870Y-59428756D01*
X102083958Y-59392734D01*
X102083953Y-59392733D01*
X102079485Y-59391504D01*
X102079876Y-59390080D01*
X102023608Y-59360825D01*
X102002104Y-59333382D01*
X101966859Y-59272335D01*
X101889961Y-59186931D01*
X101881718Y-59177776D01*
X101851488Y-59114784D01*
X101849868Y-59094804D01*
X101849868Y-54838110D01*
X101869553Y-54771071D01*
X101922357Y-54725316D01*
X101991515Y-54715372D01*
X102055071Y-54744397D01*
X102061549Y-54750429D01*
X102146634Y-54835514D01*
X102277865Y-54911281D01*
X102424233Y-54950500D01*
X102424235Y-54950500D01*
X102575764Y-54950500D01*
X102575766Y-54950500D01*
X102722135Y-54911281D01*
X102853365Y-54835514D01*
X102960514Y-54728365D01*
X103036281Y-54597135D01*
X103075500Y-54450766D01*
X103075500Y-54299233D01*
X103036281Y-54152865D01*
X102960514Y-54021634D01*
X102828365Y-53889485D01*
X102762750Y-53851602D01*
X102697136Y-53813719D01*
X102623950Y-53794109D01*
X102550766Y-53774500D01*
X102399234Y-53774500D01*
X102252863Y-53813719D01*
X102121635Y-53889485D01*
X102121632Y-53889487D01*
X102061549Y-53949571D01*
X102000226Y-53983056D01*
X101930534Y-53978072D01*
X101874601Y-53936200D01*
X101850184Y-53870736D01*
X101849868Y-53861890D01*
X101849868Y-53278573D01*
X101869553Y-53211534D01*
X101886182Y-53190897D01*
X104350387Y-50726691D01*
X104411708Y-50693208D01*
X104481400Y-50698192D01*
X104488498Y-50701092D01*
X104599112Y-50750341D01*
X104773988Y-50787512D01*
X104773989Y-50787512D01*
X104952768Y-50787512D01*
X104952770Y-50787512D01*
X105127646Y-50750341D01*
X105290972Y-50677624D01*
X105435609Y-50572538D01*
X105555238Y-50439677D01*
X105644629Y-50284847D01*
X105699876Y-50114815D01*
X105718564Y-49937012D01*
X105699876Y-49759209D01*
X105644629Y-49589177D01*
X105555238Y-49434347D01*
X105508382Y-49382308D01*
X105435614Y-49301490D01*
X105435611Y-49301488D01*
X105435610Y-49301487D01*
X105435609Y-49301486D01*
X105290972Y-49196400D01*
X105127646Y-49123683D01*
X105127644Y-49123682D01*
X104999973Y-49096545D01*
X104952770Y-49086512D01*
X104773988Y-49086512D01*
X104743333Y-49093027D01*
X104599112Y-49123682D01*
X104599107Y-49123684D01*
X104435787Y-49196399D01*
X104291147Y-49301487D01*
X104212973Y-49388307D01*
X104153486Y-49424955D01*
X104152919Y-49425108D01*
X104052866Y-49451918D01*
X104052865Y-49451918D01*
X103921635Y-49527685D01*
X103921632Y-49527687D01*
X100813855Y-52635464D01*
X100813853Y-52635467D01*
X100738087Y-52766695D01*
X100698868Y-52913066D01*
X100698868Y-56008700D01*
X100679183Y-56075739D01*
X100626379Y-56121494D01*
X100574868Y-56132700D01*
X99080100Y-56132700D01*
X99013061Y-56113015D01*
X98967306Y-56060211D01*
X98956100Y-56008700D01*
X98956100Y-54912200D01*
X98956099Y-54912183D01*
X98945690Y-54815377D01*
X98945690Y-54815373D01*
X98934484Y-54763862D01*
X98906266Y-54677119D01*
X98833638Y-54562400D01*
X98833636Y-54562398D01*
X98833637Y-54562398D01*
X98787882Y-54509595D01*
X98787879Y-54509592D01*
X98695094Y-54428082D01*
X98695091Y-54428079D01*
X98571975Y-54370838D01*
X98571961Y-54370833D01*
X98504940Y-54351153D01*
X98502113Y-54350746D01*
X98376600Y-54332700D01*
X96424600Y-54332700D01*
X96424583Y-54332700D01*
X96327777Y-54343109D01*
X96327766Y-54343111D01*
X96276266Y-54354314D01*
X96276264Y-54354315D01*
X96189518Y-54382534D01*
X96074798Y-54455163D01*
X96021995Y-54500917D01*
X96021992Y-54500920D01*
X95940482Y-54593705D01*
X95940479Y-54593708D01*
X95883238Y-54716824D01*
X95883233Y-54716838D01*
X95863553Y-54783859D01*
X95863552Y-54783867D01*
X95845103Y-54912183D01*
X95845100Y-54912202D01*
X86700600Y-54912202D01*
X86700600Y-39988200D01*
X100495378Y-39988200D01*
X100514244Y-40276037D01*
X100514246Y-40276049D01*
X100570517Y-40558945D01*
X100570521Y-40558960D01*
X100663242Y-40832105D01*
X100790819Y-41090806D01*
X100790823Y-41090813D01*
X100951078Y-41330652D01*
X101141272Y-41547527D01*
X101358146Y-41737720D01*
X101597989Y-41897978D01*
X101856698Y-42025559D01*
X102129847Y-42118281D01*
X102412761Y-42174556D01*
X102700600Y-42193422D01*
X102988439Y-42174556D01*
X103271353Y-42118281D01*
X103544502Y-42025559D01*
X103803211Y-41897978D01*
X104043054Y-41737720D01*
X104259927Y-41547527D01*
X104450120Y-41330654D01*
X104610378Y-41090811D01*
X104737959Y-40832102D01*
X104830681Y-40558953D01*
X104886956Y-40276039D01*
X104905822Y-39988200D01*
X104886956Y-39700361D01*
X104830681Y-39417447D01*
X104737959Y-39144298D01*
X104610378Y-38885589D01*
X104450120Y-38645746D01*
X104259927Y-38428872D01*
X104043052Y-38238678D01*
X103803213Y-38078423D01*
X103803206Y-38078419D01*
X103544505Y-37950842D01*
X103271360Y-37858121D01*
X103271354Y-37858119D01*
X103271353Y-37858119D01*
X103271351Y-37858118D01*
X103271345Y-37858117D01*
X102988449Y-37801846D01*
X102988439Y-37801844D01*
X102700600Y-37782978D01*
X102412761Y-37801844D01*
X102412755Y-37801845D01*
X102412750Y-37801846D01*
X102129854Y-37858117D01*
X102129839Y-37858121D01*
X101856694Y-37950842D01*
X101597993Y-38078419D01*
X101597986Y-38078423D01*
X101358147Y-38238678D01*
X101141272Y-38428872D01*
X100951078Y-38645747D01*
X100790823Y-38885586D01*
X100790819Y-38885593D01*
X100663242Y-39144294D01*
X100570521Y-39417439D01*
X100570517Y-39417454D01*
X100514246Y-39700350D01*
X100514244Y-39700362D01*
X100495378Y-39988200D01*
X86700600Y-39988200D01*
X86700600Y-34988199D01*
X93545171Y-34988199D01*
X93545171Y-34988200D01*
X93564844Y-35200510D01*
X93623196Y-35405592D01*
X93623196Y-35405594D01*
X93718232Y-35596453D01*
X93718234Y-35596455D01*
X93846728Y-35766607D01*
X94004298Y-35910252D01*
X94185581Y-36022498D01*
X94384402Y-36099521D01*
X94593990Y-36138700D01*
X94593992Y-36138700D01*
X94807208Y-36138700D01*
X94807210Y-36138700D01*
X95016798Y-36099521D01*
X95215619Y-36022498D01*
X95396902Y-35910252D01*
X95554472Y-35766607D01*
X95682966Y-35596455D01*
X95778005Y-35405589D01*
X95836356Y-35200510D01*
X95856029Y-34988200D01*
X95856029Y-34988199D01*
X104545171Y-34988199D01*
X104545171Y-34988200D01*
X104564844Y-35200510D01*
X104623196Y-35405592D01*
X104623196Y-35405594D01*
X104718232Y-35596453D01*
X104718234Y-35596455D01*
X104846728Y-35766607D01*
X105004298Y-35910252D01*
X105185581Y-36022498D01*
X105384402Y-36099521D01*
X105593990Y-36138700D01*
X105593992Y-36138700D01*
X105807208Y-36138700D01*
X105807210Y-36138700D01*
X106016798Y-36099521D01*
X106215619Y-36022498D01*
X106396902Y-35910252D01*
X106554472Y-35766607D01*
X106682966Y-35596455D01*
X106778005Y-35405589D01*
X106836356Y-35200510D01*
X106856029Y-34988200D01*
X106836356Y-34775890D01*
X106778005Y-34570811D01*
X106778003Y-34570806D01*
X106778003Y-34570805D01*
X106682967Y-34379946D01*
X106554472Y-34209793D01*
X106396902Y-34066148D01*
X106215619Y-33953902D01*
X106215617Y-33953901D01*
X106116208Y-33915390D01*
X106016798Y-33876879D01*
X105807210Y-33837700D01*
X105593990Y-33837700D01*
X105384402Y-33876879D01*
X105384399Y-33876879D01*
X105384399Y-33876880D01*
X105185582Y-33953901D01*
X105185580Y-33953902D01*
X105004299Y-34066147D01*
X104846727Y-34209793D01*
X104718232Y-34379946D01*
X104623196Y-34570805D01*
X104623196Y-34570807D01*
X104564844Y-34775889D01*
X104545171Y-34988199D01*
X95856029Y-34988199D01*
X95836356Y-34775890D01*
X95778005Y-34570811D01*
X95778003Y-34570806D01*
X95778003Y-34570805D01*
X95682967Y-34379946D01*
X95554472Y-34209793D01*
X95396902Y-34066148D01*
X95215619Y-33953902D01*
X95215617Y-33953901D01*
X95116208Y-33915390D01*
X95016798Y-33876879D01*
X94807210Y-33837700D01*
X94593990Y-33837700D01*
X94384402Y-33876879D01*
X94384399Y-33876879D01*
X94384399Y-33876880D01*
X94185582Y-33953901D01*
X94185580Y-33953902D01*
X94004299Y-34066147D01*
X93846727Y-34209793D01*
X93718232Y-34379946D01*
X93623196Y-34570805D01*
X93623196Y-34570807D01*
X93564844Y-34775889D01*
X93545171Y-34988199D01*
X86700600Y-34988199D01*
X86700600Y-32349000D01*
X86720285Y-32281961D01*
X86773089Y-32236206D01*
X86824600Y-32225000D01*
X133651983Y-32225000D01*
X133719022Y-32244685D01*
G37*
%TD.AperFunction*%
%TD*%
%TA.AperFunction,Conductor*%
%TO.N,+BATT*%
G36*
X122243639Y-42607885D02*
G01*
X122289394Y-42660689D01*
X122300600Y-42712200D01*
X122300600Y-50264200D01*
X122280915Y-50331239D01*
X122228111Y-50376994D01*
X122176600Y-50388200D01*
X115900600Y-50388200D01*
X115900600Y-51588200D01*
X117295972Y-57169688D01*
X117299674Y-57199762D01*
X117299674Y-57693026D01*
X117321856Y-57775814D01*
X117332397Y-57794071D01*
X117364709Y-57850036D01*
X117364711Y-57850038D01*
X117475555Y-57960882D01*
X117508172Y-58018489D01*
X117900599Y-59588199D01*
X117900600Y-59588200D01*
X119051511Y-59588200D01*
X119118550Y-59607885D01*
X119139192Y-59624519D01*
X120515434Y-61000761D01*
X120515435Y-61000762D01*
X120576038Y-61061365D01*
X120576040Y-61061366D01*
X120576044Y-61061369D01*
X120650255Y-61104214D01*
X120650262Y-61104218D01*
X120733047Y-61126400D01*
X121112674Y-61126400D01*
X121179713Y-61146085D01*
X121225468Y-61198889D01*
X121236674Y-61250400D01*
X121236674Y-61676443D01*
X121216989Y-61743482D01*
X121191502Y-61772162D01*
X118534941Y-63959919D01*
X118470677Y-63987342D01*
X118456113Y-63988200D01*
X113349776Y-63988200D01*
X113282737Y-63968515D01*
X113264791Y-63954497D01*
X110963100Y-61788200D01*
X109900600Y-60788200D01*
X109900600Y-60788199D01*
X109365781Y-60253381D01*
X109332296Y-60192058D01*
X109337280Y-60122367D01*
X109379151Y-60066433D01*
X109444616Y-60042016D01*
X109453462Y-60041700D01*
X109480467Y-60041700D01*
X109480474Y-60041700D01*
X109699530Y-60012861D01*
X109912949Y-59955676D01*
X110117077Y-59871123D01*
X110308423Y-59760649D01*
X110483712Y-59626145D01*
X110639945Y-59469912D01*
X110774449Y-59294623D01*
X110884923Y-59103277D01*
X110969476Y-58899149D01*
X111026661Y-58685730D01*
X111055500Y-58466674D01*
X111055500Y-58245726D01*
X111026661Y-58026670D01*
X110969476Y-57813251D01*
X110884923Y-57609123D01*
X110884921Y-57609120D01*
X110884919Y-57609115D01*
X110774453Y-57417784D01*
X110774449Y-57417777D01*
X110686594Y-57303282D01*
X110639946Y-57242489D01*
X110639940Y-57242482D01*
X110483717Y-57086259D01*
X110483710Y-57086253D01*
X110308431Y-56951757D01*
X110308429Y-56951755D01*
X110308423Y-56951751D01*
X110308418Y-56951748D01*
X110308415Y-56951746D01*
X110117084Y-56841280D01*
X110117067Y-56841272D01*
X109912949Y-56756724D01*
X109859703Y-56742457D01*
X109699530Y-56699539D01*
X109699524Y-56699538D01*
X109699519Y-56699537D01*
X109480484Y-56670701D01*
X109480479Y-56670700D01*
X109480474Y-56670700D01*
X109259526Y-56670700D01*
X109259520Y-56670700D01*
X109259515Y-56670701D01*
X109040480Y-56699537D01*
X109040473Y-56699538D01*
X109040470Y-56699539D01*
X108970684Y-56718238D01*
X108827050Y-56756724D01*
X108622932Y-56841272D01*
X108622915Y-56841280D01*
X108431584Y-56951746D01*
X108431568Y-56951757D01*
X108256289Y-57086253D01*
X108256282Y-57086259D01*
X108100059Y-57242482D01*
X108100053Y-57242489D01*
X107965557Y-57417768D01*
X107965546Y-57417784D01*
X107855080Y-57609115D01*
X107855072Y-57609132D01*
X107770524Y-57813250D01*
X107713340Y-58026667D01*
X107713337Y-58026680D01*
X107684501Y-58245715D01*
X107684500Y-58245732D01*
X107684500Y-58272738D01*
X107664815Y-58339777D01*
X107612011Y-58385532D01*
X107542853Y-58395476D01*
X107479297Y-58366451D01*
X107472819Y-58360419D01*
X107300600Y-58188200D01*
X105478934Y-58188200D01*
X105411895Y-58168515D01*
X105391253Y-58151881D01*
X105033443Y-57794071D01*
X104999958Y-57732748D01*
X105004942Y-57663056D01*
X105030568Y-57621681D01*
X105224208Y-57414688D01*
X105227050Y-57411749D01*
X107421548Y-55217251D01*
X107429999Y-55209547D01*
X108349004Y-54446582D01*
X108408352Y-54419589D01*
X112300600Y-53788200D01*
X112300600Y-51588200D01*
X111699600Y-51588200D01*
X111632561Y-51568515D01*
X111586806Y-51515711D01*
X111575600Y-51464200D01*
X111575600Y-42712200D01*
X111595285Y-42645161D01*
X111648089Y-42599406D01*
X111699600Y-42588200D01*
X122176600Y-42588200D01*
X122243639Y-42607885D01*
G37*
%TD.AperFunction*%
%TD*%
M02*
