%TF.GenerationSoftware,KiCad,Pcbnew,8.0.3*%
%TF.CreationDate,2024-07-15T22:47:52-04:00*%
%TF.ProjectId,get-a-grip-on-reality,6765742d-612d-4677-9269-702d6f6e2d72,rev?*%
%TF.SameCoordinates,Original*%
%TF.FileFunction,Copper,L2,Bot*%
%TF.FilePolarity,Positive*%
%FSLAX46Y46*%
G04 Gerber Fmt 4.6, Leading zero omitted, Abs format (unit mm)*
G04 Created by KiCad (PCBNEW 8.0.3) date 2024-07-15 22:47:52*
%MOMM*%
%LPD*%
G01*
G04 APERTURE LIST*
G04 Aperture macros list*
%AMRoundRect*
0 Rectangle with rounded corners*
0 $1 Rounding radius*
0 $2 $3 $4 $5 $6 $7 $8 $9 X,Y pos of 4 corners*
0 Add a 4 corners polygon primitive as box body*
4,1,4,$2,$3,$4,$5,$6,$7,$8,$9,$2,$3,0*
0 Add four circle primitives for the rounded corners*
1,1,$1+$1,$2,$3*
1,1,$1+$1,$4,$5*
1,1,$1+$1,$6,$7*
1,1,$1+$1,$8,$9*
0 Add four rect primitives between the rounded corners*
20,1,$1+$1,$2,$3,$4,$5,0*
20,1,$1+$1,$4,$5,$6,$7,0*
20,1,$1+$1,$6,$7,$8,$9,0*
20,1,$1+$1,$8,$9,$2,$3,0*%
%AMRotRect*
0 Rectangle, with rotation*
0 The origin of the aperture is its center*
0 $1 length*
0 $2 width*
0 $3 Rotation angle, in degrees counterclockwise*
0 Add horizontal line*
21,1,$1,$2,0,0,$3*%
G04 Aperture macros list end*
%TA.AperFunction,ComponentPad*%
%ADD10RotRect,1.258000X1.258000X210.000000*%
%TD*%
%TA.AperFunction,ComponentPad*%
%ADD11C,1.258000*%
%TD*%
%TA.AperFunction,ComponentPad*%
%ADD12O,1.700000X1.700000*%
%TD*%
%TA.AperFunction,ComponentPad*%
%ADD13R,1.700000X1.700000*%
%TD*%
%TA.AperFunction,HeatsinkPad*%
%ADD14R,1.600000X0.500000*%
%TD*%
%TA.AperFunction,ComponentPad*%
%ADD15RotRect,1.258000X1.258000X330.000000*%
%TD*%
%TA.AperFunction,ComponentPad*%
%ADD16R,1.258000X1.258000*%
%TD*%
%TA.AperFunction,SMDPad,CuDef*%
%ADD17R,0.250000X0.625000*%
%TD*%
%TA.AperFunction,SMDPad,CuDef*%
%ADD18R,0.450000X0.575000*%
%TD*%
%TA.AperFunction,SMDPad,CuDef*%
%ADD19R,0.450000X0.700000*%
%TD*%
%TA.AperFunction,ComponentPad*%
%ADD20C,3.500000*%
%TD*%
%TA.AperFunction,ComponentPad*%
%ADD21R,3.500000X3.500000*%
%TD*%
%TA.AperFunction,ComponentPad*%
%ADD22C,1.400000*%
%TD*%
%TA.AperFunction,SMDPad,CuDef*%
%ADD23RoundRect,0.250000X0.840000X0.750000X-0.840000X0.750000X-0.840000X-0.750000X0.840000X-0.750000X0*%
%TD*%
%TA.AperFunction,SMDPad,CuDef*%
%ADD24RoundRect,0.150000X0.150000X0.425000X-0.150000X0.425000X-0.150000X-0.425000X0.150000X-0.425000X0*%
%TD*%
%TA.AperFunction,SMDPad,CuDef*%
%ADD25RoundRect,0.075000X0.075000X0.500000X-0.075000X0.500000X-0.075000X-0.500000X0.075000X-0.500000X0*%
%TD*%
%TA.AperFunction,ViaPad*%
%ADD26C,0.800000*%
%TD*%
%TA.AperFunction,ViaPad*%
%ADD27C,0.500000*%
%TD*%
%TA.AperFunction,Conductor*%
%ADD28C,0.250000*%
%TD*%
%TA.AperFunction,Conductor*%
%ADD29C,0.150000*%
%TD*%
G04 APERTURE END LIST*
D10*
%TO.P,D5,K*%
%TO.N,/Light Sensor/1IN-*%
X83600000Y-52040000D03*
D11*
%TO.P,D5,A*%
%TO.N,GND*%
X81400296Y-53310000D03*
%TD*%
D12*
%TO.P,J9,3,Pin_3*%
%TO.N,GND*%
X57759664Y-34366000D03*
%TO.P,J9,2,Pin_2*%
%TO.N,/MOTOR3*%
X57759664Y-36906000D03*
D13*
%TO.P,J9,1,Pin_1*%
%TO.N,+5V*%
X57759664Y-39446000D03*
%TD*%
D12*
%TO.P,J11,3,Pin_3*%
%TO.N,GND*%
X65227000Y-34366000D03*
%TO.P,J11,2,Pin_2*%
%TO.N,/MOTOR5*%
X65227000Y-36906000D03*
D13*
%TO.P,J11,1,Pin_1*%
%TO.N,+5V*%
X65227000Y-39446000D03*
%TD*%
D12*
%TO.P,J10,3,Pin_3*%
%TO.N,GND*%
X61493330Y-34366000D03*
%TO.P,J10,2,Pin_2*%
%TO.N,/MOTOR4*%
X61493330Y-36906000D03*
D13*
%TO.P,J10,1,Pin_1*%
%TO.N,+5V*%
X61493330Y-39446000D03*
%TD*%
D14*
%TO.P,U1,7,PAD*%
%TO.N,GND*%
X69225000Y-61400000D03*
%TD*%
D15*
%TO.P,D6,K*%
%TO.N,/Light Sensor/1IN-*%
X81400296Y-45405000D03*
D11*
%TO.P,D6,A*%
%TO.N,GND*%
X83600000Y-46675000D03*
%TD*%
D12*
%TO.P,J8,3,Pin_3*%
%TO.N,GND*%
X54025998Y-34366000D03*
%TO.P,J8,2,Pin_2*%
%TO.N,/MOTOR2*%
X54025998Y-36906000D03*
D13*
%TO.P,J8,1,Pin_1*%
%TO.N,+5V*%
X54025998Y-39446000D03*
%TD*%
D12*
%TO.P,J1,4,Pin_4*%
%TO.N,GND*%
X46675000Y-34375000D03*
%TO.P,J1,3,Pin_3*%
%TO.N,/IMU/SCLK*%
X46675000Y-36915000D03*
%TO.P,J1,2,Pin_2*%
%TO.N,/IMU/SDO*%
X46675000Y-39455000D03*
D13*
%TO.P,J1,1,Pin_1*%
%TO.N,+3.3V*%
X46675000Y-41995000D03*
%TD*%
D12*
%TO.P,J13,5,Pin_5*%
%TO.N,GND*%
X43075000Y-35135000D03*
%TO.P,J13,4,Pin_4*%
%TO.N,Net-(J13-Pin_4)*%
X43075000Y-37675000D03*
%TO.P,J13,3,Pin_3*%
%TO.N,Net-(J13-Pin_3)*%
X43075000Y-40215000D03*
%TO.P,J13,2,Pin_2*%
%TO.N,Net-(J13-Pin_2)*%
X43075000Y-42755000D03*
D13*
%TO.P,J13,1,Pin_1*%
%TO.N,+3.3V*%
X43075000Y-45295000D03*
%TD*%
D12*
%TO.P,J7,3,Pin_3*%
%TO.N,GND*%
X50292332Y-34366000D03*
%TO.P,J7,2,Pin_2*%
%TO.N,/MOTOR1*%
X50292332Y-36906000D03*
D13*
%TO.P,J7,1,Pin_1*%
%TO.N,+5V*%
X50292332Y-39446000D03*
%TD*%
D16*
%TO.P,D4,K*%
%TO.N,/Light Sensor/1IN-*%
X76775000Y-50632500D03*
D11*
%TO.P,D4,A*%
%TO.N,GND*%
X76775000Y-48092500D03*
%TD*%
D17*
%TO.P,U3,10,NC*%
%TO.N,/MCU/USB_N*%
X57875000Y-69970000D03*
%TO.P,U3,9,NC*%
%TO.N,/MCU/USB_P*%
X58375000Y-69970000D03*
D18*
%TO.P,U3,8,VSS*%
%TO.N,GND*%
X58875000Y-69995000D03*
D17*
%TO.P,U3,7,NC*%
%TO.N,+5V_USB_ESP*%
X59375000Y-69970000D03*
%TO.P,U3,6,NC*%
%TO.N,unconnected-(U3-NC-Pad6)*%
X59875000Y-69970000D03*
%TO.P,U3,5*%
%TO.N,unconnected-(U3-Pad5)*%
X59875000Y-69195000D03*
%TO.P,U3,4*%
%TO.N,+5V_USB_ESP*%
X59375000Y-69195000D03*
D19*
%TO.P,U3,3,VSS*%
%TO.N,GND*%
X58875000Y-69232500D03*
D17*
%TO.P,U3,2*%
%TO.N,/MCU/USB_P*%
X58375000Y-69195000D03*
%TO.P,U3,1*%
%TO.N,/MCU/USB_N*%
X57875000Y-69195000D03*
%TD*%
D20*
%TO.P,J12,2,Pin_2*%
%TO.N,+5V*%
X72400000Y-67025000D03*
D21*
%TO.P,J12,1,Pin_1*%
%TO.N,GND*%
X77400000Y-67025000D03*
D22*
%TO.P,J12,*%
%TO.N,*%
X80400000Y-77025000D03*
X69400000Y-77025000D03*
%TD*%
D23*
%TO.P,P1,S1,SHIELD*%
%TO.N,GND*%
X53040000Y-72620000D03*
X53040000Y-76550000D03*
X63260000Y-72620000D03*
X63260000Y-76550000D03*
D24*
%TO.P,P1,B12,GND*%
X61350000Y-72045000D03*
%TO.P,P1,B9,VBUS*%
%TO.N,+5V_USB_ESP*%
X60550000Y-72045000D03*
D25*
%TO.P,P1,B8*%
%TO.N,N/C*%
X59900000Y-72045000D03*
%TO.P,P1,B7*%
X58900000Y-72045000D03*
%TO.P,P1,B6*%
X57400000Y-72045000D03*
%TO.P,P1,B5,VCONN*%
%TO.N,unconnected-(P1-VCONN-PadB5)*%
X56400000Y-72045000D03*
D24*
%TO.P,P1,B4,VBUS*%
%TO.N,+5V_USB_ESP*%
X55750000Y-72045000D03*
%TO.P,P1,B1,GND*%
%TO.N,GND*%
X54950000Y-72045000D03*
%TO.P,P1,A12,GND*%
X54950000Y-72045000D03*
%TO.P,P1,A9,VBUS*%
%TO.N,+5V_USB_ESP*%
X55750000Y-72045000D03*
D25*
%TO.P,P1,A8*%
%TO.N,N/C*%
X56900000Y-72045000D03*
%TO.P,P1,A7,D-*%
%TO.N,/MCU/USB_N*%
X57900000Y-72045000D03*
%TO.P,P1,A6,D+*%
%TO.N,/MCU/USB_P*%
X58400000Y-72045000D03*
%TO.P,P1,A5,CC*%
%TO.N,unconnected-(P1-CC-PadA5)*%
X59400000Y-72045000D03*
D24*
%TO.P,P1,A4,VBUS*%
%TO.N,+5V_USB_ESP*%
X60550000Y-72045000D03*
%TO.P,P1,A1,GND*%
%TO.N,GND*%
X61350000Y-72045000D03*
%TD*%
D26*
%TO.N,GND*%
X83289000Y-72765000D03*
X83289000Y-70225000D03*
X83289000Y-67685000D03*
X83289000Y-65145000D03*
X83289000Y-62605000D03*
X83289000Y-60065000D03*
X83289000Y-57525000D03*
X83289000Y-54985000D03*
X83289000Y-49905000D03*
X83289000Y-39745000D03*
X83289000Y-37205000D03*
X83289000Y-34665000D03*
X80749000Y-75305000D03*
X80749000Y-72765000D03*
X80749000Y-70225000D03*
X80749000Y-67685000D03*
X80749000Y-65145000D03*
X80749000Y-62605000D03*
X80749000Y-60065000D03*
X80749000Y-57525000D03*
X80749000Y-54985000D03*
X80749000Y-39745000D03*
X80749000Y-37205000D03*
X80749000Y-34665000D03*
X78209000Y-75305000D03*
X78209000Y-72765000D03*
X78209000Y-70225000D03*
X78209000Y-62605000D03*
X78209000Y-60065000D03*
X78209000Y-57525000D03*
X78209000Y-54985000D03*
X78209000Y-52445000D03*
X78209000Y-47365000D03*
X78209000Y-37205000D03*
X75669000Y-75305000D03*
X75669000Y-72765000D03*
X75669000Y-70225000D03*
X75669000Y-57525000D03*
X73129000Y-75305000D03*
X73129000Y-72765000D03*
X70589000Y-75305000D03*
X70589000Y-72765000D03*
X60429000Y-42285000D03*
X57889000Y-60065000D03*
X57889000Y-57525000D03*
X57889000Y-54985000D03*
X57889000Y-52445000D03*
X57889000Y-49905000D03*
X55349000Y-60065000D03*
X55349000Y-57525000D03*
X55349000Y-54985000D03*
X55349000Y-52445000D03*
X55349000Y-49905000D03*
X52809000Y-54985000D03*
X52809000Y-52445000D03*
X52809000Y-49905000D03*
X50269000Y-54985000D03*
X50269000Y-52445000D03*
X50269000Y-49905000D03*
X47729000Y-54985000D03*
X47729000Y-52445000D03*
X45189000Y-52445000D03*
X69088000Y-49276000D03*
X50710000Y-59820000D03*
X51420000Y-58970000D03*
X65151000Y-60198000D03*
X69088000Y-50800000D03*
X51520000Y-57020000D03*
X41925000Y-60525000D03*
X50090000Y-57030000D03*
X80137000Y-43942000D03*
X58725000Y-45050000D03*
X66075000Y-43925000D03*
X83566000Y-43942000D03*
X48530000Y-58990000D03*
X45325000Y-56325000D03*
X49200331Y-41910331D03*
X50419000Y-74041000D03*
X68707000Y-46482000D03*
X66548000Y-58166000D03*
X65786000Y-52578000D03*
X62992000Y-56261000D03*
X57675000Y-74575000D03*
X48630000Y-57040000D03*
X61825000Y-46750000D03*
X67675000Y-61225000D03*
X69088000Y-47879000D03*
X50038000Y-68707000D03*
X54050000Y-46200000D03*
X41925000Y-56325000D03*
X76327000Y-45720000D03*
X62500000Y-66125000D03*
X70612000Y-33782000D03*
X62800000Y-45750000D03*
X68326000Y-68453000D03*
X65786000Y-54483000D03*
X65024000Y-58166000D03*
X45325000Y-60525000D03*
X68300000Y-65550000D03*
X41656000Y-71755000D03*
X41925000Y-58525000D03*
X48975000Y-72675000D03*
X41925000Y-62925000D03*
X59175000Y-74575000D03*
X50810000Y-57870000D03*
X50038000Y-70993000D03*
X54050000Y-45225000D03*
X68300000Y-67100000D03*
X49300000Y-59860000D03*
X49170000Y-42790000D03*
X41670000Y-72898000D03*
X51599098Y-70143694D03*
X65675000Y-73325000D03*
X41910000Y-64389000D03*
X72644000Y-36576000D03*
X49990000Y-58980000D03*
X78232000Y-43942000D03*
X49400000Y-57910000D03*
X69225000Y-61400000D03*
X45325000Y-58525000D03*
%TO.N,Net-(U2-GPIO0{slash}BOOT)*%
X65225000Y-42525000D03*
X62325000Y-43725000D03*
%TO.N,+5V*%
X71225000Y-64225000D03*
X72175000Y-64225000D03*
X73125000Y-64225000D03*
%TO.N,Net-(U2-EN)*%
X84050000Y-42550000D03*
X45325000Y-71525000D03*
D27*
%TO.N,/IMU/SCLK*%
X52325000Y-47125000D03*
X50094202Y-45352873D03*
%TO.N,/IMU/SDO*%
X51925000Y-46325000D03*
X51057538Y-46942464D03*
D26*
%TO.N,Net-(J13-Pin_3)*%
X47225000Y-49925000D03*
%TO.N,Net-(J13-Pin_4)*%
X42475000Y-53950000D03*
%TO.N,Net-(J13-Pin_2)*%
X45825000Y-49625000D03*
%TO.N,/MCU/USB_N*%
X57600000Y-67575000D03*
%TO.N,/MCU/USB_P*%
X58650000Y-67575000D03*
D27*
%TO.N,/IMU/INT1*%
X52525000Y-44325000D03*
X44083400Y-46629200D03*
%TD*%
D28*
%TO.N,GND*%
X58875000Y-68575000D02*
X59125000Y-68325000D01*
X60125000Y-68325000D02*
X60225000Y-68325000D01*
X62425000Y-66125000D02*
X62500000Y-66125000D01*
X62500000Y-66050000D02*
X62425000Y-66125000D01*
X62500000Y-66125000D02*
X62500000Y-66050000D01*
X59125000Y-68325000D02*
X60125000Y-68325000D01*
X60225000Y-68325000D02*
X62425000Y-66125000D01*
X58875000Y-68575000D02*
X58875000Y-69995000D01*
X58875000Y-69232500D02*
X58875000Y-68575000D01*
%TO.N,Net-(U2-GPIO0{slash}BOOT)*%
X63525000Y-42525000D02*
X62325000Y-43725000D01*
X65225000Y-42525000D02*
X63525000Y-42525000D01*
%TO.N,Net-(U2-EN)*%
X84875000Y-43375000D02*
X84875000Y-75300000D01*
X84050000Y-42550000D02*
X84875000Y-43375000D01*
X51950000Y-78150000D02*
X45325000Y-71525000D01*
X84875000Y-75300000D02*
X82025000Y-78150000D01*
X82025000Y-78150000D02*
X51950000Y-78150000D01*
%TO.N,/IMU/SCLK*%
X47782873Y-45352873D02*
X45550000Y-43120000D01*
X50840075Y-47467464D02*
X51982536Y-47467464D01*
X50094202Y-45352873D02*
X47782873Y-45352873D01*
X45550000Y-43120000D02*
X45550000Y-38040000D01*
X50094202Y-45352873D02*
X50094202Y-46721591D01*
X45550000Y-38040000D02*
X46675000Y-36915000D01*
X51982536Y-47467464D02*
X52325000Y-47125000D01*
X50094202Y-46721591D02*
X50840075Y-47467464D01*
%TO.N,/IMU/SDO*%
X49247873Y-44827873D02*
X47800000Y-43380000D01*
X50427873Y-44827873D02*
X49247873Y-44827873D01*
X46623400Y-39735800D02*
X46623400Y-40165863D01*
X51307536Y-46942464D02*
X51925000Y-46325000D01*
X47800000Y-40580000D02*
X46675000Y-39455000D01*
X47800000Y-43380000D02*
X47800000Y-40580000D01*
X51925000Y-46325000D02*
X50427873Y-44827873D01*
X51057538Y-46942464D02*
X51307536Y-46942464D01*
%TO.N,Net-(J13-Pin_3)*%
X41500000Y-46535686D02*
X41500000Y-41790000D01*
X41500000Y-41790000D02*
X43075000Y-40215000D01*
X45264314Y-50300000D02*
X41500000Y-46535686D01*
X46850000Y-50300000D02*
X45264314Y-50300000D01*
X47225000Y-49925000D02*
X46850000Y-50300000D01*
%TO.N,Net-(J13-Pin_4)*%
X42450000Y-49730000D02*
X42450000Y-49500610D01*
X41000000Y-39750000D02*
X43075000Y-37675000D01*
X42450000Y-49500610D02*
X41000000Y-48050610D01*
X41000000Y-48050610D02*
X41000000Y-39750000D01*
X42450000Y-49730000D02*
X42450000Y-53925000D01*
X42450000Y-53925000D02*
X42475000Y-53950000D01*
%TO.N,Net-(J13-Pin_2)*%
X43075000Y-42755000D02*
X41900000Y-43930000D01*
X41900000Y-46370000D02*
X45155000Y-49625000D01*
X41900000Y-43930000D02*
X41900000Y-46370000D01*
X45155000Y-49625000D02*
X45825000Y-49625000D01*
D29*
%TO.N,/MCU/USB_N*%
X57875000Y-68726249D02*
X57925000Y-68676249D01*
X57900000Y-72045000D02*
X57900000Y-69995000D01*
X57600000Y-67575000D02*
X57925000Y-67625000D01*
X57925000Y-67900000D02*
X57600000Y-67575000D01*
X57900000Y-69995000D02*
X57875000Y-69970000D01*
X57875000Y-69195000D02*
X57875000Y-68726249D01*
X57925000Y-68676249D02*
X57925000Y-67900000D01*
X57875000Y-69970000D02*
X57875000Y-69195000D01*
%TO.N,/MCU/USB_P*%
X58400000Y-72045000D02*
X58375000Y-72020000D01*
X58325000Y-67900000D02*
X58650000Y-67575000D01*
X58375000Y-68726249D02*
X58325000Y-68676249D01*
X58375000Y-69195000D02*
X58375000Y-68726249D01*
X58375000Y-69970000D02*
X58375000Y-69195000D01*
X58375000Y-72020000D02*
X58375000Y-69970000D01*
X58325000Y-68676249D02*
X58325000Y-67900000D01*
D28*
%TO.N,/IMU/INT1*%
X45371664Y-47917464D02*
X52274999Y-47917464D01*
X52925000Y-44725000D02*
X52525000Y-44325000D01*
X52925000Y-47267463D02*
X52925000Y-44725000D01*
X44083400Y-46629200D02*
X45371664Y-47917464D01*
X52274999Y-47917464D02*
X52925000Y-47267463D01*
%TO.N,+5V_USB_ESP*%
X59625000Y-73625000D02*
X59625000Y-73615761D01*
X59625000Y-73615761D02*
X60550000Y-72690761D01*
X56755001Y-73625000D02*
X59625000Y-73625000D01*
D29*
X59375000Y-69970000D02*
X60550000Y-71145000D01*
X60550000Y-71145000D02*
X60550000Y-72045000D01*
D28*
X55750000Y-72045000D02*
X55750000Y-72619999D01*
D29*
X59375000Y-69970000D02*
X59375000Y-69195000D01*
D28*
X60550000Y-72690761D02*
X60550000Y-72045000D01*
X55750000Y-72619999D02*
X56755001Y-73625000D01*
%TD*%
%TA.AperFunction,Conductor*%
%TO.N,GND*%
G36*
X86184191Y-32243907D02*
G01*
X86220155Y-32293407D01*
X86225000Y-32324000D01*
X86225000Y-78125783D01*
X86206093Y-78183974D01*
X86156593Y-78219938D01*
X86125784Y-78224783D01*
X82939118Y-78217841D01*
X82880969Y-78198807D01*
X82845113Y-78149228D01*
X82845246Y-78088043D01*
X82869327Y-78048840D01*
X85295505Y-75622665D01*
X85364689Y-75502835D01*
X85400501Y-75369183D01*
X85400501Y-75230816D01*
X85400501Y-75224754D01*
X85400500Y-75224736D01*
X85400500Y-43305818D01*
X85392454Y-43275789D01*
X85364688Y-43172164D01*
X85295505Y-43052335D01*
X85197665Y-42954495D01*
X85197662Y-42954493D01*
X84882958Y-42639789D01*
X84855181Y-42585272D01*
X84854585Y-42558698D01*
X84854744Y-42557285D01*
X84855565Y-42550000D01*
X84835368Y-42370745D01*
X84775789Y-42200478D01*
X84760080Y-42175478D01*
X84679818Y-42047741D01*
X84679817Y-42047740D01*
X84679816Y-42047738D01*
X84552262Y-41920184D01*
X84552259Y-41920182D01*
X84552258Y-41920181D01*
X84399523Y-41824211D01*
X84229261Y-41764633D01*
X84229257Y-41764632D01*
X84050000Y-41744435D01*
X83870742Y-41764632D01*
X83870738Y-41764633D01*
X83700477Y-41824211D01*
X83700476Y-41824211D01*
X83547741Y-41920181D01*
X83420181Y-42047741D01*
X83324211Y-42200476D01*
X83324211Y-42200477D01*
X83264633Y-42370738D01*
X83264632Y-42370742D01*
X83244435Y-42550000D01*
X83264632Y-42729257D01*
X83264633Y-42729261D01*
X83324211Y-42899522D01*
X83324211Y-42899523D01*
X83420181Y-43052258D01*
X83420184Y-43052262D01*
X83547738Y-43179816D01*
X83547740Y-43179817D01*
X83547741Y-43179818D01*
X83660690Y-43250789D01*
X83700478Y-43275789D01*
X83768394Y-43299554D01*
X83870738Y-43335366D01*
X83870742Y-43335367D01*
X83870745Y-43335368D01*
X84050000Y-43355565D01*
X84057285Y-43354744D01*
X84058698Y-43354585D01*
X84118640Y-43366856D01*
X84139789Y-43382958D01*
X84320504Y-43563673D01*
X84348281Y-43618190D01*
X84349500Y-43633677D01*
X84349500Y-50909700D01*
X84330593Y-50967891D01*
X84281093Y-51003855D01*
X84219907Y-51003855D01*
X84170407Y-50967891D01*
X84164764Y-50959202D01*
X84161312Y-50953224D01*
X84101555Y-50879429D01*
X83995163Y-50810337D01*
X83995160Y-50810335D01*
X83872615Y-50777499D01*
X83872609Y-50777499D01*
X83745925Y-50784138D01*
X83657277Y-50818166D01*
X82513226Y-51478685D01*
X82439429Y-51538444D01*
X82370337Y-51644836D01*
X82370335Y-51644839D01*
X82337499Y-51767384D01*
X82337499Y-51767390D01*
X82344138Y-51894074D01*
X82378166Y-51982722D01*
X83038685Y-53126773D01*
X83098444Y-53200570D01*
X83204836Y-53269662D01*
X83204841Y-53269665D01*
X83327385Y-53302501D01*
X83454077Y-53295861D01*
X83542724Y-53261833D01*
X84201002Y-52881774D01*
X84260848Y-52869053D01*
X84316744Y-52893940D01*
X84347337Y-52946928D01*
X84349500Y-52967511D01*
X84349500Y-75041322D01*
X84330593Y-75099513D01*
X84320504Y-75111326D01*
X81836327Y-77595504D01*
X81781810Y-77623281D01*
X81766323Y-77624500D01*
X81490760Y-77624500D01*
X81432569Y-77605593D01*
X81396605Y-77556093D01*
X81396605Y-77494907D01*
X81402139Y-77481372D01*
X81406909Y-77471791D01*
X81430582Y-77424250D01*
X81486397Y-77228083D01*
X81505215Y-77025000D01*
X81486397Y-76821917D01*
X81430582Y-76625750D01*
X81339673Y-76443179D01*
X81216764Y-76280421D01*
X81066041Y-76143019D01*
X80892637Y-76035652D01*
X80702456Y-75961976D01*
X80702455Y-75961975D01*
X80702453Y-75961975D01*
X80501976Y-75924500D01*
X80298024Y-75924500D01*
X80097546Y-75961975D01*
X80027632Y-75989059D01*
X79907363Y-76035652D01*
X79733959Y-76143019D01*
X79583237Y-76280420D01*
X79460328Y-76443177D01*
X79460323Y-76443186D01*
X79369419Y-76625747D01*
X79313603Y-76821917D01*
X79294785Y-77025000D01*
X79313603Y-77228082D01*
X79369419Y-77424252D01*
X79397861Y-77481372D01*
X79406874Y-77541890D01*
X79378593Y-77596148D01*
X79323822Y-77623420D01*
X79309240Y-77624500D01*
X70490760Y-77624500D01*
X70432569Y-77605593D01*
X70396605Y-77556093D01*
X70396605Y-77494907D01*
X70402139Y-77481372D01*
X70406909Y-77471791D01*
X70430582Y-77424250D01*
X70486397Y-77228083D01*
X70505215Y-77025000D01*
X70486397Y-76821917D01*
X70430582Y-76625750D01*
X70339673Y-76443179D01*
X70216764Y-76280421D01*
X70066041Y-76143019D01*
X69892637Y-76035652D01*
X69702456Y-75961976D01*
X69702455Y-75961975D01*
X69702453Y-75961975D01*
X69501976Y-75924500D01*
X69298024Y-75924500D01*
X69097546Y-75961975D01*
X69027632Y-75989059D01*
X68907363Y-76035652D01*
X68733959Y-76143019D01*
X68583237Y-76280420D01*
X68460328Y-76443177D01*
X68460323Y-76443186D01*
X68369419Y-76625747D01*
X68313603Y-76821917D01*
X68294785Y-77025000D01*
X68313603Y-77228082D01*
X68369419Y-77424252D01*
X68397861Y-77481372D01*
X68406874Y-77541890D01*
X68378593Y-77596148D01*
X68323822Y-77623420D01*
X68309240Y-77624500D01*
X52208677Y-77624500D01*
X52150486Y-77605593D01*
X52138673Y-77595504D01*
X47607151Y-73063982D01*
X54834500Y-73063982D01*
X54834500Y-73176018D01*
X54860072Y-73271455D01*
X54863498Y-73284241D01*
X54916544Y-73376117D01*
X54919515Y-73381263D01*
X54998737Y-73460485D01*
X54998739Y-73460486D01*
X55095759Y-73516501D01*
X55095757Y-73516501D01*
X55095761Y-73516502D01*
X55095763Y-73516503D01*
X55203982Y-73545500D01*
X55203984Y-73545500D01*
X55316016Y-73545500D01*
X55316018Y-73545500D01*
X55424237Y-73516503D01*
X55424239Y-73516501D01*
X55424241Y-73516501D01*
X55453064Y-73499859D01*
X55521263Y-73460485D01*
X55600485Y-73381263D01*
X55600487Y-73381258D01*
X55600490Y-73381256D01*
X55604434Y-73376117D01*
X55607055Y-73378128D01*
X55642191Y-73346066D01*
X55702997Y-73339264D01*
X55753064Y-73366232D01*
X56334494Y-73947662D01*
X56334496Y-73947665D01*
X56432336Y-74045505D01*
X56552165Y-74114688D01*
X56552167Y-74114688D01*
X56552168Y-74114689D01*
X56580406Y-74122256D01*
X56580409Y-74122256D01*
X56685815Y-74150500D01*
X56685817Y-74150501D01*
X56685818Y-74150501D01*
X56830247Y-74150501D01*
X56830263Y-74150500D01*
X59694181Y-74150500D01*
X59694183Y-74150500D01*
X59827836Y-74114688D01*
X59947665Y-74045505D01*
X60045505Y-73947665D01*
X60051609Y-73937090D01*
X60067337Y-73916591D01*
X60581088Y-73402841D01*
X60635604Y-73375065D01*
X60696036Y-73384636D01*
X60721091Y-73402839D01*
X60778737Y-73460485D01*
X60778739Y-73460486D01*
X60875759Y-73516501D01*
X60875757Y-73516501D01*
X60875761Y-73516502D01*
X60875763Y-73516503D01*
X60983982Y-73545500D01*
X60983984Y-73545500D01*
X61096016Y-73545500D01*
X61096018Y-73545500D01*
X61204237Y-73516503D01*
X61204239Y-73516501D01*
X61204241Y-73516501D01*
X61233064Y-73499859D01*
X61301263Y-73460485D01*
X61380485Y-73381263D01*
X61436503Y-73284237D01*
X61465500Y-73176018D01*
X61465500Y-73063982D01*
X61436503Y-72955763D01*
X61436501Y-72955760D01*
X61436501Y-72955758D01*
X61380486Y-72858739D01*
X61380485Y-72858737D01*
X61301263Y-72779515D01*
X61301260Y-72779513D01*
X61268003Y-72760312D01*
X61227062Y-72714843D01*
X61220666Y-72653992D01*
X61225406Y-72638258D01*
X61239877Y-72601564D01*
X61250500Y-72513102D01*
X61250500Y-71576898D01*
X61239877Y-71488436D01*
X61184361Y-71347658D01*
X61092922Y-71227078D01*
X61092917Y-71227074D01*
X61092915Y-71227072D01*
X61064679Y-71205659D01*
X61029738Y-71155432D01*
X61025500Y-71126777D01*
X61025500Y-71082401D01*
X61025500Y-71082399D01*
X60993095Y-70961464D01*
X60930495Y-70853036D01*
X60930492Y-70853033D01*
X60841964Y-70764504D01*
X60841964Y-70764505D01*
X60429495Y-70352036D01*
X60401718Y-70297519D01*
X60400499Y-70282044D01*
X60400499Y-69625982D01*
X60400499Y-69625981D01*
X60400499Y-69625978D01*
X60396066Y-69597987D01*
X60396066Y-69567012D01*
X60400500Y-69539019D01*
X60400499Y-68850982D01*
X60385646Y-68757196D01*
X60328050Y-68644158D01*
X60238342Y-68554450D01*
X60125304Y-68496854D01*
X60125305Y-68496854D01*
X60031522Y-68482000D01*
X59718478Y-68482000D01*
X59718476Y-68482001D01*
X59640486Y-68494352D01*
X59609515Y-68494352D01*
X59531522Y-68482000D01*
X59218479Y-68482000D01*
X59218476Y-68482001D01*
X59124700Y-68496852D01*
X59124695Y-68496854D01*
X59011659Y-68554449D01*
X58982729Y-68583379D01*
X58928212Y-68611155D01*
X58867780Y-68601583D01*
X58824516Y-68558318D01*
X58820792Y-68548619D01*
X58820578Y-68548708D01*
X58818096Y-68542718D01*
X58818095Y-68542713D01*
X58816602Y-68540127D01*
X58813762Y-68535207D01*
X58800500Y-68485710D01*
X58800500Y-68440673D01*
X58819407Y-68382482D01*
X58866799Y-68347230D01*
X58999522Y-68300789D01*
X59152262Y-68204816D01*
X59279816Y-68077262D01*
X59375789Y-67924522D01*
X59435368Y-67754255D01*
X59455565Y-67575000D01*
X59435368Y-67395745D01*
X59375789Y-67225478D01*
X59279816Y-67072738D01*
X59152262Y-66945184D01*
X59152259Y-66945182D01*
X59152258Y-66945181D01*
X58999523Y-66849211D01*
X58829261Y-66789633D01*
X58829257Y-66789632D01*
X58650000Y-66769435D01*
X58470742Y-66789632D01*
X58470738Y-66789633D01*
X58300477Y-66849211D01*
X58300476Y-66849211D01*
X58177671Y-66926375D01*
X58118340Y-66941325D01*
X58072329Y-66926375D01*
X57949523Y-66849211D01*
X57779261Y-66789633D01*
X57779257Y-66789632D01*
X57600000Y-66769435D01*
X57420742Y-66789632D01*
X57420738Y-66789633D01*
X57250477Y-66849211D01*
X57250476Y-66849211D01*
X57097741Y-66945181D01*
X56970181Y-67072741D01*
X56874211Y-67225476D01*
X56874211Y-67225477D01*
X56814633Y-67395738D01*
X56814632Y-67395742D01*
X56794435Y-67575000D01*
X56814632Y-67754257D01*
X56814633Y-67754261D01*
X56874211Y-67924522D01*
X56874211Y-67924523D01*
X56970181Y-68077258D01*
X56970184Y-68077262D01*
X57097738Y-68204816D01*
X57250478Y-68300789D01*
X57383200Y-68347230D01*
X57431878Y-68384294D01*
X57449500Y-68440673D01*
X57449500Y-68485710D01*
X57436238Y-68535207D01*
X57431906Y-68542709D01*
X57431905Y-68542713D01*
X57399500Y-68663648D01*
X57399500Y-68663650D01*
X57399500Y-68664449D01*
X57399266Y-68665422D01*
X57398653Y-68670081D01*
X57398163Y-68670016D01*
X57388710Y-68709393D01*
X57364355Y-68757191D01*
X57364354Y-68757196D01*
X57349500Y-68850979D01*
X57349500Y-69539017D01*
X57353934Y-69567014D01*
X57353934Y-69597981D01*
X57349501Y-69625978D01*
X57349500Y-69625982D01*
X57349500Y-70314020D01*
X57349501Y-70314023D01*
X57364352Y-70407799D01*
X57364353Y-70407804D01*
X57394977Y-70467904D01*
X57413709Y-70504669D01*
X57424500Y-70549613D01*
X57424500Y-70970500D01*
X57405593Y-71028691D01*
X57356093Y-71064655D01*
X57325502Y-71069500D01*
X57279522Y-71069500D01*
X57279515Y-71069501D01*
X57222883Y-71075588D01*
X57184594Y-71089869D01*
X57123465Y-71092488D01*
X57115404Y-71089869D01*
X57077115Y-71075588D01*
X57077108Y-71075587D01*
X57051502Y-71072834D01*
X57020485Y-71069500D01*
X57020481Y-71069500D01*
X56779521Y-71069500D01*
X56779515Y-71069501D01*
X56722883Y-71075588D01*
X56684594Y-71089869D01*
X56623465Y-71092488D01*
X56615404Y-71089869D01*
X56577115Y-71075588D01*
X56577108Y-71075587D01*
X56551502Y-71072834D01*
X56520485Y-71069500D01*
X56520481Y-71069500D01*
X56279521Y-71069500D01*
X56279515Y-71069501D01*
X56222888Y-71075587D01*
X56222883Y-71075588D01*
X56154234Y-71101193D01*
X56093105Y-71103813D01*
X56083320Y-71100533D01*
X56056278Y-71089869D01*
X56031564Y-71080123D01*
X56013871Y-71077998D01*
X55943106Y-71069500D01*
X55943102Y-71069500D01*
X55556898Y-71069500D01*
X55556893Y-71069500D01*
X55468434Y-71080123D01*
X55327660Y-71135637D01*
X55327656Y-71135640D01*
X55207081Y-71227075D01*
X55207075Y-71227081D01*
X55115640Y-71347656D01*
X55115637Y-71347660D01*
X55060123Y-71488434D01*
X55049500Y-71576893D01*
X55049500Y-72513106D01*
X55060123Y-72601564D01*
X55074593Y-72638258D01*
X55078351Y-72699328D01*
X55045495Y-72750944D01*
X55031997Y-72760311D01*
X54998739Y-72779513D01*
X54919513Y-72858739D01*
X54863498Y-72955758D01*
X54847782Y-73014412D01*
X54834500Y-73063982D01*
X47607151Y-73063982D01*
X46157958Y-71614789D01*
X46130181Y-71560272D01*
X46129585Y-71533698D01*
X46129744Y-71532285D01*
X46130565Y-71525000D01*
X46110368Y-71345745D01*
X46050789Y-71175478D01*
X46025756Y-71135639D01*
X45954818Y-71022741D01*
X45954817Y-71022740D01*
X45954816Y-71022738D01*
X45827262Y-70895184D01*
X45827259Y-70895182D01*
X45827258Y-70895181D01*
X45674523Y-70799211D01*
X45504261Y-70739633D01*
X45504257Y-70739632D01*
X45325000Y-70719435D01*
X45145742Y-70739632D01*
X45145738Y-70739633D01*
X44975477Y-70799211D01*
X44975476Y-70799211D01*
X44822741Y-70895181D01*
X44695181Y-71022741D01*
X44599211Y-71175476D01*
X44599211Y-71175477D01*
X44539633Y-71345738D01*
X44539632Y-71345742D01*
X44519435Y-71525000D01*
X44539632Y-71704257D01*
X44539633Y-71704261D01*
X44599211Y-71874522D01*
X44599211Y-71874523D01*
X44695181Y-72027258D01*
X44695184Y-72027262D01*
X44822738Y-72154816D01*
X44975478Y-72250789D01*
X45043657Y-72274646D01*
X45145738Y-72310366D01*
X45145742Y-72310367D01*
X45145745Y-72310368D01*
X45325000Y-72330565D01*
X45332285Y-72329744D01*
X45333698Y-72329585D01*
X45393640Y-72341856D01*
X45414789Y-72357958D01*
X51036008Y-77979177D01*
X51063785Y-78033694D01*
X51054214Y-78094126D01*
X51010949Y-78137391D01*
X50965788Y-78148181D01*
X40912784Y-78126280D01*
X40854635Y-78107246D01*
X40818779Y-78057667D01*
X40814000Y-78027280D01*
X40814000Y-48846787D01*
X40832907Y-48788596D01*
X40882407Y-48752632D01*
X40943593Y-48752632D01*
X40983004Y-48776783D01*
X41895504Y-49689283D01*
X41923281Y-49743800D01*
X41924500Y-49759287D01*
X41924500Y-53327414D01*
X41905593Y-53385605D01*
X41895504Y-53397417D01*
X41845185Y-53447736D01*
X41845181Y-53447741D01*
X41749211Y-53600476D01*
X41749211Y-53600477D01*
X41689633Y-53770738D01*
X41689632Y-53770742D01*
X41669435Y-53950000D01*
X41689632Y-54129257D01*
X41689633Y-54129261D01*
X41749211Y-54299522D01*
X41749211Y-54299523D01*
X41845181Y-54452258D01*
X41845184Y-54452262D01*
X41972738Y-54579816D01*
X42125478Y-54675789D01*
X42193657Y-54699646D01*
X42295738Y-54735366D01*
X42295742Y-54735367D01*
X42295745Y-54735368D01*
X42475000Y-54755565D01*
X42654255Y-54735368D01*
X42824522Y-54675789D01*
X42977262Y-54579816D01*
X43104816Y-54452262D01*
X43200789Y-54299522D01*
X43260368Y-54129255D01*
X43280565Y-53950000D01*
X43260368Y-53770745D01*
X43200789Y-53600478D01*
X43104816Y-53447738D01*
X43004494Y-53347416D01*
X42976719Y-53292902D01*
X42975500Y-53277415D01*
X42975500Y-49577781D01*
X42975501Y-49577768D01*
X42975501Y-49431428D01*
X42975501Y-49431427D01*
X42939689Y-49297775D01*
X42939687Y-49297772D01*
X42939687Y-49297770D01*
X42870508Y-49177949D01*
X42870507Y-49177948D01*
X42870506Y-49177947D01*
X42870505Y-49177945D01*
X41554496Y-47861936D01*
X41526719Y-47807419D01*
X41525500Y-47791932D01*
X41525500Y-47543363D01*
X41544407Y-47485172D01*
X41593907Y-47449208D01*
X41655093Y-47449208D01*
X41694504Y-47473359D01*
X44843807Y-50622662D01*
X44843809Y-50622665D01*
X44941649Y-50720505D01*
X45061478Y-50789688D01*
X45061480Y-50789688D01*
X45061481Y-50789689D01*
X45089719Y-50797256D01*
X45089722Y-50797256D01*
X45195128Y-50825500D01*
X45195130Y-50825501D01*
X45195131Y-50825501D01*
X45339560Y-50825501D01*
X45339576Y-50825500D01*
X46774738Y-50825500D01*
X46774754Y-50825501D01*
X46780817Y-50825501D01*
X46919183Y-50825501D01*
X47024591Y-50797256D01*
X47052836Y-50789688D01*
X47138421Y-50740275D01*
X47198265Y-50727554D01*
X47198689Y-50727600D01*
X47225000Y-50730565D01*
X47404255Y-50710368D01*
X47574522Y-50650789D01*
X47727262Y-50554816D01*
X47854816Y-50427262D01*
X47950789Y-50274522D01*
X48010368Y-50104255D01*
X48030565Y-49925000D01*
X48010368Y-49745745D01*
X48009687Y-49743800D01*
X47965616Y-49617852D01*
X47950789Y-49575478D01*
X47947219Y-49569797D01*
X47854818Y-49422741D01*
X47854817Y-49422740D01*
X47854816Y-49422738D01*
X47727262Y-49295184D01*
X47727259Y-49295182D01*
X47727258Y-49295181D01*
X47574523Y-49199211D01*
X47404261Y-49139633D01*
X47404257Y-49139632D01*
X47225000Y-49119435D01*
X47045742Y-49139632D01*
X47045738Y-49139633D01*
X46875477Y-49199211D01*
X46875476Y-49199211D01*
X46722741Y-49295181D01*
X46722735Y-49295186D01*
X46711743Y-49306178D01*
X46657226Y-49333954D01*
X46596794Y-49324380D01*
X46553531Y-49281114D01*
X46552544Y-49279123D01*
X46550787Y-49275474D01*
X46454818Y-49122741D01*
X46454817Y-49122740D01*
X46454816Y-49122738D01*
X46327262Y-48995184D01*
X46327259Y-48995182D01*
X46327258Y-48995181D01*
X46174523Y-48899211D01*
X46004261Y-48839633D01*
X46004257Y-48839632D01*
X45825000Y-48819435D01*
X45645742Y-48839632D01*
X45645738Y-48839633D01*
X45475477Y-48899211D01*
X45475476Y-48899211D01*
X45356188Y-48974166D01*
X45296858Y-48989116D01*
X45240071Y-48966337D01*
X45233513Y-48960344D01*
X43603919Y-47330750D01*
X43576142Y-47276233D01*
X43585713Y-47215801D01*
X43628978Y-47172536D01*
X43689410Y-47162965D01*
X43719928Y-47173085D01*
X43801316Y-47215801D01*
X43851035Y-47241896D01*
X43959457Y-47268619D01*
X44005769Y-47294738D01*
X44951157Y-48240126D01*
X44951159Y-48240129D01*
X45048999Y-48337969D01*
X45168828Y-48407152D01*
X45168830Y-48407152D01*
X45168831Y-48407153D01*
X45235653Y-48425058D01*
X45235654Y-48425058D01*
X45302480Y-48442964D01*
X45302481Y-48442964D01*
X52199737Y-48442964D01*
X52199753Y-48442965D01*
X52205816Y-48442965D01*
X52344182Y-48442965D01*
X52449590Y-48414720D01*
X52477835Y-48407152D01*
X52597664Y-48337969D01*
X52695504Y-48240129D01*
X52695505Y-48240126D01*
X53247662Y-47687969D01*
X53247665Y-47687968D01*
X53345505Y-47590128D01*
X53414688Y-47470299D01*
X53450500Y-47336646D01*
X53450500Y-44655817D01*
X53443448Y-44629500D01*
X53416939Y-44530565D01*
X53414688Y-44522164D01*
X53345505Y-44402335D01*
X53247665Y-44304495D01*
X53247662Y-44304493D01*
X53192287Y-44249118D01*
X53164510Y-44194601D01*
X53164013Y-44191047D01*
X53161237Y-44168182D01*
X53105220Y-44020477D01*
X53025002Y-43904261D01*
X53015484Y-43890471D01*
X52913934Y-43800506D01*
X52897240Y-43785717D01*
X52781555Y-43725000D01*
X52757364Y-43712303D01*
X52603987Y-43674500D01*
X52603985Y-43674500D01*
X52446015Y-43674500D01*
X52446012Y-43674500D01*
X52292635Y-43712303D01*
X52152758Y-43785718D01*
X52034515Y-43890471D01*
X51944780Y-44020476D01*
X51888763Y-44168182D01*
X51888762Y-44168183D01*
X51869722Y-44324998D01*
X51869722Y-44324999D01*
X51888762Y-44481816D01*
X51888763Y-44481818D01*
X51944771Y-44629500D01*
X51944780Y-44629523D01*
X52034515Y-44759528D01*
X52034516Y-44759529D01*
X52034517Y-44759530D01*
X52152760Y-44864283D01*
X52292635Y-44937696D01*
X52324193Y-44945474D01*
X52376165Y-44977754D01*
X52399240Y-45034422D01*
X52399500Y-45041596D01*
X52399500Y-45675621D01*
X52380593Y-45733812D01*
X52331093Y-45769776D01*
X52269907Y-45769776D01*
X52254492Y-45763281D01*
X52198344Y-45733812D01*
X52157365Y-45712304D01*
X52157364Y-45712303D01*
X52157363Y-45712303D01*
X52048942Y-45685580D01*
X52002630Y-45659461D01*
X50848379Y-44505210D01*
X50848378Y-44505208D01*
X50750538Y-44407368D01*
X50630709Y-44338185D01*
X50630708Y-44338184D01*
X50630705Y-44338183D01*
X50581501Y-44324999D01*
X50581500Y-44324999D01*
X50497058Y-44302372D01*
X50497056Y-44302372D01*
X50358690Y-44302372D01*
X50352627Y-44302372D01*
X50352611Y-44302373D01*
X49506551Y-44302373D01*
X49448360Y-44283466D01*
X49436547Y-44273377D01*
X48354496Y-43191326D01*
X48326719Y-43136809D01*
X48325500Y-43121322D01*
X48325500Y-41258351D01*
X48344407Y-41200160D01*
X48393907Y-41164196D01*
X48455093Y-41164196D01*
X48504593Y-41200160D01*
X48511617Y-41211323D01*
X48543259Y-41269937D01*
X48543260Y-41269939D01*
X48644504Y-41372158D01*
X48644508Y-41372161D01*
X48644509Y-41372162D01*
X48700242Y-41414301D01*
X48700244Y-41414302D01*
X48806411Y-41472935D01*
X48826192Y-41483859D01*
X48966636Y-41515116D01*
X49036303Y-41520434D01*
X49036332Y-41520436D01*
X49103902Y-41515924D01*
X49109491Y-41515551D01*
X49116087Y-41515331D01*
X49231444Y-41515331D01*
X49252025Y-41517493D01*
X49312889Y-41530430D01*
X49332564Y-41536822D01*
X49389410Y-41562132D01*
X49407333Y-41572480D01*
X49457674Y-41609055D01*
X49471128Y-41621161D01*
X49471280Y-41621016D01*
X49472424Y-41622204D01*
X49472435Y-41622214D01*
X49472438Y-41622218D01*
X49520723Y-41669143D01*
X49545834Y-41690486D01*
X49599911Y-41730567D01*
X49730788Y-41790338D01*
X49797827Y-41810023D01*
X49797831Y-41810024D01*
X49839172Y-41815967D01*
X49940242Y-41830500D01*
X49940247Y-41830500D01*
X63334553Y-41830500D01*
X63392744Y-41849407D01*
X63428708Y-41898907D01*
X63428708Y-41960093D01*
X63392744Y-42009593D01*
X63360179Y-42025125D01*
X63334345Y-42032048D01*
X63322163Y-42035312D01*
X63202332Y-42104497D01*
X63104494Y-42202334D01*
X63104495Y-42202335D01*
X63104493Y-42202337D01*
X62414788Y-42892041D01*
X62360271Y-42919818D01*
X62333705Y-42920415D01*
X62325003Y-42919435D01*
X62325001Y-42919435D01*
X62325000Y-42919435D01*
X62235372Y-42929533D01*
X62145742Y-42939632D01*
X62145738Y-42939633D01*
X61975477Y-42999211D01*
X61975476Y-42999211D01*
X61822741Y-43095181D01*
X61695181Y-43222741D01*
X61599211Y-43375476D01*
X61599211Y-43375477D01*
X61539633Y-43545738D01*
X61539632Y-43545742D01*
X61519435Y-43725000D01*
X61539632Y-43904257D01*
X61539633Y-43904261D01*
X61599211Y-44074522D01*
X61599211Y-44074523D01*
X61695181Y-44227258D01*
X61695184Y-44227262D01*
X61822738Y-44354816D01*
X61822740Y-44354817D01*
X61822741Y-44354818D01*
X61916094Y-44413476D01*
X61975478Y-44450789D01*
X62043657Y-44474646D01*
X62145738Y-44510366D01*
X62145742Y-44510367D01*
X62145745Y-44510368D01*
X62325000Y-44530565D01*
X62504255Y-44510368D01*
X62674522Y-44450789D01*
X62827262Y-44354816D01*
X62954816Y-44227262D01*
X63050789Y-44074522D01*
X63110368Y-43904255D01*
X63130565Y-43725000D01*
X63129584Y-43716301D01*
X63141853Y-43656363D01*
X63157958Y-43635210D01*
X63713674Y-43079496D01*
X63768190Y-43051719D01*
X63783677Y-43050500D01*
X64577414Y-43050500D01*
X64635605Y-43069407D01*
X64647417Y-43079496D01*
X64689244Y-43121322D01*
X64722738Y-43154816D01*
X64722740Y-43154817D01*
X64722741Y-43154818D01*
X64867060Y-43245500D01*
X64875478Y-43250789D01*
X64943657Y-43274646D01*
X65045738Y-43310366D01*
X65045742Y-43310367D01*
X65045745Y-43310368D01*
X65225000Y-43330565D01*
X65404255Y-43310368D01*
X65574522Y-43250789D01*
X65727262Y-43154816D01*
X65854816Y-43027262D01*
X65950789Y-42874522D01*
X66010368Y-42704255D01*
X66030565Y-42525000D01*
X66010368Y-42345745D01*
X66003343Y-42325670D01*
X65960187Y-42202337D01*
X65950789Y-42175478D01*
X65906187Y-42104495D01*
X65854818Y-42022741D01*
X65854817Y-42022740D01*
X65854816Y-42022738D01*
X65831579Y-41999501D01*
X65803804Y-41944987D01*
X65813375Y-41884555D01*
X65856640Y-41841290D01*
X65901585Y-41830500D01*
X69820500Y-41830500D01*
X69878691Y-41849407D01*
X69914655Y-41898907D01*
X69919500Y-41929500D01*
X69919500Y-60807902D01*
X69919821Y-60825923D01*
X69920138Y-60834791D01*
X69921103Y-60852798D01*
X69951688Y-60993396D01*
X69976103Y-61058856D01*
X69977330Y-61061256D01*
X69978198Y-61062691D01*
X70002890Y-61107912D01*
X70008757Y-61120759D01*
X70013757Y-61134164D01*
X70019999Y-61168762D01*
X70019999Y-61628994D01*
X70011052Y-61670121D01*
X69959664Y-61782640D01*
X69959664Y-61782641D01*
X69939976Y-61849690D01*
X69939974Y-61849699D01*
X69919500Y-61992100D01*
X69919500Y-61992106D01*
X69919500Y-69201000D01*
X69931053Y-69308456D01*
X69931054Y-69308464D01*
X69942257Y-69359962D01*
X69976386Y-69462502D01*
X69976386Y-69462503D01*
X69976387Y-69462504D01*
X70054175Y-69583543D01*
X70099930Y-69636347D01*
X70099937Y-69636353D01*
X70099940Y-69636356D01*
X70208662Y-69730566D01*
X70208663Y-69730566D01*
X70208664Y-69730567D01*
X70339541Y-69790338D01*
X70406580Y-69810023D01*
X70406584Y-69810024D01*
X70447925Y-69815967D01*
X70548995Y-69830500D01*
X70549000Y-69830500D01*
X74302946Y-69830500D01*
X74302953Y-69830500D01*
X74406478Y-69819786D01*
X74456193Y-69809384D01*
X74456194Y-69809383D01*
X74456197Y-69809383D01*
X74555329Y-69777694D01*
X74555329Y-69777693D01*
X74555338Y-69777691D01*
X74677597Y-69701834D01*
X74731120Y-69656923D01*
X74827054Y-69549695D01*
X74888894Y-69419781D01*
X74909640Y-69353062D01*
X74932373Y-69210991D01*
X75061904Y-61050539D01*
X75237754Y-49971978D01*
X75745500Y-49971978D01*
X75745500Y-51293021D01*
X75745501Y-51293023D01*
X75760352Y-51386799D01*
X75760354Y-51386804D01*
X75817950Y-51499842D01*
X75907658Y-51589550D01*
X76020696Y-51647146D01*
X76114481Y-51662000D01*
X77435518Y-51661999D01*
X77435521Y-51661999D01*
X77435522Y-51661998D01*
X77482411Y-51654572D01*
X77529299Y-51647147D01*
X77529299Y-51647146D01*
X77529304Y-51647146D01*
X77642342Y-51589550D01*
X77732050Y-51499842D01*
X77789646Y-51386804D01*
X77804500Y-51293019D01*
X77804499Y-49971982D01*
X77804499Y-49971981D01*
X77804499Y-49971978D01*
X77804498Y-49971976D01*
X77789647Y-49878200D01*
X77789646Y-49878198D01*
X77789646Y-49878196D01*
X77732050Y-49765158D01*
X77642342Y-49675450D01*
X77529304Y-49617854D01*
X77529305Y-49617854D01*
X77435521Y-49603000D01*
X76114478Y-49603000D01*
X76114476Y-49603001D01*
X76020700Y-49617852D01*
X76020695Y-49617854D01*
X75907659Y-49675449D01*
X75817949Y-49765159D01*
X75760354Y-49878195D01*
X75745500Y-49971978D01*
X75237754Y-49971978D01*
X75305918Y-45677610D01*
X80137795Y-45677610D01*
X80137795Y-45677615D01*
X80170631Y-45800160D01*
X80170633Y-45800163D01*
X80239725Y-45906555D01*
X80239725Y-45906556D01*
X80313520Y-45966314D01*
X81457572Y-46626831D01*
X81546219Y-46660861D01*
X81672911Y-46667501D01*
X81795455Y-46634665D01*
X81901851Y-46565570D01*
X81901852Y-46565570D01*
X81909368Y-46556289D01*
X81961610Y-46491776D01*
X82622127Y-45347724D01*
X82656157Y-45259077D01*
X82662797Y-45132385D01*
X82629961Y-45009841D01*
X82629958Y-45009836D01*
X82560866Y-44903444D01*
X82560866Y-44903443D01*
X82487071Y-44843685D01*
X81449126Y-44244429D01*
X81343020Y-44183169D01*
X81343019Y-44183168D01*
X81343018Y-44183168D01*
X81318751Y-44173852D01*
X81254373Y-44149139D01*
X81191027Y-44145819D01*
X81127685Y-44142499D01*
X81127680Y-44142499D01*
X81005135Y-44175335D01*
X81005132Y-44175337D01*
X80898740Y-44244429D01*
X80898739Y-44244429D01*
X80838981Y-44318224D01*
X80178464Y-45462277D01*
X80153751Y-45526654D01*
X80144435Y-45550923D01*
X80144435Y-45550926D01*
X80137795Y-45677610D01*
X75305918Y-45677610D01*
X75428436Y-37958988D01*
X75417785Y-37847439D01*
X75417782Y-37847426D01*
X75417782Y-37847422D01*
X75411076Y-37815378D01*
X75406596Y-37793963D01*
X75371630Y-37687496D01*
X75371629Y-37687495D01*
X75371629Y-37687493D01*
X75371628Y-37687491D01*
X75293848Y-37566466D01*
X75293846Y-37566464D01*
X75293842Y-37566457D01*
X75248087Y-37513653D01*
X75248079Y-37513646D01*
X75248076Y-37513643D01*
X75139354Y-37419433D01*
X75008481Y-37359664D01*
X75008479Y-37359663D01*
X75008476Y-37359662D01*
X74941437Y-37339977D01*
X74941433Y-37339976D01*
X74941430Y-37339975D01*
X74941423Y-37339974D01*
X74799022Y-37319500D01*
X74799017Y-37319500D01*
X66539836Y-37319500D01*
X66481645Y-37300593D01*
X66445681Y-37251093D01*
X66444209Y-37194877D01*
X66463207Y-37123977D01*
X66481490Y-36915003D01*
X66482277Y-36906003D01*
X66482277Y-36905996D01*
X66463208Y-36688030D01*
X66463207Y-36688027D01*
X66463207Y-36688023D01*
X66406575Y-36476670D01*
X66380020Y-36419723D01*
X66314107Y-36278372D01*
X66314103Y-36278364D01*
X66188601Y-36099127D01*
X66188600Y-36099126D01*
X66188598Y-36099123D01*
X66033877Y-35944402D01*
X66033873Y-35944399D01*
X66033872Y-35944398D01*
X65867492Y-35827898D01*
X65854639Y-35818898D01*
X65656330Y-35726425D01*
X65444977Y-35669793D01*
X65444976Y-35669792D01*
X65444969Y-35669791D01*
X65227003Y-35650723D01*
X65226997Y-35650723D01*
X65009030Y-35669791D01*
X64797666Y-35726426D01*
X64599372Y-35818892D01*
X64599364Y-35818896D01*
X64420127Y-35944398D01*
X64265398Y-36099127D01*
X64139896Y-36278364D01*
X64139892Y-36278372D01*
X64047426Y-36476666D01*
X63990791Y-36688030D01*
X63971723Y-36905996D01*
X63971723Y-36906003D01*
X63990791Y-37123969D01*
X63990792Y-37123971D01*
X63990793Y-37123977D01*
X63993202Y-37132969D01*
X64009791Y-37194877D01*
X64006588Y-37255979D01*
X63968083Y-37303529D01*
X63914164Y-37319500D01*
X62806166Y-37319500D01*
X62747975Y-37300593D01*
X62712011Y-37251093D01*
X62710539Y-37194877D01*
X62729537Y-37123977D01*
X62747820Y-36915003D01*
X62748607Y-36906003D01*
X62748607Y-36905996D01*
X62729538Y-36688030D01*
X62729537Y-36688027D01*
X62729537Y-36688023D01*
X62672905Y-36476670D01*
X62646350Y-36419723D01*
X62580437Y-36278372D01*
X62580433Y-36278364D01*
X62454931Y-36099127D01*
X62454930Y-36099126D01*
X62454928Y-36099123D01*
X62300207Y-35944402D01*
X62300203Y-35944399D01*
X62300202Y-35944398D01*
X62133822Y-35827898D01*
X62120969Y-35818898D01*
X61922660Y-35726425D01*
X61711307Y-35669793D01*
X61711306Y-35669792D01*
X61711299Y-35669791D01*
X61493333Y-35650723D01*
X61493327Y-35650723D01*
X61275360Y-35669791D01*
X61063996Y-35726426D01*
X60865702Y-35818892D01*
X60865694Y-35818896D01*
X60686457Y-35944398D01*
X60531728Y-36099127D01*
X60406226Y-36278364D01*
X60406222Y-36278372D01*
X60313756Y-36476666D01*
X60257121Y-36688030D01*
X60238053Y-36905996D01*
X60238053Y-36906003D01*
X60257121Y-37123969D01*
X60257122Y-37123971D01*
X60257123Y-37123977D01*
X60259532Y-37132969D01*
X60276121Y-37194877D01*
X60272918Y-37255979D01*
X60234413Y-37303529D01*
X60180494Y-37319500D01*
X59072500Y-37319500D01*
X59014309Y-37300593D01*
X58978345Y-37251093D01*
X58976873Y-37194877D01*
X58995871Y-37123977D01*
X59014154Y-36915003D01*
X59014941Y-36906003D01*
X59014941Y-36905996D01*
X58995872Y-36688030D01*
X58995871Y-36688027D01*
X58995871Y-36688023D01*
X58939239Y-36476670D01*
X58912684Y-36419723D01*
X58846771Y-36278372D01*
X58846767Y-36278364D01*
X58721265Y-36099127D01*
X58721264Y-36099126D01*
X58721262Y-36099123D01*
X58566541Y-35944402D01*
X58566537Y-35944399D01*
X58566536Y-35944398D01*
X58400156Y-35827898D01*
X58387303Y-35818898D01*
X58188994Y-35726425D01*
X57977641Y-35669793D01*
X57977640Y-35669792D01*
X57977633Y-35669791D01*
X57759667Y-35650723D01*
X57759661Y-35650723D01*
X57541694Y-35669791D01*
X57330330Y-35726426D01*
X57132036Y-35818892D01*
X57132028Y-35818896D01*
X56952791Y-35944398D01*
X56798062Y-36099127D01*
X56672560Y-36278364D01*
X56672556Y-36278372D01*
X56580090Y-36476666D01*
X56523455Y-36688030D01*
X56504387Y-36905996D01*
X56504387Y-36906003D01*
X56523455Y-37123969D01*
X56523456Y-37123971D01*
X56523457Y-37123977D01*
X56525866Y-37132969D01*
X56542455Y-37194877D01*
X56539252Y-37255979D01*
X56500747Y-37303529D01*
X56446828Y-37319500D01*
X55338834Y-37319500D01*
X55280643Y-37300593D01*
X55244679Y-37251093D01*
X55243207Y-37194877D01*
X55262205Y-37123977D01*
X55280488Y-36915003D01*
X55281275Y-36906003D01*
X55281275Y-36905996D01*
X55262206Y-36688030D01*
X55262205Y-36688027D01*
X55262205Y-36688023D01*
X55205573Y-36476670D01*
X55179018Y-36419723D01*
X55113105Y-36278372D01*
X55113101Y-36278364D01*
X54987599Y-36099127D01*
X54987598Y-36099126D01*
X54987596Y-36099123D01*
X54832875Y-35944402D01*
X54832871Y-35944399D01*
X54832870Y-35944398D01*
X54666490Y-35827898D01*
X54653637Y-35818898D01*
X54455328Y-35726425D01*
X54243975Y-35669793D01*
X54243974Y-35669792D01*
X54243967Y-35669791D01*
X54026001Y-35650723D01*
X54025995Y-35650723D01*
X53808028Y-35669791D01*
X53596664Y-35726426D01*
X53398370Y-35818892D01*
X53398362Y-35818896D01*
X53219125Y-35944398D01*
X53064396Y-36099127D01*
X52938894Y-36278364D01*
X52938890Y-36278372D01*
X52846424Y-36476666D01*
X52789789Y-36688030D01*
X52770721Y-36905996D01*
X52770721Y-36906003D01*
X52789789Y-37123969D01*
X52789790Y-37123971D01*
X52789791Y-37123977D01*
X52792200Y-37132969D01*
X52808789Y-37194877D01*
X52805586Y-37255979D01*
X52767081Y-37303529D01*
X52713162Y-37319500D01*
X51605168Y-37319500D01*
X51546977Y-37300593D01*
X51511013Y-37251093D01*
X51509541Y-37194877D01*
X51528539Y-37123977D01*
X51546822Y-36915003D01*
X51547609Y-36906003D01*
X51547609Y-36905996D01*
X51528540Y-36688030D01*
X51528539Y-36688027D01*
X51528539Y-36688023D01*
X51471907Y-36476670D01*
X51445352Y-36419723D01*
X51379439Y-36278372D01*
X51379435Y-36278364D01*
X51253933Y-36099127D01*
X51253932Y-36099126D01*
X51253930Y-36099123D01*
X51099209Y-35944402D01*
X51099205Y-35944399D01*
X51099204Y-35944398D01*
X50932824Y-35827898D01*
X50919971Y-35818898D01*
X50721662Y-35726425D01*
X50510309Y-35669793D01*
X50510308Y-35669792D01*
X50510301Y-35669791D01*
X50292335Y-35650723D01*
X50292329Y-35650723D01*
X50074362Y-35669791D01*
X49862998Y-35726426D01*
X49664704Y-35818892D01*
X49664696Y-35818896D01*
X49485459Y-35944398D01*
X49330730Y-36099127D01*
X49205228Y-36278364D01*
X49205224Y-36278372D01*
X49112758Y-36476666D01*
X49056123Y-36688030D01*
X49037055Y-36905996D01*
X49037055Y-36906003D01*
X49056123Y-37123971D01*
X49076920Y-37201587D01*
X49073717Y-37262688D01*
X49035211Y-37310238D01*
X48991877Y-37325641D01*
X48941544Y-37331053D01*
X48941535Y-37331054D01*
X48890037Y-37342257D01*
X48787497Y-37376386D01*
X48787496Y-37376386D01*
X48720516Y-37419433D01*
X48666457Y-37454175D01*
X48666456Y-37454176D01*
X48666453Y-37454178D01*
X48613656Y-37499927D01*
X48613643Y-37499940D01*
X48519433Y-37608662D01*
X48459664Y-37739534D01*
X48459664Y-37739535D01*
X48439976Y-37806584D01*
X48439974Y-37806593D01*
X48419500Y-37948994D01*
X48419500Y-40232532D01*
X48400593Y-40290723D01*
X48351093Y-40326687D01*
X48289907Y-40326687D01*
X48240407Y-40290723D01*
X48234764Y-40282032D01*
X48220506Y-40257337D01*
X48220505Y-40257335D01*
X48122665Y-40159495D01*
X48122662Y-40159493D01*
X47893496Y-39930327D01*
X47865719Y-39875810D01*
X47867873Y-39834700D01*
X47911207Y-39672977D01*
X47918697Y-39587372D01*
X47930277Y-39455003D01*
X47930277Y-39454996D01*
X47911208Y-39237030D01*
X47911207Y-39237027D01*
X47911207Y-39237023D01*
X47854575Y-39025670D01*
X47801200Y-38911207D01*
X47762107Y-38827372D01*
X47762103Y-38827364D01*
X47716406Y-38762102D01*
X47636598Y-38648123D01*
X47481877Y-38493402D01*
X47481873Y-38493399D01*
X47481872Y-38493398D01*
X47382435Y-38423772D01*
X47302639Y-38367898D01*
X47104330Y-38275425D01*
X47104325Y-38275423D01*
X47102827Y-38274725D01*
X47058079Y-38232996D01*
X47046404Y-38172935D01*
X47072262Y-38117482D01*
X47102827Y-38095275D01*
X47104325Y-38094576D01*
X47104330Y-38094575D01*
X47302639Y-38002102D01*
X47481877Y-37876598D01*
X47636598Y-37721877D01*
X47762102Y-37542639D01*
X47854575Y-37344330D01*
X47911207Y-37132977D01*
X47911995Y-37123977D01*
X47930277Y-36915003D01*
X47930277Y-36914996D01*
X47911208Y-36697030D01*
X47911207Y-36697027D01*
X47911207Y-36697023D01*
X47854575Y-36485670D01*
X47762102Y-36287362D01*
X47636598Y-36108123D01*
X47481877Y-35953402D01*
X47481873Y-35953399D01*
X47481872Y-35953398D01*
X47382435Y-35883772D01*
X47302639Y-35827898D01*
X47104330Y-35735425D01*
X46892977Y-35678793D01*
X46892976Y-35678792D01*
X46892969Y-35678791D01*
X46675003Y-35659723D01*
X46674997Y-35659723D01*
X46457030Y-35678791D01*
X46245666Y-35735426D01*
X46047372Y-35827892D01*
X46047364Y-35827896D01*
X45868127Y-35953398D01*
X45713398Y-36108127D01*
X45587896Y-36287364D01*
X45587892Y-36287372D01*
X45495426Y-36485666D01*
X45438791Y-36697030D01*
X45419723Y-36914996D01*
X45419723Y-36915003D01*
X45438791Y-37132969D01*
X45482126Y-37294699D01*
X45478923Y-37355801D01*
X45456503Y-37390325D01*
X45227337Y-37619492D01*
X45227337Y-37619493D01*
X45227335Y-37619495D01*
X45227334Y-37619494D01*
X45129497Y-37717332D01*
X45129495Y-37717334D01*
X45129495Y-37717335D01*
X45060312Y-37837164D01*
X45060312Y-37837165D01*
X45060311Y-37837167D01*
X45056938Y-37849755D01*
X45056938Y-37849756D01*
X45024499Y-37970814D01*
X45024499Y-38117157D01*
X45024500Y-38117170D01*
X45024500Y-43044737D01*
X45024499Y-43044755D01*
X45024499Y-43189185D01*
X45039589Y-43245498D01*
X45039589Y-43245500D01*
X45039590Y-43245500D01*
X45060312Y-43322836D01*
X45129495Y-43442665D01*
X45227335Y-43540505D01*
X45227337Y-43540506D01*
X47362366Y-45675535D01*
X47362368Y-45675538D01*
X47460208Y-45773378D01*
X47580037Y-45842561D01*
X47580039Y-45842561D01*
X47580040Y-45842562D01*
X47646862Y-45860467D01*
X47646863Y-45860467D01*
X47713689Y-45878373D01*
X47713690Y-45878373D01*
X49469702Y-45878373D01*
X49527893Y-45897280D01*
X49563857Y-45946780D01*
X49568702Y-45977373D01*
X49568702Y-46646328D01*
X49568701Y-46646346D01*
X49568701Y-46790776D01*
X49592676Y-46880248D01*
X49592676Y-46880249D01*
X49604513Y-46924424D01*
X49604514Y-46924427D01*
X49673697Y-47044256D01*
X49771537Y-47142096D01*
X49771539Y-47142097D01*
X49852402Y-47222960D01*
X49880179Y-47277477D01*
X49870608Y-47337909D01*
X49827343Y-47381174D01*
X49782398Y-47391964D01*
X45630341Y-47391964D01*
X45572150Y-47373057D01*
X45560337Y-47362968D01*
X44750687Y-46553318D01*
X44722910Y-46498801D01*
X44722413Y-46495247D01*
X44721992Y-46491776D01*
X44719637Y-46472382D01*
X44663620Y-46324677D01*
X44573883Y-46194670D01*
X44455640Y-46089917D01*
X44378490Y-46049425D01*
X44335752Y-46005640D01*
X44325499Y-45961765D01*
X44325499Y-44413478D01*
X44325498Y-44413476D01*
X44310647Y-44319700D01*
X44310646Y-44319698D01*
X44310646Y-44319696D01*
X44253050Y-44206658D01*
X44163342Y-44116950D01*
X44050304Y-44059354D01*
X44050305Y-44059354D01*
X43956522Y-44044500D01*
X43956519Y-44044500D01*
X43715156Y-44044500D01*
X43656965Y-44025593D01*
X43621001Y-43976093D01*
X43621001Y-43914907D01*
X43656965Y-43865407D01*
X43673317Y-43855775D01*
X43702639Y-43842102D01*
X43881877Y-43716598D01*
X44036598Y-43561877D01*
X44162102Y-43382639D01*
X44254575Y-43184330D01*
X44311207Y-42972977D01*
X44314125Y-42939632D01*
X44330277Y-42755003D01*
X44330277Y-42754996D01*
X44311208Y-42537030D01*
X44311207Y-42537027D01*
X44311207Y-42537023D01*
X44254575Y-42325670D01*
X44162102Y-42127362D01*
X44072572Y-41999500D01*
X44036601Y-41948127D01*
X44036600Y-41948126D01*
X44036598Y-41948123D01*
X43881877Y-41793402D01*
X43881873Y-41793399D01*
X43881872Y-41793398D01*
X43734892Y-41690482D01*
X43702639Y-41667898D01*
X43504330Y-41575425D01*
X43504325Y-41575423D01*
X43502827Y-41574725D01*
X43458079Y-41532996D01*
X43446404Y-41472935D01*
X43472262Y-41417482D01*
X43502827Y-41395275D01*
X43504325Y-41394576D01*
X43504330Y-41394575D01*
X43702639Y-41302102D01*
X43881877Y-41176598D01*
X44036598Y-41021877D01*
X44162102Y-40842639D01*
X44254575Y-40644330D01*
X44311207Y-40432977D01*
X44323653Y-40290723D01*
X44330277Y-40215003D01*
X44330277Y-40214996D01*
X44311208Y-39997030D01*
X44311207Y-39997027D01*
X44311207Y-39997023D01*
X44254575Y-39785670D01*
X44202025Y-39672977D01*
X44162107Y-39587372D01*
X44162103Y-39587364D01*
X44036601Y-39408127D01*
X44036600Y-39408126D01*
X44036598Y-39408123D01*
X43881877Y-39253402D01*
X43881873Y-39253399D01*
X43881872Y-39253398D01*
X43782435Y-39183772D01*
X43702639Y-39127898D01*
X43504330Y-39035425D01*
X43504325Y-39035423D01*
X43502827Y-39034725D01*
X43458079Y-38992996D01*
X43446404Y-38932935D01*
X43472262Y-38877482D01*
X43502827Y-38855275D01*
X43504325Y-38854576D01*
X43504330Y-38854575D01*
X43702639Y-38762102D01*
X43881877Y-38636598D01*
X44036598Y-38481877D01*
X44162102Y-38302639D01*
X44254575Y-38104330D01*
X44311207Y-37892977D01*
X44314989Y-37849756D01*
X44330277Y-37675003D01*
X44330277Y-37674996D01*
X44311208Y-37457030D01*
X44311207Y-37457027D01*
X44311207Y-37457023D01*
X44254575Y-37245670D01*
X44202025Y-37132977D01*
X44162107Y-37047372D01*
X44162103Y-37047364D01*
X44036601Y-36868127D01*
X44036600Y-36868126D01*
X44036598Y-36868123D01*
X43881877Y-36713402D01*
X43881873Y-36713399D01*
X43881872Y-36713398D01*
X43782435Y-36643772D01*
X43702639Y-36587898D01*
X43504330Y-36495425D01*
X43292977Y-36438793D01*
X43292976Y-36438792D01*
X43292969Y-36438791D01*
X43075003Y-36419723D01*
X43074997Y-36419723D01*
X42857030Y-36438791D01*
X42645666Y-36495426D01*
X42447372Y-36587892D01*
X42447364Y-36587896D01*
X42268127Y-36713398D01*
X42113398Y-36868127D01*
X41987896Y-37047364D01*
X41987892Y-37047372D01*
X41895426Y-37245666D01*
X41838791Y-37457030D01*
X41819723Y-37674996D01*
X41819723Y-37675003D01*
X41838791Y-37892969D01*
X41882126Y-38054699D01*
X41878923Y-38115801D01*
X41856503Y-38150326D01*
X40983004Y-39023826D01*
X40928487Y-39051603D01*
X40868055Y-39042032D01*
X40824790Y-38998767D01*
X40814000Y-38953822D01*
X40814000Y-32991001D01*
X40814000Y-32991000D01*
X40424000Y-32991000D01*
X40365809Y-32972093D01*
X40329845Y-32922593D01*
X40325000Y-32892000D01*
X40325000Y-32324000D01*
X40343907Y-32265809D01*
X40393407Y-32229845D01*
X40424000Y-32225000D01*
X86126000Y-32225000D01*
X86184191Y-32243907D01*
G37*
%TD.AperFunction*%
%TD*%
%TA.AperFunction,Conductor*%
%TO.N,+5V*%
G36*
X49317113Y-37844685D02*
G01*
X49337755Y-37861319D01*
X49420931Y-37944495D01*
X49517716Y-38012265D01*
X49614497Y-38080032D01*
X49614499Y-38080033D01*
X49614502Y-38080035D01*
X49828669Y-38179903D01*
X50056924Y-38241063D01*
X50245250Y-38257539D01*
X50292331Y-38261659D01*
X50292332Y-38261659D01*
X50292333Y-38261659D01*
X50331566Y-38258226D01*
X50527740Y-38241063D01*
X50755995Y-38179903D01*
X50970162Y-38080035D01*
X51163733Y-37944495D01*
X51246909Y-37861319D01*
X51308232Y-37827834D01*
X51334590Y-37825000D01*
X52983740Y-37825000D01*
X53050779Y-37844685D01*
X53071421Y-37861319D01*
X53154597Y-37944495D01*
X53251382Y-38012265D01*
X53348163Y-38080032D01*
X53348165Y-38080033D01*
X53348168Y-38080035D01*
X53562335Y-38179903D01*
X53790590Y-38241063D01*
X53978916Y-38257539D01*
X54025997Y-38261659D01*
X54025998Y-38261659D01*
X54025999Y-38261659D01*
X54065232Y-38258226D01*
X54261406Y-38241063D01*
X54489661Y-38179903D01*
X54703828Y-38080035D01*
X54897399Y-37944495D01*
X54980575Y-37861319D01*
X55041898Y-37827834D01*
X55068256Y-37825000D01*
X56717406Y-37825000D01*
X56784445Y-37844685D01*
X56805087Y-37861319D01*
X56888263Y-37944495D01*
X56985048Y-38012265D01*
X57081829Y-38080032D01*
X57081831Y-38080033D01*
X57081834Y-38080035D01*
X57296001Y-38179903D01*
X57524256Y-38241063D01*
X57712582Y-38257539D01*
X57759663Y-38261659D01*
X57759664Y-38261659D01*
X57759665Y-38261659D01*
X57798898Y-38258226D01*
X57995072Y-38241063D01*
X58223327Y-38179903D01*
X58437494Y-38080035D01*
X58631065Y-37944495D01*
X58714241Y-37861319D01*
X58775564Y-37827834D01*
X58801922Y-37825000D01*
X60451072Y-37825000D01*
X60518111Y-37844685D01*
X60538753Y-37861319D01*
X60621929Y-37944495D01*
X60718714Y-38012265D01*
X60815495Y-38080032D01*
X60815497Y-38080033D01*
X60815500Y-38080035D01*
X61029667Y-38179903D01*
X61257922Y-38241063D01*
X61446248Y-38257539D01*
X61493329Y-38261659D01*
X61493330Y-38261659D01*
X61493331Y-38261659D01*
X61532564Y-38258226D01*
X61728738Y-38241063D01*
X61956993Y-38179903D01*
X62171160Y-38080035D01*
X62364731Y-37944495D01*
X62447907Y-37861319D01*
X62509230Y-37827834D01*
X62535588Y-37825000D01*
X64184742Y-37825000D01*
X64251781Y-37844685D01*
X64272423Y-37861319D01*
X64355599Y-37944495D01*
X64452384Y-38012265D01*
X64549165Y-38080032D01*
X64549167Y-38080033D01*
X64549170Y-38080035D01*
X64763337Y-38179903D01*
X64991592Y-38241063D01*
X65179918Y-38257539D01*
X65226999Y-38261659D01*
X65227000Y-38261659D01*
X65227001Y-38261659D01*
X65266234Y-38258226D01*
X65462408Y-38241063D01*
X65690663Y-38179903D01*
X65904830Y-38080035D01*
X66098401Y-37944495D01*
X66181577Y-37861319D01*
X66242900Y-37827834D01*
X66269258Y-37825000D01*
X74799017Y-37825000D01*
X74866056Y-37844685D01*
X74911811Y-37897489D01*
X74923000Y-37950965D01*
X74556468Y-61042516D01*
X74426937Y-69202968D01*
X74406191Y-69269687D01*
X74352668Y-69314598D01*
X74302953Y-69325000D01*
X70549000Y-69325000D01*
X70481961Y-69305315D01*
X70436206Y-69252511D01*
X70425000Y-69201000D01*
X70425000Y-61992106D01*
X70444685Y-61925067D01*
X70449734Y-61917794D01*
X70468796Y-61892331D01*
X70519091Y-61757483D01*
X70525500Y-61697873D01*
X70525499Y-61102128D01*
X70519091Y-61042517D01*
X70468796Y-60907669D01*
X70449733Y-60882204D01*
X70425316Y-60816739D01*
X70425000Y-60807893D01*
X70425000Y-41325000D01*
X49940247Y-41325000D01*
X49873208Y-41305315D01*
X49848097Y-41283972D01*
X49806201Y-41237442D01*
X49653065Y-41126182D01*
X49653060Y-41126179D01*
X49480138Y-41049188D01*
X49480133Y-41049186D01*
X49325882Y-41016400D01*
X49294977Y-41009831D01*
X49105685Y-41009831D01*
X49090315Y-41013097D01*
X49074778Y-41016400D01*
X49005111Y-41011082D01*
X48949378Y-40968943D01*
X48925275Y-40903363D01*
X48925000Y-40895109D01*
X48925000Y-37949000D01*
X48944685Y-37881961D01*
X48997489Y-37836206D01*
X49049000Y-37825000D01*
X49250074Y-37825000D01*
X49317113Y-37844685D01*
G37*
%TD.AperFunction*%
%TD*%
M02*
