%TF.GenerationSoftware,KiCad,Pcbnew,8.0.3*%
%TF.CreationDate,2024-07-15T22:47:52-04:00*%
%TF.ProjectId,get-a-grip-on-reality,6765742d-612d-4677-9269-702d6f6e2d72,rev?*%
%TF.SameCoordinates,Original*%
%TF.FileFunction,Paste,Top*%
%TF.FilePolarity,Positive*%
%FSLAX46Y46*%
G04 Gerber Fmt 4.6, Leading zero omitted, Abs format (unit mm)*
G04 Created by KiCad (PCBNEW 8.0.3) date 2024-07-15 22:47:52*
%MOMM*%
%LPD*%
G01*
G04 APERTURE LIST*
G04 Aperture macros list*
%AMRoundRect*
0 Rectangle with rounded corners*
0 $1 Rounding radius*
0 $2 $3 $4 $5 $6 $7 $8 $9 X,Y pos of 4 corners*
0 Add a 4 corners polygon primitive as box body*
4,1,4,$2,$3,$4,$5,$6,$7,$8,$9,$2,$3,0*
0 Add four circle primitives for the rounded corners*
1,1,$1+$1,$2,$3*
1,1,$1+$1,$4,$5*
1,1,$1+$1,$6,$7*
1,1,$1+$1,$8,$9*
0 Add four rect primitives between the rounded corners*
20,1,$1+$1,$2,$3,$4,$5,0*
20,1,$1+$1,$4,$5,$6,$7,0*
20,1,$1+$1,$6,$7,$8,$9,0*
20,1,$1+$1,$8,$9,$2,$3,0*%
G04 Aperture macros list end*
%ADD10RoundRect,0.250000X0.250000X0.475000X-0.250000X0.475000X-0.250000X-0.475000X0.250000X-0.475000X0*%
%ADD11RoundRect,0.250000X-0.650000X0.350000X-0.650000X-0.350000X0.650000X-0.350000X0.650000X0.350000X0*%
%ADD12RoundRect,0.150000X-0.625000X0.150000X-0.625000X-0.150000X0.625000X-0.150000X0.625000X0.150000X0*%
%ADD13RoundRect,0.250000X-0.450000X0.262500X-0.450000X-0.262500X0.450000X-0.262500X0.450000X0.262500X0*%
%ADD14RoundRect,0.093750X-0.106250X0.093750X-0.106250X-0.093750X0.106250X-0.093750X0.106250X0.093750X0*%
%ADD15RoundRect,0.172500X-0.172500X0.262500X-0.172500X-0.262500X0.172500X-0.262500X0.172500X0.262500X0*%
%ADD16RoundRect,0.243750X-0.456250X0.243750X-0.456250X-0.243750X0.456250X-0.243750X0.456250X0.243750X0*%
%ADD17RoundRect,0.250000X-0.250000X-0.475000X0.250000X-0.475000X0.250000X0.475000X-0.250000X0.475000X0*%
%ADD18RoundRect,0.250000X-0.262500X-0.450000X0.262500X-0.450000X0.262500X0.450000X-0.262500X0.450000X0*%
%ADD19RoundRect,0.062500X-0.117500X-0.062500X0.117500X-0.062500X0.117500X0.062500X-0.117500X0.062500X0*%
%ADD20RoundRect,0.250000X0.350000X0.650000X-0.350000X0.650000X-0.350000X-0.650000X0.350000X-0.650000X0*%
%ADD21RoundRect,0.150000X0.150000X0.625000X-0.150000X0.625000X-0.150000X-0.625000X0.150000X-0.625000X0*%
%ADD22R,0.250000X0.675000*%
%ADD23R,0.675000X0.250000*%
%ADD24RoundRect,0.250000X-0.475000X0.250000X-0.475000X-0.250000X0.475000X-0.250000X0.475000X0.250000X0*%
%ADD25R,0.900000X1.500000*%
%ADD26R,1.500000X0.900000*%
%ADD27R,0.900000X0.900000*%
%ADD28RoundRect,0.243750X0.243750X0.456250X-0.243750X0.456250X-0.243750X-0.456250X0.243750X-0.456250X0*%
%ADD29R,1.000000X2.750000*%
%ADD30RoundRect,0.250000X0.450000X-0.262500X0.450000X0.262500X-0.450000X0.262500X-0.450000X-0.262500X0*%
%ADD31RoundRect,0.250000X0.262500X0.450000X-0.262500X0.450000X-0.262500X-0.450000X0.262500X-0.450000X0*%
%ADD32RoundRect,0.075000X0.910000X0.225000X-0.910000X0.225000X-0.910000X-0.225000X0.910000X-0.225000X0*%
G04 APERTURE END LIST*
D10*
%TO.C,C8*%
X45775000Y-44875000D03*
X47675000Y-44875000D03*
%TD*%
%TO.C,C6*%
X41975200Y-68066800D03*
X43875200Y-68066800D03*
%TD*%
D11*
%TO.C,J6*%
X65625000Y-63075000D03*
X65625000Y-56475000D03*
D12*
X63100000Y-61775000D03*
X63100000Y-60775000D03*
X63100000Y-59775000D03*
X63100000Y-58775000D03*
X63100000Y-57775000D03*
%TD*%
D13*
%TO.C,R4*%
X64525000Y-46525000D03*
X64525000Y-44700000D03*
%TD*%
D14*
%TO.C,U1*%
X69875000Y-62287500D03*
X69225000Y-62287500D03*
X68575000Y-62287500D03*
X68575000Y-60512500D03*
X69225000Y-60512500D03*
X69875000Y-60512500D03*
D15*
X68825000Y-61400000D03*
X69625000Y-61400000D03*
%TD*%
D16*
%TO.C,D2*%
X62475000Y-53625000D03*
X62475000Y-51750000D03*
%TD*%
D10*
%TO.C,C5*%
X67847400Y-55992200D03*
X69747400Y-55992200D03*
%TD*%
D17*
%TO.C,C3*%
X69517800Y-42525000D03*
X67617800Y-42525000D03*
%TD*%
D10*
%TO.C,C11*%
X50475000Y-42325000D03*
X52375000Y-42325000D03*
%TD*%
%TO.C,C13*%
X68125000Y-53125000D03*
X70025000Y-53125000D03*
%TD*%
%TO.C,C1*%
X68150000Y-63825000D03*
X70050000Y-63825000D03*
%TD*%
D18*
%TO.C,R1*%
X72883900Y-42525000D03*
X71058900Y-42525000D03*
%TD*%
D19*
%TO.C,D1*%
X71005000Y-55891200D03*
X71845000Y-55891200D03*
%TD*%
D11*
%TO.C,J5*%
X65622400Y-72081200D03*
X65622400Y-65481200D03*
D12*
X63097400Y-70781200D03*
X63097400Y-69781200D03*
X63097400Y-68781200D03*
X63097400Y-67781200D03*
X63097400Y-66781200D03*
%TD*%
D20*
%TO.C,J3*%
X51175000Y-77150000D03*
X57775000Y-77150000D03*
D21*
X52475000Y-74625000D03*
X53475000Y-74625000D03*
X54475000Y-74625000D03*
X55475000Y-74625000D03*
X56475000Y-74625000D03*
%TD*%
D22*
%TO.C,U4*%
X51119200Y-46137500D03*
X50619200Y-46137500D03*
X50119200Y-46137500D03*
D23*
X49356700Y-45875000D03*
X49356700Y-45375000D03*
X49356700Y-44875000D03*
X49356700Y-44375000D03*
D22*
X50119200Y-44112500D03*
X50619200Y-44112500D03*
X51119200Y-44112500D03*
D23*
X51881700Y-44375000D03*
X51881700Y-44875000D03*
X51881700Y-45375000D03*
X51881700Y-45875000D03*
%TD*%
D24*
%TO.C,C9*%
X54200000Y-44000000D03*
X54200000Y-42100000D03*
%TD*%
D17*
%TO.C,C2*%
X76325000Y-42525000D03*
X74425000Y-42525000D03*
%TD*%
D25*
%TO.C,U2*%
X42304000Y-48241000D03*
X43574000Y-48241000D03*
X44844000Y-48241000D03*
X46114000Y-48241000D03*
X47384000Y-48241000D03*
X48654000Y-48241000D03*
X49924000Y-48241000D03*
X51194000Y-48241000D03*
X52464000Y-48241000D03*
X53734000Y-48241000D03*
X55004000Y-48241000D03*
X56274000Y-48241000D03*
X57544000Y-48241000D03*
X58814000Y-48241000D03*
D26*
X60064000Y-50006000D03*
X60064000Y-51276000D03*
X60064000Y-52546000D03*
X60064000Y-53816000D03*
X60064000Y-55086000D03*
X60064000Y-56356000D03*
X60064000Y-57626000D03*
X60064000Y-58896000D03*
X60064000Y-60166000D03*
X60064000Y-61436000D03*
X60064000Y-62706000D03*
X60064000Y-63976000D03*
D25*
X58814000Y-65741000D03*
X57544000Y-65741000D03*
X56274000Y-65741000D03*
X55004000Y-65741000D03*
X53734000Y-65741000D03*
X52464000Y-65741000D03*
X51194000Y-65741000D03*
X49924000Y-65741000D03*
X48654000Y-65741000D03*
X47384000Y-65741000D03*
X46114000Y-65741000D03*
X44844000Y-65741000D03*
X43574000Y-65741000D03*
X42304000Y-65741000D03*
D27*
X51424000Y-57091000D03*
X50024000Y-57091000D03*
X48624000Y-57091000D03*
X51424000Y-58491000D03*
X50024000Y-58491000D03*
X48624000Y-58491000D03*
X51424000Y-59891000D03*
X50024000Y-59891000D03*
X48624000Y-59891000D03*
%TD*%
D28*
%TO.C,D3*%
X71937500Y-59075000D03*
X73812500Y-59075000D03*
%TD*%
D29*
%TO.C,RESET1*%
X75425000Y-39775000D03*
X75425000Y-34015000D03*
X79425000Y-39775000D03*
X79425000Y-34015000D03*
%TD*%
D10*
%TO.C,C4*%
X67847400Y-58075000D03*
X69747400Y-58075000D03*
%TD*%
%TO.C,C7*%
X41980000Y-70100000D03*
X43880000Y-70100000D03*
%TD*%
D20*
%TO.C,J2*%
X42275000Y-77155000D03*
X48875000Y-77155000D03*
D21*
X43575000Y-74630000D03*
X44575000Y-74630000D03*
X45575000Y-74630000D03*
X46575000Y-74630000D03*
X47575000Y-74630000D03*
%TD*%
D30*
%TO.C,R5*%
X64525000Y-48212500D03*
X64525000Y-50037500D03*
%TD*%
%TO.C,R2*%
X62475000Y-48246300D03*
X62475000Y-50071300D03*
%TD*%
D31*
%TO.C,R6*%
X73287500Y-52975000D03*
X75112500Y-52975000D03*
%TD*%
D20*
%TO.C,J4*%
X60075000Y-77150000D03*
X66675000Y-77150000D03*
D21*
X61375000Y-74625000D03*
X62375000Y-74625000D03*
X63375000Y-74625000D03*
X64375000Y-74625000D03*
X65375000Y-74625000D03*
%TD*%
D29*
%TO.C,BOOT1*%
X72681800Y-34036400D03*
X72681800Y-39796400D03*
X68681800Y-34036400D03*
X68681800Y-39796400D03*
%TD*%
D24*
%TO.C,C10*%
X72130000Y-62861000D03*
X72130000Y-60961000D03*
%TD*%
D10*
%TO.C,C12*%
X73250000Y-54975000D03*
X75150000Y-54975000D03*
%TD*%
D32*
%TO.C,U5*%
X66780000Y-51205000D03*
X66780000Y-49935000D03*
X66780000Y-48665000D03*
X66780000Y-47395000D03*
X71720000Y-47395000D03*
X71720000Y-48665000D03*
X71720000Y-49935000D03*
X71720000Y-51205000D03*
%TD*%
D31*
%TO.C,R7*%
X67612500Y-44725000D03*
X69437500Y-44725000D03*
%TD*%
D13*
%TO.C,R3*%
X74175000Y-62825000D03*
X74175000Y-61000000D03*
%TD*%
M02*
