%TF.GenerationSoftware,KiCad,Pcbnew,8.0.3*%
%TF.CreationDate,2024-07-15T22:47:51-04:00*%
%TF.ProjectId,get-a-grip-on-reality,6765742d-612d-4677-9269-702d6f6e2d72,rev?*%
%TF.SameCoordinates,Original*%
%TF.FileFunction,Copper,L1,Top*%
%TF.FilePolarity,Positive*%
%FSLAX46Y46*%
G04 Gerber Fmt 4.6, Leading zero omitted, Abs format (unit mm)*
G04 Created by KiCad (PCBNEW 8.0.3) date 2024-07-15 22:47:51*
%MOMM*%
%LPD*%
G01*
G04 APERTURE LIST*
G04 Aperture macros list*
%AMRoundRect*
0 Rectangle with rounded corners*
0 $1 Rounding radius*
0 $2 $3 $4 $5 $6 $7 $8 $9 X,Y pos of 4 corners*
0 Add a 4 corners polygon primitive as box body*
4,1,4,$2,$3,$4,$5,$6,$7,$8,$9,$2,$3,0*
0 Add four circle primitives for the rounded corners*
1,1,$1+$1,$2,$3*
1,1,$1+$1,$4,$5*
1,1,$1+$1,$6,$7*
1,1,$1+$1,$8,$9*
0 Add four rect primitives between the rounded corners*
20,1,$1+$1,$2,$3,$4,$5,0*
20,1,$1+$1,$4,$5,$6,$7,0*
20,1,$1+$1,$6,$7,$8,$9,0*
20,1,$1+$1,$8,$9,$2,$3,0*%
%AMRotRect*
0 Rectangle, with rotation*
0 The origin of the aperture is its center*
0 $1 length*
0 $2 width*
0 $3 Rotation angle, in degrees counterclockwise*
0 Add horizontal line*
21,1,$1,$2,0,0,$3*%
G04 Aperture macros list end*
%TA.AperFunction,ComponentPad*%
%ADD10RotRect,1.258000X1.258000X210.000000*%
%TD*%
%TA.AperFunction,ComponentPad*%
%ADD11C,1.258000*%
%TD*%
%TA.AperFunction,SMDPad,CuDef*%
%ADD12RoundRect,0.250000X0.250000X0.475000X-0.250000X0.475000X-0.250000X-0.475000X0.250000X-0.475000X0*%
%TD*%
%TA.AperFunction,ComponentPad*%
%ADD13O,1.700000X1.700000*%
%TD*%
%TA.AperFunction,ComponentPad*%
%ADD14R,1.700000X1.700000*%
%TD*%
%TA.AperFunction,SMDPad,CuDef*%
%ADD15RoundRect,0.250000X-0.650000X0.350000X-0.650000X-0.350000X0.650000X-0.350000X0.650000X0.350000X0*%
%TD*%
%TA.AperFunction,SMDPad,CuDef*%
%ADD16RoundRect,0.150000X-0.625000X0.150000X-0.625000X-0.150000X0.625000X-0.150000X0.625000X0.150000X0*%
%TD*%
%TA.AperFunction,SMDPad,CuDef*%
%ADD17RoundRect,0.250000X-0.450000X0.262500X-0.450000X-0.262500X0.450000X-0.262500X0.450000X0.262500X0*%
%TD*%
%TA.AperFunction,HeatsinkPad*%
%ADD18R,1.600000X1.000000*%
%TD*%
%TA.AperFunction,SMDPad,CuDef*%
%ADD19RoundRect,0.093750X-0.106250X0.093750X-0.106250X-0.093750X0.106250X-0.093750X0.106250X0.093750X0*%
%TD*%
%TA.AperFunction,SMDPad,CuDef*%
%ADD20RoundRect,0.243750X-0.456250X0.243750X-0.456250X-0.243750X0.456250X-0.243750X0.456250X0.243750X0*%
%TD*%
%TA.AperFunction,SMDPad,CuDef*%
%ADD21RoundRect,0.250000X-0.250000X-0.475000X0.250000X-0.475000X0.250000X0.475000X-0.250000X0.475000X0*%
%TD*%
%TA.AperFunction,SMDPad,CuDef*%
%ADD22RoundRect,0.250000X-0.262500X-0.450000X0.262500X-0.450000X0.262500X0.450000X-0.262500X0.450000X0*%
%TD*%
%TA.AperFunction,SMDPad,CuDef*%
%ADD23RoundRect,0.062500X-0.117500X-0.062500X0.117500X-0.062500X0.117500X0.062500X-0.117500X0.062500X0*%
%TD*%
%TA.AperFunction,SMDPad,CuDef*%
%ADD24RoundRect,0.250000X0.350000X0.650000X-0.350000X0.650000X-0.350000X-0.650000X0.350000X-0.650000X0*%
%TD*%
%TA.AperFunction,SMDPad,CuDef*%
%ADD25RoundRect,0.150000X0.150000X0.625000X-0.150000X0.625000X-0.150000X-0.625000X0.150000X-0.625000X0*%
%TD*%
%TA.AperFunction,SMDPad,CuDef*%
%ADD26R,0.250000X0.675000*%
%TD*%
%TA.AperFunction,SMDPad,CuDef*%
%ADD27R,0.675000X0.250000*%
%TD*%
%TA.AperFunction,SMDPad,CuDef*%
%ADD28RoundRect,0.250000X-0.475000X0.250000X-0.475000X-0.250000X0.475000X-0.250000X0.475000X0.250000X0*%
%TD*%
%TA.AperFunction,SMDPad,CuDef*%
%ADD29R,3.900000X3.900000*%
%TD*%
%TA.AperFunction,SMDPad,CuDef*%
%ADD30R,0.900000X1.500000*%
%TD*%
%TA.AperFunction,SMDPad,CuDef*%
%ADD31R,1.500000X0.900000*%
%TD*%
%TA.AperFunction,ComponentPad*%
%ADD32RotRect,1.258000X1.258000X330.000000*%
%TD*%
%TA.AperFunction,SMDPad,CuDef*%
%ADD33RoundRect,0.243750X0.243750X0.456250X-0.243750X0.456250X-0.243750X-0.456250X0.243750X-0.456250X0*%
%TD*%
%TA.AperFunction,SMDPad,CuDef*%
%ADD34R,1.000000X2.750000*%
%TD*%
%TA.AperFunction,SMDPad,CuDef*%
%ADD35RoundRect,0.250000X0.450000X-0.262500X0.450000X0.262500X-0.450000X0.262500X-0.450000X-0.262500X0*%
%TD*%
%TA.AperFunction,ComponentPad*%
%ADD36R,1.258000X1.258000*%
%TD*%
%TA.AperFunction,SMDPad,CuDef*%
%ADD37RoundRect,0.250000X0.262500X0.450000X-0.262500X0.450000X-0.262500X-0.450000X0.262500X-0.450000X0*%
%TD*%
%TA.AperFunction,SMDPad,CuDef*%
%ADD38RoundRect,0.075000X0.910000X0.225000X-0.910000X0.225000X-0.910000X-0.225000X0.910000X-0.225000X0*%
%TD*%
%TA.AperFunction,ComponentPad*%
%ADD39C,3.500000*%
%TD*%
%TA.AperFunction,ComponentPad*%
%ADD40R,3.500000X3.500000*%
%TD*%
%TA.AperFunction,ComponentPad*%
%ADD41C,1.400000*%
%TD*%
%TA.AperFunction,ViaPad*%
%ADD42C,0.800000*%
%TD*%
%TA.AperFunction,ViaPad*%
%ADD43C,0.500000*%
%TD*%
%TA.AperFunction,Conductor*%
%ADD44C,0.250000*%
%TD*%
%TA.AperFunction,Conductor*%
%ADD45C,0.560000*%
%TD*%
%TA.AperFunction,Conductor*%
%ADD46C,0.350000*%
%TD*%
%TA.AperFunction,Conductor*%
%ADD47C,0.400000*%
%TD*%
%TA.AperFunction,Conductor*%
%ADD48C,0.150000*%
%TD*%
%TA.AperFunction,Conductor*%
%ADD49C,0.200000*%
%TD*%
G04 APERTURE END LIST*
D10*
%TO.P,D5,K*%
%TO.N,/Light Sensor/1IN-*%
X83600000Y-52040000D03*
D11*
%TO.P,D5,A*%
%TO.N,GND*%
X81400296Y-53310000D03*
%TD*%
D12*
%TO.P,C8,2*%
%TO.N,GND*%
X45775000Y-44875000D03*
%TO.P,C8,1*%
%TO.N,+3.3V*%
X47675000Y-44875000D03*
%TD*%
%TO.P,C6,2*%
%TO.N,GND*%
X41975200Y-68066800D03*
%TO.P,C6,1*%
%TO.N,+3.3V*%
X43875200Y-68066800D03*
%TD*%
D13*
%TO.P,J9,3,Pin_3*%
%TO.N,GND*%
X57759664Y-34366000D03*
%TO.P,J9,2,Pin_2*%
%TO.N,/MOTOR3*%
X57759664Y-36906000D03*
D14*
%TO.P,J9,1,Pin_1*%
%TO.N,+5V*%
X57759664Y-39446000D03*
%TD*%
D13*
%TO.P,J11,3,Pin_3*%
%TO.N,GND*%
X65227000Y-34366000D03*
%TO.P,J11,2,Pin_2*%
%TO.N,/MOTOR5*%
X65227000Y-36906000D03*
D14*
%TO.P,J11,1,Pin_1*%
%TO.N,+5V*%
X65227000Y-39446000D03*
%TD*%
D13*
%TO.P,J10,3,Pin_3*%
%TO.N,GND*%
X61493330Y-34366000D03*
%TO.P,J10,2,Pin_2*%
%TO.N,/MOTOR4*%
X61493330Y-36906000D03*
D14*
%TO.P,J10,1,Pin_1*%
%TO.N,+5V*%
X61493330Y-39446000D03*
%TD*%
D15*
%TO.P,J6,MP*%
%TO.N,N/C*%
X65625000Y-63075000D03*
X65625000Y-56475000D03*
D16*
%TO.P,J6,5,Pin_5*%
%TO.N,+3.3V*%
X63100000Y-61775000D03*
%TO.P,J6,4,Pin_4*%
%TO.N,/HALL5A*%
X63100000Y-60775000D03*
%TO.P,J6,3,Pin_3*%
%TO.N,/HALL5B*%
X63100000Y-59775000D03*
%TO.P,J6,2,Pin_2*%
%TO.N,/HALL5C*%
X63100000Y-58775000D03*
%TO.P,J6,1,Pin_1*%
%TO.N,GND*%
X63100000Y-57775000D03*
%TD*%
D17*
%TO.P,R4,2*%
%TO.N,/Light Sensor/2IN-*%
X64525000Y-46525000D03*
%TO.P,R4,1*%
%TO.N,GND*%
X64525000Y-44700000D03*
%TD*%
D18*
%TO.P,U1,7,PAD*%
%TO.N,GND*%
X69225000Y-61400000D03*
D19*
%TO.P,U1,6,IN*%
%TO.N,+5V*%
X69875000Y-62287500D03*
%TO.P,U1,5,GND*%
%TO.N,GND*%
X69225000Y-62287500D03*
%TO.P,U1,4,EN*%
%TO.N,+5V*%
X68575000Y-62287500D03*
%TO.P,U1,3,GND*%
%TO.N,GND*%
X68575000Y-60512500D03*
%TO.P,U1,2,SNS*%
%TO.N,+3.3V*%
X69225000Y-60512500D03*
%TO.P,U1,1,OUT*%
X69875000Y-60512500D03*
%TD*%
D20*
%TO.P,D2,2,A*%
%TO.N,Net-(D2-A)*%
X62475000Y-53625000D03*
%TO.P,D2,1,K*%
%TO.N,Net-(D2-K)*%
X62475000Y-51750000D03*
%TD*%
D12*
%TO.P,C5,2*%
%TO.N,GND*%
X67847400Y-55992200D03*
%TO.P,C5,1*%
%TO.N,+3.3V*%
X69747400Y-55992200D03*
%TD*%
D21*
%TO.P,C3,2*%
%TO.N,GND*%
X69517800Y-42525000D03*
%TO.P,C3,1*%
%TO.N,Net-(U2-GPIO0{slash}BOOT)*%
X67617800Y-42525000D03*
%TD*%
D12*
%TO.P,C11,2*%
%TO.N,GND*%
X50475000Y-42325000D03*
%TO.P,C11,1*%
%TO.N,+3.3V*%
X52375000Y-42325000D03*
%TD*%
%TO.P,C13,2*%
%TO.N,/Light Sensor/2IN+*%
X68125000Y-53125000D03*
%TO.P,C13,1*%
%TO.N,Net-(U5-1OUT)*%
X70025000Y-53125000D03*
%TD*%
%TO.P,C1,2*%
%TO.N,GND*%
X68150000Y-63825000D03*
%TO.P,C1,1*%
%TO.N,+5V*%
X70050000Y-63825000D03*
%TD*%
D22*
%TO.P,R1,2*%
%TO.N,Net-(U2-EN)*%
X72883900Y-42525000D03*
%TO.P,R1,1*%
%TO.N,+3.3V*%
X71058900Y-42525000D03*
%TD*%
D23*
%TO.P,D1,2,A2*%
%TO.N,+3.3V*%
X71005000Y-55891200D03*
%TO.P,D1,1,A1*%
%TO.N,GND*%
X71845000Y-55891200D03*
%TD*%
D15*
%TO.P,J5,MP*%
%TO.N,N/C*%
X65622400Y-72081200D03*
X65622400Y-65481200D03*
D16*
%TO.P,J5,5,Pin_5*%
%TO.N,+3.3V*%
X63097400Y-70781200D03*
%TO.P,J5,4,Pin_4*%
%TO.N,/HALL4A*%
X63097400Y-69781200D03*
%TO.P,J5,3,Pin_3*%
%TO.N,/HALL4B*%
X63097400Y-68781200D03*
%TO.P,J5,2,Pin_2*%
%TO.N,/HALL4C*%
X63097400Y-67781200D03*
%TO.P,J5,1,Pin_1*%
%TO.N,GND*%
X63097400Y-66781200D03*
%TD*%
D24*
%TO.P,J3,MP*%
%TO.N,N/C*%
X51175000Y-77150000D03*
X57775000Y-77150000D03*
D25*
%TO.P,J3,5,Pin_5*%
%TO.N,+3.3V*%
X52475000Y-74625000D03*
%TO.P,J3,4,Pin_4*%
%TO.N,/HALL2A*%
X53475000Y-74625000D03*
%TO.P,J3,3,Pin_3*%
%TO.N,/HALL2B*%
X54475000Y-74625000D03*
%TO.P,J3,2,Pin_2*%
%TO.N,/HALL2C*%
X55475000Y-74625000D03*
%TO.P,J3,1,Pin_1*%
%TO.N,GND*%
X56475000Y-74625000D03*
%TD*%
D26*
%TO.P,U4,14,AP_SDA/AP_SDIO/AP_SDI*%
%TO.N,/IMU/SDI*%
X51119200Y-46137500D03*
%TO.P,U4,13,AP_SCL/AP_SCLK*%
%TO.N,/IMU/SCLK*%
X50619200Y-46137500D03*
%TO.P,U4,12,AP_CS*%
%TO.N,/IMU/SCS*%
X50119200Y-46137500D03*
D27*
%TO.P,U4,11,RESV*%
%TO.N,unconnected-(U4-RESV-Pad11)*%
X49356700Y-45875000D03*
%TO.P,U4,10,RESV*%
%TO.N,unconnected-(U4-RESV-Pad10)*%
X49356700Y-45375000D03*
%TO.P,U4,9,INT2/FSYNC/CLKIN*%
%TO.N,/IMU/INT2*%
X49356700Y-44875000D03*
%TO.P,U4,8,VDD*%
%TO.N,+3.3V*%
X49356700Y-44375000D03*
D26*
%TO.P,U4,7,GND*%
%TO.N,GND*%
X50119200Y-44112500D03*
%TO.P,U4,6,GND*%
X50619200Y-44112500D03*
%TO.P,U4,5,VDDIO*%
%TO.N,+3.3V*%
X51119200Y-44112500D03*
D27*
%TO.P,U4,4,INT1/INT*%
%TO.N,/IMU/INT1*%
X51881700Y-44375000D03*
%TO.P,U4,3,RESV*%
%TO.N,unconnected-(U4-RESV-Pad3)*%
X51881700Y-44875000D03*
%TO.P,U4,2,RESV*%
%TO.N,unconnected-(U4-RESV-Pad2)*%
X51881700Y-45375000D03*
%TO.P,U4,1,AP_SDO/AP_AD0*%
%TO.N,/IMU/SDO*%
X51881700Y-45875000D03*
%TD*%
D28*
%TO.P,C9,2*%
%TO.N,GND*%
X54200000Y-44000000D03*
%TO.P,C9,1*%
%TO.N,+3.3V*%
X54200000Y-42100000D03*
%TD*%
D21*
%TO.P,C2,2*%
%TO.N,GND*%
X76325000Y-42525000D03*
%TO.P,C2,1*%
%TO.N,Net-(U2-EN)*%
X74425000Y-42525000D03*
%TD*%
D29*
%TO.P,U2,41,GND*%
%TO.N,GND*%
X50024000Y-58491000D03*
D30*
%TO.P,U2,40,GND*%
X42304000Y-48241000D03*
%TO.P,U2,39,GPIO1/TOUCH1/ADC1_CH0*%
%TO.N,/IMU/INT1*%
X43574000Y-48241000D03*
%TO.P,U2,38,GPIO2/TOUCH2/ADC1_CH1*%
%TO.N,/IMU/INT2*%
X44844000Y-48241000D03*
%TO.P,U2,37,U0TXD/GPIO43/CLK_OUT1*%
%TO.N,Net-(J13-Pin_2)*%
X46114000Y-48241000D03*
%TO.P,U2,36,U0RXD/GPIO44/CLK_OUT2*%
%TO.N,Net-(J13-Pin_3)*%
X47384000Y-48241000D03*
%TO.P,U2,35,GPIO42_MTMS*%
%TO.N,/IMU/SCS*%
X48654000Y-48241000D03*
%TO.P,U2,34,GPIO41_MTDI*%
%TO.N,/IMU/SDO*%
X49924000Y-48241000D03*
%TO.P,U2,33,GPIO40_MTDO*%
%TO.N,/IMU/SDI*%
X51194000Y-48241000D03*
%TO.P,U2,32,GPIO39_MTCK*%
%TO.N,/IMU/SCLK*%
X52464000Y-48241000D03*
%TO.P,U2,31,GPIO38_MOTOR1*%
%TO.N,/MOTOR1*%
X53734000Y-48241000D03*
%TO.P,U2,30,GPIO37_MOTOR2*%
%TO.N,/MOTOR2*%
X55004000Y-48241000D03*
%TO.P,U2,29,GPIO36_MOTOR3*%
%TO.N,/MOTOR3*%
X56274000Y-48241000D03*
%TO.P,U2,28,GPIO35_MOTOR4*%
%TO.N,/MOTOR4*%
X57544000Y-48241000D03*
%TO.P,U2,27,GPIO0/BOOT*%
%TO.N,Net-(U2-GPIO0{slash}BOOT)*%
X58814000Y-48241000D03*
D31*
%TO.P,U2,26,GPIO45_MOTOR5*%
%TO.N,/MOTOR5*%
X60064000Y-50006000D03*
%TO.P,U2,25,GPIO48/SPICLK_N/SUBSPICLK_N_DIFF*%
%TO.N,unconnected-(U2-GPIO48{slash}SPICLK_N{slash}SUBSPICLK_N_DIFF-Pad25)*%
X60064000Y-51276000D03*
%TO.P,U2,24,GPIO47/SPICLK_P/SUBSPICLK_P_DIFF*%
%TO.N,unconnected-(U2-GPIO47{slash}SPICLK_P{slash}SUBSPICLK_P_DIFF-Pad24)*%
X60064000Y-52546000D03*
%TO.P,U2,23,GPIO21*%
%TO.N,Net-(D2-A)*%
X60064000Y-53816000D03*
%TO.P,U2,22,GPIO14_LIGHT_IN*%
%TO.N,/Light Sensor/2OUT*%
X60064000Y-55086000D03*
%TO.P,U2,21,GPIO13_HALL5C*%
%TO.N,/HALL5C*%
X60064000Y-56356000D03*
%TO.P,U2,20,GPIO12_HALL5B*%
%TO.N,/HALL5B*%
X60064000Y-57626000D03*
%TO.P,U2,19,GPIO11_HALL5A*%
%TO.N,/HALL5A*%
X60064000Y-58896000D03*
%TO.P,U2,18,GPIO10_HALL4C*%
%TO.N,/HALL4C*%
X60064000Y-60166000D03*
%TO.P,U2,17,GPIO9_HALL4B*%
%TO.N,/HALL4B*%
X60064000Y-61436000D03*
%TO.P,U2,16,GPIO46*%
%TO.N,Net-(J13-Pin_4)*%
X60064000Y-62706000D03*
%TO.P,U2,15,GPIO3_HALL4A*%
%TO.N,/HALL4A*%
X60064000Y-63976000D03*
D30*
%TO.P,U2,14,GPIO20_USB_D+*%
%TO.N,/MCU/USB_P*%
X58814000Y-65741000D03*
%TO.P,U2,13,GPIO19_USB_D-*%
%TO.N,/MCU/USB_N*%
X57544000Y-65741000D03*
%TO.P,U2,12,GPIO8_HALL3C*%
%TO.N,/HALL3C*%
X56274000Y-65741000D03*
%TO.P,U2,11,GPIO18_HALL3B*%
%TO.N,/HALL3B*%
X55004000Y-65741000D03*
%TO.P,U2,10,GPIO17_HALL3A*%
%TO.N,/HALL3A*%
X53734000Y-65741000D03*
%TO.P,U2,9,GPIO16_HALL2C*%
%TO.N,/HALL2C*%
X52464000Y-65741000D03*
%TO.P,U2,8,GPIO15_HALL2B*%
%TO.N,/HALL2B*%
X51194000Y-65741000D03*
%TO.P,U2,7,GPIO7_HALL2A*%
%TO.N,/HALL2A*%
X49924000Y-65741000D03*
%TO.P,U2,6,GPIO6_HALL1C*%
%TO.N,/HALL1C*%
X48654000Y-65741000D03*
%TO.P,U2,5,GPIO5_HALL1B*%
%TO.N,/HALL1B*%
X47384000Y-65741000D03*
%TO.P,U2,4,GPIO4_HALL1A*%
%TO.N,/HALL1A*%
X46114000Y-65741000D03*
%TO.P,U2,3,EN*%
%TO.N,Net-(U2-EN)*%
X44844000Y-65741000D03*
%TO.P,U2,2,3V3*%
%TO.N,+3.3V*%
X43574000Y-65741000D03*
%TO.P,U2,1,GND*%
%TO.N,GND*%
X42304000Y-65741000D03*
%TD*%
D32*
%TO.P,D6,K*%
%TO.N,/Light Sensor/1IN-*%
X81400296Y-45405000D03*
D11*
%TO.P,D6,A*%
%TO.N,GND*%
X83600000Y-46675000D03*
%TD*%
D33*
%TO.P,D3,2,A*%
%TO.N,+3.3V*%
X71937500Y-59075000D03*
%TO.P,D3,1,K*%
%TO.N,Net-(D3-K)*%
X73812500Y-59075000D03*
%TD*%
D34*
%TO.P,RESET1,2,2*%
%TO.N,Net-(U2-EN)*%
X75425000Y-39775000D03*
X75425000Y-34015000D03*
%TO.P,RESET1,1,1*%
%TO.N,GND*%
X79425000Y-39775000D03*
X79425000Y-34015000D03*
%TD*%
D12*
%TO.P,C4,2*%
%TO.N,GND*%
X67847400Y-58075000D03*
%TO.P,C4,1*%
%TO.N,+3.3V*%
X69747400Y-58075000D03*
%TD*%
D13*
%TO.P,J8,3,Pin_3*%
%TO.N,GND*%
X54025998Y-34366000D03*
%TO.P,J8,2,Pin_2*%
%TO.N,/MOTOR2*%
X54025998Y-36906000D03*
D14*
%TO.P,J8,1,Pin_1*%
%TO.N,+5V*%
X54025998Y-39446000D03*
%TD*%
D13*
%TO.P,J1,4,Pin_4*%
%TO.N,GND*%
X46675000Y-34375000D03*
%TO.P,J1,3,Pin_3*%
%TO.N,/IMU/SCLK*%
X46675000Y-36915000D03*
%TO.P,J1,2,Pin_2*%
%TO.N,/IMU/SDO*%
X46675000Y-39455000D03*
D14*
%TO.P,J1,1,Pin_1*%
%TO.N,+3.3V*%
X46675000Y-41995000D03*
%TD*%
D12*
%TO.P,C7,2*%
%TO.N,GND*%
X41980000Y-70100000D03*
%TO.P,C7,1*%
%TO.N,+3.3V*%
X43880000Y-70100000D03*
%TD*%
D13*
%TO.P,J13,5,Pin_5*%
%TO.N,GND*%
X43075000Y-35135000D03*
%TO.P,J13,4,Pin_4*%
%TO.N,Net-(J13-Pin_4)*%
X43075000Y-37675000D03*
%TO.P,J13,3,Pin_3*%
%TO.N,Net-(J13-Pin_3)*%
X43075000Y-40215000D03*
%TO.P,J13,2,Pin_2*%
%TO.N,Net-(J13-Pin_2)*%
X43075000Y-42755000D03*
D14*
%TO.P,J13,1,Pin_1*%
%TO.N,+3.3V*%
X43075000Y-45295000D03*
%TD*%
D24*
%TO.P,J2,MP*%
%TO.N,N/C*%
X42275000Y-77155000D03*
X48875000Y-77155000D03*
D25*
%TO.P,J2,5,Pin_5*%
%TO.N,+3.3V*%
X43575000Y-74630000D03*
%TO.P,J2,4,Pin_4*%
%TO.N,/HALL1A*%
X44575000Y-74630000D03*
%TO.P,J2,3,Pin_3*%
%TO.N,/HALL1B*%
X45575000Y-74630000D03*
%TO.P,J2,2,Pin_2*%
%TO.N,/HALL1C*%
X46575000Y-74630000D03*
%TO.P,J2,1,Pin_1*%
%TO.N,GND*%
X47575000Y-74630000D03*
%TD*%
D13*
%TO.P,J7,3,Pin_3*%
%TO.N,GND*%
X50292332Y-34366000D03*
%TO.P,J7,2,Pin_2*%
%TO.N,/MOTOR1*%
X50292332Y-36906000D03*
D14*
%TO.P,J7,1,Pin_1*%
%TO.N,+5V*%
X50292332Y-39446000D03*
%TD*%
D35*
%TO.P,R5,2*%
%TO.N,/Light Sensor/2IN-*%
X64525000Y-48212500D03*
%TO.P,R5,1*%
%TO.N,/Light Sensor/2OUT*%
X64525000Y-50037500D03*
%TD*%
%TO.P,R2,2*%
%TO.N,GND*%
X62475000Y-48246300D03*
%TO.P,R2,1*%
%TO.N,Net-(D2-K)*%
X62475000Y-50071300D03*
%TD*%
D36*
%TO.P,D4,K*%
%TO.N,/Light Sensor/1IN-*%
X76775000Y-50632500D03*
D11*
%TO.P,D4,A*%
%TO.N,GND*%
X76775000Y-48092500D03*
%TD*%
D37*
%TO.P,R6,2*%
%TO.N,Net-(U5-1OUT)*%
X73287500Y-52975000D03*
%TO.P,R6,1*%
%TO.N,/Light Sensor/1IN-*%
X75112500Y-52975000D03*
%TD*%
D24*
%TO.P,J4,MP*%
%TO.N,N/C*%
X60075000Y-77150000D03*
X66675000Y-77150000D03*
D25*
%TO.P,J4,5,Pin_5*%
%TO.N,+3.3V*%
X61375000Y-74625000D03*
%TO.P,J4,4,Pin_4*%
%TO.N,/HALL3A*%
X62375000Y-74625000D03*
%TO.P,J4,3,Pin_3*%
%TO.N,/HALL3B*%
X63375000Y-74625000D03*
%TO.P,J4,2,Pin_2*%
%TO.N,/HALL3C*%
X64375000Y-74625000D03*
%TO.P,J4,1,Pin_1*%
%TO.N,GND*%
X65375000Y-74625000D03*
%TD*%
D34*
%TO.P,BOOT1,2,2*%
%TO.N,GND*%
X72681800Y-34036400D03*
X72681800Y-39796400D03*
%TO.P,BOOT1,1,1*%
%TO.N,Net-(U2-GPIO0{slash}BOOT)*%
X68681800Y-34036400D03*
X68681800Y-39796400D03*
%TD*%
D28*
%TO.P,C10,2*%
%TO.N,GND*%
X72130000Y-62861000D03*
%TO.P,C10,1*%
%TO.N,+3.3V*%
X72130000Y-60961000D03*
%TD*%
D12*
%TO.P,C12,2*%
%TO.N,Net-(U5-1OUT)*%
X73250000Y-54975000D03*
%TO.P,C12,1*%
%TO.N,/Light Sensor/1IN-*%
X75150000Y-54975000D03*
%TD*%
D38*
%TO.P,U5,8,VDD+*%
%TO.N,+3.3V*%
X66780000Y-51205000D03*
%TO.P,U5,7,2OUT*%
%TO.N,/Light Sensor/2OUT*%
X66780000Y-49935000D03*
%TO.P,U5,6,2IN-*%
%TO.N,/Light Sensor/2IN-*%
X66780000Y-48665000D03*
%TO.P,U5,5,2IN+*%
%TO.N,/Light Sensor/2IN+*%
X66780000Y-47395000D03*
%TO.P,U5,4,GND*%
%TO.N,GND*%
X71720000Y-47395000D03*
%TO.P,U5,3,1IN+*%
X71720000Y-48665000D03*
%TO.P,U5,2,1IN-*%
%TO.N,/Light Sensor/1IN-*%
X71720000Y-49935000D03*
%TO.P,U5,1,1OUT*%
%TO.N,Net-(U5-1OUT)*%
X71720000Y-51205000D03*
%TD*%
D37*
%TO.P,R7,2*%
%TO.N,/Light Sensor/2IN+*%
X67612500Y-44725000D03*
%TO.P,R7,1*%
%TO.N,GND*%
X69437500Y-44725000D03*
%TD*%
D17*
%TO.P,R3,2*%
%TO.N,GND*%
X74175000Y-62825000D03*
%TO.P,R3,1*%
%TO.N,Net-(D3-K)*%
X74175000Y-61000000D03*
%TD*%
D39*
%TO.P,J12,2,Pin_2*%
%TO.N,+5V*%
X72400000Y-67025000D03*
D40*
%TO.P,J12,1,Pin_1*%
%TO.N,GND*%
X77400000Y-67025000D03*
D41*
%TO.P,J12,*%
%TO.N,*%
X80400000Y-77025000D03*
X69400000Y-77025000D03*
%TD*%
D42*
%TO.N,GND*%
X83289000Y-72765000D03*
X83289000Y-70225000D03*
X83289000Y-67685000D03*
X83289000Y-65145000D03*
X83289000Y-62605000D03*
X83289000Y-60065000D03*
X83289000Y-57525000D03*
X83289000Y-54985000D03*
X83289000Y-49905000D03*
X83289000Y-39745000D03*
X83289000Y-37205000D03*
X83289000Y-34665000D03*
X80749000Y-75305000D03*
X80749000Y-72765000D03*
X80749000Y-70225000D03*
X80749000Y-67685000D03*
X80749000Y-65145000D03*
X80749000Y-62605000D03*
X80749000Y-60065000D03*
X80749000Y-57525000D03*
X80749000Y-54985000D03*
X80749000Y-39745000D03*
X80749000Y-37205000D03*
X80749000Y-34665000D03*
X78209000Y-75305000D03*
X78209000Y-72765000D03*
X78209000Y-70225000D03*
X78209000Y-62605000D03*
X78209000Y-60065000D03*
X78209000Y-57525000D03*
X78209000Y-54985000D03*
X78209000Y-52445000D03*
X78209000Y-47365000D03*
X78209000Y-37205000D03*
X75669000Y-75305000D03*
X75669000Y-72765000D03*
X75669000Y-70225000D03*
X75669000Y-57525000D03*
X73129000Y-75305000D03*
X73129000Y-72765000D03*
X70589000Y-75305000D03*
X70589000Y-72765000D03*
X60429000Y-42285000D03*
X57889000Y-60065000D03*
X57889000Y-57525000D03*
X57889000Y-54985000D03*
X57889000Y-52445000D03*
X57889000Y-49905000D03*
X55349000Y-60065000D03*
X55349000Y-57525000D03*
X55349000Y-54985000D03*
X55349000Y-52445000D03*
X55349000Y-49905000D03*
X52809000Y-54985000D03*
X52809000Y-52445000D03*
X52809000Y-49905000D03*
X50269000Y-54985000D03*
X50269000Y-52445000D03*
X50269000Y-49905000D03*
X47729000Y-54985000D03*
X47729000Y-52445000D03*
X45189000Y-52445000D03*
X69088000Y-49276000D03*
X50710000Y-59820000D03*
X51420000Y-58970000D03*
X65151000Y-60198000D03*
X69088000Y-50800000D03*
X51520000Y-57020000D03*
X41925000Y-60525000D03*
X50090000Y-57030000D03*
X80137000Y-43942000D03*
X58725000Y-45050000D03*
X66075000Y-43925000D03*
X83566000Y-43942000D03*
X48530000Y-58990000D03*
X45325000Y-56325000D03*
X49200331Y-41910331D03*
X50419000Y-74041000D03*
X68707000Y-46482000D03*
X66548000Y-58166000D03*
X65786000Y-52578000D03*
X62992000Y-56261000D03*
X57675000Y-74575000D03*
X48630000Y-57040000D03*
X61825000Y-46750000D03*
X67675000Y-61225000D03*
X69088000Y-47879000D03*
X50038000Y-68707000D03*
X54050000Y-46200000D03*
X41925000Y-56325000D03*
X76327000Y-45720000D03*
X62500000Y-66125000D03*
X70612000Y-33782000D03*
X62800000Y-45750000D03*
X68326000Y-68453000D03*
X65786000Y-54483000D03*
X65024000Y-58166000D03*
X45325000Y-60525000D03*
X68300000Y-65550000D03*
X41656000Y-71755000D03*
X41925000Y-58525000D03*
X48975000Y-72675000D03*
X41925000Y-62925000D03*
X59175000Y-74575000D03*
X50810000Y-57870000D03*
X50038000Y-70993000D03*
X54050000Y-45225000D03*
X68300000Y-67100000D03*
X49300000Y-59860000D03*
X49170000Y-42790000D03*
X41670000Y-72898000D03*
X51599098Y-70143694D03*
X65675000Y-73325000D03*
X41910000Y-64389000D03*
X72644000Y-36576000D03*
X49990000Y-58980000D03*
X78232000Y-43942000D03*
X49400000Y-57910000D03*
X69225000Y-61400000D03*
X45325000Y-58525000D03*
%TO.N,Net-(U2-GPIO0{slash}BOOT)*%
X65225000Y-42525000D03*
X62325000Y-43725000D03*
%TO.N,+5V*%
X71225000Y-64225000D03*
X72175000Y-64225000D03*
X73125000Y-64225000D03*
%TO.N,Net-(U2-EN)*%
X84050000Y-42550000D03*
X45325000Y-71525000D03*
D43*
%TO.N,/IMU/SCLK*%
X52325000Y-47125000D03*
X50094202Y-45352873D03*
%TO.N,/IMU/SDO*%
X51925000Y-46325000D03*
X51057538Y-46942464D03*
D42*
%TO.N,Net-(J13-Pin_3)*%
X47225000Y-49925000D03*
%TO.N,Net-(J13-Pin_4)*%
X42475000Y-53950000D03*
%TO.N,Net-(J13-Pin_2)*%
X45825000Y-49625000D03*
%TO.N,/MCU/USB_N*%
X57600000Y-67575000D03*
%TO.N,/MCU/USB_P*%
X58650000Y-67575000D03*
D43*
%TO.N,/IMU/INT1*%
X52525000Y-44325000D03*
X44083400Y-46629200D03*
%TD*%
D44*
%TO.N,GND*%
X68575000Y-61300000D02*
X68675000Y-61400000D01*
X69775000Y-61400000D02*
X70669000Y-61400000D01*
X68387500Y-60512500D02*
X67675000Y-61225000D01*
X68575000Y-60512500D02*
X68387500Y-60512500D01*
X69225000Y-62287500D02*
X69225000Y-61400000D01*
X70669000Y-61400000D02*
X72130000Y-62861000D01*
X68575000Y-60512500D02*
X68575000Y-61300000D01*
%TO.N,Net-(U2-GPIO0{slash}BOOT)*%
X67617800Y-40860400D02*
X68681800Y-39796400D01*
X58814000Y-47236000D02*
X62325000Y-43725000D01*
X67617800Y-42525000D02*
X67617800Y-40860400D01*
X65225000Y-42525000D02*
X67617800Y-42525000D01*
X58814000Y-48241000D02*
X58814000Y-47236000D01*
X68681800Y-34036400D02*
X68681800Y-39796400D01*
%TO.N,Net-(U2-EN)*%
X78200000Y-42550000D02*
X75425000Y-39775000D01*
X44844000Y-65741000D02*
X44844000Y-71044000D01*
X74425000Y-42525000D02*
X74425000Y-40775000D01*
X44844000Y-71044000D02*
X45325000Y-71525000D01*
X75425000Y-34015000D02*
X75144000Y-34296000D01*
X74425000Y-40775000D02*
X75425000Y-39775000D01*
X84050000Y-42550000D02*
X78200000Y-42550000D01*
X75144000Y-39494000D02*
X75425000Y-39775000D01*
X75144000Y-34296000D02*
X75144000Y-39494000D01*
X72883900Y-42525000D02*
X74425000Y-42525000D01*
D45*
%TO.N,+3.3V*%
X66975000Y-67075000D02*
X66975000Y-66150000D01*
X53059888Y-75880000D02*
X56890112Y-75880000D01*
X43575000Y-75404999D02*
X43575000Y-74630000D01*
X67877082Y-59575000D02*
X68675000Y-59575000D01*
D46*
X41340000Y-54080000D02*
X43360000Y-56100000D01*
D47*
X46600000Y-45950000D02*
X43730000Y-45950000D01*
D44*
X69152450Y-52069786D02*
X69152450Y-55397250D01*
D45*
X60545000Y-75455000D02*
X61375000Y-74625000D01*
D47*
X42850000Y-45325000D02*
X42825000Y-45300000D01*
D45*
X66975000Y-62428122D02*
X66321878Y-61775000D01*
X65025000Y-61775000D02*
X65677082Y-61775000D01*
D47*
X52375000Y-41175000D02*
X52125000Y-40925000D01*
D45*
X65790112Y-75880000D02*
X67002400Y-74667712D01*
D44*
X69447100Y-55992200D02*
X69747400Y-55992200D01*
X66780000Y-53325100D02*
X69447100Y-55992200D01*
D47*
X47675000Y-44875000D02*
X48175000Y-44375000D01*
D45*
X67002400Y-74667712D02*
X67002400Y-67102400D01*
D47*
X47675000Y-43764200D02*
X47675000Y-44875000D01*
D45*
X56890112Y-75880000D02*
X57315112Y-75455000D01*
X66975000Y-66150000D02*
X66975000Y-62428122D01*
X66975000Y-67678599D02*
X66975000Y-66150000D01*
D46*
X41340000Y-46807000D02*
X42636000Y-45511000D01*
D47*
X48140000Y-41910000D02*
X48140000Y-43299200D01*
D44*
X66780000Y-51205000D02*
X66780000Y-53325100D01*
D45*
X61959888Y-75880000D02*
X65790112Y-75880000D01*
X47990112Y-75885000D02*
X44055001Y-75885000D01*
X68675000Y-59575000D02*
X69675000Y-59575000D01*
D47*
X53075000Y-42325000D02*
X52375000Y-42325000D01*
X49125000Y-40925000D02*
X48140000Y-41910000D01*
D45*
X44055001Y-75885000D02*
X43575000Y-75404999D01*
D44*
X69925000Y-45770100D02*
X69925000Y-51297236D01*
X69152450Y-55397250D02*
X69747400Y-55992200D01*
D47*
X47675000Y-44875000D02*
X46600000Y-45950000D01*
D45*
X52475000Y-74625000D02*
X52475000Y-75295112D01*
X61375000Y-74625000D02*
X61375000Y-75295112D01*
D47*
X52375000Y-41175000D02*
X53300000Y-42100000D01*
D45*
X57315112Y-75455000D02*
X60545000Y-75455000D01*
X52475000Y-75295112D02*
X53059888Y-75880000D01*
X63097400Y-70781200D02*
X63872399Y-70781200D01*
D47*
X48140000Y-43299200D02*
X47675000Y-43764200D01*
D45*
X65025000Y-61775000D02*
X63100000Y-61775000D01*
D44*
X70342800Y-43241100D02*
X70342800Y-45352300D01*
D45*
X67002400Y-67102400D02*
X66975000Y-67075000D01*
D47*
X43730000Y-45950000D02*
X43075000Y-45295000D01*
X53300000Y-42100000D02*
X54200000Y-42100000D01*
D46*
X41340000Y-46807000D02*
X41340000Y-54080000D01*
D45*
X52475000Y-74625000D02*
X51579888Y-75520112D01*
X66321878Y-61775000D02*
X65677082Y-61775000D01*
D47*
X43360000Y-56100000D02*
X43360000Y-65527000D01*
D45*
X51579888Y-75520112D02*
X48355000Y-75520112D01*
D47*
X47675000Y-44875000D02*
X47675000Y-42995000D01*
D44*
X70342800Y-45352300D02*
X69925000Y-45770100D01*
D47*
X52375000Y-42525000D02*
X52375000Y-41175000D01*
D45*
X48355000Y-75520112D02*
X47990112Y-75885000D01*
D44*
X69925000Y-51297236D02*
X69152450Y-52069786D01*
D47*
X53300000Y-42100000D02*
X53075000Y-42325000D01*
D45*
X61375000Y-75295112D02*
X61959888Y-75880000D01*
D44*
X71058900Y-42525000D02*
X70342800Y-43241100D01*
D47*
X52125000Y-40925000D02*
X49125000Y-40925000D01*
X48175000Y-44375000D02*
X49356700Y-44375000D01*
D45*
X63872399Y-70781200D02*
X66975000Y-67678599D01*
D44*
X43574000Y-65161000D02*
X43574000Y-65741000D01*
D47*
X52375000Y-42325000D02*
X51119200Y-43580800D01*
X43360000Y-65527000D02*
X43574000Y-65741000D01*
D45*
X65677082Y-61775000D02*
X67877082Y-59575000D01*
D47*
X47675000Y-42995000D02*
X46675000Y-41995000D01*
X51119200Y-43580800D02*
X51119200Y-44112500D01*
D44*
%TO.N,Net-(D2-A)*%
X60064000Y-53816000D02*
X62284000Y-53816000D01*
X62284000Y-53816000D02*
X62475000Y-53625000D01*
%TO.N,Net-(D2-K)*%
X62475000Y-50071300D02*
X62475000Y-51750000D01*
%TO.N,Net-(D3-K)*%
X73812500Y-59075000D02*
X73812500Y-60637500D01*
X73812500Y-60637500D02*
X74175000Y-61000000D01*
%TO.N,/HALL1A*%
X46114000Y-72316001D02*
X46114000Y-65741000D01*
X44575000Y-74630000D02*
X44575000Y-73855001D01*
X44575000Y-73855001D02*
X46114000Y-72316001D01*
%TO.N,/HALL1C*%
X46575000Y-73127793D02*
X48654000Y-71048793D01*
X48654000Y-71048793D02*
X48654000Y-65741000D01*
X46575000Y-74630000D02*
X46575000Y-73127793D01*
%TO.N,/HALL1B*%
X45575000Y-74630000D02*
X45575000Y-73491397D01*
X45575000Y-73491397D02*
X47384000Y-71682397D01*
X47384000Y-71682397D02*
X47384000Y-65741000D01*
%TO.N,/HALL2C*%
X55465000Y-73904949D02*
X55960000Y-73409949D01*
X52464000Y-66339000D02*
X52464000Y-65741000D01*
X55960000Y-73409949D02*
X55960000Y-69835000D01*
X55960000Y-69835000D02*
X52464000Y-66339000D01*
X55465000Y-74625000D02*
X55465000Y-73904949D01*
%TO.N,/HALL2B*%
X51194000Y-66321000D02*
X51194000Y-65741000D01*
X54465000Y-69592000D02*
X51194000Y-66321000D01*
X54465000Y-74625000D02*
X54465000Y-69592000D01*
%TO.N,/HALL2A*%
X53465000Y-69862000D02*
X49924000Y-66321000D01*
X49924000Y-66321000D02*
X49924000Y-65741000D01*
X53465000Y-74625000D02*
X53465000Y-69862000D01*
%TO.N,/HALL3A*%
X59413000Y-72420000D02*
X61595000Y-72420000D01*
X61595000Y-72420000D02*
X62375000Y-73200000D01*
X62375000Y-73200000D02*
X62375000Y-74625000D01*
X53734000Y-65741000D02*
X53734000Y-66741000D01*
X53734000Y-66741000D02*
X59413000Y-72420000D01*
%TO.N,/HALL3C*%
X61995000Y-71520000D02*
X64375000Y-73900000D01*
X64375000Y-73900000D02*
X64375000Y-74625000D01*
X60519695Y-71520000D02*
X61995000Y-71520000D01*
X56274000Y-67274305D02*
X60519695Y-71520000D01*
X56274000Y-65741000D02*
X56274000Y-67274305D01*
%TO.N,/HALL3B*%
X55004000Y-66741000D02*
X60233000Y-71970000D01*
X60233000Y-71970000D02*
X61795000Y-71970000D01*
X55004000Y-65741000D02*
X55004000Y-66741000D01*
X63375000Y-73550000D02*
X63375000Y-74625000D01*
X61795000Y-71970000D02*
X63375000Y-73550000D01*
%TO.N,/HALL4A*%
X60064000Y-67522799D02*
X62322401Y-69781200D01*
X62322401Y-69781200D02*
X63097400Y-69781200D01*
X60064000Y-63976000D02*
X60064000Y-67522799D01*
%TO.N,/HALL4B*%
X61064000Y-61436000D02*
X61550000Y-61922000D01*
X61550000Y-67684708D02*
X62646492Y-68781200D01*
X61550000Y-61922000D02*
X61550000Y-67684708D01*
X60064000Y-61436000D02*
X61064000Y-61436000D01*
X62646492Y-68781200D02*
X63097400Y-68781200D01*
%TO.N,/HALL4C*%
X63872399Y-67781200D02*
X63097400Y-67781200D01*
X61064000Y-60166000D02*
X62000000Y-61102000D01*
X64225000Y-66425000D02*
X64225000Y-67428599D01*
X60064000Y-60166000D02*
X61064000Y-60166000D01*
X62000000Y-64200000D02*
X64225000Y-66425000D01*
X64225000Y-67428599D02*
X63872399Y-67781200D01*
X62000000Y-61102000D02*
X62000000Y-64200000D01*
%TO.N,/HALL5A*%
X60064000Y-58896000D02*
X60644000Y-58896000D01*
X60644000Y-58896000D02*
X62523000Y-60775000D01*
X62523000Y-60775000D02*
X63100000Y-60775000D01*
%TO.N,/HALL5C*%
X60064000Y-56356000D02*
X60644000Y-56356000D01*
X62425000Y-58775000D02*
X63100000Y-58775000D01*
X62000000Y-58350000D02*
X62425000Y-58775000D01*
X60644000Y-56356000D02*
X62000000Y-57712000D01*
X62000000Y-57712000D02*
X62000000Y-58350000D01*
%TO.N,/HALL5B*%
X60500092Y-57626000D02*
X62649092Y-59775000D01*
X62649092Y-59775000D02*
X63100000Y-59775000D01*
X60064000Y-57626000D02*
X60500092Y-57626000D01*
%TO.N,/IMU/SCLK*%
X50094202Y-45352873D02*
X50347073Y-45352873D01*
X52464000Y-48241000D02*
X52464000Y-47264000D01*
X50619200Y-45625000D02*
X50619200Y-46137500D01*
X50347073Y-45352873D02*
X50619200Y-45625000D01*
X52464000Y-47264000D02*
X52325000Y-47125000D01*
%TO.N,/IMU/SDO*%
X49924000Y-48241000D02*
X49924000Y-47926000D01*
X51057538Y-46942464D02*
X50875002Y-47125000D01*
X49924000Y-47661000D02*
X49924000Y-47926000D01*
X49924000Y-47926000D02*
X50325000Y-47525000D01*
X50875002Y-47125000D02*
X50460000Y-47125000D01*
X50460000Y-47125000D02*
X49924000Y-47661000D01*
X51925000Y-45918300D02*
X51881700Y-45875000D01*
X51925000Y-46325000D02*
X51925000Y-45918300D01*
%TO.N,/MOTOR1*%
X54900000Y-41325000D02*
X55200000Y-41625000D01*
X55200000Y-41625000D02*
X55200000Y-46295000D01*
X53654998Y-41325000D02*
X54900000Y-41325000D01*
X50292332Y-36906000D02*
X51417332Y-38031000D01*
X51417332Y-38031000D02*
X51417332Y-39087334D01*
X51417332Y-39087334D02*
X53654998Y-41325000D01*
X55200000Y-46295000D02*
X53734000Y-47761000D01*
X53734000Y-47761000D02*
X53734000Y-48241000D01*
%TO.N,/MOTOR2*%
X55725000Y-47116000D02*
X55004000Y-47837000D01*
X55004000Y-47837000D02*
X55004000Y-48241000D01*
X55725000Y-38829000D02*
X55725000Y-47116000D01*
X53992000Y-36906000D02*
X53992000Y-37096000D01*
X53992000Y-37096000D02*
X55725000Y-38829000D01*
%TO.N,/MOTOR3*%
X57707000Y-36886000D02*
X56274000Y-38319000D01*
X56274000Y-38319000D02*
X56274000Y-48241000D01*
%TO.N,/MOTOR4*%
X57544000Y-41939000D02*
X60282000Y-39201000D01*
X57544000Y-48241000D02*
X57544000Y-41939000D01*
X60282000Y-38076000D02*
X61457000Y-36901000D01*
X60282000Y-39201000D02*
X60282000Y-38076000D01*
%TO.N,/MOTOR5*%
X64052000Y-43023305D02*
X64052000Y-38081000D01*
X60064000Y-47011305D02*
X64052000Y-43023305D01*
X60064000Y-50006000D02*
X60064000Y-47011305D01*
X64052000Y-38081000D02*
X65227000Y-36906000D01*
%TO.N,Net-(J13-Pin_3)*%
X47384000Y-48241000D02*
X47384000Y-49766000D01*
X47225000Y-49925000D02*
X47325000Y-49825000D01*
X47384000Y-49766000D02*
X47225000Y-49925000D01*
%TO.N,Net-(J13-Pin_4)*%
X43885000Y-55360000D02*
X42475000Y-53950000D01*
X43885000Y-61085000D02*
X43885000Y-55360000D01*
X60064000Y-62706000D02*
X45506000Y-62706000D01*
X45506000Y-62706000D02*
X43885000Y-61085000D01*
%TO.N,Net-(J13-Pin_2)*%
X45925000Y-49625000D02*
X45825000Y-49625000D01*
X45825000Y-49625000D02*
X45825000Y-49725000D01*
X46114000Y-49436000D02*
X45925000Y-49625000D01*
X46114000Y-48241000D02*
X46114000Y-49436000D01*
X45825000Y-49725000D02*
X45925000Y-49625000D01*
D48*
%TO.N,/MCU/USB_N*%
X57600000Y-66193000D02*
X57600000Y-67575000D01*
%TO.N,/MCU/USB_P*%
X58663000Y-65892000D02*
X58663000Y-67562000D01*
X58663000Y-67562000D02*
X58650000Y-67575000D01*
D44*
%TO.N,/IMU/SDI*%
X51684002Y-47750998D02*
X51684002Y-46826465D01*
X51119200Y-46261663D02*
X51119200Y-46137500D01*
X51194000Y-48241000D02*
X51684002Y-47750998D01*
X51684002Y-46826465D02*
X51119200Y-46261663D01*
%TO.N,/IMU/SCS*%
X48654000Y-47602700D02*
X48654000Y-48241000D01*
X50119200Y-46137500D02*
X48654000Y-47602700D01*
%TO.N,/IMU/INT1*%
X44083400Y-46629200D02*
X43574000Y-47138600D01*
X43574000Y-47138600D02*
X43574000Y-48241000D01*
X52525000Y-44325000D02*
X51931700Y-44325000D01*
X51931700Y-44325000D02*
X51881700Y-44375000D01*
%TO.N,/IMU/INT2*%
X48744200Y-45580800D02*
X47159000Y-47166000D01*
X48744200Y-44975000D02*
X48744200Y-45580800D01*
X45284000Y-47166000D02*
X44844000Y-47606000D01*
X49356700Y-44875000D02*
X48844200Y-44875000D01*
X44844000Y-47606000D02*
X44844000Y-48241000D01*
X47159000Y-47166000D02*
X45284000Y-47166000D01*
X48844200Y-44875000D02*
X48744200Y-44975000D01*
%TO.N,Net-(U5-1OUT)*%
X71720000Y-51205000D02*
X70025000Y-52900000D01*
X73287500Y-52975000D02*
X73287500Y-52772500D01*
X73287500Y-52975000D02*
X73287500Y-54937500D01*
X73287500Y-52772500D02*
X71720000Y-51205000D01*
X73287500Y-54937500D02*
X73250000Y-54975000D01*
%TO.N,/Light Sensor/1IN-*%
X76275000Y-50632500D02*
X75577500Y-49935000D01*
X75112500Y-52975000D02*
X75112500Y-52295000D01*
X75112500Y-52975000D02*
X75112500Y-54937500D01*
X75112500Y-52295000D02*
X76775000Y-50632500D01*
X75577500Y-49935000D02*
X71720000Y-49935000D01*
X75112500Y-54937500D02*
X75150000Y-54975000D01*
X80108092Y-50632500D02*
X76275000Y-50632500D01*
X80900296Y-49840296D02*
X83100000Y-52040000D01*
X80900296Y-45405000D02*
X80900296Y-49840296D01*
X80900296Y-49840296D02*
X80108092Y-50632500D01*
D49*
%TO.N,/Light Sensor/2IN+*%
X67612500Y-46562500D02*
X67612500Y-44725000D01*
X68125000Y-47755001D02*
X68125000Y-53125000D01*
X66780000Y-47395000D02*
X67612500Y-46562500D01*
X67764999Y-47395000D02*
X68125000Y-47755001D01*
X66780000Y-47395000D02*
X67764999Y-47395000D01*
%TO.N,/Light Sensor/2IN-*%
X64525000Y-48212500D02*
X64525000Y-46525000D01*
X65065000Y-48665000D02*
X66780000Y-48665000D01*
X64525000Y-48212500D02*
X64612500Y-48212500D01*
X64612500Y-48212500D02*
X65065000Y-48665000D01*
D44*
%TO.N,/Light Sensor/2OUT*%
X64757000Y-54265988D02*
X64757000Y-51493000D01*
X66315000Y-49935000D02*
X66780000Y-49935000D01*
X64627500Y-49935000D02*
X64525000Y-50037500D01*
X66780000Y-49935000D02*
X64627500Y-49935000D01*
X63936988Y-55086000D02*
X64757000Y-54265988D01*
X60064000Y-55086000D02*
X63936988Y-55086000D01*
X64757000Y-51493000D02*
X66315000Y-49935000D01*
%TD*%
%TA.AperFunction,Conductor*%
%TO.N,GND*%
G36*
X51674500Y-42375500D02*
G01*
X50925000Y-43125000D01*
X50925000Y-43208607D01*
X50798721Y-43334886D01*
X50798720Y-43334886D01*
X50745993Y-43426210D01*
X50744324Y-43432442D01*
X50744323Y-43432441D01*
X50744323Y-43432445D01*
X50718700Y-43528069D01*
X50718700Y-44125000D01*
X49925000Y-44125000D01*
X49925000Y-43125000D01*
X49125000Y-42125000D01*
X51674500Y-42125000D01*
X51674500Y-42375500D01*
G37*
%TD.AperFunction*%
%TD*%
%TA.AperFunction,Conductor*%
%TO.N,+5V*%
G36*
X68160148Y-61839352D02*
G01*
X68174500Y-61874000D01*
X68174500Y-61924677D01*
X68189033Y-61997739D01*
X68244398Y-62080601D01*
X68301425Y-62118704D01*
X68327260Y-62135966D01*
X68400326Y-62150500D01*
X68725500Y-62150500D01*
X68760148Y-62164852D01*
X68774500Y-62199500D01*
X68774500Y-62421586D01*
X68774501Y-62421591D01*
X68781099Y-62471723D01*
X68814552Y-62543463D01*
X68832406Y-62581750D01*
X68832407Y-62581751D01*
X68832408Y-62581753D01*
X68918246Y-62667591D01*
X68918248Y-62667592D01*
X68918250Y-62667594D01*
X69028277Y-62718900D01*
X69078409Y-62725500D01*
X69371590Y-62725499D01*
X69421723Y-62718900D01*
X69531750Y-62667594D01*
X69617594Y-62581750D01*
X69668900Y-62471723D01*
X69675500Y-62421591D01*
X69675499Y-62199499D01*
X69689851Y-62164852D01*
X69724499Y-62150500D01*
X70049674Y-62150500D01*
X70122740Y-62135966D01*
X70205601Y-62080601D01*
X70260966Y-61997740D01*
X70275500Y-61924674D01*
X70275500Y-61874000D01*
X70289852Y-61839352D01*
X70324500Y-61825000D01*
X70542667Y-61825000D01*
X70577315Y-61839352D01*
X70910648Y-62172685D01*
X70925000Y-62207333D01*
X70925000Y-63825000D01*
X74376810Y-63825000D01*
X74411458Y-63839352D01*
X74425803Y-63873183D01*
X74524170Y-69775183D01*
X74510398Y-69810066D01*
X74475994Y-69824993D01*
X74475177Y-69825000D01*
X69573252Y-69825000D01*
X69538604Y-69810648D01*
X69524258Y-69776754D01*
X69425000Y-63325000D01*
X68946973Y-63325000D01*
X68912325Y-63310648D01*
X68898254Y-63281237D01*
X68894092Y-63242521D01*
X68894091Y-63242517D01*
X68843796Y-63107669D01*
X68757546Y-62992454D01*
X68688314Y-62940627D01*
X68642333Y-62906205D01*
X68642331Y-62906204D01*
X68597381Y-62889439D01*
X68507479Y-62855907D01*
X68447879Y-62849500D01*
X67974000Y-62849500D01*
X67939352Y-62835148D01*
X67925000Y-62800500D01*
X67925000Y-61874000D01*
X67939352Y-61839352D01*
X67974000Y-61825000D01*
X68125500Y-61825000D01*
X68160148Y-61839352D01*
G37*
%TD.AperFunction*%
%TD*%
%TA.AperFunction,Conductor*%
%TO.N,+3.3V*%
G36*
X44510648Y-64639352D02*
G01*
X44525000Y-64674000D01*
X44525000Y-64691500D01*
X44510648Y-64726148D01*
X44476000Y-64740500D01*
X44369322Y-64740500D01*
X44296260Y-64755033D01*
X44213398Y-64810398D01*
X44158033Y-64893260D01*
X44143500Y-64966322D01*
X44143500Y-66515677D01*
X44158033Y-66588739D01*
X44213398Y-66671601D01*
X44296260Y-66726966D01*
X44369326Y-66741500D01*
X44419500Y-66741500D01*
X44454148Y-66755852D01*
X44468500Y-66790500D01*
X44468500Y-71093437D01*
X44494089Y-71188936D01*
X44494090Y-71188938D01*
X44518435Y-71231106D01*
X44525000Y-71255604D01*
X44525000Y-73353667D01*
X44510648Y-73388315D01*
X44344438Y-73554526D01*
X44274527Y-73624435D01*
X44272573Y-73626983D01*
X44271751Y-73626353D01*
X44255262Y-73641993D01*
X44186661Y-73676948D01*
X44186654Y-73676953D01*
X44096950Y-73766657D01*
X44096945Y-73766664D01*
X44039355Y-73879690D01*
X44039355Y-73879692D01*
X44024500Y-73973482D01*
X44024500Y-75286517D01*
X44039353Y-75380303D01*
X44096945Y-75493335D01*
X44096950Y-75493342D01*
X44144960Y-75541352D01*
X44159312Y-75576000D01*
X44144960Y-75610648D01*
X44110312Y-75625000D01*
X43074000Y-75625000D01*
X43039352Y-75610648D01*
X43025000Y-75576000D01*
X43025000Y-73525009D01*
X42999501Y-71255604D01*
X42947944Y-66667044D01*
X42956197Y-66639278D01*
X42989966Y-66588740D01*
X43004500Y-66515674D01*
X43004500Y-64966326D01*
X42989966Y-64893260D01*
X42935044Y-64811062D01*
X42926790Y-64784395D01*
X42925557Y-64674550D01*
X42939519Y-64639743D01*
X42974004Y-64625003D01*
X42974554Y-64625000D01*
X44476000Y-64625000D01*
X44510648Y-64639352D01*
G37*
%TD.AperFunction*%
%TD*%
%TA.AperFunction,Conductor*%
%TO.N,+3.3V*%
G36*
X71160648Y-55089352D02*
G01*
X71175000Y-55124000D01*
X71175000Y-58575000D01*
X72901000Y-58575000D01*
X72935648Y-58589352D01*
X72950000Y-58624000D01*
X72950000Y-61776000D01*
X72935648Y-61810648D01*
X72901000Y-61825000D01*
X71503911Y-61825000D01*
X71469263Y-61810648D01*
X70825060Y-61166444D01*
X70723801Y-61124500D01*
X70719067Y-61123559D01*
X70719269Y-61122540D01*
X70689352Y-61110148D01*
X70675000Y-61075500D01*
X70675000Y-60825000D01*
X70182081Y-60825000D01*
X70147433Y-60810648D01*
X70141343Y-60803228D01*
X70133504Y-60791496D01*
X70133501Y-60791494D01*
X70133499Y-60791491D01*
X70083721Y-60758232D01*
X70039823Y-60749500D01*
X70039820Y-60749500D01*
X68961497Y-60749500D01*
X68926849Y-60735148D01*
X68912497Y-60700500D01*
X68913439Y-60690940D01*
X68925499Y-60630308D01*
X68925500Y-60630305D01*
X68925499Y-60394696D01*
X68911328Y-60323448D01*
X68893414Y-60296639D01*
X68857344Y-60242655D01*
X68808912Y-60210294D01*
X68776552Y-60188672D01*
X68705305Y-60174500D01*
X68705302Y-60174500D01*
X68474000Y-60174500D01*
X68439352Y-60160148D01*
X68425000Y-60125500D01*
X68425000Y-58800990D01*
X68430341Y-58778744D01*
X68483044Y-58675307D01*
X68483046Y-58675304D01*
X68497900Y-58581519D01*
X68497899Y-57568482D01*
X68483046Y-57474696D01*
X68430341Y-57371254D01*
X68425000Y-57349009D01*
X68425000Y-56718190D01*
X68430341Y-56695944D01*
X68483044Y-56592507D01*
X68483046Y-56592504D01*
X68497900Y-56498719D01*
X68497899Y-55485682D01*
X68483046Y-55391896D01*
X68430341Y-55288454D01*
X68425000Y-55266209D01*
X68425000Y-55124000D01*
X68439352Y-55089352D01*
X68474000Y-55075000D01*
X71126000Y-55075000D01*
X71160648Y-55089352D01*
G37*
%TD.AperFunction*%
%TD*%
%TA.AperFunction,Conductor*%
%TO.N,GND*%
G36*
X86184191Y-32243907D02*
G01*
X86220155Y-32293407D01*
X86225000Y-32324000D01*
X86225000Y-78125783D01*
X86206093Y-78183974D01*
X86156593Y-78219938D01*
X86125784Y-78224783D01*
X80908168Y-78213416D01*
X80850019Y-78194382D01*
X80814163Y-78144803D01*
X80814296Y-78083618D01*
X80850368Y-78034197D01*
X80872613Y-78022104D01*
X80892637Y-78014348D01*
X81066041Y-77906981D01*
X81216764Y-77769579D01*
X81339673Y-77606821D01*
X81430582Y-77424250D01*
X81486397Y-77228083D01*
X81505215Y-77025000D01*
X81486397Y-76821917D01*
X81430582Y-76625750D01*
X81339673Y-76443179D01*
X81216764Y-76280421D01*
X81066041Y-76143019D01*
X80892637Y-76035652D01*
X80702456Y-75961976D01*
X80702455Y-75961975D01*
X80702453Y-75961975D01*
X80501976Y-75924500D01*
X80298024Y-75924500D01*
X80097546Y-75961975D01*
X80033708Y-75986706D01*
X79907363Y-76035652D01*
X79779714Y-76114689D01*
X79733959Y-76143019D01*
X79598970Y-76266078D01*
X79583236Y-76280421D01*
X79558034Y-76313794D01*
X79460328Y-76443177D01*
X79460323Y-76443186D01*
X79390004Y-76584407D01*
X79369418Y-76625750D01*
X79313603Y-76821917D01*
X79294785Y-77025000D01*
X79313603Y-77228083D01*
X79369418Y-77424250D01*
X79460327Y-77606821D01*
X79583236Y-77769579D01*
X79733959Y-77906981D01*
X79907363Y-78014348D01*
X79921627Y-78019874D01*
X79969057Y-78058522D01*
X79984713Y-78117670D01*
X79962612Y-78174725D01*
X79911197Y-78207892D01*
X79885649Y-78211188D01*
X69957395Y-78189558D01*
X69899246Y-78170524D01*
X69863390Y-78120945D01*
X69863523Y-78059760D01*
X69899595Y-78010339D01*
X69905468Y-78006403D01*
X70066041Y-77906981D01*
X70216764Y-77769579D01*
X70339673Y-77606821D01*
X70430582Y-77424250D01*
X70486397Y-77228083D01*
X70505215Y-77025000D01*
X70486397Y-76821917D01*
X70430582Y-76625750D01*
X70339673Y-76443179D01*
X70216764Y-76280421D01*
X70066041Y-76143019D01*
X69892637Y-76035652D01*
X69702456Y-75961976D01*
X69702455Y-75961975D01*
X69702453Y-75961975D01*
X69501976Y-75924500D01*
X69298024Y-75924500D01*
X69097546Y-75961975D01*
X69033708Y-75986706D01*
X68907363Y-76035652D01*
X68779714Y-76114689D01*
X68733959Y-76143019D01*
X68598970Y-76266078D01*
X68583236Y-76280421D01*
X68558034Y-76313794D01*
X68460328Y-76443177D01*
X68460323Y-76443186D01*
X68390004Y-76584407D01*
X68369418Y-76625750D01*
X68313603Y-76821917D01*
X68294785Y-77025000D01*
X68313603Y-77228083D01*
X68369418Y-77424250D01*
X68460327Y-77606821D01*
X68583236Y-77769579D01*
X68733959Y-77906981D01*
X68801880Y-77949036D01*
X68890567Y-78003949D01*
X68930088Y-78050657D01*
X68934607Y-78111676D01*
X68902397Y-78163696D01*
X68845761Y-78186850D01*
X68838234Y-78187120D01*
X67722273Y-78184688D01*
X67664124Y-78165654D01*
X67628268Y-78116075D01*
X67627420Y-78058071D01*
X67672598Y-77902569D01*
X67675500Y-77865694D01*
X67675500Y-76434306D01*
X67672598Y-76397431D01*
X67626744Y-76239602D01*
X67543081Y-76098135D01*
X67426865Y-75981919D01*
X67285398Y-75898256D01*
X67127569Y-75852402D01*
X67127568Y-75852401D01*
X67127565Y-75852401D01*
X67104140Y-75850558D01*
X67090694Y-75849500D01*
X67090689Y-75849500D01*
X67021991Y-75849500D01*
X66963800Y-75830593D01*
X66927836Y-75781093D01*
X66927836Y-75719907D01*
X66951987Y-75680497D01*
X67056492Y-75575992D01*
X67428042Y-75204440D01*
X67428047Y-75204437D01*
X67436192Y-75196291D01*
X67436194Y-75196291D01*
X67530979Y-75101506D01*
X67605452Y-74990050D01*
X67656749Y-74866207D01*
X67682900Y-74734735D01*
X67682900Y-67035377D01*
X67657401Y-66907185D01*
X67655500Y-66887876D01*
X67655500Y-63304646D01*
X67674407Y-63246455D01*
X67723907Y-63210491D01*
X67785093Y-63210491D01*
X67792373Y-63213177D01*
X67818819Y-63224132D01*
X67848694Y-63235153D01*
X67926833Y-63247529D01*
X67973998Y-63255000D01*
X67974000Y-63255000D01*
X68397223Y-63255000D01*
X68455414Y-63273907D01*
X68489980Y-63319404D01*
X68497444Y-63339417D01*
X68497562Y-63339731D01*
X68499693Y-63346095D01*
X68532460Y-63456235D01*
X68532464Y-63456247D01*
X68546530Y-63485647D01*
X68554177Y-63499711D01*
X68566578Y-63522518D01*
X68570895Y-63527572D01*
X68648972Y-63618991D01*
X68757139Y-63685277D01*
X68757144Y-63685280D01*
X68791792Y-63699632D01*
X68821667Y-63710653D01*
X68902714Y-63723489D01*
X68943663Y-63729976D01*
X68998179Y-63757754D01*
X69025956Y-63812271D01*
X69027163Y-63826234D01*
X69118806Y-69782991D01*
X69120264Y-69811678D01*
X69120265Y-69811681D01*
X69140711Y-69894045D01*
X69150830Y-69934811D01*
X69165176Y-69968705D01*
X69191391Y-70019668D01*
X69192858Y-70022520D01*
X69275250Y-70118990D01*
X69378168Y-70182060D01*
X69383423Y-70185280D01*
X69418071Y-70199632D01*
X69447946Y-70210653D01*
X69515691Y-70221383D01*
X69573250Y-70230500D01*
X69573252Y-70230500D01*
X74475188Y-70230500D01*
X74475435Y-70230498D01*
X74478651Y-70230485D01*
X74479468Y-70230478D01*
X74514541Y-70228657D01*
X74637393Y-70196988D01*
X74671797Y-70182061D01*
X74728008Y-70152230D01*
X74823092Y-70068238D01*
X74887567Y-69958974D01*
X74901339Y-69924091D01*
X74911858Y-69894045D01*
X74929614Y-69768426D01*
X74926951Y-69608670D01*
X74904548Y-68264465D01*
X74831247Y-63866426D01*
X74829774Y-63837997D01*
X74799129Y-63714886D01*
X74784784Y-63681055D01*
X74757205Y-63627482D01*
X74674812Y-63531010D01*
X74669197Y-63527569D01*
X74566643Y-63464722D01*
X74566640Y-63464720D01*
X74566639Y-63464720D01*
X74531991Y-63450368D01*
X74524160Y-63447479D01*
X74502118Y-63439347D01*
X74376812Y-63419500D01*
X74376810Y-63419500D01*
X73131136Y-63419500D01*
X73129978Y-63419435D01*
X73120022Y-63419435D01*
X73118864Y-63419500D01*
X72181136Y-63419500D01*
X72179978Y-63419435D01*
X72170022Y-63419435D01*
X72168864Y-63419500D01*
X71429500Y-63419500D01*
X71371309Y-63400593D01*
X71335345Y-63351093D01*
X71330500Y-63320500D01*
X71330500Y-62318948D01*
X71349407Y-62260757D01*
X71398907Y-62224793D01*
X71444986Y-62221167D01*
X71473058Y-62225613D01*
X71503909Y-62230500D01*
X71503911Y-62230500D01*
X72900993Y-62230500D01*
X72901000Y-62230500D01*
X72932818Y-62229250D01*
X73056181Y-62199632D01*
X73090829Y-62185280D01*
X73147518Y-62156395D01*
X73243990Y-62074002D01*
X73310280Y-61965829D01*
X73324632Y-61931181D01*
X73328991Y-61919362D01*
X73366867Y-61871313D01*
X73425754Y-61854701D01*
X73461194Y-61862769D01*
X73464595Y-61864240D01*
X73464602Y-61864244D01*
X73622431Y-61910098D01*
X73659306Y-61913000D01*
X73659311Y-61913000D01*
X74690689Y-61913000D01*
X74690694Y-61913000D01*
X74727569Y-61910098D01*
X74885398Y-61864244D01*
X75026865Y-61780581D01*
X75143081Y-61664365D01*
X75226744Y-61522898D01*
X75272598Y-61365069D01*
X75275500Y-61328194D01*
X75275500Y-60671806D01*
X75272598Y-60634931D01*
X75226744Y-60477102D01*
X75143081Y-60335635D01*
X75026865Y-60219419D01*
X74885398Y-60135756D01*
X74727569Y-60089902D01*
X74727568Y-60089901D01*
X74727565Y-60089901D01*
X74704140Y-60088058D01*
X74690694Y-60087000D01*
X74690689Y-60087000D01*
X74649076Y-60087000D01*
X74590885Y-60068093D01*
X74554921Y-60018593D01*
X74554921Y-59957407D01*
X74566797Y-59934977D01*
X74566183Y-59934614D01*
X74652210Y-59789149D01*
X74652212Y-59789146D01*
X74697625Y-59632834D01*
X74700500Y-59596304D01*
X74700500Y-58553696D01*
X74697625Y-58517166D01*
X74652212Y-58360854D01*
X74576052Y-58232075D01*
X74569355Y-58220750D01*
X74569354Y-58220749D01*
X74569353Y-58220747D01*
X74454253Y-58105647D01*
X74454250Y-58105645D01*
X74454249Y-58105644D01*
X74314148Y-58022789D01*
X74314147Y-58022788D01*
X74314146Y-58022788D01*
X74157834Y-57977375D01*
X74157831Y-57977374D01*
X74134010Y-57975500D01*
X74121304Y-57974500D01*
X73503696Y-57974500D01*
X73490990Y-57975500D01*
X73467168Y-57977374D01*
X73467162Y-57977376D01*
X73310851Y-58022789D01*
X73310850Y-58022789D01*
X73170749Y-58105645D01*
X73170747Y-58105646D01*
X73114409Y-58161984D01*
X73059892Y-58189761D01*
X73028918Y-58189761D01*
X73026307Y-58189347D01*
X73026306Y-58189347D01*
X72967798Y-58180080D01*
X72901002Y-58169500D01*
X72901000Y-58169500D01*
X72684114Y-58169500D01*
X72625923Y-58150593D01*
X72614111Y-58140504D01*
X72579253Y-58105646D01*
X72579250Y-58105645D01*
X72439148Y-58022789D01*
X72439147Y-58022788D01*
X72439146Y-58022788D01*
X72282834Y-57977375D01*
X72282831Y-57977374D01*
X72259010Y-57975500D01*
X72246304Y-57974500D01*
X71679500Y-57974500D01*
X71621309Y-57955593D01*
X71585345Y-57906093D01*
X71580500Y-57875500D01*
X71580500Y-56060898D01*
X71582027Y-56046748D01*
X71582005Y-56046746D01*
X71585499Y-56009482D01*
X71585500Y-56009479D01*
X71585500Y-55772921D01*
X71585499Y-55772919D01*
X71582005Y-55735656D01*
X71582027Y-55735653D01*
X71580500Y-55721502D01*
X71580500Y-55124007D01*
X71580500Y-55124000D01*
X71579250Y-55092182D01*
X71549632Y-54968819D01*
X71535280Y-54934171D01*
X71535277Y-54934165D01*
X71535273Y-54934156D01*
X71506395Y-54877482D01*
X71424001Y-54781009D01*
X71315833Y-54714722D01*
X71315830Y-54714720D01*
X71315829Y-54714720D01*
X71281181Y-54700368D01*
X71265665Y-54694644D01*
X71251308Y-54689347D01*
X71126002Y-54669500D01*
X71126000Y-54669500D01*
X69776950Y-54669500D01*
X69718759Y-54650593D01*
X69682795Y-54601093D01*
X69677950Y-54570500D01*
X69677950Y-54349500D01*
X69696857Y-54291309D01*
X69746357Y-54255345D01*
X69776950Y-54250500D01*
X70340689Y-54250500D01*
X70340694Y-54250500D01*
X70377569Y-54247598D01*
X70535398Y-54201744D01*
X70676865Y-54118081D01*
X70793081Y-54001865D01*
X70876744Y-53860398D01*
X70922598Y-53702569D01*
X70925500Y-53665694D01*
X70925500Y-52783676D01*
X70944407Y-52725485D01*
X70954490Y-52713678D01*
X71649997Y-52018170D01*
X71704512Y-51990395D01*
X71764944Y-51999966D01*
X71789999Y-52018169D01*
X72084440Y-52312609D01*
X72345504Y-52573673D01*
X72373281Y-52628190D01*
X72374500Y-52643677D01*
X72374500Y-53490688D01*
X72377401Y-53527565D01*
X72377401Y-53527568D01*
X72377402Y-53527569D01*
X72423256Y-53685398D01*
X72506919Y-53826865D01*
X72560051Y-53879997D01*
X72587827Y-53934512D01*
X72578256Y-53994944D01*
X72560050Y-54020002D01*
X72481920Y-54098133D01*
X72398256Y-54239602D01*
X72352403Y-54397427D01*
X72352401Y-54397434D01*
X72351723Y-54406057D01*
X72349768Y-54430907D01*
X72349500Y-54434311D01*
X72349500Y-55515688D01*
X72352401Y-55552565D01*
X72352401Y-55552568D01*
X72352402Y-55552569D01*
X72398256Y-55710398D01*
X72481919Y-55851865D01*
X72598135Y-55968081D01*
X72739602Y-56051744D01*
X72897431Y-56097598D01*
X72934306Y-56100500D01*
X72934311Y-56100500D01*
X73565689Y-56100500D01*
X73565694Y-56100500D01*
X73602569Y-56097598D01*
X73760398Y-56051744D01*
X73901865Y-55968081D01*
X74018081Y-55851865D01*
X74101744Y-55710398D01*
X74104931Y-55699425D01*
X74139322Y-55648822D01*
X74196890Y-55628096D01*
X74255646Y-55645166D01*
X74293147Y-55693512D01*
X74295065Y-55699415D01*
X74298256Y-55710398D01*
X74381919Y-55851865D01*
X74498135Y-55968081D01*
X74639602Y-56051744D01*
X74797431Y-56097598D01*
X74834306Y-56100500D01*
X74834311Y-56100500D01*
X75465689Y-56100500D01*
X75465694Y-56100500D01*
X75502569Y-56097598D01*
X75660398Y-56051744D01*
X75801865Y-55968081D01*
X75918081Y-55851865D01*
X76001744Y-55710398D01*
X76047598Y-55552569D01*
X76050500Y-55515694D01*
X76050500Y-54434306D01*
X76047598Y-54397431D01*
X76001744Y-54239602D01*
X75918081Y-54098135D01*
X75839947Y-54020001D01*
X75812172Y-53965487D01*
X75821743Y-53905055D01*
X75839946Y-53879999D01*
X75893081Y-53826865D01*
X75976744Y-53685398D01*
X76022598Y-53527569D01*
X76025500Y-53490694D01*
X76025500Y-52459306D01*
X76022598Y-52422431D01*
X75976744Y-52264602D01*
X75976741Y-52264598D01*
X75976075Y-52263056D01*
X75975969Y-52261934D01*
X75975006Y-52258620D01*
X75975638Y-52258436D01*
X75970319Y-52202142D01*
X75996931Y-52153737D01*
X76459674Y-51690995D01*
X76514190Y-51663218D01*
X76529677Y-51661999D01*
X77435521Y-51661999D01*
X77435522Y-51661998D01*
X77482411Y-51654572D01*
X77529299Y-51647147D01*
X77529299Y-51647146D01*
X77529304Y-51647146D01*
X77642342Y-51589550D01*
X77732050Y-51499842D01*
X77789646Y-51386804D01*
X77804500Y-51293019D01*
X77804500Y-51257000D01*
X77823407Y-51198809D01*
X77872907Y-51162845D01*
X77903500Y-51158000D01*
X80032830Y-51158000D01*
X80032846Y-51158001D01*
X80038909Y-51158001D01*
X80177275Y-51158001D01*
X80282683Y-51129756D01*
X80310928Y-51122188D01*
X80430757Y-51053005D01*
X80528597Y-50955165D01*
X80528597Y-50955163D01*
X80536747Y-50947014D01*
X80536748Y-50947011D01*
X80830293Y-50653467D01*
X80884808Y-50625691D01*
X80945240Y-50635262D01*
X80970299Y-50653468D01*
X82476339Y-52159508D01*
X82492071Y-52180012D01*
X83038685Y-53126773D01*
X83098444Y-53200570D01*
X83204836Y-53269662D01*
X83204841Y-53269665D01*
X83327385Y-53302501D01*
X83454077Y-53295861D01*
X83542724Y-53261833D01*
X84686775Y-52601313D01*
X84760569Y-52541557D01*
X84829665Y-52435159D01*
X84862501Y-52312615D01*
X84855861Y-52185923D01*
X84821833Y-52097276D01*
X84331704Y-51248350D01*
X84161314Y-50953226D01*
X84119625Y-50901744D01*
X84101557Y-50879431D01*
X84101556Y-50879430D01*
X84101555Y-50879429D01*
X83995163Y-50810337D01*
X83995160Y-50810335D01*
X83872615Y-50777499D01*
X83872609Y-50777499D01*
X83745925Y-50784138D01*
X83657282Y-50818164D01*
X83657278Y-50818166D01*
X83657276Y-50818167D01*
X83250526Y-51053005D01*
X83066305Y-51159365D01*
X83006457Y-51172086D01*
X82950561Y-51147199D01*
X82946801Y-51143632D01*
X81454792Y-49651623D01*
X81427015Y-49597106D01*
X81425796Y-49581619D01*
X81425796Y-46757518D01*
X81444703Y-46699327D01*
X81494203Y-46663363D01*
X81538406Y-46661048D01*
X81538438Y-46660453D01*
X81544106Y-46660750D01*
X81545388Y-46660683D01*
X81546211Y-46660858D01*
X81546219Y-46660861D01*
X81672911Y-46667501D01*
X81795455Y-46634665D01*
X81901851Y-46565570D01*
X81901852Y-46565570D01*
X81914055Y-46550501D01*
X81961610Y-46491776D01*
X82622127Y-45347724D01*
X82656157Y-45259077D01*
X82662797Y-45132385D01*
X82629961Y-45009841D01*
X82629958Y-45009836D01*
X82560866Y-44903444D01*
X82560866Y-44903443D01*
X82487071Y-44843685D01*
X81404179Y-44218479D01*
X81343020Y-44183169D01*
X81343019Y-44183168D01*
X81343018Y-44183168D01*
X81303979Y-44168182D01*
X81254373Y-44149139D01*
X81191027Y-44145819D01*
X81127685Y-44142499D01*
X81127680Y-44142499D01*
X81005135Y-44175335D01*
X81005132Y-44175337D01*
X80898740Y-44244429D01*
X80898739Y-44244429D01*
X80838981Y-44318224D01*
X80178464Y-45462277D01*
X80153751Y-45526654D01*
X80144435Y-45550923D01*
X80143075Y-45576865D01*
X80137795Y-45677610D01*
X80137795Y-45677615D01*
X80170631Y-45800160D01*
X80170633Y-45800163D01*
X80239725Y-45906555D01*
X80239725Y-45906556D01*
X80313512Y-45966308D01*
X80313515Y-45966310D01*
X80313520Y-45966314D01*
X80313527Y-45966318D01*
X80313533Y-45966322D01*
X80325294Y-45973112D01*
X80366236Y-46018580D01*
X80374796Y-46058849D01*
X80374796Y-49581619D01*
X80355889Y-49639810D01*
X80345800Y-49651622D01*
X79919420Y-50078003D01*
X79864903Y-50105781D01*
X79849416Y-50107000D01*
X77903499Y-50107000D01*
X77845308Y-50088093D01*
X77809344Y-50038593D01*
X77804499Y-50008000D01*
X77804499Y-49971978D01*
X77804498Y-49971976D01*
X77789647Y-49878200D01*
X77789646Y-49878198D01*
X77789646Y-49878196D01*
X77732050Y-49765158D01*
X77642342Y-49675450D01*
X77529304Y-49617854D01*
X77529305Y-49617854D01*
X77435521Y-49603000D01*
X76114482Y-49603000D01*
X76055690Y-49612311D01*
X75995258Y-49602737D01*
X75970205Y-49584535D01*
X75900165Y-49514495D01*
X75900162Y-49514493D01*
X75780337Y-49445312D01*
X75780339Y-49445312D01*
X75765554Y-49441350D01*
X75752091Y-49437743D01*
X75646683Y-49409499D01*
X75508317Y-49409499D01*
X75502254Y-49409499D01*
X75502238Y-49409500D01*
X73048578Y-49409500D01*
X72990387Y-49390593D01*
X72974793Y-49375219D01*
X72974693Y-49375320D01*
X72969689Y-49370316D01*
X72969687Y-49370313D01*
X72933476Y-49343206D01*
X72860228Y-49288373D01*
X72860226Y-49288372D01*
X72732114Y-49240588D01*
X72732113Y-49240587D01*
X72693895Y-49236479D01*
X72675485Y-49234500D01*
X72675481Y-49234500D01*
X70764521Y-49234500D01*
X70764515Y-49234501D01*
X70707888Y-49240587D01*
X70707886Y-49240588D01*
X70584095Y-49286760D01*
X70522968Y-49289381D01*
X70471973Y-49255570D01*
X70450591Y-49198242D01*
X70450500Y-49194002D01*
X70450500Y-46028775D01*
X70469407Y-45970584D01*
X70479490Y-45958777D01*
X70665462Y-45772806D01*
X70665465Y-45772805D01*
X70763305Y-45674965D01*
X70832488Y-45555136D01*
X70853826Y-45475500D01*
X70868300Y-45421484D01*
X70868300Y-45283117D01*
X70868300Y-43724500D01*
X70887207Y-43666309D01*
X70936707Y-43630345D01*
X70967300Y-43625500D01*
X71387089Y-43625500D01*
X71387094Y-43625500D01*
X71423969Y-43622598D01*
X71581798Y-43576744D01*
X71723265Y-43493081D01*
X71839481Y-43376865D01*
X71886188Y-43297887D01*
X71932082Y-43257427D01*
X71992996Y-43251668D01*
X72045661Y-43282814D01*
X72056608Y-43297881D01*
X72103319Y-43376865D01*
X72219535Y-43493081D01*
X72361002Y-43576744D01*
X72518831Y-43622598D01*
X72555706Y-43625500D01*
X72555711Y-43625500D01*
X73212089Y-43625500D01*
X73212094Y-43625500D01*
X73248969Y-43622598D01*
X73406798Y-43576744D01*
X73548265Y-43493081D01*
X73578196Y-43463149D01*
X73632712Y-43435372D01*
X73693144Y-43444943D01*
X73718200Y-43463146D01*
X73773135Y-43518081D01*
X73914602Y-43601744D01*
X74072431Y-43647598D01*
X74109306Y-43650500D01*
X74109311Y-43650500D01*
X74740689Y-43650500D01*
X74740694Y-43650500D01*
X74777569Y-43647598D01*
X74935398Y-43601744D01*
X75076865Y-43518081D01*
X75193081Y-43401865D01*
X75276744Y-43260398D01*
X75322598Y-43102569D01*
X75325500Y-43065694D01*
X75325500Y-41984306D01*
X75322598Y-41947431D01*
X75276744Y-41789602D01*
X75223690Y-41699893D01*
X75210344Y-41640182D01*
X75234644Y-41584029D01*
X75287309Y-41552883D01*
X75308905Y-41550499D01*
X75956521Y-41550499D01*
X75956522Y-41550498D01*
X76003411Y-41543072D01*
X76050299Y-41535647D01*
X76050299Y-41535646D01*
X76050304Y-41535646D01*
X76163342Y-41478050D01*
X76204109Y-41437282D01*
X76258624Y-41409507D01*
X76319056Y-41419078D01*
X76344114Y-41437283D01*
X77877335Y-42970505D01*
X77877337Y-42970506D01*
X77877339Y-42970508D01*
X77997161Y-43039687D01*
X77997159Y-43039687D01*
X77997163Y-43039688D01*
X77997165Y-43039689D01*
X78130817Y-43075501D01*
X78130819Y-43075501D01*
X78275247Y-43075501D01*
X78275263Y-43075500D01*
X83402414Y-43075500D01*
X83460605Y-43094407D01*
X83472417Y-43104496D01*
X83516270Y-43148348D01*
X83547738Y-43179816D01*
X83547740Y-43179817D01*
X83547741Y-43179818D01*
X83675981Y-43260397D01*
X83700478Y-43275789D01*
X83760290Y-43296718D01*
X83870738Y-43335366D01*
X83870742Y-43335367D01*
X83870745Y-43335368D01*
X84050000Y-43355565D01*
X84229255Y-43335368D01*
X84399522Y-43275789D01*
X84552262Y-43179816D01*
X84679816Y-43052262D01*
X84775789Y-42899522D01*
X84835368Y-42729255D01*
X84855565Y-42550000D01*
X84835368Y-42370745D01*
X84775789Y-42200478D01*
X84738763Y-42141552D01*
X84679818Y-42047741D01*
X84679817Y-42047740D01*
X84679816Y-42047738D01*
X84552262Y-41920184D01*
X84552259Y-41920182D01*
X84552258Y-41920181D01*
X84399523Y-41824211D01*
X84229261Y-41764633D01*
X84229257Y-41764632D01*
X84050000Y-41744435D01*
X83870742Y-41764632D01*
X83870738Y-41764633D01*
X83700477Y-41824211D01*
X83700476Y-41824211D01*
X83547741Y-41920181D01*
X83547736Y-41920185D01*
X83472417Y-41995504D01*
X83417900Y-42023281D01*
X83402414Y-42024500D01*
X78458678Y-42024500D01*
X78400487Y-42005593D01*
X78388674Y-41995504D01*
X76354495Y-39961325D01*
X76326718Y-39906808D01*
X76325499Y-39891321D01*
X76325499Y-38368478D01*
X76325498Y-38368476D01*
X76325406Y-38367898D01*
X76323722Y-38357263D01*
X76310647Y-38274700D01*
X76310646Y-38274698D01*
X76310646Y-38274696D01*
X76253050Y-38161658D01*
X76163342Y-38071950D01*
X76050304Y-38014354D01*
X76050305Y-38014354D01*
X75956522Y-37999500D01*
X75956519Y-37999500D01*
X75768500Y-37999500D01*
X75710309Y-37980593D01*
X75674345Y-37931093D01*
X75669500Y-37900500D01*
X75669500Y-35889499D01*
X75688407Y-35831308D01*
X75737907Y-35795344D01*
X75768500Y-35790499D01*
X75956521Y-35790499D01*
X75956522Y-35790498D01*
X76003411Y-35783072D01*
X76050299Y-35775647D01*
X76050299Y-35775646D01*
X76050304Y-35775646D01*
X76163342Y-35718050D01*
X76253050Y-35628342D01*
X76310646Y-35515304D01*
X76325500Y-35421519D01*
X76325499Y-32608482D01*
X76325499Y-32608481D01*
X76325499Y-32608478D01*
X76325498Y-32608476D01*
X76310647Y-32514700D01*
X76310646Y-32514698D01*
X76310646Y-32514696D01*
X76253050Y-32401658D01*
X76245393Y-32394001D01*
X76217618Y-32339487D01*
X76227189Y-32279055D01*
X76270454Y-32235790D01*
X76315399Y-32225000D01*
X86126000Y-32225000D01*
X86184191Y-32243907D01*
G37*
%TD.AperFunction*%
%TA.AperFunction,Conductor*%
G36*
X40983001Y-54536881D02*
G01*
X42730505Y-56284385D01*
X42758281Y-56338900D01*
X42759500Y-56354387D01*
X42759500Y-64220220D01*
X42740593Y-64278411D01*
X42725636Y-64294774D01*
X42628239Y-64379867D01*
X42563171Y-64488770D01*
X42563168Y-64488777D01*
X42549212Y-64523569D01*
X42538521Y-64553581D01*
X42538520Y-64553585D01*
X42520083Y-64679098D01*
X42521315Y-64788940D01*
X42521316Y-64788946D01*
X42539421Y-64904294D01*
X42547675Y-64930961D01*
X42589375Y-65018489D01*
X42599000Y-65061069D01*
X42599000Y-66434581D01*
X42589613Y-66476658D01*
X42567505Y-66523741D01*
X42567501Y-66523751D01*
X42559252Y-66551502D01*
X42559250Y-66551515D01*
X42542469Y-66671596D01*
X42594027Y-71260160D01*
X42619494Y-73526717D01*
X42619500Y-73527829D01*
X42619500Y-75575992D01*
X42620750Y-75607820D01*
X42650658Y-75732388D01*
X42645859Y-75793384D01*
X42606122Y-75839911D01*
X42554394Y-75854500D01*
X41859306Y-75854500D01*
X41846773Y-75855486D01*
X41822434Y-75857401D01*
X41822427Y-75857403D01*
X41664602Y-75903256D01*
X41523136Y-75986918D01*
X41406918Y-76103136D01*
X41323256Y-76244602D01*
X41277403Y-76402427D01*
X41277401Y-76402434D01*
X41275486Y-76426773D01*
X41274894Y-76434306D01*
X41274500Y-76439311D01*
X41274500Y-77870688D01*
X41277401Y-77907565D01*
X41277403Y-77907572D01*
X41304344Y-78000305D01*
X41302422Y-78061460D01*
X41264921Y-78109806D01*
X41209059Y-78126925D01*
X40912784Y-78126280D01*
X40854635Y-78107246D01*
X40818779Y-78057668D01*
X40814000Y-78027280D01*
X40814000Y-54606887D01*
X40832907Y-54548696D01*
X40882407Y-54512732D01*
X40943593Y-54512732D01*
X40983001Y-54536881D01*
G37*
%TD.AperFunction*%
%TA.AperFunction,Conductor*%
G36*
X49333945Y-66869130D02*
G01*
X49348696Y-66876646D01*
X49442481Y-66891500D01*
X49710322Y-66891499D01*
X49768512Y-66910406D01*
X49780326Y-66920495D01*
X52910504Y-70050673D01*
X52938281Y-70105190D01*
X52939500Y-70120677D01*
X52939500Y-73386803D01*
X52920593Y-73444994D01*
X52871093Y-73480958D01*
X52809907Y-73480958D01*
X52804182Y-73478901D01*
X52782678Y-73470421D01*
X52756564Y-73460123D01*
X52738871Y-73457998D01*
X52668106Y-73449500D01*
X52668102Y-73449500D01*
X52281898Y-73449500D01*
X52281893Y-73449500D01*
X52193434Y-73460123D01*
X52052660Y-73515637D01*
X52052656Y-73515640D01*
X51932081Y-73607075D01*
X51932075Y-73607081D01*
X51840640Y-73727656D01*
X51840637Y-73727660D01*
X51785123Y-73868434D01*
X51774500Y-73956893D01*
X51774500Y-74322119D01*
X51755593Y-74380310D01*
X51745504Y-74392123D01*
X51327011Y-74810616D01*
X51272494Y-74838393D01*
X51257007Y-74839612D01*
X48426923Y-74839612D01*
X48426903Y-74839611D01*
X48422023Y-74839611D01*
X48287977Y-74839611D01*
X48287974Y-74839611D01*
X48156506Y-74865762D01*
X48156504Y-74865762D01*
X48083959Y-74895811D01*
X48032663Y-74917059D01*
X47921206Y-74991532D01*
X47826421Y-75086318D01*
X47826419Y-75086320D01*
X47776647Y-75136093D01*
X47737237Y-75175503D01*
X47682721Y-75203281D01*
X47667233Y-75204500D01*
X47374500Y-75204500D01*
X47316309Y-75185593D01*
X47280345Y-75136093D01*
X47275500Y-75105500D01*
X47275500Y-73961899D01*
X47275499Y-73961893D01*
X47264877Y-73873436D01*
X47209361Y-73732658D01*
X47120616Y-73615630D01*
X47100521Y-73557839D01*
X47100500Y-73555811D01*
X47100500Y-73386469D01*
X47119407Y-73328278D01*
X47129490Y-73316471D01*
X48976662Y-71469299D01*
X48976665Y-71469298D01*
X49074505Y-71371458D01*
X49143688Y-71251629D01*
X49158236Y-71197335D01*
X49179501Y-71117976D01*
X49179501Y-70979610D01*
X49179501Y-70973548D01*
X49179500Y-70973530D01*
X49179500Y-66962689D01*
X49198407Y-66904498D01*
X49233552Y-66874481D01*
X49244057Y-66869128D01*
X49304487Y-66859558D01*
X49333945Y-66869130D01*
G37*
%TD.AperFunction*%
%TA.AperFunction,Conductor*%
G36*
X56654503Y-70404672D02*
G01*
X59090335Y-72840505D01*
X59090337Y-72840506D01*
X59090339Y-72840508D01*
X59210161Y-72909687D01*
X59210159Y-72909687D01*
X59210163Y-72909688D01*
X59210165Y-72909689D01*
X59343817Y-72945501D01*
X59343819Y-72945501D01*
X59488246Y-72945501D01*
X59488262Y-72945500D01*
X60517228Y-72945500D01*
X60575419Y-72964407D01*
X60611383Y-73013907D01*
X60612520Y-73057177D01*
X60615347Y-73057550D01*
X60614500Y-73063981D01*
X60614500Y-73063982D01*
X60614500Y-73176018D01*
X60615755Y-73180700D01*
X60643498Y-73284241D01*
X60676133Y-73340765D01*
X60699515Y-73381263D01*
X60778737Y-73460485D01*
X60795947Y-73470421D01*
X60836887Y-73515891D01*
X60843282Y-73576741D01*
X60825330Y-73615976D01*
X60740640Y-73727656D01*
X60740637Y-73727660D01*
X60685123Y-73868434D01*
X60674500Y-73956893D01*
X60674500Y-74322119D01*
X60655593Y-74380310D01*
X60645504Y-74392123D01*
X60292123Y-74745504D01*
X60237606Y-74773281D01*
X60222119Y-74774500D01*
X57387035Y-74774500D01*
X57387015Y-74774499D01*
X57382135Y-74774499D01*
X57248089Y-74774499D01*
X57248086Y-74774499D01*
X57116619Y-74800649D01*
X57116613Y-74800651D01*
X57038915Y-74832836D01*
X57038914Y-74832836D01*
X56992776Y-74851946D01*
X56992775Y-74851946D01*
X56895329Y-74917059D01*
X56895328Y-74917060D01*
X56881318Y-74926420D01*
X56637234Y-75170504D01*
X56582718Y-75198281D01*
X56567231Y-75199500D01*
X56274500Y-75199500D01*
X56216309Y-75180593D01*
X56180345Y-75131093D01*
X56175500Y-75100500D01*
X56175500Y-73978625D01*
X56194407Y-73920434D01*
X56204497Y-73908621D01*
X56244684Y-73868434D01*
X56380505Y-73732614D01*
X56449689Y-73612784D01*
X56485501Y-73479132D01*
X56485501Y-73340765D01*
X56485501Y-73334703D01*
X56485500Y-73334685D01*
X56485500Y-70474677D01*
X56504407Y-70416486D01*
X56553907Y-70380522D01*
X56615093Y-70380522D01*
X56654503Y-70404672D01*
G37*
%TD.AperFunction*%
%TA.AperFunction,Conductor*%
G36*
X64334672Y-71373020D02*
G01*
X64368666Y-71423893D01*
X64368452Y-71478388D01*
X64324803Y-71628627D01*
X64324801Y-71628634D01*
X64321900Y-71665511D01*
X64321900Y-72496888D01*
X64324801Y-72533765D01*
X64324801Y-72533768D01*
X64324802Y-72533769D01*
X64370656Y-72691598D01*
X64454319Y-72833065D01*
X64570535Y-72949281D01*
X64712002Y-73032944D01*
X64869831Y-73078798D01*
X64906706Y-73081700D01*
X66222900Y-73081700D01*
X66281091Y-73100607D01*
X66317055Y-73150107D01*
X66321900Y-73180700D01*
X66321900Y-74344831D01*
X66302993Y-74403022D01*
X66292904Y-74414835D01*
X65537235Y-75170504D01*
X65482718Y-75198281D01*
X65467231Y-75199500D01*
X65174500Y-75199500D01*
X65116309Y-75180593D01*
X65080345Y-75131093D01*
X65075500Y-75100500D01*
X65075500Y-73956899D01*
X65075499Y-73956893D01*
X65064877Y-73868436D01*
X65011332Y-73732656D01*
X65009362Y-73727660D01*
X65009361Y-73727659D01*
X65009361Y-73727658D01*
X64917922Y-73607078D01*
X64849499Y-73555191D01*
X64797340Y-73515637D01*
X64711578Y-73481817D01*
X64677893Y-73459724D01*
X62868873Y-71650704D01*
X62841096Y-71596187D01*
X62850667Y-71535755D01*
X62893932Y-71492490D01*
X62938877Y-71481700D01*
X63765500Y-71481700D01*
X63765502Y-71481700D01*
X63853964Y-71471077D01*
X63860237Y-71468602D01*
X63896557Y-71461700D01*
X63939420Y-71461700D01*
X63939422Y-71461700D01*
X64070894Y-71435550D01*
X64158462Y-71399276D01*
X64158464Y-71399276D01*
X64194731Y-71384255D01*
X64194734Y-71384252D01*
X64194737Y-71384252D01*
X64218380Y-71368453D01*
X64277268Y-71351844D01*
X64334672Y-71373020D01*
G37*
%TD.AperFunction*%
%TA.AperFunction,Conductor*%
G36*
X62244504Y-65187673D02*
G01*
X63670504Y-66613673D01*
X63698281Y-66668190D01*
X63699500Y-66683677D01*
X63699500Y-66981700D01*
X63680593Y-67039891D01*
X63631093Y-67075855D01*
X63600500Y-67080700D01*
X62429293Y-67080700D01*
X62340833Y-67091323D01*
X62210819Y-67142595D01*
X62149749Y-67146354D01*
X62098133Y-67113499D01*
X62075687Y-67056579D01*
X62075500Y-67050498D01*
X62075500Y-65257677D01*
X62094407Y-65199486D01*
X62143907Y-65163522D01*
X62205093Y-65163522D01*
X62244504Y-65187673D01*
G37*
%TD.AperFunction*%
%TA.AperFunction,Conductor*%
G36*
X43243114Y-46564406D02*
G01*
X43279078Y-46613906D01*
X43279078Y-46675092D01*
X43254927Y-46714503D01*
X43251337Y-46718093D01*
X43251335Y-46718095D01*
X43251334Y-46718094D01*
X43153497Y-46815932D01*
X43153495Y-46815934D01*
X43153495Y-46815935D01*
X43150873Y-46820477D01*
X43084311Y-46935765D01*
X43084310Y-46935769D01*
X43082515Y-46942469D01*
X43056612Y-47039135D01*
X43023288Y-47090449D01*
X43004938Y-47100441D01*
X43005639Y-47101816D01*
X42885659Y-47162949D01*
X42795949Y-47252659D01*
X42738354Y-47365695D01*
X42723500Y-47459478D01*
X42723500Y-49022521D01*
X42723501Y-49022523D01*
X42738352Y-49116299D01*
X42738354Y-49116304D01*
X42795950Y-49229342D01*
X42885658Y-49319050D01*
X42998696Y-49376646D01*
X43092481Y-49391500D01*
X44055518Y-49391499D01*
X44055521Y-49391499D01*
X44055522Y-49391498D01*
X44102411Y-49384072D01*
X44149299Y-49376647D01*
X44149301Y-49376646D01*
X44149304Y-49376646D01*
X44164053Y-49369130D01*
X44224484Y-49359557D01*
X44253945Y-49369130D01*
X44268696Y-49376646D01*
X44362481Y-49391500D01*
X44934963Y-49391499D01*
X44993154Y-49410406D01*
X45029118Y-49459906D01*
X45033340Y-49501581D01*
X45019435Y-49625000D01*
X45024538Y-49670289D01*
X45039632Y-49804257D01*
X45039633Y-49804261D01*
X45099211Y-49974522D01*
X45099211Y-49974523D01*
X45195181Y-50127258D01*
X45195184Y-50127262D01*
X45322738Y-50254816D01*
X45475478Y-50350789D01*
X45543657Y-50374646D01*
X45645738Y-50410366D01*
X45645742Y-50410367D01*
X45645745Y-50410368D01*
X45825000Y-50430565D01*
X46004255Y-50410368D01*
X46174522Y-50350789D01*
X46327262Y-50254816D01*
X46338252Y-50243825D01*
X46392767Y-50216046D01*
X46453199Y-50225616D01*
X46496465Y-50268879D01*
X46497453Y-50270872D01*
X46499211Y-50274523D01*
X46595181Y-50427258D01*
X46595184Y-50427262D01*
X46722738Y-50554816D01*
X46722740Y-50554817D01*
X46722741Y-50554818D01*
X46858808Y-50640315D01*
X46875478Y-50650789D01*
X46891768Y-50656489D01*
X47045738Y-50710366D01*
X47045742Y-50710367D01*
X47045745Y-50710368D01*
X47225000Y-50730565D01*
X47404255Y-50710368D01*
X47574522Y-50650789D01*
X47727262Y-50554816D01*
X47854816Y-50427262D01*
X47950789Y-50274522D01*
X48004974Y-50119667D01*
X48010366Y-50104261D01*
X48010367Y-50104257D01*
X48010368Y-50104255D01*
X48030565Y-49925000D01*
X48010368Y-49745745D01*
X47996541Y-49706231D01*
X47965617Y-49617854D01*
X47950789Y-49575478D01*
X47924673Y-49533914D01*
X47909500Y-49481244D01*
X47909500Y-49462689D01*
X47928407Y-49404498D01*
X47963552Y-49374481D01*
X47974057Y-49369128D01*
X48034487Y-49359558D01*
X48063945Y-49369130D01*
X48078696Y-49376646D01*
X48172481Y-49391500D01*
X49135518Y-49391499D01*
X49135521Y-49391499D01*
X49135522Y-49391498D01*
X49182411Y-49384072D01*
X49229299Y-49376647D01*
X49229301Y-49376646D01*
X49229304Y-49376646D01*
X49244053Y-49369130D01*
X49304484Y-49359557D01*
X49333945Y-49369130D01*
X49348696Y-49376646D01*
X49442481Y-49391500D01*
X50405518Y-49391499D01*
X50405521Y-49391499D01*
X50405522Y-49391498D01*
X50452411Y-49384072D01*
X50499299Y-49376647D01*
X50499301Y-49376646D01*
X50499304Y-49376646D01*
X50514053Y-49369130D01*
X50574484Y-49359557D01*
X50603945Y-49369130D01*
X50618696Y-49376646D01*
X50712481Y-49391500D01*
X51675518Y-49391499D01*
X51675521Y-49391499D01*
X51675522Y-49391498D01*
X51722411Y-49384072D01*
X51769299Y-49376647D01*
X51769301Y-49376646D01*
X51769304Y-49376646D01*
X51784053Y-49369130D01*
X51844484Y-49359557D01*
X51873945Y-49369130D01*
X51888696Y-49376646D01*
X51982481Y-49391500D01*
X52945518Y-49391499D01*
X52945521Y-49391499D01*
X52945522Y-49391498D01*
X52992411Y-49384072D01*
X53039299Y-49376647D01*
X53039301Y-49376646D01*
X53039304Y-49376646D01*
X53054053Y-49369130D01*
X53114484Y-49359557D01*
X53143945Y-49369130D01*
X53158696Y-49376646D01*
X53252481Y-49391500D01*
X54215518Y-49391499D01*
X54215521Y-49391499D01*
X54215522Y-49391498D01*
X54262411Y-49384072D01*
X54309299Y-49376647D01*
X54309301Y-49376646D01*
X54309304Y-49376646D01*
X54324053Y-49369130D01*
X54384484Y-49359557D01*
X54413945Y-49369130D01*
X54428696Y-49376646D01*
X54522481Y-49391500D01*
X55485518Y-49391499D01*
X55485521Y-49391499D01*
X55485522Y-49391498D01*
X55532411Y-49384072D01*
X55579299Y-49376647D01*
X55579301Y-49376646D01*
X55579304Y-49376646D01*
X55594053Y-49369130D01*
X55654484Y-49359557D01*
X55683945Y-49369130D01*
X55698696Y-49376646D01*
X55792481Y-49391500D01*
X56755518Y-49391499D01*
X56755521Y-49391499D01*
X56755522Y-49391498D01*
X56802411Y-49384072D01*
X56849299Y-49376647D01*
X56849301Y-49376646D01*
X56849304Y-49376646D01*
X56864053Y-49369130D01*
X56924484Y-49359557D01*
X56953945Y-49369130D01*
X56968696Y-49376646D01*
X57062481Y-49391500D01*
X58025518Y-49391499D01*
X58025521Y-49391499D01*
X58025522Y-49391498D01*
X58072411Y-49384072D01*
X58119299Y-49376647D01*
X58119301Y-49376646D01*
X58119304Y-49376646D01*
X58134053Y-49369130D01*
X58194484Y-49359557D01*
X58223945Y-49369130D01*
X58238696Y-49376646D01*
X58332481Y-49391500D01*
X58818647Y-49391499D01*
X58876838Y-49410406D01*
X58912802Y-49459906D01*
X58916429Y-49505982D01*
X58913500Y-49524479D01*
X58913500Y-50487521D01*
X58928352Y-50581299D01*
X58928353Y-50581302D01*
X58935871Y-50596057D01*
X58945441Y-50656489D01*
X58935871Y-50685943D01*
X58928354Y-50700696D01*
X58913500Y-50794479D01*
X58913500Y-51757521D01*
X58928352Y-51851299D01*
X58928353Y-51851302D01*
X58935871Y-51866057D01*
X58945441Y-51926489D01*
X58935871Y-51955943D01*
X58928354Y-51970696D01*
X58913500Y-52064479D01*
X58913500Y-53027521D01*
X58928352Y-53121299D01*
X58928353Y-53121302D01*
X58928353Y-53121303D01*
X58928354Y-53121304D01*
X58929396Y-53123350D01*
X58935871Y-53136057D01*
X58945441Y-53196489D01*
X58935871Y-53225943D01*
X58928354Y-53240696D01*
X58913500Y-53334479D01*
X58913500Y-54297521D01*
X58928352Y-54391299D01*
X58928353Y-54391302D01*
X58935871Y-54406057D01*
X58945441Y-54466489D01*
X58935871Y-54495943D01*
X58928354Y-54510696D01*
X58913500Y-54604479D01*
X58913500Y-55567521D01*
X58928352Y-55661299D01*
X58928353Y-55661302D01*
X58935871Y-55676057D01*
X58945441Y-55736489D01*
X58935871Y-55765942D01*
X58932312Y-55772928D01*
X58928354Y-55780696D01*
X58913500Y-55874479D01*
X58913500Y-56837521D01*
X58928352Y-56931299D01*
X58928353Y-56931302D01*
X58935871Y-56946057D01*
X58945441Y-57006489D01*
X58935871Y-57035943D01*
X58928354Y-57050696D01*
X58913500Y-57144479D01*
X58913500Y-58107521D01*
X58928352Y-58201299D01*
X58928353Y-58201302D01*
X58935871Y-58216057D01*
X58945441Y-58276489D01*
X58935871Y-58305943D01*
X58928354Y-58320696D01*
X58913500Y-58414479D01*
X58913500Y-59377521D01*
X58928352Y-59471299D01*
X58928353Y-59471302D01*
X58935871Y-59486057D01*
X58945441Y-59546489D01*
X58935871Y-59575943D01*
X58928354Y-59590696D01*
X58913500Y-59684479D01*
X58913500Y-60647521D01*
X58928352Y-60741299D01*
X58928353Y-60741302D01*
X58935871Y-60756057D01*
X58945441Y-60816489D01*
X58935871Y-60845943D01*
X58928354Y-60860696D01*
X58913500Y-60954479D01*
X58913500Y-61917521D01*
X58928352Y-62011299D01*
X58928353Y-62011302D01*
X58935871Y-62026057D01*
X58945441Y-62086489D01*
X58935873Y-62115938D01*
X58930524Y-62126438D01*
X58887263Y-62169706D01*
X58842311Y-62180500D01*
X45764677Y-62180500D01*
X45706486Y-62161593D01*
X45694673Y-62151504D01*
X44439496Y-60896327D01*
X44411719Y-60841810D01*
X44410500Y-60826323D01*
X44410500Y-55290818D01*
X44410033Y-55289074D01*
X44374688Y-55157164D01*
X44305505Y-55037335D01*
X44207665Y-54939495D01*
X44207662Y-54939493D01*
X43307958Y-54039789D01*
X43280181Y-53985272D01*
X43279585Y-53958698D01*
X43279744Y-53957285D01*
X43280565Y-53950000D01*
X43260368Y-53770745D01*
X43252370Y-53747889D01*
X43217335Y-53647764D01*
X43200789Y-53600478D01*
X43104816Y-53447738D01*
X42977262Y-53320184D01*
X42977259Y-53320182D01*
X42977258Y-53320181D01*
X42824523Y-53224211D01*
X42654261Y-53164633D01*
X42654257Y-53164632D01*
X42475000Y-53144435D01*
X42295742Y-53164632D01*
X42295738Y-53164633D01*
X42125477Y-53224211D01*
X42125476Y-53224211D01*
X42067171Y-53260847D01*
X42007840Y-53275797D01*
X41951053Y-53253018D01*
X41918501Y-53201210D01*
X41915500Y-53177021D01*
X41915500Y-47086387D01*
X41934407Y-47028196D01*
X41944490Y-47016389D01*
X42386384Y-46574494D01*
X42440901Y-46546718D01*
X42456388Y-46545499D01*
X43184923Y-46545499D01*
X43243114Y-46564406D01*
G37*
%TD.AperFunction*%
%TA.AperFunction,Conductor*%
G36*
X68109253Y-60401943D02*
G01*
X68139585Y-60425855D01*
X68175998Y-60468490D01*
X68176000Y-60468492D01*
X68284166Y-60534777D01*
X68284171Y-60534780D01*
X68318819Y-60549132D01*
X68348694Y-60560153D01*
X68425342Y-60572293D01*
X68479858Y-60600071D01*
X68507635Y-60654587D01*
X68508849Y-60671047D01*
X68508246Y-60732316D01*
X68537863Y-60855674D01*
X68537866Y-60855683D01*
X68552215Y-60890325D01*
X68552223Y-60890343D01*
X68581101Y-60947017D01*
X68581102Y-60947018D01*
X68663495Y-61043490D01*
X68771668Y-61109780D01*
X68806316Y-61124132D01*
X68836191Y-61135153D01*
X68914330Y-61147529D01*
X68961495Y-61155000D01*
X68961497Y-61155000D01*
X69914919Y-61155000D01*
X69966647Y-61169589D01*
X69992252Y-61185280D01*
X70026900Y-61199632D01*
X70056775Y-61210653D01*
X70134914Y-61223029D01*
X70182079Y-61230500D01*
X70182081Y-61230500D01*
X70236306Y-61230500D01*
X70294497Y-61249407D01*
X70324512Y-61284547D01*
X70325861Y-61287194D01*
X70335437Y-61347626D01*
X70307665Y-61402145D01*
X70260768Y-61428411D01*
X70169327Y-61450366D01*
X70169319Y-61450368D01*
X70169317Y-61450368D01*
X70169316Y-61450369D01*
X70134674Y-61464718D01*
X70134656Y-61464726D01*
X70077982Y-61493604D01*
X69981510Y-61575997D01*
X69934794Y-61652229D01*
X69888267Y-61691965D01*
X69850384Y-61699500D01*
X69721485Y-61699500D01*
X69721479Y-61699501D01*
X69662612Y-61705828D01*
X69529443Y-61755498D01*
X69415671Y-61840667D01*
X69415667Y-61840671D01*
X69330498Y-61954444D01*
X69317756Y-61988604D01*
X69279704Y-62036517D01*
X69220756Y-62052913D01*
X69163429Y-62031529D01*
X69132243Y-61988602D01*
X69119503Y-61954446D01*
X69034331Y-61840669D01*
X68976916Y-61797689D01*
X68920556Y-61755498D01*
X68920554Y-61755497D01*
X68787391Y-61705829D01*
X68787390Y-61705828D01*
X68747660Y-61701557D01*
X68728521Y-61699500D01*
X68728517Y-61699500D01*
X68603257Y-61699500D01*
X68545066Y-61680593D01*
X68515048Y-61645447D01*
X68505895Y-61627482D01*
X68423502Y-61531010D01*
X68423501Y-61531009D01*
X68315333Y-61464722D01*
X68315330Y-61464720D01*
X68315329Y-61464720D01*
X68280681Y-61450368D01*
X68272850Y-61447479D01*
X68250808Y-61439347D01*
X68125502Y-61419500D01*
X68125500Y-61419500D01*
X67974000Y-61419500D01*
X67951727Y-61420375D01*
X67942179Y-61420750D01*
X67818825Y-61450366D01*
X67818816Y-61450369D01*
X67784174Y-61464718D01*
X67784156Y-61464726D01*
X67727482Y-61493604D01*
X67631009Y-61575998D01*
X67564722Y-61684166D01*
X67564719Y-61684173D01*
X67550369Y-61718816D01*
X67539347Y-61748691D01*
X67531266Y-61799714D01*
X67503488Y-61854230D01*
X67448971Y-61882007D01*
X67388539Y-61872435D01*
X67363481Y-61854230D01*
X67031856Y-61522605D01*
X67004079Y-61468088D01*
X67013650Y-61407656D01*
X67031850Y-61382604D01*
X67994306Y-60420147D01*
X68048821Y-60392372D01*
X68109253Y-60401943D01*
G37*
%TD.AperFunction*%
%TA.AperFunction,Conductor*%
G36*
X65433115Y-51656795D02*
G01*
X65467422Y-51685674D01*
X65530313Y-51769687D01*
X65566905Y-51797079D01*
X65639338Y-51851302D01*
X65639774Y-51851628D01*
X65767886Y-51899412D01*
X65824515Y-51905500D01*
X66155500Y-51905499D01*
X66213690Y-51924406D01*
X66249655Y-51973906D01*
X66254500Y-52004499D01*
X66254500Y-53249837D01*
X66254499Y-53249855D01*
X66254499Y-53394284D01*
X66264689Y-53432311D01*
X66264689Y-53432313D01*
X66264690Y-53432313D01*
X66264690Y-53432314D01*
X66290312Y-53527936D01*
X66359495Y-53647765D01*
X66457335Y-53745605D01*
X66457337Y-53745606D01*
X68000805Y-55289074D01*
X68028582Y-55343591D01*
X68029114Y-55347439D01*
X68030704Y-55360872D01*
X68036045Y-55383119D01*
X68036046Y-55383122D01*
X68036047Y-55383124D01*
X68045469Y-55408662D01*
X68069037Y-55472545D01*
X68069040Y-55472552D01*
X68081608Y-55497217D01*
X68092399Y-55542163D01*
X68092399Y-56442232D01*
X68081610Y-56487174D01*
X68069038Y-56511850D01*
X68036044Y-56601283D01*
X68036043Y-56601286D01*
X68030705Y-56623522D01*
X68030705Y-56623523D01*
X68019500Y-56718187D01*
X68019500Y-57349009D01*
X68030706Y-57443681D01*
X68036045Y-57465919D01*
X68036046Y-57465922D01*
X68036047Y-57465924D01*
X68039580Y-57475500D01*
X68069037Y-57555345D01*
X68069040Y-57555352D01*
X68081608Y-57580017D01*
X68092399Y-57624963D01*
X68092399Y-58525032D01*
X68081610Y-58569974D01*
X68069038Y-58594650D01*
X68036044Y-58684083D01*
X68036043Y-58684086D01*
X68030705Y-58706322D01*
X68030705Y-58706323D01*
X68019499Y-58800992D01*
X68019481Y-58801309D01*
X68019453Y-58801378D01*
X68019157Y-58803887D01*
X68018502Y-58803809D01*
X67997192Y-58858290D01*
X67945666Y-58891287D01*
X67920652Y-58894499D01*
X67810056Y-58894499D01*
X67678589Y-58920649D01*
X67678583Y-58920651D01*
X67603229Y-58951865D01*
X67603228Y-58951865D01*
X67554746Y-58971946D01*
X67554745Y-58971946D01*
X67504056Y-59005817D01*
X67443288Y-59046421D01*
X67443284Y-59046424D01*
X65424205Y-61065504D01*
X65369688Y-61093281D01*
X65354201Y-61094500D01*
X64371921Y-61094500D01*
X64313730Y-61075593D01*
X64277766Y-61026093D01*
X64273628Y-60983693D01*
X64275499Y-60968116D01*
X64275500Y-60968100D01*
X64275500Y-60581899D01*
X64275499Y-60581893D01*
X64275272Y-60580000D01*
X64264877Y-60493436D01*
X64209361Y-60352658D01*
X64195832Y-60334818D01*
X64175737Y-60277031D01*
X64193446Y-60218465D01*
X64195804Y-60215218D01*
X64209361Y-60197342D01*
X64264877Y-60056564D01*
X64275500Y-59968102D01*
X64275500Y-59581898D01*
X64264877Y-59493436D01*
X64256148Y-59471302D01*
X64219166Y-59377521D01*
X64209361Y-59352658D01*
X64195832Y-59334818D01*
X64175737Y-59277031D01*
X64193446Y-59218465D01*
X64195804Y-59215218D01*
X64209361Y-59197342D01*
X64264877Y-59056564D01*
X64275500Y-58968102D01*
X64275500Y-58581898D01*
X64264877Y-58493436D01*
X64209361Y-58352658D01*
X64117922Y-58232078D01*
X63997342Y-58140639D01*
X63997341Y-58140638D01*
X63997339Y-58140637D01*
X63856565Y-58085123D01*
X63768106Y-58074500D01*
X63768102Y-58074500D01*
X62624500Y-58074500D01*
X62566309Y-58055593D01*
X62530345Y-58006093D01*
X62525500Y-57975500D01*
X62525500Y-57789171D01*
X62525501Y-57789158D01*
X62525501Y-57642818D01*
X62520717Y-57624963D01*
X62489689Y-57509165D01*
X62489687Y-57509162D01*
X62489687Y-57509160D01*
X62420508Y-57389339D01*
X62420506Y-57389337D01*
X62420505Y-57389335D01*
X61243494Y-56212325D01*
X61215718Y-56157809D01*
X61214499Y-56142322D01*
X61214499Y-56059311D01*
X64324500Y-56059311D01*
X64324500Y-56890688D01*
X64327401Y-56927565D01*
X64327401Y-56927568D01*
X64327402Y-56927569D01*
X64373256Y-57085398D01*
X64456919Y-57226865D01*
X64573135Y-57343081D01*
X64714602Y-57426744D01*
X64872431Y-57472598D01*
X64909306Y-57475500D01*
X64909311Y-57475500D01*
X66340689Y-57475500D01*
X66340694Y-57475500D01*
X66377569Y-57472598D01*
X66535398Y-57426744D01*
X66676865Y-57343081D01*
X66793081Y-57226865D01*
X66876744Y-57085398D01*
X66922598Y-56927569D01*
X66925500Y-56890694D01*
X66925500Y-56059306D01*
X66922598Y-56022431D01*
X66876744Y-55864602D01*
X66793081Y-55723135D01*
X66676865Y-55606919D01*
X66535398Y-55523256D01*
X66377569Y-55477402D01*
X66377568Y-55477401D01*
X66377565Y-55477401D01*
X66354140Y-55475558D01*
X66340694Y-55474500D01*
X64909306Y-55474500D01*
X64896773Y-55475486D01*
X64872434Y-55477401D01*
X64872427Y-55477403D01*
X64714602Y-55523256D01*
X64573136Y-55606918D01*
X64456918Y-55723136D01*
X64373256Y-55864602D01*
X64327403Y-56022427D01*
X64327401Y-56022434D01*
X64324500Y-56059311D01*
X61214499Y-56059311D01*
X61214499Y-55874478D01*
X61214498Y-55874476D01*
X61199647Y-55780700D01*
X61199646Y-55780696D01*
X61192131Y-55765948D01*
X61182557Y-55705516D01*
X61192133Y-55676048D01*
X61197484Y-55665548D01*
X61240751Y-55622287D01*
X61285690Y-55611500D01*
X63861726Y-55611500D01*
X63861742Y-55611501D01*
X63867805Y-55611501D01*
X64006171Y-55611501D01*
X64111579Y-55583256D01*
X64139824Y-55575688D01*
X64259653Y-55506505D01*
X64357493Y-55408665D01*
X64357494Y-55408662D01*
X65079662Y-54686494D01*
X65079665Y-54686493D01*
X65177505Y-54588653D01*
X65246688Y-54468824D01*
X65282500Y-54335171D01*
X65282500Y-51751675D01*
X65301407Y-51693484D01*
X65311485Y-51681683D01*
X65318169Y-51674999D01*
X65372683Y-51647224D01*
X65433115Y-51656795D01*
G37*
%TD.AperFunction*%
%TA.AperFunction,Conductor*%
G36*
X74592792Y-32243907D02*
G01*
X74628756Y-32293407D01*
X74628756Y-32354593D01*
X74604606Y-32394001D01*
X74596950Y-32401658D01*
X74596949Y-32401659D01*
X74539354Y-32514695D01*
X74524500Y-32608478D01*
X74524500Y-35421521D01*
X74524501Y-35421523D01*
X74539352Y-35515299D01*
X74539354Y-35515304D01*
X74596948Y-35628339D01*
X74599592Y-35631977D01*
X74618500Y-35690168D01*
X74618500Y-38099830D01*
X74599595Y-38158018D01*
X74596949Y-38161659D01*
X74539354Y-38274695D01*
X74524500Y-38368478D01*
X74524500Y-39891322D01*
X74505593Y-39949513D01*
X74495509Y-39961319D01*
X74102337Y-40354493D01*
X74102335Y-40354495D01*
X74102334Y-40354494D01*
X74004494Y-40452335D01*
X73935313Y-40572160D01*
X73934688Y-40574494D01*
X73934686Y-40574499D01*
X73899499Y-40705814D01*
X73899499Y-40852157D01*
X73899500Y-40852170D01*
X73899500Y-41400718D01*
X73880593Y-41458909D01*
X73850895Y-41485931D01*
X73773137Y-41531917D01*
X73773134Y-41531919D01*
X73718201Y-41586851D01*
X73663684Y-41614627D01*
X73603252Y-41605055D01*
X73578198Y-41586852D01*
X73548265Y-41556919D01*
X73406798Y-41473256D01*
X73248969Y-41427402D01*
X73248968Y-41427401D01*
X73248965Y-41427401D01*
X73225540Y-41425558D01*
X73212094Y-41424500D01*
X72555706Y-41424500D01*
X72543173Y-41425486D01*
X72518834Y-41427401D01*
X72518827Y-41427403D01*
X72361002Y-41473256D01*
X72219536Y-41556918D01*
X72219535Y-41556919D01*
X72103319Y-41673135D01*
X72058598Y-41748756D01*
X72056614Y-41752110D01*
X72010718Y-41792573D01*
X71949804Y-41798331D01*
X71897139Y-41767185D01*
X71886186Y-41752110D01*
X71839481Y-41673135D01*
X71723265Y-41556919D01*
X71581798Y-41473256D01*
X71423969Y-41427402D01*
X71423968Y-41427401D01*
X71423965Y-41427401D01*
X71400540Y-41425558D01*
X71387094Y-41424500D01*
X70730706Y-41424500D01*
X70718173Y-41425486D01*
X70693834Y-41427401D01*
X70693827Y-41427403D01*
X70536002Y-41473256D01*
X70394536Y-41556918D01*
X70278318Y-41673136D01*
X70194656Y-41814602D01*
X70148803Y-41972427D01*
X70148801Y-41972434D01*
X70147867Y-41984306D01*
X70145989Y-42008186D01*
X70145900Y-42009311D01*
X70145900Y-42653823D01*
X70126993Y-42712014D01*
X70116905Y-42723825D01*
X70020137Y-42820593D01*
X70020135Y-42820595D01*
X70020126Y-42820602D01*
X69922294Y-42918435D01*
X69853113Y-43038260D01*
X69853112Y-43038262D01*
X69852730Y-43039689D01*
X69849363Y-43052258D01*
X69849362Y-43052260D01*
X69849361Y-43052262D01*
X69817299Y-43171914D01*
X69817299Y-43318257D01*
X69817300Y-43318270D01*
X69817300Y-45093623D01*
X69798393Y-45151814D01*
X69788304Y-45163626D01*
X69602337Y-45349593D01*
X69602335Y-45349595D01*
X69602326Y-45349602D01*
X69504494Y-45447435D01*
X69435315Y-45567256D01*
X69435313Y-45567261D01*
X69435312Y-45567263D01*
X69435312Y-45567264D01*
X69427743Y-45595508D01*
X69410260Y-45660756D01*
X69399499Y-45700918D01*
X69399499Y-45847257D01*
X69399500Y-45847270D01*
X69399500Y-51038558D01*
X69380593Y-51096749D01*
X69370504Y-51108562D01*
X68794504Y-51684562D01*
X68739987Y-51712339D01*
X68679555Y-51702768D01*
X68636290Y-51659503D01*
X68625500Y-51614558D01*
X68625500Y-47689107D01*
X68624266Y-47684503D01*
X68624264Y-47684498D01*
X68591392Y-47561815D01*
X68575054Y-47533517D01*
X68525500Y-47447687D01*
X68525499Y-47447685D01*
X68432314Y-47354500D01*
X68432314Y-47354501D01*
X68182796Y-47104983D01*
X68160042Y-47069577D01*
X68159412Y-47067888D01*
X68159412Y-47067886D01*
X68111628Y-46939774D01*
X68107098Y-46933723D01*
X68074422Y-46890072D01*
X68072273Y-46887202D01*
X68052538Y-46829288D01*
X68065792Y-46778374D01*
X68078892Y-46755686D01*
X68113000Y-46628392D01*
X68113000Y-46496607D01*
X68113000Y-45846458D01*
X68131907Y-45788267D01*
X68161600Y-45761247D01*
X68276865Y-45693081D01*
X68393081Y-45576865D01*
X68476744Y-45435398D01*
X68522598Y-45277569D01*
X68525500Y-45240694D01*
X68525500Y-44209306D01*
X68522598Y-44172431D01*
X68476744Y-44014602D01*
X68393081Y-43873135D01*
X68276865Y-43756919D01*
X68274623Y-43755593D01*
X68215425Y-43720583D01*
X68174963Y-43674687D01*
X68169205Y-43613773D01*
X68200352Y-43561109D01*
X68215418Y-43550162D01*
X68269665Y-43518081D01*
X68385881Y-43401865D01*
X68469544Y-43260398D01*
X68515398Y-43102569D01*
X68518300Y-43065694D01*
X68518300Y-41984306D01*
X68515398Y-41947431D01*
X68469544Y-41789602D01*
X68454777Y-41764633D01*
X68429147Y-41721294D01*
X68415799Y-41661583D01*
X68440099Y-41605429D01*
X68492764Y-41574283D01*
X68514360Y-41571899D01*
X69213321Y-41571899D01*
X69213322Y-41571898D01*
X69260211Y-41564472D01*
X69307099Y-41557047D01*
X69307099Y-41557046D01*
X69307104Y-41557046D01*
X69420142Y-41499450D01*
X69509850Y-41409742D01*
X69567446Y-41296704D01*
X69582300Y-41202919D01*
X69582299Y-38389882D01*
X69582299Y-38389881D01*
X69582299Y-38389878D01*
X69582298Y-38389876D01*
X69567447Y-38296100D01*
X69567446Y-38296098D01*
X69567446Y-38296096D01*
X69509850Y-38183058D01*
X69420142Y-38093350D01*
X69307104Y-38035754D01*
X69307106Y-38035754D01*
X69290810Y-38033173D01*
X69236294Y-38005393D01*
X69208518Y-37950876D01*
X69207300Y-37935392D01*
X69207300Y-35897407D01*
X69226207Y-35839216D01*
X69275707Y-35803252D01*
X69290812Y-35799626D01*
X69307104Y-35797046D01*
X69420142Y-35739450D01*
X69509850Y-35649742D01*
X69567446Y-35536704D01*
X69582300Y-35442919D01*
X69582299Y-32629882D01*
X69582299Y-32629881D01*
X69582299Y-32629878D01*
X69582298Y-32629876D01*
X69567447Y-32536100D01*
X69567446Y-32536098D01*
X69567446Y-32536096D01*
X69509850Y-32423058D01*
X69480793Y-32394001D01*
X69453018Y-32339487D01*
X69462589Y-32279055D01*
X69505854Y-32235790D01*
X69550799Y-32225000D01*
X74534601Y-32225000D01*
X74592792Y-32243907D01*
G37*
%TD.AperFunction*%
%TA.AperFunction,Conductor*%
G36*
X66688935Y-43069407D02*
G01*
X66724899Y-43118907D01*
X66725802Y-43121845D01*
X66766056Y-43260398D01*
X66849719Y-43401865D01*
X66965935Y-43518081D01*
X67014874Y-43547023D01*
X67055336Y-43592918D01*
X67061094Y-43653832D01*
X67029948Y-43706497D01*
X67014874Y-43717449D01*
X66948137Y-43756917D01*
X66831918Y-43873136D01*
X66748256Y-44014602D01*
X66702403Y-44172427D01*
X66702401Y-44172434D01*
X66702173Y-44175335D01*
X66699500Y-44209306D01*
X66699500Y-45240694D01*
X66699702Y-45243255D01*
X66702401Y-45277565D01*
X66702401Y-45277568D01*
X66702402Y-45277569D01*
X66748256Y-45435398D01*
X66831919Y-45576865D01*
X66948135Y-45693081D01*
X67063397Y-45761246D01*
X67103857Y-45807140D01*
X67112000Y-45846458D01*
X67112000Y-46314178D01*
X67093093Y-46372369D01*
X67083004Y-46384181D01*
X66801680Y-46665504D01*
X66747165Y-46693281D01*
X66731678Y-46694500D01*
X65824521Y-46694500D01*
X65824515Y-46694501D01*
X65767888Y-46700587D01*
X65767884Y-46700588D01*
X65759094Y-46703867D01*
X65697965Y-46706486D01*
X65646971Y-46672673D01*
X65625591Y-46615345D01*
X65625500Y-46611108D01*
X65625500Y-46196811D01*
X65622598Y-46159934D01*
X65622598Y-46159931D01*
X65576744Y-46002102D01*
X65493081Y-45860635D01*
X65376865Y-45744419D01*
X65235398Y-45660756D01*
X65077569Y-45614902D01*
X65077568Y-45614901D01*
X65077565Y-45614901D01*
X65054140Y-45613058D01*
X65040694Y-45612000D01*
X64009306Y-45612000D01*
X63996773Y-45612986D01*
X63972434Y-45614901D01*
X63972427Y-45614903D01*
X63814602Y-45660756D01*
X63673136Y-45744418D01*
X63556918Y-45860636D01*
X63473256Y-46002102D01*
X63427403Y-46159927D01*
X63427401Y-46159934D01*
X63424500Y-46196811D01*
X63424500Y-46853188D01*
X63427401Y-46890065D01*
X63427401Y-46890068D01*
X63427402Y-46890069D01*
X63473256Y-47047898D01*
X63556919Y-47189365D01*
X63666302Y-47298748D01*
X63694078Y-47353263D01*
X63684507Y-47413695D01*
X63666303Y-47438750D01*
X63571537Y-47533517D01*
X63556918Y-47548136D01*
X63473256Y-47689602D01*
X63427403Y-47847427D01*
X63427401Y-47847434D01*
X63424500Y-47884311D01*
X63424500Y-48540688D01*
X63427401Y-48577565D01*
X63427401Y-48577568D01*
X63427402Y-48577569D01*
X63473256Y-48735398D01*
X63556919Y-48876865D01*
X63673135Y-48993081D01*
X63752110Y-49039787D01*
X63792573Y-49085682D01*
X63798331Y-49146596D01*
X63767185Y-49199261D01*
X63752113Y-49210211D01*
X63719182Y-49229687D01*
X63673136Y-49256918D01*
X63673135Y-49256918D01*
X63673135Y-49256919D01*
X63556919Y-49373135D01*
X63556917Y-49373137D01*
X63553104Y-49376951D01*
X63498587Y-49404728D01*
X63438155Y-49395157D01*
X63413099Y-49376953D01*
X63326865Y-49290719D01*
X63185398Y-49207056D01*
X63027569Y-49161202D01*
X63027568Y-49161201D01*
X63027565Y-49161201D01*
X63004140Y-49159358D01*
X62990694Y-49158300D01*
X61959306Y-49158300D01*
X61946773Y-49159286D01*
X61922434Y-49161201D01*
X61922427Y-49161203D01*
X61764602Y-49207056D01*
X61623136Y-49290718D01*
X61506918Y-49406936D01*
X61423256Y-49548401D01*
X61423256Y-49548402D01*
X61413606Y-49581619D01*
X61408568Y-49598959D01*
X61374176Y-49649564D01*
X61316608Y-49670289D01*
X61257852Y-49653219D01*
X61220352Y-49604872D01*
X61214499Y-49571338D01*
X61214499Y-49524478D01*
X61214498Y-49524476D01*
X61199647Y-49430700D01*
X61199646Y-49430698D01*
X61199646Y-49430696D01*
X61142050Y-49317658D01*
X61052342Y-49227950D01*
X60939304Y-49170354D01*
X60939305Y-49170354D01*
X60845522Y-49155500D01*
X60845519Y-49155500D01*
X60688500Y-49155500D01*
X60630309Y-49136593D01*
X60594345Y-49087093D01*
X60589500Y-49056500D01*
X60589500Y-47269982D01*
X60608407Y-47211791D01*
X60618496Y-47199978D01*
X62516139Y-45302335D01*
X64472505Y-43345970D01*
X64541689Y-43226140D01*
X64550641Y-43192728D01*
X64583963Y-43141416D01*
X64641084Y-43119488D01*
X64700184Y-43135322D01*
X64716265Y-43148343D01*
X64722738Y-43154816D01*
X64722740Y-43154817D01*
X64722741Y-43154818D01*
X64867060Y-43245500D01*
X64875478Y-43250789D01*
X64943657Y-43274646D01*
X65045738Y-43310366D01*
X65045742Y-43310367D01*
X65045745Y-43310368D01*
X65225000Y-43330565D01*
X65404255Y-43310368D01*
X65404490Y-43310286D01*
X65443264Y-43296718D01*
X65574522Y-43250789D01*
X65727262Y-43154816D01*
X65782578Y-43099500D01*
X65802583Y-43079496D01*
X65857100Y-43051719D01*
X65872586Y-43050500D01*
X66630744Y-43050500D01*
X66688935Y-43069407D01*
G37*
%TD.AperFunction*%
%TA.AperFunction,Conductor*%
G36*
X53398414Y-42912601D02*
G01*
X53464598Y-42951742D01*
X53464599Y-42951742D01*
X53464602Y-42951744D01*
X53622431Y-42997598D01*
X53659306Y-43000500D01*
X54575500Y-43000500D01*
X54633691Y-43019407D01*
X54669655Y-43068907D01*
X54674500Y-43099500D01*
X54674500Y-46036322D01*
X54655593Y-46094513D01*
X54645504Y-46106326D01*
X53690325Y-47061504D01*
X53635808Y-47089281D01*
X53620321Y-47090500D01*
X53252479Y-47090500D01*
X53252478Y-47090501D01*
X53158700Y-47105352D01*
X53158697Y-47105353D01*
X53143943Y-47112871D01*
X53083511Y-47122441D01*
X53054057Y-47112871D01*
X53039298Y-47105351D01*
X53035438Y-47104097D01*
X52985939Y-47068131D01*
X52967756Y-47021876D01*
X52967444Y-47019310D01*
X52961237Y-46968182D01*
X52905220Y-46820477D01*
X52834551Y-46718095D01*
X52815484Y-46690471D01*
X52743649Y-46626831D01*
X52697240Y-46585717D01*
X52618029Y-46544143D01*
X52575293Y-46500361D01*
X52565761Y-46444554D01*
X52580278Y-46325000D01*
X52569063Y-46232644D01*
X52579132Y-46175768D01*
X52604846Y-46125304D01*
X52619700Y-46031519D01*
X52619699Y-45718482D01*
X52607347Y-45640486D01*
X52607347Y-45609512D01*
X52612518Y-45576863D01*
X52619700Y-45531519D01*
X52619699Y-45218482D01*
X52614084Y-45183027D01*
X52607347Y-45140486D01*
X52607347Y-45109513D01*
X52619291Y-45034102D01*
X52647068Y-44979585D01*
X52693378Y-44953466D01*
X52757365Y-44937696D01*
X52897240Y-44864283D01*
X53015483Y-44759530D01*
X53105220Y-44629523D01*
X53161237Y-44481818D01*
X53177937Y-44344284D01*
X53180278Y-44325001D01*
X53180278Y-44324998D01*
X53162106Y-44175337D01*
X53161237Y-44168182D01*
X53105220Y-44020477D01*
X53015483Y-43890470D01*
X52897240Y-43785717D01*
X52798137Y-43733703D01*
X52757364Y-43712303D01*
X52603987Y-43674500D01*
X52603985Y-43674500D01*
X52446015Y-43674500D01*
X52446012Y-43674500D01*
X52292635Y-43712303D01*
X52207633Y-43756917D01*
X52152760Y-43785717D01*
X52152759Y-43785717D01*
X52148106Y-43788160D01*
X52102098Y-43799500D01*
X52006963Y-43799500D01*
X52006947Y-43799499D01*
X52000884Y-43799499D01*
X51988744Y-43799499D01*
X51930553Y-43780592D01*
X51894589Y-43731092D01*
X51894589Y-43669906D01*
X51918740Y-43630495D01*
X52069739Y-43479496D01*
X52124256Y-43451719D01*
X52139743Y-43450500D01*
X52690689Y-43450500D01*
X52690694Y-43450500D01*
X52727569Y-43447598D01*
X52885398Y-43401744D01*
X53026865Y-43318081D01*
X53143081Y-43201865D01*
X53226744Y-43060398D01*
X53252951Y-42970191D01*
X53287341Y-42919589D01*
X53344909Y-42898863D01*
X53398414Y-42912601D01*
G37*
%TD.AperFunction*%
%TA.AperFunction,Conductor*%
G36*
X67870992Y-32243907D02*
G01*
X67906956Y-32293407D01*
X67906956Y-32354593D01*
X67882806Y-32394001D01*
X67853750Y-32423058D01*
X67853749Y-32423059D01*
X67796154Y-32536095D01*
X67781300Y-32629878D01*
X67781300Y-35442921D01*
X67781301Y-35442923D01*
X67796152Y-35536699D01*
X67796154Y-35536704D01*
X67853750Y-35649742D01*
X67943458Y-35739450D01*
X68056496Y-35797046D01*
X68072786Y-35799626D01*
X68127303Y-35827403D01*
X68155081Y-35881919D01*
X68156300Y-35897407D01*
X68156300Y-37935392D01*
X68137393Y-37993583D01*
X68087893Y-38029547D01*
X68072787Y-38033173D01*
X68056499Y-38035752D01*
X68056495Y-38035754D01*
X67943459Y-38093349D01*
X67853749Y-38183059D01*
X67796154Y-38296095D01*
X67781300Y-38389878D01*
X67781300Y-39912722D01*
X67762393Y-39970913D01*
X67752304Y-39982726D01*
X67295137Y-40439893D01*
X67295135Y-40439895D01*
X67295134Y-40439894D01*
X67197297Y-40537732D01*
X67197295Y-40537734D01*
X67197295Y-40537735D01*
X67128112Y-40657564D01*
X67128112Y-40657565D01*
X67128111Y-40657567D01*
X67124738Y-40670155D01*
X67124738Y-40670156D01*
X67092299Y-40791214D01*
X67092299Y-40937557D01*
X67092300Y-40937570D01*
X67092300Y-41400718D01*
X67073393Y-41458909D01*
X67043695Y-41485931D01*
X66965938Y-41531916D01*
X66849718Y-41648136D01*
X66779313Y-41767185D01*
X66766056Y-41789602D01*
X66725811Y-41928121D01*
X66691422Y-41978725D01*
X66633854Y-41999451D01*
X66630744Y-41999500D01*
X65872586Y-41999500D01*
X65814395Y-41980593D01*
X65802583Y-41970504D01*
X65727263Y-41895185D01*
X65727258Y-41895181D01*
X65574523Y-41799211D01*
X65404261Y-41739633D01*
X65404257Y-41739632D01*
X65225000Y-41719435D01*
X65045742Y-41739632D01*
X65045738Y-41739633D01*
X64875477Y-41799211D01*
X64875476Y-41799211D01*
X64729171Y-41891141D01*
X64669840Y-41906091D01*
X64613053Y-41883312D01*
X64580501Y-41831505D01*
X64577500Y-41807315D01*
X64577500Y-40795499D01*
X64596407Y-40737308D01*
X64645907Y-40701344D01*
X64676500Y-40696499D01*
X66108521Y-40696499D01*
X66108522Y-40696498D01*
X66155411Y-40689072D01*
X66202299Y-40681647D01*
X66202299Y-40681646D01*
X66202304Y-40681646D01*
X66315342Y-40624050D01*
X66405050Y-40534342D01*
X66462646Y-40421304D01*
X66477500Y-40327519D01*
X66477499Y-38564482D01*
X66477499Y-38564481D01*
X66477499Y-38564478D01*
X66477498Y-38564476D01*
X66462647Y-38470700D01*
X66462646Y-38470698D01*
X66462646Y-38470696D01*
X66405050Y-38357658D01*
X66315342Y-38267950D01*
X66202304Y-38210354D01*
X66202305Y-38210354D01*
X66108522Y-38195500D01*
X66108519Y-38195500D01*
X65867156Y-38195500D01*
X65808965Y-38176593D01*
X65773001Y-38127093D01*
X65773001Y-38065907D01*
X65808965Y-38016407D01*
X65825317Y-38006775D01*
X65835338Y-38002102D01*
X65854639Y-37993102D01*
X66033877Y-37867598D01*
X66188598Y-37712877D01*
X66314102Y-37533639D01*
X66406575Y-37335330D01*
X66463207Y-37123977D01*
X66481490Y-36915003D01*
X66482277Y-36906003D01*
X66482277Y-36905996D01*
X66463208Y-36688030D01*
X66463207Y-36688027D01*
X66463207Y-36688023D01*
X66406575Y-36476670D01*
X66380020Y-36419723D01*
X66314107Y-36278372D01*
X66314103Y-36278364D01*
X66188601Y-36099127D01*
X66188600Y-36099126D01*
X66188598Y-36099123D01*
X66033877Y-35944402D01*
X66033873Y-35944399D01*
X66033872Y-35944398D01*
X65867492Y-35827898D01*
X65854639Y-35818898D01*
X65656330Y-35726425D01*
X65444977Y-35669793D01*
X65444976Y-35669792D01*
X65444969Y-35669791D01*
X65227003Y-35650723D01*
X65226997Y-35650723D01*
X65009030Y-35669791D01*
X64797666Y-35726426D01*
X64599372Y-35818892D01*
X64599364Y-35818896D01*
X64420127Y-35944398D01*
X64265398Y-36099127D01*
X64139896Y-36278364D01*
X64139892Y-36278372D01*
X64047426Y-36476666D01*
X63990791Y-36688030D01*
X63971723Y-36905996D01*
X63971723Y-36906003D01*
X63990791Y-37123969D01*
X63990792Y-37123971D01*
X63990793Y-37123977D01*
X63993205Y-37132977D01*
X64034126Y-37285699D01*
X64030923Y-37346801D01*
X64008503Y-37381325D01*
X63729337Y-37660492D01*
X63729337Y-37660493D01*
X63729335Y-37660495D01*
X63729334Y-37660494D01*
X63631497Y-37758332D01*
X63631495Y-37758334D01*
X63631495Y-37758335D01*
X63562312Y-37878164D01*
X63562312Y-37878165D01*
X63562311Y-37878167D01*
X63558938Y-37890755D01*
X63558938Y-37890756D01*
X63526499Y-38011814D01*
X63526499Y-38158157D01*
X63526500Y-38158170D01*
X63526500Y-42764626D01*
X63507593Y-42822817D01*
X63497503Y-42834630D01*
X63101730Y-43230402D01*
X63047214Y-43258179D01*
X62986782Y-43248608D01*
X62959264Y-43226152D01*
X62958747Y-43226670D01*
X62954817Y-43222740D01*
X62954816Y-43222738D01*
X62827262Y-43095184D01*
X62827259Y-43095182D01*
X62827258Y-43095181D01*
X62674523Y-42999211D01*
X62504261Y-42939633D01*
X62504257Y-42939632D01*
X62325000Y-42919435D01*
X62145742Y-42939632D01*
X62145738Y-42939633D01*
X61975477Y-42999211D01*
X61975476Y-42999211D01*
X61822741Y-43095181D01*
X61695181Y-43222741D01*
X61599211Y-43375476D01*
X61599211Y-43375477D01*
X61539633Y-43545738D01*
X61539632Y-43545742D01*
X61530100Y-43630345D01*
X61519492Y-43724500D01*
X61519435Y-43725002D01*
X61520415Y-43733703D01*
X61508139Y-43793644D01*
X61492041Y-43814787D01*
X58491337Y-46815493D01*
X58491335Y-46815495D01*
X58491334Y-46815494D01*
X58393497Y-46913332D01*
X58393495Y-46913334D01*
X58393495Y-46913335D01*
X58324312Y-47033164D01*
X58324312Y-47033165D01*
X58317796Y-47044452D01*
X58316961Y-47043970D01*
X58291217Y-47083609D01*
X58244412Y-47104448D01*
X58238698Y-47105353D01*
X58238697Y-47105353D01*
X58223943Y-47112871D01*
X58163511Y-47122441D01*
X58134055Y-47112870D01*
X58123555Y-47107520D01*
X58080290Y-47064255D01*
X58069500Y-47019310D01*
X58069500Y-42197677D01*
X58088407Y-42139486D01*
X58098496Y-42127673D01*
X59082639Y-41143530D01*
X60073828Y-40152340D01*
X60128343Y-40124565D01*
X60188775Y-40134136D01*
X60232040Y-40177401D01*
X60242830Y-40222345D01*
X60242830Y-40327520D01*
X60242831Y-40327523D01*
X60257682Y-40421299D01*
X60257684Y-40421304D01*
X60315280Y-40534342D01*
X60404988Y-40624050D01*
X60518026Y-40681646D01*
X60611811Y-40696500D01*
X62374848Y-40696499D01*
X62374851Y-40696499D01*
X62374852Y-40696498D01*
X62421741Y-40689072D01*
X62468629Y-40681647D01*
X62468629Y-40681646D01*
X62468634Y-40681646D01*
X62581672Y-40624050D01*
X62671380Y-40534342D01*
X62728976Y-40421304D01*
X62743830Y-40327519D01*
X62743829Y-38564482D01*
X62743829Y-38564481D01*
X62743829Y-38564478D01*
X62743828Y-38564476D01*
X62728977Y-38470700D01*
X62728976Y-38470698D01*
X62728976Y-38470696D01*
X62671380Y-38357658D01*
X62581672Y-38267950D01*
X62468634Y-38210354D01*
X62468635Y-38210354D01*
X62374852Y-38195500D01*
X62374849Y-38195500D01*
X62133486Y-38195500D01*
X62075295Y-38176593D01*
X62039331Y-38127093D01*
X62039331Y-38065907D01*
X62075295Y-38016407D01*
X62091647Y-38006775D01*
X62101668Y-38002102D01*
X62120969Y-37993102D01*
X62300207Y-37867598D01*
X62454928Y-37712877D01*
X62580432Y-37533639D01*
X62672905Y-37335330D01*
X62729537Y-37123977D01*
X62747820Y-36915003D01*
X62748607Y-36906003D01*
X62748607Y-36905996D01*
X62729538Y-36688030D01*
X62729537Y-36688027D01*
X62729537Y-36688023D01*
X62672905Y-36476670D01*
X62646350Y-36419723D01*
X62580437Y-36278372D01*
X62580433Y-36278364D01*
X62454931Y-36099127D01*
X62454930Y-36099126D01*
X62454928Y-36099123D01*
X62300207Y-35944402D01*
X62300203Y-35944399D01*
X62300202Y-35944398D01*
X62133822Y-35827898D01*
X62120969Y-35818898D01*
X61922660Y-35726425D01*
X61711307Y-35669793D01*
X61711306Y-35669792D01*
X61711299Y-35669791D01*
X61493333Y-35650723D01*
X61493327Y-35650723D01*
X61275360Y-35669791D01*
X61063996Y-35726426D01*
X60865702Y-35818892D01*
X60865694Y-35818896D01*
X60686457Y-35944398D01*
X60531728Y-36099127D01*
X60406226Y-36278364D01*
X60406222Y-36278372D01*
X60313756Y-36476666D01*
X60257121Y-36688030D01*
X60238053Y-36905996D01*
X60238053Y-36906003D01*
X60257121Y-37123970D01*
X60291722Y-37253104D01*
X60288519Y-37314205D01*
X60266099Y-37348729D01*
X59959337Y-37655492D01*
X59959337Y-37655493D01*
X59959335Y-37655495D01*
X59959334Y-37655494D01*
X59861497Y-37753332D01*
X59861495Y-37753334D01*
X59861495Y-37753335D01*
X59792312Y-37873164D01*
X59792312Y-37873165D01*
X59792311Y-37873167D01*
X59788938Y-37885755D01*
X59788938Y-37885756D01*
X59756499Y-38006814D01*
X59756499Y-38153157D01*
X59756500Y-38153170D01*
X59756500Y-38942321D01*
X59737593Y-39000512D01*
X59727504Y-39012325D01*
X59179167Y-39560662D01*
X59124650Y-39588439D01*
X59064218Y-39578868D01*
X59020953Y-39535603D01*
X59010163Y-39490658D01*
X59010163Y-38564478D01*
X59010162Y-38564476D01*
X58995311Y-38470700D01*
X58995310Y-38470698D01*
X58995310Y-38470696D01*
X58937714Y-38357658D01*
X58848006Y-38267950D01*
X58734968Y-38210354D01*
X58734969Y-38210354D01*
X58641186Y-38195500D01*
X58641183Y-38195500D01*
X58399820Y-38195500D01*
X58341629Y-38176593D01*
X58305665Y-38127093D01*
X58305665Y-38065907D01*
X58341629Y-38016407D01*
X58357981Y-38006775D01*
X58368002Y-38002102D01*
X58387303Y-37993102D01*
X58566541Y-37867598D01*
X58721262Y-37712877D01*
X58846766Y-37533639D01*
X58939239Y-37335330D01*
X58995871Y-37123977D01*
X59014154Y-36915003D01*
X59014941Y-36906003D01*
X59014941Y-36905996D01*
X58995872Y-36688030D01*
X58995871Y-36688027D01*
X58995871Y-36688023D01*
X58939239Y-36476670D01*
X58912684Y-36419723D01*
X58846771Y-36278372D01*
X58846767Y-36278364D01*
X58721265Y-36099127D01*
X58721264Y-36099126D01*
X58721262Y-36099123D01*
X58566541Y-35944402D01*
X58566537Y-35944399D01*
X58566536Y-35944398D01*
X58400156Y-35827898D01*
X58387303Y-35818898D01*
X58188994Y-35726425D01*
X57977641Y-35669793D01*
X57977640Y-35669792D01*
X57977633Y-35669791D01*
X57759667Y-35650723D01*
X57759661Y-35650723D01*
X57541694Y-35669791D01*
X57330330Y-35726426D01*
X57132036Y-35818892D01*
X57132028Y-35818896D01*
X56952791Y-35944398D01*
X56798062Y-36099127D01*
X56672560Y-36278364D01*
X56672556Y-36278372D01*
X56580090Y-36476666D01*
X56523455Y-36688030D01*
X56504387Y-36905996D01*
X56504387Y-36906003D01*
X56523455Y-37123971D01*
X56551434Y-37228392D01*
X56548231Y-37289493D01*
X56525811Y-37324018D01*
X55951337Y-37898493D01*
X55951335Y-37898495D01*
X55951334Y-37898494D01*
X55853495Y-37996334D01*
X55838214Y-38022802D01*
X55792743Y-38063743D01*
X55731893Y-38070137D01*
X55682474Y-38043305D01*
X55181104Y-37541935D01*
X55153327Y-37487418D01*
X55161383Y-37430094D01*
X55205573Y-37335330D01*
X55262205Y-37123977D01*
X55280488Y-36915003D01*
X55281275Y-36906003D01*
X55281275Y-36905996D01*
X55262206Y-36688030D01*
X55262205Y-36688027D01*
X55262205Y-36688023D01*
X55205573Y-36476670D01*
X55179018Y-36419723D01*
X55113105Y-36278372D01*
X55113101Y-36278364D01*
X54987599Y-36099127D01*
X54987598Y-36099126D01*
X54987596Y-36099123D01*
X54832875Y-35944402D01*
X54832871Y-35944399D01*
X54832870Y-35944398D01*
X54666490Y-35827898D01*
X54653637Y-35818898D01*
X54455328Y-35726425D01*
X54243975Y-35669793D01*
X54243974Y-35669792D01*
X54243967Y-35669791D01*
X54026001Y-35650723D01*
X54025995Y-35650723D01*
X53808028Y-35669791D01*
X53596664Y-35726426D01*
X53398370Y-35818892D01*
X53398362Y-35818896D01*
X53219125Y-35944398D01*
X53064396Y-36099127D01*
X52938894Y-36278364D01*
X52938890Y-36278372D01*
X52846424Y-36476666D01*
X52789789Y-36688030D01*
X52770721Y-36905996D01*
X52770721Y-36906003D01*
X52789789Y-37123969D01*
X52789790Y-37123971D01*
X52789791Y-37123977D01*
X52846423Y-37335330D01*
X52938896Y-37533639D01*
X52945198Y-37542639D01*
X53061219Y-37708335D01*
X53064400Y-37712877D01*
X53219121Y-37867598D01*
X53219124Y-37867600D01*
X53219125Y-37867601D01*
X53263245Y-37898494D01*
X53398359Y-37993102D01*
X53398360Y-37993102D01*
X53398361Y-37993103D01*
X53398363Y-37993104D01*
X53427681Y-38006775D01*
X53472430Y-38048503D01*
X53484105Y-38108564D01*
X53458248Y-38164017D01*
X53404734Y-38193681D01*
X53385843Y-38195500D01*
X53144476Y-38195500D01*
X53144474Y-38195501D01*
X53050698Y-38210352D01*
X53050693Y-38210354D01*
X52937657Y-38267949D01*
X52847947Y-38357659D01*
X52790352Y-38470695D01*
X52775498Y-38564478D01*
X52775498Y-39463322D01*
X52756591Y-39521513D01*
X52707091Y-39557477D01*
X52645905Y-39557477D01*
X52606494Y-39533326D01*
X51971828Y-38898660D01*
X51944051Y-38844143D01*
X51942832Y-38828656D01*
X51942832Y-37961818D01*
X51935751Y-37935392D01*
X51907020Y-37828164D01*
X51837837Y-37708335D01*
X51739997Y-37610495D01*
X51739994Y-37610493D01*
X51510828Y-37381327D01*
X51483051Y-37326810D01*
X51485205Y-37285700D01*
X51528539Y-37123977D01*
X51546822Y-36915003D01*
X51547609Y-36906003D01*
X51547609Y-36905996D01*
X51528540Y-36688030D01*
X51528539Y-36688027D01*
X51528539Y-36688023D01*
X51471907Y-36476670D01*
X51445352Y-36419723D01*
X51379439Y-36278372D01*
X51379435Y-36278364D01*
X51253933Y-36099127D01*
X51253932Y-36099126D01*
X51253930Y-36099123D01*
X51099209Y-35944402D01*
X51099205Y-35944399D01*
X51099204Y-35944398D01*
X50932824Y-35827898D01*
X50919971Y-35818898D01*
X50721662Y-35726425D01*
X50510309Y-35669793D01*
X50510308Y-35669792D01*
X50510301Y-35669791D01*
X50292335Y-35650723D01*
X50292329Y-35650723D01*
X50074362Y-35669791D01*
X49862998Y-35726426D01*
X49664704Y-35818892D01*
X49664696Y-35818896D01*
X49485459Y-35944398D01*
X49330730Y-36099127D01*
X49205228Y-36278364D01*
X49205224Y-36278372D01*
X49112758Y-36476666D01*
X49056123Y-36688030D01*
X49037055Y-36905996D01*
X49037055Y-36906003D01*
X49056123Y-37123969D01*
X49056124Y-37123971D01*
X49056125Y-37123977D01*
X49112757Y-37335330D01*
X49205230Y-37533639D01*
X49211532Y-37542639D01*
X49327553Y-37708335D01*
X49330734Y-37712877D01*
X49485455Y-37867598D01*
X49485458Y-37867600D01*
X49485459Y-37867601D01*
X49529579Y-37898494D01*
X49664693Y-37993102D01*
X49664694Y-37993102D01*
X49664695Y-37993103D01*
X49664697Y-37993104D01*
X49694015Y-38006775D01*
X49738764Y-38048503D01*
X49750439Y-38108564D01*
X49724582Y-38164017D01*
X49671068Y-38193681D01*
X49652177Y-38195500D01*
X49410810Y-38195500D01*
X49410808Y-38195501D01*
X49317032Y-38210352D01*
X49317027Y-38210354D01*
X49203991Y-38267949D01*
X49114281Y-38357659D01*
X49056686Y-38470695D01*
X49041832Y-38564478D01*
X49041832Y-40249636D01*
X49022925Y-40307827D01*
X48973425Y-40343791D01*
X48968459Y-40345261D01*
X48893216Y-40365423D01*
X48764228Y-40439894D01*
X48756281Y-40444482D01*
X48644479Y-40556283D01*
X48644480Y-40556284D01*
X48644478Y-40556286D01*
X48085010Y-41115753D01*
X48030493Y-41143530D01*
X47970061Y-41133959D01*
X47926796Y-41090694D01*
X47917225Y-41061234D01*
X47910647Y-41019700D01*
X47910646Y-41019698D01*
X47910646Y-41019696D01*
X47853050Y-40906658D01*
X47763342Y-40816950D01*
X47650304Y-40759354D01*
X47650305Y-40759354D01*
X47556522Y-40744500D01*
X47315155Y-40744500D01*
X47256964Y-40725593D01*
X47221000Y-40676093D01*
X47221000Y-40614907D01*
X47256964Y-40565407D01*
X47273317Y-40555775D01*
X47302639Y-40542102D01*
X47481877Y-40416598D01*
X47636598Y-40261877D01*
X47762102Y-40082639D01*
X47854575Y-39884330D01*
X47911207Y-39672977D01*
X47918697Y-39587372D01*
X47930277Y-39455003D01*
X47930277Y-39454996D01*
X47911208Y-39237030D01*
X47911207Y-39237027D01*
X47911207Y-39237023D01*
X47854575Y-39025670D01*
X47794577Y-38897004D01*
X47762107Y-38827372D01*
X47762103Y-38827364D01*
X47716406Y-38762102D01*
X47636598Y-38648123D01*
X47481877Y-38493402D01*
X47481873Y-38493399D01*
X47481872Y-38493398D01*
X47334034Y-38389881D01*
X47302639Y-38367898D01*
X47104330Y-38275425D01*
X47104325Y-38275423D01*
X47102827Y-38274725D01*
X47058079Y-38232996D01*
X47046404Y-38172935D01*
X47072262Y-38117482D01*
X47102827Y-38095275D01*
X47104325Y-38094576D01*
X47104330Y-38094575D01*
X47302639Y-38002102D01*
X47481877Y-37876598D01*
X47636598Y-37721877D01*
X47762102Y-37542639D01*
X47854575Y-37344330D01*
X47911207Y-37132977D01*
X47911995Y-37123977D01*
X47930277Y-36915003D01*
X47930277Y-36914996D01*
X47911208Y-36697030D01*
X47911207Y-36697027D01*
X47911207Y-36697023D01*
X47854575Y-36485670D01*
X47762102Y-36287362D01*
X47636598Y-36108123D01*
X47481877Y-35953402D01*
X47481873Y-35953399D01*
X47481872Y-35953398D01*
X47379789Y-35881919D01*
X47302639Y-35827898D01*
X47301577Y-35827403D01*
X47242007Y-35799625D01*
X47104330Y-35735425D01*
X46892977Y-35678793D01*
X46892976Y-35678792D01*
X46892969Y-35678791D01*
X46675003Y-35659723D01*
X46674997Y-35659723D01*
X46457030Y-35678791D01*
X46245666Y-35735426D01*
X46047372Y-35827892D01*
X46047364Y-35827896D01*
X45868127Y-35953398D01*
X45713398Y-36108127D01*
X45587896Y-36287364D01*
X45587892Y-36287372D01*
X45495426Y-36485666D01*
X45438791Y-36697030D01*
X45419723Y-36914996D01*
X45419723Y-36915003D01*
X45438791Y-37132969D01*
X45438792Y-37132976D01*
X45438793Y-37132977D01*
X45495425Y-37344330D01*
X45547975Y-37457023D01*
X45587897Y-37542637D01*
X45707096Y-37712872D01*
X45713402Y-37721877D01*
X45868123Y-37876598D01*
X45868126Y-37876600D01*
X45868127Y-37876601D01*
X45907818Y-37904393D01*
X46047361Y-38002102D01*
X46245670Y-38094575D01*
X46245671Y-38094575D01*
X46247172Y-38095275D01*
X46291920Y-38137004D01*
X46303595Y-38197065D01*
X46277737Y-38252518D01*
X46247172Y-38274724D01*
X46047372Y-38367892D01*
X46047364Y-38367896D01*
X45868127Y-38493398D01*
X45713398Y-38648127D01*
X45587896Y-38827364D01*
X45587892Y-38827372D01*
X45495426Y-39025666D01*
X45438791Y-39237030D01*
X45419723Y-39454996D01*
X45419723Y-39455003D01*
X45438791Y-39672969D01*
X45438792Y-39672976D01*
X45438793Y-39672977D01*
X45495425Y-39884330D01*
X45541308Y-39982726D01*
X45587897Y-40082637D01*
X45704830Y-40249636D01*
X45713402Y-40261877D01*
X45868123Y-40416598D01*
X45868126Y-40416600D01*
X45868127Y-40416601D01*
X45907945Y-40444482D01*
X46047361Y-40542102D01*
X46047362Y-40542102D01*
X46047363Y-40542103D01*
X46047365Y-40542104D01*
X46076683Y-40555775D01*
X46121432Y-40597503D01*
X46133107Y-40657564D01*
X46107250Y-40713017D01*
X46053736Y-40742681D01*
X46034845Y-40744500D01*
X45793478Y-40744500D01*
X45793476Y-40744501D01*
X45699700Y-40759352D01*
X45699695Y-40759354D01*
X45586659Y-40816949D01*
X45496949Y-40906659D01*
X45439354Y-41019695D01*
X45424500Y-41113478D01*
X45424500Y-42876521D01*
X45424501Y-42876523D01*
X45439352Y-42970299D01*
X45439354Y-42970304D01*
X45496950Y-43083342D01*
X45586658Y-43173050D01*
X45699696Y-43230646D01*
X45793481Y-43245500D01*
X46975500Y-43245499D01*
X47033691Y-43264406D01*
X47069655Y-43313906D01*
X47074500Y-43344499D01*
X47074500Y-43679063D01*
X47074499Y-43679081D01*
X47074499Y-43795074D01*
X47055592Y-43853265D01*
X47025896Y-43880286D01*
X47023133Y-43881919D01*
X47023131Y-43881921D01*
X46906920Y-43998133D01*
X46823256Y-44139602D01*
X46777403Y-44297427D01*
X46777401Y-44297434D01*
X46774500Y-44334311D01*
X46774500Y-44885257D01*
X46755593Y-44943448D01*
X46745504Y-44955260D01*
X46380262Y-45320503D01*
X46325745Y-45348281D01*
X46310258Y-45349500D01*
X44424500Y-45349500D01*
X44366309Y-45330593D01*
X44330345Y-45281093D01*
X44325500Y-45250500D01*
X44325499Y-44413478D01*
X44325498Y-44413476D01*
X44310647Y-44319700D01*
X44310646Y-44319698D01*
X44310646Y-44319696D01*
X44253050Y-44206658D01*
X44163342Y-44116950D01*
X44050304Y-44059354D01*
X44050305Y-44059354D01*
X43956522Y-44044500D01*
X43715155Y-44044500D01*
X43656964Y-44025593D01*
X43621000Y-43976093D01*
X43621000Y-43914907D01*
X43656964Y-43865407D01*
X43673317Y-43855775D01*
X43686774Y-43849500D01*
X43702639Y-43842102D01*
X43881877Y-43716598D01*
X44036598Y-43561877D01*
X44162102Y-43382639D01*
X44254575Y-43184330D01*
X44311207Y-42972977D01*
X44311424Y-42970505D01*
X44330277Y-42755003D01*
X44330277Y-42754996D01*
X44311208Y-42537030D01*
X44311207Y-42537027D01*
X44311207Y-42537023D01*
X44254575Y-42325670D01*
X44167756Y-42139486D01*
X44162107Y-42127372D01*
X44162103Y-42127364D01*
X44108549Y-42050881D01*
X44036598Y-41948123D01*
X43881877Y-41793402D01*
X43881873Y-41793399D01*
X43881872Y-41793398D01*
X43748334Y-41699894D01*
X43702639Y-41667898D01*
X43504330Y-41575425D01*
X43504325Y-41575423D01*
X43502827Y-41574725D01*
X43458079Y-41532996D01*
X43446404Y-41472935D01*
X43472262Y-41417482D01*
X43502827Y-41395275D01*
X43504325Y-41394576D01*
X43504330Y-41394575D01*
X43702639Y-41302102D01*
X43881877Y-41176598D01*
X44036598Y-41021877D01*
X44162102Y-40842639D01*
X44254575Y-40644330D01*
X44311207Y-40432977D01*
X44312229Y-40421304D01*
X44330277Y-40215003D01*
X44330277Y-40214996D01*
X44311208Y-39997030D01*
X44311207Y-39997027D01*
X44311207Y-39997023D01*
X44254575Y-39785670D01*
X44202025Y-39672977D01*
X44162107Y-39587372D01*
X44162103Y-39587364D01*
X44143406Y-39560662D01*
X44069424Y-39455003D01*
X44036601Y-39408127D01*
X44036600Y-39408126D01*
X44036598Y-39408123D01*
X43881877Y-39253402D01*
X43881873Y-39253399D01*
X43881872Y-39253398D01*
X43782435Y-39183772D01*
X43702639Y-39127898D01*
X43504330Y-39035425D01*
X43504325Y-39035423D01*
X43502827Y-39034725D01*
X43458079Y-38992996D01*
X43446404Y-38932935D01*
X43472262Y-38877482D01*
X43502827Y-38855275D01*
X43504325Y-38854576D01*
X43504330Y-38854575D01*
X43702639Y-38762102D01*
X43881877Y-38636598D01*
X44036598Y-38481877D01*
X44162102Y-38302639D01*
X44254575Y-38104330D01*
X44311207Y-37892977D01*
X44311402Y-37890756D01*
X44330277Y-37675003D01*
X44330277Y-37674996D01*
X44311208Y-37457030D01*
X44311207Y-37457027D01*
X44311207Y-37457023D01*
X44254575Y-37245670D01*
X44202025Y-37132977D01*
X44162107Y-37047372D01*
X44162103Y-37047364D01*
X44036601Y-36868127D01*
X44036600Y-36868126D01*
X44036598Y-36868123D01*
X43881877Y-36713402D01*
X43881873Y-36713399D01*
X43881872Y-36713398D01*
X43782435Y-36643772D01*
X43702639Y-36587898D01*
X43504330Y-36495425D01*
X43292977Y-36438793D01*
X43292976Y-36438792D01*
X43292969Y-36438791D01*
X43075003Y-36419723D01*
X43074997Y-36419723D01*
X42857030Y-36438791D01*
X42645666Y-36495426D01*
X42447372Y-36587892D01*
X42447364Y-36587896D01*
X42268127Y-36713398D01*
X42113398Y-36868127D01*
X41987896Y-37047364D01*
X41987892Y-37047372D01*
X41895426Y-37245666D01*
X41838791Y-37457030D01*
X41819723Y-37674996D01*
X41819723Y-37675003D01*
X41838791Y-37892969D01*
X41838792Y-37892976D01*
X41838793Y-37892977D01*
X41895425Y-38104330D01*
X41987898Y-38302639D01*
X42033589Y-38367892D01*
X42105575Y-38470700D01*
X42113402Y-38481877D01*
X42268123Y-38636598D01*
X42447361Y-38762102D01*
X42645670Y-38854575D01*
X42645671Y-38854575D01*
X42647172Y-38855275D01*
X42691920Y-38897004D01*
X42703595Y-38957065D01*
X42677737Y-39012518D01*
X42647172Y-39034724D01*
X42447372Y-39127892D01*
X42447364Y-39127896D01*
X42268127Y-39253398D01*
X42113398Y-39408127D01*
X41987896Y-39587364D01*
X41987892Y-39587372D01*
X41895426Y-39785666D01*
X41838791Y-39997030D01*
X41819723Y-40214996D01*
X41819723Y-40215003D01*
X41838791Y-40432969D01*
X41838792Y-40432976D01*
X41838793Y-40432977D01*
X41895425Y-40644330D01*
X41987898Y-40842639D01*
X41994563Y-40852157D01*
X42111877Y-41019700D01*
X42113402Y-41021877D01*
X42268123Y-41176598D01*
X42447361Y-41302102D01*
X42645670Y-41394575D01*
X42645671Y-41394575D01*
X42647172Y-41395275D01*
X42691920Y-41437004D01*
X42703595Y-41497065D01*
X42677737Y-41552518D01*
X42647172Y-41574724D01*
X42447372Y-41667892D01*
X42447364Y-41667896D01*
X42268127Y-41793398D01*
X42113398Y-41948127D01*
X41987896Y-42127364D01*
X41987892Y-42127372D01*
X41895426Y-42325666D01*
X41838791Y-42537030D01*
X41819723Y-42754996D01*
X41819723Y-42755003D01*
X41838791Y-42972969D01*
X41838792Y-42972976D01*
X41838793Y-42972977D01*
X41895425Y-43184330D01*
X41987898Y-43382639D01*
X42033383Y-43447598D01*
X42107191Y-43553008D01*
X42113402Y-43561877D01*
X42268123Y-43716598D01*
X42268126Y-43716600D01*
X42268127Y-43716601D01*
X42292551Y-43733703D01*
X42447361Y-43842102D01*
X42447362Y-43842102D01*
X42447363Y-43842103D01*
X42447365Y-43842104D01*
X42476683Y-43855775D01*
X42521432Y-43897503D01*
X42533107Y-43957564D01*
X42507250Y-44013017D01*
X42453736Y-44042681D01*
X42434845Y-44044500D01*
X42193478Y-44044500D01*
X42193476Y-44044501D01*
X42099700Y-44059352D01*
X42099695Y-44059354D01*
X41986659Y-44116949D01*
X41896949Y-44206659D01*
X41839354Y-44319695D01*
X41824500Y-44413478D01*
X41824500Y-45467611D01*
X41805593Y-45525802D01*
X41795504Y-45537615D01*
X40986635Y-46346485D01*
X40983004Y-46350116D01*
X40928487Y-46377893D01*
X40868055Y-46368322D01*
X40824790Y-46325057D01*
X40814000Y-46280112D01*
X40814000Y-32991001D01*
X40814000Y-32991000D01*
X40424000Y-32991000D01*
X40365809Y-32972093D01*
X40329845Y-32922593D01*
X40325000Y-32892000D01*
X40325000Y-32324000D01*
X40343907Y-32265809D01*
X40393407Y-32229845D01*
X40424000Y-32225000D01*
X67812801Y-32225000D01*
X67870992Y-32243907D01*
G37*
%TD.AperFunction*%
%TA.AperFunction,Conductor*%
G36*
X50518700Y-44191557D02*
G01*
X50556951Y-44334311D01*
X50559624Y-44344286D01*
X50580437Y-44380336D01*
X50593700Y-44429833D01*
X50593700Y-44481522D01*
X50608552Y-44575300D01*
X50608554Y-44575304D01*
X50666150Y-44688342D01*
X50706893Y-44729085D01*
X50734669Y-44783600D01*
X50729689Y-44815041D01*
X50732687Y-44812044D01*
X50793119Y-44802473D01*
X50822572Y-44812042D01*
X50868896Y-44835646D01*
X50962681Y-44850500D01*
X51044700Y-44850499D01*
X51102890Y-44869406D01*
X51138854Y-44918905D01*
X51143700Y-44949498D01*
X51143700Y-45031520D01*
X51143701Y-45031524D01*
X51156052Y-45109513D01*
X51156052Y-45140484D01*
X51148410Y-45188737D01*
X51120633Y-45243254D01*
X51066117Y-45271032D01*
X51005685Y-45261461D01*
X50980625Y-45243255D01*
X50707628Y-44970258D01*
X50679851Y-44915741D01*
X50684830Y-44884299D01*
X50681833Y-44887297D01*
X50621401Y-44896868D01*
X50587390Y-44884824D01*
X50549909Y-44863185D01*
X50549908Y-44863184D01*
X50549907Y-44863184D01*
X50533053Y-44858668D01*
X50493032Y-44837145D01*
X50466446Y-44813592D01*
X50326566Y-44740176D01*
X50173184Y-44702372D01*
X50171527Y-44702171D01*
X50170578Y-44701729D01*
X50167373Y-44700940D01*
X50167527Y-44700312D01*
X50116042Y-44676382D01*
X50086312Y-44622904D01*
X50085689Y-44588411D01*
X50094700Y-44531519D01*
X50094699Y-44218482D01*
X50090435Y-44191555D01*
X50079895Y-44125000D01*
X50518700Y-44125000D01*
X50518700Y-44191557D01*
G37*
%TD.AperFunction*%
%TA.AperFunction,Conductor*%
G36*
X51468215Y-41544407D02*
G01*
X51504179Y-41593907D01*
X51505092Y-41652118D01*
X51498987Y-41673136D01*
X51477402Y-41747430D01*
X51477401Y-41747434D01*
X51474500Y-41784311D01*
X51474500Y-42125000D01*
X49125000Y-42125000D01*
X49925000Y-43125000D01*
X49925000Y-43918107D01*
X49819504Y-43864354D01*
X49819505Y-43864354D01*
X49725722Y-43849500D01*
X49725719Y-43849500D01*
X49674034Y-43849500D01*
X49624533Y-43836236D01*
X49588486Y-43815424D01*
X49588485Y-43815423D01*
X49588484Y-43815423D01*
X49435757Y-43774500D01*
X49435755Y-43774500D01*
X48730457Y-43774500D01*
X48672266Y-43755593D01*
X48636302Y-43706093D01*
X48636302Y-43644907D01*
X48644720Y-43626000D01*
X48658724Y-43601744D01*
X48686859Y-43553013D01*
X48699577Y-43530985D01*
X48740500Y-43378258D01*
X48740500Y-43220143D01*
X48740500Y-42199743D01*
X48759407Y-42141552D01*
X48769496Y-42129739D01*
X49344739Y-41554496D01*
X49399256Y-41526719D01*
X49414743Y-41525500D01*
X51410024Y-41525500D01*
X51468215Y-41544407D01*
G37*
%TD.AperFunction*%
%TD*%
M02*
