%TF.GenerationSoftware,KiCad,Pcbnew,8.0.3*%
%TF.CreationDate,2024-07-15T22:47:52-04:00*%
%TF.ProjectId,get-a-grip-on-reality,6765742d-612d-4677-9269-702d6f6e2d72,rev?*%
%TF.SameCoordinates,Original*%
%TF.FileFunction,Legend,Bot*%
%TF.FilePolarity,Positive*%
%FSLAX46Y46*%
G04 Gerber Fmt 4.6, Leading zero omitted, Abs format (unit mm)*
G04 Created by KiCad (PCBNEW 8.0.3) date 2024-07-15 22:47:52*
%MOMM*%
%LPD*%
G01*
G04 APERTURE LIST*
%ADD10C,0.300000*%
%ADD11C,0.150000*%
%ADD12C,0.000000*%
%ADD13C,0.120000*%
G04 APERTURE END LIST*
D10*
D11*
X62229904Y-69050819D02*
X62229904Y-69860342D01*
X62229904Y-69860342D02*
X62182285Y-69955580D01*
X62182285Y-69955580D02*
X62134666Y-70003200D01*
X62134666Y-70003200D02*
X62039428Y-70050819D01*
X62039428Y-70050819D02*
X61848952Y-70050819D01*
X61848952Y-70050819D02*
X61753714Y-70003200D01*
X61753714Y-70003200D02*
X61706095Y-69955580D01*
X61706095Y-69955580D02*
X61658476Y-69860342D01*
X61658476Y-69860342D02*
X61658476Y-69050819D01*
X61277523Y-69050819D02*
X60658476Y-69050819D01*
X60658476Y-69050819D02*
X60991809Y-69431771D01*
X60991809Y-69431771D02*
X60848952Y-69431771D01*
X60848952Y-69431771D02*
X60753714Y-69479390D01*
X60753714Y-69479390D02*
X60706095Y-69527009D01*
X60706095Y-69527009D02*
X60658476Y-69622247D01*
X60658476Y-69622247D02*
X60658476Y-69860342D01*
X60658476Y-69860342D02*
X60706095Y-69955580D01*
X60706095Y-69955580D02*
X60753714Y-70003200D01*
X60753714Y-70003200D02*
X60848952Y-70050819D01*
X60848952Y-70050819D02*
X61134666Y-70050819D01*
X61134666Y-70050819D02*
X61229904Y-70003200D01*
X61229904Y-70003200D02*
X61277523Y-69955580D01*
D10*
D11*
X75739523Y-74511819D02*
X75739523Y-75226104D01*
X75739523Y-75226104D02*
X75787142Y-75368961D01*
X75787142Y-75368961D02*
X75882380Y-75464200D01*
X75882380Y-75464200D02*
X76025237Y-75511819D01*
X76025237Y-75511819D02*
X76120475Y-75511819D01*
X74739523Y-75511819D02*
X75310951Y-75511819D01*
X75025237Y-75511819D02*
X75025237Y-74511819D01*
X75025237Y-74511819D02*
X75120475Y-74654676D01*
X75120475Y-74654676D02*
X75215713Y-74749914D01*
X75215713Y-74749914D02*
X75310951Y-74797533D01*
X74358570Y-74607057D02*
X74310951Y-74559438D01*
X74310951Y-74559438D02*
X74215713Y-74511819D01*
X74215713Y-74511819D02*
X73977618Y-74511819D01*
X73977618Y-74511819D02*
X73882380Y-74559438D01*
X73882380Y-74559438D02*
X73834761Y-74607057D01*
X73834761Y-74607057D02*
X73787142Y-74702295D01*
X73787142Y-74702295D02*
X73787142Y-74797533D01*
X73787142Y-74797533D02*
X73834761Y-74940390D01*
X73834761Y-74940390D02*
X74406189Y-75511819D01*
X74406189Y-75511819D02*
X73787142Y-75511819D01*
X72961428Y-69837700D02*
X71818571Y-69837700D01*
X72389999Y-70409128D02*
X72389999Y-69266271D01*
D10*
D11*
X59031094Y-73987819D02*
X59031094Y-72987819D01*
X59031094Y-72987819D02*
X58650142Y-72987819D01*
X58650142Y-72987819D02*
X58554904Y-73035438D01*
X58554904Y-73035438D02*
X58507285Y-73083057D01*
X58507285Y-73083057D02*
X58459666Y-73178295D01*
X58459666Y-73178295D02*
X58459666Y-73321152D01*
X58459666Y-73321152D02*
X58507285Y-73416390D01*
X58507285Y-73416390D02*
X58554904Y-73464009D01*
X58554904Y-73464009D02*
X58650142Y-73511628D01*
X58650142Y-73511628D02*
X59031094Y-73511628D01*
X57507285Y-73987819D02*
X58078713Y-73987819D01*
X57792999Y-73987819D02*
X57792999Y-72987819D01*
X57792999Y-72987819D02*
X57888237Y-73130676D01*
X57888237Y-73130676D02*
X57983475Y-73225914D01*
X57983475Y-73225914D02*
X58078713Y-73273533D01*
D12*
%TO.C, *%
G36*
X63054949Y-69399950D02*
G01*
X62952224Y-69767880D01*
X62732242Y-70159999D01*
X62692423Y-70216770D01*
X62575958Y-70360569D01*
X62175417Y-70855118D01*
X61808829Y-71211739D01*
X61576872Y-71437389D01*
X60914067Y-71952811D01*
X60204281Y-72390618D01*
X59464792Y-72740038D01*
X58712879Y-72990305D01*
X57965822Y-73130648D01*
X57928134Y-73134832D01*
X57746358Y-73159461D01*
X57652773Y-73194291D01*
X57618096Y-73259690D01*
X57613689Y-73361178D01*
X57613044Y-73376025D01*
X57607385Y-73502624D01*
X57558628Y-73709613D01*
X57444438Y-73907227D01*
X57246244Y-74133828D01*
X57049652Y-74308792D01*
X57032823Y-74318681D01*
X56633584Y-74553276D01*
X56477730Y-74602657D01*
X56138331Y-74710193D01*
X55569802Y-74777956D01*
X54933910Y-74754977D01*
X54781940Y-74740078D01*
X54567521Y-74727230D01*
X54410251Y-74738219D01*
X54268071Y-74777886D01*
X54098924Y-74851069D01*
X53963646Y-74907989D01*
X53758300Y-74974629D01*
X53605750Y-75000850D01*
X53458782Y-74986711D01*
X53291513Y-74917429D01*
X53219651Y-74826310D01*
X53354546Y-74826310D01*
X53438226Y-74867461D01*
X53602710Y-74871943D01*
X53808353Y-74839623D01*
X54017286Y-74773518D01*
X54256068Y-74674614D01*
X53930596Y-74591320D01*
X53768378Y-74552343D01*
X53640942Y-74538364D01*
X53553687Y-74566377D01*
X53463632Y-74640950D01*
X53457472Y-74646817D01*
X53371667Y-74752906D01*
X53354546Y-74826310D01*
X53219651Y-74826310D01*
X53205975Y-74808969D01*
X53215074Y-74682191D01*
X53331719Y-74557956D01*
X53380850Y-74524467D01*
X53421580Y-74478373D01*
X53374228Y-74440712D01*
X53224352Y-74388722D01*
X53217807Y-74386576D01*
X53035810Y-74317138D01*
X52797068Y-74213977D01*
X52551450Y-74098595D01*
X52414736Y-74032185D01*
X52235233Y-73954600D01*
X52099129Y-73920951D01*
X51964557Y-73923269D01*
X51789647Y-73953582D01*
X51565338Y-73992766D01*
X51246412Y-74018123D01*
X51016943Y-73986493D01*
X50864252Y-73897102D01*
X50833289Y-73864216D01*
X50745400Y-73706522D01*
X50772538Y-73558054D01*
X50917220Y-73413838D01*
X51181959Y-73268900D01*
X51407638Y-73167046D01*
X51197487Y-72749827D01*
X51179691Y-72714282D01*
X51111059Y-72571191D01*
X51275985Y-72571191D01*
X51290037Y-72648699D01*
X51364359Y-72815738D01*
X51417871Y-72920705D01*
X51492530Y-73048161D01*
X51536018Y-73096745D01*
X51566337Y-73086127D01*
X51681877Y-73032169D01*
X51845894Y-72948422D01*
X51969452Y-72881018D01*
X52043352Y-72822773D01*
X52024487Y-72777592D01*
X51904076Y-72731289D01*
X51673337Y-72669680D01*
X51607298Y-72652423D01*
X51431551Y-72603325D01*
X51317619Y-72566929D01*
X51275985Y-72571191D01*
X51111059Y-72571191D01*
X51082016Y-72510640D01*
X51013037Y-72352388D01*
X50986728Y-72271256D01*
X50968685Y-72254147D01*
X50855094Y-72202875D01*
X50654464Y-72131106D01*
X50387047Y-72045869D01*
X50073096Y-71954191D01*
X49945153Y-71917752D01*
X49597210Y-71813046D01*
X49273609Y-71708238D01*
X49005792Y-71613765D01*
X48825203Y-71540061D01*
X48599853Y-71446591D01*
X48330590Y-71391338D01*
X48072968Y-71423037D01*
X47783330Y-71541759D01*
X47670225Y-71596281D01*
X47430753Y-71702629D01*
X47140995Y-71823965D01*
X46824270Y-71951298D01*
X46503899Y-72075640D01*
X46203201Y-72188000D01*
X45945495Y-72279387D01*
X45754102Y-72340813D01*
X45652342Y-72363285D01*
X45594337Y-72359061D01*
X45507524Y-72307091D01*
X45503026Y-72206857D01*
X45587923Y-72206857D01*
X45587937Y-72207615D01*
X45642911Y-72230457D01*
X45795962Y-72205265D01*
X46034450Y-72136423D01*
X46345736Y-72028317D01*
X46717181Y-71885331D01*
X47136144Y-71711852D01*
X47589988Y-71512262D01*
X47739526Y-71447173D01*
X47986605Y-71350346D01*
X48189844Y-71283727D01*
X48315936Y-71258938D01*
X48322069Y-71259053D01*
X48465183Y-71286433D01*
X48673248Y-71352608D01*
X48903459Y-71444089D01*
X49033084Y-71496762D01*
X49266800Y-71581783D01*
X49546496Y-71676228D01*
X49849017Y-71773075D01*
X50151209Y-71865304D01*
X50429920Y-71945892D01*
X50661995Y-72007818D01*
X50824281Y-72044062D01*
X50893623Y-72047602D01*
X50894158Y-72006201D01*
X50865413Y-71870323D01*
X50810978Y-71668432D01*
X50739701Y-71428957D01*
X50660426Y-71180329D01*
X50582000Y-70950981D01*
X50513269Y-70769343D01*
X50463080Y-70663845D01*
X50372878Y-70567476D01*
X50234611Y-70492817D01*
X50226638Y-70490986D01*
X50090665Y-70461358D01*
X49880650Y-70417091D01*
X49638572Y-70367044D01*
X49343286Y-70294518D01*
X49098181Y-70205486D01*
X48946705Y-70112731D01*
X48898278Y-70022204D01*
X48918603Y-69996069D01*
X49085025Y-69996069D01*
X49086142Y-70023548D01*
X49104806Y-70078027D01*
X49162413Y-70122738D01*
X49279302Y-70166179D01*
X49475809Y-70216848D01*
X49772269Y-70283243D01*
X49902662Y-70313705D01*
X50151331Y-70383157D01*
X50347030Y-70452710D01*
X50455928Y-70511087D01*
X50612352Y-70710695D01*
X50761258Y-71038766D01*
X50885224Y-71476421D01*
X50936844Y-71690162D01*
X51034148Y-72006201D01*
X51048485Y-72052768D01*
X51164092Y-72295338D01*
X51284421Y-72419661D01*
X51286477Y-72420745D01*
X51403992Y-72467840D01*
X51598002Y-72531941D01*
X51827595Y-72599501D01*
X51980416Y-72641349D01*
X52148019Y-72680359D01*
X52257525Y-72686049D01*
X52345716Y-72658261D01*
X52449376Y-72596838D01*
X52476529Y-72580319D01*
X52618710Y-72513789D01*
X52714840Y-72499552D01*
X52720119Y-72510715D01*
X52659204Y-72571023D01*
X52511918Y-72672819D01*
X52294120Y-72806570D01*
X52265853Y-72822773D01*
X52021670Y-72962742D01*
X51710426Y-73131802D01*
X51376246Y-73304218D01*
X51231021Y-73379080D01*
X51034662Y-73495473D01*
X50929908Y-73591838D01*
X50901968Y-73684487D01*
X50936053Y-73789735D01*
X50978186Y-73836475D01*
X51137187Y-73888720D01*
X51386535Y-73891100D01*
X51712107Y-73844120D01*
X51743424Y-73836378D01*
X52336715Y-73836378D01*
X52342598Y-73848155D01*
X52427920Y-73907834D01*
X52594790Y-73993863D01*
X52817510Y-74094950D01*
X53070379Y-74199800D01*
X53327698Y-74297119D01*
X53563769Y-74375615D01*
X53771025Y-74432128D01*
X54093847Y-74506258D01*
X54392029Y-74561475D01*
X54614590Y-74593902D01*
X54923846Y-74635225D01*
X55189614Y-74666990D01*
X55260199Y-74674614D01*
X55557730Y-74706751D01*
X55395359Y-74578555D01*
X55331411Y-74533270D01*
X55143868Y-74423997D01*
X54935214Y-74323517D01*
X54928041Y-74320452D01*
X54876808Y-74295894D01*
X55220290Y-74295894D01*
X55250967Y-74326570D01*
X55275967Y-74301570D01*
X55370674Y-74301570D01*
X55417722Y-74386538D01*
X55478579Y-74464339D01*
X55550386Y-74510628D01*
X55589288Y-74524095D01*
X55673672Y-74601513D01*
X55729968Y-74651214D01*
X55833817Y-74633128D01*
X55869810Y-74602657D01*
X56017875Y-74602657D01*
X56048551Y-74633334D01*
X56079227Y-74602657D01*
X56048551Y-74571981D01*
X56023153Y-74597379D01*
X56017875Y-74602657D01*
X55869810Y-74602657D01*
X55876044Y-74597379D01*
X55853537Y-74572921D01*
X55805853Y-74562003D01*
X55697783Y-74495290D01*
X55618348Y-74432271D01*
X55597327Y-74418599D01*
X55772464Y-74418599D01*
X55803141Y-74449276D01*
X55833817Y-74418599D01*
X55803141Y-74387923D01*
X55772464Y-74418599D01*
X55597327Y-74418599D01*
X55477282Y-74340524D01*
X55402894Y-74300132D01*
X55370674Y-74301570D01*
X55275967Y-74301570D01*
X55281643Y-74295894D01*
X55527054Y-74295894D01*
X55557730Y-74326570D01*
X55588406Y-74295894D01*
X55557730Y-74265218D01*
X55527054Y-74295894D01*
X55281643Y-74295894D01*
X55250967Y-74265218D01*
X55220290Y-74295894D01*
X54876808Y-74295894D01*
X54659852Y-74191899D01*
X54577349Y-74142512D01*
X54821498Y-74142512D01*
X54834090Y-74160873D01*
X54886471Y-74203865D01*
X55036232Y-74203865D01*
X55038015Y-74218530D01*
X55097585Y-74265218D01*
X55112250Y-74263435D01*
X55158938Y-74203865D01*
X55157155Y-74189200D01*
X55097585Y-74142512D01*
X55082920Y-74144295D01*
X55036232Y-74203865D01*
X54886471Y-74203865D01*
X54892594Y-74202270D01*
X54913527Y-74142512D01*
X54911030Y-74125696D01*
X54848553Y-74081160D01*
X54826362Y-74085977D01*
X54821498Y-74142512D01*
X54577349Y-74142512D01*
X54440987Y-74060885D01*
X54438282Y-74058712D01*
X54617616Y-74058712D01*
X54668116Y-74081160D01*
X54700596Y-74076732D01*
X54709018Y-74040258D01*
X54700026Y-74032915D01*
X54627215Y-74040258D01*
X54617616Y-74058712D01*
X54438282Y-74058712D01*
X54293405Y-73942314D01*
X54284747Y-73927778D01*
X54422706Y-73927778D01*
X54453382Y-73958454D01*
X54484058Y-73927778D01*
X54453382Y-73897102D01*
X54422706Y-73927778D01*
X54284747Y-73927778D01*
X54239067Y-73851087D01*
X54239055Y-73849858D01*
X54236348Y-73814487D01*
X54241454Y-73792453D01*
X54272575Y-73787678D01*
X54347917Y-73804081D01*
X54485684Y-73845585D01*
X54704079Y-73916110D01*
X54739853Y-73927778D01*
X55021308Y-74019577D01*
X55081283Y-74040258D01*
X55332895Y-74127021D01*
X55534138Y-74203865D01*
X55626372Y-74239084D01*
X55759466Y-74295894D01*
X55868322Y-74342358D01*
X56016112Y-74418599D01*
X56025756Y-74423574D01*
X56151966Y-74500667D01*
X56267925Y-74547402D01*
X56380495Y-74538650D01*
X56546205Y-74480603D01*
X56627930Y-74447671D01*
X56773227Y-74378836D01*
X56844361Y-74329443D01*
X56847388Y-74318681D01*
X56791387Y-74255841D01*
X56633750Y-74170481D01*
X56388777Y-74067833D01*
X56070766Y-73953131D01*
X55694017Y-73831609D01*
X55272828Y-73708500D01*
X54821498Y-73589039D01*
X54788398Y-73580722D01*
X54424000Y-73488274D01*
X54097504Y-73403889D01*
X53829210Y-73332930D01*
X53639419Y-73280760D01*
X53548430Y-73252742D01*
X53485926Y-73238395D01*
X53441063Y-73275978D01*
X53388132Y-73342183D01*
X53248413Y-73434361D01*
X53050800Y-73537408D01*
X52824186Y-73636258D01*
X52597464Y-73715845D01*
X52523539Y-73739705D01*
X52389737Y-73794874D01*
X52336715Y-73836378D01*
X51743424Y-73836378D01*
X52099780Y-73748281D01*
X52425019Y-73648265D01*
X52844651Y-73496200D01*
X53159063Y-73349471D01*
X53359831Y-73211663D01*
X53473747Y-73136394D01*
X53563093Y-73129776D01*
X53645095Y-73128571D01*
X53760620Y-73059513D01*
X53842706Y-72989309D01*
X53861985Y-72994322D01*
X53814642Y-73099517D01*
X53740898Y-73252899D01*
X53875237Y-73099517D01*
X54009576Y-72946136D01*
X53962576Y-73099517D01*
X53934972Y-73199609D01*
X53954990Y-73213116D01*
X54046436Y-73136023D01*
X54067580Y-73118068D01*
X54157392Y-73071890D01*
X54175415Y-73110258D01*
X54103672Y-73209952D01*
X54063943Y-73259662D01*
X54079504Y-73282294D01*
X54155396Y-73253213D01*
X54264493Y-73177836D01*
X54269661Y-73173571D01*
X54332702Y-73128587D01*
X54315339Y-73159430D01*
X54278262Y-73205232D01*
X54236942Y-73293003D01*
X54280513Y-73303292D01*
X54392029Y-73222223D01*
X54444495Y-73177924D01*
X54529871Y-73136736D01*
X54546473Y-73171785D01*
X54472810Y-73270282D01*
X54439554Y-73310428D01*
X54426796Y-73365339D01*
X54431986Y-73367986D01*
X54521511Y-73395842D01*
X54702323Y-73445231D01*
X54951548Y-73510045D01*
X55246314Y-73584176D01*
X55575385Y-73672802D01*
X55931295Y-73781918D01*
X56252885Y-73893041D01*
X56497346Y-73992210D01*
X56565459Y-74023441D01*
X56772948Y-74115437D01*
X56928534Y-74179698D01*
X57002704Y-74203865D01*
X57041627Y-74189633D01*
X57142948Y-74095239D01*
X57258558Y-73941480D01*
X57364146Y-73762672D01*
X57435398Y-73593132D01*
X57444835Y-73558853D01*
X57475223Y-73361178D01*
X57466833Y-73198274D01*
X57408226Y-73071432D01*
X57256955Y-72885652D01*
X57043518Y-72691644D01*
X56792397Y-72505572D01*
X56528070Y-72343604D01*
X56275018Y-72221906D01*
X56057721Y-72156645D01*
X55900660Y-72163986D01*
X55844894Y-72187493D01*
X55673729Y-72261300D01*
X55442533Y-72362168D01*
X55185104Y-72475389D01*
X54872210Y-72602973D01*
X54503765Y-72731954D01*
X54134332Y-72842573D01*
X53786811Y-72929182D01*
X53484102Y-72986135D01*
X53249105Y-73007781D01*
X53104721Y-72988475D01*
X53010937Y-72919068D01*
X52950440Y-72765852D01*
X52983047Y-72574165D01*
X53108605Y-72368554D01*
X53200895Y-72277563D01*
X53371109Y-72129111D01*
X53592640Y-71945495D01*
X53841282Y-71746114D01*
X54092829Y-71550364D01*
X54323074Y-71377642D01*
X54507811Y-71247345D01*
X54524599Y-71187696D01*
X54450942Y-71073927D01*
X54400429Y-71010176D01*
X54287572Y-70847363D01*
X54145293Y-70627599D01*
X53992791Y-70379964D01*
X53859425Y-70165516D01*
X53688632Y-69925562D01*
X53527826Y-69751518D01*
X53353793Y-69615617D01*
X53279143Y-69567657D01*
X53098464Y-69477622D01*
X52997573Y-69475973D01*
X52979351Y-69561603D01*
X53046676Y-69733410D01*
X53096196Y-69859679D01*
X53145552Y-70119743D01*
X53154405Y-70403635D01*
X53122616Y-70664852D01*
X53050045Y-70856891D01*
X53044029Y-70865900D01*
X52845006Y-71057649D01*
X52586032Y-71165553D01*
X52309483Y-71171602D01*
X52131657Y-71105170D01*
X51889422Y-70922692D01*
X51649605Y-70645206D01*
X51426641Y-70287173D01*
X51360073Y-70159672D01*
X51285181Y-69991276D01*
X51248084Y-69839223D01*
X51247872Y-69820907D01*
X51361600Y-69820907D01*
X51427846Y-70004098D01*
X51549619Y-70258625D01*
X51643955Y-70434389D01*
X51866330Y-70745928D01*
X52103977Y-70954592D01*
X52348115Y-71055827D01*
X52589964Y-71045081D01*
X52820743Y-70917800D01*
X52821323Y-70917311D01*
X52976239Y-70739811D01*
X53047748Y-70526627D01*
X53038486Y-70257411D01*
X52951089Y-69911814D01*
X52924143Y-69825913D01*
X52864537Y-69593937D01*
X52859054Y-69450384D01*
X52909893Y-69377369D01*
X53019249Y-69357005D01*
X53156690Y-69377902D01*
X53399856Y-69492155D01*
X53645447Y-69687336D01*
X53868711Y-69942241D01*
X54044897Y-70235665D01*
X54144359Y-70426821D01*
X54294912Y-70674924D01*
X54436997Y-70871210D01*
X54648328Y-71124156D01*
X54830979Y-70981210D01*
X54865258Y-70951805D01*
X55010581Y-70783078D01*
X55126278Y-70588456D01*
X55160324Y-70517698D01*
X55236681Y-70389465D01*
X55290961Y-70338648D01*
X55317252Y-70341395D01*
X55338052Y-70373584D01*
X55309326Y-70462267D01*
X55225489Y-70632517D01*
X55120128Y-70801636D01*
X54962339Y-70987129D01*
X54741642Y-71195023D01*
X54443804Y-71438678D01*
X54054590Y-71731452D01*
X53875882Y-71864856D01*
X53514125Y-72158373D01*
X53262518Y-72403340D01*
X53119826Y-72601057D01*
X53084816Y-72752826D01*
X53119127Y-72833283D01*
X53220954Y-72886410D01*
X53400303Y-72892492D01*
X53669168Y-72851671D01*
X54039544Y-72764087D01*
X54187233Y-72723392D01*
X54591577Y-72593554D01*
X55012197Y-72435817D01*
X55430044Y-72259415D01*
X55826065Y-72073584D01*
X55938811Y-72014528D01*
X56138976Y-72014528D01*
X56598887Y-72265598D01*
X56858907Y-72420010D01*
X57102768Y-72587880D01*
X57303689Y-72749033D01*
X57440077Y-72886121D01*
X57490339Y-72981796D01*
X57490414Y-72983747D01*
X57549741Y-73022591D01*
X57704272Y-73032897D01*
X57931470Y-73017702D01*
X58208797Y-72980044D01*
X58513716Y-72922960D01*
X58823691Y-72849489D01*
X59116184Y-72762666D01*
X59127280Y-72758928D01*
X59396096Y-72657003D01*
X59695479Y-72525922D01*
X60004960Y-72376779D01*
X60304070Y-72220669D01*
X60572342Y-72068685D01*
X60789306Y-71931922D01*
X60934495Y-71821473D01*
X60987440Y-71748433D01*
X60947992Y-71692697D01*
X60808429Y-71609956D01*
X60776141Y-71596377D01*
X60987440Y-71596377D01*
X61018116Y-71627053D01*
X61048793Y-71596377D01*
X61018116Y-71565701D01*
X60987440Y-71596377D01*
X60776141Y-71596377D01*
X60589175Y-71517748D01*
X60312381Y-71424218D01*
X60078274Y-71359195D01*
X60446119Y-71359195D01*
X60496619Y-71381643D01*
X60529099Y-71377215D01*
X60537521Y-71340741D01*
X60528528Y-71333398D01*
X60455717Y-71340741D01*
X60446119Y-71359195D01*
X60078274Y-71359195D01*
X60000196Y-71337509D01*
X59674770Y-71265767D01*
X59568396Y-71245448D01*
X59273714Y-71186175D01*
X59084660Y-71141145D01*
X58989178Y-71106344D01*
X58975214Y-71077761D01*
X58979798Y-71075582D01*
X59484734Y-71075582D01*
X59496754Y-71091673D01*
X59579950Y-71136232D01*
X59614357Y-71132993D01*
X59628824Y-71100979D01*
X59566910Y-71065484D01*
X59745708Y-71065484D01*
X59782677Y-71100979D01*
X59783347Y-71101622D01*
X59914071Y-71146095D01*
X60111758Y-71189817D01*
X60399069Y-71250576D01*
X60645450Y-71322198D01*
X60687405Y-71340741D01*
X60806833Y-71393525D01*
X60864735Y-71457972D01*
X60887656Y-71484881D01*
X60987440Y-71504348D01*
X61058759Y-71515853D01*
X61110145Y-71565701D01*
X61113347Y-71594758D01*
X61116074Y-71596377D01*
X61155608Y-71619850D01*
X61257462Y-71568402D01*
X61432209Y-71435018D01*
X61560187Y-71314552D01*
X61620842Y-71211739D01*
X61584537Y-71160499D01*
X61450518Y-71171655D01*
X61350902Y-71179875D01*
X61268255Y-71143883D01*
X61240869Y-71118681D01*
X61141702Y-71113707D01*
X61047573Y-71110956D01*
X60915282Y-71049675D01*
X60806212Y-70984859D01*
X60722006Y-70956169D01*
X61002482Y-70956169D01*
X61018116Y-71013527D01*
X61030721Y-71031689D01*
X61086711Y-71074880D01*
X61095103Y-71070885D01*
X61090073Y-71052432D01*
X61305056Y-71052432D01*
X61346569Y-71070885D01*
X61355556Y-71074880D01*
X61388036Y-71070452D01*
X61396458Y-71033978D01*
X61387465Y-71026635D01*
X61314654Y-71033978D01*
X61305056Y-71052432D01*
X61090073Y-71052432D01*
X61079469Y-71013527D01*
X61066864Y-70995365D01*
X61010875Y-70952174D01*
X61002482Y-70956169D01*
X60722006Y-70956169D01*
X60713040Y-70953114D01*
X60693660Y-70965738D01*
X60742029Y-71018189D01*
X60770998Y-71042134D01*
X60750497Y-71059425D01*
X60621693Y-71040202D01*
X60467873Y-71018464D01*
X60241979Y-71006012D01*
X60020505Y-71009999D01*
X59842635Y-71029394D01*
X59747557Y-71063169D01*
X59745708Y-71065484D01*
X59566910Y-71065484D01*
X59542466Y-71051470D01*
X59494610Y-71040718D01*
X59484734Y-71075582D01*
X58979798Y-71075582D01*
X59030712Y-71051382D01*
X59229271Y-71000640D01*
X59642432Y-70936021D01*
X60109346Y-70901341D01*
X60588442Y-70897704D01*
X61038153Y-70926215D01*
X61416909Y-70987978D01*
X61609314Y-71033978D01*
X61815701Y-71083321D01*
X62137942Y-70731575D01*
X62176478Y-70689220D01*
X62317451Y-70528461D01*
X62411840Y-70411269D01*
X62440924Y-70360569D01*
X62434383Y-70356617D01*
X62334277Y-70340923D01*
X62137254Y-70331452D01*
X61864623Y-70327729D01*
X61537697Y-70329284D01*
X61177785Y-70335642D01*
X60806199Y-70346331D01*
X60444250Y-70360878D01*
X60113248Y-70378811D01*
X59834504Y-70399657D01*
X59629329Y-70422943D01*
X59498410Y-70442389D01*
X59137816Y-70493597D01*
X58775124Y-70542382D01*
X58471981Y-70580361D01*
X58201889Y-70615815D01*
X57833247Y-70684931D01*
X57554920Y-70774350D01*
X57346644Y-70893852D01*
X57188156Y-71053215D01*
X57059196Y-71262219D01*
X56990311Y-71383272D01*
X56727270Y-71687789D01*
X56376113Y-71907595D01*
X56138976Y-72014528D01*
X55938811Y-72014528D01*
X56181213Y-71887558D01*
X56476436Y-71710571D01*
X56692684Y-71551859D01*
X56810907Y-71420655D01*
X56821372Y-71401822D01*
X56927483Y-71221870D01*
X57045149Y-71035040D01*
X57182810Y-70825147D01*
X57029913Y-70448865D01*
X56957944Y-70258024D01*
X56912986Y-70110229D01*
X56906846Y-70042752D01*
X56908385Y-70041529D01*
X56941894Y-70069883D01*
X57004249Y-70186058D01*
X57099865Y-70399198D01*
X57233161Y-70718451D01*
X57252222Y-70759446D01*
X57301831Y-70788962D01*
X57396821Y-70732236D01*
X57436970Y-70698654D01*
X57471259Y-70642829D01*
X57474430Y-70558981D01*
X57442874Y-70425632D01*
X57372982Y-70221304D01*
X57261148Y-69924517D01*
X57254014Y-69891620D01*
X57287877Y-69847826D01*
X57332523Y-69898308D01*
X57399310Y-70036363D01*
X57472481Y-70231281D01*
X57508059Y-70333877D01*
X57579313Y-70502344D01*
X57643313Y-70581750D01*
X57714393Y-70593564D01*
X57778512Y-70578428D01*
X57854086Y-70546805D01*
X57851783Y-70496380D01*
X57819522Y-70360456D01*
X57765501Y-70175537D01*
X57700268Y-69977397D01*
X57634376Y-69801812D01*
X57626724Y-69768219D01*
X57663517Y-69725121D01*
X57665657Y-69725288D01*
X57718378Y-69783672D01*
X57784693Y-69920336D01*
X57850063Y-70096371D01*
X57899948Y-70272872D01*
X57919807Y-70410930D01*
X57950442Y-70491619D01*
X58073189Y-70522706D01*
X58137222Y-70518815D01*
X58202071Y-70486360D01*
X58217281Y-70403217D01*
X58184083Y-70248355D01*
X58103706Y-70000746D01*
X58050476Y-69832327D01*
X58013870Y-69682318D01*
X58011677Y-69612800D01*
X58023103Y-69602938D01*
X58054180Y-69602965D01*
X58089740Y-69661138D01*
X58139371Y-69797448D01*
X58212658Y-70031884D01*
X58273563Y-70219396D01*
X58335758Y-70356858D01*
X58403468Y-70424701D01*
X58495035Y-70450090D01*
X58603790Y-70454621D01*
X58656039Y-70437023D01*
X58650628Y-70410308D01*
X58611205Y-70290576D01*
X58546272Y-70115862D01*
X58470995Y-69925109D01*
X58400539Y-69757265D01*
X58350070Y-69651275D01*
X58325278Y-69585687D01*
X58341968Y-69514903D01*
X58344517Y-69513599D01*
X58400053Y-69551809D01*
X58477036Y-69687284D01*
X58565839Y-69899999D01*
X58656838Y-70169928D01*
X58663492Y-70191533D01*
X58720430Y-70330564D01*
X58801725Y-70388108D01*
X58952222Y-70398929D01*
X58998228Y-70397444D01*
X59194388Y-70380473D01*
X59452685Y-70348662D01*
X59729711Y-70307134D01*
X59963299Y-70276534D01*
X60376257Y-70243849D01*
X60874242Y-70223346D01*
X61435641Y-70216176D01*
X62589398Y-70215942D01*
X62745590Y-69874772D01*
X62837592Y-69635979D01*
X62906735Y-69295395D01*
X62892043Y-68996963D01*
X62792552Y-68763485D01*
X62685857Y-68646878D01*
X62421355Y-68466336D01*
X62048889Y-68306152D01*
X61565739Y-68165590D01*
X60969184Y-68043917D01*
X60256505Y-67940399D01*
X59424981Y-67854299D01*
X59354198Y-67848089D01*
X58791725Y-67793433D01*
X58327651Y-67734451D01*
X57940177Y-67664362D01*
X57607503Y-67576388D01*
X57307832Y-67463748D01*
X57019365Y-67319663D01*
X56720302Y-67137353D01*
X56388845Y-66910040D01*
X56100940Y-66708231D01*
X55781781Y-66495851D01*
X55508071Y-66332486D01*
X55250960Y-66202523D01*
X54981600Y-66090348D01*
X54671143Y-65980347D01*
X54532317Y-65936836D01*
X54205262Y-65857012D01*
X53905797Y-65813285D01*
X53655948Y-65806856D01*
X53477737Y-65838926D01*
X53393191Y-65910695D01*
X53408196Y-65958510D01*
X53494967Y-66079500D01*
X53642077Y-66246072D01*
X53831929Y-66437115D01*
X53990531Y-66593650D01*
X54226899Y-66861908D01*
X54378832Y-67101817D01*
X54459659Y-67337017D01*
X54482711Y-67591146D01*
X54482633Y-67599999D01*
X54420416Y-67960367D01*
X54241206Y-68302106D01*
X53942285Y-68630447D01*
X53894726Y-68672075D01*
X53658947Y-68846833D01*
X53382753Y-68998031D01*
X53045685Y-69134199D01*
X52627284Y-69263865D01*
X52107092Y-69395559D01*
X51879106Y-69449724D01*
X51609633Y-69523462D01*
X51441132Y-69598178D01*
X51362241Y-69691464D01*
X51361600Y-69820907D01*
X51247872Y-69820907D01*
X51246123Y-69669513D01*
X51276637Y-69448143D01*
X51336965Y-69141111D01*
X51339864Y-69126999D01*
X51388132Y-68871907D01*
X51406892Y-68706664D01*
X51397205Y-68603548D01*
X51360130Y-68534837D01*
X51344875Y-68516954D01*
X51265138Y-68451850D01*
X51194065Y-68467623D01*
X51115610Y-68576042D01*
X51013726Y-68788874D01*
X50923927Y-68974470D01*
X50727696Y-69267120D01*
X50485723Y-69477281D01*
X50173362Y-69623425D01*
X49765966Y-69724022D01*
X49762363Y-69724676D01*
X49444848Y-69790101D01*
X49235533Y-69853380D01*
X49120298Y-69920156D01*
X49085025Y-69996069D01*
X48918603Y-69996069D01*
X48962319Y-69939855D01*
X49007610Y-69901052D01*
X49002415Y-69822088D01*
X48874894Y-69738382D01*
X48767955Y-69656344D01*
X48626074Y-69502316D01*
X48481756Y-69310758D01*
X48439961Y-69251802D01*
X48249984Y-69017464D01*
X48009236Y-68755150D01*
X47743227Y-68489598D01*
X47477465Y-68245550D01*
X47237459Y-68047743D01*
X47048717Y-67920918D01*
X46976846Y-67885934D01*
X46793604Y-67840246D01*
X46673825Y-67883564D01*
X46630918Y-68012937D01*
X46634683Y-68045363D01*
X46676256Y-68192742D01*
X46754038Y-68403458D01*
X46855824Y-68643300D01*
X46999571Y-69011156D01*
X47106190Y-69487222D01*
X47105012Y-69934881D01*
X46997283Y-70369324D01*
X46954063Y-70477421D01*
X46866358Y-70647406D01*
X46745741Y-70816482D01*
X46571988Y-71011407D01*
X46324875Y-71258938D01*
X46261459Y-71321251D01*
X45980615Y-71614872D01*
X45768598Y-71868252D01*
X45634628Y-72069532D01*
X45587923Y-72206857D01*
X45503026Y-72206857D01*
X45502060Y-72185343D01*
X45575271Y-71980538D01*
X45603737Y-71919235D01*
X45677424Y-71786622D01*
X45775098Y-71652645D01*
X45913871Y-71497472D01*
X46110855Y-71301269D01*
X46383164Y-71044203D01*
X46495000Y-70934038D01*
X46754538Y-70597380D01*
X46912403Y-70226023D01*
X46984138Y-69787462D01*
X46984878Y-69776621D01*
X46988449Y-69543833D01*
X46961719Y-69317302D01*
X46897422Y-69068615D01*
X46788292Y-68769362D01*
X46627065Y-68391131D01*
X46551829Y-68172582D01*
X46530759Y-67950328D01*
X46583065Y-67790377D01*
X46706448Y-67712387D01*
X46848156Y-67726397D01*
X47065930Y-67822517D01*
X47328469Y-67991694D01*
X47619681Y-68221124D01*
X47923472Y-68498004D01*
X48223752Y-68809531D01*
X48504428Y-69142900D01*
X48631676Y-69299617D01*
X48808078Y-69496613D01*
X48954661Y-69636847D01*
X49050435Y-69698945D01*
X49134634Y-69704091D01*
X49324461Y-69688145D01*
X49569035Y-69651917D01*
X49831800Y-69601822D01*
X50076197Y-69544275D01*
X50265669Y-69485692D01*
X50330009Y-69456449D01*
X50553489Y-69286444D01*
X50759131Y-69031792D01*
X50922119Y-68721388D01*
X51004039Y-68540945D01*
X51111065Y-68388966D01*
X51224676Y-68338400D01*
X51359517Y-68377741D01*
X51384024Y-68392505D01*
X51457423Y-68476961D01*
X51492092Y-68617129D01*
X51490657Y-68834025D01*
X51455738Y-69148666D01*
X51447432Y-69210387D01*
X51440106Y-69319932D01*
X51463610Y-69385807D01*
X51535578Y-69410760D01*
X51673644Y-69397540D01*
X51895442Y-69348896D01*
X52218606Y-69267575D01*
X52778378Y-69109158D01*
X53275945Y-68926701D01*
X53667596Y-68726708D01*
X53962023Y-68502442D01*
X54167919Y-68247167D01*
X54293976Y-67954145D01*
X54348887Y-67616641D01*
X54355480Y-67471588D01*
X54345247Y-67291489D01*
X54297019Y-67147501D01*
X54197957Y-66985973D01*
X54070812Y-66828525D01*
X53878178Y-66629842D01*
X53671542Y-66446097D01*
X53502792Y-66296996D01*
X53327878Y-66088988D01*
X53261494Y-65917016D01*
X53303343Y-65786934D01*
X53453130Y-65704593D01*
X53710557Y-65675846D01*
X53728261Y-65675939D01*
X54156758Y-65723485D01*
X54639863Y-65851072D01*
X55150826Y-66048438D01*
X55662898Y-66305321D01*
X56149330Y-66611458D01*
X56231175Y-66669045D01*
X56577188Y-66908925D01*
X56875908Y-67104318D01*
X57146178Y-67261282D01*
X57406841Y-67385874D01*
X57676739Y-67484151D01*
X57974717Y-67562171D01*
X58319617Y-67625991D01*
X58730282Y-67681668D01*
X59225555Y-67735260D01*
X59824281Y-67792825D01*
X60302540Y-67844702D01*
X60842526Y-67920365D01*
X61339903Y-68008121D01*
X61774662Y-68103966D01*
X62126796Y-68203892D01*
X62376296Y-68303891D01*
X62669399Y-68492508D01*
X62912554Y-68757144D01*
X63041398Y-69061331D01*
X63050765Y-69295395D01*
X63054949Y-69399950D01*
G37*
G36*
X60750619Y-69684868D02*
G01*
X60803382Y-69785613D01*
X60798539Y-69831984D01*
X60711386Y-69965052D01*
X60527295Y-70043964D01*
X60499631Y-70048942D01*
X60304097Y-70044148D01*
X60151135Y-69977042D01*
X60078735Y-69862955D01*
X60078986Y-69797260D01*
X60137086Y-69726030D01*
X60289731Y-69669431D01*
X60400854Y-69644622D01*
X60608406Y-69636054D01*
X60750619Y-69684868D01*
G37*
G36*
X55428089Y-73240221D02*
G01*
X55553911Y-73319198D01*
X55605967Y-73390514D01*
X55616026Y-73472579D01*
X55592447Y-73496818D01*
X55475984Y-73527575D01*
X55332706Y-73506846D01*
X55222521Y-73439644D01*
X55177957Y-73348486D01*
X55208548Y-73266337D01*
X55302447Y-73226425D01*
X55428089Y-73240221D01*
G37*
D13*
%TO.C,U3*%
X57565000Y-68692500D02*
X57285000Y-68692500D01*
X57565000Y-68412500D01*
X57565000Y-68692500D01*
G36*
X57565000Y-68692500D02*
G01*
X57285000Y-68692500D01*
X57565000Y-68412500D01*
X57565000Y-68692500D01*
G37*
X60235000Y-69082500D02*
X60235000Y-70082500D01*
X57515000Y-69082500D02*
X57515000Y-70082500D01*
D12*
%TO.C, *%
G36*
X64654949Y-46499950D02*
G01*
X64552224Y-46867880D01*
X64332242Y-47259999D01*
X64292423Y-47316770D01*
X64175958Y-47460569D01*
X63775417Y-47955118D01*
X63408829Y-48311739D01*
X63176872Y-48537389D01*
X62514067Y-49052811D01*
X61804281Y-49490618D01*
X61064792Y-49840038D01*
X60312879Y-50090305D01*
X59565822Y-50230648D01*
X59528134Y-50234832D01*
X59346358Y-50259461D01*
X59252773Y-50294291D01*
X59218096Y-50359690D01*
X59213689Y-50461178D01*
X59213044Y-50476025D01*
X59207385Y-50602624D01*
X59158628Y-50809613D01*
X59044438Y-51007227D01*
X58846244Y-51233828D01*
X58649652Y-51408792D01*
X58632823Y-51418681D01*
X58233584Y-51653276D01*
X58077730Y-51702657D01*
X57738331Y-51810193D01*
X57169802Y-51877956D01*
X56533910Y-51854977D01*
X56381940Y-51840078D01*
X56167521Y-51827230D01*
X56010251Y-51838219D01*
X55868071Y-51877886D01*
X55698924Y-51951069D01*
X55563646Y-52007989D01*
X55358300Y-52074629D01*
X55205750Y-52100850D01*
X55058782Y-52086711D01*
X54891513Y-52017429D01*
X54819651Y-51926310D01*
X54954546Y-51926310D01*
X55038226Y-51967461D01*
X55202710Y-51971943D01*
X55408353Y-51939623D01*
X55617286Y-51873518D01*
X55856068Y-51774614D01*
X55530596Y-51691320D01*
X55368378Y-51652343D01*
X55240942Y-51638364D01*
X55153687Y-51666377D01*
X55063632Y-51740950D01*
X55057472Y-51746817D01*
X54971667Y-51852906D01*
X54954546Y-51926310D01*
X54819651Y-51926310D01*
X54805975Y-51908969D01*
X54815074Y-51782191D01*
X54931719Y-51657956D01*
X54980850Y-51624467D01*
X55021580Y-51578373D01*
X54974228Y-51540712D01*
X54824352Y-51488722D01*
X54817807Y-51486576D01*
X54635810Y-51417138D01*
X54397068Y-51313977D01*
X54151450Y-51198595D01*
X54014736Y-51132185D01*
X53835233Y-51054600D01*
X53699129Y-51020951D01*
X53564557Y-51023269D01*
X53389647Y-51053582D01*
X53165338Y-51092766D01*
X52846412Y-51118123D01*
X52616943Y-51086493D01*
X52464252Y-50997102D01*
X52433289Y-50964216D01*
X52345400Y-50806522D01*
X52372538Y-50658054D01*
X52517220Y-50513838D01*
X52781959Y-50368900D01*
X53007638Y-50267046D01*
X52797487Y-49849827D01*
X52779691Y-49814282D01*
X52711059Y-49671191D01*
X52875985Y-49671191D01*
X52890037Y-49748699D01*
X52964359Y-49915738D01*
X53017871Y-50020705D01*
X53092530Y-50148161D01*
X53136018Y-50196745D01*
X53166337Y-50186127D01*
X53281877Y-50132169D01*
X53445894Y-50048422D01*
X53569452Y-49981018D01*
X53643352Y-49922773D01*
X53624487Y-49877592D01*
X53504076Y-49831289D01*
X53273337Y-49769680D01*
X53207298Y-49752423D01*
X53031551Y-49703325D01*
X52917619Y-49666929D01*
X52875985Y-49671191D01*
X52711059Y-49671191D01*
X52682016Y-49610640D01*
X52613037Y-49452388D01*
X52586728Y-49371256D01*
X52568685Y-49354147D01*
X52455094Y-49302875D01*
X52254464Y-49231106D01*
X51987047Y-49145869D01*
X51673096Y-49054191D01*
X51545153Y-49017752D01*
X51197210Y-48913046D01*
X50873609Y-48808238D01*
X50605792Y-48713765D01*
X50425203Y-48640061D01*
X50199853Y-48546591D01*
X49930590Y-48491338D01*
X49672968Y-48523037D01*
X49383330Y-48641759D01*
X49270225Y-48696281D01*
X49030753Y-48802629D01*
X48740995Y-48923965D01*
X48424270Y-49051298D01*
X48103899Y-49175640D01*
X47803201Y-49288000D01*
X47545495Y-49379387D01*
X47354102Y-49440813D01*
X47252342Y-49463285D01*
X47194337Y-49459061D01*
X47107524Y-49407091D01*
X47103026Y-49306857D01*
X47187923Y-49306857D01*
X47187937Y-49307615D01*
X47242911Y-49330457D01*
X47395962Y-49305265D01*
X47634450Y-49236423D01*
X47945736Y-49128317D01*
X48317181Y-48985331D01*
X48736144Y-48811852D01*
X49189988Y-48612262D01*
X49339526Y-48547173D01*
X49586605Y-48450346D01*
X49789844Y-48383727D01*
X49915936Y-48358938D01*
X49922069Y-48359053D01*
X50065183Y-48386433D01*
X50273248Y-48452608D01*
X50503459Y-48544089D01*
X50633084Y-48596762D01*
X50866800Y-48681783D01*
X51146496Y-48776228D01*
X51449017Y-48873075D01*
X51751209Y-48965304D01*
X52029920Y-49045892D01*
X52261995Y-49107818D01*
X52424281Y-49144062D01*
X52493623Y-49147602D01*
X52494158Y-49106201D01*
X52465413Y-48970323D01*
X52410978Y-48768432D01*
X52339701Y-48528957D01*
X52260426Y-48280329D01*
X52182000Y-48050981D01*
X52113269Y-47869343D01*
X52063080Y-47763845D01*
X51972878Y-47667476D01*
X51834611Y-47592817D01*
X51826638Y-47590986D01*
X51690665Y-47561358D01*
X51480650Y-47517091D01*
X51238572Y-47467044D01*
X50943286Y-47394518D01*
X50698181Y-47305486D01*
X50546705Y-47212731D01*
X50498278Y-47122204D01*
X50518603Y-47096069D01*
X50685025Y-47096069D01*
X50686142Y-47123548D01*
X50704806Y-47178027D01*
X50762413Y-47222738D01*
X50879302Y-47266179D01*
X51075809Y-47316848D01*
X51372269Y-47383243D01*
X51502662Y-47413705D01*
X51751331Y-47483157D01*
X51947030Y-47552710D01*
X52055928Y-47611087D01*
X52212352Y-47810695D01*
X52361258Y-48138766D01*
X52485224Y-48576421D01*
X52536844Y-48790162D01*
X52634148Y-49106201D01*
X52648485Y-49152768D01*
X52764092Y-49395338D01*
X52884421Y-49519661D01*
X52886477Y-49520745D01*
X53003992Y-49567840D01*
X53198002Y-49631941D01*
X53427595Y-49699501D01*
X53580416Y-49741349D01*
X53748019Y-49780359D01*
X53857525Y-49786049D01*
X53945716Y-49758261D01*
X54049376Y-49696838D01*
X54076529Y-49680319D01*
X54218710Y-49613789D01*
X54314840Y-49599552D01*
X54320119Y-49610715D01*
X54259204Y-49671023D01*
X54111918Y-49772819D01*
X53894120Y-49906570D01*
X53865853Y-49922773D01*
X53621670Y-50062742D01*
X53310426Y-50231802D01*
X52976246Y-50404218D01*
X52831021Y-50479080D01*
X52634662Y-50595473D01*
X52529908Y-50691838D01*
X52501968Y-50784487D01*
X52536053Y-50889735D01*
X52578186Y-50936475D01*
X52737187Y-50988720D01*
X52986535Y-50991100D01*
X53312107Y-50944120D01*
X53343424Y-50936378D01*
X53936715Y-50936378D01*
X53942598Y-50948155D01*
X54027920Y-51007834D01*
X54194790Y-51093863D01*
X54417510Y-51194950D01*
X54670379Y-51299800D01*
X54927698Y-51397119D01*
X55163769Y-51475615D01*
X55371025Y-51532128D01*
X55693847Y-51606258D01*
X55992029Y-51661475D01*
X56214590Y-51693902D01*
X56523846Y-51735225D01*
X56789614Y-51766990D01*
X56860199Y-51774614D01*
X57157730Y-51806751D01*
X56995359Y-51678555D01*
X56931411Y-51633270D01*
X56743868Y-51523997D01*
X56535214Y-51423517D01*
X56528041Y-51420452D01*
X56476808Y-51395894D01*
X56820290Y-51395894D01*
X56850967Y-51426570D01*
X56875967Y-51401570D01*
X56970674Y-51401570D01*
X57017722Y-51486538D01*
X57078579Y-51564339D01*
X57150386Y-51610628D01*
X57189288Y-51624095D01*
X57273672Y-51701513D01*
X57329968Y-51751214D01*
X57433817Y-51733128D01*
X57469810Y-51702657D01*
X57617875Y-51702657D01*
X57648551Y-51733334D01*
X57679227Y-51702657D01*
X57648551Y-51671981D01*
X57623153Y-51697379D01*
X57617875Y-51702657D01*
X57469810Y-51702657D01*
X57476044Y-51697379D01*
X57453537Y-51672921D01*
X57405853Y-51662003D01*
X57297783Y-51595290D01*
X57218348Y-51532271D01*
X57197327Y-51518599D01*
X57372464Y-51518599D01*
X57403141Y-51549276D01*
X57433817Y-51518599D01*
X57403141Y-51487923D01*
X57372464Y-51518599D01*
X57197327Y-51518599D01*
X57077282Y-51440524D01*
X57002894Y-51400132D01*
X56970674Y-51401570D01*
X56875967Y-51401570D01*
X56881643Y-51395894D01*
X57127054Y-51395894D01*
X57157730Y-51426570D01*
X57188406Y-51395894D01*
X57157730Y-51365218D01*
X57127054Y-51395894D01*
X56881643Y-51395894D01*
X56850967Y-51365218D01*
X56820290Y-51395894D01*
X56476808Y-51395894D01*
X56259852Y-51291899D01*
X56177349Y-51242512D01*
X56421498Y-51242512D01*
X56434090Y-51260873D01*
X56486471Y-51303865D01*
X56636232Y-51303865D01*
X56638015Y-51318530D01*
X56697585Y-51365218D01*
X56712250Y-51363435D01*
X56758938Y-51303865D01*
X56757155Y-51289200D01*
X56697585Y-51242512D01*
X56682920Y-51244295D01*
X56636232Y-51303865D01*
X56486471Y-51303865D01*
X56492594Y-51302270D01*
X56513527Y-51242512D01*
X56511030Y-51225696D01*
X56448553Y-51181160D01*
X56426362Y-51185977D01*
X56421498Y-51242512D01*
X56177349Y-51242512D01*
X56040987Y-51160885D01*
X56038282Y-51158712D01*
X56217616Y-51158712D01*
X56268116Y-51181160D01*
X56300596Y-51176732D01*
X56309018Y-51140258D01*
X56300026Y-51132915D01*
X56227215Y-51140258D01*
X56217616Y-51158712D01*
X56038282Y-51158712D01*
X55893405Y-51042314D01*
X55884747Y-51027778D01*
X56022706Y-51027778D01*
X56053382Y-51058454D01*
X56084058Y-51027778D01*
X56053382Y-50997102D01*
X56022706Y-51027778D01*
X55884747Y-51027778D01*
X55839067Y-50951087D01*
X55839055Y-50949858D01*
X55836348Y-50914487D01*
X55841454Y-50892453D01*
X55872575Y-50887678D01*
X55947917Y-50904081D01*
X56085684Y-50945585D01*
X56304079Y-51016110D01*
X56339853Y-51027778D01*
X56621308Y-51119577D01*
X56681283Y-51140258D01*
X56932895Y-51227021D01*
X57134138Y-51303865D01*
X57226372Y-51339084D01*
X57359466Y-51395894D01*
X57468322Y-51442358D01*
X57616112Y-51518599D01*
X57625756Y-51523574D01*
X57751966Y-51600667D01*
X57867925Y-51647402D01*
X57980495Y-51638650D01*
X58146205Y-51580603D01*
X58227930Y-51547671D01*
X58373227Y-51478836D01*
X58444361Y-51429443D01*
X58447388Y-51418681D01*
X58391387Y-51355841D01*
X58233750Y-51270481D01*
X57988777Y-51167833D01*
X57670766Y-51053131D01*
X57294017Y-50931609D01*
X56872828Y-50808500D01*
X56421498Y-50689039D01*
X56388398Y-50680722D01*
X56024000Y-50588274D01*
X55697504Y-50503889D01*
X55429210Y-50432930D01*
X55239419Y-50380760D01*
X55148430Y-50352742D01*
X55085926Y-50338395D01*
X55041063Y-50375978D01*
X54988132Y-50442183D01*
X54848413Y-50534361D01*
X54650800Y-50637408D01*
X54424186Y-50736258D01*
X54197464Y-50815845D01*
X54123539Y-50839705D01*
X53989737Y-50894874D01*
X53936715Y-50936378D01*
X53343424Y-50936378D01*
X53699780Y-50848281D01*
X54025019Y-50748265D01*
X54444651Y-50596200D01*
X54759063Y-50449471D01*
X54959831Y-50311663D01*
X55073747Y-50236394D01*
X55163093Y-50229776D01*
X55245095Y-50228571D01*
X55360620Y-50159513D01*
X55442706Y-50089309D01*
X55461985Y-50094322D01*
X55414642Y-50199517D01*
X55340898Y-50352899D01*
X55475237Y-50199517D01*
X55609576Y-50046136D01*
X55562576Y-50199517D01*
X55534972Y-50299609D01*
X55554990Y-50313116D01*
X55646436Y-50236023D01*
X55667580Y-50218068D01*
X55757392Y-50171890D01*
X55775415Y-50210258D01*
X55703672Y-50309952D01*
X55663943Y-50359662D01*
X55679504Y-50382294D01*
X55755396Y-50353213D01*
X55864493Y-50277836D01*
X55869661Y-50273571D01*
X55932702Y-50228587D01*
X55915339Y-50259430D01*
X55878262Y-50305232D01*
X55836942Y-50393003D01*
X55880513Y-50403292D01*
X55992029Y-50322223D01*
X56044495Y-50277924D01*
X56129871Y-50236736D01*
X56146473Y-50271785D01*
X56072810Y-50370282D01*
X56039554Y-50410428D01*
X56026796Y-50465339D01*
X56031986Y-50467986D01*
X56121511Y-50495842D01*
X56302323Y-50545231D01*
X56551548Y-50610045D01*
X56846314Y-50684176D01*
X57175385Y-50772802D01*
X57531295Y-50881918D01*
X57852885Y-50993041D01*
X58097346Y-51092210D01*
X58165459Y-51123441D01*
X58372948Y-51215437D01*
X58528534Y-51279698D01*
X58602704Y-51303865D01*
X58641627Y-51289633D01*
X58742948Y-51195239D01*
X58858558Y-51041480D01*
X58964146Y-50862672D01*
X59035398Y-50693132D01*
X59044835Y-50658853D01*
X59075223Y-50461178D01*
X59066833Y-50298274D01*
X59008226Y-50171432D01*
X58856955Y-49985652D01*
X58643518Y-49791644D01*
X58392397Y-49605572D01*
X58128070Y-49443604D01*
X57875018Y-49321906D01*
X57657721Y-49256645D01*
X57500660Y-49263986D01*
X57444894Y-49287493D01*
X57273729Y-49361300D01*
X57042533Y-49462168D01*
X56785104Y-49575389D01*
X56472210Y-49702973D01*
X56103765Y-49831954D01*
X55734332Y-49942573D01*
X55386811Y-50029182D01*
X55084102Y-50086135D01*
X54849105Y-50107781D01*
X54704721Y-50088475D01*
X54610937Y-50019068D01*
X54550440Y-49865852D01*
X54583047Y-49674165D01*
X54708605Y-49468554D01*
X54800895Y-49377563D01*
X54971109Y-49229111D01*
X55192640Y-49045495D01*
X55441282Y-48846114D01*
X55692829Y-48650364D01*
X55923074Y-48477642D01*
X56107811Y-48347345D01*
X56124599Y-48287696D01*
X56050942Y-48173927D01*
X56000429Y-48110176D01*
X55887572Y-47947363D01*
X55745293Y-47727599D01*
X55592791Y-47479964D01*
X55459425Y-47265516D01*
X55288632Y-47025562D01*
X55127826Y-46851518D01*
X54953793Y-46715617D01*
X54879143Y-46667657D01*
X54698464Y-46577622D01*
X54597573Y-46575973D01*
X54579351Y-46661603D01*
X54646676Y-46833410D01*
X54696196Y-46959679D01*
X54745552Y-47219743D01*
X54754405Y-47503635D01*
X54722616Y-47764852D01*
X54650045Y-47956891D01*
X54644029Y-47965900D01*
X54445006Y-48157649D01*
X54186032Y-48265553D01*
X53909483Y-48271602D01*
X53731657Y-48205170D01*
X53489422Y-48022692D01*
X53249605Y-47745206D01*
X53026641Y-47387173D01*
X52960073Y-47259672D01*
X52885181Y-47091276D01*
X52848084Y-46939223D01*
X52847872Y-46920907D01*
X52961600Y-46920907D01*
X53027846Y-47104098D01*
X53149619Y-47358625D01*
X53243955Y-47534389D01*
X53466330Y-47845928D01*
X53703977Y-48054592D01*
X53948115Y-48155827D01*
X54189964Y-48145081D01*
X54420743Y-48017800D01*
X54421323Y-48017311D01*
X54576239Y-47839811D01*
X54647748Y-47626627D01*
X54638486Y-47357411D01*
X54551089Y-47011814D01*
X54524143Y-46925913D01*
X54464537Y-46693937D01*
X54459054Y-46550384D01*
X54509893Y-46477369D01*
X54619249Y-46457005D01*
X54756690Y-46477902D01*
X54999856Y-46592155D01*
X55245447Y-46787336D01*
X55468711Y-47042241D01*
X55644897Y-47335665D01*
X55744359Y-47526821D01*
X55894912Y-47774924D01*
X56036997Y-47971210D01*
X56248328Y-48224156D01*
X56430979Y-48081210D01*
X56465258Y-48051805D01*
X56610581Y-47883078D01*
X56726278Y-47688456D01*
X56760324Y-47617698D01*
X56836681Y-47489465D01*
X56890961Y-47438648D01*
X56917252Y-47441395D01*
X56938052Y-47473584D01*
X56909326Y-47562267D01*
X56825489Y-47732517D01*
X56720128Y-47901636D01*
X56562339Y-48087129D01*
X56341642Y-48295023D01*
X56043804Y-48538678D01*
X55654590Y-48831452D01*
X55475882Y-48964856D01*
X55114125Y-49258373D01*
X54862518Y-49503340D01*
X54719826Y-49701057D01*
X54684816Y-49852826D01*
X54719127Y-49933283D01*
X54820954Y-49986410D01*
X55000303Y-49992492D01*
X55269168Y-49951671D01*
X55639544Y-49864087D01*
X55787233Y-49823392D01*
X56191577Y-49693554D01*
X56612197Y-49535817D01*
X57030044Y-49359415D01*
X57426065Y-49173584D01*
X57538811Y-49114528D01*
X57738976Y-49114528D01*
X58198887Y-49365598D01*
X58458907Y-49520010D01*
X58702768Y-49687880D01*
X58903689Y-49849033D01*
X59040077Y-49986121D01*
X59090339Y-50081796D01*
X59090414Y-50083747D01*
X59149741Y-50122591D01*
X59304272Y-50132897D01*
X59531470Y-50117702D01*
X59808797Y-50080044D01*
X60113716Y-50022960D01*
X60423691Y-49949489D01*
X60716184Y-49862666D01*
X60727280Y-49858928D01*
X60996096Y-49757003D01*
X61295479Y-49625922D01*
X61604960Y-49476779D01*
X61904070Y-49320669D01*
X62172342Y-49168685D01*
X62389306Y-49031922D01*
X62534495Y-48921473D01*
X62587440Y-48848433D01*
X62547992Y-48792697D01*
X62408429Y-48709956D01*
X62376141Y-48696377D01*
X62587440Y-48696377D01*
X62618116Y-48727053D01*
X62648793Y-48696377D01*
X62618116Y-48665701D01*
X62587440Y-48696377D01*
X62376141Y-48696377D01*
X62189175Y-48617748D01*
X61912381Y-48524218D01*
X61678274Y-48459195D01*
X62046119Y-48459195D01*
X62096619Y-48481643D01*
X62129099Y-48477215D01*
X62137521Y-48440741D01*
X62128528Y-48433398D01*
X62055717Y-48440741D01*
X62046119Y-48459195D01*
X61678274Y-48459195D01*
X61600196Y-48437509D01*
X61274770Y-48365767D01*
X61168396Y-48345448D01*
X60873714Y-48286175D01*
X60684660Y-48241145D01*
X60589178Y-48206344D01*
X60575214Y-48177761D01*
X60579798Y-48175582D01*
X61084734Y-48175582D01*
X61096754Y-48191673D01*
X61179950Y-48236232D01*
X61214357Y-48232993D01*
X61228824Y-48200979D01*
X61166910Y-48165484D01*
X61345708Y-48165484D01*
X61382677Y-48200979D01*
X61383347Y-48201622D01*
X61514071Y-48246095D01*
X61711758Y-48289817D01*
X61999069Y-48350576D01*
X62245450Y-48422198D01*
X62287405Y-48440741D01*
X62406833Y-48493525D01*
X62464735Y-48557972D01*
X62487656Y-48584881D01*
X62587440Y-48604348D01*
X62658759Y-48615853D01*
X62710145Y-48665701D01*
X62713347Y-48694758D01*
X62716074Y-48696377D01*
X62755608Y-48719850D01*
X62857462Y-48668402D01*
X63032209Y-48535018D01*
X63160187Y-48414552D01*
X63220842Y-48311739D01*
X63184537Y-48260499D01*
X63050518Y-48271655D01*
X62950902Y-48279875D01*
X62868255Y-48243883D01*
X62840869Y-48218681D01*
X62741702Y-48213707D01*
X62647573Y-48210956D01*
X62515282Y-48149675D01*
X62406212Y-48084859D01*
X62322006Y-48056169D01*
X62602482Y-48056169D01*
X62618116Y-48113527D01*
X62630721Y-48131689D01*
X62686711Y-48174880D01*
X62695103Y-48170885D01*
X62690073Y-48152432D01*
X62905056Y-48152432D01*
X62946569Y-48170885D01*
X62955556Y-48174880D01*
X62988036Y-48170452D01*
X62996458Y-48133978D01*
X62987465Y-48126635D01*
X62914654Y-48133978D01*
X62905056Y-48152432D01*
X62690073Y-48152432D01*
X62679469Y-48113527D01*
X62666864Y-48095365D01*
X62610875Y-48052174D01*
X62602482Y-48056169D01*
X62322006Y-48056169D01*
X62313040Y-48053114D01*
X62293660Y-48065738D01*
X62342029Y-48118189D01*
X62370998Y-48142134D01*
X62350497Y-48159425D01*
X62221693Y-48140202D01*
X62067873Y-48118464D01*
X61841979Y-48106012D01*
X61620505Y-48109999D01*
X61442635Y-48129394D01*
X61347557Y-48163169D01*
X61345708Y-48165484D01*
X61166910Y-48165484D01*
X61142466Y-48151470D01*
X61094610Y-48140718D01*
X61084734Y-48175582D01*
X60579798Y-48175582D01*
X60630712Y-48151382D01*
X60829271Y-48100640D01*
X61242432Y-48036021D01*
X61709346Y-48001341D01*
X62188442Y-47997704D01*
X62638153Y-48026215D01*
X63016909Y-48087978D01*
X63209314Y-48133978D01*
X63415701Y-48183321D01*
X63737942Y-47831575D01*
X63776478Y-47789220D01*
X63917451Y-47628461D01*
X64011840Y-47511269D01*
X64040924Y-47460569D01*
X64034383Y-47456617D01*
X63934277Y-47440923D01*
X63737254Y-47431452D01*
X63464623Y-47427729D01*
X63137697Y-47429284D01*
X62777785Y-47435642D01*
X62406199Y-47446331D01*
X62044250Y-47460878D01*
X61713248Y-47478811D01*
X61434504Y-47499657D01*
X61229329Y-47522943D01*
X61098410Y-47542389D01*
X60737816Y-47593597D01*
X60375124Y-47642382D01*
X60071981Y-47680361D01*
X59801889Y-47715815D01*
X59433247Y-47784931D01*
X59154920Y-47874350D01*
X58946644Y-47993852D01*
X58788156Y-48153215D01*
X58659196Y-48362219D01*
X58590311Y-48483272D01*
X58327270Y-48787789D01*
X57976113Y-49007595D01*
X57738976Y-49114528D01*
X57538811Y-49114528D01*
X57781213Y-48987558D01*
X58076436Y-48810571D01*
X58292684Y-48651859D01*
X58410907Y-48520655D01*
X58421372Y-48501822D01*
X58527483Y-48321870D01*
X58645149Y-48135040D01*
X58782810Y-47925147D01*
X58629913Y-47548865D01*
X58557944Y-47358024D01*
X58512986Y-47210229D01*
X58506846Y-47142752D01*
X58508385Y-47141529D01*
X58541894Y-47169883D01*
X58604249Y-47286058D01*
X58699865Y-47499198D01*
X58833161Y-47818451D01*
X58852222Y-47859446D01*
X58901831Y-47888962D01*
X58996821Y-47832236D01*
X59036970Y-47798654D01*
X59071259Y-47742829D01*
X59074430Y-47658981D01*
X59042874Y-47525632D01*
X58972982Y-47321304D01*
X58861148Y-47024517D01*
X58854014Y-46991620D01*
X58887877Y-46947826D01*
X58932523Y-46998308D01*
X58999310Y-47136363D01*
X59072481Y-47331281D01*
X59108059Y-47433877D01*
X59179313Y-47602344D01*
X59243313Y-47681750D01*
X59314393Y-47693564D01*
X59378512Y-47678428D01*
X59454086Y-47646805D01*
X59451783Y-47596380D01*
X59419522Y-47460456D01*
X59365501Y-47275537D01*
X59300268Y-47077397D01*
X59234376Y-46901812D01*
X59226724Y-46868219D01*
X59263517Y-46825121D01*
X59265657Y-46825288D01*
X59318378Y-46883672D01*
X59384693Y-47020336D01*
X59450063Y-47196371D01*
X59499948Y-47372872D01*
X59519807Y-47510930D01*
X59550442Y-47591619D01*
X59673189Y-47622706D01*
X59737222Y-47618815D01*
X59802071Y-47586360D01*
X59817281Y-47503217D01*
X59784083Y-47348355D01*
X59703706Y-47100746D01*
X59650476Y-46932327D01*
X59613870Y-46782318D01*
X59611677Y-46712800D01*
X59623103Y-46702938D01*
X59654180Y-46702965D01*
X59689740Y-46761138D01*
X59739371Y-46897448D01*
X59812658Y-47131884D01*
X59873563Y-47319396D01*
X59935758Y-47456858D01*
X60003468Y-47524701D01*
X60095035Y-47550090D01*
X60203790Y-47554621D01*
X60256039Y-47537023D01*
X60250628Y-47510308D01*
X60211205Y-47390576D01*
X60146272Y-47215862D01*
X60070995Y-47025109D01*
X60000539Y-46857265D01*
X59950070Y-46751275D01*
X59925278Y-46685687D01*
X59941968Y-46614903D01*
X59944517Y-46613599D01*
X60000053Y-46651809D01*
X60077036Y-46787284D01*
X60165839Y-46999999D01*
X60256838Y-47269928D01*
X60263492Y-47291533D01*
X60320430Y-47430564D01*
X60401725Y-47488108D01*
X60552222Y-47498929D01*
X60598228Y-47497444D01*
X60794388Y-47480473D01*
X61052685Y-47448662D01*
X61329711Y-47407134D01*
X61563299Y-47376534D01*
X61976257Y-47343849D01*
X62474242Y-47323346D01*
X63035641Y-47316176D01*
X64189398Y-47315942D01*
X64345590Y-46974772D01*
X64437592Y-46735979D01*
X64506735Y-46395395D01*
X64492043Y-46096963D01*
X64392552Y-45863485D01*
X64285857Y-45746878D01*
X64021355Y-45566336D01*
X63648889Y-45406152D01*
X63165739Y-45265590D01*
X62569184Y-45143917D01*
X61856505Y-45040399D01*
X61024981Y-44954299D01*
X60954198Y-44948089D01*
X60391725Y-44893433D01*
X59927651Y-44834451D01*
X59540177Y-44764362D01*
X59207503Y-44676388D01*
X58907832Y-44563748D01*
X58619365Y-44419663D01*
X58320302Y-44237353D01*
X57988845Y-44010040D01*
X57700940Y-43808231D01*
X57381781Y-43595851D01*
X57108071Y-43432486D01*
X56850960Y-43302523D01*
X56581600Y-43190348D01*
X56271143Y-43080347D01*
X56132317Y-43036836D01*
X55805262Y-42957012D01*
X55505797Y-42913285D01*
X55255948Y-42906856D01*
X55077737Y-42938926D01*
X54993191Y-43010695D01*
X55008196Y-43058510D01*
X55094967Y-43179500D01*
X55242077Y-43346072D01*
X55431929Y-43537115D01*
X55590531Y-43693650D01*
X55826899Y-43961908D01*
X55978832Y-44201817D01*
X56059659Y-44437017D01*
X56082711Y-44691146D01*
X56082633Y-44699999D01*
X56020416Y-45060367D01*
X55841206Y-45402106D01*
X55542285Y-45730447D01*
X55494726Y-45772075D01*
X55258947Y-45946833D01*
X54982753Y-46098031D01*
X54645685Y-46234199D01*
X54227284Y-46363865D01*
X53707092Y-46495559D01*
X53479106Y-46549724D01*
X53209633Y-46623462D01*
X53041132Y-46698178D01*
X52962241Y-46791464D01*
X52961600Y-46920907D01*
X52847872Y-46920907D01*
X52846123Y-46769513D01*
X52876637Y-46548143D01*
X52936965Y-46241111D01*
X52939864Y-46226999D01*
X52988132Y-45971907D01*
X53006892Y-45806664D01*
X52997205Y-45703548D01*
X52960130Y-45634837D01*
X52944875Y-45616954D01*
X52865138Y-45551850D01*
X52794065Y-45567623D01*
X52715610Y-45676042D01*
X52613726Y-45888874D01*
X52523927Y-46074470D01*
X52327696Y-46367120D01*
X52085723Y-46577281D01*
X51773362Y-46723425D01*
X51365966Y-46824022D01*
X51362363Y-46824676D01*
X51044848Y-46890101D01*
X50835533Y-46953380D01*
X50720298Y-47020156D01*
X50685025Y-47096069D01*
X50518603Y-47096069D01*
X50562319Y-47039855D01*
X50607610Y-47001052D01*
X50602415Y-46922088D01*
X50474894Y-46838382D01*
X50367955Y-46756344D01*
X50226074Y-46602316D01*
X50081756Y-46410758D01*
X50039961Y-46351802D01*
X49849984Y-46117464D01*
X49609236Y-45855150D01*
X49343227Y-45589598D01*
X49077465Y-45345550D01*
X48837459Y-45147743D01*
X48648717Y-45020918D01*
X48576846Y-44985934D01*
X48393604Y-44940246D01*
X48273825Y-44983564D01*
X48230918Y-45112937D01*
X48234683Y-45145363D01*
X48276256Y-45292742D01*
X48354038Y-45503458D01*
X48455824Y-45743300D01*
X48599571Y-46111156D01*
X48706190Y-46587222D01*
X48705012Y-47034881D01*
X48597283Y-47469324D01*
X48554063Y-47577421D01*
X48466358Y-47747406D01*
X48345741Y-47916482D01*
X48171988Y-48111407D01*
X47924875Y-48358938D01*
X47861459Y-48421251D01*
X47580615Y-48714872D01*
X47368598Y-48968252D01*
X47234628Y-49169532D01*
X47187923Y-49306857D01*
X47103026Y-49306857D01*
X47102060Y-49285343D01*
X47175271Y-49080538D01*
X47203737Y-49019235D01*
X47277424Y-48886622D01*
X47375098Y-48752645D01*
X47513871Y-48597472D01*
X47710855Y-48401269D01*
X47983164Y-48144203D01*
X48095000Y-48034038D01*
X48354538Y-47697380D01*
X48512403Y-47326023D01*
X48584138Y-46887462D01*
X48584878Y-46876621D01*
X48588449Y-46643833D01*
X48561719Y-46417302D01*
X48497422Y-46168615D01*
X48388292Y-45869362D01*
X48227065Y-45491131D01*
X48151829Y-45272582D01*
X48130759Y-45050328D01*
X48183065Y-44890377D01*
X48306448Y-44812387D01*
X48448156Y-44826397D01*
X48665930Y-44922517D01*
X48928469Y-45091694D01*
X49219681Y-45321124D01*
X49523472Y-45598004D01*
X49823752Y-45909531D01*
X50104428Y-46242900D01*
X50231676Y-46399617D01*
X50408078Y-46596613D01*
X50554661Y-46736847D01*
X50650435Y-46798945D01*
X50734634Y-46804091D01*
X50924461Y-46788145D01*
X51169035Y-46751917D01*
X51431800Y-46701822D01*
X51676197Y-46644275D01*
X51865669Y-46585692D01*
X51930009Y-46556449D01*
X52153489Y-46386444D01*
X52359131Y-46131792D01*
X52522119Y-45821388D01*
X52604039Y-45640945D01*
X52711065Y-45488966D01*
X52824676Y-45438400D01*
X52959517Y-45477741D01*
X52984024Y-45492505D01*
X53057423Y-45576961D01*
X53092092Y-45717129D01*
X53090657Y-45934025D01*
X53055738Y-46248666D01*
X53047432Y-46310387D01*
X53040106Y-46419932D01*
X53063610Y-46485807D01*
X53135578Y-46510760D01*
X53273644Y-46497540D01*
X53495442Y-46448896D01*
X53818606Y-46367575D01*
X54378378Y-46209158D01*
X54875945Y-46026701D01*
X55267596Y-45826708D01*
X55562023Y-45602442D01*
X55767919Y-45347167D01*
X55893976Y-45054145D01*
X55948887Y-44716641D01*
X55955480Y-44571588D01*
X55945247Y-44391489D01*
X55897019Y-44247501D01*
X55797957Y-44085973D01*
X55670812Y-43928525D01*
X55478178Y-43729842D01*
X55271542Y-43546097D01*
X55102792Y-43396996D01*
X54927878Y-43188988D01*
X54861494Y-43017016D01*
X54903343Y-42886934D01*
X55053130Y-42804593D01*
X55310557Y-42775846D01*
X55328261Y-42775939D01*
X55756758Y-42823485D01*
X56239863Y-42951072D01*
X56750826Y-43148438D01*
X57262898Y-43405321D01*
X57749330Y-43711458D01*
X57831175Y-43769045D01*
X58177188Y-44008925D01*
X58475908Y-44204318D01*
X58746178Y-44361282D01*
X59006841Y-44485874D01*
X59276739Y-44584151D01*
X59574717Y-44662171D01*
X59919617Y-44725991D01*
X60330282Y-44781668D01*
X60825555Y-44835260D01*
X61424281Y-44892825D01*
X61902540Y-44944702D01*
X62442526Y-45020365D01*
X62939903Y-45108121D01*
X63374662Y-45203966D01*
X63726796Y-45303892D01*
X63976296Y-45403891D01*
X64269399Y-45592508D01*
X64512554Y-45857144D01*
X64641398Y-46161331D01*
X64650765Y-46395395D01*
X64654949Y-46499950D01*
G37*
G36*
X62350619Y-46784868D02*
G01*
X62403382Y-46885613D01*
X62398539Y-46931984D01*
X62311386Y-47065052D01*
X62127295Y-47143964D01*
X62099631Y-47148942D01*
X61904097Y-47144148D01*
X61751135Y-47077042D01*
X61678735Y-46962955D01*
X61678986Y-46897260D01*
X61737086Y-46826030D01*
X61889731Y-46769431D01*
X62000854Y-46744622D01*
X62208406Y-46736054D01*
X62350619Y-46784868D01*
G37*
G36*
X57028089Y-50340221D02*
G01*
X57153911Y-50419198D01*
X57205967Y-50490514D01*
X57216026Y-50572579D01*
X57192447Y-50596818D01*
X57075984Y-50627575D01*
X56932706Y-50606846D01*
X56822521Y-50539644D01*
X56777957Y-50448486D01*
X56808548Y-50366337D01*
X56902447Y-50326425D01*
X57028089Y-50340221D01*
G37*
D13*
%TO.C,J12*%
X80550000Y-75915000D02*
G75*
G02*
X80550000Y-78135000I0J-1110000D01*
G01*
X69250000Y-78135000D02*
G75*
G02*
X69250000Y-75915000I0J1110000D01*
G01*
X80550000Y-78135000D02*
X79960000Y-78135000D01*
X80550000Y-75915000D02*
X79960000Y-75915000D01*
X79960000Y-80235000D02*
X69840000Y-80235000D01*
X79960000Y-78135000D02*
X79960000Y-80235000D01*
X79960000Y-71015000D02*
X79960000Y-75915000D01*
X79960000Y-71015000D02*
X69840000Y-71015000D01*
X69840000Y-78135000D02*
X69840000Y-80235000D01*
X69840000Y-78135000D02*
X69250000Y-78135000D01*
X69840000Y-75915000D02*
X69250000Y-75915000D01*
X69840000Y-71015000D02*
X69840000Y-75915000D01*
D12*
%TO.C, *%
G36*
X77552349Y-57074950D02*
G01*
X77449624Y-57442880D01*
X77229642Y-57834999D01*
X77189823Y-57891770D01*
X77073358Y-58035569D01*
X76672817Y-58530118D01*
X76306229Y-58886739D01*
X76074272Y-59112389D01*
X75411467Y-59627811D01*
X74701681Y-60065618D01*
X73962192Y-60415038D01*
X73210279Y-60665305D01*
X72463222Y-60805648D01*
X72425534Y-60809832D01*
X72243758Y-60834461D01*
X72150173Y-60869291D01*
X72115496Y-60934690D01*
X72111089Y-61036178D01*
X72110444Y-61051025D01*
X72104785Y-61177624D01*
X72056028Y-61384613D01*
X71941838Y-61582227D01*
X71743644Y-61808828D01*
X71547052Y-61983792D01*
X71530223Y-61993681D01*
X71130984Y-62228276D01*
X70975130Y-62277657D01*
X70635731Y-62385193D01*
X70067202Y-62452956D01*
X69431310Y-62429977D01*
X69279340Y-62415078D01*
X69064921Y-62402230D01*
X68907651Y-62413219D01*
X68765471Y-62452886D01*
X68596324Y-62526069D01*
X68461046Y-62582989D01*
X68255700Y-62649629D01*
X68103150Y-62675850D01*
X67956182Y-62661711D01*
X67788913Y-62592429D01*
X67717051Y-62501310D01*
X67851946Y-62501310D01*
X67935626Y-62542461D01*
X68100110Y-62546943D01*
X68305753Y-62514623D01*
X68514686Y-62448518D01*
X68753468Y-62349614D01*
X68427996Y-62266320D01*
X68265778Y-62227343D01*
X68138342Y-62213364D01*
X68051087Y-62241377D01*
X67961032Y-62315950D01*
X67954872Y-62321817D01*
X67869067Y-62427906D01*
X67851946Y-62501310D01*
X67717051Y-62501310D01*
X67703375Y-62483969D01*
X67712474Y-62357191D01*
X67829119Y-62232956D01*
X67878250Y-62199467D01*
X67918980Y-62153373D01*
X67871628Y-62115712D01*
X67721752Y-62063722D01*
X67715207Y-62061576D01*
X67533210Y-61992138D01*
X67294468Y-61888977D01*
X67048850Y-61773595D01*
X66912136Y-61707185D01*
X66732633Y-61629600D01*
X66596529Y-61595951D01*
X66461957Y-61598269D01*
X66287047Y-61628582D01*
X66062738Y-61667766D01*
X65743812Y-61693123D01*
X65514343Y-61661493D01*
X65361652Y-61572102D01*
X65330689Y-61539216D01*
X65242800Y-61381522D01*
X65269938Y-61233054D01*
X65414620Y-61088838D01*
X65679359Y-60943900D01*
X65905038Y-60842046D01*
X65694887Y-60424827D01*
X65677091Y-60389282D01*
X65608459Y-60246191D01*
X65773385Y-60246191D01*
X65787437Y-60323699D01*
X65861759Y-60490738D01*
X65915271Y-60595705D01*
X65989930Y-60723161D01*
X66033418Y-60771745D01*
X66063737Y-60761127D01*
X66179277Y-60707169D01*
X66343294Y-60623422D01*
X66466852Y-60556018D01*
X66540752Y-60497773D01*
X66521887Y-60452592D01*
X66401476Y-60406289D01*
X66170737Y-60344680D01*
X66104698Y-60327423D01*
X65928951Y-60278325D01*
X65815019Y-60241929D01*
X65773385Y-60246191D01*
X65608459Y-60246191D01*
X65579416Y-60185640D01*
X65510437Y-60027388D01*
X65484128Y-59946256D01*
X65466085Y-59929147D01*
X65352494Y-59877875D01*
X65151864Y-59806106D01*
X64884447Y-59720869D01*
X64570496Y-59629191D01*
X64442553Y-59592752D01*
X64094610Y-59488046D01*
X63771009Y-59383238D01*
X63503192Y-59288765D01*
X63322603Y-59215061D01*
X63097253Y-59121591D01*
X62827990Y-59066338D01*
X62570368Y-59098037D01*
X62280730Y-59216759D01*
X62167625Y-59271281D01*
X61928153Y-59377629D01*
X61638395Y-59498965D01*
X61321670Y-59626298D01*
X61001299Y-59750640D01*
X60700601Y-59863000D01*
X60442895Y-59954387D01*
X60251502Y-60015813D01*
X60149742Y-60038285D01*
X60091737Y-60034061D01*
X60004924Y-59982091D01*
X60000426Y-59881857D01*
X60085323Y-59881857D01*
X60085337Y-59882615D01*
X60140311Y-59905457D01*
X60293362Y-59880265D01*
X60531850Y-59811423D01*
X60843136Y-59703317D01*
X61214581Y-59560331D01*
X61633544Y-59386852D01*
X62087388Y-59187262D01*
X62236926Y-59122173D01*
X62484005Y-59025346D01*
X62687244Y-58958727D01*
X62813336Y-58933938D01*
X62819469Y-58934053D01*
X62962583Y-58961433D01*
X63170648Y-59027608D01*
X63400859Y-59119089D01*
X63530484Y-59171762D01*
X63764200Y-59256783D01*
X64043896Y-59351228D01*
X64346417Y-59448075D01*
X64648609Y-59540304D01*
X64927320Y-59620892D01*
X65159395Y-59682818D01*
X65321681Y-59719062D01*
X65391023Y-59722602D01*
X65391558Y-59681201D01*
X65362813Y-59545323D01*
X65308378Y-59343432D01*
X65237101Y-59103957D01*
X65157826Y-58855329D01*
X65079400Y-58625981D01*
X65010669Y-58444343D01*
X64960480Y-58338845D01*
X64870278Y-58242476D01*
X64732011Y-58167817D01*
X64724038Y-58165986D01*
X64588065Y-58136358D01*
X64378050Y-58092091D01*
X64135972Y-58042044D01*
X63840686Y-57969518D01*
X63595581Y-57880486D01*
X63444105Y-57787731D01*
X63395678Y-57697204D01*
X63416003Y-57671069D01*
X63582425Y-57671069D01*
X63583542Y-57698548D01*
X63602206Y-57753027D01*
X63659813Y-57797738D01*
X63776702Y-57841179D01*
X63973209Y-57891848D01*
X64269669Y-57958243D01*
X64400062Y-57988705D01*
X64648731Y-58058157D01*
X64844430Y-58127710D01*
X64953328Y-58186087D01*
X65109752Y-58385695D01*
X65258658Y-58713766D01*
X65382624Y-59151421D01*
X65434244Y-59365162D01*
X65531548Y-59681201D01*
X65545885Y-59727768D01*
X65661492Y-59970338D01*
X65781821Y-60094661D01*
X65783877Y-60095745D01*
X65901392Y-60142840D01*
X66095402Y-60206941D01*
X66324995Y-60274501D01*
X66477816Y-60316349D01*
X66645419Y-60355359D01*
X66754925Y-60361049D01*
X66843116Y-60333261D01*
X66946776Y-60271838D01*
X66973929Y-60255319D01*
X67116110Y-60188789D01*
X67212240Y-60174552D01*
X67217519Y-60185715D01*
X67156604Y-60246023D01*
X67009318Y-60347819D01*
X66791520Y-60481570D01*
X66763253Y-60497773D01*
X66519070Y-60637742D01*
X66207826Y-60806802D01*
X65873646Y-60979218D01*
X65728421Y-61054080D01*
X65532062Y-61170473D01*
X65427308Y-61266838D01*
X65399368Y-61359487D01*
X65433453Y-61464735D01*
X65475586Y-61511475D01*
X65634587Y-61563720D01*
X65883935Y-61566100D01*
X66209507Y-61519120D01*
X66240824Y-61511378D01*
X66834115Y-61511378D01*
X66839998Y-61523155D01*
X66925320Y-61582834D01*
X67092190Y-61668863D01*
X67314910Y-61769950D01*
X67567779Y-61874800D01*
X67825098Y-61972119D01*
X68061169Y-62050615D01*
X68268425Y-62107128D01*
X68591247Y-62181258D01*
X68889429Y-62236475D01*
X69111990Y-62268902D01*
X69421246Y-62310225D01*
X69687014Y-62341990D01*
X69757599Y-62349614D01*
X70055130Y-62381751D01*
X69892759Y-62253555D01*
X69828811Y-62208270D01*
X69641268Y-62098997D01*
X69432614Y-61998517D01*
X69425441Y-61995452D01*
X69374208Y-61970894D01*
X69717690Y-61970894D01*
X69748367Y-62001570D01*
X69773367Y-61976570D01*
X69868074Y-61976570D01*
X69915122Y-62061538D01*
X69975979Y-62139339D01*
X70047786Y-62185628D01*
X70086688Y-62199095D01*
X70171072Y-62276513D01*
X70227368Y-62326214D01*
X70331217Y-62308128D01*
X70367210Y-62277657D01*
X70515275Y-62277657D01*
X70545951Y-62308334D01*
X70576627Y-62277657D01*
X70545951Y-62246981D01*
X70520553Y-62272379D01*
X70515275Y-62277657D01*
X70367210Y-62277657D01*
X70373444Y-62272379D01*
X70350937Y-62247921D01*
X70303253Y-62237003D01*
X70195183Y-62170290D01*
X70115748Y-62107271D01*
X70094727Y-62093599D01*
X70269864Y-62093599D01*
X70300541Y-62124276D01*
X70331217Y-62093599D01*
X70300541Y-62062923D01*
X70269864Y-62093599D01*
X70094727Y-62093599D01*
X69974682Y-62015524D01*
X69900294Y-61975132D01*
X69868074Y-61976570D01*
X69773367Y-61976570D01*
X69779043Y-61970894D01*
X70024454Y-61970894D01*
X70055130Y-62001570D01*
X70085806Y-61970894D01*
X70055130Y-61940218D01*
X70024454Y-61970894D01*
X69779043Y-61970894D01*
X69748367Y-61940218D01*
X69717690Y-61970894D01*
X69374208Y-61970894D01*
X69157252Y-61866899D01*
X69074749Y-61817512D01*
X69318898Y-61817512D01*
X69331490Y-61835873D01*
X69383871Y-61878865D01*
X69533632Y-61878865D01*
X69535415Y-61893530D01*
X69594985Y-61940218D01*
X69609650Y-61938435D01*
X69656338Y-61878865D01*
X69654555Y-61864200D01*
X69594985Y-61817512D01*
X69580320Y-61819295D01*
X69533632Y-61878865D01*
X69383871Y-61878865D01*
X69389994Y-61877270D01*
X69410927Y-61817512D01*
X69408430Y-61800696D01*
X69345953Y-61756160D01*
X69323762Y-61760977D01*
X69318898Y-61817512D01*
X69074749Y-61817512D01*
X68938387Y-61735885D01*
X68935682Y-61733712D01*
X69115016Y-61733712D01*
X69165516Y-61756160D01*
X69197996Y-61751732D01*
X69206418Y-61715258D01*
X69197426Y-61707915D01*
X69124615Y-61715258D01*
X69115016Y-61733712D01*
X68935682Y-61733712D01*
X68790805Y-61617314D01*
X68782147Y-61602778D01*
X68920106Y-61602778D01*
X68950782Y-61633454D01*
X68981458Y-61602778D01*
X68950782Y-61572102D01*
X68920106Y-61602778D01*
X68782147Y-61602778D01*
X68736467Y-61526087D01*
X68736455Y-61524858D01*
X68733748Y-61489487D01*
X68738854Y-61467453D01*
X68769975Y-61462678D01*
X68845317Y-61479081D01*
X68983084Y-61520585D01*
X69201479Y-61591110D01*
X69237253Y-61602778D01*
X69518708Y-61694577D01*
X69578683Y-61715258D01*
X69830295Y-61802021D01*
X70031538Y-61878865D01*
X70123772Y-61914084D01*
X70256866Y-61970894D01*
X70365722Y-62017358D01*
X70513512Y-62093599D01*
X70523156Y-62098574D01*
X70649366Y-62175667D01*
X70765325Y-62222402D01*
X70877895Y-62213650D01*
X71043605Y-62155603D01*
X71125330Y-62122671D01*
X71270627Y-62053836D01*
X71341761Y-62004443D01*
X71344788Y-61993681D01*
X71288787Y-61930841D01*
X71131150Y-61845481D01*
X70886177Y-61742833D01*
X70568166Y-61628131D01*
X70191417Y-61506609D01*
X69770228Y-61383500D01*
X69318898Y-61264039D01*
X69285798Y-61255722D01*
X68921400Y-61163274D01*
X68594904Y-61078889D01*
X68326610Y-61007930D01*
X68136819Y-60955760D01*
X68045830Y-60927742D01*
X67983326Y-60913395D01*
X67938463Y-60950978D01*
X67885532Y-61017183D01*
X67745813Y-61109361D01*
X67548200Y-61212408D01*
X67321586Y-61311258D01*
X67094864Y-61390845D01*
X67020939Y-61414705D01*
X66887137Y-61469874D01*
X66834115Y-61511378D01*
X66240824Y-61511378D01*
X66597180Y-61423281D01*
X66922419Y-61323265D01*
X67342051Y-61171200D01*
X67656463Y-61024471D01*
X67857231Y-60886663D01*
X67971147Y-60811394D01*
X68060493Y-60804776D01*
X68142495Y-60803571D01*
X68258020Y-60734513D01*
X68340106Y-60664309D01*
X68359385Y-60669322D01*
X68312042Y-60774517D01*
X68238298Y-60927899D01*
X68372637Y-60774517D01*
X68506976Y-60621136D01*
X68459976Y-60774517D01*
X68432372Y-60874609D01*
X68452390Y-60888116D01*
X68543836Y-60811023D01*
X68564980Y-60793068D01*
X68654792Y-60746890D01*
X68672815Y-60785258D01*
X68601072Y-60884952D01*
X68561343Y-60934662D01*
X68576904Y-60957294D01*
X68652796Y-60928213D01*
X68761893Y-60852836D01*
X68767061Y-60848571D01*
X68830102Y-60803587D01*
X68812739Y-60834430D01*
X68775662Y-60880232D01*
X68734342Y-60968003D01*
X68777913Y-60978292D01*
X68889429Y-60897223D01*
X68941895Y-60852924D01*
X69027271Y-60811736D01*
X69043873Y-60846785D01*
X68970210Y-60945282D01*
X68936954Y-60985428D01*
X68924196Y-61040339D01*
X68929386Y-61042986D01*
X69018911Y-61070842D01*
X69199723Y-61120231D01*
X69448948Y-61185045D01*
X69743714Y-61259176D01*
X70072785Y-61347802D01*
X70428695Y-61456918D01*
X70750285Y-61568041D01*
X70994746Y-61667210D01*
X71062859Y-61698441D01*
X71270348Y-61790437D01*
X71425934Y-61854698D01*
X71500104Y-61878865D01*
X71539027Y-61864633D01*
X71640348Y-61770239D01*
X71755958Y-61616480D01*
X71861546Y-61437672D01*
X71932798Y-61268132D01*
X71942235Y-61233853D01*
X71972623Y-61036178D01*
X71964233Y-60873274D01*
X71905626Y-60746432D01*
X71754355Y-60560652D01*
X71540918Y-60366644D01*
X71289797Y-60180572D01*
X71025470Y-60018604D01*
X70772418Y-59896906D01*
X70555121Y-59831645D01*
X70398060Y-59838986D01*
X70342294Y-59862493D01*
X70171129Y-59936300D01*
X69939933Y-60037168D01*
X69682504Y-60150389D01*
X69369610Y-60277973D01*
X69001165Y-60406954D01*
X68631732Y-60517573D01*
X68284211Y-60604182D01*
X67981502Y-60661135D01*
X67746505Y-60682781D01*
X67602121Y-60663475D01*
X67508337Y-60594068D01*
X67447840Y-60440852D01*
X67480447Y-60249165D01*
X67606005Y-60043554D01*
X67698295Y-59952563D01*
X67868509Y-59804111D01*
X68090040Y-59620495D01*
X68338682Y-59421114D01*
X68590229Y-59225364D01*
X68820474Y-59052642D01*
X69005211Y-58922345D01*
X69021999Y-58862696D01*
X68948342Y-58748927D01*
X68897829Y-58685176D01*
X68784972Y-58522363D01*
X68642693Y-58302599D01*
X68490191Y-58054964D01*
X68356825Y-57840516D01*
X68186032Y-57600562D01*
X68025226Y-57426518D01*
X67851193Y-57290617D01*
X67776543Y-57242657D01*
X67595864Y-57152622D01*
X67494973Y-57150973D01*
X67476751Y-57236603D01*
X67544076Y-57408410D01*
X67593596Y-57534679D01*
X67642952Y-57794743D01*
X67651805Y-58078635D01*
X67620016Y-58339852D01*
X67547445Y-58531891D01*
X67541429Y-58540900D01*
X67342406Y-58732649D01*
X67083432Y-58840553D01*
X66806883Y-58846602D01*
X66629057Y-58780170D01*
X66386822Y-58597692D01*
X66147005Y-58320206D01*
X65924041Y-57962173D01*
X65857473Y-57834672D01*
X65782581Y-57666276D01*
X65745484Y-57514223D01*
X65745272Y-57495907D01*
X65859000Y-57495907D01*
X65925246Y-57679098D01*
X66047019Y-57933625D01*
X66141355Y-58109389D01*
X66363730Y-58420928D01*
X66601377Y-58629592D01*
X66845515Y-58730827D01*
X67087364Y-58720081D01*
X67318143Y-58592800D01*
X67318723Y-58592311D01*
X67473639Y-58414811D01*
X67545148Y-58201627D01*
X67535886Y-57932411D01*
X67448489Y-57586814D01*
X67421543Y-57500913D01*
X67361937Y-57268937D01*
X67356454Y-57125384D01*
X67407293Y-57052369D01*
X67516649Y-57032005D01*
X67654090Y-57052902D01*
X67897256Y-57167155D01*
X68142847Y-57362336D01*
X68366111Y-57617241D01*
X68542297Y-57910665D01*
X68641759Y-58101821D01*
X68792312Y-58349924D01*
X68934397Y-58546210D01*
X69145728Y-58799156D01*
X69328379Y-58656210D01*
X69362658Y-58626805D01*
X69507981Y-58458078D01*
X69623678Y-58263456D01*
X69657724Y-58192698D01*
X69734081Y-58064465D01*
X69788361Y-58013648D01*
X69814652Y-58016395D01*
X69835452Y-58048584D01*
X69806726Y-58137267D01*
X69722889Y-58307517D01*
X69617528Y-58476636D01*
X69459739Y-58662129D01*
X69239042Y-58870023D01*
X68941204Y-59113678D01*
X68551990Y-59406452D01*
X68373282Y-59539856D01*
X68011525Y-59833373D01*
X67759918Y-60078340D01*
X67617226Y-60276057D01*
X67582216Y-60427826D01*
X67616527Y-60508283D01*
X67718354Y-60561410D01*
X67897703Y-60567492D01*
X68166568Y-60526671D01*
X68536944Y-60439087D01*
X68684633Y-60398392D01*
X69088977Y-60268554D01*
X69509597Y-60110817D01*
X69927444Y-59934415D01*
X70323465Y-59748584D01*
X70436211Y-59689528D01*
X70636376Y-59689528D01*
X71096287Y-59940598D01*
X71356307Y-60095010D01*
X71600168Y-60262880D01*
X71801089Y-60424033D01*
X71937477Y-60561121D01*
X71987739Y-60656796D01*
X71987814Y-60658747D01*
X72047141Y-60697591D01*
X72201672Y-60707897D01*
X72428870Y-60692702D01*
X72706197Y-60655044D01*
X73011116Y-60597960D01*
X73321091Y-60524489D01*
X73613584Y-60437666D01*
X73624680Y-60433928D01*
X73893496Y-60332003D01*
X74192879Y-60200922D01*
X74502360Y-60051779D01*
X74801470Y-59895669D01*
X75069742Y-59743685D01*
X75286706Y-59606922D01*
X75431895Y-59496473D01*
X75484840Y-59423433D01*
X75445392Y-59367697D01*
X75305829Y-59284956D01*
X75273541Y-59271377D01*
X75484840Y-59271377D01*
X75515516Y-59302053D01*
X75546193Y-59271377D01*
X75515516Y-59240701D01*
X75484840Y-59271377D01*
X75273541Y-59271377D01*
X75086575Y-59192748D01*
X74809781Y-59099218D01*
X74575674Y-59034195D01*
X74943519Y-59034195D01*
X74994019Y-59056643D01*
X75026499Y-59052215D01*
X75034921Y-59015741D01*
X75025928Y-59008398D01*
X74953117Y-59015741D01*
X74943519Y-59034195D01*
X74575674Y-59034195D01*
X74497596Y-59012509D01*
X74172170Y-58940767D01*
X74065796Y-58920448D01*
X73771114Y-58861175D01*
X73582060Y-58816145D01*
X73486578Y-58781344D01*
X73472614Y-58752761D01*
X73477198Y-58750582D01*
X73982134Y-58750582D01*
X73994154Y-58766673D01*
X74077350Y-58811232D01*
X74111757Y-58807993D01*
X74126224Y-58775979D01*
X74064310Y-58740484D01*
X74243108Y-58740484D01*
X74280077Y-58775979D01*
X74280747Y-58776622D01*
X74411471Y-58821095D01*
X74609158Y-58864817D01*
X74896469Y-58925576D01*
X75142850Y-58997198D01*
X75184805Y-59015741D01*
X75304233Y-59068525D01*
X75362135Y-59132972D01*
X75385056Y-59159881D01*
X75484840Y-59179348D01*
X75556159Y-59190853D01*
X75607545Y-59240701D01*
X75610747Y-59269758D01*
X75613474Y-59271377D01*
X75653008Y-59294850D01*
X75754862Y-59243402D01*
X75929609Y-59110018D01*
X76057587Y-58989552D01*
X76118242Y-58886739D01*
X76081937Y-58835499D01*
X75947918Y-58846655D01*
X75848302Y-58854875D01*
X75765655Y-58818883D01*
X75738269Y-58793681D01*
X75639102Y-58788707D01*
X75544973Y-58785956D01*
X75412682Y-58724675D01*
X75303612Y-58659859D01*
X75219406Y-58631169D01*
X75499882Y-58631169D01*
X75515516Y-58688527D01*
X75528121Y-58706689D01*
X75584111Y-58749880D01*
X75592503Y-58745885D01*
X75587473Y-58727432D01*
X75802456Y-58727432D01*
X75843969Y-58745885D01*
X75852956Y-58749880D01*
X75885436Y-58745452D01*
X75893858Y-58708978D01*
X75884865Y-58701635D01*
X75812054Y-58708978D01*
X75802456Y-58727432D01*
X75587473Y-58727432D01*
X75576869Y-58688527D01*
X75564264Y-58670365D01*
X75508275Y-58627174D01*
X75499882Y-58631169D01*
X75219406Y-58631169D01*
X75210440Y-58628114D01*
X75191060Y-58640738D01*
X75239429Y-58693189D01*
X75268398Y-58717134D01*
X75247897Y-58734425D01*
X75119093Y-58715202D01*
X74965273Y-58693464D01*
X74739379Y-58681012D01*
X74517905Y-58684999D01*
X74340035Y-58704394D01*
X74244957Y-58738169D01*
X74243108Y-58740484D01*
X74064310Y-58740484D01*
X74039866Y-58726470D01*
X73992010Y-58715718D01*
X73982134Y-58750582D01*
X73477198Y-58750582D01*
X73528112Y-58726382D01*
X73726671Y-58675640D01*
X74139832Y-58611021D01*
X74606746Y-58576341D01*
X75085842Y-58572704D01*
X75535553Y-58601215D01*
X75914309Y-58662978D01*
X76106714Y-58708978D01*
X76313101Y-58758321D01*
X76635342Y-58406575D01*
X76673878Y-58364220D01*
X76814851Y-58203461D01*
X76909240Y-58086269D01*
X76938324Y-58035569D01*
X76931783Y-58031617D01*
X76831677Y-58015923D01*
X76634654Y-58006452D01*
X76362023Y-58002729D01*
X76035097Y-58004284D01*
X75675185Y-58010642D01*
X75303599Y-58021331D01*
X74941650Y-58035878D01*
X74610648Y-58053811D01*
X74331904Y-58074657D01*
X74126729Y-58097943D01*
X73995810Y-58117389D01*
X73635216Y-58168597D01*
X73272524Y-58217382D01*
X72969381Y-58255361D01*
X72699289Y-58290815D01*
X72330647Y-58359931D01*
X72052320Y-58449350D01*
X71844044Y-58568852D01*
X71685556Y-58728215D01*
X71556596Y-58937219D01*
X71487711Y-59058272D01*
X71224670Y-59362789D01*
X70873513Y-59582595D01*
X70636376Y-59689528D01*
X70436211Y-59689528D01*
X70678613Y-59562558D01*
X70973836Y-59385571D01*
X71190084Y-59226859D01*
X71308307Y-59095655D01*
X71318772Y-59076822D01*
X71424883Y-58896870D01*
X71542549Y-58710040D01*
X71680210Y-58500147D01*
X71527313Y-58123865D01*
X71455344Y-57933024D01*
X71410386Y-57785229D01*
X71404246Y-57717752D01*
X71405785Y-57716529D01*
X71439294Y-57744883D01*
X71501649Y-57861058D01*
X71597265Y-58074198D01*
X71730561Y-58393451D01*
X71749622Y-58434446D01*
X71799231Y-58463962D01*
X71894221Y-58407236D01*
X71934370Y-58373654D01*
X71968659Y-58317829D01*
X71971830Y-58233981D01*
X71940274Y-58100632D01*
X71870382Y-57896304D01*
X71758548Y-57599517D01*
X71751414Y-57566620D01*
X71785277Y-57522826D01*
X71829923Y-57573308D01*
X71896710Y-57711363D01*
X71969881Y-57906281D01*
X72005459Y-58008877D01*
X72076713Y-58177344D01*
X72140713Y-58256750D01*
X72211793Y-58268564D01*
X72275912Y-58253428D01*
X72351486Y-58221805D01*
X72349183Y-58171380D01*
X72316922Y-58035456D01*
X72262901Y-57850537D01*
X72197668Y-57652397D01*
X72131776Y-57476812D01*
X72124124Y-57443219D01*
X72160917Y-57400121D01*
X72163057Y-57400288D01*
X72215778Y-57458672D01*
X72282093Y-57595336D01*
X72347463Y-57771371D01*
X72397348Y-57947872D01*
X72417207Y-58085930D01*
X72447842Y-58166619D01*
X72570589Y-58197706D01*
X72634622Y-58193815D01*
X72699471Y-58161360D01*
X72714681Y-58078217D01*
X72681483Y-57923355D01*
X72601106Y-57675746D01*
X72547876Y-57507327D01*
X72511270Y-57357318D01*
X72509077Y-57287800D01*
X72520503Y-57277938D01*
X72551580Y-57277965D01*
X72587140Y-57336138D01*
X72636771Y-57472448D01*
X72710058Y-57706884D01*
X72770963Y-57894396D01*
X72833158Y-58031858D01*
X72900868Y-58099701D01*
X72992435Y-58125090D01*
X73101190Y-58129621D01*
X73153439Y-58112023D01*
X73148028Y-58085308D01*
X73108605Y-57965576D01*
X73043672Y-57790862D01*
X72968395Y-57600109D01*
X72897939Y-57432265D01*
X72847470Y-57326275D01*
X72822678Y-57260687D01*
X72839368Y-57189903D01*
X72841917Y-57188599D01*
X72897453Y-57226809D01*
X72974436Y-57362284D01*
X73063239Y-57574999D01*
X73154238Y-57844928D01*
X73160892Y-57866533D01*
X73217830Y-58005564D01*
X73299125Y-58063108D01*
X73449622Y-58073929D01*
X73495628Y-58072444D01*
X73691788Y-58055473D01*
X73950085Y-58023662D01*
X74227111Y-57982134D01*
X74460699Y-57951534D01*
X74873657Y-57918849D01*
X75371642Y-57898346D01*
X75933041Y-57891176D01*
X77086798Y-57890942D01*
X77242990Y-57549772D01*
X77334992Y-57310979D01*
X77404135Y-56970395D01*
X77389443Y-56671963D01*
X77289952Y-56438485D01*
X77183257Y-56321878D01*
X76918755Y-56141336D01*
X76546289Y-55981152D01*
X76063139Y-55840590D01*
X75466584Y-55718917D01*
X74753905Y-55615399D01*
X73922381Y-55529299D01*
X73851598Y-55523089D01*
X73289125Y-55468433D01*
X72825051Y-55409451D01*
X72437577Y-55339362D01*
X72104903Y-55251388D01*
X71805232Y-55138748D01*
X71516765Y-54994663D01*
X71217702Y-54812353D01*
X70886245Y-54585040D01*
X70598340Y-54383231D01*
X70279181Y-54170851D01*
X70005471Y-54007486D01*
X69748360Y-53877523D01*
X69479000Y-53765348D01*
X69168543Y-53655347D01*
X69029717Y-53611836D01*
X68702662Y-53532012D01*
X68403197Y-53488285D01*
X68153348Y-53481856D01*
X67975137Y-53513926D01*
X67890591Y-53585695D01*
X67905596Y-53633510D01*
X67992367Y-53754500D01*
X68139477Y-53921072D01*
X68329329Y-54112115D01*
X68487931Y-54268650D01*
X68724299Y-54536908D01*
X68876232Y-54776817D01*
X68957059Y-55012017D01*
X68980111Y-55266146D01*
X68980033Y-55274999D01*
X68917816Y-55635367D01*
X68738606Y-55977106D01*
X68439685Y-56305447D01*
X68392126Y-56347075D01*
X68156347Y-56521833D01*
X67880153Y-56673031D01*
X67543085Y-56809199D01*
X67124684Y-56938865D01*
X66604492Y-57070559D01*
X66376506Y-57124724D01*
X66107033Y-57198462D01*
X65938532Y-57273178D01*
X65859641Y-57366464D01*
X65859000Y-57495907D01*
X65745272Y-57495907D01*
X65743523Y-57344513D01*
X65774037Y-57123143D01*
X65834365Y-56816111D01*
X65837264Y-56801999D01*
X65885532Y-56546907D01*
X65904292Y-56381664D01*
X65894605Y-56278548D01*
X65857530Y-56209837D01*
X65842275Y-56191954D01*
X65762538Y-56126850D01*
X65691465Y-56142623D01*
X65613010Y-56251042D01*
X65511126Y-56463874D01*
X65421327Y-56649470D01*
X65225096Y-56942120D01*
X64983123Y-57152281D01*
X64670762Y-57298425D01*
X64263366Y-57399022D01*
X64259763Y-57399676D01*
X63942248Y-57465101D01*
X63732933Y-57528380D01*
X63617698Y-57595156D01*
X63582425Y-57671069D01*
X63416003Y-57671069D01*
X63459719Y-57614855D01*
X63505010Y-57576052D01*
X63499815Y-57497088D01*
X63372294Y-57413382D01*
X63265355Y-57331344D01*
X63123474Y-57177316D01*
X62979156Y-56985758D01*
X62937361Y-56926802D01*
X62747384Y-56692464D01*
X62506636Y-56430150D01*
X62240627Y-56164598D01*
X61974865Y-55920550D01*
X61734859Y-55722743D01*
X61546117Y-55595918D01*
X61474246Y-55560934D01*
X61291004Y-55515246D01*
X61171225Y-55558564D01*
X61128318Y-55687937D01*
X61132083Y-55720363D01*
X61173656Y-55867742D01*
X61251438Y-56078458D01*
X61353224Y-56318300D01*
X61496971Y-56686156D01*
X61603590Y-57162222D01*
X61602412Y-57609881D01*
X61494683Y-58044324D01*
X61451463Y-58152421D01*
X61363758Y-58322406D01*
X61243141Y-58491482D01*
X61069388Y-58686407D01*
X60822275Y-58933938D01*
X60758859Y-58996251D01*
X60478015Y-59289872D01*
X60265998Y-59543252D01*
X60132028Y-59744532D01*
X60085323Y-59881857D01*
X60000426Y-59881857D01*
X59999460Y-59860343D01*
X60072671Y-59655538D01*
X60101137Y-59594235D01*
X60174824Y-59461622D01*
X60272498Y-59327645D01*
X60411271Y-59172472D01*
X60608255Y-58976269D01*
X60880564Y-58719203D01*
X60992400Y-58609038D01*
X61251938Y-58272380D01*
X61409803Y-57901023D01*
X61481538Y-57462462D01*
X61482278Y-57451621D01*
X61485849Y-57218833D01*
X61459119Y-56992302D01*
X61394822Y-56743615D01*
X61285692Y-56444362D01*
X61124465Y-56066131D01*
X61049229Y-55847582D01*
X61028159Y-55625328D01*
X61080465Y-55465377D01*
X61203848Y-55387387D01*
X61345556Y-55401397D01*
X61563330Y-55497517D01*
X61825869Y-55666694D01*
X62117081Y-55896124D01*
X62420872Y-56173004D01*
X62721152Y-56484531D01*
X63001828Y-56817900D01*
X63129076Y-56974617D01*
X63305478Y-57171613D01*
X63452061Y-57311847D01*
X63547835Y-57373945D01*
X63632034Y-57379091D01*
X63821861Y-57363145D01*
X64066435Y-57326917D01*
X64329200Y-57276822D01*
X64573597Y-57219275D01*
X64763069Y-57160692D01*
X64827409Y-57131449D01*
X65050889Y-56961444D01*
X65256531Y-56706792D01*
X65419519Y-56396388D01*
X65501439Y-56215945D01*
X65608465Y-56063966D01*
X65722076Y-56013400D01*
X65856917Y-56052741D01*
X65881424Y-56067505D01*
X65954823Y-56151961D01*
X65989492Y-56292129D01*
X65988057Y-56509025D01*
X65953138Y-56823666D01*
X65944832Y-56885387D01*
X65937506Y-56994932D01*
X65961010Y-57060807D01*
X66032978Y-57085760D01*
X66171044Y-57072540D01*
X66392842Y-57023896D01*
X66716006Y-56942575D01*
X67275778Y-56784158D01*
X67773345Y-56601701D01*
X68164996Y-56401708D01*
X68459423Y-56177442D01*
X68665319Y-55922167D01*
X68791376Y-55629145D01*
X68846287Y-55291641D01*
X68852880Y-55146588D01*
X68842647Y-54966489D01*
X68794419Y-54822501D01*
X68695357Y-54660973D01*
X68568212Y-54503525D01*
X68375578Y-54304842D01*
X68168942Y-54121097D01*
X68000192Y-53971996D01*
X67825278Y-53763988D01*
X67758894Y-53592016D01*
X67800743Y-53461934D01*
X67950530Y-53379593D01*
X68207957Y-53350846D01*
X68225661Y-53350939D01*
X68654158Y-53398485D01*
X69137263Y-53526072D01*
X69648226Y-53723438D01*
X70160298Y-53980321D01*
X70646730Y-54286458D01*
X70728575Y-54344045D01*
X71074588Y-54583925D01*
X71373308Y-54779318D01*
X71643578Y-54936282D01*
X71904241Y-55060874D01*
X72174139Y-55159151D01*
X72472117Y-55237171D01*
X72817017Y-55300991D01*
X73227682Y-55356668D01*
X73722955Y-55410260D01*
X74321681Y-55467825D01*
X74799940Y-55519702D01*
X75339926Y-55595365D01*
X75837303Y-55683121D01*
X76272062Y-55778966D01*
X76624196Y-55878892D01*
X76873696Y-55978891D01*
X77166799Y-56167508D01*
X77409954Y-56432144D01*
X77538798Y-56736331D01*
X77548165Y-56970395D01*
X77552349Y-57074950D01*
G37*
G36*
X75248019Y-57359868D02*
G01*
X75300782Y-57460613D01*
X75295939Y-57506984D01*
X75208786Y-57640052D01*
X75024695Y-57718964D01*
X74997031Y-57723942D01*
X74801497Y-57719148D01*
X74648535Y-57652042D01*
X74576135Y-57537955D01*
X74576386Y-57472260D01*
X74634486Y-57401030D01*
X74787131Y-57344431D01*
X74898254Y-57319622D01*
X75105806Y-57311054D01*
X75248019Y-57359868D01*
G37*
G36*
X69925489Y-60915221D02*
G01*
X70051311Y-60994198D01*
X70103367Y-61065514D01*
X70113426Y-61147579D01*
X70089847Y-61171818D01*
X69973384Y-61202575D01*
X69830106Y-61181846D01*
X69719921Y-61114644D01*
X69675357Y-61023486D01*
X69705948Y-60941337D01*
X69799847Y-60901425D01*
X69925489Y-60915221D01*
G37*
G36*
X85554949Y-38499950D02*
G01*
X85452224Y-38867880D01*
X85232242Y-39259999D01*
X85192423Y-39316770D01*
X85075958Y-39460569D01*
X84675417Y-39955118D01*
X84308829Y-40311739D01*
X84076872Y-40537389D01*
X83414067Y-41052811D01*
X82704281Y-41490618D01*
X81964792Y-41840038D01*
X81212879Y-42090305D01*
X80465822Y-42230648D01*
X80428134Y-42234832D01*
X80246358Y-42259461D01*
X80152773Y-42294291D01*
X80118096Y-42359690D01*
X80113689Y-42461178D01*
X80113044Y-42476025D01*
X80107385Y-42602624D01*
X80058628Y-42809613D01*
X79944438Y-43007227D01*
X79746244Y-43233828D01*
X79549652Y-43408792D01*
X79532823Y-43418681D01*
X79133584Y-43653276D01*
X78977730Y-43702657D01*
X78638331Y-43810193D01*
X78069802Y-43877956D01*
X77433910Y-43854977D01*
X77281940Y-43840078D01*
X77067521Y-43827230D01*
X76910251Y-43838219D01*
X76768071Y-43877886D01*
X76598924Y-43951069D01*
X76463646Y-44007989D01*
X76258300Y-44074629D01*
X76105750Y-44100850D01*
X75958782Y-44086711D01*
X75791513Y-44017429D01*
X75719651Y-43926310D01*
X75854546Y-43926310D01*
X75938226Y-43967461D01*
X76102710Y-43971943D01*
X76308353Y-43939623D01*
X76517286Y-43873518D01*
X76756068Y-43774614D01*
X76430596Y-43691320D01*
X76268378Y-43652343D01*
X76140942Y-43638364D01*
X76053687Y-43666377D01*
X75963632Y-43740950D01*
X75957472Y-43746817D01*
X75871667Y-43852906D01*
X75854546Y-43926310D01*
X75719651Y-43926310D01*
X75705975Y-43908969D01*
X75715074Y-43782191D01*
X75831719Y-43657956D01*
X75880850Y-43624467D01*
X75921580Y-43578373D01*
X75874228Y-43540712D01*
X75724352Y-43488722D01*
X75717807Y-43486576D01*
X75535810Y-43417138D01*
X75297068Y-43313977D01*
X75051450Y-43198595D01*
X74914736Y-43132185D01*
X74735233Y-43054600D01*
X74599129Y-43020951D01*
X74464557Y-43023269D01*
X74289647Y-43053582D01*
X74065338Y-43092766D01*
X73746412Y-43118123D01*
X73516943Y-43086493D01*
X73364252Y-42997102D01*
X73333289Y-42964216D01*
X73245400Y-42806522D01*
X73272538Y-42658054D01*
X73417220Y-42513838D01*
X73681959Y-42368900D01*
X73907638Y-42267046D01*
X73697487Y-41849827D01*
X73679691Y-41814282D01*
X73611059Y-41671191D01*
X73775985Y-41671191D01*
X73790037Y-41748699D01*
X73864359Y-41915738D01*
X73917871Y-42020705D01*
X73992530Y-42148161D01*
X74036018Y-42196745D01*
X74066337Y-42186127D01*
X74181877Y-42132169D01*
X74345894Y-42048422D01*
X74469452Y-41981018D01*
X74543352Y-41922773D01*
X74524487Y-41877592D01*
X74404076Y-41831289D01*
X74173337Y-41769680D01*
X74107298Y-41752423D01*
X73931551Y-41703325D01*
X73817619Y-41666929D01*
X73775985Y-41671191D01*
X73611059Y-41671191D01*
X73582016Y-41610640D01*
X73513037Y-41452388D01*
X73486728Y-41371256D01*
X73468685Y-41354147D01*
X73355094Y-41302875D01*
X73154464Y-41231106D01*
X72887047Y-41145869D01*
X72573096Y-41054191D01*
X72445153Y-41017752D01*
X72097210Y-40913046D01*
X71773609Y-40808238D01*
X71505792Y-40713765D01*
X71325203Y-40640061D01*
X71099853Y-40546591D01*
X70830590Y-40491338D01*
X70572968Y-40523037D01*
X70283330Y-40641759D01*
X70170225Y-40696281D01*
X69930753Y-40802629D01*
X69640995Y-40923965D01*
X69324270Y-41051298D01*
X69003899Y-41175640D01*
X68703201Y-41288000D01*
X68445495Y-41379387D01*
X68254102Y-41440813D01*
X68152342Y-41463285D01*
X68094337Y-41459061D01*
X68007524Y-41407091D01*
X68003026Y-41306857D01*
X68087923Y-41306857D01*
X68087937Y-41307615D01*
X68142911Y-41330457D01*
X68295962Y-41305265D01*
X68534450Y-41236423D01*
X68845736Y-41128317D01*
X69217181Y-40985331D01*
X69636144Y-40811852D01*
X70089988Y-40612262D01*
X70239526Y-40547173D01*
X70486605Y-40450346D01*
X70689844Y-40383727D01*
X70815936Y-40358938D01*
X70822069Y-40359053D01*
X70965183Y-40386433D01*
X71173248Y-40452608D01*
X71403459Y-40544089D01*
X71533084Y-40596762D01*
X71766800Y-40681783D01*
X72046496Y-40776228D01*
X72349017Y-40873075D01*
X72651209Y-40965304D01*
X72929920Y-41045892D01*
X73161995Y-41107818D01*
X73324281Y-41144062D01*
X73393623Y-41147602D01*
X73394158Y-41106201D01*
X73365413Y-40970323D01*
X73310978Y-40768432D01*
X73239701Y-40528957D01*
X73160426Y-40280329D01*
X73082000Y-40050981D01*
X73013269Y-39869343D01*
X72963080Y-39763845D01*
X72872878Y-39667476D01*
X72734611Y-39592817D01*
X72726638Y-39590986D01*
X72590665Y-39561358D01*
X72380650Y-39517091D01*
X72138572Y-39467044D01*
X71843286Y-39394518D01*
X71598181Y-39305486D01*
X71446705Y-39212731D01*
X71398278Y-39122204D01*
X71418603Y-39096069D01*
X71585025Y-39096069D01*
X71586142Y-39123548D01*
X71604806Y-39178027D01*
X71662413Y-39222738D01*
X71779302Y-39266179D01*
X71975809Y-39316848D01*
X72272269Y-39383243D01*
X72402662Y-39413705D01*
X72651331Y-39483157D01*
X72847030Y-39552710D01*
X72955928Y-39611087D01*
X73112352Y-39810695D01*
X73261258Y-40138766D01*
X73385224Y-40576421D01*
X73436844Y-40790162D01*
X73534148Y-41106201D01*
X73548485Y-41152768D01*
X73664092Y-41395338D01*
X73784421Y-41519661D01*
X73786477Y-41520745D01*
X73903992Y-41567840D01*
X74098002Y-41631941D01*
X74327595Y-41699501D01*
X74480416Y-41741349D01*
X74648019Y-41780359D01*
X74757525Y-41786049D01*
X74845716Y-41758261D01*
X74949376Y-41696838D01*
X74976529Y-41680319D01*
X75118710Y-41613789D01*
X75214840Y-41599552D01*
X75220119Y-41610715D01*
X75159204Y-41671023D01*
X75011918Y-41772819D01*
X74794120Y-41906570D01*
X74765853Y-41922773D01*
X74521670Y-42062742D01*
X74210426Y-42231802D01*
X73876246Y-42404218D01*
X73731021Y-42479080D01*
X73534662Y-42595473D01*
X73429908Y-42691838D01*
X73401968Y-42784487D01*
X73436053Y-42889735D01*
X73478186Y-42936475D01*
X73637187Y-42988720D01*
X73886535Y-42991100D01*
X74212107Y-42944120D01*
X74243424Y-42936378D01*
X74836715Y-42936378D01*
X74842598Y-42948155D01*
X74927920Y-43007834D01*
X75094790Y-43093863D01*
X75317510Y-43194950D01*
X75570379Y-43299800D01*
X75827698Y-43397119D01*
X76063769Y-43475615D01*
X76271025Y-43532128D01*
X76593847Y-43606258D01*
X76892029Y-43661475D01*
X77114590Y-43693902D01*
X77423846Y-43735225D01*
X77689614Y-43766990D01*
X77760199Y-43774614D01*
X78057730Y-43806751D01*
X77895359Y-43678555D01*
X77831411Y-43633270D01*
X77643868Y-43523997D01*
X77435214Y-43423517D01*
X77428041Y-43420452D01*
X77376808Y-43395894D01*
X77720290Y-43395894D01*
X77750967Y-43426570D01*
X77775967Y-43401570D01*
X77870674Y-43401570D01*
X77917722Y-43486538D01*
X77978579Y-43564339D01*
X78050386Y-43610628D01*
X78089288Y-43624095D01*
X78173672Y-43701513D01*
X78229968Y-43751214D01*
X78333817Y-43733128D01*
X78369810Y-43702657D01*
X78517875Y-43702657D01*
X78548551Y-43733334D01*
X78579227Y-43702657D01*
X78548551Y-43671981D01*
X78523153Y-43697379D01*
X78517875Y-43702657D01*
X78369810Y-43702657D01*
X78376044Y-43697379D01*
X78353537Y-43672921D01*
X78305853Y-43662003D01*
X78197783Y-43595290D01*
X78118348Y-43532271D01*
X78097327Y-43518599D01*
X78272464Y-43518599D01*
X78303141Y-43549276D01*
X78333817Y-43518599D01*
X78303141Y-43487923D01*
X78272464Y-43518599D01*
X78097327Y-43518599D01*
X77977282Y-43440524D01*
X77902894Y-43400132D01*
X77870674Y-43401570D01*
X77775967Y-43401570D01*
X77781643Y-43395894D01*
X78027054Y-43395894D01*
X78057730Y-43426570D01*
X78088406Y-43395894D01*
X78057730Y-43365218D01*
X78027054Y-43395894D01*
X77781643Y-43395894D01*
X77750967Y-43365218D01*
X77720290Y-43395894D01*
X77376808Y-43395894D01*
X77159852Y-43291899D01*
X77077349Y-43242512D01*
X77321498Y-43242512D01*
X77334090Y-43260873D01*
X77386471Y-43303865D01*
X77536232Y-43303865D01*
X77538015Y-43318530D01*
X77597585Y-43365218D01*
X77612250Y-43363435D01*
X77658938Y-43303865D01*
X77657155Y-43289200D01*
X77597585Y-43242512D01*
X77582920Y-43244295D01*
X77536232Y-43303865D01*
X77386471Y-43303865D01*
X77392594Y-43302270D01*
X77413527Y-43242512D01*
X77411030Y-43225696D01*
X77348553Y-43181160D01*
X77326362Y-43185977D01*
X77321498Y-43242512D01*
X77077349Y-43242512D01*
X76940987Y-43160885D01*
X76938282Y-43158712D01*
X77117616Y-43158712D01*
X77168116Y-43181160D01*
X77200596Y-43176732D01*
X77209018Y-43140258D01*
X77200026Y-43132915D01*
X77127215Y-43140258D01*
X77117616Y-43158712D01*
X76938282Y-43158712D01*
X76793405Y-43042314D01*
X76784747Y-43027778D01*
X76922706Y-43027778D01*
X76953382Y-43058454D01*
X76984058Y-43027778D01*
X76953382Y-42997102D01*
X76922706Y-43027778D01*
X76784747Y-43027778D01*
X76739067Y-42951087D01*
X76739055Y-42949858D01*
X76736348Y-42914487D01*
X76741454Y-42892453D01*
X76772575Y-42887678D01*
X76847917Y-42904081D01*
X76985684Y-42945585D01*
X77204079Y-43016110D01*
X77239853Y-43027778D01*
X77521308Y-43119577D01*
X77581283Y-43140258D01*
X77832895Y-43227021D01*
X78034138Y-43303865D01*
X78126372Y-43339084D01*
X78259466Y-43395894D01*
X78368322Y-43442358D01*
X78516112Y-43518599D01*
X78525756Y-43523574D01*
X78651966Y-43600667D01*
X78767925Y-43647402D01*
X78880495Y-43638650D01*
X79046205Y-43580603D01*
X79127930Y-43547671D01*
X79273227Y-43478836D01*
X79344361Y-43429443D01*
X79347388Y-43418681D01*
X79291387Y-43355841D01*
X79133750Y-43270481D01*
X78888777Y-43167833D01*
X78570766Y-43053131D01*
X78194017Y-42931609D01*
X77772828Y-42808500D01*
X77321498Y-42689039D01*
X77288398Y-42680722D01*
X76924000Y-42588274D01*
X76597504Y-42503889D01*
X76329210Y-42432930D01*
X76139419Y-42380760D01*
X76048430Y-42352742D01*
X75985926Y-42338395D01*
X75941063Y-42375978D01*
X75888132Y-42442183D01*
X75748413Y-42534361D01*
X75550800Y-42637408D01*
X75324186Y-42736258D01*
X75097464Y-42815845D01*
X75023539Y-42839705D01*
X74889737Y-42894874D01*
X74836715Y-42936378D01*
X74243424Y-42936378D01*
X74599780Y-42848281D01*
X74925019Y-42748265D01*
X75344651Y-42596200D01*
X75659063Y-42449471D01*
X75859831Y-42311663D01*
X75973747Y-42236394D01*
X76063093Y-42229776D01*
X76145095Y-42228571D01*
X76260620Y-42159513D01*
X76342706Y-42089309D01*
X76361985Y-42094322D01*
X76314642Y-42199517D01*
X76240898Y-42352899D01*
X76375237Y-42199517D01*
X76509576Y-42046136D01*
X76462576Y-42199517D01*
X76434972Y-42299609D01*
X76454990Y-42313116D01*
X76546436Y-42236023D01*
X76567580Y-42218068D01*
X76657392Y-42171890D01*
X76675415Y-42210258D01*
X76603672Y-42309952D01*
X76563943Y-42359662D01*
X76579504Y-42382294D01*
X76655396Y-42353213D01*
X76764493Y-42277836D01*
X76769661Y-42273571D01*
X76832702Y-42228587D01*
X76815339Y-42259430D01*
X76778262Y-42305232D01*
X76736942Y-42393003D01*
X76780513Y-42403292D01*
X76892029Y-42322223D01*
X76944495Y-42277924D01*
X77029871Y-42236736D01*
X77046473Y-42271785D01*
X76972810Y-42370282D01*
X76939554Y-42410428D01*
X76926796Y-42465339D01*
X76931986Y-42467986D01*
X77021511Y-42495842D01*
X77202323Y-42545231D01*
X77451548Y-42610045D01*
X77746314Y-42684176D01*
X78075385Y-42772802D01*
X78431295Y-42881918D01*
X78752885Y-42993041D01*
X78997346Y-43092210D01*
X79065459Y-43123441D01*
X79272948Y-43215437D01*
X79428534Y-43279698D01*
X79502704Y-43303865D01*
X79541627Y-43289633D01*
X79642948Y-43195239D01*
X79758558Y-43041480D01*
X79864146Y-42862672D01*
X79935398Y-42693132D01*
X79944835Y-42658853D01*
X79975223Y-42461178D01*
X79966833Y-42298274D01*
X79908226Y-42171432D01*
X79756955Y-41985652D01*
X79543518Y-41791644D01*
X79292397Y-41605572D01*
X79028070Y-41443604D01*
X78775018Y-41321906D01*
X78557721Y-41256645D01*
X78400660Y-41263986D01*
X78344894Y-41287493D01*
X78173729Y-41361300D01*
X77942533Y-41462168D01*
X77685104Y-41575389D01*
X77372210Y-41702973D01*
X77003765Y-41831954D01*
X76634332Y-41942573D01*
X76286811Y-42029182D01*
X75984102Y-42086135D01*
X75749105Y-42107781D01*
X75604721Y-42088475D01*
X75510937Y-42019068D01*
X75450440Y-41865852D01*
X75483047Y-41674165D01*
X75608605Y-41468554D01*
X75700895Y-41377563D01*
X75871109Y-41229111D01*
X76092640Y-41045495D01*
X76341282Y-40846114D01*
X76592829Y-40650364D01*
X76823074Y-40477642D01*
X77007811Y-40347345D01*
X77024599Y-40287696D01*
X76950942Y-40173927D01*
X76900429Y-40110176D01*
X76787572Y-39947363D01*
X76645293Y-39727599D01*
X76492791Y-39479964D01*
X76359425Y-39265516D01*
X76188632Y-39025562D01*
X76027826Y-38851518D01*
X75853793Y-38715617D01*
X75779143Y-38667657D01*
X75598464Y-38577622D01*
X75497573Y-38575973D01*
X75479351Y-38661603D01*
X75546676Y-38833410D01*
X75596196Y-38959679D01*
X75645552Y-39219743D01*
X75654405Y-39503635D01*
X75622616Y-39764852D01*
X75550045Y-39956891D01*
X75544029Y-39965900D01*
X75345006Y-40157649D01*
X75086032Y-40265553D01*
X74809483Y-40271602D01*
X74631657Y-40205170D01*
X74389422Y-40022692D01*
X74149605Y-39745206D01*
X73926641Y-39387173D01*
X73860073Y-39259672D01*
X73785181Y-39091276D01*
X73748084Y-38939223D01*
X73747872Y-38920907D01*
X73861600Y-38920907D01*
X73927846Y-39104098D01*
X74049619Y-39358625D01*
X74143955Y-39534389D01*
X74366330Y-39845928D01*
X74603977Y-40054592D01*
X74848115Y-40155827D01*
X75089964Y-40145081D01*
X75320743Y-40017800D01*
X75321323Y-40017311D01*
X75476239Y-39839811D01*
X75547748Y-39626627D01*
X75538486Y-39357411D01*
X75451089Y-39011814D01*
X75424143Y-38925913D01*
X75364537Y-38693937D01*
X75359054Y-38550384D01*
X75409893Y-38477369D01*
X75519249Y-38457005D01*
X75656690Y-38477902D01*
X75899856Y-38592155D01*
X76145447Y-38787336D01*
X76368711Y-39042241D01*
X76544897Y-39335665D01*
X76644359Y-39526821D01*
X76794912Y-39774924D01*
X76936997Y-39971210D01*
X77148328Y-40224156D01*
X77330979Y-40081210D01*
X77365258Y-40051805D01*
X77510581Y-39883078D01*
X77626278Y-39688456D01*
X77660324Y-39617698D01*
X77736681Y-39489465D01*
X77790961Y-39438648D01*
X77817252Y-39441395D01*
X77838052Y-39473584D01*
X77809326Y-39562267D01*
X77725489Y-39732517D01*
X77620128Y-39901636D01*
X77462339Y-40087129D01*
X77241642Y-40295023D01*
X76943804Y-40538678D01*
X76554590Y-40831452D01*
X76375882Y-40964856D01*
X76014125Y-41258373D01*
X75762518Y-41503340D01*
X75619826Y-41701057D01*
X75584816Y-41852826D01*
X75619127Y-41933283D01*
X75720954Y-41986410D01*
X75900303Y-41992492D01*
X76169168Y-41951671D01*
X76539544Y-41864087D01*
X76687233Y-41823392D01*
X77091577Y-41693554D01*
X77512197Y-41535817D01*
X77930044Y-41359415D01*
X78326065Y-41173584D01*
X78438811Y-41114528D01*
X78638976Y-41114528D01*
X79098887Y-41365598D01*
X79358907Y-41520010D01*
X79602768Y-41687880D01*
X79803689Y-41849033D01*
X79940077Y-41986121D01*
X79990339Y-42081796D01*
X79990414Y-42083747D01*
X80049741Y-42122591D01*
X80204272Y-42132897D01*
X80431470Y-42117702D01*
X80708797Y-42080044D01*
X81013716Y-42022960D01*
X81323691Y-41949489D01*
X81616184Y-41862666D01*
X81627280Y-41858928D01*
X81896096Y-41757003D01*
X82195479Y-41625922D01*
X82504960Y-41476779D01*
X82804070Y-41320669D01*
X83072342Y-41168685D01*
X83289306Y-41031922D01*
X83434495Y-40921473D01*
X83487440Y-40848433D01*
X83447992Y-40792697D01*
X83308429Y-40709956D01*
X83276141Y-40696377D01*
X83487440Y-40696377D01*
X83518116Y-40727053D01*
X83548793Y-40696377D01*
X83518116Y-40665701D01*
X83487440Y-40696377D01*
X83276141Y-40696377D01*
X83089175Y-40617748D01*
X82812381Y-40524218D01*
X82578274Y-40459195D01*
X82946119Y-40459195D01*
X82996619Y-40481643D01*
X83029099Y-40477215D01*
X83037521Y-40440741D01*
X83028528Y-40433398D01*
X82955717Y-40440741D01*
X82946119Y-40459195D01*
X82578274Y-40459195D01*
X82500196Y-40437509D01*
X82174770Y-40365767D01*
X82068396Y-40345448D01*
X81773714Y-40286175D01*
X81584660Y-40241145D01*
X81489178Y-40206344D01*
X81475214Y-40177761D01*
X81479798Y-40175582D01*
X81984734Y-40175582D01*
X81996754Y-40191673D01*
X82079950Y-40236232D01*
X82114357Y-40232993D01*
X82128824Y-40200979D01*
X82066910Y-40165484D01*
X82245708Y-40165484D01*
X82282677Y-40200979D01*
X82283347Y-40201622D01*
X82414071Y-40246095D01*
X82611758Y-40289817D01*
X82899069Y-40350576D01*
X83145450Y-40422198D01*
X83187405Y-40440741D01*
X83306833Y-40493525D01*
X83364735Y-40557972D01*
X83387656Y-40584881D01*
X83487440Y-40604348D01*
X83558759Y-40615853D01*
X83610145Y-40665701D01*
X83613347Y-40694758D01*
X83616074Y-40696377D01*
X83655608Y-40719850D01*
X83757462Y-40668402D01*
X83932209Y-40535018D01*
X84060187Y-40414552D01*
X84120842Y-40311739D01*
X84084537Y-40260499D01*
X83950518Y-40271655D01*
X83850902Y-40279875D01*
X83768255Y-40243883D01*
X83740869Y-40218681D01*
X83641702Y-40213707D01*
X83547573Y-40210956D01*
X83415282Y-40149675D01*
X83306212Y-40084859D01*
X83222006Y-40056169D01*
X83502482Y-40056169D01*
X83518116Y-40113527D01*
X83530721Y-40131689D01*
X83586711Y-40174880D01*
X83595103Y-40170885D01*
X83590073Y-40152432D01*
X83805056Y-40152432D01*
X83846569Y-40170885D01*
X83855556Y-40174880D01*
X83888036Y-40170452D01*
X83896458Y-40133978D01*
X83887465Y-40126635D01*
X83814654Y-40133978D01*
X83805056Y-40152432D01*
X83590073Y-40152432D01*
X83579469Y-40113527D01*
X83566864Y-40095365D01*
X83510875Y-40052174D01*
X83502482Y-40056169D01*
X83222006Y-40056169D01*
X83213040Y-40053114D01*
X83193660Y-40065738D01*
X83242029Y-40118189D01*
X83270998Y-40142134D01*
X83250497Y-40159425D01*
X83121693Y-40140202D01*
X82967873Y-40118464D01*
X82741979Y-40106012D01*
X82520505Y-40109999D01*
X82342635Y-40129394D01*
X82247557Y-40163169D01*
X82245708Y-40165484D01*
X82066910Y-40165484D01*
X82042466Y-40151470D01*
X81994610Y-40140718D01*
X81984734Y-40175582D01*
X81479798Y-40175582D01*
X81530712Y-40151382D01*
X81729271Y-40100640D01*
X82142432Y-40036021D01*
X82609346Y-40001341D01*
X83088442Y-39997704D01*
X83538153Y-40026215D01*
X83916909Y-40087978D01*
X84109314Y-40133978D01*
X84315701Y-40183321D01*
X84637942Y-39831575D01*
X84676478Y-39789220D01*
X84817451Y-39628461D01*
X84911840Y-39511269D01*
X84940924Y-39460569D01*
X84934383Y-39456617D01*
X84834277Y-39440923D01*
X84637254Y-39431452D01*
X84364623Y-39427729D01*
X84037697Y-39429284D01*
X83677785Y-39435642D01*
X83306199Y-39446331D01*
X82944250Y-39460878D01*
X82613248Y-39478811D01*
X82334504Y-39499657D01*
X82129329Y-39522943D01*
X81998410Y-39542389D01*
X81637816Y-39593597D01*
X81275124Y-39642382D01*
X80971981Y-39680361D01*
X80701889Y-39715815D01*
X80333247Y-39784931D01*
X80054920Y-39874350D01*
X79846644Y-39993852D01*
X79688156Y-40153215D01*
X79559196Y-40362219D01*
X79490311Y-40483272D01*
X79227270Y-40787789D01*
X78876113Y-41007595D01*
X78638976Y-41114528D01*
X78438811Y-41114528D01*
X78681213Y-40987558D01*
X78976436Y-40810571D01*
X79192684Y-40651859D01*
X79310907Y-40520655D01*
X79321372Y-40501822D01*
X79427483Y-40321870D01*
X79545149Y-40135040D01*
X79682810Y-39925147D01*
X79529913Y-39548865D01*
X79457944Y-39358024D01*
X79412986Y-39210229D01*
X79406846Y-39142752D01*
X79408385Y-39141529D01*
X79441894Y-39169883D01*
X79504249Y-39286058D01*
X79599865Y-39499198D01*
X79733161Y-39818451D01*
X79752222Y-39859446D01*
X79801831Y-39888962D01*
X79896821Y-39832236D01*
X79936970Y-39798654D01*
X79971259Y-39742829D01*
X79974430Y-39658981D01*
X79942874Y-39525632D01*
X79872982Y-39321304D01*
X79761148Y-39024517D01*
X79754014Y-38991620D01*
X79787877Y-38947826D01*
X79832523Y-38998308D01*
X79899310Y-39136363D01*
X79972481Y-39331281D01*
X80008059Y-39433877D01*
X80079313Y-39602344D01*
X80143313Y-39681750D01*
X80214393Y-39693564D01*
X80278512Y-39678428D01*
X80354086Y-39646805D01*
X80351783Y-39596380D01*
X80319522Y-39460456D01*
X80265501Y-39275537D01*
X80200268Y-39077397D01*
X80134376Y-38901812D01*
X80126724Y-38868219D01*
X80163517Y-38825121D01*
X80165657Y-38825288D01*
X80218378Y-38883672D01*
X80284693Y-39020336D01*
X80350063Y-39196371D01*
X80399948Y-39372872D01*
X80419807Y-39510930D01*
X80450442Y-39591619D01*
X80573189Y-39622706D01*
X80637222Y-39618815D01*
X80702071Y-39586360D01*
X80717281Y-39503217D01*
X80684083Y-39348355D01*
X80603706Y-39100746D01*
X80550476Y-38932327D01*
X80513870Y-38782318D01*
X80511677Y-38712800D01*
X80523103Y-38702938D01*
X80554180Y-38702965D01*
X80589740Y-38761138D01*
X80639371Y-38897448D01*
X80712658Y-39131884D01*
X80773563Y-39319396D01*
X80835758Y-39456858D01*
X80903468Y-39524701D01*
X80995035Y-39550090D01*
X81103790Y-39554621D01*
X81156039Y-39537023D01*
X81150628Y-39510308D01*
X81111205Y-39390576D01*
X81046272Y-39215862D01*
X80970995Y-39025109D01*
X80900539Y-38857265D01*
X80850070Y-38751275D01*
X80825278Y-38685687D01*
X80841968Y-38614903D01*
X80844517Y-38613599D01*
X80900053Y-38651809D01*
X80977036Y-38787284D01*
X81065839Y-38999999D01*
X81156838Y-39269928D01*
X81163492Y-39291533D01*
X81220430Y-39430564D01*
X81301725Y-39488108D01*
X81452222Y-39498929D01*
X81498228Y-39497444D01*
X81694388Y-39480473D01*
X81952685Y-39448662D01*
X82229711Y-39407134D01*
X82463299Y-39376534D01*
X82876257Y-39343849D01*
X83374242Y-39323346D01*
X83935641Y-39316176D01*
X85089398Y-39315942D01*
X85245590Y-38974772D01*
X85337592Y-38735979D01*
X85406735Y-38395395D01*
X85392043Y-38096963D01*
X85292552Y-37863485D01*
X85185857Y-37746878D01*
X84921355Y-37566336D01*
X84548889Y-37406152D01*
X84065739Y-37265590D01*
X83469184Y-37143917D01*
X82756505Y-37040399D01*
X81924981Y-36954299D01*
X81854198Y-36948089D01*
X81291725Y-36893433D01*
X80827651Y-36834451D01*
X80440177Y-36764362D01*
X80107503Y-36676388D01*
X79807832Y-36563748D01*
X79519365Y-36419663D01*
X79220302Y-36237353D01*
X78888845Y-36010040D01*
X78600940Y-35808231D01*
X78281781Y-35595851D01*
X78008071Y-35432486D01*
X77750960Y-35302523D01*
X77481600Y-35190348D01*
X77171143Y-35080347D01*
X77032317Y-35036836D01*
X76705262Y-34957012D01*
X76405797Y-34913285D01*
X76155948Y-34906856D01*
X75977737Y-34938926D01*
X75893191Y-35010695D01*
X75908196Y-35058510D01*
X75994967Y-35179500D01*
X76142077Y-35346072D01*
X76331929Y-35537115D01*
X76490531Y-35693650D01*
X76726899Y-35961908D01*
X76878832Y-36201817D01*
X76959659Y-36437017D01*
X76982711Y-36691146D01*
X76982633Y-36699999D01*
X76920416Y-37060367D01*
X76741206Y-37402106D01*
X76442285Y-37730447D01*
X76394726Y-37772075D01*
X76158947Y-37946833D01*
X75882753Y-38098031D01*
X75545685Y-38234199D01*
X75127284Y-38363865D01*
X74607092Y-38495559D01*
X74379106Y-38549724D01*
X74109633Y-38623462D01*
X73941132Y-38698178D01*
X73862241Y-38791464D01*
X73861600Y-38920907D01*
X73747872Y-38920907D01*
X73746123Y-38769513D01*
X73776637Y-38548143D01*
X73836965Y-38241111D01*
X73839864Y-38226999D01*
X73888132Y-37971907D01*
X73906892Y-37806664D01*
X73897205Y-37703548D01*
X73860130Y-37634837D01*
X73844875Y-37616954D01*
X73765138Y-37551850D01*
X73694065Y-37567623D01*
X73615610Y-37676042D01*
X73513726Y-37888874D01*
X73423927Y-38074470D01*
X73227696Y-38367120D01*
X72985723Y-38577281D01*
X72673362Y-38723425D01*
X72265966Y-38824022D01*
X72262363Y-38824676D01*
X71944848Y-38890101D01*
X71735533Y-38953380D01*
X71620298Y-39020156D01*
X71585025Y-39096069D01*
X71418603Y-39096069D01*
X71462319Y-39039855D01*
X71507610Y-39001052D01*
X71502415Y-38922088D01*
X71374894Y-38838382D01*
X71267955Y-38756344D01*
X71126074Y-38602316D01*
X70981756Y-38410758D01*
X70939961Y-38351802D01*
X70749984Y-38117464D01*
X70509236Y-37855150D01*
X70243227Y-37589598D01*
X69977465Y-37345550D01*
X69737459Y-37147743D01*
X69548717Y-37020918D01*
X69476846Y-36985934D01*
X69293604Y-36940246D01*
X69173825Y-36983564D01*
X69130918Y-37112937D01*
X69134683Y-37145363D01*
X69176256Y-37292742D01*
X69254038Y-37503458D01*
X69355824Y-37743300D01*
X69499571Y-38111156D01*
X69606190Y-38587222D01*
X69605012Y-39034881D01*
X69497283Y-39469324D01*
X69454063Y-39577421D01*
X69366358Y-39747406D01*
X69245741Y-39916482D01*
X69071988Y-40111407D01*
X68824875Y-40358938D01*
X68761459Y-40421251D01*
X68480615Y-40714872D01*
X68268598Y-40968252D01*
X68134628Y-41169532D01*
X68087923Y-41306857D01*
X68003026Y-41306857D01*
X68002060Y-41285343D01*
X68075271Y-41080538D01*
X68103737Y-41019235D01*
X68177424Y-40886622D01*
X68275098Y-40752645D01*
X68413871Y-40597472D01*
X68610855Y-40401269D01*
X68883164Y-40144203D01*
X68995000Y-40034038D01*
X69254538Y-39697380D01*
X69412403Y-39326023D01*
X69484138Y-38887462D01*
X69484878Y-38876621D01*
X69488449Y-38643833D01*
X69461719Y-38417302D01*
X69397422Y-38168615D01*
X69288292Y-37869362D01*
X69127065Y-37491131D01*
X69051829Y-37272582D01*
X69030759Y-37050328D01*
X69083065Y-36890377D01*
X69206448Y-36812387D01*
X69348156Y-36826397D01*
X69565930Y-36922517D01*
X69828469Y-37091694D01*
X70119681Y-37321124D01*
X70423472Y-37598004D01*
X70723752Y-37909531D01*
X71004428Y-38242900D01*
X71131676Y-38399617D01*
X71308078Y-38596613D01*
X71454661Y-38736847D01*
X71550435Y-38798945D01*
X71634634Y-38804091D01*
X71824461Y-38788145D01*
X72069035Y-38751917D01*
X72331800Y-38701822D01*
X72576197Y-38644275D01*
X72765669Y-38585692D01*
X72830009Y-38556449D01*
X73053489Y-38386444D01*
X73259131Y-38131792D01*
X73422119Y-37821388D01*
X73504039Y-37640945D01*
X73611065Y-37488966D01*
X73724676Y-37438400D01*
X73859517Y-37477741D01*
X73884024Y-37492505D01*
X73957423Y-37576961D01*
X73992092Y-37717129D01*
X73990657Y-37934025D01*
X73955738Y-38248666D01*
X73947432Y-38310387D01*
X73940106Y-38419932D01*
X73963610Y-38485807D01*
X74035578Y-38510760D01*
X74173644Y-38497540D01*
X74395442Y-38448896D01*
X74718606Y-38367575D01*
X75278378Y-38209158D01*
X75775945Y-38026701D01*
X76167596Y-37826708D01*
X76462023Y-37602442D01*
X76667919Y-37347167D01*
X76793976Y-37054145D01*
X76848887Y-36716641D01*
X76855480Y-36571588D01*
X76845247Y-36391489D01*
X76797019Y-36247501D01*
X76697957Y-36085973D01*
X76570812Y-35928525D01*
X76378178Y-35729842D01*
X76171542Y-35546097D01*
X76002792Y-35396996D01*
X75827878Y-35188988D01*
X75761494Y-35017016D01*
X75803343Y-34886934D01*
X75953130Y-34804593D01*
X76210557Y-34775846D01*
X76228261Y-34775939D01*
X76656758Y-34823485D01*
X77139863Y-34951072D01*
X77650826Y-35148438D01*
X78162898Y-35405321D01*
X78649330Y-35711458D01*
X78731175Y-35769045D01*
X79077188Y-36008925D01*
X79375908Y-36204318D01*
X79646178Y-36361282D01*
X79906841Y-36485874D01*
X80176739Y-36584151D01*
X80474717Y-36662171D01*
X80819617Y-36725991D01*
X81230282Y-36781668D01*
X81725555Y-36835260D01*
X82324281Y-36892825D01*
X82802540Y-36944702D01*
X83342526Y-37020365D01*
X83839903Y-37108121D01*
X84274662Y-37203966D01*
X84626796Y-37303892D01*
X84876296Y-37403891D01*
X85169399Y-37592508D01*
X85412554Y-37857144D01*
X85541398Y-38161331D01*
X85550765Y-38395395D01*
X85554949Y-38499950D01*
G37*
G36*
X83250619Y-38784868D02*
G01*
X83303382Y-38885613D01*
X83298539Y-38931984D01*
X83211386Y-39065052D01*
X83027295Y-39143964D01*
X82999631Y-39148942D01*
X82804097Y-39144148D01*
X82651135Y-39077042D01*
X82578735Y-38962955D01*
X82578986Y-38897260D01*
X82637086Y-38826030D01*
X82789731Y-38769431D01*
X82900854Y-38744622D01*
X83108406Y-38736054D01*
X83250619Y-38784868D01*
G37*
G36*
X77928089Y-42340221D02*
G01*
X78053911Y-42419198D01*
X78105967Y-42490514D01*
X78116026Y-42572579D01*
X78092447Y-42596818D01*
X77975984Y-42627575D01*
X77832706Y-42606846D01*
X77722521Y-42539644D01*
X77677957Y-42448486D01*
X77708548Y-42366337D01*
X77802447Y-42326425D01*
X77928089Y-42340221D01*
G37*
D13*
%TO.C,P1*%
X62730000Y-73880000D02*
X62730000Y-75290000D01*
X61910000Y-71360000D02*
X61910000Y-71210000D01*
X61910000Y-71210000D02*
X61110000Y-71210000D01*
X53570000Y-73880000D02*
X53570000Y-75290000D01*
%TD*%
M02*
