M48
; DRILL file {KiCad 8.0.3} date 2024-07-15T22:47:55-0400
; FORMAT={-:-/ absolute / inch / decimal}
; #@! TF.CreationDate,2024-07-15T22:47:55-04:00
; #@! TF.GenerationSoftware,Kicad,Pcbnew,8.0.3
; #@! TF.FileFunction,Plated,1,2,PTH
FMAT,2
INCH
; #@! TA.AperFunction,Plated,PTH,ViaDrill
T1C0.0118
; #@! TA.AperFunction,Plated,PTH,ViaDrill
T2C0.0157
; #@! TA.AperFunction,Plated,PTH,ComponentDrill
T3C0.0295
; #@! TA.AperFunction,Plated,PTH,ComponentDrill
T4C0.0394
; #@! TA.AperFunction,Plated,PTH,ComponentDrill
T5C0.0748
%
G90
G05
T1
X1.7356Y-1.8358
X1.9722Y-1.7855
X2.0101Y-1.8481
X2.0443Y-1.8238
X2.06Y-1.8553
X2.0679Y-1.7451
T2
X1.64Y-2.825
X1.6406Y-2.87
X1.65Y-2.535
X1.6506Y-2.2175
X1.6506Y-2.3041
X1.6506Y-2.3829
X1.6506Y-2.4774
X1.6722Y-2.124
X1.7791Y-2.0648
X1.7844Y-2.2175
X1.7844Y-2.3041
X1.7844Y-2.3829
X1.7844Y-2.8159
X1.8041Y-1.9537
X1.8593Y-1.9656
X1.8791Y-2.0648
X1.8791Y-2.1648
X1.9106Y-2.3224
X1.9146Y-2.2457
X1.9281Y-2.8612
X1.9358Y-1.6846
X1.937Y-1.65
X1.9409Y-2.3567
X1.9449Y-2.2799
X1.9681Y-2.322
X1.97Y-2.705
X1.97Y-2.795
X1.972Y-2.2453
X1.9791Y-1.9648
X1.9791Y-2.0648
X1.9791Y-2.1648
X1.985Y-2.915
X1.9965Y-2.3551
X2.0004Y-2.2783
X2.0244Y-2.3217
X2.0283Y-2.2449
X2.0315Y-2.7616
X2.0791Y-1.9648
X2.0791Y-2.0648
X2.0791Y-2.1648
X2.128Y-1.7805
X2.128Y-1.8189
X2.1791Y-1.9648
X2.1791Y-2.0648
X2.1791Y-2.1648
X2.1791Y-2.2648
X2.1791Y-2.3648
X2.2677Y-2.6604
X2.2707Y-2.936
X2.2791Y-1.9648
X2.2791Y-2.0648
X2.2791Y-2.1648
X2.2791Y-2.2648
X2.2791Y-2.3648
X2.3091Y-2.6604
X2.312Y-1.7736
X2.3297Y-2.936
X2.3791Y-1.6648
X2.4341Y-1.8406
X2.4537Y-1.7215
X2.4606Y-2.6033
X2.4724Y-1.8012
X2.48Y-2.215
X2.56Y-2.29
X2.565Y-2.37
X2.5679Y-1.6742
X2.5856Y-2.8868
X2.59Y-2.07
X2.59Y-2.145
X2.6014Y-1.7293
X2.62Y-2.29
X2.6644Y-2.4104
X2.689Y-2.5807
X2.689Y-2.6417
X2.69Y-2.695
X2.705Y-1.83
X2.72Y-1.885
X2.72Y-1.94
X2.72Y-2.0
X2.7254Y-2.4173
X2.7791Y-2.8648
X2.7791Y-2.9648
X2.78Y-1.33
X2.8041Y-2.5285
X2.8415Y-2.5285
X2.86Y-1.44
X2.8789Y-2.5285
X2.8791Y-2.8648
X2.8791Y-2.9648
X2.9791Y-2.2648
X2.9791Y-2.7648
X2.9791Y-2.8648
X2.9791Y-2.9648
X3.005Y-1.8
X3.0791Y-1.4648
X3.0791Y-1.8648
X3.0791Y-2.0648
X3.0791Y-2.1648
X3.0791Y-2.2648
X3.0791Y-2.3648
X3.0791Y-2.4648
X3.0791Y-2.7648
X3.0791Y-2.8648
X3.0791Y-2.9648
X3.08Y-1.73
X3.155Y-1.73
X3.1791Y-1.3648
X3.1791Y-1.4648
X3.1791Y-1.5648
X3.1791Y-2.1648
X3.1791Y-2.2648
X3.1791Y-2.3648
X3.1791Y-2.4648
X3.1791Y-2.5648
X3.1791Y-2.6648
X3.1791Y-2.7648
X3.1791Y-2.8648
X3.1791Y-2.9648
X3.2791Y-1.3648
X3.2791Y-1.4648
X3.2791Y-1.5648
X3.2791Y-1.9648
X3.2791Y-2.1648
X3.2791Y-2.2648
X3.2791Y-2.3648
X3.2791Y-2.4648
X3.2791Y-2.5648
X3.2791Y-2.6648
X3.2791Y-2.7648
X3.2791Y-2.8648
X3.29Y-1.73
X3.3091Y-1.6752
T3
X3.0226Y-1.8934
X3.0226Y-1.9934
X3.2047Y-1.7876
X3.2047Y-2.0988
X3.2913Y-1.8376
X3.2913Y-2.0488
T4
X1.6959Y-1.3833
X1.6959Y-1.4833
X1.6959Y-1.5833
X1.6959Y-1.6833
X1.6959Y-1.7833
X1.8376Y-1.3533
X1.8376Y-1.4533
X1.8376Y-1.5533
X1.8376Y-1.6533
X1.98Y-1.353
X1.98Y-1.453
X1.98Y-1.553
X2.127Y-1.353
X2.127Y-1.453
X2.127Y-1.553
X2.274Y-1.353
X2.274Y-1.453
X2.274Y-1.553
X2.421Y-1.353
X2.421Y-1.453
X2.421Y-1.553
X2.568Y-1.353
X2.568Y-1.453
X2.568Y-1.553
X2.7323Y-3.0325
X3.1654Y-3.0325
T5
X2.8504Y-2.6388
X3.0472Y-2.6388
M30
