%TF.GenerationSoftware,KiCad,Pcbnew,8.0.3*%
%TF.CreationDate,2024-07-15T22:47:52-04:00*%
%TF.ProjectId,get-a-grip-on-reality,6765742d-612d-4677-9269-702d6f6e2d72,rev?*%
%TF.SameCoordinates,Original*%
%TF.FileFunction,Soldermask,Top*%
%TF.FilePolarity,Negative*%
%FSLAX46Y46*%
G04 Gerber Fmt 4.6, Leading zero omitted, Abs format (unit mm)*
G04 Created by KiCad (PCBNEW 8.0.3) date 2024-07-15 22:47:52*
%MOMM*%
%LPD*%
G01*
G04 APERTURE LIST*
G04 Aperture macros list*
%AMRoundRect*
0 Rectangle with rounded corners*
0 $1 Rounding radius*
0 $2 $3 $4 $5 $6 $7 $8 $9 X,Y pos of 4 corners*
0 Add a 4 corners polygon primitive as box body*
4,1,4,$2,$3,$4,$5,$6,$7,$8,$9,$2,$3,0*
0 Add four circle primitives for the rounded corners*
1,1,$1+$1,$2,$3*
1,1,$1+$1,$4,$5*
1,1,$1+$1,$6,$7*
1,1,$1+$1,$8,$9*
0 Add four rect primitives between the rounded corners*
20,1,$1+$1,$2,$3,$4,$5,0*
20,1,$1+$1,$4,$5,$6,$7,0*
20,1,$1+$1,$6,$7,$8,$9,0*
20,1,$1+$1,$8,$9,$2,$3,0*%
G04 Aperture macros list end*
%ADD10RoundRect,0.102000X0.230230X0.859230X-0.859230X0.230230X-0.230230X-0.859230X0.859230X-0.230230X0*%
%ADD11C,1.462000*%
%ADD12RoundRect,0.250000X0.250000X0.475000X-0.250000X0.475000X-0.250000X-0.475000X0.250000X-0.475000X0*%
%ADD13O,1.700000X1.700000*%
%ADD14R,1.700000X1.700000*%
%ADD15RoundRect,0.250000X-0.650000X0.350000X-0.650000X-0.350000X0.650000X-0.350000X0.650000X0.350000X0*%
%ADD16RoundRect,0.150000X-0.625000X0.150000X-0.625000X-0.150000X0.625000X-0.150000X0.625000X0.150000X0*%
%ADD17RoundRect,0.250000X-0.450000X0.262500X-0.450000X-0.262500X0.450000X-0.262500X0.450000X0.262500X0*%
%ADD18R,1.600000X1.000000*%
%ADD19RoundRect,0.093750X-0.106250X0.093750X-0.106250X-0.093750X0.106250X-0.093750X0.106250X0.093750X0*%
%ADD20RoundRect,0.243750X-0.456250X0.243750X-0.456250X-0.243750X0.456250X-0.243750X0.456250X0.243750X0*%
%ADD21RoundRect,0.250000X-0.250000X-0.475000X0.250000X-0.475000X0.250000X0.475000X-0.250000X0.475000X0*%
%ADD22RoundRect,0.250000X-0.262500X-0.450000X0.262500X-0.450000X0.262500X0.450000X-0.262500X0.450000X0*%
%ADD23RoundRect,0.062500X-0.117500X-0.062500X0.117500X-0.062500X0.117500X0.062500X-0.117500X0.062500X0*%
%ADD24RoundRect,0.250000X0.350000X0.650000X-0.350000X0.650000X-0.350000X-0.650000X0.350000X-0.650000X0*%
%ADD25RoundRect,0.150000X0.150000X0.625000X-0.150000X0.625000X-0.150000X-0.625000X0.150000X-0.625000X0*%
%ADD26R,0.250000X0.675000*%
%ADD27R,0.675000X0.250000*%
%ADD28RoundRect,0.250000X-0.475000X0.250000X-0.475000X-0.250000X0.475000X-0.250000X0.475000X0.250000X0*%
%ADD29R,3.900000X3.900000*%
%ADD30R,0.900000X1.500000*%
%ADD31R,1.500000X0.900000*%
%ADD32RoundRect,0.102000X-0.859230X-0.230230X0.230230X-0.859230X0.859230X0.230230X-0.230230X0.859230X0*%
%ADD33RoundRect,0.243750X0.243750X0.456250X-0.243750X0.456250X-0.243750X-0.456250X0.243750X-0.456250X0*%
%ADD34R,1.000000X2.750000*%
%ADD35RoundRect,0.250000X0.450000X-0.262500X0.450000X0.262500X-0.450000X0.262500X-0.450000X-0.262500X0*%
%ADD36RoundRect,0.102000X0.629000X-0.629000X0.629000X0.629000X-0.629000X0.629000X-0.629000X-0.629000X0*%
%ADD37RoundRect,0.250000X0.262500X0.450000X-0.262500X0.450000X-0.262500X-0.450000X0.262500X-0.450000X0*%
%ADD38RoundRect,0.100500X0.986500X0.301500X-0.986500X0.301500X-0.986500X-0.301500X0.986500X-0.301500X0*%
%ADD39C,3.500000*%
%ADD40R,3.500000X3.500000*%
%ADD41C,1.400000*%
%ADD42C,0.650000*%
G04 APERTURE END LIST*
D10*
%TO.C,D5*%
X83600000Y-52040000D03*
D11*
X81400296Y-53310000D03*
%TD*%
D12*
%TO.C,C8*%
X45775000Y-44875000D03*
X47675000Y-44875000D03*
%TD*%
%TO.C,C6*%
X41975200Y-68066800D03*
X43875200Y-68066800D03*
%TD*%
D13*
%TO.C,J9*%
X57759664Y-34366000D03*
X57759664Y-36906000D03*
D14*
X57759664Y-39446000D03*
%TD*%
D13*
%TO.C,J11*%
X65227000Y-34366000D03*
X65227000Y-36906000D03*
D14*
X65227000Y-39446000D03*
%TD*%
D13*
%TO.C,J10*%
X61493330Y-34366000D03*
X61493330Y-36906000D03*
D14*
X61493330Y-39446000D03*
%TD*%
D15*
%TO.C,J6*%
X65625000Y-63075000D03*
X65625000Y-56475000D03*
D16*
X63100000Y-61775000D03*
X63100000Y-60775000D03*
X63100000Y-59775000D03*
X63100000Y-58775000D03*
X63100000Y-57775000D03*
%TD*%
D17*
%TO.C,R4*%
X64525000Y-46525000D03*
X64525000Y-44700000D03*
%TD*%
D18*
%TO.C,U1*%
X69225000Y-61400000D03*
D19*
X69875000Y-62287500D03*
X69225000Y-62287500D03*
X68575000Y-62287500D03*
X68575000Y-60512500D03*
X69225000Y-60512500D03*
X69875000Y-60512500D03*
%TD*%
D20*
%TO.C,D2*%
X62475000Y-53625000D03*
X62475000Y-51750000D03*
%TD*%
D12*
%TO.C,C5*%
X67847400Y-55992200D03*
X69747400Y-55992200D03*
%TD*%
D21*
%TO.C,C3*%
X69517800Y-42525000D03*
X67617800Y-42525000D03*
%TD*%
D12*
%TO.C,C11*%
X50475000Y-42325000D03*
X52375000Y-42325000D03*
%TD*%
%TO.C,C13*%
X68125000Y-53125000D03*
X70025000Y-53125000D03*
%TD*%
%TO.C,C1*%
X68150000Y-63825000D03*
X70050000Y-63825000D03*
%TD*%
D22*
%TO.C,R1*%
X72883900Y-42525000D03*
X71058900Y-42525000D03*
%TD*%
D23*
%TO.C,D1*%
X71005000Y-55891200D03*
X71845000Y-55891200D03*
%TD*%
D15*
%TO.C,J5*%
X65622400Y-72081200D03*
X65622400Y-65481200D03*
D16*
X63097400Y-70781200D03*
X63097400Y-69781200D03*
X63097400Y-68781200D03*
X63097400Y-67781200D03*
X63097400Y-66781200D03*
%TD*%
D24*
%TO.C,J3*%
X51175000Y-77150000D03*
X57775000Y-77150000D03*
D25*
X52475000Y-74625000D03*
X53475000Y-74625000D03*
X54475000Y-74625000D03*
X55475000Y-74625000D03*
X56475000Y-74625000D03*
%TD*%
D26*
%TO.C,U4*%
X51119200Y-46137500D03*
X50619200Y-46137500D03*
X50119200Y-46137500D03*
D27*
X49356700Y-45875000D03*
X49356700Y-45375000D03*
X49356700Y-44875000D03*
X49356700Y-44375000D03*
D26*
X50119200Y-44112500D03*
X50619200Y-44112500D03*
X51119200Y-44112500D03*
D27*
X51881700Y-44375000D03*
X51881700Y-44875000D03*
X51881700Y-45375000D03*
X51881700Y-45875000D03*
%TD*%
D28*
%TO.C,C9*%
X54200000Y-44000000D03*
X54200000Y-42100000D03*
%TD*%
D21*
%TO.C,C2*%
X76325000Y-42525000D03*
X74425000Y-42525000D03*
%TD*%
D29*
%TO.C,U2*%
X50024000Y-58491000D03*
D30*
X42304000Y-48241000D03*
X43574000Y-48241000D03*
X44844000Y-48241000D03*
X46114000Y-48241000D03*
X47384000Y-48241000D03*
X48654000Y-48241000D03*
X49924000Y-48241000D03*
X51194000Y-48241000D03*
X52464000Y-48241000D03*
X53734000Y-48241000D03*
X55004000Y-48241000D03*
X56274000Y-48241000D03*
X57544000Y-48241000D03*
X58814000Y-48241000D03*
D31*
X60064000Y-50006000D03*
X60064000Y-51276000D03*
X60064000Y-52546000D03*
X60064000Y-53816000D03*
X60064000Y-55086000D03*
X60064000Y-56356000D03*
X60064000Y-57626000D03*
X60064000Y-58896000D03*
X60064000Y-60166000D03*
X60064000Y-61436000D03*
X60064000Y-62706000D03*
X60064000Y-63976000D03*
D30*
X58814000Y-65741000D03*
X57544000Y-65741000D03*
X56274000Y-65741000D03*
X55004000Y-65741000D03*
X53734000Y-65741000D03*
X52464000Y-65741000D03*
X51194000Y-65741000D03*
X49924000Y-65741000D03*
X48654000Y-65741000D03*
X47384000Y-65741000D03*
X46114000Y-65741000D03*
X44844000Y-65741000D03*
X43574000Y-65741000D03*
X42304000Y-65741000D03*
%TD*%
D32*
%TO.C,D6*%
X81400296Y-45405000D03*
D11*
X83600000Y-46675000D03*
%TD*%
D33*
%TO.C,D3*%
X71937500Y-59075000D03*
X73812500Y-59075000D03*
%TD*%
D34*
%TO.C,RESET1*%
X75425000Y-39775000D03*
X75425000Y-34015000D03*
X79425000Y-39775000D03*
X79425000Y-34015000D03*
%TD*%
D12*
%TO.C,C4*%
X67847400Y-58075000D03*
X69747400Y-58075000D03*
%TD*%
D13*
%TO.C,J8*%
X54025998Y-34366000D03*
X54025998Y-36906000D03*
D14*
X54025998Y-39446000D03*
%TD*%
D13*
%TO.C,J1*%
X46675000Y-34375000D03*
X46675000Y-36915000D03*
X46675000Y-39455000D03*
D14*
X46675000Y-41995000D03*
%TD*%
D12*
%TO.C,C7*%
X41980000Y-70100000D03*
X43880000Y-70100000D03*
%TD*%
D13*
%TO.C,J13*%
X43075000Y-35135000D03*
X43075000Y-37675000D03*
X43075000Y-40215000D03*
X43075000Y-42755000D03*
D14*
X43075000Y-45295000D03*
%TD*%
D24*
%TO.C,J2*%
X42275000Y-77155000D03*
X48875000Y-77155000D03*
D25*
X43575000Y-74630000D03*
X44575000Y-74630000D03*
X45575000Y-74630000D03*
X46575000Y-74630000D03*
X47575000Y-74630000D03*
%TD*%
D13*
%TO.C,J7*%
X50292332Y-34366000D03*
X50292332Y-36906000D03*
D14*
X50292332Y-39446000D03*
%TD*%
D35*
%TO.C,R5*%
X64525000Y-48212500D03*
X64525000Y-50037500D03*
%TD*%
%TO.C,R2*%
X62475000Y-48246300D03*
X62475000Y-50071300D03*
%TD*%
D36*
%TO.C,D4*%
X76775000Y-50632500D03*
D11*
X76775000Y-48092500D03*
%TD*%
D37*
%TO.C,R6*%
X73287500Y-52975000D03*
X75112500Y-52975000D03*
%TD*%
D24*
%TO.C,J4*%
X60075000Y-77150000D03*
X66675000Y-77150000D03*
D25*
X61375000Y-74625000D03*
X62375000Y-74625000D03*
X63375000Y-74625000D03*
X64375000Y-74625000D03*
X65375000Y-74625000D03*
%TD*%
D34*
%TO.C,BOOT1*%
X72681800Y-34036400D03*
X72681800Y-39796400D03*
X68681800Y-34036400D03*
X68681800Y-39796400D03*
%TD*%
D28*
%TO.C,C10*%
X72130000Y-62861000D03*
X72130000Y-60961000D03*
%TD*%
D12*
%TO.C,C12*%
X73250000Y-54975000D03*
X75150000Y-54975000D03*
%TD*%
D38*
%TO.C,U5*%
X66780000Y-51205000D03*
X66780000Y-49935000D03*
X66780000Y-48665000D03*
X66780000Y-47395000D03*
X71720000Y-47395000D03*
X71720000Y-48665000D03*
X71720000Y-49935000D03*
X71720000Y-51205000D03*
%TD*%
D37*
%TO.C,R7*%
X67612500Y-44725000D03*
X69437500Y-44725000D03*
%TD*%
D17*
%TO.C,R3*%
X74175000Y-62825000D03*
X74175000Y-61000000D03*
%TD*%
D39*
%TO.C,J12*%
X72400000Y-67025000D03*
D40*
X77400000Y-67025000D03*
D41*
X80400000Y-77025000D03*
X69400000Y-77025000D03*
%TD*%
D42*
%TO.C,P1*%
X55260000Y-73120000D03*
X61040000Y-73120000D03*
%TD*%
M02*
